<svg xmlns="http://www.w3.org/2000/svg" viewBox="0 0 360.7 374.7">
	 <defs>
    <radialGradient id="rgA" gradientUnits="userSpaceOnUse" cx="53%" cy="33%" r="700" spreadMethod="repeat">
          <stop offset="0" stop-color="orange">
            <animate id="anim" attributeName="stop-opacity" calcMode="linear" begin="0s" dur="13s" values="0;1;0" keitimes="0;0.5;1" repeatCount="indefinite" />
          </stop>
          <stop stop-color="red">
            <animate attributeName="offset" calcMode="linear" begin="0s" dur="13s" values="0;0;1" keitimes="0;1;2" repeatCount="indefinite" />
            <animate attributeName="stop-opacity" calcMode="linear" begin="0s" dur="13s" values="0;1;1" keitimes="0;1;2" repeatCount="indefinite" />
          </stop>
          <stop stop-color="yellow" stop-opacity="0">
            <animate attributeName="offset" calcMode="linear" begin="0s" dur="13s" values="0;1" keitimes="0;1" repeatCount="indefinite" />
          </stop>
          <stop stop-color="purple">
            <animate attributeName="offset" calcMode="linear" begin="0s" dur="13s" values="1;2;1" keitimes="0;1;1" repeatCount="indefinite" />
            <animate attributeName="stop-opacity" calcMode="linear" begin="0s" dur="13s" values="1;1;0" keitimes="0;1;1" repeatCount="indefinite" />
          </stop>
          <stop offset="0" stop-color="blue">
            <animate attributeName="stop-opacity" calcMode="linear" begin="0s" dur="13s" values="0;1;0" keitimes="0;1;1" repeatCount="indefinite" />
          </stop>
        </radialGradient>
        <radialGradient id="rgB" gradientUnits="userSpaceOnUse" cx="100" cy="100" r="800">
          <stop offset="50%" stop-opacity="0.2" />
          <stop offset="150%" stop-opacity="0.6" />
        </radialGradient>
      </defs>
  <g stroke-width=".7" stroke-linejoin="round">fill="url(#rgA)"
    <path fill="#EC7504" stroke="#EC7504" d="M98.3 373.4v1l1.5-1 1.5-1v-12l.5-.5.5-.5.5-1 .5-1 1.5-1.5 1.5-1.5-1-.5-1-.5 4-5.5 4-5.5-1.5-3.5-1.5-3.5 2-5 2-5 2-5 2-5 1.5-6 1.5-6-.5 1-.5 1-1 1-1 1-.5.5-.5.5-1 .5-1 .5-.5 1.5-.5 1.5-1 1-1 1v2l-.5 1-.5 1-1 1-1 1v2l-.5 1-.5 1-.5 1.5-.5 1.5v2l-.5 1-.5 1-1 1-1 1-.5 1.5-.5 1.5-.5 1-.5 1v3l-.5 1-.5 1v4l-.5.5-.5.5v5l-.5.5-.5.5v2l-.5 1-.5 1v6l-.5 1.5-.5 1.5.5 1 .5 1 .5 1 .5 1v2z"/>
    <path fill="url(#rgA)" stroke="#url(#rgA)" d="M197.4 366.4h2l.5-1.5.5-1.5v-3l.5-.5.5-.5-.5-1.5-.5-1.5.5-1 .5-1 .5-1 .5-1v-1l-1-2-1-2 1-1.5 1-1.5-.5-1.5-.5-1.5.5-1.5.5-1.5.5-1.5.5-1.5v-2h-3l-4-4.5-4-4.5-7-1.5-7-1.5 1.5 1.5 1.5 1.5v5l2.5 3 2.5 3 3.5-.5 3.5-.5 2 15 2 15v2z"/>
    <path fill="#EC7504" stroke="#EC7504" d="M196.4 363.4l1 1-2-15-2-15-3.5.5-3.5.5-2.5-3-2.5-3 .5 2 .5 2 1 1 1 1 1 2 1 2 .5 1.5.5 1.5.5 1.5.5 1.5.5 1 .5 1 .5 1.5.5 1.5v3l.5.5.5.5 1 1 1 1 .5 1 .5 1 .5 1.5.5 1.5.5 1 .5 1z"/>
    <path fill="url(#rgA)" stroke="#url(#rgA)" d="M104.3 353.4l2 1 10-9 10-9 3.5-3.5 3.5-3.5 4 1.5 4 1.5v-1l.5-7.5.5-7.5-2.5-3.5-2.5-3.5-1 6.5-1 6.5-4.5 1.5-4.5 1.5-.5-3.5-.5-3.5 4-2 4-2 1.5-4.5 1.5-4.5 2.5-4 2.5-4 6.5-.5 6.5-.5 4.5-6.5 4.5-6.5-2-1-2-1 2.5-3.5 2.5-3.5 6 3 6 3 6.5-1 6.5-1 4-4 4-4 11.5-2.5 11.5-2.5v-1l-1-1.5-1-1.5-1.5-1-1.5-1-1.5-.5-1.5-.5-1 1.5-1 1.5h-2l-1-1-1-1-1-.5-1-.5-2-1-2-1-1-1-1-1-2 .5-2 .5-1 1-1 1 3.5 3 3.5 3 6 1 6 1-10 3.5-10 3.5v-4l-1.5-.5-1.5-.5-1.5-.5-1.5-.5 1-1.5 1-1.5.5-1.5.5-1.5 1-1.5 1-1.5-4.5-1-4.5-1 5.5-3.5 5.5-3.5 5-4 5-4 4 2 4 2 3.5 6 3.5 6 2.5.5 2.5.5 1.5-7.5 1.5-7.5-.5-1.5-.5-1.5-6.5-9.5-6.5-9.5-.5 1.5-.5 1.5h-2l-1.5-1-1.5-1 .5-1.5.5-1.5 1.5-1.5 1.5-1.5-2-2.5-2-2.5 2-3.5 2-3.5-3.5-4.5-3.5-4.5-3 4-3 4-3-1-3-1-6 2-6 2-4-5-4-5-7.5.5-7.5.5-1 2-1 2-1.5-.5-1.5-.5h-6l-.5 1-.5 1-.5.5-.5.5v3l.5 1.5.5 1.5 1 1.5 1 1.5 1 1 1 1v-7h8l2 6 2 6 5 3 5 3-5 6-5 6 6 .5 6 .5-2 4.5-2 4.5 7 2 7 2-8 3-8 3-3.5-3.5-3.5-3.5-3-4-3-4 3.5-2.5 3.5-2.5-5-.5-5-.5-5.5 4.5-5.5 4.5 2 9 2 9-4.5-4-4.5-4-.5-4.5-.5-4.5-4-3-4-3-5-3-5-3-2 1-2 1-2-1.5-2-1.5-7-2-7-2-1.5-1.5-1.5-1.5-7 1-7 1-3 1.5-3 1.5 2 1 2 1 1 1 1 1 1.5 1 1.5 1 1 1 1 1 2 .5 2 .5 1-1 1-1 .5-.5.5-.5h2l1-.5 1-.5.5.5.5.5v2h-2v2h-3l.5.5.5.5h4l1 .5 1 .5h2l.5.5.5.5.5.5.5.5.5 1 .5 1 .5.5.5.5h2l9.5 3 9.5 3 5 2 5 2 9.5 5.5 9.5 5.5h3l1-1 1-1v-1l-1-1-1-1-1-1.5-1-1.5v-2l1.5-.5 1.5-.5h5l.5 2 .5 2v2l-1.5 1.5-1.5 1.5 8 .5 8 .5-5.5 2.5-5.5 2.5-1-.5-1-.5h-7l-1-.5-1-.5-.5 1-.5 1-2 .5-2 .5-1 1-1 1-.5 1.5-.5 1.5-1.5 1-1.5 1-1 1-1 1-1 1.5-1 1.5-1.5 1.5-1.5 1.5 1 .5 1 .5-.5 1-.5 1-.5 1.5-.5 1.5.5.5.5.5-1 .5-1 .5-1.5.5-1.5.5h-3l-1 1.5-1 1.5-.5.5-.5.5-1 .5-1 .5-.5 1-.5 1-1.5 6-1.5 6-2 5-2 5-2 5-2 5 1.5 3.5 1.5 3.5-4 5.5-4 5.5z"/>
    <path fill="#FBAF9B" stroke="#FBAF9B" d="M200.4 333.4h3l2.5-8.5 2.5-8.5 4-9 4-9-1.5-.5-1.5-.5-2-6.5-2-6.5 5.5-9.5 5.5-9.5-11.5 2.5-11.5 2.5-4 4-4 4-6.5 1-6.5 1-6-3-6-3-2.5 3.5-2.5 3.5 2 1 2 1-4.5 6.5-4.5 6.5-6.5.5-6.5.5-2.5 4-2.5 4-1.5 4.5-1.5 4.5-4 2-4 2 .5 3.5.5 3.5 4.5-1.5 4.5-1.5 1-6.5 1-6.5 2.5 3.5 2.5 3.5-.5 7.5-.5 7.5 1-.5 1-.5v-1l5-3.5 5-3.5 3.5-7.5 3.5-7.5-1 7-1 7 1.5.5 1.5.5 1-.5 1-.5v-1l5-6.5 5-6.5 2.5-6.5 2.5-6.5h6l2.5 4.5 2.5 4.5 2.5 4 2.5 4-10 1.5-10 1.5 1.5.5 1.5.5.5 3 .5 3 7 1.5 7 1.5 4 4.5 4 4.5z"/>
    <path fill="#EC7504" stroke="#EC7504" d="M141.4 331.4v1l1-.5 1-.5h4l1.5-1 1.5-1 1.5-.5 1.5-.5 1.5-1 1.5-1 1.5-.5 1.5-.5 1-.5 1-.5.5-.5.5-.5 1-1 1-1h-1l-1 .5-1 .5-1.5-.5-1.5-.5h-3l.5.5.5.5 1 .5 1 .5-1 1-1 1h-2l-1 .5-1 .5-1.5.5-1.5.5-.5.5-.5.5-1 .5-1 .5-1.5.5-1.5.5-1 .5-1 .5z"/>
    <path fill="url(#rgA)" stroke="url(#rgA)" d="M143.4 329.4v1l1.5-.5 1.5-.5 1-.5 1-.5.5-.5.5-.5 1.5-.5 1.5-.5 1-.5 1-.5h2l1-1 1-1-1-.5-1-.5-.5-.5-.5-.5h3l1-7 1-7-3.5 7.5-3.5 7.5-5 3.5-5 3.5zm20-9v1h1l1-.5 1-.5.5-1 .5-1h2l1-1 1-1 1.5-1 1.5-1 10-1.5 10-1.5-2.5-4-2.5-4-2.5-4.5-2.5-4.5h-6l-2.5 6.5-2.5 6.5-5 6.5-5 6.5z"/>
    <path fill="#F3DECE" stroke="#F3DECE" d="M204.4 306.4l1-1 .5-1.5.5-1.5-.5-2-.5-2v-7l-1 1-1 1-.5 1-.5 1-.5 2.5-.5 2.5 1 1 1 1 .5 2 .5 2zm-50-2h2l1-1 1-1 1.5-1 1.5-1 1.5-.5 1.5-.5v-5l-1 1-1 1-1.5 1-1.5 1h-4l-.5 1.5-.5 1.5v3z"/>
    <path fill="#FE3B4C" stroke="#FE3B4C" d="M149.4 297.4l5-9-2.5-3.5-2.5-3.5-1 2.5-1 2.5 1 5.5 1 5.5z"/>
    <path fill="#F3DECE" stroke="#F3DECE" d="M213.4 297.4l3 1 3-11.5 3-11.5 4.5-2.5 4.5-2.5 9 2.5 9 2.5 4.5-5 4.5-5 2.5-4.5 2.5-4.5 5-.5 5-.5h3l2 1 2 1v-3l1-.5 1-.5 2-.5 2-.5 1 1 1 1h4l1-1 1-1 1.5-.5 1.5-.5 2-.5 2-.5 1.5-.5 1.5-.5 2-.5 2-.5 1.5-.5 1.5-.5 2-.5 2-.5v-1l-6-4-6-4 10.5 2 10.5 2 1-1 1-1 2-.5 2-.5-4-2-4-2-1.5-3.5-1.5-3.5 2.5.5 2.5.5-5-3-5-3-7.5 2.5-7.5 2.5-1 1.5-1 1.5-6.5-.5-6.5-.5-2 5-2 5-9.5 2.5-9.5 2.5-6.5 4-6.5 4v10l-14 1.5-14 1.5-5.5 9.5-5.5 9.5 2 6.5 2 6.5z"/>
    <path fill="#FBAF9B" stroke="#FBAF9B" d="M308.4 297.4l2 1 1.5-1.5 1.5-1.5v-2l-1-1.5-1-1.5-1-2-1-2-.5 1.5-.5 1.5-.5 1-.5 1-.5.5-.5.5.5.5.5.5.5.5.5.5-.5.5-.5.5-1 .5-1 .5 1.5.5 1.5.5z"/>
    <path fill="#EC7504" stroke="#EC7504" d="M127.3 296.4h2l1.5-.5 1.5-.5 1-.5 1-.5-.5-.5-.5-.5.5-1.5.5-1.5.5-1 .5-1-1-.5-1-.5h-1l-.5 1-.5 1v2l-1.5.5-1.5.5-1 2-1 2h1z"/>
    <path fill="url(#rgA)" stroke="url(#rgA)" d="M199.4 295.4h3v-3l1-1.5 1-1.5.5-1.5.5-1.5h-3l-1 1-1 1-1.5 1-1.5 1h-6l.5 2 .5 2h4l1.5.5 1.5.5zm101 0l5 1 1-.5 1-.5.5-.5.5-.5-.5-.5-.5-.5-.5-.5-.5-.5.5-.5.5-.5.5-1 .5-1 .5-1.5.5-1.5-.5-1-.5-1-.5-.5-.5-.5v-2l-.5-.5-.5-.5-.5-1-.5-1v3l-.5 1-.5 1-.5.5-.5.5v4l-1.5-.5-1.5-.5-.5-1-.5-1-1-1-1-1-1.5-.5-1.5-.5v1l1 1 1 1-1-.5-1-.5-1 1-1 1-2 .5-2 .5v1l1.5.5 1.5.5 1 1 1 1 1 .5 1 .5.5.5.5.5h3l.5 1 .5 1z"/>
    <path fill="#F3DECE" stroke="#F3DECE" d="M168.4 293.4l8-6-3 1-3 1-1 2-1 2zm26-6l12-4-2.5-3.5-2.5-3.5-5 3.5-5 3.5 1.5 2 1.5 2z"/>
    <path fill="#FBAF9B" stroke="#FBAF9B" d="M300.4 287.4l3 1v-4l.5-.5.5-.5.5-1 .5-1v-4l-1 .5-1 .5v2l-1 .5-1 .5-.5-1.5-.5-1.5-.5-1-.5-1-1-1-1-1v-2l.5-.5.5-.5 1-1 1-1-1-.5-1-.5h-4l-.5-.5-.5-.5-.5-1-.5-1h4l.5-.5.5-.5-1-.5-1-.5-.5-.5-.5-.5-.5-.5-.5-.5-.5-.5-.5-.5-.5-.5-.5-.5-.5-1-.5-1 1-1 1-1v-1h-4l-1-1-1-1-2 .5-2 .5-1 .5-1 .5v3l3 7.5 3 7.5-1 6.5-1 6.5 1 .5 1 .5 1 .5 1 .5 2-.5 2-.5 1-1 1-1 1 .5 1 .5-1-1-1-1v-1l1.5.5 1.5.5 1 1 1 1 .5 1 .5 1z"/>
    <path fill="#F3DECE" stroke="#F3DECE" d="M282.4 284.4l2 1 1-6.5 1-6.5-3-7.5-3-7.5-1 1-1 1 .5 1.5.5 1.5-.5.5-.5.5-.5 1-.5 1-.5 1.5-.5 1.5.5 2 .5 2-1 1-1 1-2 .5-2 .5-1.5.5-1.5.5h-2l-.5-2.5-.5-2.5 1.5-.5 1.5-.5v-5l2-.5 2-.5v-2l1-1.5 1-1.5-.5-2-.5-2-1 1-1 1 .5 1 .5 1h-2l-1.5.5-1.5.5h-2l-.5 1-.5 1 .5 1.5.5 1.5h-2l-1 .5-1 .5v4l-.5.5-.5.5-.5 1-.5 1-.5 2-.5 2 2 .5 2 .5h2l1.5 1 1.5 1h4l2 .5 2 .5 1 1 1 1 2.5.5 2.5.5z"/>
    <path fill="url(#rgA)" stroke="url(#rgA)1" d="M301.4 281.4l2-1v-2l1-.5 1-.5v-3l-1-1-1-1-.5-1-.5-1-.5-.5-.5-.5h-1l-1 1-1 1-.5.5-.5.5v2l1 1 1 1 .5 1 .5 1 .5 1.5.5 1.5z"/>
    <path fill="#FBAF9B" stroke="#FBAF9B" d="M256.4 276.4l2 1 .5-2 .5-2 .5-1 .5-1 .5-.5.5-.5v-4l1-.5 1-.5h2l-.5-1.5-.5-1.5.5-1 .5-1h2l1.5-.5 1.5-.5h2l-.5-1-.5-1 1-1 1-1-5 .5-5 .5-2.5 4.5-2.5 4.5-4.5 5-4.5 5 1.5.5 1.5.5h2l-.5-.5-.5-.5v-2l-.5-1-.5-1 .5-.5.5-.5h4l.5 1 .5 1-.5.5-.5.5-.5 1.5-.5 1.5z"/>
    <path fill="#FBAF9B" stroke="#FBAF9B" d="M266.4 276.4h2l1.5-.5 1.5-.5 2-.5 2-.5 1-1 1-1-.5-2-.5-2 .5-1.5.5-1.5.5-1 .5-1 .5-.5.5-.5-.5-1.5-.5-1.5 1-1 1-1-2-1-2-1h-3l.5 2 .5 2-1 1.5-1 1.5v2l-2 .5-2 .5v5l-1.5.5-1.5.5.5 2.5.5 2.5z"/>
    <path fill="#EC7504" stroke="#EC7504" d="M191.4 272.4l20-7-6-1-6-1-3.5-3-3.5-3h-2l-1 1.5-1 1.5-.5 1.5-.5 1.5-1 1.5-1 1.5 1.5.5 1.5.5 1.5.5 1.5.5v4zm-29-1l11-5-8-.5-8-.5h-2l-1 1-1 1h-3v1l.5.5.5.5 1 .5 1 .5h7l1 .5 1 .5z"/>
    <path fill="#FE3B4C" stroke="#FE3B4C" d="M155.4 264.4v1h2l1.5-1.5 1.5-1.5v-2l-.5-2-.5-2h-5l-1.5.5-1.5.5v2l1 1.5 1 1.5 1 1 1 1z"/>
    <path fill="#FBAF9B" stroke="#FBAF9B" d="M220.4 264.4v1l14-1.5 14-1.5v-10l6.5-4 6.5-4h-7l-5 4.5-5 4.5-7 3.5-7 3.5 4.5-3 4.5-3-3-1-3-1-3-10.5-3-10.5-2-.5-2-.5-1-1-1-1-.5-1.5-.5-1.5 1-1.5 1-1.5 1-1 1-1 1.5 1 1.5 1-.5 1.5-.5 1.5-1.5 1-1.5 1 2 .5 2 .5 4.5 1 4.5 1 1-6.5 1-6.5 3 6 3 6 7.5-.5 7.5-.5 5.5-.5 5.5-.5 1 5 1 5-5.5 3.5-5.5 3.5 9.5-2.5 9.5-2.5 2-5 2-5 6.5.5 6.5.5 1-1.5 1-1.5 7.5-2.5 7.5-2.5 5 3 5 3-2.5-.5-2.5-.5 1.5 3.5 1.5 3.5 4 2 4 2h1l1-1 1-1 1-1 1-1 1.5-1 1.5-1 .5-1.5.5-1.5h6v-2l-1-1-1-1v-2l-1-1.5-1-1.5-1-1-1-1 1.5-1 1.5-1 1-1 1-1 1-1 1-1-1 .5-1 .5-2-.5-2-.5-.5-.5-.5-.5-1.5.5-1.5.5-.5-.5-.5-.5h-5l-1 1-1 1-.5.5-.5.5-1 .5-1 .5-.5.5-.5.5.5.5.5.5h-2l-.5 1-.5 1h-2l-.5.5-.5.5h-2l-1-.5-1-.5v-2l-.5-.5-.5-.5h-2l-1-.5-1-.5v-2l-.5-.5-.5-.5-.5-.5-.5-.5h-2l-1 .5-1 .5-.5-.5-.5-.5-1-.5-1-.5-2 1-2 1-1.5-.5-1.5-.5h-2l.5 6 .5 6-6.5 2-6.5 2-1.5-.5-1.5-.5-1 .5-1 .5-1-1-1-1-1.5-1-1.5-1 .5-1.5.5-1.5-.5-1.5-.5-1.5.5-.5.5-.5.5-1 .5-1-.5-1-.5-1v-2l-1.5 2-1.5 2v4l-.5.5-.5.5h-5l-.5-.5-.5-.5h-2l1.5-.5 1.5-.5-.5-1-.5-1-.5-.5-.5-.5-.5.5-.5.5h-2l-.5-1-.5-1-1-1-1-1v-2h-3v-4h2l.5.5.5.5h1l1.5-.5 1.5-.5v-4l-.5-1.5-.5-1.5-1.5 1-1.5 1-.5 1-.5 1-2 .5-2 .5-1.5.5-1.5.5-.5.5-.5.5.5.5.5.5v2l-1 .5-1 .5-.5.5-.5.5-.5.5-.5.5v2l.5 1 .5 1 .5.5.5.5v2l-.5.5-.5.5-1.5-.5-1.5-.5v-3l-1-.5-1-.5v-3l1.5-.5 1.5-.5 1-1.5 1-1.5v-4l1.5-1 1.5-1-.5-1.5-.5-1.5-1.5 1-1.5 1h-2l-.5 1.5-.5 1.5.5 1 .5 1-.5 1.5-.5 1.5h-5l-1.5 1-1.5 1-.5 1.5-.5 1.5-1.5-.5-1.5-.5v-3l1-1.5 1-1.5.5-1.5.5-1.5 1.5-1 1.5-1 1.5-.5 1.5-.5.5-1.5.5-1.5-.5-2-.5-2 1-1 1-1 1.5.5 1.5.5-1.5-1-1.5-1-2 1.5-2 1.5.5 1 .5 1-.5 1.5-.5 1.5-.5.5-.5.5-.5 1-.5 1-2-.5-2-.5-4-3-4-3-5-1-5-1-5.5-2.5-5.5-2.5.5-1.5.5-1.5h8l4-.5 4-.5-6-4-6-4-.5-.5-.5-.5-1-.5-1-.5-1-1-1-1-6.5 3.5-6.5 3.5-4 5.5-4 5.5-7.5-2-7.5-2 .5-3.5.5-3.5h12l4 .5 4 .5-2-7-2-7-3-4-3-4-1-7-1-7v7l1 1 1 1v3l-1.5.5-1.5.5h-2l-1.5-.5-1.5-.5-1-1-1-1v-2l1-.5 1-.5.5-1.5.5-1.5.5-1.5.5-1.5v-2l2 .5 2 .5-7 2-7 2-1.5 2.5-1.5 2.5 2-.5 2-.5 1.5.5 1.5.5.5 1.5.5 1.5v3l6.5 5 6.5 5-7 2-7 2-1-1.5-1-1.5-1.5-.5-1.5-.5h-4l-.5-.5-.5-.5-.5-1-.5-1v-4l-.5-.5-.5-.5h-3l-1 .5-1 .5v3l.5 1 .5 1h2l.5.5.5.5-.5.5-.5.5v3l.5 1 .5 1 1-1.5 1-1.5.5 2 .5 2 1.5.5 1.5.5 1.5-1 1.5-1 .5.5.5.5-.5 2-.5 2-.5 1.5-.5 1.5v4l-1 .5-1 .5-1-1-1-1 .5-2 .5-2-1-1-1-1-1-1-1-1v3l.5.5.5.5v3l.5.5.5.5.5.5.5.5v2l.5 1 .5 1 .5 1.5.5 1.5v3l7.5-.5 7.5-.5 4 5 4 5 6-2 6-2 3 1 3 1 3-4 3-4 3.5 4.5 3.5 4.5-2 3.5-2 3.5 2 2.5 2 2.5.5-1 .5-1 .5-1 .5-1 1 1 1 1v2l.5 1 .5 1-1.5 1.5-1.5 1.5 6.5 9.5 6.5 9.5.5 1.5.5 1.5-1.5 7.5-1.5 7.5-2.5-.5-2.5-.5-3.5-6-3.5-6-4-2-4-2-5 4-5 4-5.5 3.5-5.5 3.5 4.5 1 4.5 1h2l1-1 1-1 2-.5 2-.5 1 1 1 1 2 1 2 1-.5-1-.5-1 1-1 1-1h3l1.5-.5 1.5-.5 1 .5 1 .5v2l-1.5 1-1.5 1-2 .5-2 .5 1 1 1 1h2l1-1.5 1-1.5 1.5.5 1.5.5 1.5 1 1.5 1 1 1.5 1 1.5z"/>
    <path fill="#FBAF9B" stroke="#FBAF9B" d="M142.4 261.4l-4-18 5.5-4.5 5.5-4.5 5 .5 5 .5 5-6 5-6-5-3-5-3-2-6-2-6h-8v7h3l.5-.5.5-.5v3l1 1 1 1v2l-.5 1-.5 1-1.5.5-1.5.5-1 1.5-1 1.5h-2l-1.5.5-1.5.5v4l-.5 1.5-.5 1.5-2 .5-2 .5-.5 1.5-.5 1.5-1.5-.5-1.5-.5-6.5-4.5-6.5-4.5-7.5-2.5-7.5-2.5-7.5-3.5-7.5-3.5-3-2-3-2-4 2.5-4 2.5-6-2-6-2-5-1-5-1-4.5-3.5-4.5-3.5 8.5-3.5 8.5-3.5-9.5 2.5-9.5 2.5-2.9.9-4.1 1.2-3.9 2.5-4.1 2.4-.5 1.5-.5 1.5h-2l-1 .5-1 .5-.5.5-.5.5h-2l-.5.5-.5.5-1 .5-1 .5h-2l-.5.5-.5.5-.5-.5-.5-.5h-2l-1-.5-1-.5-1.5 1-1.5 1 1.5.5 1.5.5.5.5.5.5.5.5.5.5-.5.5-.5.5-1.5 1-1.5 1 9.5-1.5 9.5-1.5 9.5 2 9.5 2 4.5.5 4.5.5 7.5 3 7.5 3 3-1.5 3-1.5 7-1 7-1 1.5 1.5 1.5 1.5 7 2 7 2 2 1.5 2 1.5 2-1 2-1 5 3 5 3 4 3 4 3 .5 4.5.5 4.5 4.5 4 4.5 4z"/>
    <path fill="url(#rgA)" stroke="url(#rgA)" d="M230.4 260.4l14-7 5-4.5 5-4.5h7l5.5-3.5 5.5-3.5-1-5-1-5-5.5.5-5.5.5-7.5.5-7.5.5-3-6-3-6-1 6.5-1 6.5-4.5-1-4.5-1v3l3 10.5 3 10.5 3 1 3 1-4.5 3-4.5 3z"/>
    <path fill="#F3DECE" stroke="#F3DECE" d="M204.4 258.4l2 1 2-.5 2-.5 1.5-1 1.5-1v-2l-1-.5-1-.5-1.5.5-1.5.5h-3l-1 1-1 1 .5 1 .5 1z"/>
    <path fill="#EC7504" stroke="#EC7504" d="M165.4 255.4l16-6-7-2-7-2 2-4.5 2-4.5-6-.5-6-.5-3.5 2.5-3.5 2.5 3 4 3 4 3.5 3.5 3.5 3.5z"/>
    <path fill="#FBAF9B" stroke="#FBAF9B" d="M315.4 245.4v1l1.5-.5 1.5-.5 1-.5 1-.5 2-1.5 2-1.5-10.5-2-10.5-2 6 4 6 4z"/>
    <path fill="#FE3B4C" stroke="#FE3B4C" d="M190.4 243.4h2l-.5-1.5-.5-1.5-.5-2-.5-2 .5-1.5.5-1.5-2-.5-2-.5.5-1.5.5-1.5v-1l-1.5.5-1.5.5-.5 1.5-.5 1.5 1 1 1 1-1 .5-1 .5 1 2 1 2 1 1.5 1 1.5 1 .5 1 .5zm55-1l12-8-1.5-2.5-1.5-2.5-8 .5-8 .5 3.5 6 3.5 6z"/>
    <path fill="#F3DECE" stroke="#F3DECE" d="M164.4 237.4l3-15-6.5-1.5-6.5-1.5-1.5 3-1.5 3 2 .5 2 .5-.5 1-.5 1 1 2 1 2 1.5-.5 1.5-.5 1.5.5 1.5.5 1 1.5 1 1.5v2z"/>
    <path fill="url(#rgA)" stroke="url(#rgA)" d="M133.4 235.4l3 1 .5-1.5.5-1.5 2-.5 2-.5.5-1.5.5-1.5v-4l-1.5 1-1.5 1h-3l.5 1.5.5 1.5-1 .5-1 .5-7-4-7-4-3.5-5.5-3.5-5.5-5 1-5 1-4-3.5-4-3.5-4.5-2.5-4.5-2.5-5.5-5-5.5-5-1 .5-1 .5h-4l-1 1-1 1-1.5-.5-1.5-.5h-1l-1 .5-1 .5-8.5 3.5-8.5 3.5 4.5 3.5 4.5 3.5 5 1 5 1 6 2 6 2 4-2.5 4-2.5 3 2 3 2 7.5 3.5 7.5 3.5 7.5 2.5 7.5 2.5 6.5 4.5 6.5 4.5z"/>
    <path fill="#EC7504" stroke="#EC7504" d="M179.4 234.4l3 1h2l1-.5 1-.5-1-1-1-1 .5-1.5.5-1.5 1.5-.5 1.5-.5 5-5.5 5-5.5-3-4-3-4h-6l1.5 5.5 1.5 5.5-2 1.5-2 1.5v3l-1.5.5-1.5.5-1 1.5-1 1.5v2l-.5 1-.5 1z"/>
    <path fill="#FBAF9B" stroke="#FBAF9B" d="M193.4 234.4l11-9h-8l-1.5 4.5-1.5 4.5z"/>
    <path fill="#FE3B4C" stroke="#FE3B4C" d="M174.4 232.4l1-1 1-1 1-1 .5-2 .5-2h2l1 1 1 1 1.5-.5 1.5-.5v-3h-3l-.5-1.5-.5-1.5-.5-1.5-.5-1.5-1 1.5-1 1.5h-2l-2-.5-2-.5-1 1-1 1 1.5 1 1.5 1 .5 1.5.5 1.5v6z"/>
    <path fill="#EC7504" stroke="#EC7504" d="M135.4 231.4l2-1-.5-1.5-.5-1.5h3l1.5-1 1.5-1 1.5-.5 1.5-.5h2l1-1.5 1-1.5 1.5-.5 1.5-.5.5-1 .5-1v-2l-1-1-1-1v-3l-.5.5-.5.5h-3l-1-1-1-1-1-1.5-1-1.5-.5-1.5-.5-1.5v-3l.5-.5.5-.5.5-1 .5-1-1.5-.5-1.5-.5h-6l-1 .5-1 .5h-4l-1.5-.5-1.5-.5h-3l-1.5-.5-1.5-.5-.5-.5-.5-.5-2.5-.5-2.5-.5-2.5-1-2.5-1-2-.5-2-.5h-6l-2-.5-2-.5-1.5.5-1.5.5h-10l-1.5.5-1.5.5h-3l5.5 5 5.5 5 4.5 2.5 4.5 2.5 4 3.5 4 3.5 5-1 5-1 3.5 5.5 3.5 5.5 7 4 7 4z"/>
    <path fill="#B6B1A5" stroke="#B6B1A5" d="M144.4 230.4h2l1.5-.5 1.5-.5 1.5 1 1.5 1v-2l1-.5 1-.5.5-1 .5-1-2-.5-2-.5-1 .5-1 .5-1.5.5-1.5.5-1.5.5-1.5.5.5 1 .5 1z"/>
    <path fill="#FE3B4C" stroke="#FE3B4C" d="M223.4 230.4l4 1v-3l-2-.5-2-.5 1.5-1 1.5-1 .5-1.5.5-1.5-1.5-1-1.5-1-1 1-1 1-1 1.5-1 1.5.5 1.5.5 1.5 1 1 1 1z"/>
    <path fill="url(#rgA)" stroke="url(#rgA)" d="M345.4 228.4v1l1-.5 1-.5 1.5-.5 1.5-.5 1-.5 1-.5v-1l-1.5-1-1.5-1 .5-1.5.5-1.5-1.5-1-1.5-1-.5-1.5-.5-1.5 2-.5 2-.5 1-1 1-1h-6l-1 1-1 1-1 1-1 1-1.5 1-1.5 1 1 1 1 1 1 1.5 1 1.5v2l1 1 1 1v1zm-65-1l13-4-.5-6-.5-6v-1l-1 .5-1 .5h-3l-1 .5-1 .5h-3l-.5.5-.5.5h-2l-.5.5-.5.5h-6l-.5 1-.5 1-.5.5-.5.5.5 1.5.5 1.5-.5 1.5-.5 1.5 1.5 1 1.5 1 1 1 1 1 1-.5 1-.5 1.5.5 1.5.5z"/>
    <path fill="#F3DECE" stroke="#F3DECE" d="M248.4 226.4l-1-13v12l.5.5.5.5z"/>
    <path fill="#EC7504" stroke="#EC7504" d="M352.4 225.4v1h3l1.5-1 1.5-1 1-1 1-1-1-1.5-1-1.5-.5-.5-.5-.5.5-2 .5-2-1.5-.5-1.5-.5-1.5-.5-1.5-.5-1 1-1 1-2 .5-2 .5.5 1.5.5 1.5 1.5 1 1.5 1-.5 1.5-.5 1.5 1.5 1 1.5 1z"/>
    <path fill="#FE3B4C" stroke="#FE3B4C" d="M208.4 223.4h2l.5-1.5.5-1.5 1.5-1.5 1.5-1.5-.5-1-.5-1v-2l-1-1-1-1-.5 1-.5 1-.5 1-.5 1-1.5 1.5-1.5 1.5-.5 1.5-.5 1.5 1.5 1 1.5 1z"/>
    <path fill="#F3DECE" stroke="#F3DECE" d="M300.4 223.4l4-10-5.5 3.5-5.5 3.5 3.5 1.5 3.5 1.5z"/>
    <path fill="url(#rgA)" stroke="url(#rgA)" d="M61.3 222.4v-10 10z"/>
    <path fill="#F3DECE" stroke="#F3DECE" d="M.3 220.4l3 1h4l1.5-1 1.5-1 .5-.5.5-.5-.5-.5-.5-.5-.5-.5-.5-.5-1.5-.5-1.5-.5-1 .5-1 .5h-2l-.5 1-.5 1-.5 1-.5 1z"/>
    <path fill="url(#rgA)" stroke="url(#rgA)" d="M317.4 220.4h2l.5-.5.5-.5h2l.5-1 .5-1h2l-.5-.5-.5-.5.5-.5.5-.5 1-.5 1-.5.5-.5.5-.5 1-1 1-1h-3l-1.5.5-1.5.5-1 1-1 1h-2l-1.5-1-1.5-1-2-.5-2-.5-.5-1.5-.5-1.5-1-.5-1-.5h-4l-2 1-2 1-.5.5-.5.5 1 .5 1 .5.5.5.5.5 1-.5 1-.5h2l.5.5.5.5.5.5.5.5v2l1 .5 1 .5h2l.5.5.5.5v2l1 .5 1 .5z"/>
    <path fill="#F3DECE" stroke="#F3DECE" d="M70.3 219.4h2l1-1 1-1-.5-2-.5-2-1.5-.5-1.5-.5-1.5 1-1.5 1v2l1.5 1 1.5 1v1z"/>
    <path fill="url(#rgA)" stroke="url(#rgA)" d="M240.4 218.4l3 1 .5-.5.5-.5v-2l-.5-.5-.5-.5-.5-1-.5-1v-2l.5-.5.5-.5.5-.5.5-.5 1-.5 1-.5v-2l-.5-.5-.5-.5.5-.5.5-.5 1.5-.5 1.5-.5 2-.5 2-.5-3-.5-3-.5.5-1.5.5-1.5v-5l1 1 1 1 .5-2 .5-2 .5-1.5.5-1.5-1.5 1-1.5 1h-3v-1l-1 2-1 2-.5-2-.5-2h-2l-1.5.5-1.5.5 1.5 1 1.5 1 1 1.5 1 1.5 1.5-.5 1.5-.5-.5 2-.5 2 .5 1.5.5 1.5-1.5 1-1.5 1v4l-1 1.5-1 1.5-1.5.5-1.5.5v3l1 .5 1 .5v3z"/>
    <path fill="url(#rgA)" stroke="url(#rgA)" d="M259.4 218.4h2l.5.5.5.5h5l.5-.5.5-.5v-4l-1 .5-1 .5-1-.5-1-.5-1-.5-1-.5-1-.5-1-.5h-2l-.5-.5-.5-.5-.5-.5-.5-.5-.5-.5-.5-.5.5-1 .5-1 1-1 1-1-1.5.5-1.5.5h-1l-.5-.5-.5-.5h-2v4h3v2l1 1 1 1 .5 1 .5 1h2l.5-.5.5-.5.5.5.5.5.5 1 .5 1-1.5.5-1.5.5zm-39-2h2l1-1 1-1 .5-2 .5-2-.5-1.5-.5-1.5-2 .5-2 .5-1 1-1 1v5l1 .5 1 .5z"/>
    <path fill="#F3DECE" stroke="#F3DECE" d="M11.4 214.4h2l.5.5.5.5.5-.5.5-.5h2l1-.5 1-.5.5-.5.5-.5h2l.5-.5.5-.5 1-.5 1-.5h2l.5-1.5.5-1.5-1 .5-1 .5h-2l-1.5.5-1.5.5-1.5 1-1.5 1h-4l-1.5.5-1.5.5-1 .5-1 .5 1 .5 1 .5z"/>
    <path fill="#FE3B4C" stroke="#FE3B4C" d="M264.4 214.4l2 1 1-.5 1-.5 1.5-2 1.5-2 1-1 1-1 .5-2 .5-2v-2l1-.5 1-.5h-8l-.5-3-.5-3-5.5-6-5.5-6-1 1.5-1 1.5-1 1-1 1-.5 1.5-.5 1.5-.5 2-.5 2-1-1-1-1v5l-.5 1.5-.5 1.5 3 .5 3 .5v-4l.5-1 .5-1 .5-1.5.5-1.5.5-1.5.5-1.5.5-.5.5-.5.5-1 .5-1 .5 1.5.5 1.5v2l-.5 1-.5 1 .5 1.5.5 1.5v5l-.5 1.5-.5 1.5-1 1-1 1-.5 1-.5 1 .5.5.5.5.5.5.5.5.5.5.5.5h2l1 .5 1 .5 1 .5 1 .5z"/>
    <path fill="#EC7504" stroke="#EC7504" d="M320.4 214.4h2l1-1 1-1 1.5-.5 1.5-.5-2-.5-2-.5-.5-.5-.5-.5h-1l-2-.5-2-.5h-5l.5 1.5.5 1.5 2 .5 2 .5 1.5 1 1.5 1z"/>
    <path fill="#F3DECE" stroke="#F3DECE" d="M227.4 212.4l3 1 .5-1.5.5-1.5 1.5-1 1.5-1h5l.5-1.5.5-1.5-.5-1-.5-1 .5-1.5.5-1.5h2l1.5-1 1.5-1 .5-2 .5-2-1.5.5-1.5.5-1-1.5-1-1.5-1.5-.5-1.5-.5-1 1-1 1 .5 2 .5 2-.5 1.5-.5 1.5-1.5.5-1.5.5-1.5 1-1.5 1-.5 1.5-.5 1.5-1 1.5-1 1.5v3z"/>
    <path fill="#EC7504" stroke="#EC7504" d="M171.4 211.4l2-12-1.5 5.5-1.5 5.5-4.5-1-4.5-1 5 1.5 5 1.5z"/>
    <path fill="url(#rgA)" stroke="url(#rgA)" d="M258.4 204.4v1l.5-1.5.5-1.5v-5l-.5-1.5-.5-1.5.5-1 .5-1v-2l-.5-1.5-.5-1.5-.5 1-.5 1-.5.5-.5.5-.5 1.5-.5 1.5-.5 1.5-.5 1.5-.5 1-.5 1v4l.5-1 .5-1 1.5-1 1.5-1 .5 1.5.5 1.5v3zm10-3h8l2-.5 2-.5.5-2 .5-2 .5-1.5.5-1.5 1.5-1 1.5-1 1-1 1-1 .5-1.5.5-1.5 1-2 1-2 .5-1 .5-1 1-1.5 1-1.5.5-1 .5-1 .5-2 .5-2 1-1.5 1-1.5 1-1.5 1-1.5-.5-1.5-.5-1.5.5-1.5.5-1.5 1.5-1 1.5-1 .5-2 .5-2 .5-1.5.5-1.5.5-2 .5-2v-1l.5-1 .5-1-.5-.5-.5-.5-.5.5-.5.5-.5-.5-.5-.5v-2l1-.5 1-.5v2l.5-.5.5-.5.5-.5.5-.5.5-1 .5-1v-4h-2l-1-.5-1-.5h-2l.5-.5.5-.5h2l.5-1 .5-1 .5-.5.5-.5v2l1 .5 1 .5.5-1 .5-1v-3l.5-1 .5-1v-5h-9l-2.5 5.5-2.5 5.5-3 4-3 4-2.5 4.5-2.5 4.5-3 4.5-3 4.5-2 3-2 3-1.5 1.5-1.5 1.5-4.5 10-4.5 10-.5-.5-.5-.5-2-1-2-1-1.5.5-1.5.5 5.5 6 5.5 6 .5 3 .5 3zm-40-1l4 1 .5-1 .5-1 .5-.5.5-.5.5-1.5.5-1.5-.5-1-.5-1-.5-.5-.5-.5-.5-1-.5-1 1.5-.5 1.5-.5 1-1.5 1-1.5 1.5.5 1.5.5 1.5-.5 1.5-.5 2-.5 2-.5.5-2.5.5-2.5-1-.5-1-.5-1 1-1 1-1 1-1 1-2 .5-2 .5-.5.5-.5.5-2 .5-2 .5-1.5-.5-1.5-.5-2-.5-2-.5 1 1 1 1 .5 1.5.5 1.5 1 1.5 1 1.5.5 1.5.5 1.5.5 1 .5 1-1 1-1 1-1.5-.5-1.5-.5-.5-1.5-.5-1.5-.5-.5-.5-.5h-2v-2l-.5-1-.5-1v-6h3l3-4 3-4v-14l2 1 2 1 4-3 4-3 4 6.5 4 6.5.5-2 .5-2 .5-.5.5-.5h3l1.5-.5 1.5-.5.5-.5.5-.5v-4l.5-8.5.5-8.5 1.5 2.5 1.5 2.5 5.5-1.5 5.5-1.5-1-3.5-1-3.5-5-9-5-9-1.5 2-1.5 2-1.5 6.5-1.5 6.5-4.5 7-4.5 7h-6l-.5-2.5-.5-2.5-1 1-1 1-1 1.5-1 1.5-1 1-1 1h-2l-1 1-1 1-1 1.5-1 1.5-.5 1.5-.5 1.5.5 1 .5 1h-2l-.5.5-.5.5h-2l-1 .5-1 .5-.5 1-.5 1 .5 1 .5 1 .5.5.5.5.5.5.5.5-.5 1-.5 1v2l.5.5.5.5.5 1 .5 1-1 .5-1 .5-3-.5-3-.5-6-2.5-6-2.5-1 1-1 1 6 4 6 4-4 .5-4 .5h-8l-.5 1.5-.5 1.5 5.5 2.5 5.5 2.5 5 1 5 1 4 3 4 3z"/>
    <path fill="#F3DECE" stroke="#F3DECE" d="M180.4 199.4h4l2 .5 2 .5 1-1 1-1v-5h-2l-2 .5-2 .5-1-1-1-1-1 1-1 1-.5 2-.5 2 .5.5.5.5z"/>
    <path fill="#EC7504" stroke="#EC7504" d="M228.4 198.4l3 1 1-1 1-1-.5-1-.5-1-.5-1.5-.5-1.5-1-1.5-1-1.5-.5-1.5-.5-1.5-1-1-1-1h-3v6l.5 1 .5 1v2h2l.5.5.5.5.5 1.5.5 1.5z"/>
    <path fill="#FE3B4C" stroke="#FE3B4C" d="M233.4 192.4l1 1 2-1.5 2-1.5 1.5-.5 1.5-.5h2l.5 2 .5 2 1-2 1-2 .5-2 .5-2-2 .5-2 .5-1.5.5-1.5.5-1.5-.5-1.5-.5-1 1.5-1 1.5-1.5.5-1.5.5.5 1 .5 1z"/>
    <path fill="#EC7504" stroke="#EC7504" d="M278.4 191.4h2l1-1 1-1 1.5-1 1.5-1 .5-1.5.5-1.5v-3h-2l-1 1.5-1 1.5-1 1-1 1-.5 1.5-.5 1.5-.5 1-.5 1z"/>
    <path fill="#FBAF9B" stroke="#FBAF9B" d="M246.4 190.4h3l1.5-1 1.5-1 1-1 1-1 1-1.5 1-1.5 1.5-.5 1.5-.5v-3h-2l-1 1-1 1-1 1.5-1 1.5-1 1-1 1h-2l.5-2.5.5-2.5 1-1 1-1 .5-2 .5-2-1.5-.5-1.5-.5 1-1.5 1-1.5-4-6.5-4-6.5-4 3-4 3-2-1-2-1v14l-3 4-3 4 2 .5 2 .5 1.5.5 1.5.5 2-.5 2-.5.5-.5.5-.5 2-.5 2-.5 1-1 1-1 1-1 1-1 1 .5 1 .5-.5 2.5-.5 2.5-.5 2-.5 2v1z"/>
    <path fill="url(#rgA)" stroke="url(#rgA)" d="M178.4 189.4l8-11 6.5-3.5 6.5-3.5.5-2 .5-2 .5.5.5.5h2l.5-1 .5-1-6.5-4.5-6.5-4.5-2 3-2 3-3.5-6.5-3.5-6.5 1.5-1.5 1.5-1.5-5-7.5-5-7.5-1 .5-1 .5h-2v-2l-.5-1-.5-1-1.5-.5-1.5-.5-1.5 1-1.5 1-1 1-1 1-1.5.5-1.5.5h-2l-.5 1-.5 1-.5 1.5-.5 1.5.5.5.5.5 1 .5 1 .5-2-.5-2-.5-2.5-9-2.5-9 .5-6.5.5-6.5v-10l-4.5-3-4.5-3 2 10 2 10v14l-1 9-1 9 .5 1 .5 1v4l.5 2 .5 2 .5 1.5.5 1.5 1-1 1-1 1-1.5 1-1.5h7l1.5-2.5 1.5-2.5 7-2 7-2 1 7 1 7 3 4 3 4 2 7 2 7-4-.5-4-.5h-12l-.5 3.5-.5 3.5 7.5 2 7.5 2z"/>
    <path fill="#F3DECE" stroke="#F3DECE" d="M155.4 186.4l2-1v-4l.5-1.5.5-1.5.5-2 .5-2-.5-.5-.5-.5-1.5 1-1.5 1-1.5-.5-1.5-.5-.5-2-.5-2-1 1.5-1 1.5.5 1.5.5 1.5 1 1 1 1 1 1 1 1-.5 2-.5 2 1 1 1 1zm94 0h2l1-1 1-1 1-1.5 1-1.5 1-1 1-1h2v3l2 1 2 1-.5-4-.5-4-5-2.5-5-2.5-1 1.5-1 1.5 1.5.5 1.5.5-.5 2-.5 2-1 1-1 1-.5 2.5-.5 2.5z"/>
    <path fill="#FBAF9B" stroke="#FBAF9B" d="M264.4 185.4l9-20 1.5-1.5 1.5-1.5 2-3 2-3 3-4.5 3-4.5 2.5-4.5 2.5-4.5 3-4 3-4 2.5-5.5 2.5-5.5h9l1.5-6 1.5-6 3-8.5 3-8.5-1 .5-1 .5-.5 1.5-.5 1.5-1 1.5-1 1.5h-5v3l-.5 1.5-.5 1.5-2-.5-2-.5-.5-1.5-.5-1.5.5-.5.5-.5v-4l1-.5 1-.5h2v2l.5 1 .5 1-4.5-3.5-4.5-3.5-5.5 4.5-5.5 4.5-.5-1-.5-1-1.5 1.5-1.5 1.5 1.5 5 1.5 5 .5 6.5.5 6.5-4.5-3-4.5-3-3.5-3.5-3.5-3.5-1 .5-1 .5-1 .5-1 .5-.5.5-.5.5-.5.5-.5.5-.5.5-.5.5-.5 1-.5 1-.5.5-.5.5-.5 1-.5 1 5 9 5 9 1 3.5 1 3.5-5.5 1.5-5.5 1.5-1.5-2.5-1.5-2.5-.5 8.5-.5 8.5.5-2 .5-2h2l.5.5.5.5h2v5l-.5.5-.5.5-.5.5-.5.5h-2l-.5-1-.5-1-.5-1-.5-1v4l-.5.5-.5.5-1.5.5-1.5.5h-3l-.5.5-.5.5-.5 2-.5 2 5 2.5 5 2.5.5 4 .5 4 .5.5.5.5z"/>
    <path fill="#EC7504" stroke="#EC7504" d="M276.4 185.4h2l.5-1.5.5-1.5.5-2 .5-2v-2l-.5-2-.5-2h-4l-1 1.5-1 1.5.5 1.5.5 1.5.5 1.5.5 1.5.5 1 .5 1v2zm-110-1l3 1 1-1 1-1 2 .5 2 .5.5-1.5.5-1.5-1.5-1-1.5-1-1.5.5-1.5.5-2 .5-2 .5v3z"/>
    <path fill="#F3DECE" stroke="#F3DECE" d="M191.4 184.4l11-9-6.5 1.5-6.5 1.5 1 3 1 3zm48-3l1-15-2 6-2 6 1.5 1.5 1.5 1.5z"/>
    <path fill="#EC7504" stroke="#EC7504" d="M224.4 179.4l2-1-.5-1-.5-1-.5-.5-.5-.5v-2l.5-1 .5-1-.5-.5-.5-.5-.5-.5-.5-.5-.5-1-.5-1-2-.5-2-.5v-2l-.5-1.5-.5-1.5-1-1.5-1-1.5-.5-1.5-.5-1.5-1-1-1-1-1-1.5-1-1.5-.5-1.5-.5-1.5-1-1.5-1-1.5-.5-1.5-.5-1.5-.5-2-.5-2-1.5-.5-1.5-.5-1-1.5-1-1.5-1-2-1-2-1-.5-1-.5h-2l-1-1-1-1 1-1.5 1-1.5-1-1-1-1 .5-1.5.5-1.5 1.5-1.5 1.5-1.5.5-1 .5-1-.5-2-.5-2-.5-1.5-.5-1.5-1-2-1-2-1-1-1-1v-1l-.5-1-.5-1-.5-1.5-.5-1.5-1.5-1-1.5-1-.5-1.5-.5-1.5-.5-1-.5-1-.5-.5-.5-.5-1-1-1-1-.5-1-.5-1-.5-.5-.5-.5-.5-.5-.5-.5-.5-.5-.5-.5-.5-1-.5-1-.5-1.5-.5-1.5-.5-.5-.5-.5-.5-.5-.5-.5-.5-.5-.5-.5-1-1.5-1-1.5-1-.5-1-.5-2-.5-2-.5-.5 1.5-.5 1.5-1 1.5-1 1.5 1 1 1 1-.5 1-.5 1h-3l-1 1-1 1 1 1 1 1 2.5 7 2.5 7 4.5 8.5 4.5 8.5-.5 1-.5 1 .5 1.5.5 1.5 1 1.5 1 1.5.5 1 .5 1v5l-.5 1.5-.5 1.5-1 1.5-1 1.5 5 7.5 5 7.5-1.5 1.5-1.5 1.5 3.5 6.5 3.5 6.5 2-3 2-3 6.5 4.5 6.5 4.5 1.5.5 1.5.5v2l-.5 1-.5 1v2l6 2.5 6 2.5 3 .5 3 .5z"/>
    <path fill="#FE3B4C" stroke="#FE3B4C" d="M203.4 174.4l1 1 1-1 1-1v-2l.5-1 .5-1v-2l-1.5-.5-1.5-.5-.5 1-.5 1h-2l-.5-.5-.5-.5-.5 2-.5 2 1 1 1 1 1 .5 1 .5z"/>
    <path fill="url(#rgA)" stroke="url(#rgA)" d="M162.4 172.4l14-4-6.5-5-6.5-5-1 2-1 2h3l.5 1.5.5 1.5-1 .5-1 .5-1.5.5-1.5.5-1.5-.5-1.5-.5-1-1.5-1-1.5-.5-1.5-.5-1.5-1.5-.5-1.5-.5h-5l-1-.5-1-.5.5 1.5.5 1.5 1-.5 1-.5h3l.5.5.5.5v4l.5 1 .5 1 .5.5.5.5h4l1.5.5 1.5.5 1 1.5 1 1.5z"/>
    <path fill="#FBAF9B" stroke="#FBAF9B" d="M184.4 172.4l3 1 1.5-.5 1.5-.5 1-1.5 1-1.5-.5-1.5-.5-1.5h-5l-1.5.5-1.5.5.5 2 .5 2v1z"/>
    <path fill="#FE3B4C" stroke="#FE3B4C" d="M250.4 168.4l1-1 .5-1.5.5-1.5h3l-1-1-1-1 1.5-1 1.5-1 .5-1.5.5-1.5-2 .5-2 .5-1 1-1 1-1 1-1 1v5l.5.5.5.5zm-93-2l3 1 1.5-.5 1.5-.5 1-.5 1-.5-.5-1.5-.5-1.5h-3l1-2 1-2v-3l-.5-1.5-.5-1.5-1.5-.5-1.5-.5-2 .5-2 .5h-7l-1 1.5-1 1.5-1 1-1 1v1l1 .5 1 .5h5l1.5.5 1.5.5.5 1.5.5 1.5 1 1.5 1 1.5z"/>
    <path fill="#F3DECE" stroke="#F3DECE" d="M263.4 164.4h2l.5-.5.5-.5.5-.5.5-.5v-5h-2l-.5-.5-.5-.5h-2l-.5 2-.5 2 .5 1 .5 1 .5 1 .5 1zm-94-8h2l1.5-.5 1.5-.5v-3l-1-1-1-1v-7l-2-.5-2-.5v2l-.5 1.5-.5 1.5-.5 1.5-.5 1.5-1 .5-1 .5v2l1 1 1 1 1.5.5 1.5.5z"/>
    <path fill="#FBAF9B" stroke="#FBAF9B" d="M249.4 151.4l9-14 1.5-6.5 1.5-6.5-1 .5-1 .5-1 1.5-1 1.5-1.5 1-1.5 1v3l-.5.5-.5.5-.5 1-.5 1-.5.5-.5.5-.5.5-.5.5-.5.5-.5.5h-3l-.5 1.5-.5 1.5-.5.5-.5.5-1 1.5-1 1.5.5 2.5.5 2.5h6z"/>
    <path fill="url(#rgA)" stroke="url(#rgA)" d="M179.4 142.4l3 1 .5-1.5.5-1.5 1.5-1 1.5-1v-2l-1.5-1-1.5-1-1-1-1-1-2 .5-2 .5-.5 1.5-.5 1.5 1 1 1 1 .5 2 .5 2z"/>
    <path fill="#FBAF9B" stroke="#FBAF9B" d="M152.4 139.4l4 1-1-.5-1-.5-.5-.5-.5-.5.5-1.5.5-1.5.5-1 .5-1h2l1.5-.5 1.5-.5 1-1 1-1 1.5-1 1.5-1 1.5.5 1.5.5.5 1 .5 1v2h2l1-.5 1-.5 1-1.5 1-1.5.5-1.5.5-1.5v-5l-.5-1-.5-1-1-.5-1-.5-6.5-2-6.5-2-2.5.5-2.5.5 1.5-6.5 1.5-6.5.5-3.5.5-3.5v-15l-1-1-1-1 1-1 1-1h3v-1l-1.5-.5-1.5-.5-1-.5-1-.5 1-1 1-1v-3l-1.5-.5-1.5-.5h-4l-2 4-2 4 1 8 1 8-.5-1-.5-1-.5-1-.5-1-1.5-1-1.5-1h-4l-1-.5-1-.5-.5-1.5-.5-1.5-1-1-1-1 .5 2 .5 2 .5 1.5.5 1.5.5 3 .5 3 4.5 3 4.5 3v10l-.5 6.5-.5 6.5 2.5 9 2.5 9z"/>
    <path fill="#F3DECE" stroke="#F3DECE" d="M246.4 138.4v1h3l.5-.5.5-.5.5-.5.5-.5.5-.5.5-.5.5-1 .5-1 .5-.5.5-.5v-3l2-12 2-12-4.5-5-4.5-5-.5 10.5-.5 10.5-1 10.5-1 10.5z"/>
    <path fill="url(#rgA)" stroke="url(#rgA)" d="M285.4 136.4l3 1 1.5-.5 1.5-.5.5-2 .5-2-1-1-1-1-2 .5-2 .5-1 1-1 1v3h1z"/>
    <path fill="#F3DECE" stroke="#F3DECE" d="M281.4 131.4v-8l-1 2-1 2 1 2 1 2zm-111-1h2l1-1 1-1 .5-2 .5-2-.5-1.5-.5-1.5-1.5-1-1.5-1-1-1-1-1-1.5 1-1.5 1 .5 1.5.5 1.5.5 1.5.5 1.5.5 2 .5 2 .5.5.5.5z"/>
    <path fill="url(#rgA)" stroke="url(#rgA)" d="M194.4 128.4h2l1 .5 1 .5-.5-1.5-.5-1.5-.5-.5-.5-.5.5-1.5.5-1.5-.5-1-.5-1v-5l-1.5 1.5-1.5 1.5-.5 1.5-.5 1.5 1 1 1 1-1 1.5-1 1.5 1 1 1 1z"/>
    <path fill="#F3DECE" stroke="#F3DECE" d="M154.4 127.3h2l.5-1.5.5-1.5 1-1.5 1-1.5 1-1 1-1-1.5-1-1.5-1-1.5.5-1.5.5-1 1.5-1 1.5-.5 1.5-.5 1.5-1.5-.5-1.5-.5 1 1.5 1 1.5 1.5.5 1.5.5z"/>
    <path fill="url(#rgA)" stroke="url(#rgA)" d="M290.4 123.3l-1-13-1.5-5-1.5-5-1 2-1 2-.5 1.5-.5 1.5-1.5-.5-1.5-.5-2 .5-2 .5-1 1.5-1 1.5 3.5 3.5 3.5 3.5 4.5 3 4.5 3zm-117-5l2 1-1-1.5-1-1.5-.5-1.5-.5-1.5.5-1 .5-1-1 .5-1 .5h-6l-.5-.5-.5-.5-1-.5-1-.5v-4l.5-.5.5-.5.5-.5.5-.5.5-.5.5-.5 1-.5 1-.5v4l.5.5.5.5 1 .5 1 .5.5-.5.5-.5.5-.5.5-.5h2v3l-.5 1-.5 1-4.5-8.5-4.5-8.5-2.5-7-2.5-7v15l-.5 3.5-.5 3.5-1.5 6.5-1.5 6.5 2.5-.5 2.5-.5 6.5 2 6.5 2z"/>
    <path fill="#F3DECE" stroke="#F3DECE" d="M298.4 113.3h2l1-1 1-1 2-.5 2-.5-.5-1.5-.5-1.5v-3h-4l-1 .5-1 .5 1 1 1 1-.5 1.5-.5 1.5-1 1.5-1 1.5z"/>
    <path fill="#FBAF9B" stroke="#FBAF9B" d="M169.4 112.3h2l1-.5 1-.5.5-1 .5-1v-3h-2l-.5.5-.5.5-.5.5-.5.5-1-.5-1-.5-.5-.5-.5-.5v-4l-1 .5-1 .5-.5.5-.5.5-.5.5-.5.5-.5.5-.5.5v4l1 .5 1 .5.5.5.5.5h4z"/>
    <path fill="url(#rgA)" stroke="url(#rgA)" d="M305.4 102.3l4 1 .5-1.5.5-1.5v-3l-.5-1-.5-1v-2h-2l-1 .5-1 .5v4l-.5.5-.5.5.5 1.5.5 1.5z"/>
    <path fill="#F3DECE" stroke="#F3DECE" d="M290.4 99.3l11-9 4.5 3.5 4.5 3.5h5l1-1.5 1-1.5.5-1.5.5-1.5 1-.5 1-.5 1-2 1-2 .5-1.5.5-1.5.5-2 .5-2-1-1-1-1 1-1.5 1-1.5-.5-.5-.5-.5-1.5 1-1.5 1-2 .5-2 .5-1 .5-1 .5-.5 1-.5 1h-2l-1 .5-1 .5-1 1-1 1-.5.5-.5.5-1 .5-1 .5-1 1-1 1-1 .5-1 .5-.5 1-.5 1 .5 1 .5 1v2h-2v-2l-1 .5-1 .5-1.5.5-1.5.5-1 .5-1 .5-1 1.5-1 1.5.5 1 .5 1zm-140-8l-2-16 2-4 2-4-1 .5-1 .5h-4l-.5-2-.5-2-.5-1.5-.5-1.5v-3l4.5-1.5 4.5-1.5-.5-6-.5-6-8-11.5-8-11.5-5.5-3-5.5-3 1-7 1-7-4 2-4 2 .5 9.5.5 9.5 2 8 2 8v13l3 9.5 3 9.5v-3l.5-2 .5-2 1.5.5 1.5.5 1 1.5 1 1.5.5 1.5.5 1.5.5 1 .5 1-1 1-1 1-.5 1-.5 1 .5 1 .5 1 1 1 1 1 .5 1.5.5 1.5 1 .5 1 .5h4l1.5 1 1.5 1 .5 1 .5 1 .5 1 .5 1z"/>
    <path fill="#F3DECE" stroke="#F3DECE" d="M323.1 84.1l4.2-6.7h2l.5-1.5.5-1.5 1-1.5 1-1.5-.5-1.5-.5-1.5h-3l-.5 1.5-4.5 3.5 1 1-2 3 2 2-1.2 4.7z"/>
    <path fill="#FBAF9B" stroke="#FBAF9B" d="M134.4 76.3l1 1 .5-1 .5-1 1-1 1-1-.5-1-.5-1-.5-1.5-.5-1.5-1-1.5-1-1.5-1.5-.5-1.5-.5-.5 2-.5 2v3l1 2 1 2 1 .5 1 .5z"/>
    <path fill="url(#rgA)" stroke="url(#rgA)" d="M162.4 75.3v1l.5-1 .5-1-1-1-1-1 1-1.5 1-1.5.5-1.5.5-1.5 2 .5 2 .5 1 .5 1 .5-1.5-2-1.5-2-.5-1-.5-1 1-.5 1-.5-.5-.5-.5-.5h-1l-.5 1-.5 1h-4l-.5.5-.5.5-1 .5-1 .5h-2l-.5-.5-.5-.5-.5-.5-.5-.5-.5 1-.5 1h-4l-.5-.5-.5-.5h-2v-3l-1-1-1-1v3l.5 1.5.5 1.5.5 2 .5 2h4l1-.5 1-.5h4l1.5.5 1.5.5v3l-1 1-1 1 1 .5 1 .5 1.5.5 1.5.5z"/>
    <path fill="#FBAF9B" stroke="#FBAF9B" d="M146.4 63.3h2l.5.5.5.5h4l.5-1 .5-1 .5.5.5.5.5.5.5.5h2l1-.5 1-.5.5-.5.5-.5h4l.5-1 .5-1-.5-1-.5-1-2 .5-2 .5v-4l-.5-1-.5-1-.5-1.5-.5-1.5-1-1.5-1-1.5-1-1-1-1-1-1-1-1h-1l.5 6 .5 6-4.5 1.5-4.5 1.5 1 1 1 1v3zm-6-9l-4-18-.5 2.5-.5 2.5 2.5 6.5 2.5 6.5z"/>
  </g>
</svg>
