<svg xmlns="http://www.w3.org/2000/svg" viewBox="0 0 960 384">
    <path d="m0 0h960v384h-960z" style="fill:#1f1307" />
    <g style="stroke-linejoin:round;stroke-width:.7">
        <path d="m959 384h1v-1.5-1.5-2-2-2.5-2.5-2-2-2.5-2.5-2-2-1-1h-.5-.5l-10 3.5-10 3.5h-11.5-11.5l-15 8-15 8 12-1 12-1 3-5.5 3-5.5 10-1 10-1 10.5-1 10.5-1v2 2l-.5 1-.5 1-.5.5-.5.5h-1-1l-.5.5-.5.5-.5 1-.5 1-1.5.5-1.5.5h-1-1l-.5.5-.5.5v1 1l1 .5 1 .5.5.5.5.5.5.5.5.5.5.5.5.5.5 1 .5 1h1 1l1.5.5 1.5.5h1.5 1.5" style="fill:#79584d;stroke:#79584d" />
        <path d="m959 357h1v-1.5-1.5-1.5-1.5h-.5-.5l-5.5 3-5.5 3-10.5 1.5-10.5 1.5-10 1.5-10 1.5-7.5 4.5-7.5 4.5-11 6-11 6h3 3 2 2 2.5 2.5v-1-1l.5-1 .5-1 15-8 15-8h11.5 11.5l10-3.5 10-3.5" style="fill:#544f42;stroke:#544f42" />
        <path d="m959 351h1v-1.5-1.5-1.5-1.5h-.5-.5v-13-13-13.5-13.5-13.5-13.5l-.5 6.5-.5 6.5-.5 13-.5 13v12 12l-4.5 9-4.5 9-9 4.5-9 4.5h-11-11l-10.5 2-10.5 2-7.5 6-7.5 6-9-2-9-2-8.5 8.5-8.5 8.5h1.5 1.5 2 2 2 2 2.5 2.5 2 2 2.5 2.5 2 2 2 2l11-6 11-6 7.5-4.5 7.5-4.5 10-1.5 10-1.5 10.5-1.5 10.5-1.5 5.5-3 5.5-3" style="fill:#3b3327;stroke:#3b3327" />
        <path d="m959 345h1v-12.5-12.5-13.5-13.5-13-13-13.5-13.5-13.5-13.5-13-13-13.5-13.5-13.5-13.5-13-13-13.5-13.5-13.5-13.5-13-13-13.5-13.5h-13-13-13.5-13.5-13.5-13.5-13-13-13.5-13.5-13.5-13.5-13-13-13.5-13.5-13.5-13.5-13-13-13.5-13.5-13-13-13.5-13.5-12.5-12.5l-1 11-1 11 4 8.5 4 8.5 6.5 6.5 6.5 6.5 3.5 11 3.5 11-8 5-8 5 1 9 1 9-4 7.5-4 7.5 1 10 1 10 3.5 8.5 3.5 8.5 1.5 10 1.5 10-5 7-5 7-3.5 16-3.5 16 .5 12 .5 12 1 9.5 1 9.5 6.5 6.5 6.5 6.5 4 9.5 4 9.5 6 7 6 7 1 1 1 1h1 1l.5.5.5.5.5.5.5.5.5 1 .5 1 1 1 1 1 1 1 1 1 8.5 1 8.5 1 6.5-6.5 6.5-6.5 4-9.5 4-9.5 3.5-9.5 3.5-9.5v-11.5-11.5l5.5-8 5.5-8 9.5 2.5 9.5 2.5 6.5 7 6.5 7 6 7.5 6 7.5 7.5 5.5 7.5 5.5 9 12.5 9 12.5-1 1-1 1 1 2.5 1 2.5 8.5-4.5 8.5-4.5 11-2.5 11-2.5 9.5-3.5 9.5-3.5 11 2.5 11 2.5 6.5 6.5 6.5 6.5 3 11.5 3 11.5-4 9-4 9-6.5 5.5-6.5 5.5-6.5 4.5-6.5 4.5-5.5 7-5.5 7-9.5-.5-9.5-.5-4.5 2.5-4.5 2.5h3 3 2 2 2.5 2.5 2 2 2 2 2.5 2.5 2 2 2.5 2.5 2 2 1 1l8.5-8.5 8.5-8.5 9 2 9 2 7.5-6 7.5-6 10.5-2 10.5-2h11 11l9-4.5 9-4.5 4.5-9 4.5-9v-12-12l.5-13 .5-13 .5-6.5.5-6.5v13.5 13.5 13.5 13.5 13 13" style="fill:#1f1307;stroke:#1f1307" />
        <g style="fill:#3b3327;stroke:#3b3327">
            <path d="m958 244l1-25v-13.5-13.5l-.5 2.5-.5 2.5v13.5 13.5 10 10" />
            <path d="m958 166l1-25v-13.5-13.5-13-13-13.5-13.5-13.5-13.5-13-13l-1-2.5-1-2.5.5 12 .5 12-.5 12.5-.5 12.5v13.5 13.5 13.5 13.5l.5 11.5.5 11.5v13.5 13.5 5 5" />
        </g>
        <path d="m957 363l-21 2-10 1-10 1-3 5.5-3 5.5-12 1-12 1-.5 1-.5 1v1 1h13.5 13.5 13 13 9 9l-1.5-.5-1.5-.5h-1-1l-.5-1-.5-1-.5-.5-.5-.5-.5-.5-.5-.5-.5-.5-.5-.5-1-.5-1-.5v-1-1l.5-.5.5-.5h1 1l1.5-.5 1.5-.5.5-1 .5-1 .5-.5.5-.5h1 1l.5-.5.5-.5.5-1 .5-1v-2-2" style="fill:#7a7467;stroke:#7a7467" />
        <path d="m867 328l-6-23-6.5-6.5-6.5-6.5-11-2.5-11-2.5-9.5 3.5-9.5 3.5-11 2.5-11 2.5-8.5 4.5-8.5 4.5-1 .5-1 .5-1.5-.5-1.5-.5v.5.5l1.5.5 1.5.5 1 .5 1 .5 9.5-4.5 9.5-4.5 10-3.5 10-3.5 10-3 10-3 9.5 2.5 9.5 2.5 1 .5 1 .5 1 .5 1 .5 1 1 1 1 .5.5.5.5.5.5.5.5.5.5.5.5 1 .5 1 .5 1 1 1 1 .5.5.5.5.5 1 .5 1 .5 2 .5 2 .5 1 .5 1 1 1 1 1v2.5 2.5 2 2l-.5 1.5-.5 1.5-4.5 9.5-4.5 9.5-6.5 7-6.5 7-8.5-.5-8.5-.5-8-1.5-8-1.5 2 .5 2 .5.5.5.5.5 1 .5 1 .5 1.5.5 1.5.5 1 1.5 1 1.5 1 1 1 1 1 1.5 1 1.5.5 1.5.5 1.5-.5 1.5-.5 1.5-1.5 1.5-1.5 1.5-1 1.5-1 1.5h-2-2-2-2l-2-.5-2-.5-1-1-1-1-2.5-.5-2.5-.5h-.5-.5l-1.5-.5-1.5-.5-1-.5-1-.5-1-1-1-1-.5-.5-.5-.5-.5-.5-.5-.5v-1-1l-.5-1-.5-1v-2-2-1-1l-.5-1-.5-1-1.5.5-1.5.5-.5.5-.5.5h-1.5-1.5l-1 .5-1 .5-1 1-1 1-.5.5-.5.5-.5.5-.5.5-.5.5-.5.5-1 .5-1 .5-1.5 1-1.5 1-.5.5-.5.5h-10-10l-7-8.5-7-8.5h-.5-.5v1.5 1.5l-.5.5-.5.5.5.5.5.5v1 1l1 .5 1 .5-.5.5-.5.5-.5.5-.5.5 1 1 1 1 1.5 1 1.5 1v2 2l1 1.5 1 1.5.5 1.5.5 1.5v1 1l-.5 1-.5 1v1.5 1.5h2 2 .5.5l5.5-4.5 5.5-4.5 9.5-3.5 9.5-3.5 5.5 2.5 5.5 2.5-1 .5-1 .5h-2-2l-2-.5-2-.5-1 1-1 1-1 1.5-1 1.5-1 1-1 1-1.5.5-1.5.5-1.5 1-1.5 1-1.5-.5-1.5-.5-1.5 1-1.5 1h2.5 2.5 2.5 2.5 2 2 2 2 2.5 2.5 2 2 2.5 2.5 1.5 1.5l4.5-2.5 4.5-2.5 9.5.5 9.5.5 5.5-7 5.5-7 6.5-4.5 6.5-4.5 6.5-5.5 6.5-5.5 4-9 4-9" style="fill:#3b3327;stroke:#3b3327" />
        <path d="m864 327l1-3v-2-2-2.5-2.5l-1-1-1-1-.5-1-.5-1 .5 2 .5 2 .5 2 .5 2v2 2l-.5 1.5-.5 1.5-1 1-1 1-.5.5-.5.5-1 .5-1 .5-1.5.5-1.5.5-.5.5-.5.5v1.5 1.5 2 2 1 1 1.5 1.5l-.5 1.5-.5 1.5-.5.5-.5.5h-1.5-1.5l-2 .5-2 .5-1.5.5-1.5.5-.5 2-.5 2-.5 1.5-.5 1.5-1 1.5-1 1.5-1.5.5-1.5.5-2-.5-2-.5-.5-1-.5-1-1-1-1-1-.5-.5-.5-.5v-1.5-1.5l-.5-1.5-.5-1.5v-1-1l-1-.5-1-.5-1.5-.5-1.5-.5-.5-.5-.5-.5h-1.5-1.5l-1.5-.5-1.5-.5h-1-1-1-1l-.5.5-.5.5h-1.5-1.5v.5.5.5.5l-.5 1-.5 1-1 .5-1 .5h-1-1l-1 .5-1 .5-.5.5-.5.5.5.5.5.5 1.5.5 1.5.5h1.5 1.5l.5 1.5.5 1.5h1.5 1.5l8 1.5 8 1.5 8.5.5 8.5.5 6.5-7 6.5-7 4.5-9.5 4.5-9.5" style="fill:#544f42;stroke:#544f42" />
        <path d="m863 326l1-3v-2-2l-.5-2-.5-2-.5-2-.5-2-.5-2-.5-2-.5-1-.5-1-.5-.5-.5-.5-1-1-1-1-1-.5-1-.5-.5-.5-.5-.5-.5-.5-.5-.5-.5-.5-.5-.5-1-1-1-1-1-.5-1-.5-1-.5-1-.5h-.5-.5l-10.5-1.5-10.5-1.5-9 3-9 3-9 3.5-9 3.5-10 3.5-10 3.5-1-.5-1-.5-1.5-.5-1.5-.5h-.5-.5l-1.5-.5-1.5-.5-1-.5-1-.5.5 1 .5 1 1 .5 1 .5 1 .5 1 .5v.5.5l10.5-1 10.5-1 9-5.5 9-5.5h2.5 2.5l1 .5 1 .5h1.5 1.5 1 1l1-.5 1-.5 1.5-.5 1.5-.5h1 1l.5-.5.5-.5.5-.5.5-.5h1.5 1.5 1 1l1-.5 1-.5h-2-2-1.5-1.5l-.5-.5-.5-.5 1-1 1-1h2.5 2.5l1.5-.5 1.5-.5h2 2 1 1l1 .5 1 .5 1 1 1 1-.5.5-.5.5h-1.5-1.5l-1.5-.5-1.5-.5-2.5.5-2.5.5h1.5 1.5 1.5 1.5l1.5.5 1.5.5h1 1l1 .5 1 .5 1 1 1 1 .5.5.5.5.5.5.5.5.5.5.5.5 1 .5 1 .5 1.5.5 1.5.5 1 1.5 1 1.5h1 1v1.5 1.5l1 1 1 1 .5 2 .5 2 .5 1 .5 1v-1.5-1.5l.5-.5.5-.5.5 1.5.5 1.5v2.5 2.5l-.5 1.5-.5 1.5-1.5 1-1.5 1-1.5.5-1.5.5-.5.5-.5.5-.5.5-.5.5v1 1 1.5 1.5 1 1 1 1 1 1l-.5 1.5-.5 1.5-.5.5-.5.5-1 1.5-1 1.5h1.5 1.5l.5-.5.5-.5.5-1.5.5-1.5v-1.5-1.5-1-1-2-2-1.5-1.5l.5-.5.5-.5 1.5-.5 1.5-.5 1-.5 1-.5.5-.5.5-.5 1-1 1-1" style="fill:#7a7467;stroke:#7a7467" />
        <path d="m861 325l1-3v-2.5-2.5l-.5-1.5-.5-1.5-.5.5-.5.5v1.5 1.5.5.5 2 2l-6-4-6-4-8.5-3.5-8.5-3.5 2.5 6 2.5 6 8 12 8 12 .5-1.5.5-1.5v-1-1-1-1-1-1-1.5-1.5-1-1l.5-.5.5-.5.5-.5.5-.5 1.5-.5 1.5-.5 1.5-1 1.5-1" style="fill:#9a9588;stroke:#9a9588" />
        <path d="m860 323v-4l-.5 1.5-.5 1.5-.5 1-.5 1-1 .5-1 .5-1-1.5-1-1.5-.5-1.5-.5-1.5-1.5-.5-1.5-.5v-1-1l-.5-1.5-.5-1.5-.5-1-.5-1-1-1-1-1-.5-.5-.5-.5-1-.5-1-.5-2-.5-2-.5-8.5 4-8.5 4 8 4.5 8 4.5 6 9 6 9v1.5 1.5h1 1l-8-12-8-12-2.5-6-2.5-6 8.5 3.5 8.5 3.5 6 4 6 4" style="fill:#b5b0a4;stroke:#b5b0a4" />
        <path d="m859 322l1-3v-.5-.5l-.5-1-.5-1-.5-2-.5-2-1-1-1-1v-1.5-1.5h-1-1l-1-1.5-1-1.5.5 1.5.5 1.5 1 1 1 1 .5 1.5.5 1.5.5.5.5.5v1.5 1.5l-.5 2-.5 2-.5-.5-.5-.5-1-1-1-1-.5-.5-.5-.5-1-.5-1-.5-.5-1-.5-1 .5 1.5.5 1.5v1 1l1.5.5 1.5.5.5 1.5.5 1.5 1 1.5 1 1.5 1-.5 1-.5.5-1 .5-1" style="fill:#d0cbb3;stroke:#d0cbb3" />
        <path d="m856 320l1-4v-1.5-1.5l-.5-.5-.5-.5-.5-1.5-.5-1.5-1-1-1-1-.5-1.5-.5-1.5-1.5-.5-1.5-.5-1-.5-1-.5-.5-.5-.5-.5-.5-.5-.5-.5-.5-.5-.5-.5-1-1-1-1-1-.5-1-.5h-1-1l-1.5-.5-1.5-.5h-1.5-1.5-1.5-1.5l-1 .5-1 .5h-1-1-1.5-1.5l-.5.5-.5.5-.5.5-.5.5h-1-1l-1.5.5-1.5.5-1 .5-1 .5h-1-1-1.5-1.5-.5-.5l-1 .5-1 .5-1.5.5-1.5.5-1.5 1-1.5 1-1 1-1 1-1.5.5-1.5.5-.5 1.5-.5 1.5-1 1.5-1 1.5h2 2 2.5 2.5l1.5.5 1.5.5 1.5 1 1.5 1 .5 1.5.5 1.5v1 1l-8 4.5-8 4.5-12 1.5-12 1.5-6.5 15-6.5 15 1 .5 1 .5.5.5.5.5.5.5.5.5 1 .5 1 .5 1.5-1 1.5-1 1.5-.5 1.5-.5 1.5-1 1.5-1 1-1 1-1 1.5-.5 1.5-.5 7.5-5.5 7.5-5.5 9-3.5 9-3.5 9.5-2.5 9.5-2.5 8 2 8 2 2.5-3.5 2.5-3.5-7.5-5-7.5-5-9.5-1.5-9.5-1.5 13-7 13-7 2 .5 2 .5 1 .5 1 .5.5.5.5.5 1 1 1 1 .5 1 .5 1 .5 1 .5 1 1 .5 1 .5.5.5.5.5 1 1 1 1 .5.5.5.5" style="fill:#dfdace;stroke:#dfdace" />
        <path d="m851 345l1-1h-1-1l-.5.5-.5.5-.5.5-.5.5h-2.5-2.5l-1 1-1 1-.5 2-.5 2-.5 1.5-.5 1.5-1 1-1 1-.5 1-.5 1-.5.5-.5.5h-2-2l2 .5 2 .5 1.5-.5 1.5-.5 1-1.5 1-1.5.5-1.5.5-1.5.5-2 .5-2 1.5-.5 1.5-.5 2-.5 2-.5 1-1.5 1-1.5" style="fill:#9a9588;stroke:#9a9588" />
        <path d="m850 341l-12-18-8-4.5-8-4.5 8.5-4 8.5-4-13 7-13 7 9.5 1.5 9.5 1.5 7.5 5 7.5 5-2.5 3.5-2.5 3.5-8-2-8-2-9.5 2.5-9.5 2.5-9 3.5-9 3.5-7.5 5.5-7.5 5.5 2.5-1 2.5-1 .5-1 .5-1 1-1 1-1 1.5-.5 1.5-.5 2-.5 2-.5 1-1 1-1 1.5-1 1.5-1 1-1 1-1 2-.5 2-.5h3 3 9.5 9.5l12 .5 12 .5.5-.5.5-.5v-1.5-1.5" style="fill:#d0cbb3;stroke:#d0cbb3" />
        <path d="m848 346l1-1-12-.5-12-.5h-9.5-9.5 1.5 1.5l.5-.5.5-.5h1 1 1 1l1.5.5 1.5.5h1.5 1.5l.5.5.5.5 1.5.5 1.5.5 1 .5 1 .5v1 1l.5 1.5.5 1.5v1.5 1.5l.5.5.5.5 1 1 1 1 .5 1 .5 1h2 2l.5-.5.5-.5.5-1 .5-1-1.5.5-1.5.5h-1-1l-.5-.5-.5-.5-.5-.5-.5-.5-.5-1-.5-1v-1-1-1-1-1-1l.5-1 .5-1h1 1 1 1l.5.5.5.5 1 .5 1 .5.5 1.5.5 1.5-.5 1.5-.5 1.5v1.5 1.5l1-1 1-1 .5-1.5.5-1.5.5-2 .5-2 1-1 1-1h2.5 2.5" style="fill:#b5b0a4;stroke:#b5b0a4" />
        <path d="m845 294h1l-9.5-2.5-9.5-2.5-10 3-10 3-10 3.5-10 3.5-9.5 4.5-9.5 4.5 10-3.5 10-3.5 9-3.5 9-3.5 9-3 9-3 10.5 1.5 10.5 1.5" style="fill:#544f42;stroke:#544f42" />
        <path d="m840 295l1-1h-.5-.5l-1-.5-1-.5h-1-1l-1-.5-1-.5h-1-1-1-1l-.5.5-.5.5-1 .5-1 .5h-1-1l-1.5.5-1.5.5h1.5 1.5 2 2l2.5-.5 2.5-.5 1.5.5 1.5.5h1.5 1.5" style="fill:#b5b0a4;stroke:#b5b0a4" />
        <path d="m840 294h1l-1-1-1-1-1-.5-1-.5h-1-1-2-2l-1.5.5-1.5.5h-2.5-2.5l-1 1-1 1 .5.5.5.5 1.5-.5 1.5-.5h1 1l1-.5 1-.5.5-.5.5-.5h1 1 1 1l1 .5 1 .5h1 1l1 .5 1 .5" style="fill:#9a9588;stroke:#9a9588" />
        <path d="m837 354l1-3-.5-1.5-.5-1.5-1-.5-1-.5-.5-.5-.5-.5h-1-1-1-1l-.5 1-.5 1v1 1 1 1 1 1l.5 1 .5 1 .5.5.5.5.5.5.5.5h1 1l1.5-.5 1.5-.5v-1.5-1.5" style="fill:#d0cbb3;stroke:#d0cbb3" />
        <path d="m835 356l1-3-.5-1.5-.5-1.5-2-.5-2-.5-.5 1.5-.5 1.5.5 2 .5 2h2 2" style="fill:#dfdace;stroke:#dfdace" />
        <path d="m825 374l1-3-.5-1.5-.5-1.5-1-1.5-1-1.5-1-1-1-1-1-1.5-1-1.5-1.5-.5-1.5-.5-1-.5-1-.5-.5-.5-.5-.5-2-.5-2-.5h-1.5-1.5l-.5-1.5-.5-1.5h-1.5-1.5l1.5 1 1.5 1-.5.5-.5.5h-1.5-1.5l-1.5.5-1.5.5-.5.5-.5.5-1 .5-1 .5h-.5-.5l-.5 1-.5 1-.5 1.5-.5 1.5.5 1.5.5 1.5.5 2 .5 2 1 1 1 1 1.5 1 1.5 1 1 .5 1 .5 2.5.5 2.5.5 1 1 1 1 2 .5 2 .5h2 2 2 2l1-1.5 1-1.5 1.5-1.5 1.5-1.5" style="fill:#9a9588;stroke:#9a9588" />
        <path d="m824 363l-10-14 4 5.5 4 5.5 1 1.5 1 1.5" style="fill:#1f1307;stroke:#1f1307" />
        <path d="m819 372l-12-12-3 4.5-3 4.5 9 2 9 2v-.5-.5" style="fill:#dfdace;stroke:#dfdace" />
        <path d="m807 321v-2l-.5-1.5-.5-1.5-1.5-1-1.5-1-1.5-.5-1.5-.5h-2.5-2.5-2-2l1-1.5 1-1.5.5-1.5.5-1.5-1.5.5-1.5.5-1 1.5-1 1.5-1.5.5-1.5.5-2 .5-2 .5-1.5 1-1.5 1h2 2 1 1 1 1v1 1l-.5 1.5-.5 1.5-7 5.5-7 5.5-7.5-5-7.5-5 11-3 11-3h-2.5-2.5l-.5.5-.5.5-9 1.5-9 1.5-4.5 8-4.5 8 4 14 4 14 6.5-15 6.5-15 12-1.5 12-1.5 8-4.5 8-4.5" style="fill:#d0cbb3;stroke:#d0cbb3" />
        <path d="m807 300h1l-1-.5-1-.5h-2.5-2.5l-.5.5-.5.5-1 .5-1 .5-1 .5-1 .5-.5.5-.5.5-1 .5-1 .5-1 1-1 1-.5.5-.5.5-1 .5-1 .5-1 1-1 1-.5.5-.5.5h-1-1l-.5.5-.5.5-1 .5-1 .5h-1-1l-.5.5-.5.5-1.5.5-1.5.5h2.5 2.5l1.5-1 1.5-1 2-.5 2-.5 1.5-.5 1.5-.5 1-1.5 1-1.5 1.5-.5 1.5-.5 1.5-.5 1.5-.5 1-1 1-1 1.5-1 1.5-1 1.5-.5 1.5-.5 1-.5 1-.5" style="fill:#b5b0a4;stroke:#b5b0a4" />
        <path d="m805 348l1-2h-.5-.5l-1.5.5-1.5.5-1.5 1-1.5 1-1.5.5-1.5.5-1 1-1 1-1.5 1-1.5 1-1.5.5-1.5.5-2 .5-2 .5-1 1-1 1-1.5 1-1.5 1-.5-.5-.5-.5.5-1 .5-1-2.5 1-2.5 1-1.5.5-1.5.5-1 1-1 1-1.5 1-1.5 1-1.5.5-1.5.5-1.5 1-1.5 1v.5.5h1.5 1.5l1.5-.5 1.5-.5 1-1 1-1 .5.5.5.5-9.5-.5-9.5-.5-5.5-8.5-5.5-8.5h-1.5-1.5v.5.5l5.5 7 5.5 7 11.5 3 11.5 3 1.5-1 1.5-1 1-.5 1-.5.5-.5.5-.5.5-.5.5-.5.5-.5.5-.5 1-1 1-1 1-.5 1-.5 2-1 2-1 1.5-.5 1.5-.5 2-.5 2-.5 1.5-.5 1.5-.5-1 2-1 2h.5.5l1-.5 1-.5.5-.5.5-.5 1.5-.5 1.5-.5h1.5 1.5l.5-.5.5-.5-1.5-1-1.5-1-1.5-.5-1.5-.5-.5-.5-.5-.5.5-.5.5-.5 1-.5 1-.5h1 1l1-.5 1-.5" style="fill:#7a7467;stroke:#7a7467" />
        <path d="m805 346h1v-.5-.5h-.5-.5-2.5-2.5l-1 1-1 1-1.5 1-1.5 1-1.5.5-1.5.5-1 1.5-1 1.5-1.5.5-1.5.5-2 .5-2 .5-2 1-2 1-.5 1-.5 1 .5.5.5.5 1.5-1 1.5-1 1-1 1-1 2-.5 2-.5 1.5-.5 1.5-.5 1.5-1 1.5-1 1-1 1-1 1.5-.5 1.5-.5 1.5-1 1.5-1 1.5-.5 1.5-.5" style="fill:#9a9588;stroke:#9a9588" />
        <path d="m805 345h1v-.5-.5h-3-3l-2 .5-2 .5-1 1-1 1-1.5 1-1.5 1-1 1-1 1-2 .5-2 .5-1.5.5-1.5.5-1 1-1 1-.5 1-.5 1 2-1 2-1 2-.5 2-.5 1.5-.5 1.5-.5 1-1.5 1-1.5 1.5-.5 1.5-.5 1.5-1 1.5-1 1-1 1-1h2.5 2.5" style="fill:#b5b0a4;stroke:#b5b0a4" />
        <path d="m800 376h1l-1-.5-1-.5-1.5-1-1.5-1-1-1-1-1-.5-2-.5-2-.5-1.5-.5-1.5.5-1.5.5-1.5.5-1 .5-1 1-2 1-2-1.5.5-1.5.5-2 .5-2 .5-1.5.5-1.5.5-2 1-2 1h1.5 1.5l.5-.5.5-.5 1.5-.5 1.5-.5.5 1 .5 1v1 1 2 2l.5 1 .5 1v1 1l.5.5.5.5.5.5.5.5 1 1 1 1 1 .5 1 .5 1.5.5 1.5.5" style="fill:#544f42;stroke:#544f42" />
        <path d="m800 300l1-1-9 5.5-9 5.5-10.5 1-10.5 1 1 1 1 1h2 2l3 .5 3 .5 1.5-.5 1.5-.5.5-.5.5-.5h1 1l1-.5 1-.5.5-.5.5-.5h1 1l.5-.5.5-.5 1-1 1-1 1-.5 1-.5.5-.5.5-.5 1-1 1-1 1-.5 1-.5.5-.5.5-.5 1-.5 1-.5 1-.5 1-.5" style="fill:#9a9588;stroke:#9a9588" />
        <path d="m787 373l-11-5-9.5 3.5-9.5 3.5-5.5 4.5-5.5 4.5h2 2 2.5 2.5 2 2l1.5-1 1.5-1 1.5.5 1.5.5 1.5-1 1.5-1 1.5-.5 1.5-.5 1-1 1-1 1-1.5 1-1.5 1-1 1-1 2 .5 2 .5h2 2l1-.5 1-.5" style="fill:#1f1307;stroke:#1f1307" />
        <path d="m786 320l1-3v-1-1h-1-1-1-1-2-2l-11 3-11 3 7.5 5 7.5 5 7-5.5 7-5.5" style="fill:#dfdace;stroke:#dfdace" />
        <path d="m773 316l1-1-3-.5-3-.5h-2-2l-1-1-1-1-7 6.5-7 6.5-3 9.5-3 9.5 9 12 9 12v-.5-.5l-1-.5-1-.5-.5-.5-.5-.5-.5-.5-.5-.5-1-.5-1-.5-4-14-4-14 4.5-8 4.5-8 9-1.5 9-1.5" style="fill:#b5b0a4;stroke:#b5b0a4" />
        <path d="m769 370l1-1-11.5-3-11.5-3-5.5-7-5.5-7h-.5-.5l-1.5-.5-1.5-.5 1 1.5 1 1.5.5 1 .5 1 7 8.5 7 8.5h10 10" style="fill:#544f42;stroke:#544f42" />
        <path d="m769 366l-1-1-1 1-1 1-1.5.5-1.5.5h-1.5-1.5l-9-12-9-12 3-9.5 3-9.5 7-6.5 7-6.5v-.5-.5h-.5-.5l-7.5 5.5-7.5 5.5-3.5 13-3.5 13 5.5 8.5 5.5 8.5 9.5.5 9.5.5" style="fill:#9a9588;stroke:#9a9588" />
        <path d="m768 301l-18-25-7.5-5.5-7.5-5.5-6-7.5-6-7.5-6.5-7-6.5-7-9.5-2.5-9.5-2.5-5.5 8-5.5 8v11.5 11.5l-3.5 9.5-3.5 9.5-4 9.5-4 9.5-6.5 6.5-6.5 6.5-8.5-1-8.5-1 .5 2 .5 2-.5 1.5-.5 1.5-5-4-5-4-.5-4.5-.5-4.5-6-7-6-7-4-9.5-4-9.5-6.5-6.5-6.5-6.5-1-9.5-1-9.5-.5-12-.5-12-9.5.5-9.5.5-13 11.5-13 11.5.5 2 .5 2 .5.5.5.5v1 1 1 1 1 1l.5 1 .5 1v1 1 1 1l.5 1 .5 1 4.5 8.5 4.5 8.5 2.5 10 2.5 10 2.5 7.5 2.5 7.5-5 6-5 6-6.5-5-6.5-5-6-6-6-6-6.5-8.5-6.5-8.5-.5 1-.5 1v1 1l-.5 1-.5 1 3.5 9.5 3.5 9.5 6 7.5 6 7.5 5.5 7.5 5.5 7.5 17-4 17-4v-2-2l.5-.5.5-.5.5-1 .5-1h2 2l10 1.5 10 1.5 13 3.5 13 3.5 1-.5 1-.5 1 1.5 1 1.5h2.5 2.5 2.5 2.5l1.5-1 1.5-1 6-6.5 6-6.5 6.5-7 6.5-7 4-9 4-9 2.5-11 2.5-11v-12.5-12.5l8-.5 8-.5 6 6.5 6 6.5 7.5 10 7.5 10 7 6 7 6 9.5 9 9.5 9 1.5.5 1.5.5 1-.5 1-.5-1-2.5-1-2.5 1-1 1-1" style="fill:#671b05;stroke:#671b05" />
        <path d="m762 309h1v-.5-.5l-9.5-9-9.5-9-7-6-7-6h-.5-.5l-1-.5-1-.5-.5-.5-.5-.5h-1-1l-.5-.5-.5-.5-.5-.5-.5-.5v-1-1l-1-.5-1-.5-.5-.5-.5-.5-1.5-.5-1.5-.5.5 1.5.5 1.5.5 1 .5 1 1.5 1.5 1.5 1.5 1.5 1 1.5 1 1 1 1 1 2 .5 2 .5 1 1 1 1 1 1 1 1 1.5 1 1.5 1 .5 1.5.5 1.5 1 1.5 1 1.5 1.5 1 1.5 1 1 1 1 1 .5.5.5.5.5.5.5.5v1 1l1 .5 1 .5.5.5.5.5.5.5.5.5.5.5.5.5 1 .5 1 .5h1.5 1.5l1 .5 1 .5 1.5.5 1.5.5" style="fill:#903125;stroke:#903125" />
        <path d="m761 311h1l-1-.5-1-.5h-.5-.5l-1-.5-1-.5h-2.5-2.5l-1.5-.5-1.5-.5-1.5-1-1.5-1-.5-1.5-.5-1.5h-.5-.5l-6.5-5.5-6.5-5.5-7-6-7-6 2.5 6.5 2.5 6.5 6 6.5 6 6.5 2 9 2 9-3.5 9-3.5 9 1 1.5 1 1.5 1.5 1.5 1.5 1.5h1.5 1.5l3.5-13 3.5-13 7.5-5.5 7.5-5.5" style="fill:#ab7169;stroke:#ab7169" />
        <path d="m759 310h1l-1-.5-1-.5-.5-1-.5-1h-1.5-1.5l-1-.5-1-.5-.5-.5-.5-.5-.5-.5-.5-.5-.5-.5-.5-.5-1-.5-1-.5v-1-1l-.5-.5-.5-.5-.5-.5-.5-.5-1-1-1-1-1.5-1-1.5-1v1 1l.5 1 .5 1 .5.5.5.5.5.5.5.5.5.5.5.5.5 1 .5 1 .5 1.5.5 1.5 1.5 1 1.5 1 1.5.5 1.5.5h2.5 2.5l1 .5 1 .5" style="fill:#9d554c;stroke:#9d554c" />
        <path d="m744 303h1l-.5-1-.5-1-.5-.5-.5-.5-.5-.5-.5-.5-.5-.5-.5-.5-.5-1-.5-1v-1-1l-1-1.5-1-1.5-.5-1.5-.5-1.5-1.5-1-1.5-1-1-1-1-1-1-1-1-1-2-.5-2-.5-1-1-1-1-1.5-1-1.5-1-1.5-1.5-1.5-1.5h-.5-.5l-1-1-1-1-.5-.5-.5-.5-.5-.5-.5-.5-.5-1-.5-1-.5-.5-.5-.5-.5-.5-.5-.5-.5-.5-.5-.5-.5-.5-.5-.5-.5-.5-.5-.5-.5-1-.5-1v-1-1l-.5-.5-.5-.5-.5-.5-.5-.5-.5-1-.5-1-.5-.5-.5-.5v-1-1l-.5-.5-.5-.5-.5-1-.5-1-.5-1-.5-1-1-1-1-1h-.5-.5l-1 1.5-1 1.5-.5 1.5-.5 1.5v2 2l.5 2 .5 2 .5 1.5.5 1.5v2.5 2.5l.5 1.5.5 1.5-.5 2.5-.5 2.5 3.5 5 3.5 5 4 7.5 4 7.5 4 7.5 4 7.5 4.5 13.5 4.5 13.5h2 2l3.5-9 3.5-9-2-9-2-9-6-6.5-6-6.5-2.5-6.5-2.5-6.5 7 6 7 6 6.5 5.5 6.5 5.5" style="fill:#c95148;stroke:#c95148" />
        <path d="m742 379v-2l-.5-1.5-.5-1.5-1-1.5-1-1.5v-2-2l-1.5-1-1.5-1-.5.5-.5.5v2 2l-.5 1-.5 1h-1-1l-.5.5-.5.5h-1-1l-.5.5-.5.5-1 .5-1 .5-.5.5-.5.5-.5.5-.5.5v1 1 1.5 1.5l-.5 1-.5 1h1.5 1.5 2.5 2.5 2 2 2.5 2.5.5.5v-1.5-1.5l.5-1 .5-1" style="fill:#1f1307;stroke:#1f1307" />
        <path d="m735 366l1-1-1-1-1-1 .5-.5.5-.5.5-.5.5-.5-1-.5-1-.5v-1-1l-.5-.5-.5-.5.5-.5.5-.5v-1.5-1.5l-1.5-.5-1.5-.5-1-1.5-1-1.5-2-.5-2-.5h-.5-.5l-6.5 6-6.5 6-4.5 12-4.5 12h3.5 3.5 2 2 2.5 2.5 2 2 .5.5l.5-1 .5-1v-1.5-1.5-1-1l.5-.5.5-.5.5-.5.5-.5 1-.5 1-.5.5-.5.5-.5h1 1l.5-.5.5-.5h1 1l.5-1 .5-1v-2-2" style="fill:#671b05;stroke:#671b05" />
        <path d="m735 349h1v-.5-.5l-1.5-1.5-1.5-1.5-1-1.5-1-1.5h-2-2v.5.5l1 1 1 1 .5.5.5.5 1 1 1 1 1.5.5 1.5.5" style="fill:#9d554c;stroke:#9d554c" />
        <path d="m734 353h1l-.5-1-.5-1-1-1.5-1-1.5-1-1-1-1-.5-.5-.5-.5-1-1-1-1h-.5-.5-1.5-1.5-1.5-1.5l-.5 1-.5 1h1.5 1.5v.5.5h-1-1l.5.5.5.5h1 1l1 .5 1 .5 2 .5 2 .5 1 1.5 1 1.5 1.5.5 1.5.5" style="fill:#903125;stroke:#903125" />
        <path d="m729 278h1l-7.5-10-7.5-10-6-6.5-6-6.5.5 2 .5 2 .5 1 .5 1v.5.5l.5 1 .5 1 .5.5.5.5.5.5.5.5.5 1 .5 1 .5.5.5.5v1 1l.5.5.5.5.5 1 .5 1 .5.5.5.5.5.5.5.5.5.5.5.5.5 1 .5 1 1.5.5 1.5.5.5.5.5.5 1 .5 1 .5v1 1l.5.5.5.5.5.5.5.5h1 1l.5.5.5.5 1 .5 1 .5" style="fill:#9a2c00;stroke:#9a2c00" />
        <path d="m726 343h1v-.5-.5l-4.5-13.5-4.5-13.5-4-7.5-4-7.5-4-7.5-4-7.5-3.5-5-3.5-5h-.5-.5l-3 9.5-3 9.5-6 12.5-6 12.5-.5 1-.5 1-1 1-1 1-1 1.5-1 1.5-1 1-1 1-5.5 8-5.5 8-13 6.5-13 6.5h-.5-.5l-.5 1-.5 1-6 1-6 1-1.5-4.5-1.5-4.5-5.5 2-5.5 2-8 14-8 14h2.5 2.5 2 2 2 2 2.5 2.5 2 2 2.5 2.5 2 2 2.5 2.5 1 1l8.5-6 8.5-6 7.5-5.5 7.5-5.5 8-5.5 8-5.5 9.5-4 9.5-4 8 1 8 1-5.5 8-5.5 8-12 12-12 12h1.5 1.5 2.5 2.5 2 2 2.5 2.5 2 2l.5-1.5.5-1.5.5-2 .5-2v-2-2-1.5-1.5l1-1 1-1 .5-2 .5-2 1-1 1-1 1-1.5 1-1.5 1-1.5 1-1.5.5-1 .5-1 .5-.5.5-.5 1-.5 1-.5.5-1.5.5-1.5h1 1l.5-1 .5-1 1.5-.5 1.5-.5 1-.5 1-.5.5-1 .5-1h1.5 1.5 1.5 1.5" style="fill:#cc3e2b;stroke:#cc3e2b" />
        <path d="m724 348h1l-1-.5-1-.5h-1-1l-.5-.5-.5-.5h1 1v-.5-.5h-1.5-1.5l-1 .5-1 .5-1.5.5-1.5.5-.5 1-.5 1h-1-1l-.5 1.5-.5 1.5-1 .5-1 .5-.5.5-.5.5-.5 1-.5 1-.5 1-.5 1-.5 1-.5 1v1 1l-.5.5-.5.5v1.5 1.5l-1 1-1 1-.5.5-.5.5v1.5 1.5l-.5 1.5-.5 1.5v1 1l-.5 1-.5 1-.5 1.5-.5 1.5.5 1 .5 1h2 2l4.5-12 4.5-12 6.5-6 6.5-6" style="fill:#9a2c00;stroke:#9a2c00" />
        <path d="m717 274h1l-.5-1-.5-1-.5-1.5-.5-1.5-.5-1-.5-1-.5-.5-.5-.5-.5-.5-.5-.5-.5-.5-.5-.5-.5-1-.5-1-.5-.5-.5-.5v-1-1l-.5-.5-.5-.5-.5-1-.5-1-.5-.5-.5-.5-.5-.5-.5-.5-.5-1-.5-1-1-.5-1-.5-1-1.5-1-1.5-1-.5-1-.5.5 1 .5 1 .5 1 .5 1 .5.5.5.5v1 1l.5.5.5.5.5 1 .5 1 .5.5.5.5.5.5.5.5v1 1l.5 1 .5 1 .5.5.5.5.5.5.5.5.5.5.5.5.5.5.5.5.5.5.5.5.5 1 .5 1 .5.5.5.5.5.5.5.5 1 1 1 1" style="fill:#cc3e2b;stroke:#cc3e2b" />
        <path d="m710 114l-11-13-8.5-3-8.5-3 2.5-7.5 2.5-7.5-6.5-7-6.5-7-9 .5-9 .5-7 6-7 6-.5 10-.5 10-3 9.5-3 9.5-2.5 10.5-2.5 10.5 4 9.5 4 9.5-4.5 3-4.5 3-4-9-4-9-5 8.5-5 8.5 4 9 4 9 6.5 7 6.5 7 1-7.5 1-7.5 6-7 6-7 3.5-10 3.5-10-2-10.5-2-10.5 2-8 2-8 9 .5 9 .5 6 3.5 6 3.5 7.5.5 7.5.5 6-2 6-2" style="fill:#3b3327;stroke:#3b3327" />
        <path d="m709 344l-16-2-9.5 4-9.5 4-8 5.5-8 5.5-7.5 5.5-7.5 5.5-8.5 6-8.5 6h3.5 3.5 2 2 2 2 2.5 2.5 1 1l.5-1 .5-1 .5-.5.5-.5 1-1 1-1 1-1.5 1-1.5h2 2l1-.5 1-.5 1-1 1-1h2 2v1.5 1.5l-1 1-1 1-1.5.5-1.5.5v.5.5l-1 1-1 1 .5 1 .5 1h3.5 3.5 2 2 1.5 1.5l12-12 12-12 5.5-8 5.5-8" style="fill:#c95148;stroke:#c95148" />
        <g style="fill:#903125;stroke:#903125">
            <path d="m705 358l1-2-1 1.5-1 1.5-1 1.5-1 1.5-1 1-1 1-.5 2-.5 2-1 1-1 1v1.5 1.5 2 2l-.5 2-.5 2-.5 1.5-.5 1.5h1.5 1.5l-.5-1-.5-1 .5-1.5.5-1.5.5-1 .5-1v-1-1l.5-1.5.5-1.5v-1.5-1.5l.5-.5.5-.5 1-1 1-1v-1.5-1.5l.5-.5.5-.5v-1-1l.5-1 .5-1" />
            <path d="m705 251l-1-2-.5-2-.5-2-8 .5-8 .5v12.5 12.5l-2.5 11-2.5 11-4 9-4 9-6.5 7-6.5 7-6 6.5-6 6.5-.5 1-.5 1-.5 1-.5 1-1.5.5-1.5.5-2 .5-2 .5-1-1-1-1-1-1-1-1-1-1.5-1-1.5-1 .5-1 .5-.5 1.5-.5 1.5.5 1 .5 1 1.5.5 1.5.5 1.5 1 1.5 1h2 2l1.5-.5 1.5-.5h1 1l1-.5 1-.5h.5.5l-1 1-1 1-1.5.5-1.5.5-2 .5-2 .5-1.5.5-1.5.5-1 1-1 1-1.5 1-1.5 1-.5 2-.5 2 13-6.5 13-6.5 5.5-8 5.5-8h-2-2l.5-1 .5-1 1-1 1-1 1-1.5 1-1.5 1-1 1-1 1-1.5 1-1.5 1-1 1-1 1-1 1-1v.5.5l-.5 1.5-.5 1.5-.5 1.5-.5 1.5 6-12.5 6-12.5 3-9.5 3-9.5-.5-2-.5-2v-2-2l-.5-1.5-.5-1.5-.5-2-.5-2v-2-2l-.5-2-.5-2v-2-2l.5-2 .5-2h2 2l1 .5 1 .5 1 1 1 1 1 .5 1 .5 1 1.5 1 1.5 1 .5 1 .5v-.5-.5" />
        </g>
        <path d="m696 245h1l-1-.5-1-.5h-2-2l-.5 2-.5 2v2 2l.5 2 .5 2v2 2l.5 2 .5 2 .5 1.5.5 1.5v2 2l.5 2 .5 2h.5.5l.5-2.5.5-2.5-.5-1.5-.5-1.5v-2.5-2.5l-.5-1.5-.5-1.5-.5-2-.5-2v-2-2l.5-1.5.5-1.5 1-1.5 1-1.5" style="fill:#9d554c;stroke:#9d554c" />
        <path d="m678 313v-1l-1 1-1 1-1 1-1 1-1 1.5-1 1.5-1 1-1 1-1 1.5-1 1.5-1 1-1 1-.5 1-.5 1h2 2l1-1 1-1 1-1.5 1-1.5 1-1 1-1 .5-1 .5-1 .5-1.5.5-1.5.5-1.5.5-1.5" style="fill:#9a2c00;stroke:#9a2c00" />
        <path d="m666 376v-3h-2-2l-1 1-1 1-1 .5-1 .5h-2-2l-1 1.5-1 1.5-1 1-1 1-.5.5-.5.5-.5 1-.5 1h3 3 2 2 1 1l-.5-1-.5-1 1-1 1-1v-.5-.5l1.5-.5 1.5-.5 1-1 1-1" style="fill:#ab7169;stroke:#ab7169" />
        <g style="fill:#9a2c00;stroke:#9a2c00">
            <path d="m650 344h-1l-1 .5-1 .5h-1-1l-1.5.5-1.5.5h-2-2l-1.5-1-1.5-1-1.5-.5-1.5-.5-.5-1-.5-1 .5-1.5.5-1.5-13-3.5-13-3.5-10-1.5-10-1.5h1.5 1.5l-.5.5-.5.5v.5.5 1.5 1.5l-1 1-1 1h-1-1l-1 1-1 1-1-1-1-1-17 4-17 4-5.5-7.5-5.5-7.5-6-7.5-6-7.5-3.5-9.5-3.5-9.5-2-.5-2-.5-1-1-1-1-.5-.5-.5-.5-1-.5-1-.5-1-1-1-1v-1-1-1.5-1.5l-8-4.5-8-4.5-5-7-5-7-7-5.5-7-5.5-7-6-7-6-3-9-3-9-3-9.5-3-9.5-2.5-9.5-2.5-9.5-5.5-18.5-5.5-18.5h-.5-.5l-1 1.5-1 1.5v.5.5 1.5 1.5l-.5 1-.5 1-1.5 1.5-1.5 1.5-1.5.5-1.5.5-1-1-1-1-1-1.5-1-1.5-1-1-1-1-1.5-1-1.5-1-.5-1.5-.5-1.5-1.5-1-1.5-1-.5-1-.5-1h-.5-.5l-1-.5-1-.5-.5-.5-.5-.5-.5-.5-.5-.5-.5-.5-.5-.5-1 .5-1 .5-.5-1.5-.5-1.5-.5-.5-.5-.5-1-.5-1-.5-1-1.5-1-1.5.5 2 .5 2-.5 2-.5 2 1 1 1 1v1 1l.5 2 .5 2 1 1 1 1 .5 2 .5 2v1 1l.5 1 .5 1 1.5 2 1.5 2 6.5 6.5 6.5 6.5 6 6 6 6 5 7.5 5 7.5 3.5 16 3.5 16-8.5 3-8.5 3-6.5 5.5-6.5 5.5-2.5 10-2.5 10-5.5 8-5.5 8-2 10-2 10-3 9-3 9-4.5 8-4.5 8-6.5 5.5-6.5 5.5-11-.5-11-.5-8.5-5-8.5-5-3-10-3-10-1-11-1-11-2.5-4-2.5-4-5.5 8-5.5 8-9.5 2.5-9.5 2.5-4 8-4 8-2.5 10-2.5 10 .5 11.5.5 11.5 5 8 5 8h13 13 13 13 13.5 13.5 13.5 13.5 13 13 13.5 13.5 11.5 11.5l6-6 6-6 11.5-1.5 11.5-1.5 5.5 7.5 5.5 7.5h2.5 2.5 2.5 2.5 2 2 2.5 2.5 2 2 2 2l7-5.5 7-5.5 7-5 7-5 7-5.5 7-5.5 6.5-5.5 6.5-5.5 9.5-1 9.5-1 13.5 9 13.5 9h.5.5l.5-2 .5-2 1.5-1 1.5-1 1-1 1-1 1.5-.5 1.5-.5 2-.5 2-.5 1.5-.5 1.5-.5 1-1 1-1" />
            <path d="m648 340l1-2-1.5 1-1.5 1h-2.5-2.5-2.5-2.5l1 1 1 1 1 1 1 1 2-.5 2-.5 1.5-.5 1.5-.5.5-1 .5-1" />
        </g>
        <path d="m635 326l1-3-.5-2-.5-2-1-1-1-1-1-1-1-1-.5-1-.5-1-.5-.5-.5-.5-.5-.5-.5-.5h-1-1l-1-1-1-1 .5 4.5.5 4.5 5 4 5 4" style="fill:#3b3327;stroke:#3b3327" />
        <path d="m630 359l1-2-13.5-9-13.5-9-9.5 1-9.5 1-6.5 5.5-6.5 5.5-7 5.5-7 5.5-7 5-7 5-7 5.5-7 5.5h14 14 13.5 13.5 1.5 1.5l8-14 8-14 5.5-2 5.5-2 1.5 4.5 1.5 4.5 6-1 6-1" style="fill:#c33501;stroke:#c33501" />
        <path d="m615 74l-7-22-6.5-6.5-6.5-6.5-4-8.5-4-8.5 1-11 1-11h-12.5-12.5-13.5-13.5-13-13-13.5-13.5-5-5l-.5 1-.5 1 .5.5.5.5v1.5 1.5l-.5 2-.5 2-1 1-1 1-.5 1.5-.5 1.5-1.5 1-1.5 1-1 1-1 1-.5.5-.5.5-6 6.5-6 6.5-4 9-4 9-4.5 9-4.5 9-4 10-4 10v1.5 1.5l-.5 1.5-.5 1.5-.5.5-.5.5-.5 1-.5 1-.5 1.5-.5 1.5v1 1l-.5 1-.5 1v2 2l-.5 2-.5 2v2 2 2 2 1 1 2 2l1-1.5 1-1.5 1-10.5 1-10.5 4.5-3.5 4.5-3.5 1.5 12 1.5 12-1 2.5-1 2.5 1 10.5 1 10.5 2 10.5 2 10.5 6.5 16 6.5 16 6.5-6 6.5-6 4 4.5 4 4.5 3 9 3 9 .5 10.5.5 10.5v.5.5 1 1 1.5 1.5l5 8 5 8 9 11 9 11 1.5.5 1.5.5.5 1 .5 1 .5.5.5.5.5.5.5.5.5.5.5.5.5 1.5.5 1.5 6.5 8.5 6.5 8.5 6 6 6 6 6.5 5 6.5 5 5-6 5-6-2.5-7.5-2.5-7.5-2.5-10-2.5-10-4.5-8.5-4.5-8.5h-.5-.5l-3.5 8.5-3.5 8.5-6-3.5-6-3.5-1-9-1-9 9-5.5 9-5.5 13-11.5 13-11.5 9.5-.5 9.5-.5 3.5-16 3.5-16 5-7 5-7-1.5-10-1.5-10-3.5-8.5-3.5-8.5-1-10-1-10 4-7.5 4-7.5-1-9-1-9 8-5 8-5" style="fill:#3b3327;stroke:#3b3327" />
        <path d="m597 348v-2l-.5-1.5-.5-1.5-2-.5-2-.5-1.5.5-1.5.5-1.5 1-1.5 1v1 1l1.5 1 1.5 1 1.5-.5 1.5-.5h2 2 .5.5" style="fill:#cc3e2b;stroke:#cc3e2b" />
        <path d="m592 171v-24l-5-8.5-5-8.5-9 3-9 3-.5 10-.5 10 3.5 10 3.5 10h9 9l2-2.5 2-2.5" style="fill:#544f42;stroke:#544f42" />
        <path d="m588 333v-3-.5-.5l.5-.5.5-.5h-1.5-1.5-2-2l-.5 1-.5 1-.5.5-.5.5v2 2l1 1 1 1 1-1 1-1h1 1l1-1 1-1" style="fill:#903125;stroke:#903125" />
        <path d="m587 296l1-3v-2-2l-.5-2-.5-2-1.5-.5-1.5-.5-2-.5-2-.5h-2-2l-2-.5-2-.5-1-1-1-1h-.5-.5l-.5 1-.5 1 .5 1 .5 1v1 1 1 1 1.5 1.5 1.5 1.5l.5 1 .5 1 .5.5.5.5.5.5.5.5 1 .5 1 .5.5.5.5.5v1 1l.5.5.5.5.5 1 .5 1 .5.5.5.5.5.5.5.5h1 1v1 1l.5 1 .5 1 .5.5.5.5.5 1.5.5 1.5v-1.5-1.5-2-2l.5-2 .5-2 .5-1.5.5-1.5.5-1.5.5-1.5v-1-1" style="fill:#9a2c00;stroke:#9a2c00" />
        <path d="m583 316l1-1-.5-1.5-.5-1.5-.5-.5-.5-.5-.5-1-.5-1v-1-1h-1-1l-.5-.5-.5-.5-.5-.5-.5-.5-.5-1-.5-1-.5-.5-.5-.5v-1-1l-.5-.5-.5-.5-1-.5-1-.5-.5-.5-.5-.5-.5-.5-.5-.5-.5-1-.5-1 1.5 9.5 1.5 9.5 5.5 1.5 5.5 1.5" style="fill:#903125;stroke:#903125" />
        <path d="m579 244l1-3-.5-1.5-.5-1.5-.5-2-.5-2-.5-1.5-.5-1.5h-.5-.5l-.5.5-.5.5-.5 1-.5 1h-.5-.5l-1 1.5-1 1.5.5 1.5.5 1.5.5.5.5.5v1 1 1 1l-.5 1.5-.5 1.5v1.5 1.5h-1-1l-.5 1-.5 1-1 1-1 1h-1-1l-.5-1-.5-1-1-1.5-1-1.5-1-.5-1-.5-1-.5-1-.5-.5 1.5-.5 1.5.5 2 .5 2h1 1l1 1 1 1 .5 2 .5 2-.5 1.5-.5 1.5 1.5 1.5 1.5 1.5 1 .5 1 .5 1-1.5 1-1.5.5-1.5.5-1.5 1.5-1 1.5-1 .5-1.5.5-1.5 1-1.5 1-1.5.5-1.5.5-1.5 1-1.5 1-1.5v-2-2" style="fill:#9a2c00;stroke:#9a2c00" />
        <path d="m575 232l1-1h-8.5-8.5l-3 10-3 10 4.5 8 4.5 8h1.5 1.5l-1.5-1.5-1.5-1.5.5-1.5.5-1.5-.5-2-.5-2-1-1-1-1h-1-1l-.5-2-.5-2 .5-1.5.5-1.5 1 .5 1 .5 1 .5 1 .5v-2-2-2-2l1-1.5 1-1.5 1-1 1-1h2.5 2.5l1-1.5 1-1.5h.5.5l.5-1 .5-1" style="fill:#903125;stroke:#903125" />
        <path d="m572 248l1-3v-1-1-1-1l-.5-.5-.5-.5-.5-1.5-.5-1.5-.5 1.5-.5 1.5-.5 1.5-.5 1.5v1 1 1 1 1.5 1.5l-.5.5-.5.5-.5.5-.5.5-.5-.5-.5-.5h-1-1l-1-.5-1-.5 1 1.5 1 1.5.5 1 .5 1h1 1l1-1 1-1 .5-1 .5-1h1 1v-1.5-1.5" style="fill:#c33501;stroke:#c33501" />
        <path d="m570 240l1-3h-2.5-2.5l-1 1-1 1-1 1.5-1 1.5v2 2 2 2l1 .5 1 .5h1 1l.5.5.5.5.5-.5.5-.5.5-.5.5-.5v-1.5-1.5-1-1-1-1l.5-1.5.5-1.5" style="fill:#cc3e2b;stroke:#cc3e2b" />
        <path d="m568 291h1v-1.5-1.5-1-1-1-1l-.5-1-.5-1 .5-1 .5-1-.5-1-.5-1-1-1.5-1-1.5-1-1-1-1h-.5-.5v2 2l.5 1.5.5 1.5v2.5 2.5l.5 1.5.5 1.5.5 2 .5 2h1 1v-.5-.5" style="fill:#903125;stroke:#903125" />
        <path d="m546 263h1l-.5-1-.5-1v-1-1-1-1l-.5-1-.5-1v-1-1-1-1-1-1l-.5-.5-.5-.5-.5-2-.5-2-9 5.5-9 5.5 1 9 1 9 6 3.5 6 3.5 3.5-8.5 3.5-8.5" style="fill:#1f1307;stroke:#1f1307" />
        <path d="m517 292v-2l.5-1 .5-1-.5-1.5-.5-1.5-.5-.5-.5-.5-.5-.5-.5-.5-.5-.5-.5-.5-.5-1-.5-1-1.5-.5-1.5-.5h-.5-.5v1.5 1.5h-2-2v1.5 1.5 1 1l1 1 1 1 1 .5 1 .5.5.5.5.5 1 1 1 1 2 .5 2 .5.5-1 .5-1" style="fill:#903125;stroke:#903125" />
        <path d="m514 324l-2-22-6.5-6-6.5-6-3 10-3 10v11.5 11.5l7 2.5 7 2.5 3.5-7 3.5-7" style="fill:#c33501;stroke:#c33501" />
        <path d="m509 279h1l-9-11-9-11-5-8-5-8-8-5-8-5-6-16-6-16-6.5-16-6.5-16-2-10.5-2-10.5-1-10.5-1-10.5-.5-1-.5-1-1.5.5-1.5.5-2 .5-2 .5-1.5.5-1.5.5-.5-1-.5-1-1 1.5-1 1.5v2.5 2.5l.5 2 .5 2v2 2l.5 1.5.5 1.5 5.5 18.5 5.5 18.5 2.5 9.5 2.5 9.5 3 9.5 3 9.5 3 9 3 9 7 6 7 6 7 5.5 7 5.5 5 7 5 7 8 4.5 8 4.5h2 2v-1.5-1.5" style="fill:#671b05;stroke:#671b05" />
        <path d="m507 307l-7-7 2.5 6 2.5 6 1-2.5 1-2.5" style="fill:#cc3e2b;stroke:#cc3e2b" />
        <path d="m502 384h1l-5.5-7.5-5.5-7.5-11.5 1.5-11.5 1.5-6 6-6 6h2.5 2.5 2 2 2.5 2.5 2 2 2.5 2.5 2 2 2 2 2.5 2.5 2 2 2.5 2.5" style="fill:#671b05;stroke:#671b05" />
        <path d="m499 61l-7-17-7 .5-7 .5 1 11 1 11-7.5 3-7.5 3-1.5-11-1.5-11-7 6-7 6 3 9.5 3 9.5 4.5 9 4.5 9 2 10 2 10 5-5.5 5-5.5 4-9.5 4-9.5 6-7 6-7 1-7.5 1-7.5" style="fill:#544f42;stroke:#544f42" />
        <g style="fill:#1f1307;stroke:#1f1307">
            <path d="m482 235l-1-21-3-9-3-9-4-4.5-4-4.5-6.5 6-6.5 6 6 16 6 16 8 5 8 5v-1.5-1.5-1-1-.5-.5" />
            <path d="m479 22h-12l-6.5 7-6.5 7 2 3 2 3 7-6.5 7-6.5 3.5-3.5 3.5-3.5" />
        </g>
        <path d="m478 284l1-3v-2-2l-.5-2-.5-2-.5-1.5-.5-1.5-.5-1.5-.5-1.5-.5 1.5-.5 1.5-3 11-3 11-4 9-4 9-5 7-5 7-6-3.5-6-3.5 3-10.5 3-10.5 3.5-10 3.5-10 7-11 7-11-7.5 5.5-7.5 5.5-4.5 8.5-4.5 8.5-2.5 11-2.5 11-4 9.5-4 9.5 1 9 1 9 10.5 1 10.5 1 6.5-6.5 6.5-6.5 3-10.5 3-10.5 3-10.5 3-10.5.5-2 .5-2" style="fill:#c33501;stroke:#c33501" />
        <path d="m475 270l1-3-.5-1.5-.5-1.5.5-2 .5-2-.5-.5-.5-.5-.5-1-.5-1-1-1-1-1h-1.5-1.5l-1.5-.5-1.5-.5-7 11-7 11-3.5 10-3.5 10-3 10.5-3 10.5 6 3.5 6 3.5 5-7 5-7 4-9 4-9 3-11 3-11" style="fill:#cc3e2b;stroke:#cc3e2b" />
        <path d="m473 10l1-4v-1.5-1.5l-.5-.5-.5-.5.5-1 .5-1h-2-2-.5-.5l.5 1.5.5 1.5.5.5.5.5v1 1 1 1l-.5 1.5-.5 1.5-.5 1-.5 1v1 1h-1-1l-.5 1-.5 1-.5 1-.5 1 1-1 1-1 1.5-1 1.5-1 .5-1.5.5-1.5 1-1 1-1" style="fill:#544f42;stroke:#544f42" />
        <path d="m470 11l1-3v-1-1-1-1l-.5-.5-.5-.5-.5-1.5-.5-1.5h-1.5-1.5l.5 2 .5 2 .5.5.5.5v1 1l.5.5.5.5-.5 1.5-.5 1.5-.5 1-.5 1-.5.5-.5.5-.5-.5-.5-.5-1 .5-1 .5-1 1-1 1 .5.5.5.5-1 1.5-1 1.5-1.5 1-1.5 1-1 1-1 1-1.5 1-1.5 1-1 1-1 1-.5 1.5-.5 1.5-4 8.5-4 8.5-3.5 5.5-3.5 5.5-1 1.5-1 1.5-.5.5-.5.5-.5 1-.5 1-.5 1.5-.5 1.5v2 2l-.5 1.5-.5 1.5v1 1l-1 .5-1 .5-.5 1.5-.5 1.5v1 1l-.5 1-.5 1-1 1-1 1-.5.5-.5.5-.5 1-.5 1-.5 1.5-.5 1.5-.5 2-.5 2v1.5 1.5 1.5 1.5l1-1.5 1-1.5v-1-1l.5-1 .5-1 .5-.5.5-.5-.5 1.5-.5 1.5-.5 2.5-.5 2.5-.5 1.5-.5 1.5v2.5 2.5 2 2l-.5 1.5-.5 1.5v3.5 3.5 1.5 1.5l-.5 1.5-.5 1.5v3 3l1 1 1 1v-2-2-2-2l.5-1 .5-1 .5 1.5.5 1.5v-2.5-2.5-2-2-1-1-2-2-2-2l.5-2 .5-2v-2-2l.5-1 .5-1v-1-1l.5-1.5.5-1.5.5-1 .5-1 .5-.5.5-.5.5-1.5.5-1.5v-1.5-1.5l3.5-9.5 3.5-9.5 4-9.5 4-9.5 4-9 4-9 7.5-7 7.5-7 .5-1 .5-1 .5-1 .5-1h1 1v-1-1l.5-1 .5-1" style="fill:#7a7467;stroke:#7a7467" />
        <path d="m468 11l1-3-.5-.5-.5-.5v-1-1l-.5-.5-.5-.5-.5-2-.5-2h-1-1l.5 2 .5 2 .5 1.5.5 1.5v1.5 1.5l-.5 1.5-.5 1.5.5.5.5.5.5-.5.5-.5.5-1 .5-1" style="fill:#9a9588;stroke:#9a9588" />
        <path d="m466 10v-3l-.5-1.5-.5-1.5-.5-2-.5-2h-1.5-1.5l-.5 1-.5 1 1 1 1 1 .5.5.5.5.5 1 .5 1v1.5 1.5l-7 6-7 6-4.5 7.5-4.5 7.5-5.5 14-5.5 14 .5-1 .5-1 .5-.5.5-.5 1-1.5 1-1.5.5-1 .5-1 1-1 1-1 .5-1.5.5-1.5.5-1.5.5-1.5 1-1.5 1-1.5.5-1.5.5-1.5.5-2 .5-2 .5-1.5.5-1.5 1-1.5 1-1.5 1-1 1-1 1-1.5 1-1.5.5-1.5.5-1.5 1-1 1-1 .5-.5.5-.5 1-.5 1-.5 1-1 1-1 .5-.5.5-.5 1-1 1-1 1-1 1-1 1-.5 1-.5.5-1.5.5-1.5" style="fill:#d0cbb3;stroke:#d0cbb3" />
        <path d="m464 20l1-1-7.5 7-7.5 7-4 9-4 9-4 9.5-4 9.5-3.5 9.5-3.5 9.5 4-10 4-10 4.5-9 4.5-9 4-9 4-9 6-6.5 6-6.5" style="fill:#544f42;stroke:#544f42" />
        <path d="m464 10v-3l-.5-1-.5-1-.5-.5-.5-.5-1-1-1-1 .5-1 .5-1h-12.5-12.5-13.5-13.5-5-5l-2.5 7-2.5 7-8.5-2-8.5-2-12 1-12 1-8.5-4-8.5-4-9.5 2-9.5 2-.5 8.5-.5 8.5 5.5 8 5.5 8 4.5 8.5 4.5 8.5 7 6.5 7 6.5 6.5 7 6.5 7 8.5 4.5 8.5 4.5 5.5 8 5.5 8 7 6.5 7 6.5 6.5-11.5 6.5-11.5v-1.5-1.5l.5-2 .5-2 .5-1.5.5-1.5.5-1 .5-1 .5-.5.5-.5 1-1 1-1 .5-1 .5-1v-1-1l.5-1.5.5-1.5 1-.5 1-.5v-1-1l.5-1.5.5-1.5v-2-2l.5-1.5.5-1.5 5.5-14 5.5-14 4.5-7.5 4.5-7.5 7-6 7-6" style="fill:#dfdace;stroke:#dfdace" />
        <g style="fill:#9a9588;stroke:#9a9588">
            <path d="m462 17l-1-1-1 1-1 1-.5.5-.5.5-1 1-1 1-1 .5-1 .5-.5.5-.5.5-1 1-1 1-.5 1.5-.5 1.5 1-1 1-1 1.5-1 1.5-1 1-1 1-1 1.5-1 1.5-1 1-1.5 1-1.5" />
            <path d="m449 31l1-3-1 1.5-1 1.5-1 1-1 1-1 1.5-1 1.5-.5 1.5-.5 1.5-.5 2-.5 2-.5 1.5-.5 1.5-1 1.5-1 1.5-.5 1.5-.5 1.5-.5 1.5-.5 1.5-1 1-1 1-.5 1-.5 1 3.5-5.5 3.5-5.5 4-8.5 4-8.5" />
        </g>
        <path d="m437 231l-7-32-5-7.5-5-7.5-6-6-6-6-6.5-6.5-6.5-6.5 4.5 8.5 4.5 8.5 4.5 8 4.5 8 3 13.5 3 13.5-9 2-9 2-3.5 10-3.5 10-3 10.5-3 10.5-2.5 10.5-2.5 10.5-2 11.5-2 11.5-3.5 10-3.5 10-8 5-8 5h-10.5-10.5l-6.5-6.5-6.5-6.5-1.5-12-1.5-12 1.5-12 1.5-12 1-12 1-12 2-11.5 2-11.5 1.5-12 1.5-12 1.5-12.5 1.5-12.5-1-.5-1-.5-.5-1.5-.5-1.5v-1.5-1.5l-3.5 10.5-3.5 10.5-3.5 10-3.5 10-4.5.5-4.5.5-1-12.5-1-12.5-7 6.5-7 6.5-5 8-5 8-3.5 10-3.5 10-4 9.5-4 9.5-3.5 9.5-3.5 9.5-4 9.5-4 9.5-3.5 10-3.5 10-3.5 9.5-3.5 9.5-1.5 11-1.5 11-3 13-3 13h3 3 2 2 2.5 2.5 2 2 2.5 2.5 2 2 2 2 2.5 2.5 2 2 2.5 2.5l-5-8-5-8-.5-11.5-.5-11.5 2.5-10 2.5-10 4-8 4-8 9.5-2.5 9.5-2.5 5.5-8 5.5-8 2.5 4 2.5 4 1 11 1 11 3 10 3 10 8.5 5 8.5 5 11 .5 11 .5 6.5-5.5 6.5-5.5 4.5-8 4.5-8 3-9 3-9 2-10 2-10 5.5-8 5.5-8 2.5-10 2.5-10 6.5-5.5 6.5-5.5 8.5-3 8.5-3" style="fill:#c33501;stroke:#c33501" />
        <path d="m437 120l-3-24-4.5 3.5-4.5 3.5-1 10.5-1 10.5.5 1 .5 1 1.5-.5 1.5-.5 2-.5 2-.5 1.5-.5 1.5-.5.5 1 .5 1 1-2.5 1-2.5" style="fill:#1f1307;stroke:#1f1307" />
        <path d="m422 143h1l-.5-1.5-.5-1.5v-2-2l-.5-2-.5-2-.5-1.5-.5-1.5-.5 1-.5 1v2 2 2 2 .5.5l.5 1 .5 1v2 2l1-1.5 1-1.5" style="fill:#903125;stroke:#903125" />
        <path d="m421 98l1-3-.5.5-.5.5-.5 1-.5 1v1 1l-1 1.5-1 1.5v1 1 3 3l-.5 1.5-.5 1.5v2.5 2.5l-.5 1.5-.5 1.5-.5 2-.5 2-.5 1-.5 1v2.5 2.5l1-1.5 1-1.5 1-2.5 1-2.5v-3.5-3.5l.5-1.5.5-1.5v-2-2-2.5-2.5l.5-1.5.5-1.5.5-2.5.5-2.5" style="fill:#9a9588;stroke:#9a9588" />
        <path d="m419 219l-6-27-4.5-8-4.5-8-4.5-8.5-4.5-8.5-1.5-2-1.5-2-1-.5-1-.5v1 1l.5 1.5.5 1.5.5 1 .5 1 .5 1.5.5 1.5.5 1.5.5 1.5v1 1l.5 1 .5 1 1 1 1 1v1 1l.5 1 .5 1 .5 1.5.5 1.5.5.5.5.5.5 1 .5 1v2 2l-.5 1.5-.5 1.5-3 10.5-3 10.5-2.5 10.5-2.5 10.5-2 11.5-2 11.5-2.5 10.5-2.5 10.5-2.5 11-2.5 11-3.5 10-3.5 10-9.5 1.5-9.5 1.5-7-6.5-7-6.5-1.5-12-1.5-12v-12-12l1-11.5 1-11.5 1-12.5 1-12.5.5-10.5.5-10.5 1-12.5 1-12.5-2-11-2-11-3.5 10-3.5 10-3.5 10-3.5 10-4.5 1.5-4.5 1.5-2.5-11-2.5-11-5.5 7-5.5 7-5.5-.5-5.5-.5-3 10.5-3 10.5-4 8.5-4 8.5-4-8.5-4-8.5-.5-1-.5-1-.5 2-.5 2v1.5 1.5l-.5.5-.5.5v1 1 1.5 1.5l-.5 1.5-.5 1.5v1 1l-.5 1-.5 1-.5 1.5-.5 1.5v1 1l-.5.5-.5.5v1 1l-1 .5-1 .5v-1-1l-.5-.5-.5-.5-.5 1-.5 1v2 2l-.5.5-.5.5v1 1 1 1 1 1 1.5 1.5 1 1 1 1l-.5.5-.5.5v1.5 1.5 1 1 1 1l-.5.5-.5.5v1.5 1.5 1 1l-.5.5-.5.5v1 1 2 2 1.5 1.5l-.5 1.5-.5 1.5-2 10.5-2 10.5-2.5 10-2.5 10-2.5 11-2.5 11-4.5 9-4.5 9-6.5-4.5-6.5-4.5-3.5-10-3.5-10v-13.5-13.5l-2.5-15-2.5-15v-1.5-1.5l.5-1 .5-1 .5-1.5.5-1.5-.5-.5-.5-.5-.5-1-.5-1v2 2l-.5.5-.5.5-.5 1-.5 1 .5 2.5.5 2.5-.5 1-.5 1-1.5 11-1.5 11-2.5 11-2.5 11-3 10.5-3 10.5 3 9 3 9-4.5-1-4.5-1-5-8.5-5-8.5-7.5-5.5-7.5-5.5-8-5.5-8-5.5-3 15.5-3 15.5.5 2 .5 2 1 2 1 2 .5-2 .5-2-1.5-11-1.5-11 6-4 6-4 5.5 8 5.5 8 4.5 9 4.5 9 1 10 1 10v2.5 2.5 1 1l-.5.5-.5.5v1 1l.5 1 .5 1v1.5 1.5h3 3 2 2 2 2 2.5 2.5 2 2 2.5 2.5 2 2 2.5 2.5.5.5l-3-9.5-3-9.5 2-8.5 2-8.5 5.5 18 5.5 18h2 2 2 2 2.5 2.5.5.5l3-13 3-13 1.5-11 1.5-11 3.5-9.5 3.5-9.5 3.5-10 3.5-10 4-9.5 4-9.5 3.5-9.5 3.5-9.5 4-9.5 4-9.5 3.5-10 3.5-10 5-8 5-8 7-6.5 7-6.5 1 12.5 1 12.5 4.5-.5 4.5-.5 3.5-10 3.5-10 3.5-10.5 3.5-10.5v-1.5-1.5-2-2l.5-1.5.5-1.5.5-2 .5-2 1.5-.5 1.5-.5.5 2 .5 2v2 2l-.5 1.5-.5 1.5v1.5 1.5 1 1l-.5 1-.5 1v1 1l-.5 1-.5 1-1.5 12.5-1.5 12.5-1.5 12-1.5 12-2 11.5-2 11.5-1 12-1 12-1.5 12-1.5 12 1.5 12 1.5 12 6.5 6.5 6.5 6.5h10.5 10.5l8-5 8-5 3.5-10 3.5-10 2-11.5 2-11.5 2.5-10.5 2.5-10.5 3-10.5 3-10.5 3.5-10 3.5-10 9-2 9-2" style="fill:#cc3e2b;stroke:#cc3e2b" />
        <path d="m419 152l1-2v-1.5-1.5h-.5-.5l-.5 1-.5 1h-1.5-1.5l-1.5-.5-1.5-.5-.5-.5-.5-.5-1-.5-1-.5-1.5-.5-1.5-.5-.5-.5-.5-.5-1-.5-1-.5-1.5-.5-1.5-.5 1.5 1 1.5 1 .5 1.5.5 1.5 1.5 1 1.5 1 1 1 1 1 1 1.5 1 1.5 1 1 1 1 1.5-.5 1.5-.5 1.5-1.5 1.5-1.5" style="fill:#c33501;stroke:#c33501" />
        <path d="m419 147h1v-.5-.5-2-2l-.5-1-.5-1h-.5-.5v1.5 1.5l-.5.5-.5.5-.5-.5-.5-.5h-1-1l-1 .5-1 .5-1.5-.5-1.5-.5-.5-.5-.5-.5-1-.5-1-.5-1.5-.5-1.5-.5-.5-.5-.5-.5-.5-.5-.5-.5-1.5-.5-1.5-.5.5 1.5.5 1.5.5 1 .5 1 1.5.5 1.5.5 1 .5 1 .5.5.5.5.5 1.5.5 1.5.5 1 .5 1 .5.5.5.5.5 1.5.5 1.5.5h1.5 1.5l.5-1 .5-1" style="fill:#cc3e2b;stroke:#cc3e2b" />
        <path d="m418 140h1v-.5-.5l-1-1-1-1-1 .5-1 .5-1 1-1 1-1.5-.5-1.5-.5-2-.5-2-.5-1.5-.5-1.5-.5-1.5-1-1.5-1-1-1-1-1-2-1-2-1v.5.5l1.5 1.5 1.5 1.5.5 1 .5 1 1.5.5 1.5.5.5.5.5.5.5.5.5.5 1.5.5 1.5.5 1 .5 1 .5.5.5.5.5 1.5.5 1.5.5 1-.5 1-.5h1 1l.5.5.5.5.5-.5.5-.5v-1.5-1.5" style="fill:#c95148;stroke:#c95148" />
        <path d="m417 131l1-3v-1.5-1.5l-1 2.5-1 2.5-1 1.5-1 1.5h-.5-.5l-1 1.5-1 1.5-1.5-.5-1.5-.5h-1-1l-.5-.5-.5-.5-.5-.5-.5-.5-1-.5-1-.5-.5-1.5-.5-1.5-.5-.5-.5-.5-1-.5-1-.5-1-1-1-1-.5-.5-.5-.5-.5-1-.5-1-2-1-2-1h-.5-.5l-1-.5-1-.5-.5-2-.5-2-1-1-1-1v1.5 1.5l.5 1 .5 1 .5 1 .5 1 .5 1.5.5 1.5.5.5.5.5 1 .5 1 .5 1 1 1 1v1 1l1-.5 1-.5v1.5 1.5l2 1 2 1 1 1 1 1 1.5 1 1.5 1 1.5.5 1.5.5 2 .5 2 .5 1.5.5 1.5.5 1-1 1-1 1-.5 1-.5v-3-3" style="fill:#ab7169;stroke:#ab7169" />
        <path d="m417 114l1-3v-3-3h-.5-.5v1.5 1.5l-.5 1-.5 1v1 1 1.5 1.5l-.5 1.5-.5 1.5v2.5 2.5l-.5 2.5-.5 2.5.5-1 .5-1 .5-2 .5-2 .5-1.5.5-1.5v-2.5-2.5" style="fill:#b5b0a4;stroke:#b5b0a4" />
        <path d="m417 105h1v-1-1-1.5-1.5l-6.5 11.5-6.5 11.5-7-6.5-7-6.5-5.5-8-5.5-8-8.5-4.5-8.5-4.5-6.5-7-6.5-7-7-6.5-7-6.5-4.5-8.5-4.5-8.5-5.5-8-5.5-8 .5-8.5.5-8.5 9.5-2 9.5-2 8.5 4 8.5 4 12-1 12-1 8.5 2 8.5 2 2.5-7 2.5-7h-.5-.5l-.5 2-.5 2-8.5.5-8.5.5-12 1.5-12 1.5-8.5-4-8.5-4h-2-2-2.5-2.5-2-2-2-2l-7.5 6-7.5 6 2.5 7.5 2.5 7.5 4.5 8 4.5 8 4.5 7.5 4.5 7.5 6.5 6 6.5 6 5.5 6.5 5.5 6.5 8.5 4 8.5 4 6.5 6.5 6.5 6.5 5 7 5 7 10 5 10 5 .5-2.5.5-2.5v-2.5-2.5l.5-1.5.5-1.5v-1.5-1.5-1-1l.5-1 .5-1v-1.5-1.5" style="fill:#d0cbb3;stroke:#d0cbb3" />
        <path d="m413 133h1v-2.5-2.5l-10-5-10-5-5-7-5-7-6.5-6.5-6.5-6.5-8.5-4-8.5-4-5.5-6.5-5.5-6.5-6.5-6-6.5-6-4.5-7.5-4.5-7.5-4.5-8-4.5-8-2.5-7.5-2.5-7.5 7.5-6 7.5-6h-1.5-1.5l-8 4.5-8 4.5-9.5 4-9.5 4-7 6.5-7 6.5-.5 8.5-.5 8.5 10 1.5 10 1.5h9.5 9.5l6 7 6 7 2 11.5 2 11.5 3.5-7.5 3.5-7.5 6 5.5 6 5.5 2 11.5 2 11.5 6.5 5.5 6.5 5.5 2 10.5 2 10.5 5.5 7 5.5 7-1-9-1-9-3-10.5-3-10.5 1-9.5 1-9.5 10.5 13 10.5 13 2 1 2 1 .5 1 .5 1 .5.5.5.5 1 1 1 1 1 .5 1 .5.5.5.5.5.5 1.5.5 1.5 1 .5 1 .5.5.5.5.5.5.5.5.5h1 1l1.5.5 1.5.5 1-1.5 1-1.5" style="fill:#b5b0a4;stroke:#b5b0a4" />
        <path d="m400 190l1-3v-2-2l-.5-1-.5-1-.5-.5-.5-.5-.5-1.5-.5-1.5-.5-1-.5-1v-1-1l-1-1-1-1-.5-1-.5-1v-1-1l-.5-1.5-.5-1.5-.5-1.5-.5-1.5-.5-1-.5-1-.5-1.5-.5-1.5-.5.5-.5.5-.5.5-.5.5.5 1 .5 1v2 2l.5 2 .5 2v2 2 1.5 1.5 2 2 2 2l-.5 2-.5 2v2 2 2.5 2.5 2 2 2.5 2.5l-.5 1.5-.5 1.5-.5 1-.5 1-2 11.5-2 11.5-2 11.5-2 11.5-2 11.5-2 11.5-4.5 8.5-4.5 8.5-7.5-5-7.5-5-1.5-9-1.5-9 .5-10.5.5-10.5-1.5-12-1.5-12-1.5-11-1.5-11v-12-12-19.5-19.5l-1.5-.5-1.5-.5-.5-1-.5-1v-1-1l-.5-.5-.5-.5-.5-.5-.5-.5-.5-1.5-.5-1.5-4 6.5-4 6.5-4.5 3-4.5 3-1 1-1 1-.5 1-.5 1-.5.5-.5.5v1 1l-.5.5-.5.5-.5 1-.5 1-.5.5-.5.5v1 1l-.5.5-.5.5v1 1l-1 .5-1 .5h-1-1l-.5-.5-.5-.5-.5-.5-.5-.5-.5-2-.5-2-.5 1-.5 1-1 1-1 1h-1-1v1.5 1.5h-2-2l-.5-.5-.5-.5-1-.5-1-.5-1-1.5-1-1.5h-.5-.5l-.5 1.5-.5 1.5-.5.5-.5.5-.5.5-.5.5-.5.5-.5.5-.5 1-.5 1-.5.5-.5.5-.5-.5-.5-.5-1.5-.5-1.5-.5-.5 2-.5 2-.5 2-.5 2-.5 1.5-.5 1.5-.5 1.5-.5 1.5-1 1.5-1 1.5-.5 1.5-.5 1.5-.5 1-.5 1-1-1-1-1-2-1.5-2-1.5v2 2l-.5.5-.5.5v1.5 1.5 1 1 1 1l-.5 1.5-.5 1.5 4 8.5 4 8.5 4-8.5 4-8.5 3-10.5 3-10.5 5.5.5 5.5.5 5.5-7 5.5-7 2.5 11 2.5 11 4.5-1.5 4.5-1.5 3.5-10 3.5-10 3.5-10 3.5-10 2 11 2 11-1 12.5-1 12.5-.5 10.5-.5 10.5-1 12.5-1 12.5-1 11.5-1 11.5v12 12l1.5 12 1.5 12 7 6.5 7 6.5 9.5-1.5 9.5-1.5 3.5-10 3.5-10 2.5-11 2.5-11 2.5-10.5 2.5-10.5 2-11.5 2-11.5 2.5-10.5 2.5-10.5 3-10.5 3-10.5" style="fill:#c95148;stroke:#c95148" />
        <path d="m398 140h1l-.5-1.5-.5-1.5-.5-1-.5-1-1.5-1.5-1.5-1.5h-.5-.5l-1.5-1-1.5-1-.5-.5-.5-.5-.5-1-.5-1-.5-1.5-.5-1.5-.5-.5-.5-.5-.5-1-.5-1-1.5-1.5-1.5-1.5-1.5-.5-1.5-.5-.5-.5-.5-.5-.5.5-.5.5-.5 1-.5 1v1 1 1 1l.5.5.5.5v1 1l.5 1 .5 1v1 1l.5 1.5.5 1.5.5 1 .5 1v1 1l.5.5.5.5.5 1 .5 1 .5 1.5.5 1.5.5.5.5.5.5 1 .5 1 1 1 1 1v1 1l1 .5 1 .5.5 1.5.5 1.5 1 .5 1 .5-.5-1-.5-1v-1-1l-.5-2-.5-2-1-1-1-1-.5-2-.5-2v-1-1l-1-1-1-1-1.5-1-1.5-1-.5-2-.5-2 .5-1.5.5-1.5 1-1 1-1 .5 1.5.5 1.5 1 1.5 1 1.5 1 .5 1 .5.5.5.5.5.5 1.5.5 1.5 1-.5 1-.5.5.5.5.5.5.5.5.5.5.5.5.5 1 .5 1 .5" style="fill:#903125;stroke:#903125" />
        <path d="m397 4l1-4h-1.5-1.5l-.5 1.5-.5 1.5-1 1.5-1 1.5h-1-1l-1 .5-1 .5-1-1-1-1-1.5-1-1.5-1-1.5-.5-1.5-.5v-1-1h-2.5-2.5-1-1l-.5 1-.5 1h-1.5-1.5l-2 .5-2 .5h-2-2l-2 .5-2 .5h-2-2l-2-.5-2-.5-1.5.5-1.5.5-1.5-1-1.5-1-.5-1-.5-1h-1.5-1.5l8.5 4 8.5 4 12-1.5 12-1.5 8.5-.5 8.5-.5" style="fill:#b5b0a4;stroke:#b5b0a4" />
        <path d="m394 3l1-3h-2-2-2.5-2.5-2-2-1-1v1 1l1.5.5 1.5.5 1.5 1 1.5 1 1 1 1 1 1-.5 1-.5h1 1l1-1.5 1-1.5" style="fill:#9a9588;stroke:#9a9588" />
        <path d="m393 132h1v-.5-.5-1.5-1.5l-1 .5-1 .5v-1-1l-1-1-1-1-1-.5-1-.5-.5-.5-.5-.5-.5-1.5-.5-1.5-.5-1-.5-1-.5-1-.5-1h-.5-.5l-.5 1-.5 1 1.5 1.5 1.5 1.5.5 1 .5 1 .5.5.5.5.5 1.5.5 1.5.5 1 .5 1 .5.5.5.5 1.5 1 1.5 1" style="fill:#9d554c;stroke:#9d554c" />
        <path d="m389 187l1-4v-2-2-2-2-1.5-1.5-2-2l-.5-2-.5-2v-2-2l-.5-1-.5-1-1-1.5-1-1.5-.5-2-.5-2-1-1-1-1-.5-2-.5-2-.5-1.5-.5-1.5-1-1.5-1-1.5-.5-1.5-.5-1.5-.5-2-.5-2-.5-1.5-.5-1.5v-1-1l-.5-.5-.5-.5-.5-1.5-.5-1.5-1-1-1-1 3 10 3 10 3 9 3 9-1.5 10-1.5 10v11 11l-2 10.5-2 10.5-3 9-3 9-4-2.5-4-2.5-2-10-2-10-2-10-2-10-.5-11.5-.5-11.5-.5-11-.5-11-2.5-9.5-2.5-9.5-4-10.5-4-10.5-1.5-1-1.5-1-.5-.5-.5-.5-.5-.5-.5-.5-.5-1-.5-1-.5 1-.5 1-.5 1-.5 1v1 1 1.5 1.5l-.5 1.5-.5 1.5-.5.5-.5.5v1 1l-.5.5-.5.5h-1.5-1.5l-.5-.5-.5-.5-.5-.5-.5-.5v-1-1l-.5-2-.5-2-1 1-1 1v1.5 1.5l-.5 1.5-.5 1.5-.5 1-.5 1 .5 1.5.5 1.5v1 1l-.5 1-.5 1v2 2l.5.5.5.5v1.5 1.5 2 2l-.5 1.5-.5 1.5v1.5 1.5l4.5-3 4.5-3 4-6.5 4-6.5 3.5 5 3.5 5v19.5 19.5 12 12l1.5 11 1.5 11 1.5 12 1.5 12-.5 10.5-.5 10.5 1.5 9 1.5 9 7.5 5 7.5 5 4.5-8.5 4.5-8.5 2-11.5 2-11.5 2-11.5 2-11.5 2-11.5 2-11.5v-2-2-2-2-2.5-2.5l.5-1.5.5-1.5.5-1.5.5-1.5v-2-2" style="fill:#ab7169;stroke:#ab7169" />
        <path d="m389 157l1-1v-1-1l-.5-1.5-.5-1.5-1-.5-1-.5v-1-1l-1-1-1-1-.5-1-.5-1-.5-.5-.5-.5-.5-1.5-.5-1.5-.5-1-.5-1-.5-.5-.5-.5v-1-1l-.5-1-.5-1-1-.5-1-.5.5 2 .5 2 .5 1.5.5 1.5 1 1.5 1 1.5.5 1.5.5 1.5.5 2 .5 2 1 1 1 1 .5 2 .5 2 1 1.5 1 1.5.5-.5.5-.5" style="fill:#9d554c;stroke:#9d554c" />
        <path d="m389 120h1l-10.5-13-10.5-13-1 9.5-1 9.5 3 10.5 3 10.5 1 9 1 9-5.5-7-5.5-7-2-10.5-2-10.5-6.5-5.5-6.5-5.5-2-11.5-2-11.5-6-5.5-6-5.5-3.5 7.5-3.5 7.5-2-11.5-2-11.5-6-7-6-7h-9.5-9.5l-10-1.5-10-1.5.5-8.5.5-8.5 7-6.5 7-6.5 9.5-4 9.5-4 8-4.5 8-4.5h-3-3l-.5 1-.5 1-9.5 3.5-9.5 3.5-8.5 3.5-8.5 3.5-13 8-13 8-.5.5-.5.5-6 7-6 7-9.5 4-9.5 4-7 6.5-7 6.5-7.5 10-7.5 10-.5 1-.5 1v2 2l-.5 2-.5 2v2 2l-1 1-1 1-1.5-1-1.5-1-5.5 7-5.5 7-9.5 4-9.5 4-2 8.5-2 8.5-.5 10.5-.5 10.5-5.5 8-5.5 8-5.5 8-5.5 8-4 9-4 9-2.5 10-2.5 10-4 9-4 9-3.5 8.5-3.5 8.5-4.5 8-4.5 8-7 6.5-7 6.5-2 8.5-2 8.5-5.5 16.5-5.5 16.5 5.5-7.5 5.5-7.5h10 10l8.5 3.5 8.5 3.5 6.5 6 6.5 6 4.5 17 4.5 17h1 1l-2-11.5-2-11.5-4.5-9-4.5-9-8.5-5-8.5-5-9-4-9-4-3.5-5-3.5-5 10 .5 10 .5 9.5-13 9.5-13 9.5 2.5 9.5 2.5 9 3.5 9 3.5 8-.5 8-.5-.5-.5-.5-.5.5-.5.5-.5.5-1 .5-1 .5-1.5.5-1.5.5-.5.5-.5.5-1 .5-1 .5-1.5.5-1.5v-1-1l.5-1 .5-1 .5 1.5.5 1.5 1-1.5 1-1.5 1-1.5 1-1.5 1-1 1-1v-2.5-2.5-2.5-2.5l.5-11.5.5-11.5 2-11.5 2-11.5 6.5 2 6.5 2-1 1-1 1v2 2l6 5.5 6 5.5 3 10.5 3 10.5 1.5 11.5 1.5 11.5 2 1.5 2 1.5 2.5 3 2.5 3 3-10 3-10 2-11.5 2-11.5 2-11.5 2-11.5 4.5-15.5 4.5-15.5 1.5-12 1.5-12 1.5-11 1.5-11v-13-13l4.5-2 4.5-2v16.5 16.5 3 3l4.5 2.5 4.5 2.5 2.5-13 2.5-13 .5-12.5.5-12.5 5-1.5 5-1.5 1 11 1 11v2.5 2.5 2 2l4.5 3 4.5 3 5.5-13 5.5-13v-12.5-12.5l.5-10.5.5-10.5 5 15 5 15v1.5 1.5l.5 2 .5 2v1 1l.5.5.5.5.5.5.5.5h1.5 1.5l.5-.5.5-.5v-1-1l.5-.5.5-.5.5-1.5.5-1.5v-1.5-1.5-1-1l.5-1 .5-1 .5-1 .5-1 .5-1.5.5-1.5 1-1 1-1-.5-.5-.5-.5v-1-1-1-1-1.5-1.5l.5-.5.5-.5.5.5.5.5v1 1l.5 1 .5 1v1 1 1 1 1 1 1.5 1.5l.5.5.5.5.5.5.5.5-.5 1.5-.5 1.5v.5.5l4 10.5 4 10.5 2.5 9.5 2.5 9.5.5 11 .5 11 .5 11.5.5 11.5 2 10 2 10 2 10 2 10 4 2.5 4 2.5 3-9 3-9 2-10.5 2-10.5v-11-11l1.5-10 1.5-10-3-9-3-9-3-10-3-10v-10.5-10.5l6 6.5 6 6.5 1 1 1 1 .5 2 .5 2 1 .5 1 .5" style="fill:#9a9588;stroke:#9a9588" />
        <path d="m388 208l1-3v-2.5-2.5-2-2-2.5-2.5l-.5 1.5-.5 1.5-.5 1.5-.5 1.5v2.5 2.5 2 2 2 2l.5-1 .5-1" style="fill:#9d554c;stroke:#9d554c" />
        <path d="m385 137l1-4-.5-2-.5-2-.5-1.5-.5-1.5-1 1-1 1-.5 1.5-.5 1.5.5 2 .5 2 1.5 1 1.5 1" style="fill:#671b05;stroke:#671b05" />
        <path d="m383 116h1v-1.5-1.5l-6-6.5-6-6.5v10.5 10.5l1 1 1 1v-1.5-1.5l-.5-2-.5-2v-2-2l-.5-1.5-.5-1.5v-2.5-2.5l1.5.5 1.5.5 1.5 1 1.5 1 .5 1.5.5 1.5 1 1.5 1 1.5 1 1.5 1 1.5" style="fill:#7a7467;stroke:#7a7467" />
        <path d="m382 118l1-2-1-1.5-1-1.5-1-1.5-1-1.5-.5-1.5-.5-1.5-1.5-1-1.5-1-1.5-.5-1.5-.5v2.5 2.5l.5 1.5.5 1.5v2 2l.5 2 .5 2v1.5 1.5l.5 1.5.5 1.5.5.5.5.5v1 1l.5 1.5.5 1.5 1 .5 1 .5-.5-1.5-.5-1.5v-1-1l-.5-1-.5-1v-1-1l-.5-.5-.5-.5v-1-1-1-1l.5-1 .5-1 .5-.5.5-.5.5.5.5.5 1.5.5 1.5.5" style="fill:#79584d;stroke:#79584d" />
        <path d="m372 2l1-2h-2.5-2.5-2.5-2.5-2-2-2.5-2.5-2-2-2.5-2.5-1.5-1.5l.5 1 .5 1 1.5 1 1.5 1 1.5-.5 1.5-.5 2 .5 2 .5h2 2l2-.5 2-.5h2 2l2-.5 2-.5h1.5 1.5" style="fill:#9a9588;stroke:#9a9588" />
        <path d="m343 138l-7-10 .5 1.5.5 1.5.5.5.5.5.5.5.5.5v1 1l.5 1 .5 1 1.5.5 1.5.5" style="fill:#9d554c;stroke:#9d554c" />
        <path d="m340 109l1-3-.5-.5-.5-.5-.5-.5-.5-.5v-1.5-1.5-1-1-1-1-1-1l-.5-1-.5-1v-1-1l-.5-.5-.5-.5-.5.5-.5.5v1.5 1.5 1 1 1 1l.5.5.5.5-1 1-1 1-.5 1.5-.5 1.5.5 1 .5 1 .5.5.5.5.5.5.5.5 1.5 1 1.5 1v-.5-.5" style="fill:#7a7467;stroke:#7a7467" />
        <path d="m336 170l1-3v-2-2l-.5-2-.5-2-1.5.5-1.5.5-.5 2-.5 2-.5 1.5-.5 1.5v2 2 1.5 1.5 1.5 1.5l.5 1.5.5 1.5 1 .5 1 .5.5-1 .5-1v-1-1l.5-1 .5-1v-1-1-1.5-1.5" style="fill:#903125;stroke:#903125" />
        <path d="m323 109l-10-30-.5 10.5-.5 10.5v12.5 12.5l1 1.5 1 1.5 1-1 1-1 .5-.5.5-.5.5-.5.5-.5.5-1 .5-1 .5-1 .5-1 .5-1.5.5-1.5v-1.5-1.5l1-1 1-1v-1.5-1.5" style="fill:#7a7467;stroke:#7a7467" />
        <path d="m319 144l1-3v-2-2-1.5-1.5l-.5-.5-.5-.5v-2-2l.5-1 .5-1v-1-1l-.5-1.5-.5-1.5-.5 1-.5 1-.5.5-.5.5-.5.5-.5.5-1 1-1 1-.5.5-.5.5-.5 2-.5 2-.5 1.5-.5 1.5-.5 2-.5 2-.5 1.5-.5 1.5-.5 2-.5 2-1 1-1 1-.5 2-.5 2-.5 2.5-.5 2.5.5 2 .5 2 .5.5.5.5.5.5.5.5h1 1l1-.5 1-.5v-1-1l.5-.5.5-.5v-1-1l.5-.5.5-.5.5-1 .5-1 .5-.5.5-.5v-1-1l.5-.5.5-.5.5-1 .5-1 1-1 1-1v-1.5-1.5" style="fill:#9d554c;stroke:#9d554c" />
        <path d="m313 129l1-1-1-1.5-1-1.5-5.5 13-5.5 13-4.5-3-4.5-3-1.5 1.5-1.5 1.5.5 1 .5 1v2 2 1 1 2 2l1 1.5 1 1.5 1 .5 1 .5.5.5.5.5h2 2v-1.5-1.5h1 1l1-1 1-1 .5-1 .5-1 .5-2.5.5-2.5.5-2 .5-2 1-1 1-1 .5-2 .5-2 .5-1.5.5-1.5.5-2 .5-2 .5-1.5.5-1.5.5-2 .5-2" style="fill:#ab7169;stroke:#ab7169" />
        <path d="m312 2l1-2h-2.5-2.5-2-2l-.5.5-.5.5-8.5 4-8.5 4-8.5 4-8.5 4-12.5 8-12.5 8v1 1l1-.5 1-.5 2-1 2-1 13-8 13-8 8.5-3.5 8.5-3.5 9.5-3.5 9.5-3.5" style="fill:#7a7467;stroke:#7a7467" />
        <path d="m306 126l-1-23-4.5 6-4.5 6 .5 12.5.5 12.5 2-1.5 2-1.5 2.5-5.5 2.5-5.5" style="fill:#b5b0a4;stroke:#b5b0a4" />
        <path d="m303 1l1-1h-2-2l-.5 1-.5 1-10 2.5-10 2.5-15 8.5-15 8.5h-.5-.5l-1 .5-1 .5-.5 1-.5 1-.5.5-.5.5-1 .5-1 .5-1 1-1 1-1 1.5-1 1.5-.5 1.5-.5 1.5-.5 1-.5 1 1.5-1 1.5-1 1-1.5 1-1.5 1.5-.5 1.5-.5 12.5-8 12.5-8 8.5-4 8.5-4 8.5-4 8.5-4" style="fill:#79584d;stroke:#79584d" />
        <path d="m299 2l1-2h-2.5-2.5-2.5-2.5-2-2-2.5-2.5-2-2-.5-.5v1 1l-7.5 5.5-7.5 5.5-8 5.5-8 5.5 1-.5 1-.5 1 .5 1 .5 15-8.5 15-8.5 10-2.5 10-2.5" style="fill:#544f42;stroke:#544f42" />
        <path d="m292 136l-2-22-5 1.5-5 1.5-.5 12.5-.5 12.5.5 2 .5 2v1.5 1.5l.5-.5.5-.5 1.5-11.5 1.5-11.5 2.5 6 2.5 6-.5 2-.5 2v2 2 1.5 1.5h.5.5l1.5-1.5 1.5-1.5v-2-2-2.5-2.5" style="fill:#7a7467;stroke:#7a7467" />
        <path d="m289 160h1v-2-2-1-1-2-2l-.5-1-.5-1h-.5-.5l-1.5 1-1.5 1-2-1-2-1-.5.5-.5.5v2.5 2.5 2 2l-.5.5-.5.5v1.5 1.5 1.5 1.5 1 1l1.5.5 1.5.5.5.5.5.5.5-.5.5-.5.5-1 .5-1 .5-.5.5-.5.5-.5.5-.5.5-.5.5-.5.5-1.5.5-1.5" style="fill:#9d554c;stroke:#9d554c" />
        <path d="m289 137l-5-12-1.5 11.5-1.5 11.5 2 1 2 1 1.5-1 1.5-1v-1.5-1.5-2-2l.5-2 .5-2" style="fill:#79584d;stroke:#79584d" />
        <path d="m283 40l1-3-.5-1.5-.5-1.5-1-1.5-1-1.5-1 1-1 1 .5 2 .5 2 1 1 1 1 .5.5.5.5" style="fill:#9a9588;stroke:#9a9588" />
        <path d="m279 165v-3-1.5-1.5l.5-.5.5-.5v-2-2-2.5-2.5-1.5-1.5l-.5-2-.5-2-2.5 13-2.5 13-4.5-2.5-4.5-2.5-.5 1.5-.5 1.5v.5.5 2 2l.5 1.5.5 1.5v2.5 2.5 1 1 1.5 1.5l2 1.5 2 1.5 1 1 1 1 .5-1 .5-1 .5-1.5.5-1.5 1-1.5 1-1.5.5-1.5.5-1.5.5-1.5.5-1.5.5-2 .5-2 .5-2 .5-2v-1-1" style="fill:#ab7169;stroke:#ab7169" />
        <path d="m276 2v-2h-13.5-13.5-13-13-13.5-13.5-13-13l-.5.5-.5.5-.5 11-.5 11-.5 11.5-.5 11.5h10 10l9.5-3 9.5-3 7.5-4.5 7.5-4.5 8.5-2 8.5-2 1.5-.5 1.5-.5 2-1 2-1 8-5.5 8-5.5 7.5-5.5 7.5-5.5" style="fill:#3b3327;stroke:#3b3327" />
        <path d="m275 119l-7-3 .5 13 .5 13 1.5 9.5 1.5 9.5 1.5-12 1.5-12v-9-9" style="fill:#b5b0a4;stroke:#b5b0a4" />
        <path d="m265 181v-2-2.5-2.5l-.5-1.5-.5-1.5v-2-2h-.5-.5v1.5 1.5l-.5 2-.5 2-.5 1.5-.5 1.5-.5 2-.5 2-.5 1.5-.5 1.5-1 1-1 1-1.5-.5-1.5-.5v2.5 2.5l-.5 1.5-.5 1.5v2.5 2.5l-.5 1.5-.5 1.5-.5 1.5-.5 1.5-.5 1-.5 1-.5.5-.5.5-.5 11.5-.5 11.5-2 9-2 9-1.5 15-1.5 15 1-1.5 1-1.5 1-1 1-1v-1-1l.5-1 .5-1 .5-1.5.5-1.5.5-1 .5-1v-2-2-1-1l.5-.5.5-.5v-1-1-1.5-1.5l.5-.5.5-.5v-1-1-1-1-1.5-1.5l.5-.5.5-.5v-1-1-1-1-1.5-1.5-1-1-1-1-1-1l.5-.5.5-.5v-2-2l.5-10 .5-10 4.5-4 4.5-4 .5 1 .5 1 .5-1.5.5-1.5v-1-1-1-1-1.5-1.5l.5-.5.5-.5v-2-2-1.5-1.5" style="fill:#9d554c;stroke:#9d554c" />
        <path d="m265 157v-33l-4.5 2-4.5 2v13 13l-1.5 11-1.5 11-1.5 12-1.5 12v3 3l.5-1 .5-1 .5-1.5.5-1.5.5-1.5.5-1.5v-2.5-2.5l.5-1.5.5-1.5v-2.5-2.5l2-11 2-11 3 1.5 3 1.5.5-1.5.5-1.5v-3-3" style="fill:#7a7467;stroke:#7a7467" />
        <path d="m263 167h1v-.5-.5l-3-1.5-3-1.5-2 11-2 11 1.5.5 1.5.5 1-1 1-1 .5-1.5.5-1.5.5-2 .5-2 .5-1.5.5-1.5.5-2 .5-2v-1.5-1.5" style="fill:#79584d;stroke:#79584d" />
        <path d="m261 201l1-4-4.5 4-4.5 4-.5 10-.5 10 .5-1 .5-1 .5.5.5.5v1 1l1-.5 1-.5v-1-1l.5-.5.5-.5v-1-1l.5-1.5.5-1.5.5-1 .5-1v-1-1l.5-1.5.5-1.5v-1.5-1.5-1-1l.5-.5.5-.5v-1.5-1.5" style="fill:#903125;stroke:#903125" />
        <path d="m251 152v-24l-5-8.5-5-8.5-1.5 10.5-1.5 10.5 4.5 9 4.5 9-1.5 11-1.5 11-3 10-3 10v8.5 8.5l5-8.5 5-8.5 1.5-11.5 1.5-11.5v-8.5-8.5" style="fill:#b5b0a4;stroke:#b5b0a4" />
        <g style="fill:#ab7169;stroke:#ab7169">
            <path d="m249 207l1-1v-3-3l-4.5 15.5-4.5 15.5-2 11.5-2 11.5-2 11.5-2 11.5-3 10-3 10-2.5-3-2.5-3-2-1.5-2-1.5-1.5-11.5-1.5-11.5-3-10.5-3-10.5-6-5.5-6-5.5-1 .5-1 .5-.5 1-.5 1-.5 1.5-.5 1.5 2 .5 2 .5 1 1 1 1 1.5 1 1.5 1 1 1 1 1 1 1.5 1 1.5.5 1.5.5 1.5v2 2l1 11.5 1 11.5v12.5 12.5l1.5 11.5 1.5 11.5 5 5.5 5 5.5 4.5-9 4.5-9 2.5-10.5 2.5-10.5 2.5-10.5 2.5-10.5 1.5-15 1.5-15 2-9 2-9 .5-11.5.5-11.5" />
            <path d="m249 33l1-1-2 1-2 1-1 .5-1 .5-.5.5-.5.5-7 5.5-7 5.5-8 4-8 4-12.5 4-12.5 4-.5.5-.5.5-8.5 4-8.5 4-9 3-9 3-6.5 4-6.5 4-8 5-8 5-7 1-7 1-4 5.5-4 5.5-5 7-5 7-7 5.5-7 5.5-4.5 7.5-4.5 7.5 2 10.5 2 10.5 6.5 5.5 6.5 5.5 6.5 6 6.5 6 3.5 8.5 3.5 8.5-.5 10-.5 10-4 9-4 9-4 8-4 8-5 7.5-5 7.5-6.5 5.5-6.5 5.5-3 9.5-3 9.5-4 8-4 8-2 6.5-2 6.5 4-.5 4-.5 1.5 11 1.5 11 2.5 12 2.5 12v.5.5h2 2v-.5-.5l-1-1-1-1v-2-2l-1-1.5-1-1.5v-2-2l-.5-2-.5-2-.5-1.5-.5-1.5-.5-2-.5-2v-2-2l-.5-1.5-.5-1.5v-3-3l5.5-16.5 5.5-16.5 2-8.5 2-8.5 7-6.5 7-6.5 4.5-8 4.5-8 3.5-8.5 3.5-8.5 4-9 4-9 2.5-10 2.5-10 4-9 4-9 5.5-8 5.5-8 5.5-8 5.5-8 .5-10.5.5-10.5 2-8.5 2-8.5 9.5-4 9.5-4 5.5-7 5.5-7 .5-2 .5-2 .5-.5.5-.5.5-.5.5-.5v-1-1-1.5-1.5l.5-.5.5-.5.5-.5.5-.5 1-.5 1-.5 7.5-10 7.5-10 7-6.5 7-6.5 9.5-4 9.5-4 6-7 6-7" />
        </g>
        <path d="m248 24h1l-1-.5-1-.5-1 .5-1 .5-2 1-2 1-1.5.5-1.5.5-.5.5-.5.5-6.5 6-6.5 6-8.5 3.5-8.5 3.5-9 3.5-9 3.5-10 3-10 3-9 3-9 3-8.5 4-8.5 4-8 4-8 4-8.5 4-8.5 4-6.5 5.5-6.5 5.5-6.5 6-6.5 6-5.5 6.5-5.5 6.5-6 6.5-6 6.5-6 6-6 6-1 11.5-1 11.5-2.5 10.5-2.5 10.5-2 10-2 10-.5 11-.5 11 1 11 1 11 .5 12 .5 12 1.5 10.5 1.5 10.5 2.5 10 2.5 10-.5 10.5-.5 10.5-4 13.5-4 13.5v1.5 1.5l-.5 1-.5 1 .5.5.5.5-1 .5-1 .5 1 1 1 1v1.5 1.5h.5.5v-1.5-1.5-1.5-1.5l.5-2 .5-2 1-1 1-1 1-1.5 1-1.5.5-1.5.5-1.5-.5-2-.5-2 .5-1.5.5-1.5.5-1.5.5-1.5.5-2 .5-2 .5-2 .5-2 .5-1.5.5-1.5.5-1.5.5-1.5.5-2 .5-2 .5-1.5.5-1.5v-2-2-2.5-2.5l-.5-2.5-.5-2.5-1.5-10-1.5-10-2-11-2-11-1-12-1-12-1-11-1-11 2-10.5 2-10.5 2-11.5 2-11.5 3.5-20 3.5-20 .5-.5.5-.5 1-.5 1-.5 1-1 1-1 1-1 1-1 1-1.5 1-1.5 1-1 1-1 1-1.5 1-1.5 1.5-1 1.5-1 1.5-.5 1.5-.5.5-1 .5-1v-1-1l.5-.5.5-.5.5-.5.5-.5.5-.5.5-.5 1-.5 1-.5.5-.5.5-.5.5-.5.5-.5 1-1 1-1 1-1 1-1 1-1 1-1 1-1.5 1-1.5 1-1 1-1 1.5-1 1.5-1 1.5-1 1.5-1 .5-1 .5-1 .5-1.5.5-1.5.5-.5.5-.5 1-.5 1-.5 1-1 1-1 .5-.5.5-.5 1-.5 1-.5 1.5-1 1.5-1 8.5-4 8.5-4 9-3.5 9-3.5 1-1 1-1 1-1 1-1 1.5-1 1.5-1 1-1 1-1 3-.5 3-.5h2.5 2.5l.5-.5.5-.5h2 2l8.5-3.5 8.5-3.5 9.5-3.5 9.5-3.5 9.5-2.5 9.5-2.5 9-5.5 9-5.5.5-1 .5-1 .5-1.5.5-1.5 1-1.5 1-1.5 1-1 1-1 1-.5 1-.5.5-.5.5-.5.5-1 .5-1 1-.5 1-.5" style="fill:#903125;stroke:#903125" />
        <path d="m247 270l1-3v-1.5-1.5l-.5 1-.5 1-.5 1.5-.5 1.5-.5 1-.5 1v1 1l-1 1-1 1-1 1.5-1 1.5-2.5 10.5-2.5 10.5-2.5 10.5-2.5 10.5-4.5 9-4.5 9-5-5.5-5-5.5-1.5-11.5-1.5-11.5v-12.5-12.5l-1-11.5-1-11.5h-.5-.5l-1 2-1 2-1.5.5-1.5.5-1 2-1 2 2.5 15 2.5 15v13.5 13.5l3.5 10 3.5 10 6.5 4.5 6.5 4.5 4.5-9 4.5-9 2.5-11 2.5-11 2.5-10 2.5-10 2-10.5 2-10.5" style="fill:#c95148;stroke:#c95148" />
        <path d="m243 36l1-1v-1-1l-1.5.5-1.5.5-1 1.5-1 1.5-1.5 1-1.5 1-9 5.5-9 5.5-9.5 2.5-9.5 2.5-9.5 3.5-9.5 3.5-8.5 3.5-8.5 3.5h2.5 2.5 1 1 1.5 1.5l1.5-.5 1.5-.5.5-.5.5-.5 1-.5 1-.5 1.5-.5 1.5-.5.5-.5.5-.5 1-.5 1-.5h1.5 1.5l12.5-4 12.5-4 8-4 8-4 7-5.5 7-5.5" style="fill:#9d554c;stroke:#9d554c" />
        <path d="m237 28l1-1-8.5 2-8.5 2-7.5 4.5-7.5 4.5-9.5 3-9.5 3h-10-10l-7.5 5-7.5 5-9 4-9 4-8.5 5-8.5 5-8.5 4.5-8.5 4.5-8 5.5-8 5.5-6.5 7-6.5 7-6 7-6 7-6.5 7-6.5 7-5.5 7.5-5.5 7.5-2 11.5-2 11.5-2 11.5-2 11.5-3.5 9.5-3.5 9.5 1 11.5 1 11.5.5 13 .5 13 2 11 2 11 1.5 12 1.5 12 .5 11 .5 11-2 10-2 10-6 15.5-6 15.5h2.5 2.5 2 2 1 1v-1.5-1.5l.5-1.5.5-1.5v-1-1l.5-.5.5-.5v-1-1l1-.5 1-.5 4-13.5 4-13.5.5-10.5.5-10.5-2.5-10-2.5-10-1.5-10.5-1.5-10.5-.5-12-.5-12-1-11-1-11 .5-11 .5-11 2-10 2-10 2.5-10.5 2.5-10.5 1-11.5 1-11.5 6-6 6-6 6-6.5 6-6.5 5.5-6.5 5.5-6.5 6.5-6 6.5-6 6.5-5.5 6.5-5.5 8.5-4 8.5-4 8-4 8-4 8.5-4 8.5-4 9-3 9-3 10-3 10-3 9-3.5 9-3.5 8.5-3.5 8.5-3.5 6.5-6 6.5-6" style="fill:#671b05;stroke:#671b05" />
        <path d="m214 384h1l-5.5-18-5.5-18-2 8.5-2 8.5 3 9.5 3 9.5h2 2 2 2" style="fill:#c33501;stroke:#c33501" />
        <path d="m206 256h1v-2-2l-.5-1.5-.5-1.5-1-1.5-1-1.5-1-1-1-1-1.5-1-1.5-1-1-1-1-1-2-.5-2-.5-1 .5-1 .5v1.5 1.5l-.5 1.5-.5 1.5v1.5 1.5l.5 1 .5 1-.5 2-.5 2-.5 1.5-.5 1.5-.5 2-.5 2-.5 1.5-.5 1.5v2 2l.5 2 .5 2-.5 1.5-.5 1.5.5 2 .5 2-.5 1.5-.5 1.5-.5 2.5-.5 2.5 1-.5 1-.5v-1.5-1.5l.5-.5.5-.5.5-1 .5-1 .5-1.5.5-1.5.5-.5.5-.5v-1.5-1.5l.5-1.5.5-1.5 1-1.5 1-1.5 1.5-1 1.5-1-.5-2.5-.5-2.5.5-1 .5-1 .5-.5.5-.5v-2-2l.5 1 .5 1 .5.5.5.5-.5 1.5-.5 1.5-.5 1-.5 1v1.5 1.5l1-2 1-2 1.5-.5 1.5-.5 1-2 1-2" style="fill:#9d554c;stroke:#9d554c" />
        <path d="m199 227l-13-4-2 11.5-2 11.5-.5 11.5-.5 11.5.5-1.5.5-1.5.5-1.5.5-1.5.5-1.5.5-1.5.5-.5.5-.5v-1.5-1.5l.5-1.5.5-1.5.5-.5.5-.5.5-1 .5-1 1-2 1-2 .5-1.5.5-1.5v-1.5-1.5l1-.5 1-.5.5-1.5.5-1.5.5-1 .5-1 1-.5 1-.5v-2-2l1-1 1-1" style="fill:#7a7467;stroke:#7a7467" />
        <path d="m197 268l1-2-1.5 1-1.5 1-1 1.5-1 1.5-.5 1.5-.5 1.5v1.5 1.5l-.5.5-.5.5-.5 1.5-.5 1.5-.5 1-.5 1-.5.5-.5.5v1.5 1.5l-1 .5-1 .5v1.5 1.5l-.5 1.5-.5 1.5-.5 2-.5 2-.5 2-.5 2v1.5 1.5l-.5.5-.5.5-.5 1-.5 1-1 .5-1 .5-4.5 6-4.5 6-7.5-4-7.5-4-12.5-5.5-12.5-5.5-.5 1-.5 1h-1.5-1.5l-.5-.5-.5-.5h-1-1l-.5 1-.5 1-1 1-1 1 .5 2 .5 2 .5.5.5.5v1 1 1 1l.5 1 .5 1 .5.5.5.5v1 1l.5.5.5.5v1 1 1 1l.5 1 .5 1 .5.5.5.5v1 1l.5.5.5.5.5 1 .5 1v2 2l2 1.5 2 1.5 3-15.5 3-15.5 8 5.5 8 5.5 7.5 5.5 7.5 5.5 5 8.5 5 8.5 4.5 1 4.5 1-3-9-3-9 3-10.5 3-10.5 2.5-11 2.5-11 1.5-11 1.5-11" style="fill:#c95148;stroke:#c95148" />
        <path d="m197 168l-10-14 1.5 9 1.5 9 3.5-2 3.5-2" style="fill:#b5b0a4;stroke:#b5b0a4" />
        <path d="m190 255l1-4-.5-1-.5-1v-1.5-1.5l-1 2-1 2-.5 1-.5 1-.5.5-.5.5-.5 1.5-.5 1.5v1.5 1.5l-.5.5-.5.5-.5 1.5-.5 1.5-.5 1.5-.5 1.5-.5 1.5-.5 1.5v2.5 2.5 2.5 2.5l-1 1-1 1-1 1.5-1 1.5-1 1.5-1 1.5-.5 1.5-.5 1.5v2 2l-1 1-1 1-1 1.5-1 1.5-1 1-1 1-8 .5-8 .5-9-3.5-9-3.5-9.5-2.5-9.5-2.5-2.5 9.5-2.5 9.5 7.5 13.5 7.5 13.5 1-.5 1-.5 1 1.5 1 1.5v-2-2l-.5-1-.5-1-.5-.5-.5-.5v-1-1l-.5-.5-.5-.5-.5-1-.5-1v-1-1-1-1l-.5-.5-.5-.5v-1-1l-.5-.5-.5-.5-.5-1-.5-1v-1-1-1-1l-.5-.5-.5-.5-.5-2-.5-2v-2.5-2.5l1.5-.5 1.5-.5h1.5 1.5l2 .5 2 .5 12.5 5.5 12.5 5.5 7.5 4 7.5 4 4.5-6 4.5-6v-1.5-1.5l-.5-1-.5-1 .5-2 .5-2h1 1 .5.5l1-1 1-1 .5-2 .5-2 .5-1.5.5-1.5v-1.5-1.5l.5-2.5.5-2.5.5-1.5.5-1.5-.5-2-.5-2 .5-1.5.5-1.5-.5-2-.5-2v-2-2l.5-1.5.5-1.5.5-2 .5-2 .5-1.5.5-1.5" style="fill:#ab7169;stroke:#ab7169" />
        <path d="m188 90l1-2-1 .5-1 .5-.5.5-.5.5-.5.5-.5.5v1.5 1.5 1 1l-.5.5-.5.5-.5.5-.5.5-.5 2-.5 2 1.5 1 1.5 1 1-1 1-1v-2-2l.5-2 .5-2v-2-2" style="fill:#7a7467;stroke:#7a7467" />
        <path d="m187 64l1-1h-1.5-1.5l-1 .5-1 .5-.5.5-.5.5-1.5.5-1.5.5-1 .5-1 .5-.5.5-.5.5-1.5.5-1.5.5h-1.5-1.5-1-1-2.5-2.5-2-2l-.5.5-.5.5h-2.5-2.5l-.5.5-.5.5-1 1-1 1-1 .5-1 .5-.5.5-.5.5-.5.5-.5.5-.5.5-.5.5-1 .5-1 .5-2.5.5-2.5.5-9 3.5-9 3.5-8.5 4-8.5 4-.5 1-.5 1-.5 1-.5 1-1 1-1 1-1.5.5-1.5.5-1 1-1 1-1.5 1-1.5 1-.5 1-.5 1-.5 1-.5 1-1 1-1 1v1 1l-.5.5-.5.5-.5.5-.5.5h-1-1l-.5 1-.5 1-.5.5-.5.5-.5.5-.5.5h-1-1l-1 .5-1 .5-1 1-1 1-.5.5-.5.5-.5.5-.5.5-1 .5-1 .5-.5.5-.5.5-.5.5-.5.5-.5.5-.5.5v1 1l-.5 1-.5 1-1.5.5-1.5.5-.5 1-.5 1-.5 1-.5 1-.5 1.5-.5 1.5-1 1.5-1 1.5-1 1-1 1-1.5 1-1.5 1-2.5.5-2.5.5-.5.5-.5.5.5 9.5.5 9.5 2.5 3.5 2.5 3.5 4.5 6 4.5 6 7.5 4.5 7.5 4.5 6 4.5 6 4.5 4 12.5 4 12.5-3.5 9-3.5 9-6 7-6 7-8.5 2-8.5 2-3 10-3 10-2 9-2 9-4 8.5-4 8.5.5 2.5.5 2.5v2.5 2.5 2 2l-.5 1.5-.5 1.5-.5 2-.5 2-.5 1.5-.5 1.5-.5 1.5-.5 1.5 1.5.5 1.5.5h1.5 1.5l1-1 1-1 2-1 2-1h.5.5v-2-2l1-2 1-2-4 .5-4 .5 2-6.5 2-6.5 4-8 4-8 3-9.5 3-9.5 6.5-5.5 6.5-5.5 5-7.5 5-7.5 4-8 4-8 4-9 4-9 .5-10 .5-10-3.5-8.5-3.5-8.5-6.5-6-6.5-6-6.5-5.5-6.5-5.5-2-10.5-2-10.5 4.5-7.5 4.5-7.5 7-5.5 7-5.5 5-7 5-7 4-5.5 4-5.5 7-1 7-1 8-5 8-5 6.5-4 6.5-4 9-3 9-3 8.5-4 8.5-4" style="fill:#c95148;stroke:#c95148" />
        <path d="m183 302l1-4-1 1-1 1h-.5-.5-1-1l-.5 2-.5 2 .5 1 .5 1v1.5 1.5l1-.5 1-.5.5-1 .5-1 .5-.5.5-.5v-1.5-1.5" style="fill:#9d554c;stroke:#9d554c" />
        <path d="m174 290l1-3-.5-1.5-.5-1.5-.5 1-.5 1v1 1l-.5 1.5-.5 1.5-.5 1-.5 1-.5.5-.5.5-.5 1.5-.5 1.5-.5 1-.5 1-.5.5-.5.5.5.5.5.5 1-1 1-1 1-1.5 1-1.5 1-1 1-1v-2-2" style="fill:#7a7467;stroke:#7a7467" />
        <path d="m169 1l1-1h-14.5-14.5-13-13-13.5-13.5-13.5-13.5-13-13-13.5-13.5-4-4v9 9 13.5 13.5 13.5 13.5 13 13 3.5 3.5l11-.5 11-.5 10 3.5 10 3.5-5.5 7-5.5 7-15.5 3.5-15.5 3.5v13.5 13.5 13.5 13.5 13.5 13.5 13 13 13.5 13.5 13.5 13.5 13 13 13.5 13.5 13.5 13.5 5.5 5.5h7.5 7.5l6-15.5 6-15.5 2-10 2-10-.5-11-.5-11-1.5-12-1.5-12-2-11-2-11-.5-13-.5-13-1-11.5-1-11.5 3.5-9.5 3.5-9.5 2-11.5 2-11.5 2-11.5 2-11.5 5.5-7.5 5.5-7.5 6.5-7 6.5-7 6-7 6-7 6.5-7 6.5-7 8-5.5 8-5.5 8.5-4.5 8.5-4.5 8.5-5 8.5-5 9-4 9-4 7.5-5 7.5-5 .5-11.5.5-11.5.5-11 .5-11" style="fill:#1f1307;stroke:#1f1307" />
        <path d="m168 369l-2-20-4.5-9-4.5-9-5.5-8-5.5-8-6 4-6 4 1.5 11 1.5 11v1.5 1.5l1 1.5 1 1.5.5 1.5.5 1.5v2 2l.5.5.5.5-.5 1-.5 1 .5 1.5.5 1.5.5 2 .5 2v2 2 2.5 2.5l.5 1.5.5 1.5-.5 1.5-.5 1.5v.5.5h2.5 2.5 2 2 2.5 2.5 2 2 2.5 2.5 1.5 1.5v-1.5-1.5l-.5-1-.5-1v-1-1l.5-.5.5-.5v-1-1-2.5-2.5" style="fill:#c33501;stroke:#c33501" />
        <path d="m152 71l1-1-3 .5-3 .5-1 1-1 1-1.5 1-1.5 1-1 1-1 1-1 1-1 1 2.5-.5 2.5-.5 1-.5 1-.5.5-.5.5-.5.5-.5.5-.5.5-.5.5-.5 1-.5 1-.5 1-1 1-1" style="fill:#9d554c;stroke:#9d554c" />
        <path d="m142 383l1-3-.5-1.5-.5-1.5v-2.5-2.5-2-2l-.5-2-.5-2-.5-1.5-.5-1.5.5-1 .5-1-.5-.5-.5-.5v-2-2l-.5-1.5-.5-1.5-1-1.5-1-1.5v2 2 2.5 2.5l.5 1.5.5 1.5v2.5 2.5l.5 1.5.5 1.5v2.5 2.5l.5 1.5.5 1.5v2 2 2 2h1 1v-.5-.5" style="fill:#9a2c00;stroke:#9a2c00" />
        <path d="m139 384h1v-2-2-2-2l-.5-1.5-.5-1.5v-2.5-2.5l-.5-1.5-.5-1.5v-2.5-2.5l-.5-1.5-.5-1.5v-2.5-2.5-2-2-1.5-1.5l-.5 2-.5 2-1-2-1-2v1.5 1.5 2.5 2.5 2 2 2.5 2.5l-.5 1.5-.5 1.5v2 2l.5 2 .5 2 .5 1.5.5 1.5v2.5 2.5 1.5 1.5h2 2" style="fill:#903125;stroke:#903125" />
        <path d="m134 384h1v-1.5-1.5-2.5-2.5l-.5-1.5-.5-1.5-.5-2-.5-2v-2-2l-.5-1.5-.5-1.5-1-.5-1-.5v2 2 1 1 1.5 1.5 2 2l.5.5.5.5v1.5 1.5l.5 1.5.5 1.5v1.5 1.5h1 1" style="fill:#79584d;stroke:#79584d" />
        <path d="m133 365l1-3v-2.5-2.5-2-2-2.5-2.5-1.5-1.5l-.5-2-.5-2-2-1.5-2-1.5-1-1.5-1-1.5-1 .5-1 .5.5 1 .5 1 .5 1.5.5 1.5v.5.5l.5 1.5.5 1.5.5 2 .5 2 .5 1.5.5 1.5v2 2 2.5 2.5l1 .5 1 .5.5 1.5.5 1.5" style="fill:#9d554c;stroke:#9d554c" />
        <path d="m131 384h1v-1.5-1.5l-.5-1.5-.5-1.5v-1.5-1.5l-.5-.5-.5-.5v-2-2-1.5-1.5-1-1-2-2-2.5-2.5-2-2l-.5-1.5-.5-1.5-.5-2-.5-2-.5-1.5-.5-1.5v-.5-.5l-.5-1.5-.5-1.5-.5-1-.5-1-7.5-13.5-7.5-13.5 2.5-9.5 2.5-9.5-9.5 13-9.5 13-10-.5-10-.5 3.5 5 3.5 5 9 4 9 4 8.5 5 8.5 5 4.5 9 4.5 9 2 11.5 2 11.5" style="fill:#7a7467;stroke:#7a7467" />
        <path d="m129 304l1-2-2-.5-2-.5h-1.5-1.5l-1.5.5-1.5.5v2.5 2.5l1-1 1-1 .5-1 .5-1h1 1l.5.5.5.5h1.5 1.5" style="fill:#9d554c;stroke:#9d554c" />
        <path d="m128 384h1l-4.5-17-4.5-17-6.5-6-6.5-6-8.5-3.5-8.5-3.5h-10-10l-5.5 7.5-5.5 7.5v3 3l.5 1.5.5 1.5v2 2l.5 2 .5 2 .5 1.5.5 1.5.5 2 .5 2v2 2l1 1.5 1 1.5v2 2l1 1 1 1-2.5-9.5-2.5-9.5 1-11.5 1-11.5 7.5-5.5 7.5-5.5 9 3 9 3 8 4.5 8 4.5 4 9.5 4 9.5 2.5 10 2.5 10h1 1" style="fill:#b5b0a4;stroke:#b5b0a4" />
        <path d="m125 384h1l-2.5-10-2.5-10-4-9.5-4-9.5-8-4.5-8-4.5-9-3-9-3-7.5 5.5-7.5 5.5-1 11.5-1 11.5 2.5 9.5 2.5 9.5v.5.5h1.5 1.5l-3-10-3-10 1-10 1-10 6-5.5 6-5.5 9.5 2.5 9.5 2.5 7.5 5 7.5 5 2.5 9.5 2.5 9.5-.5 1-.5 1-1 .5-1 .5-.5-.5-.5-.5-.5-1-.5-1-1-1-1-1h-1.5-1.5v2 2l.5 2 .5 2 1 1 1 1 1 1.5 1 1.5v2 2l.5 1 .5 1h3 3 2 2 1 1" style="fill:#d0cbb3;stroke:#d0cbb3" />
        <path d="m117 367l-5-19-7.5-5-7.5-5-9.5-2.5-9.5-2.5-6 5.5-6 5.5-1 10-1 10 3 10 3 10h2.5 2.5 2 2 2.5 2.5 2 2 2.5 2.5 2 2 2.5 2.5 2 2 2 2 1.5 1.5l-.5-1-.5-1v-2-2l-1-1.5-1-1.5-1-1-1-1-.5-2-.5-2v-2-2h1.5 1.5l1 1 1 1 .5 1 .5 1 .5.5.5.5 1-.5 1-.5.5-1 .5-1" style="fill:#dfdace;stroke:#dfdace" />
        <path d="m106 132l1-3h-2-2l-1.5 1-1.5 1-1.5.5-1.5.5-1 1.5-1 1.5h-.5-.5l-1 .5-1 .5.5 1 .5 1 .5.5.5.5 1.5.5 1.5.5 1.5-.5 1.5-.5 2-.5 2-.5.5-1.5.5-1.5.5-1.5.5-1.5" style="fill:#7a7467;stroke:#7a7467" />
        <path d="m102 96l1-2-1.5 1-1.5 1-1 .5-1 .5-.5.5-.5.5-1 1-1 1-1 .5-1 .5-.5.5-.5.5-.5 1.5-.5 1.5 1.5-1 1.5-1 1-1 1-1 1.5-.5 1.5-.5 1-1 1-1 .5-1 .5-1" style="fill:#9d554c;stroke:#9d554c" />
        <path d="m97 230l-8-25-6-4.5-6-4.5-7.5-4.5-7.5-4.5-4.5-6-4.5-6-2.5-3.5-2.5-3.5-.5-9.5-.5-9.5-3.5 20-3.5 20-2 11.5-2 11.5-2 10.5-2 10.5 1 11 1 11 1 12 1 12 2 11 2 11 1.5 10 1.5 10 4-8.5 4-8.5 2-9 2-9 3-10 3-10 8.5-2 8.5-2 6-7 6-7 3.5-9 3.5-9" style="fill:#cc3e2b;stroke:#cc3e2b" />
        <path d="m96 141l1-1-1.5-.5-1.5-.5-.5-.5-.5-.5-.5-1-.5-1 1-.5 1-.5h-1.5-1.5l-1.5 1-1.5 1 .5 1.5.5 1.5.5 2 .5 2 1 1 1 1h1 1l1-1.5 1-1.5v-1-1" style="fill:#9a9588;stroke:#9a9588" />
        <path d="m89 109l1-2-1.5 1-1.5 1-1.5 1-1.5 1-1 1-1 1-1 1.5-1 1.5-1 1-1 1-1 1-1 1 1-.5 1-.5h1 1l.5-.5.5-.5.5-.5.5-.5.5-1 .5-1h1 1l.5-.5.5-.5.5-.5.5-.5v-1-1l1-1 1-1" style="fill:#cc3e2b;stroke:#cc3e2b" />
        <path d="m63 383l-5-24-1.5-11-1.5-11-1 2-1 2v2 2l.5 1 .5 1v1 1l.5.5.5.5v1.5 1.5l.5 1.5.5 1.5v1 1 1 1l.5.5.5.5.5 1 .5 1v1 1 1 1l.5.5.5.5v1.5 1.5 1 1l.5.5.5.5v1 1l.5 1 .5 1v1 1l.5.5.5.5v1.5 1.5h.5.5v-.5-.5" style="fill:#9d554c;stroke:#9d554c" />
        <path d="m62 135l1-2-1.5 1-1.5 1-1 1.5-1 1.5-1 1-1 1-1 1.5-1 1.5-1 1-1 1-1 1-1 1-1 .5-1 .5 2.5-.5 2.5-.5 1.5-1 1.5-1 1-1 1-1 1-1.5 1-1.5.5-1.5.5-1.5.5-1 .5-1" style="fill:#cc3e2b;stroke:#cc3e2b" />
        <path d="m61 384h1v-1.5-1.5l-.5-.5-.5-.5v-1-1l-.5-1-.5-1v-1-1l-.5-.5-.5-.5v-1-1-1.5-1.5l-.5-.5-.5-.5v-1-1-1-1l-.5-1-.5-1-.5-.5-.5-.5v-1-1-1-1l-.5-1.5-.5-1.5v-1.5-1.5l-.5-.5-.5-.5v-1-1l-.5-1-.5-1h-.5-.5l-.5 1-.5 1-.5 1.5-.5 1.5 1 1.5 1 1.5.5 1.5.5 1.5.5 2 .5 2 .5 1.5.5 1.5v2 2l1 1.5 1 1.5.5 1.5.5 1.5.5 2 .5 2v2 2l.5 1.5.5 1.5h.5.5" style="fill:#903125;stroke:#903125" />
        <path d="m59 384h1l-.5-1.5-.5-1.5v-2-2l-.5-2-.5-2-.5-1.5-.5-1.5-1-1.5-1-1.5v-2-2l-.5-1.5-.5-1.5-.5-2-.5-2-.5-1.5-.5-1.5-1-1.5-1-1.5-1 1-1 1v2 2l-.5 1-.5 1-.5 1.5-.5 1.5v1 1l-.5.5-.5.5-.5.5-.5.5-.5 1-.5 1 .5.5.5.5v1 1l.5.5.5.5.5 1 .5 1 .5 1.5.5 1.5.5.5.5.5.5 1 .5 1 .5 1.5.5 1.5.5 1 .5 1h1.5 1.5 2.5 2.5" style="fill:#9a2c00;stroke:#9a2c00" />
        <path d="m51 347l1-2-2 1-2 1-1 1-1 1h-1.5-1.5l-1.5-.5-1.5-.5-.5 2-.5 2-.5 2-.5 2-.5 1.5-.5 1.5-.5 1.5-.5 1.5.5 2 .5 2-.5 1.5-.5 1.5-1 1.5-1 1.5-1 1-1 1-.5 2-.5 2v1.5 1.5 1.5 1.5h3 3 .5.5l-.5-1-.5-1 1-1.5 1-1.5.5-1.5.5-1.5v-2.5-2.5l-.5-1.5-.5-1.5.5-2 .5-2 .5-1.5.5-1.5 1-1.5 1-1.5 1-1 1-1 1-1 1-1 .5-1 .5-1 1-1 1-1 .5-1.5.5-1.5" style="fill:#cc3e2b;stroke:#cc3e2b" />
        <path d="m50 384h1l-.5-1-.5-1-.5-1.5-.5-1.5-.5-1-.5-1-.5-.5-.5-.5-.5-1.5-.5-1.5-.5-1-.5-1-.5-.5-.5-.5v-1-1l-.5-.5-.5-.5.5-1 .5-1 .5-.5.5-.5.5-.5.5-.5v-1-1l.5-1.5.5-1.5.5-1 .5-1v-2-2l-.5 1-.5 1-1 1-1 1-1 1-1 1-1 1.5-1 1.5-.5 1.5-.5 1.5-.5 2-.5 2 .5 1.5.5 1.5v2.5 2.5l-.5 1.5-.5 1.5-1 1.5-1 1.5.5 1 .5 1h2.5 2.5 2.5 2.5 1 1" style="fill:#c33501;stroke:#c33501" />
        <path d="m42 236l1-3-1 1-1 1-1.5 1-1.5 1-.5 1.5-.5 1.5v2.5 2.5l1 1 1 1 .5-1 .5-1 .5-1.5.5-1.5.5-1.5.5-1.5v-1.5-1.5" style="fill:#c95148;stroke:#c95148" />
        <path d="m42 111l-20-7-11 .5-11 .5v1.5 1.5 2.5 2.5 2 2 2.5 2.5 2 2 2 2 1 1l15.5-3.5 15.5-3.5 5.5-7 5.5-7" style="fill:#3b3327;stroke:#3b3327" />
        <path d="m29 384h1v-1.5-1.5l-1-1-1-1 1-.5 1-.5-.5-.5-.5-.5.5-1 .5-1v-1.5-1.5l-1 .5-1 .5v1 1l-.5.5-.5.5v1 1l-.5 1.5-.5 1.5v1.5 1.5h1.5 1.5" style="fill:#9a2c00;stroke:#9a2c00" />
    </g>
</svg>
