<svg xmlns="http://www.w3.org/2000/svg" viewBox="0 0 960 488">
    <path d="m0 0h960v488h-960z" style="fill:#231609" />
    <g style="stroke-linejoin:round;stroke-width:.7">
        <path d="m959 488h1v-1.5-1.5-2-2-2.5-2.5-2-2-2.5-2.5-2-2-2.5-2.5-2-2-2-2-2.5-2.5h-.5-.5l-.5 14.5-.5 14.5-.5-15-.5-15v-15.5-15.5l1.5 11.5 1.5 11.5v-14.5-14.5-15.5-15.5-15.5-15.5-15.5-15.5-15.5-15.5-15.5-15.5-15.5-15.5-15.5-15.5-15.5-15.5-5-5h-.5-.5l-.5-2-.5-2-.5 1-.5 1-1.5.5-1.5.5-1.5-.5-1.5-.5-1-1-1-1-2.5-1-2.5-1h-.5-.5l-14-.5-14-.5-8.5-4.5-8.5-4.5h-3-3-.5-.5l-12.5-2-12.5-2-7 3-7 3-8.5-1.5-8.5-1.5-8-6-8-6-12.5-2.5-12.5-2.5-12-2.5-12-2.5-10.5-4-10.5-4-1-7-1-7h-3-3l-2-.5-2-.5h-.5-.5l-1-.5-1-.5h-2-2-2-2l-2-.5-2-.5-1.5-.5-1.5-.5-2-.5-2-.5h-2-2l-1.5-1-1.5-1-2-1-2-1-10-4.5-10-4.5-12-7.5-12-7.5h-1-1l-.5.5-.5.5.5 1.5.5 1.5.5.5.5.5v1 1l.5 1 .5 1v1 1 1 1 1 1l-.5 1.5-.5 1.5v14 14 14.5 14.5l-.5 13.5-.5 13.5-2.5 17.5-2.5 17.5.5 2 .5 2v2 2l.5 1.5.5 1.5v1 1 1.5 1.5l-.5 2-.5 2-.5 1-.5 1-1 1-1 1-1.5 14-1.5 14-2 12-2 12-4.5 10-4.5 10-6.5 8-6.5 8-6.5 8-6.5 8-9 6.5-9 6.5-.5 1-.5 1-.5 1-.5 1-1.5.5-1.5.5-2 .5-2 .5-1 1-1 1-2 .5-2 .5-1 1-1 1-1 1-1 1-.5 2-.5 2-1 1-1 1-.5 2-.5 2-1 1-1 1v1.5 1.5l-.5.5-.5.5-.5 1-.5 1h-1-1l-.5 1-.5 1-.5 1.5-.5 1.5-1 2-1 2-1 1-1 1h-1.5-1.5l-1.5.5-1.5.5-2 .5-2 .5h-2-2-1.5-1.5l-.5.5-.5.5-12.5 2-12.5 2-19-2-19-2h-2.5-2.5-.5-.5-2.5-2.5-2-2l-2 .5-2 .5h-2-2l-2-.5-2-.5-1-1-1-1-1.5-.5-1.5-.5-1.5-1-1.5-1-1-1-1-1-2-1-2-1-1-.5-1-.5h-1-1l-.5 1.5-.5 1.5v2 2l-.5.5-.5.5-1 .5-1 .5-1 1-1 1-.5 2-.5 2-.5 1.5-.5 1.5-1 1.5-1 1.5-.5 2-.5 2-11.5 4-11.5 4-14 .5-14 .5-13.5-4-13.5-4-1.5-.5-1.5-.5-3 .5-3 .5-.5.5-.5.5-1 .5-1 .5-1 .5-1 .5-1.5.5-1.5.5h-1-1l-1.5.5-1.5.5-1 .5-1 .5-1 1-1 1-.5.5-.5.5-1 .5-1 .5-.5 1.5-.5 1.5v1 1l-.5 1-.5 1-1 1.5-1 1.5v1.5 1.5l.5 1.5.5 1.5-.5 1.5-.5 1.5v3 3 2 2l2 .5 2 .5 1.5 1.5 1.5 1.5 1 .5 1 .5v-1.5-1.5l1.5-.5 1.5-.5.5-.5.5-.5.5-1 .5-1 1-1 1-1 1-1 1-1-.5-.5-.5-.5v-1.5-1.5l-.5-2.5-.5-2.5-.5-1.5-.5-1.5-.5-.5-.5-.5.5-1 .5-1 1.5-.5 1.5-.5 1-.5 1-.5 2.5-.5 2.5-.5v-1-1h2.5 2.5l1.5-.5 1.5-.5 2 .5 2 .5 1.5.5 1.5.5 3-.5 3-.5h3.5 3.5 2 2 2 2l2.5.5 2.5.5 12.5 2 12.5 2 12 2 12 2 9-5 9-5 7.5-6 7.5-6 12-.5 12-.5h14.5 14.5l11.5-1.5 11.5-1.5 11-4 11-4 9.5-6 9.5-6 8-7.5 8-7.5 10-5.5 10-5.5 8-7.5 8-7.5 6-8 6-8 8.5-6.5 8.5-6.5 8.5-7 8.5-7 2.5-11 2.5-11 6.5-8 6.5-8 5-6 5-6 2-10 2-10 8.5-7 8.5-7 8.5-2 8.5-2 1 12.5 1 12.5-3.5 10-3.5 10-2.5 9.5-2.5 9.5-5.5 9.5-5.5 9.5-9.5 6-9.5 6-5.5 10-5.5 10-5 3.5-5 3.5 6.5-2.5 6.5-2.5 9.5-3.5 9.5-3.5 8.5-3 8.5-3 10.5-4 10.5-4 9.5 3 9.5 3 1.5 3 1.5 3-3.5 7.5-3.5 7.5-6 9-6 9-9 6.5-9 6.5-9 6.5-9 6.5-11.5 3-11.5 3 .5 3.5.5 3.5 11.5-3.5 11.5-3.5 10.5-4 10.5-4 13 .5 13 .5 7-4.5 7-4.5 8.5-7 8.5-7 10.5-3.5 10.5-3.5 8.5-2.5 8.5-2.5 10-4.5 10-4.5 10-4.5 10-4.5 6-5.5 6-5.5 7-1 7-1 8-7 8-7 11.5 11 11.5 11-5 9.5-5 9.5-7 7-7 7-9 5.5-9 5.5-6.5 8-6.5 8-7 3.5-7 3.5-7 7-7 7-8.5 6.5-8.5 6.5-6.5 7.5-6.5 7.5-9 3-9 3-9 3-9 3-4 10.5-4 10.5-5.5 9-5.5 9-5 11-5 11h15 15 15.5 15.5 15.5 15.5 15.5 15.5 15.5 15.5 1.5 1.5l.5-1.5.5-1.5.5-.5.5-.5v-1-1h1 1 1.5 1.5 1 1 1 1 1 1 1.5 1.5v1 1 1 1h1 1 1.5 1.5 1 1 1 1l.5 1 .5 1h2 2 2 2 2 2 2.5 2.5 1 1" style="fill:#b1504a;stroke:#b1504a" />
        <path d="m959 445h1v-1.5-1.5-2-2-1-1l-1.5-11.5-1.5-11.5v15.5 15.5l.5 15 .5 15 .5-14.5.5-14.5" style="fill:#b5736a;stroke:#b5736a" />
        <path d="m959 149h1v-1.5-1.5-2-2-2.5-2.5-2-2-2.5-2.5-2-2-.5-.5h-.5-.5v1.5 1.5 1.5 1.5 2 2l-.5 1.5-.5 1.5v-3-3-1.5-1.5l-7.5-7-7.5-7-13.5-.5-13.5-.5-12-1-12-1-10.5-4.5-10.5-4.5-12-3.5-12-3.5-10.5-3-10.5-3-8-2.5-8-2.5-12-1-12-1-12.5-8-12.5-8-11-1.5-11-1.5-17.5-3.5-17.5-3.5h-.5-.5-1.5-1.5l11 4 11 4 9.5 4 9.5 4 10.5 4 10.5 4 9.5 5 9.5 5 11 3.5 11 3.5 11.5 2.5 11.5 2.5 12.5 2.5 12.5 2.5 10 4 10 4 10.5 4 10.5 4 13 1.5 13 1.5 19.5 8 19.5 8v.5.5.5.5l.5 1 .5 1 .5 2 .5 2" style="fill:#571800;stroke:#571800" />
        <path d="m959 123h1v-15-15-15.5-15.5-15.5-15.5-15.5-15.5h-15.5-15.5-15.5-15.5-15.5-15.5-15.5-15.5-15.5-15.5-15.5-15.5-3-3v1 1l-1.5 12.5-1.5 12.5-2 19-2 19 12.5 8 12.5 8 12 1 12 1 8 2.5 8 2.5 10.5 3 10.5 3 12 3.5 12 3.5 10.5 4.5 10.5 4.5 12 1 12 1 13.5.5 13.5.5 7.5 7 7.5 7v-14.5-14.5-15-15-14-14-15-15l.5 6 .5 6v15.5 15.5 15.5 15.5 19.5 19.5" style="fill:#231609;stroke:#231609" />
        <g style="fill:#b5736a;stroke:#b5736a">
            <path d="m958 389l1-30-.5-10-.5-10-.5 15-.5 15 .5 10 .5 10" />
            <path d="m958 242l1-30v-15.5-15.5l-.5-3-.5-3v15.5 15.5 15.5 15.5 2.5 2.5" />
        </g>
        <path d="m958 136l1-3v-2-2-1.5-1.5-1.5-1.5-19.5-19.5-15.5-15.5-15.5-15.5l-.5-6-.5-6v15 15 14 14 15 15 14.5 14.5 1.5 1.5 3 3" style="fill:#3b3024;stroke:#3b3024" />
        <path d="m957 147l1-2-.5-1-.5-1-.5.5-.5.5-11.5-2.5-11.5-2.5-10-4-10-4-13.5-1.5-13.5-1.5-11-3-11-3-10-5-10-5-11-2-11-2-13-.5-13-.5-8.5-5.5-8.5-5.5-10-5-10-5-11-3-11-3-10.5-5.5-10.5-5.5-2-.5-2-.5h-.5-.5l-2-.5-2-.5h-2-2-1-1-1.5-1.5l-1-1-1-1h-1-1l-1-.5-1-.5-1.5-1.5-1.5-1.5-1.5-.5-1.5-.5h-1-1l-.5-.5-.5-.5h-1-1l-1-.5-1-.5-.5-.5-.5-.5h-1-1-1-1l-1-.5-1-.5h-2-2l-.5-.5-.5-.5-1-.5-1-.5-2.5.5-2.5.5 12 7.5 12 7.5 10 4.5 10 4.5h1.5 1.5 1.5 1.5 2 2l1.5.5 1.5.5.5.5.5.5h1.5 1.5l1.5.5 1.5.5h1 1l1 .5 1 .5h2 2l.5.5.5.5 1 .5 1 .5 1 1 1 1 2 .5 2 .5h3 3l11 3.5 11 3.5 10 5.5 10 5.5 11.5 3 11.5 3 14-.5 14-.5 9.5 6 9.5 6 16.5 5 16.5 5h3 3l23 5 23 5 2.5 1 2.5 1 1 1 1 1 1.5.5 1.5.5 1.5-.5 1.5-.5" style="fill:#9b3627;stroke:#9b3627" />
        <path d="m957 141l-39-16-13-1.5-13-1.5-10.5-4-10.5-4-10-4-10-4-12.5-2.5-12.5-2.5-11.5-2.5-11.5-2.5-11-3.5-11-3.5-9.5-5-9.5-5-10.5-4-10.5-4-9.5-4-9.5-4-11-4-11-4h-1.5-1.5l-1.5-.5-1.5-.5h-2-2l-1.5.5-1.5.5v1 1l1 1.5 1 1.5 1 .5 1 .5h1.5 1.5l.5.5.5.5.5.5.5.5h1 1l1 .5 1 .5h1 1l.5.5.5.5h1 1l1 .5 1 .5h1 1l.5.5.5.5 1 .5 1 .5 2 .5 2 .5 11 3.5 11 3.5 11.5 4 11.5 4 10.5 5 10.5 5 10.5 5 10.5 5 15 .5 15 .5 10 4 10 4 10 5 10 5 13.5 2 13.5 2 13 2.5 13 2.5 15.5 5 15.5 5v-.5-.5" style="fill:#782100;stroke:#782100" />
        <path d="m956 144l1-1v-.5-.5l-15.5-5-15.5-5-13-2.5-13-2.5-13.5-2-13.5-2-10-5-10-5-10-4-10-4-15-.5-15-.5-10.5-5-10.5-5-10.5-5-10.5-5-11.5-4-11.5-4-11-3.5-11-3.5 10.5 5.5 10.5 5.5 11 3 11 3 10 5 10 5 8.5 5.5 8.5 5.5 13 .5 13 .5 11 2 11 2 10 5 10 5 11 3 11 3 13.5 1.5 13.5 1.5 10 4 10 4 11.5 2.5 11.5 2.5" style="fill:#972b02;stroke:#972b02" />
        <path d="m943 143h1l-23-5-23-5 8.5 4.5 8.5 4.5 14 .5 14 .5" style="fill:#c33d2f;stroke:#c33d2f" />
        <path d="m939 488h1l-.5-1-.5-1h-1-1-1-1-1.5-1.5-1-1v-1-1-1-1h-1.5-1.5-1-1-1-1-1-1-1.5-1.5-1-1v1 1l-.5.5-.5.5-.5 1.5-.5 1.5h2.5 2.5 2 2 2.5 2.5 2 2 2.5 2.5 1 1" style="fill:#b5736a;stroke:#b5736a" />
        <g style="fill:#c33d2f;stroke:#c33d2f">
            <path d="m935 306l-23-22-8 7-8 7-7 1-7 1-6 5.5-6 5.5-10 4.5-10 4.5-10 4.5-10 4.5-8.5 2.5-8.5 2.5-10.5 3.5-10.5 3.5-8.5 7-8.5 7-7 4.5-7 4.5-13-.5-13-.5-10.5 4-10.5 4-11.5 3.5-11.5 3.5-.5-3.5-.5-3.5 11.5-3 11.5-3 9-6.5 9-6.5 9-6.5 9-6.5 6-9 6-9 3.5-7.5 3.5-7.5-1.5-3-1.5-3-9.5-3-9.5-3-10.5 4-10.5 4-8.5 3-8.5 3-9.5 3.5-9.5 3.5-6.5 2.5-6.5 2.5 5-3.5 5-3.5 5.5-10 5.5-10 9.5-6 9.5-6 5.5-9.5 5.5-9.5 2.5-9.5 2.5-9.5 3.5-10 3.5-10-1-12.5-1-12.5-8.5 2-8.5 2-8.5 7-8.5 7-2 10-2 10-5 6-5 6-6.5 8-6.5 8-2.5 11-2.5 11-8.5 7-8.5 7-8.5 6.5-8.5 6.5-6 8-6 8-8 7.5-8 7.5-10 5.5-10 5.5-8 7.5-8 7.5-9.5 6-9.5 6-11 4-11 4-11.5 1.5-11.5 1.5h-14.5-14.5l-12 .5-12 .5-7.5 6-7.5 6-9 5-9 5-12-2-12-2-12.5-2-12.5-2-.5 1-.5 1-1.5.5-1.5.5h-2-2l-1.5-.5-1.5-.5h-2.5-2.5l-1-1-1-1-1-.5-1-.5-3 .5-3 .5-1.5-.5-1.5-.5-2-.5-2-.5-1.5.5-1.5.5h-2.5-2.5v1 1l-2.5.5-2.5.5.5 1 .5 1-.5 1.5-.5 1.5-.5 1.5-.5 1.5h-1.5-1.5l.5 2.5.5 2.5v1.5 1.5l.5.5.5.5-1 1-1 1-1 1-1 1-.5 1-.5 1-.5.5-.5.5-1.5.5-1.5.5v1.5 1.5l-1-.5-1-.5v1.5 1.5l.5 1.5.5 1.5v2.5 2.5l.5 1.5.5 1.5 10.5 4.5 10.5 4.5 9.5 14 9.5 14h15 15 15.5 15.5 15.5 15.5 15.5 15.5 15.5 15.5 15.5 15.5 16 16 15.5 15.5 15.5 15.5 15.5 15.5 15.5 15.5 15.5 15.5 14 14l5-11 5-11 5.5-9 5.5-9 4-10.5 4-10.5 9-3 9-3 9-3 9-3 6.5-7.5 6.5-7.5 8.5-6.5 8.5-6.5 7-7 7-7 7-3.5 7-3.5 6.5-8 6.5-8 9-5.5 9-5.5 7-7 7-7 5-9.5 5-9.5" />
            <path d="m891 133h1l-16.5-5-16.5-5-9.5-6-9.5-6-14 .5-14 .5-11.5-3-11.5-3-10-5.5-10-5.5-11-3.5-11-3.5 1 7 1 7 10.5 4 10.5 4 12 2.5 12 2.5 12.5 2.5 12.5 2.5 8 6 8 6 8.5 1.5 8.5 1.5 7-3 7-3 12.5 2 12.5 2" />
        </g>
        <path d="m768 2v-2h-15.5-15.5-15.5-15.5-15.5-15.5-15.5-15.5-15.5-15.5-15.5-15.5-16-16-15.5-15.5-15.5-15.5-15.5-15.5-14.5-14.5l-.5.5-.5.5-25-.5-25-.5h-15-15-15.5-15.5-15-15l.5 11.5.5 11.5 4.5 10 4.5 10 10-4.5 10-4.5 9.5-4.5 9.5-4.5 9.5-5 9.5-5 14-.5 14-.5 13 1.5 13 1.5 11 3.5 11 3.5 6.5 8 6.5 8 6.5 3.5 6.5 3.5 1-1 1-1-.5-1.5-.5-1.5.5-.5.5-.5h1.5 1.5l1.5.5 1.5.5 4.5-8 4.5-8 11-1 11-1 12.5 1 12.5 1 8 7 8 7 12.5-2.5 12.5-2.5 12-2.5 12-2.5 9.5 6 9.5 6 22 1.5 22 1.5 13-1.5 13-1.5 15 6.5 15 6.5 17.5 3.5 17.5 3.5 11 1.5 11 1.5 2-19 2-19 1.5-12.5 1.5-12.5" style="fill:#3b3024;stroke:#3b3024" />
        <path d="m736 87h1l-1-1-1-1-1-.5-1-.5-.5-.5-.5-.5h-2-2l-1-.5-1-.5h-1-1l-1.5-.5-1.5-.5h-1.5-1.5l-.5-.5-.5-.5-1.5-.5-1.5-.5h-2-2-1.5-1.5-1.5-1.5l2 1 2 1 1.5 1 1.5 1h2 2l2 .5 2 .5 1.5.5 1.5.5 2 .5 2 .5h2 2 2 2l1 .5 1 .5" style="fill:#c33d2f;stroke:#c33d2f" />
        <path d="m728 428l-19 2-11 4.5-11 4.5-9.5 6-9.5 6-11 4.5-11 4.5-4.5 7-4.5 7 11.5-3 11.5-3 11-4.5 11-4.5 11.5-4 11.5-4 8-7.5 8-7.5 3.5-4 3.5-4" style="fill:#c33207;stroke:#c33207" />
        <path d="m711 68h1l-1-.5-1-.5-.5-.5-.5-.5h-1-1l-1-.5-1-.5h-1-1l-.5-.5-.5-.5h-1-1l-1-.5-1-.5h-1-1l-.5-.5-.5-.5-.5-.5-.5-.5h-1.5-1.5l-1-.5-1-.5v.5.5l1.5 1.5 1.5 1.5 1 .5 1 .5h1 1l1 1 1 1h1.5 1.5 1 1 2 2l2 .5 2 .5" style="fill:#972b02;stroke:#972b02" />
        <path d="m703 55h1l-15-6.5-15-6.5-13 1.5-13 1.5 2 1 2 1v1.5 1.5l1.5.5 1.5.5 1.5 2 1.5 2h1 1l2.5-.5 2.5-.5 1 .5 1 .5.5.5.5.5h2 2l1 .5 1 .5h1 1 1 1l.5.5.5.5 1 .5 1 .5h1 1l.5.5.5.5h1 1l1.5.5 1.5.5v-.5-.5l-1-1.5-1-1.5v-1-1l1.5-.5 1.5-.5h2 2l1.5.5 1.5.5h1.5 1.5 1.5 1.5" style="fill:#79352b;stroke:#79352b" />
        <path d="m659 73l1-3v-1-1-1-1-1-1l-.5-1-.5-1v-1-1l-.5-.5-.5-.5-.5-1.5-.5-1.5-10.5-5-10.5-5-15-.5-15-.5-9-5-9-5-11 1-11 1-10.5 4-10.5 4h-20.5-20.5-.5-.5-1.5-1.5l-1 1-1 1-1.5-.5-1.5-.5-.5 1-.5 1v1.5 1.5h-1.5-1.5l-.5.5-.5.5-.5 1-.5 1-1.5.5-1.5.5-.5.5-.5.5-.5.5-.5.5-.5-.5-.5-.5-1-.5-1-.5-1 .5-1 .5 5 9.5 5 9.5 6.5 8.5 6.5 8.5 4.5 9.5 4.5 9.5v13.5 13.5l.5 13 .5 13 4.5 8 4.5 8 5-9 5-9 7-8 7-8 5-9 5-9 7.5 4 7.5 4 .5 2 .5 2 .5-1.5.5-1.5 1 1 1 1 .5 2 .5 2 .5 1.5.5 1.5 1 1.5 1 1.5.5 1.5.5 1.5v2 2l.5 1.5.5 1.5 8 7 8 7 11 3.5 11 3.5-5.5 6-5.5 6-11 3-11 3 10 5 10 5 11.5 11.5 11.5 11.5-8-3.5-8-3.5-10.5-5-10.5-5-15.5-3.5-15.5-3.5-4 11-4 11-4 13.5-4 13.5 7.5-4 7.5-4 9.5.5 9.5.5 11.5 7 11.5 7-14-1-14-1-10 4-10 4-.5 9-.5 9-4 5-4 5-7.5-7-7.5-7-.5 1-.5 1-1 1-1 1 .5 1.5.5 1.5-1 1.5-1 1.5h-1-1l-1 1.5-1 1.5.5 1.5.5 1.5-1 1-1 1-1.5 2-1.5 2 .5 1 .5 1v1 1l-1 .5-1 .5h-2-2l-2 .5-2 .5h-1-1-1.5-1.5l-.5.5-.5.5-10.5 4.5-10.5 4.5-11.5 2-11.5 2-8.5-1-8.5-1-2 .5-2 .5h-2.5-2.5l-1 .5-1 .5h1.5 1.5v1 1h-1.5-1.5l-.5.5-.5.5h-1-1l-1 .5-1 .5-1.5.5-1.5.5.5 1 .5 1-1 .5-1 .5-1 .5-1 .5h-1.5-1.5-1.5-1.5-1.5-1.5l-1.5.5-1.5.5-.5.5-.5.5-1 .5-1 .5.5.5.5.5-1 1.5-1 1.5v1 1l-2 .5-2 .5 1 1 1 1 1 1 1 1 .5.5.5.5 1 .5 1 .5-.5 2-.5 2-13 2-13 2-14-4.5-14-4.5-2-.5-2-.5-1.5 1-1.5 1h-2-2l-1.5 1-1.5 1-1.5.5-1.5.5-2 .5-2 .5-1.5.5-1.5.5-1.5-.5-1.5-.5-2 .5-2 .5-.5 1-.5 1 .5.5.5.5-4.5 8-4.5 8-4.5 6.5-4.5 6.5-2-16-2-16-1-.5-1-.5h-1.5-1.5l-1-1-1-1h1.5 1.5l-3-.5-3-.5h-2-2l-1.5-.5-1.5-.5h-2.5-2.5l-2.5.5-2.5.5h1.5 1.5 2 2l1.5.5 1.5.5 1.5.5 1.5.5-2 13-2 13 4 15 4 15 3 11.5 3 11.5 1 13.5 1 13.5 1 1 1 1h1 1v-.5-.5l-2-11.5-2-11.5-1.5-10.5-1.5-10.5-3-12-3-12-1.5-11.5-1.5-11.5 2.5 4.5 2.5 4.5 9.5 18 9.5 18 1-1.5 1-1.5.5-1 .5-1v-1-1l.5-1.5.5-1.5 1-.5 1-.5.5-.5.5-.5 1-1 1-1 1-.5 1-.5 1-1 1-1 1-1.5 1-1.5 1.5-.5 1.5-.5 3 .5 3 .5 3-.5 3-.5 1.5.5 1.5.5 1.5-1 1.5-1 1.5.5 1.5.5 1 1 1 1 1-.5 1-.5-1-9.5-1-9.5 10.5 3 10.5 3 4 6.5 4 6.5v1 1l21-3.5 21-3.5 1-1.5 1-1.5.5-1.5.5-1.5.5-2 .5-2 1-1 1-1 1-.5 1-.5.5-.5.5-.5v-2-2l.5-1.5.5-1.5h1 1l1 .5 1 .5 18 4.5 18 4.5h2.5 2.5 12.5 12.5l19.5-.5 19.5-.5 1-.5 1-.5 1-.5 1-.5 2-.5 2-.5 1.5-.5 1.5-.5 1-1.5 1-1.5 1.5-.5 1.5-.5 1.5-1 1.5-1 1.5-.5 1.5-.5.5-1 .5-1h1 1l.5-1 .5-1 .5-.5.5-.5v-1.5-1.5l12.5-12.5 12.5-12.5 9-6.5 9-6.5 6.5-8 6.5-8 6.5-8 6.5-8 4.5-10 4.5-10 2-12 2-12 1.5-14 1.5-14-.5-2-.5-2-.5-1.5-.5-1.5v-2.5-2.5l.5-1.5.5-1.5.5-1.5.5-1.5 1-1.5 1-1.5v-1.5-1.5l2.5-17.5 2.5-17.5.5-13.5.5-13.5v-14.5-14.5-14-14" style="fill:#85786b;stroke:#85786b" />
        <path d="m657 56l1-1-1.5-2-1.5-2-1.5-.5-1.5-.5v-1.5-1.5l-2-1-2-1-22-1.5-22-1.5-9.5-6-9.5-6-12 2.5-12 2.5-12.5 2.5-12.5 2.5h-.5-.5l-1.5-.5-1.5-.5-1.5.5-1.5.5h-2.5-2.5l-1.5.5-1.5.5h-2.5-2.5l-1.5-.5-1.5-.5h-2.5-2.5-3-3l.5 1 .5 1 .5 1.5.5 1.5h20.5 20.5l10.5-4 10.5-4 11-1 11-1 9 5 9 5 15 .5 15 .5 10.5 5 10.5 5" style="fill:#675348;stroke:#675348" />
        <path d="m654 212l1-4v-1.5-1.5-1-1l-.5-1.5-.5-1.5v-2-2l-.5-2-.5-2v1.5 1.5l-1 1.5-1 1.5-.5 1.5-.5 1.5-.5 1.5-.5 1.5v2.5 2.5l.5 1.5.5 1.5.5 2 .5 2 1-1 1-1 .5-1 .5-1" style="fill:#b5736a;stroke:#b5736a" />
        <path d="m645 58l-17-12h-15.5-15.5l-4.5-4-4.5-4 8.5 5 8.5 5 16 4 16 4-7 8-7 8-5.5 9-5.5 9-6 8-6 8-9 6-9 6-4.5-7.5-4.5-7.5-7.5 4.5-7.5 4.5-6 2-6 2-7.5-2-7.5-2 6.5 15.5 6.5 15.5 5-9.5 5-9.5 6.5-9 6.5-9 3 11.5 3 11.5 7-3.5 7-3.5 8.5-7 8.5-7h8.5 8.5l8.5-4 8.5-4-1.5-13-1.5-13 5-8 5-8" style="fill:#969084;stroke:#969084" />
        <path d="m637 56l-32-8-8.5-5-8.5-5-1-.5-1-.5h-.5-.5l-6 6.5-6 6.5-10.5 1.5-10.5 1.5-10.5-1.5-10.5-1.5-.5 9.5-.5 9.5-2 10.5-2 10.5-6.5-7-6.5-7-7.5-5-7.5-5 1.5 8 1.5 8 5.5 9 5.5 9v13 13l2 24 2 24 1 1 1 1 1-.5 1-.5.5-1.5.5-1.5.5-.5.5-.5.5-1 .5-1 1-1 1-1 .5-1.5.5-1.5v-11-11l8.5 2 8.5 2 .5-1 .5-1v-.5-.5l-6.5-15.5-6.5-15.5 7.5 2 7.5 2 6-2 6-2 7.5-4.5 7.5-4.5 4.5 7.5 4.5 7.5 9-6 9-6 6-8 6-8 5.5-9 5.5-9 7-8 7-8" style="fill:#b8b4a6;stroke:#b8b4a6" />
        <path d="m632 38l1-3-1-1-1-1h-2.5-2.5-2-2-2-2-.5-.5-1.5-1.5l-1.5.5-1.5.5-.5.5-.5.5h-1-1l-1.5.5-1.5.5 1.5 2 1.5 2h2 2 2.5 2.5 2 2 2.5 2.5l1.5-.5 1.5-.5 1.5-.5 1.5-.5" style="fill:#231609;stroke:#231609" />
        <path d="m630 54l-25-4-10-4.5-10-4.5-3 6.5-3 6.5-12 2.5-12 2.5-11-1.5-11-1.5 1.5 13 1.5 13 9 5.5 9 5.5h10.5 10.5l6 8.5 6 8.5 8-7.5 8-7.5 5-10.5 5-10.5 7.5-8 7.5-8 1-2 1-2" style="fill:#dbd7cb;stroke:#dbd7cb" />
        <g style="fill:#969084;stroke:#969084">
            <path d="m629 251l-14-13 2 6.5 2 6.5h5 5" />
            <path d="m628 231l-23-23-10-5-10-5 11-3 11-3 5.5-6 5.5-6-11-3.5-11-3.5-8-7-8-7-.5 2-.5 2h-.5-.5v2 2 1 1l-.5 1.5-.5 1.5-.5 1-.5 1-.5 1.5-.5 1.5-.5.5-.5.5-.5.5-.5.5-.5.5-.5.5-.5 1-.5 1-.5.5-.5.5-.5.5-.5.5v1 1l-.5 1-.5 1v1 1l-.5.5-.5.5v1 1l-.5 1-.5 1-.5 1.5-.5 1.5-1 1-1 1v2 2l-1.5 1.5-1.5 1.5 15.5 3.5 15.5 3.5 10.5 5 10.5 5 8 3.5 8 3.5" />
        </g>
        <path d="m617 33h1l-1-.5-1-.5-1.5-.5-1.5-.5h-2.5-2.5l-1.5.5-1.5.5-.5 1-.5 1 .5.5.5.5v.5.5l1.5-.5 1.5-.5h1 1l.5-.5.5-.5 1.5-.5 1.5-.5h1.5 1.5" style="fill:#571800;stroke:#571800" />
        <path d="m610 382l-20-3-12 2.5-12 2.5-8 5.5-8 5.5 13 1.5 13 1.5 12-3.5 12-3.5 5-4.5 5-4.5" style="fill:#c33207;stroke:#c33207" />
        <path d="m601 263l-23-14-9.5-.5-9.5-.5-7.5 4-7.5 4v2 2l-1.5 1-1.5 1-.5 1-.5 1-.5 1.5-.5 1.5-1 2-1 2-1 1.5-1 1.5-.5 1.5-.5 1.5-2 1-2 1-.5 2-.5 2 7.5 7 7.5 7 4-5 4-5 .5-9 .5-9 10-4 10-4 14 1 14 1" style="fill:#969084;stroke:#969084" />
        <path d="m590 335l1-2-12.5 12.5-12.5 12.5 1-1 1-1 .5-2 .5-2 1-1 1-1 .5-2 .5-2 1-1 1-1 1-1 1-1 2-.5 2-.5 1-1 1-1 2-.5 2-.5 1.5-.5 1.5-.5.5-1 .5-1" style="fill:#b5736a;stroke:#b5736a" />
        <path d="m585 37h1l-8 4-8 4-10.5 2-10.5 2h-11.5-11.5l1 12.5 1 12.5-6 .5-6 .5-7-8.5-7-8.5-7.5 5-7.5 5 6.5 9 6.5 9 5.5 10 5.5 10 .5 14 .5 14 1.5 13 1.5 13 1 9.5 1 9.5-.5-2.5-.5-2.5-2-24-2-24v-13-13l-5.5-9-5.5-9-1.5-8-1.5-8 7.5 5 7.5 5 6.5 7 6.5 7 2-10.5 2-10.5.5-9.5.5-9.5 10.5 1.5 10.5 1.5 10.5-1.5 10.5-1.5 6-6.5 6-6.5" style="fill:#969084;stroke:#969084" />
        <path d="m579 163l1-4-.5-1.5-.5-1.5v-2-2l-.5-1.5-.5-1.5-1-1.5-1-1.5-.5-1.5-.5-1.5-.5-2-.5-2-1-1-1-1-.5 1.5-.5 1.5v1.5 1.5l-.5 1.5-.5 1.5-1.5 12-1.5 12-4.5 10-4.5 10-5.5 9-5.5 9-4 10.5-4 10.5-2 12-2 12-5 9.5-5 9.5-6.5 8-6.5 8 2.5 8.5 2.5 8.5 1.5-2 1.5-2 1-1 1-1-.5-1.5-.5-1.5 1-1.5 1-1.5h1 1l1-1.5 1-1.5-.5-1.5-.5-1.5 1-1 1-1 .5-1 .5-1 .5-2 .5-2v-1.5-1.5l.5-1 .5-1 1-1 1-1 .5-.5.5-.5.5-1 .5-1 1-1 1-1 .5-.5.5-.5 1-1 1-1 .5-1 .5-1 1.5-1 1.5-1v-2-2l4-13.5 4-13.5 4-11 4-11 1.5-1.5 1.5-1.5v-2-2l7.5-18.5 7.5-18.5h.5.5" style="fill:#b5736a;stroke:#b5736a" />
        <path d="m577 172l1-3v-1-1-2-2l-7.5 18.5-7.5 18.5 1-1 1-1 .5-1.5.5-1.5.5-1 .5-1v-1-1l.5-.5.5-.5v-1-1l.5-1 .5-1v-1-1l.5-.5.5-.5.5-.5.5-.5.5-1 .5-1 .5-.5.5-.5.5-.5.5-.5.5-.5.5-.5.5-1.5.5-1.5.5-1 .5-1" style="fill:#b29388;stroke:#b29388" />
        <path d="m570 146l1-3v-1.5-1.5l-.5-2-.5-2h-.5-.5l-.5 1.5-.5 1.5-.5 1-.5 1-.5.5-.5.5v1 1l-.5 1.5-.5 1.5-1.5 13-1.5 13-4.5 9.5-4.5 9.5-5.5 9.5-5.5 9.5-4 11.5-4 11.5-2.5 13-2.5 13-7 9.5-7 9.5-.5.5-.5.5-8 7-8 7-10 7-10 7-19 5.5-19 5.5-13 3-13 3-12 4-12 4-.5.5-.5.5h-2.5-2.5l-1.5 1-1.5 1-1.5.5-1.5.5h-2.5-2.5l-1.5.5-1.5.5h-2-2l-2 .5-2 .5h-2-2l-.5.5-.5.5h-2-2l-1 .5-1 .5h-2-2-2.5-2.5-2-2l-2 .5-2 .5h-2-2-2-2l-.5.5-.5.5h-1.5-1.5l-1.5.5-1.5.5h-1-1l-1.5.5-1.5.5h-1-1l-2 .5-2 .5-1.5.5-1.5.5-2 .5-2 .5-2.5.5-2.5.5h-1-1l-.5.5-.5.5h-1.5-1.5l-1 .5-1 .5 3 .5 3 .5 12.5-2 12.5-2h9 9l12-3 12-3 13-2.5 13-2.5 21.5-6 21.5-6 1-.5 1-.5h2.5 2.5l2-.5 2-.5 12-1 12-1 19-5 19-5h1.5 1.5 1 1l2-.5 2-.5h2 2l1-.5 1-.5v-1-1l-.5-1-.5-1-2.5-8.5-2.5-8.5 6.5-8 6.5-8 5-9.5 5-9.5 2-12 2-12 4-10.5 4-10.5 5.5-9 5.5-9 4.5-10 4.5-10 1.5-12 1.5-12" style="fill:#b1504a;stroke:#b1504a" />
        <path d="m569 136h1l-7.5-4-7.5-4-5 9-5 9-7 8-7 8-5 9-5 9-4.5-8-4.5-8-.5-13-.5-13v-13.5-13.5l-4.5-9.5-4.5-9.5-6.5-8.5-6.5-8.5-5-9.5-5-9.5-1-1-1-1-.5-.5-.5-.5-.5-1-.5-1v2 2 1 1 1 1 2 2l7 8 7 8 6 8 6 8 3 10.5 3 10.5 1 13 1 13 2 22.5 2 22.5h1.5 1.5l1.5-1 1.5-1 1-1 1-1 1-1.5 1-1.5 1-1 1-1 .5-2 .5-2 1.5-1 1.5-1 .5-1 .5-1 .5-2 .5-2 1-1 1-1 1-1.5 1-1.5 1-1 1-1 1-1.5 1-1.5 1-.5 1-.5 6-8.5 6-8.5 7 1.5 7 1.5.5-1 .5-1 .5-1.5.5-1.5" style="fill:#675348;stroke:#675348" />
        <path d="m566 142l1-1-7-1.5-7-1.5-6 8.5-6 8.5h1 1l1-1.5 1-1.5 1-1 1-1 1-1 1-1 1-1.5 1-1.5 1-1 1-1 .5-1.5.5-1.5v-1.5-1.5l.5-.5.5-.5.5-1 .5-1 .5-.5.5-.5.5-.5.5-.5.5-.5.5-.5h1.5 1.5l1 1 1 1-.5 1.5-.5 1.5-.5.5-.5.5-.5 2.5-.5 2.5v.5.5 2 2l1-.5 1-.5 1.5-1 1.5-1v-1-1" style="fill:#79352b;stroke:#79352b" />
        <path d="m565 147l1-3-1.5 1-1.5 1-1 .5-1 .5h-.5-.5v1 1 1.5 1.5l-.5 1.5-.5 1.5-7.5 20.5-7.5 20.5-.5 1-.5 1-.5 1.5-.5 1.5-4.5 10.5-4.5 10.5-2.5 11.5-2.5 11.5-4 11-4 11-7.5 7-7.5 7 .5.5.5.5 1.5-.5 1.5-.5.5-.5.5-.5 1-.5 1-.5h1.5 1.5l7-9.5 7-9.5 2.5-13 2.5-13 4-11.5 4-11.5 5.5-9.5 5.5-9.5 4.5-9.5 4.5-9.5 1.5-13 1.5-13" style="fill:#9b3627;stroke:#9b3627" />
        <path d="m563 136l1-3-1-1-1-1h-1.5-1.5l-.5.5-.5.5-.5.5-.5.5-.5.5-.5.5-.5 1-.5 1-.5.5-.5.5v1.5 1.5l1.5-1.5 1.5-1.5 1-1 1-1h1 1l.5 1 .5 1 .5-.5.5-.5" style="fill:#3b3024;stroke:#3b3024" />
        <path d="m561 142l1-5-.5-1-.5-1h-1-1l-1 1-1 1-1.5 1.5-1.5 1.5-.5 1.5-.5 1.5-1 1-1 1-1 1.5-1 1.5-1 1-1 1-1 1-1 1-1 1.5-1 1.5-.5 1-.5 1-.5 1-.5 1 .5 1 .5 1h-1-1l.5 1 .5 1 .5.5.5.5v1 1l-2 .5-2 .5-.5.5-.5.5-.5.5-.5.5v-2-2l-.5 1-.5 1-.5.5-.5.5-1 .5-1 .5-.5 1.5-.5 1.5-.5.5-.5.5-1 1-1 1-.5 1.5-.5 1.5-.5.5-.5.5-.5 1-.5 1-1 1-1 1-.5.5-.5.5-.5 1-.5 1-1 1-1 1-.5.5-.5.5v.5.5l-1 .5-1 .5-2 .5-2 .5 2 .5 2 .5.5.5.5.5-3 9-3 9-7 5-7 5-5.5 9-5.5 9-3.5 11-3.5 11-5 9.5-5 9.5-6.5 8-6.5 8-10.5 4-10.5 4-11.5 1.5-11.5 1.5h-16-16l-1.5.5-1.5.5h-.5-.5l-1 1-1 1-1 1-1 1 11.5 7 11.5 7 2-.5 2-.5 1.5-.5 1.5-.5 2-.5 2-.5 1.5-.5 1.5-.5 2-.5 2-.5 1.5-.5 1.5-.5 1.5-.5 1.5-.5 2-.5 2-.5 1.5-1 1.5-1 12.5-2.5 12.5-2.5 8.5-6 8.5-6 6-8.5 6-8.5 5.5-9 5.5-9 6-8.5 6-8.5 7-2.5 7-2.5 4-8.5 4-8.5 4.5-9.5 4.5-9.5 4.5-10 4.5-10 4-7.5 4-7.5 5-14.5 5-14.5v-.5-.5" style="fill:#571800;stroke:#571800" />
        <path d="m560 369l1-3-1.5.5-1.5.5-1.5 1-1.5 1-1.5.5-1.5.5-1 1.5-1 1.5-1.5.5-1.5.5-2 .5-2 .5-1 .5-1 .5-1 .5-1 .5h1.5 1.5 2 2l2-.5 2-.5 1.5-.5 1.5-.5h1.5 1.5l1-1 1-1 1-2 1-2" style="fill:#b5736a;stroke:#b5736a" />
        <path d="m560 147h1v-2-2l-5 14.5-5 14.5-4 7.5-4 7.5-4.5 10-4.5 10-4.5 9.5-4.5 9.5-4 8.5-4 8.5-7 2.5-7 2.5-6 8.5-6 8.5-5.5 9-5.5 9-6 8.5-6 8.5-8.5 6-8.5 6-12.5 2.5-12.5 2.5h1.5 1.5l1.5-.5 1.5-.5 2-.5 2-.5h2 2 2.5 2.5 2 2 1.5 1.5l1.5-.5 1.5-.5h1 1l.5-.5.5-.5h1 1l1-1.5 1-1.5 7-7.5 7-7.5 7.5-7 7.5-7 9.5-5 9.5-5 6-8 6-8 3.5-11 3.5-11 7-17.5 7-17.5.5-1 .5-1 5-10 5-10 3-13.5 3-13.5v-1-1" style="fill:#782100;stroke:#782100" />
        <path d="m559 155l1-3v-1.5-1.5l-3 13.5-3 13.5-5 10-5 10 7.5-20.5 7.5-20.5" style="fill:#972b02;stroke:#972b02" />
        <path d="m551 418l-17-12-15 .5-15 .5-14.5-1-14.5-1-1.5 7-1.5 7 11.5 4 11.5 4 15 .5 15 .5 11.5-4 11.5-4 1.5-1 1.5-1" style="fill:#c33207;stroke:#c33207" />
        <path d="m542 201l1-3-7 17.5-7 17.5-3.5 11-3.5 11-6 8-6 8-9.5 5-9.5 5-7.5 7-7.5 7-7 7.5-7 7.5 2.5-1 2.5-1 1.5-.5 1.5-.5.5-1.5.5-1.5 1.5-1 1.5-1 1-1 1-1 1.5-1 1.5-1 1-1 1-1 2-.5 2-.5 1.5-1 1.5-1 2-1 2-1 1-1.5 1-1.5.5-.5.5-.5 1-.5 1-.5 1-1 1-1 1.5-1 1.5-1 1.5-.5 1.5-.5 7.5-7 7.5-7 4-11 4-11 2.5-11.5 2.5-11.5 4.5-10.5 4.5-10.5" style="fill:#972b02;stroke:#972b02" />
        <path d="m542 166v-2l-.5-.5-.5-.5-.5-1-.5-1h1 1l-.5-1-.5-1-1 1-1 1-1 1-1 1-.5 1-.5 1v2 2l.5-.5.5-.5.5-.5.5-.5 2-.5 2-.5" style="fill:#231609;stroke:#231609" />
        <path d="m542 157l1-2h-1-1l-1 .5-1 .5-1 1.5-1 1.5-1 1-1 1-1 1.5-1 1.5-1 1-1 1-.5 2-.5 2-.5 1-.5 1-.5 1-.5 1v.5.5l1-1 1-1 .5-.5.5-.5.5-1.5.5-1.5 1-.5 1-.5.5-.5.5-.5.5-1 .5-1 .5-1 .5-1 1-1 1-1 1-1 1-1 .5-1 .5-1" style="fill:#3b3024;stroke:#3b3024" />
        <path d="m542 149l1-3-8.5-2-8.5-2v11 11 1.5 1.5l.5-1.5.5-1.5 1-1.5 1-1.5 1-1 1-1 1-1.5 1-1.5 1-1 1-1 1-1 1-1 1.5-1 1.5-1 1-.5 1-.5" style="fill:#969084;stroke:#969084" />
        <path d="m539 267l1-3-1 1-1 1-.5.5-.5.5-1 1-1 1-.5 1-.5 1-.5.5-.5.5-1 1-1 1-.5 1-.5 1v1.5 1.5l2-1 2-1 .5-1.5.5-1.5 1-1.5 1-1.5 1-2 1-2" style="fill:#b29388;stroke:#b29388" />
        <path d="m538 378l1-1-19.5.5-19.5.5h-12.5-12.5l19 2 19 2 12.5-2 12.5-2" style="fill:#b5736a;stroke:#b5736a" />
        <g style="fill:#79352b;stroke:#79352b">
            <path d="m535 40h1l-8-7-8-7-12.5-1-12.5-1-11 1-11 1-4.5 8-4.5 8 1 1.5 1 1.5 1 1 1 1 .5 2 .5 2 .5 2.5.5 2.5.5 1 .5 1 .5 1.5.5 1.5 1.5 1 1.5 1v-2-2-1-1-1-1-2-2-3-3l-.5-1.5-.5-1.5v-1-1l-.5-.5-.5-.5.5-.5.5-.5 1-.5 1-.5 1.5-.5 1.5-.5.5-.5.5-.5h1 1 1 1 1.5 1.5 1 1l.5.5.5.5h1 1l1 .5 1 .5h1 1l.5.5.5.5h1 1l.5 1 .5 1h1 1 3 3 2.5 2.5l1.5.5 1.5.5h2.5 2.5l1.5-.5 1.5-.5h2.5 2.5l1.5-.5 1.5-.5 1.5.5 1.5.5" />
            <path d="m528 174l1-2-1.5 1-1.5 1-.5 2-.5 2-1 1-1 1-1 1.5-1 1.5-1 1-1 1-1.5 1-1.5 1h-1.5-1.5l3 .5 3 .5 1-1 1-1 .5-1 .5-1 .5-.5.5-.5 1-1 1-1 .5-1 .5-1 .5-.5.5-.5.5-1.5.5-1.5v-.5-.5" />
        </g>
        <path d="m525 169l1-2v-1.5-1.5l-.5 1.5-.5 1.5-1 1-1 1-.5 1-.5 1-.5.5-.5.5-.5 1.5-.5 1.5-1 .5-1 .5-1-1-1-1 .5 2.5.5 2.5h1.5 1.5l.5-2 .5-2 1-1 1-1 1-1.5 1-1.5v-.5-.5" style="fill:#b29388;stroke:#b29388" />
        <path d="m523 74l1-3v-2-2l-1-1.5-1-1.5-1-1-1-1-1 .5-1 .5.5 1.5.5 1.5 1 1.5 1 1.5.5 1.5.5 1.5.5 1 .5 1" style="fill:#675348;stroke:#675348" />
        <path d="m521 126l-2-27-5.5-10-5.5-10-1 2.5-1 2.5 5 10.5 5 10.5.5 13 .5 13 2-2.5 2-2.5" style="fill:#dbd7cb;stroke:#dbd7cb" />
        <path d="m518 189l1-1-3-.5-3-.5-2-22.5-2-22.5-1-13-1-13-3-10.5-3-10.5-6-8-6-8-7-8-7-8-1.5-1-1.5-1-.5-1.5-.5-1.5-.5-1-.5-1-.5.5-.5.5v2 2h-1-1-1-1l-.5.5-.5.5-1-.5-1-.5-.5-.5-.5-.5-1.5-.5-1.5-.5 7 6.5 7 6.5 9 6.5 9 6.5 6.5 9 6.5 9 .5 14 .5 14 1.5 14.5 1.5 14.5 2.5 16 2.5 16 2-.5 2-.5 1-.5 1-.5v-.5-.5" style="fill:#3b3024;stroke:#3b3024" />
        <path d="m517 194l-1-1-2-.5-2-.5-2.5-16-2.5-16-1.5-14.5-1.5-14.5-.5-14-.5-14-6.5-9-6.5-9-9-6.5-9-6.5-7-6.5-7-6.5-.5-2-.5-2-.5-1.5-.5-1.5v-1-1-1.5-1.5l-6.5-3.5-6.5-3.5-6.5-8-6.5-8-11-3.5-11-3.5-13-1.5-13-1.5-14 .5-14 .5-9.5 5-9.5 5-9.5 4.5-9.5 4.5-10 4.5-10 4.5-4.5-10-4.5-10-.5-11.5-.5-11.5h-16-16-15.5-15.5-15.5-15.5-15.5-15.5-15.5-15.5-15.5-15.5-16-16-15.5-15.5-15.5-15.5-2.5-2.5v13 13 15.5 15.5 8 8l2 1 2 1 1 1.5 1 1.5 1 1 1 1 .5 1.5.5 1.5-.5 2-.5 2v2 2l-1 .5-1 .5v1 1h-1-1l-.5.5-.5.5-1.5.5-1.5.5v16 16 10 10l13 3 13 3 11.5-.5 11.5-.5 12.5-1.5 12.5-1.5 12-2.5 12-2.5 18 5.5 18 5.5-11.5 4.5-11.5 4.5-13 2.5-13 2.5-13 2.5-13 2.5-13 2.5-13 2.5-16.5 3.5-16.5 3.5v15.5 15.5 15.5 15.5 13.5 13.5l1.5.5 1.5.5h2 2l1.5.5 1.5.5 1 1.5 1 1.5-.5 1.5-.5 1.5-.5 2-.5 2 .5 1.5.5 1.5 2 .5 2 .5v2 2l-.5 1.5-.5 1.5-.5 2-.5 2-1 1.5-1 1.5-1.5.5-1.5.5-2-.5-2-.5h-2-2v15 15 15.5 15.5 15.5 15.5 15.5 15.5 15.5 15.5 3.5 3.5l12-1.5 12-1.5 6.5 4 6.5 4 7.5-1.5 7.5-1.5 7-8 7-8 10.5 1.5 10.5 1.5-3-11.5-3-11.5-1-13.5-1-13.5-2-12.5-2-12.5-2-12-2-12-1.5-12.5-1.5-12.5 2-12 2-12 5-10 5-10 4.5-9.5 4.5-9.5 5-9.5 5-9.5 8.5-6 8.5-6 15.5-9 15.5-9 5-9 5-9 11-3.5 11-3.5 8-6.5 8-6.5 10.5-.5 10.5-.5 4 10 4 10 8.5 13.5 8.5 13.5 1-.5 1-.5v-1-1-1-1h1 1l.5-.5.5-.5h1.5 1.5l.5.5.5.5.5.5.5.5h1 1l.5.5.5.5v1.5 1.5l.5.5.5.5.5.5.5.5.5.5.5.5.5 1 .5 1v1 1 1.5 1.5l4.5 11 4.5 11-2 10-2 10-3 11-3 11-6 8-6 8 2 8.5 2 8.5 9.5 1.5 9.5 1.5 8.5-5.5 8.5-5.5 6.5-7.5 6.5-7.5 2-19 2-19 1.5-9 1.5-9-3-11-3-11-7.5-6.5-7.5-6.5 4.5-10.5 4.5-10.5 3.5-10.5 3.5-10.5 3.5-10.5 3.5-10.5 2-12.5 2-12.5.5-11 .5-11 2.5-11 2.5-11 7.5-1.5 7.5-1.5 8 7 8 7 5.5 8 5.5 8 2-10.5 2-10.5 8.5-7 8.5-7h7 7 7 7l9 4.5 9 4.5 9.5 14.5 9.5 14.5-8.5 7-8.5 7 7.5 8 7.5 8-3.5 8-3.5 8-11 4.5-11 4.5-9.5-4-9.5-4h-11-11l-4 10-4 10-5.5 10-5.5 10 4.5 11 4.5 11 6 8.5 6 8.5-4.5.5-4.5.5h-10-10l-9.5 6-9.5 6 9 2.5 9 2.5 7 8.5 7 8.5 9.5 14 9.5 14h16 16l11.5-1.5 11.5-1.5 10.5-4 10.5-4 6.5-8 6.5-8 5-9.5 5-9.5 3.5-11 3.5-11 5.5-9 5.5-9 7-5 7-5 3-9 3-9" style="fill:#231609;stroke:#231609" />
        <path d="m514 280l1-1h-1.5-1.5l-1 .5-1 .5-.5.5-.5.5-1.5.5-1.5.5-.5.5-.5.5-1 1-1 1-.5.5-.5.5-1 .5-1 .5-1.5.5-1.5.5-.5.5-.5.5-.5.5-.5.5-1.5.5-1.5.5-2 1-2 1-.5 1-.5 1-1.5 1.5-1.5 1.5-1 1.5-1 1.5-1 1-1 1-1 2.5-1 2.5 10-7 10-7 8-7 8-7" style="fill:#c33d2f;stroke:#c33d2f" />
        <g style="fill:#c33207;stroke:#c33207">
            <path d="m512 467l-11-18-12.5-3-12.5-3-12-3.5-12-3.5-13-2.5-13-2.5-12-3.5-12-3.5-12-3.5-12-3.5-11.5 3-11.5 3 1 7.5 1 7.5 9 6.5 9 6.5 10.5 5 10.5 5 10 5.5 10 5.5 11 3.5 11 3.5 15 .5 15 .5 13-3 13-3 9-3.5 9-3.5" />
            <path d="m505 283l1-1-.5-.5-.5-.5-1.5.5-1.5.5-1.5 1-1.5 1-1 1-1 1-1 .5-1 .5-.5.5-.5.5-1 1.5-1 1.5 1.5-.5 1.5-.5.5-.5.5-.5.5-.5.5-.5 1.5-.5 1.5-.5 1-.5 1-.5.5-.5.5-.5 1-1 1-1" />
        </g>
        <path d="m503 45h1l-.5-1.5-.5-1.5-.5-1-.5-1h-1-1-.5-.5-2.5-2.5l-1.5-.5-1.5-.5-.5-.5-.5-.5-1-.5-1-.5h-2-2-1-1-1.5-1.5l-1.5.5-1.5.5-.5 2-.5 2v1.5 1.5 3 3l.5 1 .5 1 .5.5.5.5 1 1 1 1 1-.5 1-.5v-2-2l1-1.5 1-1.5 1-1 1-1h2.5 2.5 2.5 2.5l1.5.5 1.5.5 1-1 1-1h1.5 1.5" style="fill:#b1504a;stroke:#b1504a" />
        <path d="m502 312l1-1-19 5-19 5-12 1-12 1 8.5 1 8.5 1 11.5-2 11.5-2 10.5-4.5 10.5-4.5" style="fill:#b5736a;stroke:#b5736a" />
        <path d="m499 40h1l-.5-1-.5-1h-1-1l-.5-.5-.5-.5h-1-1l-1-.5-1-.5h-1-1l-.5-.5-.5-.5h-1-1-1.5-1.5-1-1-1-1l-.5.5-.5.5-1.5.5-1.5.5-1 .5-1 .5-.5.5-.5.5.5.5.5.5v1 1l.5 1.5.5 1.5v-1.5-1.5l.5-2 .5-2 1.5-.5 1.5-.5h1.5 1.5 1 1 2 2l1 .5 1 .5.5.5.5.5 1.5.5 1.5.5h2.5 2.5" style="fill:#9b3627;stroke:#9b3627" />
        <path d="m494 48l1-2h-2.5-2.5-2.5-2.5l-1 1-1 1-1 1.5-1 1.5v2 2l1 .5 1 .5.5.5.5.5.5-.5.5-.5.5-.5.5-.5 1.5-.5 1.5-.5.5-1 .5-1 .5-.5.5-.5h1.5 1.5v-1.5-1.5" style="fill:#b5736a;stroke:#b5736a" />
        <path d="m487 295l1-2-1.5 1-1.5 1-2 .5-2 .5-1 1-1 1-1.5 1-1.5 1-1 1-1 1-1.5 1-1.5 1-.5 1.5-.5 1.5-1.5.5-1.5.5-2.5 1-2.5 1-1 1.5-1 1.5h-1-1l-.5.5-.5.5h-1-1l-1.5.5-1.5.5-.5.5-.5.5h-1.5-1.5l-1 .5-1 .5h-1-1l-.5.5-.5.5-1.5.5-1.5.5 19-5.5 19-5.5 1-2.5 1-2.5 1-1 1-1 1-1.5 1-1.5 1.5-1.5 1.5-1.5" style="fill:#9b3627;stroke:#9b3627" />
        <path d="m469 378h1l-18-4.5-18-4.5 2 1 2 1 1 1 1 1 1.5 1 1.5 1 1.5.5 1.5.5 1 1 1 1 2 .5 2 .5h2 2l2-.5 2-.5h2 2 2.5 2.5" style="fill:#b5736a;stroke:#b5736a" />
        <path d="m469 57l1-1-.5-2.5-.5-2.5-.5-2-.5-2-1-1-1-1-1-1.5-1-1.5-1.5-.5-1.5-.5h-1.5-1.5l-.5.5-.5.5.5 1.5.5 1.5-1 1-1 1v1.5 1.5 1 1l.5 1.5.5 1.5.5 2 .5 2 1.5.5 1.5.5.5.5.5.5 1 .5 1 .5.5-.5.5-.5h1 1 1 1v-2-2" style="fill:#571800;stroke:#571800" />
        <path d="m451 316l1-1h-1.5-1.5-2-2-2.5-2.5-2-2l-2 .5-2 .5-1.5.5-1.5.5h-1.5-1.5l-1.5 1-1.5 1-2 .5-2 .5-1.5.5-1.5.5-1.5.5-1.5.5-2 .5-2 .5-1.5.5-1.5.5-2 .5-2 .5-1.5.5-1.5.5-2 .5-2 .5-.5.5-.5.5-1 .5-1 .5-1 .5-1 .5-1.5 1-1.5 1-2 .5-2 .5h2 2 1.5 1.5l12-4 12-4 13-3 13-3 1.5-.5 1.5-.5.5-.5.5-.5h1 1l1-.5 1-.5h1.5 1.5" style="fill:#79352b;stroke:#79352b" />
        <g style="fill:#3b3024;stroke:#3b3024">
            <path d="m447 119l-19-29-9-4.5-9-4.5h-7-7-7-7l-8.5 7-8.5 7-2 10.5-2 10.5-5.5-8-5.5-8-8-7-8-7-7.5 1.5-7.5 1.5-2.5 11-2.5 11-.5 11-.5 11-2 12.5-2 12.5-3.5 10.5-3.5 10.5-3.5 10.5-3.5 10.5-4.5 10.5-4.5 10.5 7.5 6.5 7.5 6.5 3 11 3 11-1.5 9-1.5 9 2-.5 2-.5.5-1.5.5-1.5.5-.5.5-.5.5 1 .5 1 1.5.5 1.5.5v-2.5-2.5l1-1 1-1h1 1l1-.5 1-.5h2 2l12.5 2 12.5 2 6 9 6 9 7.5 10 7.5 10 .5 1.5.5 1.5 1.5-.5 1.5-.5-9.5-14-9.5-14-7-8.5-7-8.5-9-2.5-9-2.5 9.5-6 9.5-6h10 10l4.5-.5 4.5-.5-6-8.5-6-8.5-4.5-11-4.5-11 5.5-10 5.5-10 4-10 4-10h11 11l9.5 4 9.5 4 11-4.5 11-4.5 3.5-8 3.5-8-7.5-8-7.5-8 8.5-7 8.5-7" />
            <path d="m434 193l-13-14-3 9.5-3 9.5 9-2.5 9-2.5h.5.5" />
        </g>
        <path d="m433 327v-2h-1.5-1.5l-21.5 6-21.5 6-13 2.5-13 2.5-12 3-12 3h-9-9l-12.5 2-12.5 2h-1.5-1.5l1 1 1 1h1.5 1.5l1 .5 1 .5 2.5.5 2.5.5h2.5 2.5 2 2l2-.5 2-.5h2 2l2-.5 2-.5 1.5.5 1.5.5 1.5-.5 1.5-.5 2-.5 2-.5 1.5-.5 1.5-.5 1.5-1 1.5-1h2 2l1.5-1 1.5-1 2 .5 2 .5 1.5.5 1.5.5 1.5-1 1.5-1 1-.5 1-.5 2-.5 2-.5 1.5-.5 1.5-.5 1.5-.5 1.5-.5 2-.5 2-.5h2 2 2.5 2.5l1.5-.5 1.5-.5 1.5-1 1.5-1 2.5-.5 2.5-.5 1-.5 1-.5h1 1 1 1 1.5 1.5l1-.5 1-.5 1-.5 1-.5.5-.5.5-.5 1.5-.5 1.5-.5h1.5 1.5 1.5 1.5l-1-.5-1-.5h-1.5-1.5l.5-1.5.5-1.5h1 1 1.5 1.5l1.5.5 1.5.5.5.5.5.5.5-1 .5-1 1.5-.5 1.5-.5 1-.5 1-.5h1 1l.5-.5.5-.5h1.5 1.5" style="fill:#b5736a;stroke:#b5736a" />
        <path d="m427 1l1-1h-14.5-14.5-11-11l25 .5 25 .5" style="fill:#675348;stroke:#675348" />
        <path d="m423 332l-1-2-.5 1-.5 1-.5-.5-.5-.5-1.5-.5-1.5-.5h-1.5-1.5-1-1l-.5 1.5-.5 1.5h1.5 1.5l1 .5 1 .5h1.5 1.5l1-.5 1-.5 1-.5 1-.5" style="fill:#b29388;stroke:#b29388" />
        <path d="m419 393l1-4-21 3.5-21 3.5-1-.5-1-.5h-1.5-1.5-2.5-2.5-2-2l-1.5.5-1.5.5h-2.5-2.5l-1.5-.5-1.5-.5-1-.5-1-.5-1 .5-1 .5-1-1-1-1-1.5-.5-1.5-.5-1.5 1-1.5 1 13.5 4 13.5 4 14-.5 14-.5 11.5-4 11.5-4" style="fill:#b5736a;stroke:#b5736a" />
        <path d="m405 354l1-4-1-.5-1-.5-.5-.5-.5-.5-1-1-1-1-1-1-1-1 2-.5 2-.5v-1-1l1-1.5 1-1.5-.5-.5-.5-.5-1 .5-1 .5h-1.5-1.5-1-1-1-1l-1 .5-1 .5-.5.5-.5.5-2 1-2 1-1 1-1 1-1.5 1-1.5 1-1.5.5-1.5.5h-2-2l-2 .5-2 .5h-2-2l-2 .5-2 .5-1.5.5-1.5.5-2-1-2-1-1.5 1-1.5 1-1.5-.5-1.5-.5 14 4.5 14 4.5 13-2 13-2" style="fill:#969084;stroke:#969084" />
        <path d="m394 328l1-1-11.5-7-11.5-7-2.5.5-2.5.5-2-.5-2-.5-1.5-.5-1.5-.5-1.5-1-1.5-1-1-1-1-1-1-1-1-1-1-1.5-1-1.5-1-1-1-1-1.5-2-1.5-2-.5 2-.5 2-11.5 2-11.5 2-8.5 6.5-8.5 6.5-10.5 14-10.5 14h1.5 1.5 1 1 1 1 1 1l1-.5 1-.5h1 1 1.5 1.5l5-11 5-11 8-6 8-6 13 1 13 1 12.5 10 12.5 10h3 3l2-.5 2-.5 1.5-1 1.5-1 1-.5 1-.5 1-.5 1-.5" style="fill:#782100;stroke:#782100" />
        <path d="m392 340l1-1-2.5.5-2.5.5-1.5 1-1.5 1-1.5.5-1.5.5h-2.5-2.5-2-2l-2 .5-2 .5-1.5.5-1.5.5-1.5.5-1.5.5-2 .5-2 .5-1 .5-1 .5 2 1 2 1 1.5-.5 1.5-.5 2-.5 2-.5h2 2l2-.5 2-.5h2 2l1.5-.5 1.5-.5 1.5-1 1.5-1 1-1 1-1 2-1 2-1" style="fill:#b29388;stroke:#b29388" />
        <path d="m389 334l1-1h-1.5-1.5-2-2-3-3l-.5.5-.5.5h-2.5-2.5l-1.5.5-1.5.5-2 .5-2 .5-1.5-.5-1.5-.5h-2-2-2-2-.5-.5-2-2l.5 1 .5 1 2 .5 2 .5 2.5.5 2.5.5h2 2l2-.5 2-.5h2 2l1.5-.5 1.5-.5h2.5 2.5l1.5-.5 1.5-.5 1.5-1 1.5-1h2.5 2.5" style="fill:#9b3627;stroke:#9b3627" />
        <path d="m378 394l-8-13-10.5-3-10.5-3 1 9.5 1 9.5 1 .5 1 .5 1.5.5 1.5.5h2.5 2.5l1.5-.5 1.5-.5h2 2 2.5 2.5 1.5 1.5l1 .5 1 .5v-1-1" style="fill:#969084;stroke:#969084" />
        <path d="m376 334l1-1-12.5-10-12.5-10-13-1-13-1-8 6-8 6-5 11-5 11h.5.5l1-.5 1-.5h1.5 1.5v-1-1h1.5 1.5l1.5-.5 1.5-.5.5-.5.5-.5 1.5-.5 1.5-.5 3.5-9 3.5-9 15 7 15 7h2 2 2 2l1.5.5 1.5.5 2-.5 2-.5 1.5-.5 1.5-.5h2.5 2.5" style="fill:#972b02;stroke:#972b02" />
        <path d="m376 309h1l-.5-1.5-.5-1.5h-.5-.5l-.5 1.5-.5 1.5-1.5.5-1.5.5-.5.5-.5.5h-2-2-1-1l-.5-.5-.5-.5h-1-1-1-1l-1-.5-1-.5-.5-.5-.5-.5v-1-1l-.5-.5-.5-.5-.5-.5-.5-.5-.5-1-.5-1-.5-.5-.5-.5-.5-.5-.5-.5v-1-1l-1-.5-1-.5-.5-.5-.5-.5-.5-.5-.5-.5v-1.5-1.5l-1-1-1-1-1.5-1.5-1.5-1.5.5 1 .5 1v1.5 1.5l1 1.5 1 1.5.5 1 .5 1 1.5 2 1.5 2 1 1 1 1 1 1.5 1 1.5 1 1 1 1 1 1 1 1 1.5 1 1.5 1 1.5.5 1.5.5 2 .5 2 .5 2.5-.5 2.5-.5 1-1 1-1 1-1 1-1" style="fill:#79352b;stroke:#79352b" />
        <path d="m375 306h1l-7.5-10-7.5-10-6-9-6-9-12.5-2-12.5-2-1.5 1-1.5 1 .5.5.5.5-.5.5-.5.5-.5.5-.5.5.5.5.5.5v1.5 1.5h1 1l.5.5.5.5.5.5.5.5v1 1h1.5 1.5l.5.5.5.5.5.5.5.5h1 1l1 .5 1 .5.5.5.5.5.5.5.5.5 1 .5 1 .5 1.5.5 1.5.5.5 1.5.5 1.5 1.5 1.5 1.5 1.5 1 1 1 1v-1.5-1.5l-1-.5-1-.5-.5-.5-.5-.5v-1-1l-.5-.5-.5-.5-1-.5-1-.5-.5-.5-.5-.5-.5-.5-.5-.5-.5-.5-.5-.5-1-.5-1-.5h-1-1l-.5-.5-.5-.5-1-.5-1-.5 2.5-5.5 2.5-5.5 9.5 6 9.5 6 9 14.5 9 14.5-1 1-1 1v.5.5l1.5-.5 1.5-.5.5-1.5.5-1.5" style="fill:#675348;stroke:#675348" />
        <path d="m373 410l1-2-2.5-.5-2.5-.5h-2-2-2-2-3.5-3.5l1 .5 1 .5 1 1 1 1h2.5 2.5l1.5.5 1.5.5h2 2l1.5-.5 1.5-.5" style="fill:#9b3627;stroke:#9b3627" />
        <path d="m373 307l-18-29-9.5-6-9.5-6-2.5 5.5-2.5 5.5-1-1.5-1-1.5-.5-.5-.5-.5 1-1.5 1-1.5 1.5-.5 1.5-.5h2.5 2.5 2 2l2 .5 2 .5.5 1.5.5 1.5 1.5 1 1.5 1 1 2 1 2 1.5 1.5 1.5 1.5.5 1.5.5 1.5 1.5 1.5 1.5 1.5.5 1.5.5 1.5 1.5 1 1.5 1 1 1 1 1 1.5.5 1.5.5.5.5.5.5.5 1 .5 1 .5 1.5.5 1.5v1.5 1.5.5.5 1.5 1.5l1-1 1-1" style="fill:#85786b;stroke:#85786b" />
        <path d="m371 305v-3h-.5-.5l-.5 1.5-.5 1.5-1 .5-1 .5h-2-2l-1-1-1-1-1.5-1-1.5-1-.5-1.5-.5-1.5-1-1.5-1-1.5-1-1-1-1-1-1-1-1 .5 1.5.5 1.5 1 1.5 1 1.5 1 1 1 1 .5 1.5.5 1.5.5.5.5.5 1 .5 1 .5 1 1 1 1 .5.5.5.5 1 .5 1 .5 1.5-.5 1.5-.5 1.5-1 1.5-1v-.5-.5" style="fill:#b29388;stroke:#b29388" />
        <g style="fill:#969084;stroke:#969084">
            <path d="m370 311l1-1v-.5-.5-1.5-1.5l-1.5 1-1.5 1-1.5.5-1.5.5-1-.5-1-.5-.5-.5-.5-.5-1-1-1-1-1-.5-1-.5-.5-.5-.5-.5-.5-1.5-.5-1.5-1-1-1-1-1-1.5-1-1.5-.5-1.5-.5-1.5-7.5-8-7.5-8 8 1.5 8 1.5-1-2-1-2-1.5-1-1.5-1-.5-1.5-.5-1.5-2-.5-2-.5h-2-2-2.5-2.5l-1.5.5-1.5.5-1 1.5-1 1.5.5.5.5.5 1 1.5 1 1.5 1 .5 1 .5.5.5.5.5h1 1l1 .5 1 .5.5.5.5.5.5.5.5.5.5.5.5.5 1 .5 1 .5.5.5.5.5v1 1l.5.5.5.5 1 .5 1 .5v1.5 1.5 1.5 1.5l.5.5.5.5.5.5.5.5 1 .5 1 .5v1 1l.5.5.5.5.5.5.5.5.5 1 .5 1 .5.5.5.5.5.5.5.5v1 1l.5.5.5.5 1 .5 1 .5h1 1 1 1l.5.5.5.5h1 1 2 2" />
            <path d="m370 302h1l-.5-1.5-.5-1.5-.5-1-.5-1-.5-.5-.5-.5-1.5-.5-1.5-.5-1-1-1-1-1.5-1-1.5-1-.5-1.5-.5-1.5-1.5-1.5-1.5-1.5.5 1.5.5 1.5v1 1l1 .5 1 .5.5.5.5.5.5.5.5.5.5.5.5.5 1 .5 1 .5.5.5.5.5.5.5.5.5.5.5.5.5 1 .5 1 .5.5 1.5.5 1.5" />
        </g>
        <path d="m369 305l1-3-.5-1.5-.5-1.5-1-.5-1-.5-.5-.5-.5-.5-.5-.5-.5-.5-.5-.5-.5-.5-1-.5-1-.5-.5-.5-.5-.5-.5-.5-.5-.5-.5-.5-.5-.5-1-.5-1-.5v-1-1l-.5-1.5-.5-1.5-.5-1.5-.5-1.5-1.5-1.5-1.5-1.5-8-1.5-8-1.5 7.5 8 7.5 8 1 1 1 1 1 1 1 1 1 1.5 1 1.5.5 1.5.5 1.5 1.5 1 1.5 1 1 1 1 1h2 2l1-.5 1-.5" style="fill:#b8b4a6;stroke:#b8b4a6" />
        <path d="m357 340l1-1-2.5-.5-2.5-.5-2-.5-2-.5h-2-2-1.5-1.5-1-1-1-1-1-1-1.5-1.5-1-1-1-1-1-1l-1 .5-1 .5h-2-2l-.5.5-.5.5-2 .5-2 .5-.5 1-.5 1-.5 1.5-.5 1.5 1.5-.5 1.5-.5h1 1l1.5-.5 1.5-.5h1.5 1.5l.5-.5.5-.5h2 2 2 2l2-.5 2-.5h2 2 2.5 2.5 2 2l1-.5 1-.5h2 2" style="fill:#c33d2f;stroke:#c33d2f" />
        <g style="fill:#c33207;stroke:#c33207">
            <path d="m356 488h1l-9.5-14-9.5-14-10.5-4.5-10.5-4.5v1 1l5.5 8 5.5 8 7 9.5 7 9.5h3.5 3.5 2 2 1.5 1.5" />
            <path d="m352 335h1l-15-7-15-7-3.5 9-3.5 9v.5.5l2-.5 2-.5.5-.5.5-.5h2 2l1-.5 1-.5h1 1 1 1 1 1 1.5 1.5 1 1 1 1 1 1 1.5 1.5 2 2l-.5-1-.5-1h2 2" />
        </g>
        <path d="m345 301l1-4-.5-1-.5-1-1-1.5-1-1.5v-1.5-1.5l-.5-1-.5-1-.5-1.5-.5-1.5-1.5-.5-1.5-.5h-.5-.5-1.5-1.5l-1.5-.5-1.5-.5-1.5-.5-1.5-.5-1.5-1-1.5-1-1.5-.5-1.5-.5-1.5-1-1.5-1-1-1-1-1-1.5-1-1.5-1-1.5-.5-1.5-.5-.5-1-.5-1-.5.5-.5.5-.5 1.5-.5 1.5-2 .5-2 .5-2 19-2 19-6.5 7.5-6.5 7.5-8.5 5.5-8.5 5.5-9.5-1.5-9.5-1.5-2-8.5-2-8.5 6-8 6-8 3-11 3-11 2-10 2-10-4.5-11-4.5-11-.5 1-.5 1-1-1-1-1-1-1-1-1-1-1.5-1-1.5-1-1-1-1h-2.5-2.5l-1.5-1.5-1.5-1.5-8.5-13.5-8.5-13.5-4-10-4-10-10.5.5-10.5.5-8 6.5-8 6.5-11 3.5-11 3.5-5 9-5 9h1 1l1.5-.5 1.5-.5 8-6.5 8-6.5 10-4.5 10-4.5 9-5 9-5 5.5 18 5.5 18-8.5 5-8.5 5h-20.5-20.5l.5 2 .5 2 5.5 9 5.5 9 1 13 1 13v-2-2-2-2h-.5-.5v2 2l-.5 2.5-.5 2.5v1.5 1.5 1.5 1.5 2 2l-.5 1.5-.5 1.5-.5 1-.5 1-1 1.5-1 1.5v.5.5l-.5 1-.5 1-.5 1.5-.5 1.5 1 21.5 1 21.5-.5.5-.5.5 1 1.5 1 1.5.5.5.5.5.5 1 .5 1 .5.5.5.5v-12-12l4.5-11.5 4.5-11.5 9.5-3 9.5-3 9-5.5 9-5.5 14 3.5 14 3.5-7 8.5-7 8.5 1 11 1 11 5 16.5 5 16.5 1-2 1-2 1-1 1-1 1-1 1-1 1-1.5 1-1.5 1-1 1-1 1-1.5 1-1.5.5-1.5.5-1.5 1.5-1 1.5-1 2.5-.5 2.5-.5 2-.5 2-.5.5-1 .5-1h1.5 1.5l2-.5 2-.5h3 3l10.5-14 10.5-14 8.5-6.5 8.5-6.5 11.5-2 11.5-2" style="fill:#571800;stroke:#571800" />
        <path d="m341 488h1l-7-9.5-7-9.5-5.5-8-5.5-8-1-.5-1-.5-.5-1.5-.5-1.5-1-1.5-1-1.5-1-1-1-1 2.5 12 2.5 12 9 10 9 10h2.5 2.5 1.5 1.5" style="fill:#972b02;stroke:#972b02" />
        <path d="m337 283h1l-1-.5-1-.5-.5-.5-.5-.5-.5-.5-.5-.5-1-.5-1-.5h-1-1l-.5-.5-.5-.5-.5-.5-.5-.5h-1.5-1.5v-1-1l-.5-.5-.5-.5-.5-.5-.5-.5h-1-1v-1.5-1.5l-.5-.5-.5-.5.5-.5.5-.5.5-.5.5-.5-.5-.5-.5-.5 1.5-1 1.5-1h-2-2l-1 .5-1 .5h-1-1l-1 1-1 1v2.5 2.5l1.5 1 1.5 1 1 1 1 1 1.5 1 1.5 1 1.5.5 1.5.5 1.5 1 1.5 1 1.5.5 1.5.5 1.5.5 1.5.5h1.5 1.5" style="fill:#79352b;stroke:#79352b" />
        <path d="m332 488h1l-9-10-9-10-2.5-12-2.5-12v-.5-.5h-.5-.5l-1-.5-1-.5h-1.5-1.5l.5 1 .5 1 1 1 1 1 .5 1.5.5 1.5-.5 1.5-.5 1.5-1 1.5-1 1.5v1 1l.5 1.5.5 1.5.5.5.5.5h1.5 1.5l.5 1.5.5 1.5-.5 2-.5 2-1 1-1 1-1 1-1 1-1.5 1-1.5 1-1 1-1 1h-2-2-1.5-1.5-1-1l-1.5.5-1.5.5h-.5-.5l-1.5.5-1.5.5-1 1-1 1-.5.5-.5.5v1.5 1.5l-.5 2-.5 2h15 15 10.5 10.5" style="fill:#782100;stroke:#782100" />
        <path d="m331 395l1-1-3-.5-3-.5-1.5.5-1.5.5-1 1.5-1 1.5-1 1-1 1 1.5-.5 1.5-.5h1 1l1.5-.5 1.5-.5 1-.5 1-.5 1-.5 1-.5" style="fill:#b5736a;stroke:#b5736a" />
        <path d="m328 415l1-3-.5-1-.5-1-1 .5-1 .5-1.5.5-1.5.5-.5 1-.5 1 .5.5.5.5.5 1.5.5 1.5h1.5 1.5l.5-1.5.5-1.5" style="fill:#9b3627;stroke:#9b3627" />
        <path d="m327 10l-19 6 .5 4 .5 4 9-6.5 9-6.5v-.5-.5" style="fill:#675348;stroke:#675348" />
        <path d="m320 358l-1-1 .5-1 .5-1h-2-2l-2 .5-2 .5h-2-2-2.5-2.5l-2.5-.5-2.5-.5 2 16 2 16 4.5-6.5 4.5-6.5 4.5-8 4.5-8" style="fill:#969084;stroke:#969084" />
        <g style="fill:#9b3627;stroke:#9b3627">
            <path d="m317 453v-2l-.5-1.5-.5-1.5v-2.5-2.5l-.5-1.5-.5-1.5v-1.5-1.5l-1.5-1.5-1.5-1.5-2-.5-2-.5v2 2l1 1 1 1v2 2 .5.5l1 1 1 1 1 1.5 1 1.5.5 1.5.5 1.5 1 .5 1 .5" />
            <path d="m315 342l1-2v-.5-.5l-1.5.5-1.5.5-.5.5-.5.5-1.5.5-1.5.5h-1.5-1.5v1 1h-1.5-1.5l-1 .5-1 .5-.5.5-.5.5-1 .5-1 .5-1 1-1 1 2.5-.5 2.5-.5 2-.5 2-.5 1.5-.5 1.5-.5 2-.5 2-.5h1 1l.5-1.5.5-1.5" />
        </g>
        <path d="m310 468l1-4-.5-1.5-.5-1.5h-1.5-1.5v1.5 1.5l.5.5.5.5-.5 1.5-.5 1.5-.5 1-.5 1-1.5 1-1.5 1-1 1-1 1-2 1-2 1h2 2l1-1 1-1 1.5-1 1.5-1 1-1 1-1 1-1 1-1" style="fill:#972b02;stroke:#972b02" />
        <path d="m309 443h1v-2-2l-1-1-1-1v-2-2l-1.5-.5-1.5-.5-1.5 1-1.5 1v1 1l-1 1.5-1 1.5-.5 1.5-.5 1.5-.5 1.5-.5 1.5 1-.5 1-.5h1 1l1-1 1-1h1.5 1.5l1 .5 1 .5" style="fill:#79352b;stroke:#79352b" />
        <path d="m308 423l1-3-.5-1.5-.5-1.5v-1.5-1.5l-9.5-18-9.5-18-2.5-4.5-2.5-4.5 1.5 11.5 1.5 11.5 3 12 3 12 1.5 10.5 1.5 10.5 2 11.5 2 11.5h1 1l-.5-1.5-.5-1.5-1-1.5-1-1.5-1-2-1-2 .5-2.5.5-2.5.5-1.5.5-1.5.5-1.5.5-1.5 1-1.5 1-1.5v-1-1l1.5-1 1.5-1 1.5.5 1.5.5v-2-2-3-3" style="fill:#675348;stroke:#675348" />
        <path d="m307 468l1-3-.5-.5-.5-.5v-1.5-1.5l-.5-.5-.5-.5-1.5.5-1.5.5 1 2 1 2-.5 1.5-.5 1.5-12.5 3-12.5 3-10.5-1.5-10.5-1.5-10-5-10-5-7-7-7-7-5.5-9.5-5.5-9.5 4.5-11 4.5-11 9-12.5 9-12.5-1.5-.5-1.5-.5-.5 1-.5 1h-1-1l-1.5 1-1.5 1-1.5 1.5-1.5 1.5-1 1-1 1-.5 1-.5 1-1 1-1 1v1 1l-1 .5-1 .5-1 1-1 1-1 1.5-1 1.5-1 1-1 1-.5 1-.5 1-6-4.5-6-4.5-7-16-7-16-.5-1.5-.5-1.5-1-1-1-1-1 1.5-1 1.5-.5 1-.5 1 4.5 10.5 4.5 10.5 4 10.5 4 10.5-1 .5-1 .5v3.5 3.5l2 1.5 2 1.5v2 2l-.5 1.5-.5 1.5-.5 2-.5 2-.5 1.5-.5 1.5-.5 2-.5 2 .5 1.5.5 1.5-2 1-2 1 .5 1 .5 1 .5 1.5.5 1.5-.5 1.5-.5 1.5v1 1l-2 1-2 1-1.5.5-1.5.5-1.5 1-1.5 1h-2-2l-1-1-1-1-.5 1-.5 1v1.5 1.5l-1 1-1 1-1 1-1 1-.5 1.5-.5 1.5v2.5 2.5l1 1 1 1 1 1.5 1 1.5v2 2l1.5.5 1.5.5 10-14 10-14 .5-2 .5-2 .5-.5.5-.5 1-.5 1-.5.5-1.5.5-1.5.5-1.5.5-1.5.5-.5.5-.5 1-.5 1-.5 1.5-.5 1.5-.5.5.5.5.5.5 1 .5 1 .5 1.5.5 1.5.5.5.5.5.5 1 .5 1 1 1 1 1v1.5 1.5l1 1 1 1 8 5 8 5 10 5.5 10 5.5 16 1.5 16 1.5 1.5-.5 1.5-.5h1 1 1.5 1.5l2-1 2-1 1-1 1-1 1.5-1 1.5-1 .5-1 .5-1" style="fill:#9b3627;stroke:#9b3627" />
        <path d="m307 452l1-3-.5-1.5-.5-1.5-1-1-1-1-.5-1-.5-1-1 1-1 1-.5 1-.5 1v1 1 1 1l.5.5.5.5-.5 1.5-.5 1.5h-1-1l1 1.5 1 1.5.5 1.5.5 1.5.5.5.5.5 1.5-.5 1.5-.5-.5-1.5-.5-1.5v-1-1l1-1.5 1-1.5" style="fill:#571800;stroke:#571800" />
        <path d="m304 468l1-3-1-2-1-2-.5-.5-.5-.5h-1-1v.5.5l.5 2.5.5 2.5v1 1h-22.5-22.5l-1.5-.5-1.5-.5-1.5-1-1.5-1-1.5-.5-1.5-.5-1.5-1-1.5-1-1-1-1-1-1.5-1-1.5-1-1-1-1-1-1.5-.5-1.5-.5-1-1.5-1-1.5-6.5-9-6.5-9 2-12.5 2-12.5 9.5-13.5 9.5-13.5.5-1 .5-1v-1-1l-1.5 1.5-1.5 1.5-9 12.5-9 12.5-4.5 11-4.5 11 5.5 9.5 5.5 9.5 7 7 7 7 10 5 10 5 10.5 1.5 10.5 1.5 12.5-3 12.5-3" style="fill:#b1504a;stroke:#b1504a" />
        <path d="m301 468v-2l-.5-2.5-.5-2.5h-1-1l.5 2 .5 2-.5 1.5-.5 1.5h-21-21 22.5 22.5" style="fill:#b5736a;stroke:#b5736a" />
        <path d="m301 454l1-3-.5-.5-.5-.5v-1-1-1-1l.5-1 .5-1h-1-1l-1 .5-1 .5-.5 2.5-.5 2.5 1 2 1 2h1 1" style="fill:#3b3024;stroke:#3b3024" />
        <path d="m300 346l1-1h-.5-.5-1.5-1.5-1-1l-1 .5-1 .5h-1-1-1-1-1-1-1.5-1.5-3-3l-2 .5-2 .5h-1.5-1.5l-.5 1-.5 1 1.5-.5 1.5-.5h1.5 1.5 2 2 1 1l1 .5 1 .5h2 2l.5-.5.5-.5 1 .5 1 .5h1.5 1.5 1 1l1-1 1-1 1-.5 1-.5" style="fill:#79352b;stroke:#79352b" />
        <path d="m298 468l1-3-.5-2-.5-2-1-1-1-1h-.5-.5-.5-.5l1 2 1 2-.5 1.5-.5 1.5-11.5 1-11.5 1-10-3-10-3-9-6-9-6-5-9-5-9 1-10 1-10 8-14 8-14h-.5-.5l-6 9.5-6 9.5-5 9-5 9 6.5 15.5 6.5 15.5 1 1.5 1 1.5 1.5.5 1.5.5 1 1 1 1 1.5 1 1.5 1 1 1 1 1 1.5 1 1.5 1 1.5.5 1.5.5 1.5 1 1.5 1 1.5.5 1.5.5h21 21" style="fill:#b29388;stroke:#b29388" />
        <path d="m295 466l1-3-1-2-1-2-.5-13-.5-13-2.5-12-2.5-12h-.5-.5l-3.5-12-3.5-12 1.5-14.5 1.5-14.5-9.5 1-9.5 1-11 13-11 13-8 14-8 14-1 10-1 10 5 9 5 9 9 6 9 6 10 3 10 3 11.5-1 11.5-1" style="fill:#b8b4a6;stroke:#b8b4a6" />
        <path d="m295 459h1l-1-13.5-1-13.5-3-11.5-3-11.5 2.5 12 2.5 12 .5 13 .5 13h.5.5" style="fill:#969084;stroke:#969084" />
        <path d="m293 350l1-1h-1.5-1.5l-1-.5-1-.5-.5.5-.5.5h-2-2l-1-.5-1-.5h-1-1-2-2-1.5-1.5l-1.5.5-1.5.5-2 .5-2 .5-.5.5-.5.5-.5 1.5-.5 1.5 1-.5 1-.5 1-1 1-1h1.5 1.5l2.5-.5 2.5-.5h2.5 2.5l1.5.5 1.5.5h2 2l1-.5 1-.5h1.5 1.5" style="fill:#675348;stroke:#675348" />
        <path d="m290 460l1-26-3.5-12-3.5-12-3.5-12-3.5-12 .5-13 .5-13-7.5 1-7.5 1-7 8.5-7 8.5-5.5 10-5.5 10-5.5 10-5.5 10 2 11.5 2 11.5 8 7.5 8 7.5 11.5 4 11.5 4 10-2.5 10-2.5" style="fill:#dbd7cb;stroke:#dbd7cb" />
        <path d="m290 114l-7-22-9 4.5-9 4.5-5 10.5-5 10.5 10.5 5 10.5 5 7-8.5 7-8.5v-.5-.5" style="fill:#3b3024;stroke:#3b3024" />
        <path d="m288 477h1l-16-1.5-16-1.5-10-5.5-10-5.5-8-5-8-5 8.5 17.5 8.5 17.5h3.5 3.5 2 2 2.5 2.5 2 2 2.5 2.5 2 2 2 2 2.5 2.5 2 2 .5.5l.5-2 .5-2v-1.5-1.5l.5-.5.5-.5 1-1 1-1 1.5-.5 1.5-.5" style="fill:#972b02;stroke:#972b02" />
        <path d="m287 409h1l-4-15-4-15 2-13 2-13h-.5-.5v1.5 1.5l-1.5 14.5-1.5 14.5 3.5 12 3.5 12" style="fill:#969084;stroke:#969084" />
        <path d="m283 353h1l-1.5-.5-1.5-.5-1.5-.5-1.5-.5h-2-2-1.5-1.5-1.5-1.5l-1 1-1 1-1 .5-1 .5-1.5 1-1.5 1-1 1-1 1-1 1-1 1-1 1.5-1 1.5-1 1-1 1-1 1.5-1 1.5-1 1-1 1-1 1.5-1 1.5-1 1-1 1-1 1.5-1 1.5v1 1l-.5 1-.5 1v1 1l11-13 11-13 9.5-1 9.5-1v-1.5-1.5" style="fill:#b29388;stroke:#b29388" />
        <path d="m265 351l1-1-2.5.5-2.5.5-1.5 1-1.5 1-.5 1.5-.5 1.5-1 1.5-1 1.5-1 1-1 1-1 1.5-1 1.5-1 1-1 1-1 1-1 1-1 2-1 2-.5 1-.5 1-1 .5-1 .5-.5.5-.5.5-.5.5-.5.5-1 .5-1 .5-.5.5-.5.5v.5.5l1.5.5 1.5.5 1.5-1.5 1.5-1.5 1-1.5 1-1.5 1-1 1-1 1-1.5 1-1.5 1-1 1-1 1-1.5 1-1.5 1-1 1-1 1-1.5 1-1.5 1-1 1-1 1-1 1-1 1.5-1 1.5-1 .5-1.5.5-1.5" style="fill:#79352b;stroke:#79352b" />
        <path d="m259 240l1-2v-1.5-1.5-1-1l-.5-1-.5-1-.5-.5-.5-.5-.5-.5-.5-.5-.5-.5-.5-.5v-1.5-1.5l-.5-.5-.5-.5h-1-1l-.5-.5-.5-.5-.5-.5-.5-.5h-1.5-1.5l-.5.5-.5.5h-1-1v1 1 1 1l-1 .5-1 .5 1.5 1.5 1.5 1.5h2.5 2.5l1 1 1 1 1 1.5 1 1.5 1 1 1 1 1 1 1 1" style="fill:#3b3024;stroke:#3b3024" />
        <path d="m247 300l-28-7-9 5.5-9 5.5-9.5 3-9.5 3-4.5 11.5-4.5 11.5v12 12l1 1.5 1 1.5 1 1 1 1 .5.5.5.5 1.5.5 1.5.5-2.5-12.5-2.5-12.5 4.5-10 4.5-10 12-2.5 12-2.5 7.5 8 7.5 8 5 10.5 5 10.5 2 13.5 2 13.5 1-.5 1-.5.5-.5.5-.5.5-.5.5-.5 1-.5 1-.5.5-1 .5-1-5-16.5-5-16.5-1-11-1-11 7-8.5 7-8.5" style="fill:#782100;stroke:#782100" />
        <path d="m241 384h1v-1-1l-9.5 13.5-9.5 13.5-2 12.5-2 12.5 6.5 9 6.5 9-6.5-15.5-6.5-15.5 5-9 5-9 6-9.5 6-9.5" style="fill:#b5736a;stroke:#b5736a" />
        <path d="m237 488h1l-8.5-17.5-8.5-17.5-1-1-1-1h-.5-.5l-1.5.5-1.5.5-1.5-.5-1.5-.5h-2.5-2.5-2-2l-1.5.5-1.5.5-10 14-10 14 .5 2 .5 2-.5 1.5-.5 1.5v.5.5h16 16 12.5 12.5" style="fill:#c33207;stroke:#c33207" />
        <path d="m237 379l1-1-2-13.5-2-13.5-5-10.5-5-10.5-7.5-8-7.5-8-12 2.5-12 2.5-4.5 10-4.5 10 2.5 12.5 2.5 12.5h.5.5l.5-1 .5-1 1-1.5 1-1.5-1-12.5-1-12.5 9-5 9-5 8.5 6.5 8.5 6.5 6 19.5 6 19.5v1.5 1.5 1.5 1.5l-.5.5-.5.5v1 1l-.5 1-.5 1 1.5-1.5 1.5-1.5 1.5-1 1.5-1h1 1l.5-1 .5-1v-.5-.5" style="fill:#972b02;stroke:#972b02" />
        <path d="m230 376l-12-39-8.5-6.5-8.5-6.5-9 5-9 5 1 12.5 1 12.5 1 1 1 1 .5 1.5.5 1.5 6.5 8 6.5 8 7 11.5 7 11.5 1-1 1-1 1-1.5 1-1.5 1-1 1-1 1-.5 1-.5v-1-1l1-1 1-1 .5-1 .5-1 1-1 1-1 .5-1 .5-1v-1-1l.5-.5.5-.5v-1.5-1.5-1.5-1.5" style="fill:#c33207;stroke:#c33207" />
        <path d="m219 223l-11-36-9 5-9 5-10 4.5-10 4.5-8 6.5-8 6.5 2.5-.5 2.5-.5 10.5-4.5 10.5-4.5 9.5-6 9.5-6 7.5 8.5 7.5 8.5-9 6.5-9 6.5h-17-17l-.5 3-.5 3h20.5 20.5l8.5-5 8.5-5" style="fill:#782100;stroke:#782100" />
        <g style="fill:#c33d2f;stroke:#c33d2f">
            <path d="m218 451h1v-1.5-1.5l-1-1-1-1-.5-1-.5-1-.5-.5-.5-.5-.5-1.5-.5-1.5-.5-1-.5-1-.5-.5-.5-.5-1.5.5-1.5.5-1 .5-1 .5-.5.5-.5.5-.5 1.5-.5 1.5-.5 1.5-.5 1.5-1 .5-1 .5-.5.5-.5.5-.5 2-.5 2 1.5-.5 1.5-.5h2 2 2.5 2.5l1.5.5 1.5.5 1.5-.5 1.5-.5" />
            <path d="m214 405l1-2-7-11.5-7-11.5-6.5-8-6.5-8 7 16 7 16 6 4.5 6 4.5" />
        </g>
        <path d="m214 214l-15-17-9.5 6-9.5 6-10.5 4.5-10.5 4.5.5.5.5.5h2 2l2 .5 2 .5 10.5-4.5 10.5-4.5 9 .5 9 .5-19.5 5-19.5 5-.5.5-.5.5-1 .5-1 .5h-1-1l-.5 1-.5 1v.5.5h17 17l9-6.5 9-6.5" style="fill:#972b02;stroke:#972b02" />
        <path d="m207 212l-18-1-10.5 4.5-10.5 4.5v1 1l19.5-5 19.5-5" style="fill:#c33207;stroke:#c33207" />
        <g style="fill:#79352b;stroke:#79352b">
            <path d="m200 424l1-3v-2-2l-2-1.5-2-1.5-.5.5-.5.5-1 1.5-1 1.5-1 1-1 1v1.5 1.5l-.5 1.5-.5 1.5-1 1-1 1 .5.5.5.5.5 1 .5 1 .5 1.5.5 1.5.5 2 .5 2 .5 1 .5 1 2-1 2-1-.5-1.5-.5-1.5.5-2 .5-2 .5-1.5.5-1.5.5-2 .5-2" />
            <path d="m199 406l-8-21-4.5-10.5-4.5-10.5h-.5-.5l-1.5-.5-1.5-.5-.5-.5-.5-.5-1-1-1-1-1-1.5-1-1.5-.5-.5-.5-.5h-.5-.5-.5-.5l5 10 5 10 8.5 15.5 8.5 15.5 1-.5 1-.5" />
        </g>
        <path d="m196 415l1-1v-3.5-3.5l-8.5-15.5-8.5-15.5-5-10-5-10-1-1-1-1v-1-1l-1-.5-1-.5-1-1-1-1-.5-.5-.5-.5-.5-1-.5-1-1-1-1-1-.5-.5-.5-.5-1.5-1-1.5-1 6 8.5 6 8.5 4.5 9.5 4.5 9.5 8.5 18.5 8.5 18.5-10 2.5-10 2.5 9 9.5 9 9.5h.5.5l-.5-2-.5-2-.5-1.5-.5-1.5-.5-1-.5-1-.5-.5-.5-.5 1-1 1-1 .5-1.5.5-1.5v-1.5-1.5l1-1 1-1 1-1.5 1-1.5" style="fill:#675348;stroke:#675348" />
        <path d="m195 450v-2l.5-1.5.5-1.5-.5-1.5-.5-1.5-.5-1-.5-1-.5-1-.5-1h-.5-.5v1.5 1.5l-.5 2.5-.5 2.5-.5 1-.5 1-1 1-1 1-1.5.5-1.5.5h-1-1-2-2-.5-.5v.5.5l.5.5.5.5 1 1 1 1h2 2l1.5-1 1.5-1 1.5-.5 1.5-.5 2-1 2-1" style="fill:#b1504a;stroke:#b1504a" />
        <path d="m194 414l-17-37-4.5-9.5-4.5-9.5-6-8.5-6-8.5-7.5-7-7.5-7 5-6.5 5-6.5 6.5-7.5 6.5-7.5 2.5-12.5 2.5-12.5-2.5-11.5-2.5-11.5-4.5-10.5-4.5-10.5-10.5 1.5-10.5 1.5-9 6-9 6-6.5 7.5-6.5 7.5-5 9.5-5 9.5-5.5 12.5-5.5 12.5 6-10 6-10 5.5-12 5.5-12 7.5-8 7.5-8 9-5 9-5 8.5 3.5 8.5 3.5 5.5 20 5.5 20-4.5 11.5-4.5 11.5-10.5 5-10.5 5 3 9.5 3 9.5 1.5 1 1.5 1 .5.5.5.5.5.5.5.5.5.5.5.5 1 .5 1 .5 1 1 1 1 .5.5.5.5.5.5.5.5.5.5.5.5.5 1 .5 1 .5.5.5.5.5.5.5.5.5.5.5.5.5 1 .5 1 5.5 10 5.5 10 8 15.5 8 15.5 1.5.5 1.5.5v1 1l.5 1 .5 1 .5.5.5.5v1 1l-.5 1.5-.5 1.5-9.5-3-9.5-3-4.5-10-4.5-10-6-4.5-6-4.5 4 10.5 4 10.5 5.5 9 5.5 9 8 8.5 8 8.5 1 .5 1 .5.5 1.5.5 1.5.5 1 .5 1 1 .5 1 .5v-1.5-1.5l-9-9.5-9-9.5 10-2.5 10-2.5" style="fill:#85786b;stroke:#85786b" />
        <path d="m191 446l1-5-1-.5-1-.5h-.5-.5v2.5 2.5l-1.5 1-1.5 1-1.5.5-1.5.5h-2-2v1.5 1.5h2 2 1 1l1.5-.5 1.5-.5 1-1 1-1 .5-1 .5-1" style="fill:#b5736a;stroke:#b5736a" />
        <path d="m191 413l1-3v-1-1l-.5-.5-.5-.5-.5-1-.5-1v-1-1l-1.5-.5-1.5-.5.5 1.5.5 1.5.5 1.5.5 1.5v1 1l-8-3.5-8-3.5-4.5-9.5-4.5-9.5-6.5-8.5-6.5-8.5.5 10.5.5 10.5 5 10 5 10 11.5 13 11.5 13h.5.5l-8-8.5-8-8.5-5.5-9-5.5-9-4-10.5-4-10.5 6 4.5 6 4.5 4.5 10 4.5 10 9.5 3 9.5 3" style="fill:#969084;stroke:#969084" />
        <path d="m189 440h1l-.5-1-.5-1-.5-1.5-.5-1.5-1-.5-1-.5h-.5-.5l.5 1.5.5 1.5.5 1.5.5 1.5v1 1l-.5 1-.5 1-1 1-1 1h-1-1l-1.5.5-1.5.5v.5.5h2 2l1.5-.5 1.5-.5 1.5-1 1.5-1v-2.5-2.5" style="fill:#b29388;stroke:#b29388" />
        <path d="m189 410v-2l-.5-1.5-.5-1.5-.5-1.5-.5-1.5h-.5-.5l-6-9.5-6-9.5-7-16-7-16-.5-1-.5-1-.5-.5-.5-.5-.5-.5-.5-.5-.5-.5-.5-.5-.5-1-.5-1-.5-.5-.5-.5-.5-.5-.5-.5-.5-.5-.5-.5-1-1-1-1-1-.5-1-.5-.5-.5-.5-.5-.5-.5-.5-.5-.5-.5-.5-.5-1.5-1-1.5-1-7-7.5-7-7.5-6-8.5-6-8.5v-10.5-10.5l3.5-10.5 3.5-10.5 9.5-5 9.5-5 6 7.5 6 7.5 2.5 11 2.5 11 2-8.5 2-8.5-3.5-11-3.5-11-8.5-5-8.5-5-17 11.5-17 11.5-.5 2-.5 2-4 10.5-4 10.5-7 11-7 11-3 11.5-3 11.5 3 20.5 3 20.5 2.5 12 2.5 12 2 24 2 24 1 1 1 1 .5 1 .5 1 1 1 1 1 .5.5.5.5 1 .5 1 .5 1.5.5 1.5.5h1.5 1.5l.5-8 .5-8 9.5 7.5 9.5 7.5 2 .5 2 .5 10-2.5 10-2.5h15 15l1.5-.5 1.5-.5h1 1l1-1 1-1 .5-1 .5-1v-1-1l-.5-1.5-.5-1.5-.5-1.5-.5-1.5-11.5-13-11.5-13-5-10-5-10-.5-10.5-.5-10.5 6.5 8.5 6.5 8.5 4.5 9.5 4.5 9.5 8 3.5 8 3.5" style="fill:#b8b4a6;stroke:#b8b4a6" />
        <path d="m186 402h1l-8-15.5-8-15.5-5.5-10-5.5-10 7 16 7 16 6 9.5 6 9.5" style="fill:#969084;stroke:#969084" />
        <path d="m180 487l1-3-.5-2-.5-2-1.5-.5-1.5-.5v-2-2l-1-1.5-1-1.5-1-1-1-1v1.5 1.5 1 1 1 1l.5.5.5.5v1.5 1.5 2 2 1.5 1.5h1.5 1.5 1.5 1.5v-.5-.5" style="fill:#972b02;stroke:#972b02" />
        <path d="m180 438l-12-17-6.5-9-6.5-9-4.5-11-4.5-11-2-11.5-2-11.5 10 2.5 10 2.5-5.5-10-5.5-10-9-6.5-9-6.5-8.5-7-8.5-7-7.5-8-7.5-8-4-.5-4-.5-5.5 10-5.5 10-1.5 13.5-1.5 13.5 2.5 13 2.5 13 2.5 13 2.5 13 1 14.5 1 14.5 4.5 11 4.5 11 1.5-6 1.5-6 4-8.5 4-8.5 11 4.5 11 4.5 8 7.5 8 7.5 8.5-6 8.5-6 7 3 7 3" style="fill:#dbd7cb;stroke:#dbd7cb" />
        <path d="m178 455l1-2-.5-.5-.5-.5h-.5-.5l-1.5-.5-1.5-.5-1-.5-1-.5-1.5-.5-1.5-.5h-1-1l-1 .5-1 .5h1.5 1.5l1.5.5 1.5.5.5 1 .5 1v1.5 1.5l.5 1 .5 1v3.5 3.5l.5-1.5.5-1.5 1-1 1-1 1-1 1-1v-1.5-1.5" style="fill:#79352b;stroke:#79352b" />
        <path d="m178 451h1v-1.5-1.5h-.5-.5l-9.5-1-9.5-1-15 3-15 3-2-.5-2-.5h-.5-.5l-1.5-1-1.5-1-1.5-.5-1.5-.5v-1-1l-.5-.5-.5-.5-.5-.5-.5-.5-.5 1-.5 1v1 1 1 1l-.5.5-.5.5-1 .5-1 .5h-1-1l-.5.5-.5.5h-1-1l-1-.5-1-.5h-1.5-1.5l-1.5-.5-1.5-.5-1-.5-1-.5-.5-.5-.5-.5-1-1-1-1-.5-1-.5-1-1-1-1-1h-.5-.5l-.5-1-.5-1-.5-1.5-.5-1.5v-1-1l-.5-1-.5-1 6 9.5 6 9.5 10.5-.5 10.5-.5 11-1 11-1 18 .5 18 .5" style="fill:#85786b;stroke:#85786b" />
        <path d="m178 448h1v-.5-.5h-15-15l-10 2.5-10 2.5 15-3 15-3 9.5 1 9.5 1" style="fill:#969084;stroke:#969084" />
        <path d="m177 452h1v-.5-.5l-18-.5-18-.5-11 1-11 1-10.5.5-10.5.5-6-9.5-6-9.5h-.5-.5l-1-13.5-1-13.5-1.5-14-1.5-14-2-13.5-2-13.5-2-13-2-13 4.5-11 4.5-11 5.5-12.5 5.5-12.5 5-9.5 5-9.5 6.5-7.5 6.5-7.5 9-6 9-6 10.5-1.5 10.5-1.5 4.5 10.5 4.5 10.5 2.5 11.5 2.5 11.5-2.5 12.5-2.5 12.5-6.5 7.5-6.5 7.5-5 6.5-5 6.5 7.5 7 7.5 7-6.5-8-6.5-8 11.5-12 11.5-12 .5-1 .5-1 1-1.5 1-1.5v-2-2l.5-2 .5-2 .5-1.5.5-1.5.5-1.5.5-1.5v-2-2-1.5-1.5-1-1-1.5-1.5-1-1l-.5-.5-.5-.5v-1-1-1.5-1.5l-.5-.5-.5-.5v-1-1-1-1l-.5-1-.5-1v-1-1l-.5-.5-.5-.5v-1-1l-1-.5-1-.5-.5-1.5-.5-1.5-.5-.5-.5-.5-.5-.5-.5-.5-.5-.5-.5-.5-.5-1-.5-1-.5-2-.5-2-.5-2-.5-2-1-1-1-1-.5-2-.5-2-1-1-1-1h-2-2l-11 4-11 4-8.5 7-8.5 7-6.5 9-6.5 9-5 10.5-5 10.5-5.5 10-5.5 10-3.5 12-3.5 12 2 12 2 12 2.5 12.5 2.5 12.5 1.5 14 1.5 14 1.5 14 1.5 14 5 9 5 9 12 1 12 1 23-2.5 23-2.5 1-.5 1-.5h1 1l1.5.5 1.5.5 1 .5 1 .5 1.5.5 1.5.5" style="fill:#675348;stroke:#675348" />
        <path d="m175 281l-2-26-5.5-9-5.5-9h-.5-.5v2 2l.5 1 .5 1 .5.5.5.5.5.5.5.5.5.5.5.5.5 1.5.5 1.5 1 .5 1 .5v1 1l.5.5.5.5v1 1l.5 1 .5 1v1 1 1 1l.5.5.5.5v1.5 1.5 1 1l.5.5.5.5v1 1 1.5 1.5 1 1 1.5 1.5l.5 2 .5 2 .5-2.5.5-2.5v-2-2h.5.5v2 2 2 2" style="fill:#3b3024;stroke:#3b3024" />
        <path d="m173 488h1v-1.5-1.5-2-2-1.5-1.5l-.5-.5-.5-.5v-1-1-1-1-1.5-1.5-2.5-2.5-3.5-3.5h-.5-.5l-.5 1.5-.5 1.5-.5.5-.5.5v1 1l-.5 1-.5 1v1 1 1 1l-.5.5-.5.5.5 1 .5 1 .5 1.5.5 1.5v1 1 1.5 1.5 2 2 1.5 1.5h1.5 1.5" style="fill:#782100;stroke:#782100" />
        <path d="m172 458h1l-.5-1-.5-1v-1.5-1.5h-.5-.5-2.5-2.5-1.5-1.5l.5 1.5.5 1.5-.5 1.5-.5 1.5-6 4.5-6 4.5 4.5 10 4.5 10h3.5 3.5 1.5 1.5v-1.5-1.5-2-2-1.5-1.5-1-1l-.5-1.5-.5-1.5-.5-1-.5-1 .5-.5.5-.5v-1-1-1-1l.5-1 .5-1v-1-1l.5-.5.5-.5.5-1.5.5-1.5" style="fill:#571800;stroke:#571800" />
        <path d="m172 295l1-3v-2-2-1.5-1.5-1.5-1.5l-.5-2-.5-2v2 2l-.5 1.5-.5 1.5-.5 1.5-.5 1.5-.5 2-.5 2v2 2l-1 1.5-1 1.5-.5 1-.5 1 1.5-.5 1.5-.5 1-1.5 1-1.5.5-1 .5-1" style="fill:#79352b;stroke:#79352b" />
        <g style="fill:#3b3024;stroke:#3b3024">
            <path d="m171 453h1l-.5-1-.5-1-1.5-.5-1.5-.5h-1.5-1.5l-23 2.5-23 2.5-12-1-12-1-5-9-5-9-1.5-14-1.5-14-1.5-14-1.5-14-2.5-12.5-2.5-12.5-2-12-2-12 3.5-12 3.5-12 5.5-10 5.5-10 5-10.5 5-10.5 6.5-9 6.5-9 8.5-7 8.5-7 11-4 11-4 .5-1 .5-1v-1.5-1.5h-1-1l-15.5 9-15.5 9-8.5 6-8.5 6-5 9.5-5 9.5-4.5 9.5-4.5 9.5-5 10-5 10-2 12-2 12 1.5 12.5 1.5 12.5 2 12 2 12 2 12.5 2 12.5 1 13.5 1 13.5 3 11.5 3 11.5-10.5-1.5-10.5-1.5-7 8-7 8-7.5 1.5-7.5 1.5-6.5-4-6.5-4-12 1.5-12 1.5v10.5 10.5h5 5 15.5 15.5 15.5 15.5 11 11l-1-9.5-1-9.5 4-3.5 4-3.5 12-1.5 12-1.5 19.5-3 19.5-3h1.5 1.5 2.5 2.5" />
            <path d="m171 356h1l-.5-1-.5-1-.5-.5-.5-.5-1-1.5-1-1.5-7.5-8-7.5-8 7-14 7-14 .5-1.5.5-1.5.5-1 .5-1v-.5-.5l-1.5.5-1.5.5-11.5 12-11.5 12 6.5 8 6.5 8 1.5 1 1.5 1 .5.5.5.5 1 1 1 1 .5 1 .5 1 .5.5.5.5 1 1 1 1 1 .5 1 .5v1 1l1 1 1 1h.5.5" />
        </g>
        <path d="m169 349l-2-43-7 14-7 14 7.5 8 7.5 8 .5-.5.5-.5" style="fill:#231609;stroke:#231609" />
        <path d="m167 223l1-1v-1-1l-2-.5-2-.5h-2-2l-1 .5-1 .5-.5 1.5-.5 1.5.5.5.5.5 1 .5 1 .5 1 .5 1 .5.5-1 .5-1h1 1l1-.5 1-.5" style="fill:#9b3627;stroke:#9b3627" />
        <path d="m166 281l-11-40-8.5-3.5-8.5-3.5-9 5-9 5-7.5 8-7.5 8 17-11.5 17-11.5 8.5 5 8.5 5 3.5 11 3.5 11-2 8.5-2 8.5-2.5-11-2.5-11-6-7.5-6-7.5-9.5 5-9.5 5-3.5 10.5-3.5 10.5v10.5 10.5l6 8.5 6 8.5 7 7.5 7 7.5-3-9.5-3-9.5 10.5-5 10.5-5 4.5-11.5 4.5-11.5" style="fill:#969084;stroke:#969084" />
        <path d="m163 459l1-3-.5-1.5-.5-1.5-19.5 3-19.5 3-12 1.5-12 1.5-4 3.5-4 3.5 1 9.5 1 9.5h3.5 3.5 2 2 1 1l8-6.5 8-6.5 11 6.5 11 6.5h1.5 1.5 2 2 2.5 2.5 1.5 1.5l-4.5-10-4.5-10 6-4.5 6-4.5" style="fill:#231609;stroke:#231609" />
        <path d="m161 237h1l-.5-2-.5-2 .5-3 .5-3v-.5-.5l-1-.5-1-.5-1-.5-1-.5-.5-.5-.5-.5.5-1.5.5-1.5 1-.5 1-.5-.5-.5-.5-.5-2.5.5-2.5.5-1.5.5-1.5.5v1.5 1.5l-.5 1-.5 1h2 2l1 1 1 1 .5 2 .5 2 1 1 1 1 .5 2 .5 2 .5 2 .5 2v-2-2" style="fill:#79352b;stroke:#79352b" />
        <g style="fill:#3b3024;stroke:#3b3024">
            <path d="m144 488h1l-11-6.5-11-6.5-8 6.5-8 6.5h1.5 1.5 2.5 2.5 2 2 2.5 2.5 2 2 2.5 2.5 2 2 2 2 1.5 1.5" />
            <path d="m134 156l-36-11-12 2.5-12 2.5-12.5 1.5-12.5 1.5-11.5.5-11.5.5-13-3-13-3v1.5 1.5 2.5 2.5 2 2 2 2 2.5 2.5 2 2 2.5 2.5 2 2 2.5 2.5l16.5-3.5 16.5-3.5 13-2.5 13-2.5 13-2.5 13-2.5 13-2.5 13-2.5 11.5-4.5 11.5-4.5" />
        </g>
        <path d="m132 448l1-3-.5-1.5-.5-1.5-2-.5-2-.5-.5-1.5-.5-1.5h-1.5-1.5l-.5 1.5-.5 1.5.5 2 .5 2 1 1 1 1 1 1 1 1 2 .5 2 .5v-1-1" style="fill:#dbd7cb;stroke:#dbd7cb" />
        <g style="fill:#969084;stroke:#969084">
            <path d="m124 451h1l-9.5-7.5-9.5-7.5-.5 8-.5 8 1 .5 1 .5h1 1l.5-.5.5-.5h1 1l1-.5 1-.5.5-.5.5-.5v-1-1-1-1l.5-1 .5-1 .5.5.5.5.5.5.5.5v1 1l1.5.5 1.5.5 1.5 1 1.5 1" />
            <path d="m104 264l1-4-5.5 12-5.5 12-6 10-6 10v1.5 1.5l7-11 7-11 4-10.5 4-10.5" />
            <path d="m90 443h1l-2-24-2-24-2.5-12-2.5-12 1.5 13 1.5 13 1 18.5 1 18.5.5 1 .5 1v1 1l.5 1.5.5 1.5.5 1 .5 1" />
        </g>
        <path d="m86 434h1l-1-18.5-1-18.5-1.5-13-1.5-13h-.5-.5v-2.5-2.5l-.5-1.5-.5-1.5-.5-2-.5-2-.5-1.5-.5-1.5-.5-2-.5-2 2 13.5 2 13.5 1.5 14 1.5 14 1 13.5 1 13.5" style="fill:#85786b;stroke:#85786b" />
        <path d="m81 371h1l-3-20.5-3-20.5 3-11.5 3-11.5h-.5-.5l-2 22.5-2 22.5.5 2 .5 2 .5 1.5.5 1.5.5 2 .5 2 .5 1.5.5 1.5v2.5 2.5" style="fill:#969084;stroke:#969084" />
        <path d="m81 307h1v-1.5-1.5l-4.5 11-4.5 11 2 13 2 13 2-22.5 2-22.5" style="fill:#85786b;stroke:#85786b" />
        <g style="fill:#3b3024;stroke:#3b3024">
            <path d="m81 269l-16-7-8.5 7-8.5 7-.5 6-.5 6 9.5 4 9.5 4 5-9.5 5-9.5 2.5-4 2.5-4" />
            <path d="m14 299l1-3v-2-2l-2-.5-2-.5-.5-1.5-.5-1.5.5-2 .5-2 .5-1.5.5-1.5-1-1.5-1-1.5-1.5-.5-1.5-.5h-2-2l-1.5-.5-1.5-.5v2.5 2.5 2.5 2.5 2 2 2.5 2.5 2 2 2.5 2.5 1 1h2 2l2 .5 2 .5 1.5-.5 1.5-.5 1-1.5 1-1.5.5-2 .5-2" />
            <path d="m8 87l1-4-.5-1.5-.5-1.5-1-1-1-1-1-1.5-1-1.5-2-1-2-1v3.5 3.5 2 2 2 2 2.5 2.5 1.5 1.5l1.5-.5 1.5-.5.5-.5.5-.5h1 1v-1-1l1-.5 1-.5v-2-2" />
        </g>
    </g>
</svg>
