<svg xmlns="http://www.w3.org/2000/svg" viewBox="0 0 960 488">
    <g style="fill:#22150a">
        <path d="m0 0h960v488h-960z" />
        <path d="m959 488h1v-8-8-9-9-9-9-9-9-8.5-8.5-9-9-9-9-9-9-8.5-8.5-9-9-9-9-9-9-8.5-8.5-9-9-9-9-9-9-8.5-8.5-9-9-2-2h-.5-.5l-6-1.5-6-1.5-6.5 1.5-6.5 1.5-6.5 1.5-6.5 1.5-7.5 1.5-7.5 1.5-6 1.5-6 1.5-6.5 1.5-6.5 1.5-6 3-6 3-9-2.5-9-2.5-4.5 4-4.5 4-2.5 5.5-2.5 5.5-8 1-8 1h-8-8l-8.5-.5-8.5-.5.5 5 .5 5 4.5 4.5 4.5 4.5 4 5 4 5 4.5 3 4.5 3 3.5 5.5 3.5 5.5 5 4 5 4 2 7 2 7 3.5 5 3.5 5 3.5 5.5 3.5 5.5 3 6 3 6 .5 7.5.5 7.5 5.5 3.5 5.5 3.5 3.5 4 3.5 4 5 4 5 4 6.5 2.5 6.5 2.5 5 4 5 4 3 5.5 3 5.5 4.5 4.5 4.5 4.5 3.5 5.5 3.5 5.5 3.5 5.5 3.5 5.5 3.5 5 3.5 5 1.5 7.5 1.5 7.5 2.5 6.5 2.5 6.5 1.5 6.5 1.5 6.5-.5 7-.5 7 .5 15 .5 15h2 2" style="stroke:#22150a;stroke-linejoin:round;stroke-width:.7" />
    </g>
    <g style="stroke-linejoin:round;stroke-width:.7">
        <path d="m959 166h1v-1.5-1.5-2-2-2.5-2.5-2-2-2.5-2.5h-.5-.5l-4-4.5-4-4.5-2.5-6.5-2.5-6.5-3.5-5-3.5-5-5-1-5-1h-6-6l2.5-1 2.5-1 5-2 5-2v-6.5-6.5l-4.5-3.5-4.5-3.5-6 3-6 3h-.5-.5l-.5 1-.5 1-1.5 1-1.5 1 .5 1.5.5 1.5.5 2 .5 2v1 1l-.5.5-.5.5h-2.5-2.5l-1 1-1 1h-2-2l-.5 6-.5 6 4 4 4 4 8.5-.5 8.5-.5 1.5 4.5 1.5 4.5-3 2.5-3 2.5-2 7-2 7-6.5-.5-6.5-.5-4 5-4 5-6 3-6 3-4-1.5-4-1.5-6 1-6 1-4.5 5.5-4.5 5.5 9 2.5 9 2.5 6-3 6-3 6.5-1.5 6.5-1.5 6-1.5 6-1.5 7.5-1.5 7.5-1.5 6.5-1.5 6.5-1.5 6.5-1.5 6.5-1.5 6 1.5 6 1.5" style="fill:#571804;stroke:#571804" />
        <path d="m959 145h1v-10.5-10.5-8.5-8.5-9-9-9-9-9-9-8.5-8.5-9-9-9-9h-9-9-5-5l-.5 1-.5 1-5 2.5-5 2.5-5.5 3-5.5 3-7.5.5-7.5.5-3.5 5.5-3.5 5.5-5.5-2.5-5.5-2.5-5 3.5-5 3.5-1.5 5.5-1.5 5.5v4 4l-5-1-5-1-4 4.5-4 4.5 3 13 3 13 2.5-6 2.5-6 6-2.5 6-2.5 5-4 5-4 4 3 4 3 3.5-.5 3.5-.5 2.5-5 2.5-5 2.5 5.5 2.5 5.5 3.5 5 3.5 5-.5 1-.5 1h-1.5-1.5-1-1l-.5 1-.5 1-.5 1.5-.5 1.5h-1-1-1-1-1-1l-1-.5-1-.5-1-1-1-1-.5-.5-.5-.5h-1.5-1.5v2 2l-.5.5-.5.5-1 1.5-1 1.5v2 2 2 2l1 1.5 1 1.5 1 1 1 1 .5 1.5.5 1.5 1.5 1 1.5 1v2 2l1 2 1 2h2 2l1-1 1-1h2.5 2.5l.5-.5.5-.5v-1-1l-.5-2-.5-2-.5-1.5-.5-1.5-7-.5-7-.5 9.5-1.5 9.5-1.5 6-3 6-3 4.5 3.5 4.5 3.5v6.5 6.5l-5 2-5 2-2.5 1-2.5 1h6 6l5 1 5 1 3.5 5 3.5 5 2.5 6.5 2.5 6.5 4 4.5 4 4.5" style="fill:#22150a;stroke:#22150a" />
        <path d="m954 488h1l-.5-15-.5-15 .5-7 .5-7-1.5-6.5-1.5-6.5-2.5-6.5-2.5-6.5-1.5-7.5-1.5-7.5-3.5-5-3.5-5-3.5-5.5-3.5-5.5-3.5-5.5-3.5-5.5-4.5-4.5-4.5-4.5-3-5.5-3-5.5-5-4-5-4-6.5-2.5-6.5-2.5-5-4-5-4-3.5-4-3.5-4-5.5-3.5-5.5-3.5-.5-7.5-.5-7.5-3-6-3-6-3.5-5.5-3.5-5.5-3.5-5-3.5-5-2-7-2-7-5-4-5-4-3.5-5.5-3.5-5.5-4.5-3-4.5-3-4-5-4-5-4.5-4.5-4.5-4.5-.5-5-.5-5-1.5-.5-1.5-.5h-1-1v-1-1l-1-.5-1-.5h-2-2l1 5.5 1 5.5 3.5 5 3.5 5 4.5 4.5 4.5 4.5 2.5 6 2.5 6 4 5 4 5 4 5 4 5 5 4 5 4 3.5 5 3.5 5 3.5 5.5 3.5 5.5 2 7 2 7 1.5 6.5 1.5 6.5 3.5 5 3.5 5 5.5 3.5 5.5 3.5 5 4 5 4 5 4 5 4 5.5 3 5.5 3 5 4 5 4 4 5 4 5 4.5 4.5 4.5 4.5 2.5 6.5 2.5 6.5 3.5 5 3.5 5 2.5 5.5 2.5 5.5 1 7 1 7 2 7 2 7v8.5 8.5l.5 15 .5 15h2.5 2.5 1 1" style="fill:#571804;stroke:#571804" />
        <path d="m946 488h1l-.5-15-.5-15v-8.5-8.5l-2-7-2-7-1-7-1-7-2.5-5.5-2.5-5.5-3.5-5-3.5-5-2.5-6.5-2.5-6.5-4.5-4.5-4.5-4.5-4-5-4-5-5-4-5-4-5.5-3-5.5-3-5-4-5-4-5-4-5-4-5.5-3.5-5.5-3.5-3.5-5-3.5-5-1.5-6.5-1.5-6.5-2-7-2-7-3.5-5.5-3.5-5.5-3.5-5-3.5-5-5-4-5-4-4-5-4-5-4-5-4-5-2.5-6-2.5-6-4.5-4.5-4.5-4.5-3.5-5-3.5-5-1-5.5-1-5.5-1-1.5-1-1.5-1-1-1-1-.5-.5-.5-.5-1-.5-1-.5-1-1-1-1-.5 1.5-.5 1.5 1 1.5 1 1.5.5 1 .5 1 3 6 3 6 4 5 4 5 3.5 7.5 3.5 7.5v.5.5l4.5 4 4.5 4 3.5 5 3.5 5 4 5 4 5 4.5 6.5 4.5 6.5 1.5 1 1.5 1v1 1l.5.5.5.5.5.5.5.5.5 1 .5 1 .5.5.5.5.5.5.5.5.5.5.5.5v1.5 1.5l1 1 1 1 1 1 1 1 .5 2 .5 2 .5 1.5.5 1.5.5 2 .5 2v1 1l-.5 2-.5 2 1.5 6 1.5 6 5 4 5 4 5 4 5 4 5.5 3.5 5.5 3.5 5 3.5 5 3.5 6 3 6 3 3.5 5.5 3.5 5.5 4.5 4.5 4.5 4.5 4 4.5 4 4.5 3 6 3 6 3 6 3 6 1.5 7.5 1.5 7.5 3 5.5 3 5.5 1 8 1 8v8 8l.5 10.5.5 10.5h1.5 1.5" style="fill:#761f05;stroke:#761f05" />
        <path d="m942 488h1l-.5-10.5-.5-10.5v-8-8l-1-8-1-8-3-5.5-3-5.5-1.5-7.5-1.5-7.5-3-6-3-6-3-6-3-6-4-4.5-4-4.5-4.5-4.5-4.5-4.5-3.5-5.5-3.5-5.5-6-3-6-3-5-3.5-5-3.5-5.5-3.5-5.5-3.5-5-4-5-4-5-4-5-4-1.5-6-1.5-6-.5 1.5-.5 1.5-.5.5-.5.5v1 1l-1 1-1 1 4 5 4 5 4.5 3.5 4.5 3.5 5.5 3.5 5.5 3.5 4.5 4 4.5 4 5.5 3.5 5.5 3.5 5 3 5 3 4 5 4 5 4 5.5 4 5.5h1.5 1.5l.5.5.5.5.5.5.5.5v1 1l.5 1 .5 1 .5.5.5.5v1 1l.5.5.5.5.5 1 .5 1v1 1h1 1v1 1l.5 1 .5 1 .5 1.5.5 1.5.5 1.5.5 1.5.5 2 .5 2 .5 1.5.5 1.5h1 1l.5 1 .5 1 1 1 1 1 .5.5.5.5v1.5 1.5 2 2l2 7 2 7 1.5 6.5 1.5 6.5 1 7.5 1 7.5v10.5 10.5h1 1" style="fill:#992f18;stroke:#992f18" />
        <path d="m939 488h1v-10.5-10.5l-1-7.5-1-7.5-1.5-6.5-1.5-6.5-2-7-2-7h-.5-.5v-2.5-2.5l-.5-.5-.5-.5-.5-1-.5-1-1.5-.5-1.5-.5-.5-2-.5-2v-1-1l-.5-2-.5-2-.5-1.5-.5-1.5-.5-1.5-.5-1.5h-.5-.5l-.5-1-.5-1-1-1-1-1-1-1.5-1-1.5-.5-1.5-.5-1.5-.5-2-.5-2-1-1-1-1-1-1-1-1-4-5.5-4-5.5-4-5-4-5-5-3-5-3-5.5-3.5-5.5-3.5-4.5-4-4.5-4-5.5-3.5-5.5-3.5-4.5-3.5-4.5-3.5-4-5-4-5v-1-1l-.5 9.5-.5 9.5v7 7l4.5-3 4.5-3 6 2 6 2 3.5 5.5 3.5 5.5 3 5 3 5 1.5 5 1.5 5 4.5 4.5 4.5 4.5 3 4 3 4-1.5 6.5-1.5 6.5 3.5 5 3.5 5 .5 6.5.5 6.5 3 6 3 6 2.5 4.5 2.5 4.5 2.5-3 2.5-3 3 6 3 6 4 3 4 3 1.5 5.5 1.5 5.5 3-6 3-6 2.5 1 2.5 1 1.5 12.5 1.5 12.5h.5.5" style="fill:#bf4f47;stroke:#bf4f47" />
        <path d="m937 488h1l-1.5-12.5-1.5-12.5-2.5-1-2.5-1-3 6-3 6-1.5-5.5-1.5-5.5-4-3-4-3-3-6-3-6-2.5 3-2.5 3-2.5-4.5-2.5-4.5-3-6-3-6-.5-6.5-.5-6.5-3.5-5-3.5-5 1.5-6.5 1.5-6.5-3-4-3-4-4.5-4.5-4.5-4.5-1.5-5-1.5-5-3-5-3-5-3.5-5.5-3.5-5.5-6-2-6-2-4.5 3-4.5 3v-7-7l.5-9.5.5-9.5.5-2.5.5-2.5v-2-2l.5-2 .5-2-.5-1.5-.5-1.5-.5-2-.5-2-.5-1.5-.5-1.5-1-1-1-1-.5-1-.5-1-1-.5-1-.5-.5-1.5-.5-1.5-1.5-2-1.5-2h-.5-.5l-1-1.5-1-1.5-.5-.5-.5-.5v-1.5-1.5l-1-1-1-1-.5-.5-.5-.5-.5-1-.5-1-1-1-1-1h-.5-.5l.5 1.5.5 1.5.5.5.5.5v1 1l.5 1 .5 1 .5.5.5.5.5.5.5.5.5.5.5.5.5 1 .5 1 .5 1.5.5 1.5.5.5.5.5.5.5.5.5.5.5.5.5.5 1.5.5 1.5 1 1 1 1 1 1 1 1 .5.5.5.5 1 .5 1 .5.5 1.5.5 1.5v1 1 1.5 1.5 2 2l-.5 1.5-.5 1.5-2 7-2 7-3 5.5-3 5.5-1 7-1 7 2 7 2 7 3 6 3 6 2.5 6 2.5 6 4 4 4 4 3.5 5.5 3.5 5.5-6.5-2.5-6.5-2.5-2.5 5-2.5 5-1 5-1 5 5.5-2.5 5.5-2.5 4.5.5 4.5.5v5.5 5.5l2.5 6.5 2.5 6.5 5 3 5 3 5.5 2.5 5.5 2.5 2 7 2 7 1 9 1 9-.5 1-.5 1 .5 2 .5 2h9 9 9 9 9 9" style="fill:#a9615b;stroke:#a9615b" />
        <path d="m931 2l1-2h-9.5-9.5-8.5-8.5-9-9-9-9-9-9-3.5-3.5l.5 7 .5 7-.5 6.5-.5 6.5-1 7-1 7 4 11 4 11-2 6.5-2 6.5-1 7.5-1 7.5.5 7.5.5 7.5v8 8 8 8l-.5 8-.5 8-1 8-1 8 .5 7.5.5 7.5-2 6-2 6h-8.5-8.5l-7-1-7-1-8.5-.5-8.5-.5-.5.5-.5.5 1 .5 1 .5v1 1h1 1l1.5.5 1.5.5 8.5.5 8.5.5h8 8l8-1 8-1 2.5-5.5 2.5-5.5 4.5-4 4.5-4 4.5-5.5 4.5-5.5 6-1 6-1 4 1.5 4 1.5 6-3 6-3 4-5 4-5 6.5.5 6.5.5 2-7 2-7 3-2.5 3-2.5-1.5-4.5-1.5-4.5-8.5.5-8.5.5-4-4-4-4 .5-6 .5-6-1-2-1-2v-2-2l-1.5-1-1.5-1-.5-1.5-.5-1.5-1-1-1-1-1-1.5-1-1.5v-2-2-2-2l-3.5-5.5-3.5-5.5-3 3.5-3 3.5-.5 7.5-.5 7.5.5 5.5.5 5.5 1.5 7.5 1.5 7.5-4.5 1-4.5 1-2.5-5.5-2.5-5.5-2.5-6-2.5-6-2.5-9-2.5-9-3-13-3-13 4-4.5 4-4.5 5 1 5 1v-4-4l1.5-5.5 1.5-5.5 5-3.5 5-3.5 5.5 2.5 5.5 2.5 3.5-5.5 3.5-5.5 7.5-.5 7.5-.5 5.5-3 5.5-3 5-2.5 5-2.5" style="fill:#3d372b;stroke:#3d372b" />
        <path d="m930 425h1v-2-2-1.5-1.5l-.5-.5-.5-.5-1-1-1-1-.5-1-.5-1h-1-1l-.5-1.5-.5-1.5v1 1l.5 2 .5 2 1.5.5 1.5.5.5 1 .5 1 .5.5.5.5v2.5 2.5" style="fill:#ce3d29;stroke:#ce3d29" />
        <path d="m928 452l-4-11-2 6-2 6 2-1 2-1 1.5.5 1.5.5h.5.5" style="fill:#a9615b;stroke:#a9615b" />
        <path d="m920 400h1l-.5-1-.5-1v-1-1h-1-1v-1-1l-.5-1-.5-1-.5-.5-.5-.5v-1-1l-.5-.5-.5-.5-.5-1-.5-1v-1-1l-.5-.5-.5-.5-.5-.5-.5-.5h-1.5-1.5l1 1 1 1 1 1 1 1 .5 2 .5 2 .5 1.5.5 1.5 1 1.5 1 1.5 1 1 1 1 .5 1 .5 1" style="fill:#ce3d29;stroke:#ce3d29" />
        <path d="m911 70l-7-10-2.5-5.5-2.5-5.5-2.5 5-2.5 5-3.5.5-3.5.5-4-3-4-3-5 4-5 4-6 2.5-6 2.5-2.5 6-2.5 6 2.5 9 2.5 9 2.5 6 2.5 6 2.5 5.5 2.5 5.5 4.5-1 4.5-1-1.5-7.5-1.5-7.5-.5-5.5-.5-5.5.5-7.5.5-7.5 3-3.5 3-3.5 3.5 5.5 3.5 5.5 1-1.5 1-1.5.5-.5.5-.5v-2-2h1.5 1.5l.5.5.5.5 1 1 1 1 1 .5 1 .5h1 1 1 1 1 1l.5-1.5.5-1.5.5-1 .5-1h1 1 1.5 1.5l.5-1 .5-1" style="fill:#571804;stroke:#571804" />
        <path d="m910 91h1l-9.5 1.5-9.5 1.5 7 .5 7 .5 1.5-1 1.5-1 .5-1 .5-1" style="fill:#3d372b;stroke:#3d372b" />
        <path d="m883 482l-2-18-2-7-2-7-5.5-2.5-5.5-2.5-5-3-5-3-2.5-6.5-2.5-6.5v-5.5-5.5l-4.5-.5-4.5-.5-5.5 2.5-5.5 2.5 1-5 1-5 2.5-5 2.5-5 6.5 2.5 6.5 2.5-3.5-5.5-3.5-5.5-4-4-4-4-2.5-6-2.5-6-3-6-3-6-2-7-2-7 1-7 1-7 3-5.5 3-5.5 2-7 2-7-2.5-.5-2.5-.5-3-6-3-6 2-4 2-4-.5-1.5-.5-1.5-.5-.5-.5-.5-.5-.5-.5-.5-.5-.5-.5-.5-.5-1.5-.5-1.5-.5-1-.5-1-.5-.5-.5-.5-.5-.5-.5-.5-.5-.5-.5-.5-.5-1-.5-1v-1-1l-.5-.5-.5-.5-.5-1.5-.5-1.5-1-.5-1-.5-1-1-1-1-.5-.5-.5-.5-.5-1-.5-1-1-1-1-1-.5-.5-.5-.5-.5-.5-.5-.5-.5-.5-.5-.5-.5-1-.5-1-.5-.5-.5-.5-.5-.5-.5-.5-.5-.5-.5-.5-.5-1-.5-1-1-1-1-1-.5-.5-.5-.5-.5-1-.5-1-1-1.5-1-1.5h-.5-.5l-.5-1-.5-1-1-1-1-1-3.5 3.5-3.5 3.5 5 3.5 5 3.5 5 4 5 4 5 4 5 4-3 2-3 2-5 3-5 3 1 5.5 1 5.5-.5 8.5-.5 8.5 1.5 5.5 1.5 5.5-7.5-.5-7.5-.5-1.5 7-1.5 7-2 7-2 7 5 4 5 4 6.5 2.5 6.5 2.5 4.5 4.5 4.5 4.5-1.5-5-1.5-5 5 3.5 5 3.5 4.5 4 4.5 4 2.5 12 2.5 12-.5 1-.5 1-.5 1-.5 1-1 .5-1 .5-.5 1.5-.5 1.5-1.5 1-1.5 1-1 1-1 1v1 1l-1 1.5-1 1.5-.5 1.5-.5 1.5-.5 2-.5 2v1.5 1.5l4 2.5 4 2.5 2.5 2.5 2.5 2.5.5 8 .5 8 1 8 1 8 3.5 5.5 3.5 5.5 1.5 8 1.5 8h3 3 2 2 2 2 2.5 2.5 2 2 2.5 2.5 2 2 2.5 2.5 2 2l-.5-2-.5-2 .5-1 .5-1" style="fill:#8d776c;stroke:#8d776c" />
        <path d="m864 127l1-3-1-1-1-1-2-.5-2-.5-1-1-1-1-1.5 1-1.5 1v1 1l1.5 1 1.5 1 1 1 1 1h2 2 .5.5" style="fill:#571804;stroke:#571804" />
        <path d="m850 465l-5-10-3 4-3 4 5 3 5 3 .5-2 .5-2" style="fill:#928e81;stroke:#928e81" />
        <path d="m841 488h1l-1.5-8-1.5-8-3.5-5.5-3.5-5.5-1-8-1-8-.5-8-.5-8-2.5-2.5-2.5-2.5-4-2.5-4-2.5-.5 1-.5 1v2 2l-1 1-1 1-.5 1.5-.5 1.5-.5 2-.5 2-1-1-1-1-2 .5-2 .5-1.5.5-1.5.5-1 1.5-1 1.5-.5 2-.5 2 4.5-2.5 4.5-2.5 4 .5 4 .5 1.5 7.5 1.5 7.5 2.5 6.5 2.5 6.5 3 11.5 3 11.5h2 2 2.5 2.5 1 1" style="fill:#a9615b;stroke:#a9615b" />
        <path d="m841 63l-8-22 1-7 1-7 .5-6.5.5-6.5-.5-7-.5-7h-9.5-9.5-9-9-9-9-8.5-8.5-2.5-2.5l4.5 3.5 4.5 3.5 4 4.5 4 4.5 3 6 3 6-5 1-5 1 5.5 3.5 5.5 3.5 2.5 6 2.5 6-4 5-4 5-2.5 6.5-2.5 6.5-3 6-3 6-2 6.5-2 6.5 1.5 7.5 1.5 7.5 2.5 5.5 2.5 5.5 1 5 1 5 5 2.5 5 2.5 3 6 3 6 .5 6.5.5 6.5-4 5-4 5 8.5 4 8.5 4-6 1.5-6 1.5-3-6-3-6-3-2-3-2-5 .5-5 .5-4.5-1.5-4.5-1.5 1.5-3.5 1.5-3.5-4.5-4.5-4.5-4.5-4.5-4-4.5-4-5 1-5 1-4-3-4-3-5 7.5-5 7.5 1.5 1 1.5 1h2 2 2 2 2.5 2.5l1.5.5 1.5.5 7.5 1.5 7.5 1.5 3.5 4.5 3.5 4.5 5.5 3.5 5.5 3.5 4.5 4 4.5 4 3.5 5.5 3.5 5.5 8.5.5 8.5.5 7 1 7 1h8.5 8.5l2-6 2-6-.5-7.5-.5-7.5 1-8 1-8 .5-8 .5-8v-8-8-8-8l-.5-7.5-.5-7.5 1-7.5 1-7.5 2-6.5 2-6.5" style="fill:#504b3f;stroke:#504b3f" />
        <path d="m840 304v-2l-.5-2-.5-2-.5-1.5-.5-1.5-.5-2-.5-2-1-1-1-1-1-1-1-1h-.5-.5-.5-.5l.5 1 .5 1 1 1 1 1 .5 1.5.5 1.5.5 2 .5 2 .5 1.5.5 1.5-.5 2-.5 2v2 2l-.5 2.5-.5 2.5v1 1l1-1 1-1v-1-1l.5-.5.5-.5.5-1.5.5-1.5.5-2 .5-2" style="fill:#7a3428;stroke:#7a3428" />
        <path d="m838 61l-7-6h-7-7l-7 1-7 1 5.5 2.5 5.5 2.5 6.5 2 6.5 2 5.5-2.5 5.5-2.5" style="fill:#77584b;stroke:#77584b" />
        <path d="m833 308l1-3v-2-2-1.5-1.5-1-1l-.5-1.5-.5-1.5-1-.5-1-.5-.5-.5-.5-.5-1-1-1-1-1-1-1-1-2 4-2 4 3 6 3 6 2.5.5 2.5.5" style="fill:#928e81;stroke:#928e81" />
        <path d="m832 287h1v-1.5-1.5l-.5-.5-.5-.5-.5-.5-.5-.5-.5-.5-.5-.5-.5-1-.5-1-.5-.5-.5-.5-.5-.5-.5-.5v-1-1l-1.5-1-1.5-1v2 2l.5 1 .5 1 1.5 2 1.5 2 .5 1.5.5 1.5 1 .5 1 .5h.5.5" style="fill:#992f18;stroke:#992f18" />
        <g style="fill:#77584b;stroke:#77584b">
            <path d="m831 193l-7-6-7.5 1.5-7.5 1.5-4 1-4 1 7 2 7 2 7.5-1 7.5-1 .5-.5.5-.5" />
            <path d="m830 392l-5-24-4.5-4-4.5-4-5-3.5-5-3.5 1.5 5 1.5 5 1 1 1 1 .5.5.5.5.5.5.5.5 1 .5 1 .5.5.5.5.5v1 1l.5.5.5.5.5 1 .5 1v1 1 1 1l.5.5.5.5-.5 1.5-.5 1.5v1.5 1.5 1 1l-.5.5-.5.5v1 1l-.5 1-.5 1-.5 1.5-.5 1.5-.5 2-.5 2-.5 1.5-.5 1.5v1 1l-.5 1-.5 1-1 1-1 1-.5.5-.5.5-.5.5-.5.5v1 1l-1 .5-1 .5v1.5 1.5l-1 1-1 1-.5.5-.5.5v1 1l-.5.5-.5.5v1.5 1.5l-.5.5-.5.5-.5.5-.5.5v1 1l-.5 1-.5 1-.5.5-.5.5h-1-1l-.5.5-.5.5-1 .5-1 .5-1 1-1 1-.5.5-.5.5-.5 1-.5 1-1 1.5-1 1.5-.5 1-.5 1-7.5.5-7.5.5-6.5.5-6.5.5-5-4-5-4-.5 3-.5 3 6.5 2 6.5 2 7.5 1.5 7.5 1.5 7.5-.5 7.5-.5 1-1 1-1-.5-1-.5-1v-1-1l.5-.5.5-.5v-1-1l1-.5 1-.5.5-.5.5-.5h1 1v2 2l1-1 1-1 .5-2 .5-2 1-1.5 1-1.5 1.5-.5 1.5-.5 2-.5 2-.5 1 1 1 1 .5-2 .5-2 .5-1.5.5-1.5 1-1 1-1v-2-2l.5-1 .5-1v-1.5-1.5l.5-2 .5-2 .5-1.5.5-1.5 1-1.5 1-1.5v-1-1l1-1 1-1 1.5-1 1.5-1 .5-1.5.5-1.5 1-.5 1-.5.5-1 .5-1 .5-1 .5-1" />
        </g>
        <path d="m829 488h1l-3-11.5-3-11.5-2.5-6.5-2.5-6.5-1.5-7.5-1.5-7.5-4-.5-4-.5-4.5 2.5-4.5 2.5-1 1-1 1-.5.5-.5.5-.5 1.5-.5 1.5-1.5.5-1.5.5-1 1-1 1-.5 1-.5 1-4 4-4 4h-6.5-6.5l-6.5 2.5-6.5 2.5-3.5 5.5-3.5 5.5-3.5 6-3.5 6h1.5 1.5 2.5 2.5 2 2 2 2l3-6 3-6 7.5-.5 7.5-.5 6-3 6-3 2.5-6 2.5-6 4-5 4-5 4.5 3.5 4.5 3.5 1 8 1 8 .5 9 .5 9h2.5 2.5 2.5 2.5 2 2" style="fill:#bf4f47;stroke:#bf4f47" />
        <path d="m824 279h1l-.5-1-.5-1v-2-2l-4.5-6.5-4.5-6.5-4-5-4-5-3.5-5-3.5-5-4.5-4-4.5-4 .5 1.5.5 1.5 4 5.5 4 5.5 7.5 9.5 7.5 9.5 1 1 1 1 .5 1 .5 1 .5.5.5.5 1 1 1 1v1.5 1.5l.5.5.5.5 1 1.5 1 1.5" style="fill:#7a3428;stroke:#7a3428" />
        <path d="m818 382l1-3-.5-.5-.5-.5v-1-1-1-1l-.5-1-.5-1-.5-.5-.5-.5v-1-1l-.5-.5-.5-.5-1-.5-1-.5-.5-.5-.5-.5-.5-.5-.5-.5-1-1-1-1 1 1.5 1 1.5 1 1 1 1 1 1.5 1 1.5.5 1.5.5 1.5.5 2 .5 2v2 2l-.5 1.5-.5 1.5v3.5 3.5l.5-1 .5-1v-1-1l.5-.5.5-.5v-1-1-1.5-1.5" style="fill:#8d776c;stroke:#8d776c" />
        <path d="m816 385l1-3v-2-2l-.5-2-.5-2-.5-1.5-.5-1.5-1-1.5-1-1.5-1-1-1-1-1-1.5-1-1.5-4.5-4.5-4.5-4.5-6.5-2.5-6.5-2.5-5-4-5-4 2-7 2-7 1.5-7 1.5-7 7.5.5 7.5.5-1.5-5.5-1.5-5.5.5-8.5.5-8.5-1-5.5-1-5.5 5-3 5-3 3-2 3-2-5-4-5-4-5-4-5-4-5-3.5-5-3.5 3.5-3.5 3.5-3.5-.5-1-.5-1h-.5-.5l-5 .5-5 .5-2.5-3-2.5-3-5-4-5-4-6.5-2.5-6.5-2.5v-6.5-6.5l-3-5-3-5-8-1-8-1-6.5-2.5-6.5-2.5 2.5-6 2.5-6-2.5-9-2.5-9h-1-1l.5 1 .5 1 .5.5.5.5v1 1l-.5 1.5-.5 1.5-3.5 4-3.5 4-3 5-3 5-5.5 3.5-5.5 3.5-8.5 4-8.5 4h1.5 1.5l.5-.5.5-.5h1.5 1.5l.5.5.5.5.5.5.5.5-.5 1.5-.5 1.5v1.5 1.5l-.5.5-.5.5v1 1l-.5.5-.5.5v1 1l-1 1.5-1 1.5 3-6 3-6 4.5-4 4.5-4 4.5 3.5 4.5 3.5 3.5 5.5 3.5 5.5 4 5 4 5 5.5 3 5.5 3 10 4.5 10 4.5-5 3.5-5 3.5-3-2.5-3-2.5-6.5-2-6.5-2-.5 5.5-.5 5.5-2 6-2 6-2.5-6.5-2.5-6.5 1.5-7 1.5-7-1.5-7.5-1.5-7.5-7 2-7 2-2 7-2 7-3 5.5-3 5.5-2.5 6.5-2.5 6.5v6 6l-3.5 5.5-3.5 5.5v-4.5-4.5l-6.5-3.5-6.5-3.5-.5 1-.5 1-1 1-1 1-1 1.5-1 1.5-1.5.5-1.5.5-1.5 1-1.5 1-1 1-1 1-.5.5-.5.5-3 2.5-3 2.5-5 4-5 4-5.5-1-5.5-1-4-5-4-5 4.5-11 4.5-11h-.5-.5l-.5.5-.5.5-5 4.5-5 4.5-3.5 5.5-3.5 5.5-5.5 1.5-5.5 1.5-10.5 3.5-10.5 3.5.5.5.5.5 2 2.5 2 2.5 3.5 1 3.5 1h7 7l5.5 5.5 5.5 5.5-6.5 1-6.5 1-2.5 4-2.5 4-.5 7.5-.5 7.5-1.5 6.5-1.5 6.5v8.5 8.5 8 8l.5 7.5.5 7.5-1 8.5-1 8.5v1.5 1.5 1 1l.5.5.5.5v1 1l.5 1 .5 1 .5.5.5.5.5 1 .5 1 2-5.5 2-5.5-1-6-1-6-1-8-1-8 3-5.5 3-5.5.5-7.5.5-7.5 1.5-7.5 1.5-7.5 4.5-4.5 4.5-4.5 7-1.5 7-1.5 5.5 3.5 5.5 3.5 3-1 3-1 1-7 1-7 .5-5 .5-5 3.5-2.5 3.5-2.5 5.5 1 5.5 1-1-6-1-6 1.5-3.5 1.5-3.5 2 6 2 6 2.5 5 2.5 5 .5 6.5.5 6.5.5 7.5.5 7.5.5 8 .5 8h6 6l-1-8-1-8v-8-8l.5-7 .5-7 2.5-3.5 2.5-3.5 2.5 6 2.5 6 .5 7.5.5 7.5 1.5 7.5 1.5 7.5 3 4 3 4 6-.5 6-.5 2.5 5.5 2.5 5.5-2 6-2 6v7.5 7.5l3.5 4.5 3.5 4.5 3.5 3 3.5 3v7 7l2 7 2 7v3 3l4 2.5 4 2.5v-6-6l4-1.5 4-1.5 2.5 5.5 2.5 5.5 5.5 3.5 5.5 3.5 12.5-1.5 12.5-1.5 1-1.5 1-1.5.5-1 .5-1 .5-.5.5-.5 1-1 1-1 1-.5 1-.5.5-.5.5-.5h1 1l.5-.5.5-.5.5-1 .5-1v-1-1l.5-.5.5-.5.5-.5.5-.5v-1.5-1.5l.5-.5.5-.5v-1-1l.5-.5.5-.5 1-1 1-1v-1.5-1.5l1-2 1-2 .5-1.5.5-1.5 1-1.5 1-1.5.5-1.5.5-1.5 1-1.5 1-1.5.5-1 .5-1 .5-1.5.5-1.5v-3.5-3.5" style="fill:#928e81;stroke:#928e81" />
        <path d="m814 488h1l-.5-9-.5-9-1-8-1-8-4.5-3.5-4.5-3.5-4 5-4 5-2.5 6-2.5 6-6 3-6 3-7.5.5-7.5.5-3 6-3 6h1.5 1.5 2.5 2.5 2 2 2.5 2.5 2 2 2.5 2.5 2 2 2.5 2.5 1 1l2-6.5 2-6.5.5-6.5.5-6.5 4 3 4 3 1 10 1 10h2 2 .5.5" style="fill:#ce3d29;stroke:#ce3d29" />
        <path d="m814 411l-6 5 .5 4.5.5 4.5 2-6 2-6 .5-1 .5-1" style="fill:#504b3f;stroke:#504b3f" />
        <path d="m814 399l1-4-.5 1-.5 1-1 1.5-1 1.5-.5 1.5-.5 1.5-1 1.5-1 1.5-.5 1.5-.5 1.5-1 2-1 2 1-.5 1-.5v-1-1l.5-.5.5-.5.5-.5.5-.5 1-1 1-1 .5-1 .5-1v-1-1l.5-1.5.5-1.5" style="fill:#8d776c;stroke:#8d776c" />
        <path d="m814 390l1-16-4-5-4-5-4.5-4.5-4.5-4.5-6.5-2.5-6.5-2.5-3-1-3-1h-.5-.5-6.5-6.5l-5.5 2.5-5.5 2.5-4 6-4 6-.5 1.5-.5 1.5-.5 2-.5 2-.5 1.5-.5 1.5v2 2 2.5 2.5 2 2l.5 2 .5 2v1 1l.5.5.5.5v1 1 1.5 1.5 1 1 1 1 1 1l-.5 1.5-.5 1.5-.5 1-.5 1v6 6l4 5 4 5 4.5 4 4.5 4 5.5.5 5.5.5 6.5-.5 6.5-.5 4-5 4-5 3.5-5 3.5-5 3-6 3-6 3-6 3-6 1.5-3.5 1.5-3.5" style="fill:#bab5a9;stroke:#bab5a9" />
        <path d="m814 265h1l-7.5-9.5-7.5-9.5-4-5.5-4-5.5v2 2l1 1.5 1 1.5.5 1 .5 1 .5.5.5.5 1 1 1 1 .5 1 .5 1 .5.5.5.5.5.5.5.5.5.5.5.5.5 1 .5 1 .5.5.5.5.5.5.5.5.5.5.5.5 1 1 1 1 .5 1 .5 1 .5.5.5.5 1 1 1 1 1 .5 1 .5" style="fill:#77584b;stroke:#77584b" />
        <path d="m813 386l-1-14-4.5-4.5-4.5-4.5-5.5-3.5-5.5-3.5-6.5-2.5-6.5-2.5h-6.5-6.5l-6 3-6 3-3.5 5.5-3.5 5.5-.5 8.5-.5 8.5.5 8 .5 8-1.5 7.5-1.5 7.5 3 6 3 6 4 5 4 5 6 1.5 6 1.5 6.5-.5 6.5-.5 4-5 4-5 3.5-5.5 3.5-5.5 3-5.5 3-5.5 3-6 3-6 1.5-5 1.5-5" style="fill:#dedacd;stroke:#dedacd" />
        <path d="m808 488h1l-1-10-1-10-4-3-4-3-.5 6.5-.5 6.5-2 6.5-2 6.5h2.5 2.5 2.5 2.5 2 2" style="fill:#cd3606;stroke:#cd3606" />
        <path d="m800 181l-17-8 4-5 4-5-.5-6.5-.5-6.5-3-6-3-6-5-2.5-5-2.5-1-5-1-5-2.5-5.5-2.5-5.5-1.5-7.5-1.5-7.5 2-6.5 2-6.5 3-6 3-6 2.5-6.5 2.5-6.5 4-5 4-5-2.5-6-2.5-6-5.5-3.5-5.5-3.5 5-1 5-1-3-6-3-6-4-4.5-4-4.5-4.5-3.5-4.5-3.5h-2-2-2-2-2-2-2.5-2.5-2-2-2.5-2.5-2-2-2.5-2.5-1.5-1.5l-.5 8-.5 8-.5 8.5-.5 8.5 1 11 1 11-1.5 7.5-1.5 7.5-.5 8.5-.5 8.5-1 7.5-1 7.5v8 8l.5 8.5.5 8.5 1 7 1 7-7-1-7-1-6-2.5-6-2.5 1-2 1-2 3-6 3-6-1-8-1-8-.5-7-.5-7 .5-8.5.5-8.5 1-8 1-8-.5-8.5-.5-8.5 1-5.5 1-5.5v-8-8l1.5-9.5 1.5-9.5h-9-9-9-9-9-9-8.5-8.5-9-9-9-9-9-9-8.5-8.5-9-9-9-9-9-9-8.5-8.5-9-9-9-9-9-9-8.5-8.5-9-9-9-9-9-9-8.5-8.5-9-9-9-9-6-6l4.5 5 4.5 5v8 8l-1.5 7.5-1.5 7.5-.5 7-.5 7-1 8-1 8v8 8 9 9 8.5 8.5l-1 8-1 8-1 8-1 8 1 8 1 8-.5 7-.5 7-.5 8.5-.5 8.5-.5 8.5-.5 8.5 5.5 3.5 5.5 3.5 7-.5 7-.5 8-1 8-1 5.5 2.5 5.5 2.5 2 6.5 2 6.5 6 1 6 1 6.5-1.5 6.5-1.5 6-2 6-2h7.5 7.5l7-1.5 7-1.5 4.5-4.5 4.5-4.5 5-3 5-3 7 7.5 7 7.5-.5-1-.5-1-1-1-1-1-1-1.5-1-1.5-1-1-1-1-1-1-1-1-1-1.5-1-1.5-.5-1-.5-1-1-.5-1-.5-.5-1-.5-1-1-1-1-1-1-1.5-1-1.5v-2-2l1-1 1-1 .5-.5.5-.5 1 .5 1 .5 1.5.5 1.5.5h1 1l1 .5 1 .5 1.5.5 1.5.5 8 1 8 1 7.5-1.5 7.5-1.5 8 .5 8 .5 10.5 4 10.5 4-5.5-4-5.5-4-8-1-8-1-4-2.5-4-2.5 8-1 8-1 7-2 7-2 5.5-2.5 5.5-2.5 6-1.5 6-1.5 2-7 2-7 1-7 1-7 5-4 5-4 4-2.5 4-2.5 6 3 6 3 4 3 4 3 3.5-5.5 3.5-5.5-2-6.5-2-6.5-6.5-2.5-6.5-2.5-4.5-4.5-4.5-4.5-3.5-5.5-3.5-5.5-4-4.5-4-4.5-5-4-5-4-5-2-5-2-3.5-2.5-3.5-2.5-5-3.5-5-3.5-5 4-5 4-7-1-7-1-6.5 2.5-6.5 2.5-5.5 3.5-5.5 3.5-4.5 4-4.5 4-3.5 5.5-3.5 5.5-5 4-5 4-5 3-5 3 1.5-5 1.5-5 4-5 4-5 2-7 2-7 4-5 4-5 4.5-4 4.5-4 4-5 4-5 6-3 6-3 6.5-2.5 6.5-2.5 7.5-1 7.5-1 8-1 8-1 8.5.5 8.5.5 8 1 8 1 6.5 2 6.5 2 6 3 6 3 5.5 3.5 5.5 3.5 4.5 4.5 4.5 4.5 4 4.5 4 4.5.5 6.5.5 6.5h-5-5l4.5 3.5 4.5 3.5h2.5 2.5l1.5 6.5 1.5 6.5 3.5 5.5 3.5 5.5.5 7.5.5 7.5 1 6.5 1 6.5-1.5 8-1.5 8-2.5 6.5-2.5 6.5-2.5 6.5-2.5 6.5-3 5.5-3 5.5-4 6-4 6v1.5 1.5 1.5 1.5 1 1l.5 1 .5 1v-3-3l.5-1.5.5-1.5 1-1.5 1-1.5.5-1.5.5-1.5 1.5-1 1.5-1 2.5-6 2.5-6 3.5-4.5 3.5-4.5 3-9 3-9 1.5-7.5 1.5-7.5.5-7.5.5-7.5 4-2.5 4-2.5 3.5-4.5 3.5-4.5 12.5 2.5 12.5 2.5 6.5 2 6.5 2 7 2 7 2 10 4 10 4 5-7.5 5-7.5 4 3 4 3 5-1 5-1 4.5 4 4.5 4 4.5 4.5 4.5 4.5-1.5 3.5-1.5 3.5 4.5 1.5 4.5 1.5 5-.5 5-.5 3 2 3 2 3 6 3 6 6-1.5 6-1.5" style="fill:#3d372b;stroke:#3d372b" />
        <path d="m796 444l1-1v-2-2h-1-1l-.5.5-.5.5-1 .5-1 .5v1 1l-.5.5-.5.5v1 1l.5 1 .5 1 1.5-.5 1.5-.5.5-1.5.5-1.5" style="fill:#7a3428;stroke:#7a3428" />
        <path d="m791 239h1v-2-2l-.5-1.5-.5-1.5-3.5-5-3.5-5-3.5-5.5-3.5-5.5-5.5-6-5.5-6-1-.5-1-.5-.5-2-.5-2-1-1-1-1-1-1-1-1-1.5-1-1.5-1-1-1-1-1-1-1.5-1-1.5-.5-1.5-.5-1.5-1-1.5-1-1.5-1-1-1-1-1-1.5-1-1.5-1-1-1-1-1-1.5-1-1.5-1-1-1-1-2-.5-2-.5-2-1-2-1 3 6 3 6 3.5 5 3.5 5 5 4 5 4 4 5 4 5 4.5 4.5 4.5 4.5 4 4.5 4 4.5 4 6.5 4 6.5.5 1 .5 1 1 1 1 1 .5 1 .5 1" style="fill:#a9615b;stroke:#a9615b" />
        <path d="m791 231l-7-15-4-5-4-5-3-6-3-6-.5.5-.5.5-1-.5-1-.5v1 1l-.5 1.5-.5 1.5 5.5 6 5.5 6 3.5 5.5 3.5 5.5 3.5 5 3.5 5v-.5-.5" style="fill:#7a3428;stroke:#7a3428" />
        <path d="m789 452l1-2-7.5.5-7.5.5-7.5-1.5-7.5-1.5-6.5-2-6.5-2-4.5 2-4.5 2-5-2-5-2-4-5-4-5-1.5-6.5-1.5-6.5-3.5-4-3.5-4-7.5-.5-7.5-.5-5 1-5 1v6 6l-2-3-2-3-3-3.5-3-3.5-5 4-5 4-4 5-4 5-5.5-3.5-5.5-3.5-5-3.5-5-3.5-3.5-5.5-3.5-5.5-5.5-.5-5.5-.5-3.5 5.5-3.5 5.5-3.5 5-3.5 5-5 3-5 3-5-5.5-5-5.5-.5-1-.5-1-.5-.5-.5-.5-.5-1-.5-1v-1-1l-.5-.5-.5-.5v-1-1-1.5-1.5l-1-7.5-1-7.5.5-8.5.5-8.5v-8-8-9-9-7.5-7.5l-2.5-6.5-2.5-6.5-3.5-5.5-3.5-5.5v-8-8l-.5-.5-.5-.5-1.5-1-1.5-1 .5-1.5.5-1.5 1-1 1-1 1-1.5 1-1.5.5-1.5.5-1.5 1-.5 1-.5v-1.5-1.5h-.5-.5l-1.5 1-1.5 1-.5.5-.5.5-1 .5-1 .5-1 1.5-1 1.5-3 5-3 5-.5 4.5-.5 4.5 2 7 2 7 3 5.5 3 5.5 3 6 3 6 .5 8.5.5 8.5.5 8.5.5 8.5v9 9 7.5 7.5l1 8 1 8 2 7 2 7 4 5 4 5 4.5 4 4.5 4 5.5-1.5 5.5-1.5 4.5-4.5 4.5-4.5 4.5-.5 4.5-.5 6 2.5 6 2.5 2.5 12.5 2.5 12.5v2 2 2 2 2.5 2.5 2 2 2.5 2.5l-.5 1-.5 1h2.5 2.5 2.5 2.5l2.5-6.5 2.5-6.5 4.5-3.5 4.5-3.5 6-1 6-1 4 11 4 11h10 10 9 9 9 9l3.5-6 3.5-6 3.5-5.5 3.5-5.5 6.5-2.5 6.5-2.5h6.5 6.5l4-4 4-4" style="fill:#a9615b;stroke:#a9615b" />
        <g style="fill:#8d776c;stroke:#8d776c">
            <path d="m786 444l1-2-12.5 1.5-12.5 1.5-5.5-3.5-5.5-3.5-2.5-5.5-2.5-5.5-4 1.5-4 1.5v6 6l-4-2.5-4-2.5v-3-3l-2-7-2-7v-7-7l-3.5-3-3.5-3-3.5-4.5-3.5-4.5v-7.5-7.5l2-6 2-6-2.5-5.5-2.5-5.5-6 .5-6 .5-3-4-3-4-1.5-7.5-1.5-7.5-.5-7.5-.5-7.5-2.5-6-2.5-6-2.5 3.5-2.5 3.5-.5 7-.5 7v8 8l1 8 1 8h-6-6l-.5-8-.5-8-.5-7.5-.5-7.5-.5-6.5-.5-6.5-2.5-5-2.5-5-2-6-2-6-1.5 3.5-1.5 3.5 1 6 1 6-5.5-1-5.5-1-3.5 2.5-3.5 2.5-.5 5-.5 5-1 7-1 7-3 1-3 1-5.5-3.5-5.5-3.5-7 1.5-7 1.5-4.5 4.5-4.5 4.5-1.5 7.5-1.5 7.5-.5 7.5-.5 7.5-3 5.5-3 5.5 1 8 1 8 1 6 1 6-2 5.5-2 5.5 5 5.5 5 5.5 5-3 5-3 3.5-5 3.5-5 3.5-5.5 3.5-5.5 5.5.5 5.5.5 3.5 5.5 3.5 5.5 5 3.5 5 3.5 5.5 3.5 5.5 3.5 4-5 4-5 5-4 5-4 3 3.5 3 3.5 2 3 2 3v-6-6l5-1 5-1 7.5.5 7.5.5 3.5 4 3.5 4 1.5 6.5 1.5 6.5 4 5 4 5 5 2 5 2 4.5-2 4.5-2 .5-3 .5-3 5 4 5 4 6.5-.5 6.5-.5 7.5-.5 7.5-.5" />
            <path d="m786 233h1l-4-6.5-4-6.5-4-4.5-4-4.5-4.5-4.5-4.5-4.5-4-5-4-5-5-4-5-4-3.5-5-3.5-5-3-6-3-6-1-.5-1-.5-1.5-.5-1.5-.5h-1.5-1.5l-1-1-1-1-1.5-.5-1.5-.5-2.5-1-2.5-1 2.5 9 2.5 9-2.5 6-2.5 6 6.5 2.5 6.5 2.5 8 1 8 1 3 5 3 5v6.5 6.5l6.5 2.5 6.5 2.5 5 4 5 4 2.5 3 2.5 3 5-.5 5-.5" />
        </g>
        <path d="m785 306l1-3v-2-2l-.5-2-.5-2-1.5-.5-1.5-.5-2 .5-2 .5v2 2l.5 2 .5 2v2 2l1 1 1 1 1.5-1 1.5-1 .5-.5.5-.5" style="fill:#b19b8f;stroke:#b19b8f" />
        <path d="m781 195l1-1-3.5-5.5-3.5-5.5-4.5-4-4.5-4-5.5-3.5-5.5-3.5-3.5-4.5-3.5-4.5-7.5-1.5-7.5-1.5 1 1.5 1 1.5 1 1 1 1 .5.5.5.5 1 .5 1 .5 1 1 1 1 1.5 1 1.5 1 .5 1.5.5 1.5 1 1.5 1 1.5 1 1 1 1 .5 1 .5 1 1 .5 1 .5.5 1.5.5 1.5.5 1.5.5 1.5 1 1 1 1 1 1.5 1 1.5 1 1 1 1 1-.5 1-.5h1 1l1-.5 1-.5.5-1.5.5-1.5 1 1 1 1 1 .5 1 .5.5.5.5.5 1 1 1 1 1 1.5 1 1.5h2 2" style="fill:#7a3428;stroke:#7a3428" />
        <g style="fill:#b19b8f;stroke:#b19b8f">
            <path d="m778 348h1l-7.5-1-7.5-1-5.5 3-5.5 3-3.5 5.5-3.5 5.5v1 1l4-6 4-6 5.5-2.5 5.5-2.5h6.5 6.5" />
            <path d="m775 271l-3-12-6.5.5-6.5.5 1 6 1 6 5.5 2.5 5.5 2.5 1.5-3 1.5-3" />
        </g>
        <g style="fill:#8d776c;stroke:#8d776c">
            <path d="m774 249l1-3-1-1-1-1-2-.5-2-.5-1 1-1 1 1 1.5 1 1.5 1.5.5 1.5.5h1 1" />
            <path d="m772 306l-8-3 1 6 1 6 3-4.5 3-4.5" />
        </g>
        <path d="m770 338l1-3v-2-2l-1-1.5-1-1.5-1.5.5-1.5.5-.5 2-.5 2v2 2l.5 1 .5 1 1.5.5 1.5.5.5-1 .5-1" style="fill:#b19b8f;stroke:#b19b8f" />
        <path d="m769 195l1-1-.5-1-.5-1-1-1.5-1-1.5-1 .5-1 .5h-1-1l-1 .5-1 .5-1-1-1-1-1-1.5-1-1.5-1-1-1-1-.5-1.5-.5-1.5-.5-1.5-.5-1.5-1-.5-1-.5h-.5-.5-.5-.5l1 1.5 1 1.5.5 1.5.5 1.5 1 1.5 1 1.5 1 1 1 1 1.5 1 1.5 1 1 1 1 1 1 1 1 1 .5 2 .5 2 1 .5 1 .5.5-1.5.5-1.5v-1-1l1 .5 1 .5" style="fill:#bf4f47;stroke:#bf4f47" />
        <path d="m760 124l1-3-1-1-1-1h-1.5-1.5l-.5 1.5-.5 1.5 1.5 1 1.5 1h1 1" style="fill:#504b3f;stroke:#504b3f" />
        <path d="m750 177h1l-.5-1-.5-1-1-1-1-1-1-1.5-1-1.5-.5-1.5-.5-1.5-1.5-1-1.5-1-1-1-1-1-1-.5-1-.5-.5-.5-.5-.5-1-1-1-1-1-1.5-1-1.5-1.5-.5-1.5-.5h-2.5-2.5-2-2-2-2l-1.5-1-1.5-1-10-4-10-4-7-2-7-2-6.5-2-6.5-2h-.5-.5l-2-.5-2-.5h-1-1-1-1l-.5-.5-.5-.5h-1.5-1.5l-.5-.5-.5-.5h-1-1l-.5-.5-.5-.5-.5-.5-.5-.5h-1-1-1.5-1.5l-.5.5-.5.5-.5.5-.5.5-.5.5-.5.5-.5 1-.5 1v2 2l.5-2.5.5-2.5 1-1 1-1 .5.5.5.5-.5 2.5-.5 2.5v1.5 1.5 2.5 2.5l.5-1.5.5-1.5v-2.5-2.5l.5-1.5.5-1.5 1.5-.5 1.5-.5h1 1l1 1 1 1 7 2 7 2 6.5 1.5 6.5 1.5 12 4.5 12 4.5 1.5.5 1.5.5h1.5 1.5 1 1 1 1l2.5 1 2.5 1 1.5.5 1.5.5 1 1 1 1h1.5 1.5l1.5.5 1.5.5 1 .5 1 .5 2 1 2 1 2 .5 2 .5 1 1 1 1 1 1.5 1 1.5 1 1 1 1 1 1.5 1 1.5 1 1 1 1h.5.5" style="fill:#77584b;stroke:#77584b" />
        <path d="m749 297v-2l-.5-1.5-.5-1.5-2-.5-2-.5-.5 1.5-.5 1.5v2.5 2.5l1.5.5 1.5.5 1.5-1 1.5-1v-.5-.5" style="fill:#b19b8f;stroke:#b19b8f" />
        <path d="m747 355l-8 3-4-4-4-4-1.5-4.5-1.5-4.5-4 5-4 5 2 6.5 2 6.5 2 7 2 7 1.5 7.5 1.5 7.5 1.5 7.5 1.5 7.5 1.5 6 1.5 6 3-4.5 3-4.5v-1.5-1.5-1-1l.5-1 .5-1v-1-1-1-1l-.5-.5-.5-.5v-1-1-1-1-1.5-1.5-2-2l-.5-2-.5-2-.5-1.5-.5-1.5.5-2 .5-2v-2-2l.5-1.5.5-1.5.5-2 .5-2 .5-1.5.5-1.5.5-2 .5-2 .5-1.5.5-1.5v-.5-.5" style="fill:#8d776c;stroke:#8d776c" />
        <path d="m745 235l-20-9-5.5-3-5.5-3-4-5-4-5-3.5-5.5-3.5-5.5-4.5-3.5-4.5-3.5-4.5 4-4.5 4-3 6-3 6-1 2-1 2-2 6.5-2 6.5-2.5 6.5-2.5 6.5-3.5 10.5-3.5 10.5 6.5 3.5 6.5 3.5v4.5 4.5l3.5-5.5 3.5-5.5v-6-6l2.5-6.5 2.5-6.5 3-5.5 3-5.5 2-7 2-7 7-2 7-2 1.5 7.5 1.5 7.5-1.5 7-1.5 7 2.5 6.5 2.5 6.5 2-6 2-6 .5-5.5.5-5.5 6.5 2 6.5 2 3 2.5 3 2.5 5-3.5 5-3.5" style="fill:#b19b8f;stroke:#b19b8f" />
        <path d="m744 409l1-3v-1-1-1-1-1-1-1.5-1.5-1-1l-.5-.5-.5-.5v-1-1l-.5-2-.5-2v2 2 1.5 1.5 1 1 1 1l.5.5.5.5v1 1 1 1l-.5 1-.5 1v1 1 1.5 1.5l.5-1 .5-1" style="fill:#928e81;stroke:#928e81" />
        <path d="m741 409l1-16-1-7-1-7-1.5-4.5-1.5-4.5-.5 7.5-.5 7.5v8.5 8.5l2.5 4.5 2.5 4.5v-1-1" style="fill:#77584b;stroke:#77584b" />
        <path d="m734 264l-4-9-1.5 7.5-1.5 7.5 3.5-.5 3.5-.5v-2.5-2.5" style="fill:#b19b8f;stroke:#b19b8f" />
        <g style="fill:#8d776c;stroke:#8d776c">
            <path d="m729 334l1-16h-3-3l1 8 1 8h1.5 1.5" />
            <path d="m728 304l-2-13-1.5 4.5-1.5 4.5 2.5 2 2.5 2" />
        </g>
        <path d="m720 55l-2-22 .5-8.5.5-8.5.5-8 .5-8h-1.5-1.5-2.5-2.5-2-2-2-2-.5-.5l-1.5 9.5-1.5 9.5v8 8l-1 5.5-1 5.5.5 8.5.5 8.5-1 8-1 8-.5 8.5-.5 8.5.5 7 .5 7 1 8 1 8-3 6-3 6-1 2-1 2 6 2.5 6 2.5 7 1 7 1-1-7-1-7-.5-8.5-.5-8.5v-8-8l1-7.5 1-7.5.5-8.5.5-8.5 1.5-7.5 1.5-7.5" style="fill:#22150a;stroke:#22150a" />
        <path d="m712 163l1-3v-1-1l-.5-.5-.5-.5-.5-1-.5-1h-1-1l1 1 1 1-.5 1.5-.5 1.5-4.5 4.5-4.5 4.5-4.5 4.5-4.5 4.5-5 4-5 4-7.5 6.5-7.5 6.5 1-.5 1-.5 1-1 1-1 8.5-4 8.5-4 5.5-3.5 5.5-3.5 3-5 3-5 3.5-4 3.5-4" style="fill:#b19b8f;stroke:#b19b8f" />
        <path d="m710 160l1-3-1-1-1-1h-1.5-1.5l-1.5-.5-1.5-.5 1 .5 1 .5 1 1 1 1-.5 1.5-.5 1.5-5 4-5 4-4.5 4.5-4.5 4.5-4.5 4-4.5 4-6.5 1.5-6.5 1.5-5.5-3-5.5-3-1.5-6.5-1.5-6.5-4-4-4-4 4.5-11.5 4.5-11.5-1-1-1-1h-1-1l-1.5.5-1.5.5-.5 1.5-.5 1.5v2.5 2.5l-.5 1.5-.5 1.5-.5 1-.5 1-1 1-1 1h-1-1-1.5-1.5l-.5.5-.5.5v1 1l-.5.5-.5.5-.5 1-.5 1 1.5-.5 1.5-.5.5-.5.5-.5h1 1l.5.5.5.5v1.5 1.5 1 1 1 1l-.5 1.5-.5 1.5-2 6.5-2 6.5-3 5.5-3 5.5v-7-7l2-9.5 2-9.5-2 6.5-2 6.5-2 6.5-2 6.5-2 7-2 7-6 10-6 10 .5 7 .5 7 4.5-2.5 4.5-2.5v1.5 1.5l-.5.5-.5.5v1.5 1.5l-1.5.5-1.5.5-.5.5-.5.5-.5 1-.5 1v2 2l-.5.5-.5.5-.5 1-.5 1-1 .5-1 .5-1 1.5-1 1.5-1.5 2-1.5 2-.5 2-.5 2v1 1l.5.5.5.5.5.5.5.5h1.5 1.5l.5-.5.5-.5.5-.5.5-.5h1 1l.5-1 .5-1 2-1 2-1 .5-1 .5-1 1-1.5 1-1.5 1-1 1-1 1-1.5 1-1.5.5-1.5.5-1.5.5-1.5.5-1.5 1.5-7 1.5-7 5.5-2 5.5-2 5.5-4 5.5-4v-2-2l.5-3 .5-3v-2-2l-.5-1-.5-1 .5-.5.5-.5.5-.5.5-.5h1 1l.5.5.5.5 1 .5 1 .5h1 1l.5.5.5.5.5.5.5.5 1 .5 1 .5.5-.5.5-.5h1.5 1.5l7.5-6.5 7.5-6.5 5-4 5-4 4.5-4.5 4.5-4.5 4.5-4.5 4.5-4.5" style="fill:#bab5a9;stroke:#bab5a9" />
        <path d="m706 160l1-3-1-1-1-1-1-.5-1-.5-12-4.5-12-4.5-6.5-1.5-6.5-1.5-7-2-7-2-4.5 11.5-4.5 11.5 4 4 4 4 1.5 6.5 1.5 6.5 5.5 3 5.5 3 6.5-1.5 6.5-1.5 4.5-4 4.5-4 4.5-4.5 4.5-4.5 5-4 5-4" style="fill:#dedacd;stroke:#dedacd" />
        <g style="fill:#8d776c;stroke:#8d776c">
            <path d="m703 466l-1-14v-8-8l-2-7-2-7-3.5 2.5-3.5 2.5-2-.5-2-.5-1 6-1 6v7 7l2.5 6.5 2.5 6.5 3.5 3 3.5 3 3-2.5 3-2.5" />
            <path d="m695 257v-13h-2-2l2 7 2 7v-.5-.5" />
        </g>
        <path d="m691 445l1-3-1.5.5-1.5.5-1 1.5-1 1.5-1 1-1 1 1.5 1 1.5 1h1 1l.5-2 .5-2v-.5-.5" style="fill:#928e81;stroke:#928e81" />
        <path d="m685 217l-7-2-2.5 6.5-2.5 6.5 3.5-.5 3.5-.5 2.5-5 2.5-5" style="fill:#bab5a9;stroke:#bab5a9" />
        <path d="m684 488h1l-4-11-4-11-6 1-6 1-4.5 3.5-4.5 3.5-2.5 6.5-2.5 6.5h3 3 2 2 2.5 2.5 2 2 2 2 2.5 2.5 2 2 .5.5" style="fill:#bf4f47;stroke:#bf4f47" />
        <path d="m679 200l1-3-.5-.5-.5-.5-.5-.5-.5-.5h-1.5-1.5l-.5.5-.5.5h-1.5-1.5l-1 1-1 1-1 .5-1 .5-.5 1-.5 1-.5.5-.5.5-1 .5-1 .5h-2-2-2-2l-1 1-1 1-.5 2-.5 2v2 2l-1 1.5-1 1.5-1 1-1 1-1.5 1-1.5 1-1 1-1 1-1 .5-1 .5-.5.5-.5.5-.5 1-.5 1-1.5 1-1.5 1-1.5.5-1.5.5-1.5 1-1.5 1-.5 1.5-.5 1.5-1 1.5-1 1.5v2 2l4-5.5 4-5.5 5.5-3 5.5-3 3.5-5.5 3.5-5.5 5-4 5-4 6.5-1.5 6.5-1.5-.5 2-.5 2-1 2.5-1 2.5v1 1 1.5 1.5l1-2 1-2 1-1.5 1-1.5v-1-1l.5-.5.5-.5v-1-1l.5-.5.5-.5v-1.5-1.5" style="fill:#8d776c;stroke:#8d776c" />
        <path d="m676 202l-13 3-5 4-5 4-3.5 5.5-3.5 5.5-5.5 3-5.5 3-4 5.5-4 5.5-.5 1.5-.5 1.5-.5 1-.5 1-.5 1.5-.5 1.5-1 1-1 1-.5.5-.5.5-1 .5-1 .5-3 6.5-3 6.5 4.5 5.5 4.5 5.5.5-1 .5-1 .5-2.5.5-2.5v-1-1l-1.5-1.5-1.5-1.5-.5-1.5-.5-1.5.5-2 .5-2 .5-1.5.5-1.5v-1.5-1.5l.5-.5.5-.5.5-.5.5-.5.5-.5.5-.5 1-.5 1-.5v-1-1l.5-.5.5-.5.5-.5.5-.5.5-1 .5-1 1-1.5 1-1.5 1-1.5 1-1.5h1.5 1.5l1.5.5 1.5.5.5-1 .5-1h1 1v-1-1l.5-.5.5-.5.5-1 .5-1 .5-.5.5-.5.5-.5.5-.5.5-.5.5-.5.5-.5.5-.5.5-.5.5-.5 1.5-1 1.5-1 .5-1 .5-1v-2-2l1-1 1-1 .5-2 .5-2 1-1 1-1 2-.5 2-.5 1.5-.5 1.5-.5h1 1l1.5 1 1.5 1-.5 1.5-.5 1.5v1 1l1-.5 1-.5.5-1 .5-1 1-2.5 1-2.5.5-2 .5-2" style="fill:#77584b;stroke:#77584b" />
        <path d="m673 213v-2l-.5 1-.5 1-1 .5-1 .5-.5 1-.5 1v1 1 1 1 1.5 1.5l-.5.5-.5.5-.5 1-.5 1-.5 1.5-.5 1.5-2 7-2 7-3 6-3 6-3.5 5.5-3.5 5.5-6 3-6 3-6.5-1-6.5-1-.5 2.5-.5 2.5-.5 1-.5 1 1.5.5 1.5.5.5-.5.5-.5h1 1l.5.5.5.5h1.5 1.5 1 1 1 1l.5-.5.5-.5 1-.5 1-.5 2.5-.5 2.5-.5 1-1 1-1 1.5-1 1.5-1 1.5-.5 1.5-.5 1-1.5 1-1.5 1-1 1-1 .5-1 .5-1 3.5-10.5 3.5-10.5 2.5-6.5 2.5-6.5 2-6.5 2-6.5v-1.5-1.5" style="fill:#a9615b;stroke:#a9615b" />
        <path d="m670 212l1-3-1.5-1-1.5-1h-1-1l-1.5.5-1.5.5-2 .5-2 .5-1 1-1 1-.5 2-.5 2-1 1-1 1v2 2l-.5 1-.5 1 1-.5 1-.5.5-1 .5-1 1-1.5 1-1.5 1-1 1-1 2-.5 2-.5 1.5-.5 1.5-.5v2.5 2.5l.5 1.5.5 1.5-.5 1-.5 1v1.5 1.5l.5-1 .5-1 .5-.5.5-.5v-1.5-1.5-1-1-1-1l.5-1 .5-1v-1-1" style="fill:#7a3428;stroke:#7a3428" />
        <path d="m667 223l1-2-.5-1.5-.5-1.5v-2.5-2.5l-1.5.5-1.5.5-2 .5-2 .5-1 1-1 1-1 1.5-1 1.5-.5 1-.5 1-1 .5-1 .5v2.5 2.5l.5 1.5.5 1.5.5 2 .5 2-.5 1.5-.5 1.5v1.5 1.5l-.5 1-.5 1-.5 1.5-.5 1.5v2 2l1 .5 1 .5 1-.5 1-.5.5-1 .5-1 1-1.5 1-1.5.5-1.5.5-1.5.5-2 .5-2 .5-1.5.5-1.5.5-2 .5-2 1-1 1-1 1-1.5 1-1.5v-1.5-1.5" style="fill:#992f18;stroke:#992f18" />
        <path d="m666 229l1-3-1 1.5-1 1.5-1 1-1 1-.5 2-.5 2-.5 1.5-.5 1.5-.5 2-.5 2-.5 1.5-.5 1.5-1 1.5-1 1.5-.5 1-.5 1-1 .5-1 .5-.5 1-.5 1-3.5 5-3.5 5h-4.5-4.5l2-6 2-6 2-6 2-6 4-5.5 4-5.5v-2.5-2.5l-1.5 1-1.5 1-.5.5-.5.5-.5.5-.5.5-.5.5-.5.5-.5.5-.5.5-.5.5-.5.5-.5 1-.5 1-.5.5-.5.5v1 1h-1-1l-.5 1-.5 1v1.5 1.5l-.5 1.5-.5 1.5-1 2-1 2-1 1.5-1 1.5-.5.5-.5.5-1 2-1 2-1 1-1 1-1 1.5-1 1.5-1 1-1 1-1 2-1 2v1 1 1 1l6.5 1 6.5 1 6-3 6-3 3.5-5.5 3.5-5.5 3-6 3-6 2-7 2-7" style="fill:#bf4f47;stroke:#bf4f47" />
        <path d="m666 201l1-2h-1.5-1.5l-.5.5-.5.5-1-.5-1-.5-.5-.5-.5-.5-.5-.5-.5-.5h-1-1l-1-.5-1-.5-.5-.5-.5-.5h-1-1l-.5.5-.5.5-.5.5-.5.5.5 1 .5 1v2 2l1-.5 1-.5 1-1.5 1-1.5 1.5.5 1.5.5 1.5 1 1.5 1 2.5-.5 2.5-.5" style="fill:#b19b8f;stroke:#b19b8f" />
        <path d="m666 137h1l-12.5-2.5-12.5-2.5-3.5 4.5-3.5 4.5-4 2.5-4 2.5-.5 7.5-.5 7.5-1.5 7.5-1.5 7.5 1-2 1-2 .5-2 .5-2v-2-2l.5-2 .5-2 .5-1.5.5-1.5 1-1 1-1v-2.5-2.5l-.5-1-.5-1v-1.5-1.5l1-1 1-1h1.5 1.5l1.5.5 1.5.5 1.5-1.5 1.5-1.5v-2-2l.5-1 .5-1 .5-.5.5-.5.5-.5.5-.5.5-.5.5-.5h1.5 1.5 1 1l.5.5.5.5.5.5.5.5h1 1l.5.5.5.5h1.5 1.5l.5.5.5.5h1 1 1 1l2 .5 2 .5" style="fill:#504b3f;stroke:#504b3f" />
        <g style="fill:#928e81;stroke:#928e81">
            <path d="m665 202l1-1-2.5.5-2.5.5-1.5-1-1.5-1-1.5-.5-1.5-.5-1 1.5-1 1.5-1 .5-1 .5-.5 3-.5 3v2 2l-.5 1-.5 1-1 1-1 1-1 1.5-1 1.5 1.5-1 1.5-1 1-1 1-1 1-1.5 1-1.5v-2-2l.5-2 .5-2 1-1 1-1h2 2 2 2l1-.5 1-.5" />
            <path d="m656 318l-5 2-4 5-4 5-1 8-1 8v7 7l-2 6.5-2 6.5-1.5 7.5-1.5 7.5 1.5 7.5 1.5 7.5 1 5 1 5 5.5 3 5.5 3-4-4-4-4 4.5-3.5 4.5-3.5 1.5-6.5 1.5-6.5v-7.5-7.5l-.5-6.5-.5-6.5.5-8.5.5-8.5 1-8 1-8v-6-6" />
        </g>
        <path d="m654 238l1-3-.5-2-.5-2-1 1-1 1-.5 1.5-.5 1.5-.5 1.5-.5 1.5-.5 2-.5 2-.5 1.5-.5 1.5-.5 2-.5 2 .5 1.5.5 1.5 2-1.5 2-1.5v-2-2l.5-1.5.5-1.5.5-1 .5-1v-1.5-1.5" style="fill:#cd3606;stroke:#cd3606" />
        <path d="m653 253l1-2-1-.5-1-.5-2 1.5-2 1.5-.5-1.5-.5-1.5.5-2 .5-2 .5-1.5.5-1.5.5-2 .5-2 .5-1.5.5-1.5.5-1.5.5-1.5 1-1 1-1-.5-1.5-.5-1.5-4 5.5-4 5.5-2 6-2 6-2 6-2 6h4.5 4.5l3.5-5 3.5-5" style="fill:#ce3d29;stroke:#ce3d29" />
        <g style="fill:#b19b8f;stroke:#b19b8f">
            <path d="m649 358l1-3v-2-2l-1-1.5-1-1.5-.5 1.5-.5 1.5v2.5 2.5l.5 1.5.5 1.5v2.5 2.5l.5 1.5.5 1.5v-2-2-2.5-2.5" />
            <path d="m649 215l1-2-5.5 4-5.5 4-5.5 2-5.5 2-1.5 7-1.5 7 .5-1 .5-1 .5-2 .5-2 .5-1.5.5-1.5 1.5-1 1.5-1 1-1 1-1 1.5-1 1.5-1 2.5-.5 2.5-.5 1-.5 1-.5 1-1 1-1 1-1.5 1-1.5 1-1 1-1" />
        </g>
        <g style="fill:#8d776c;stroke:#8d776c">
            <path d="m644 135l-1-1-1 1-1 1-.5 2.5-.5 2.5v1.5 1.5l-.5 1.5-.5 1.5h-2-2l-1.5-1-1.5-1-.5 1.5-.5 1.5-.5 1-.5 1v2.5 2.5l.5.5.5.5v-1-1l.5-1 .5-1v-2-2l2 .5 2 .5h2 2l1-1.5 1-1.5v-2-2l.5-1 .5-1 .5-2.5.5-2.5" />
            <path d="m643 276l1-1-2.5.5-2.5.5-1 .5-1 .5-.5.5-.5.5h-1-1-1-1-1.5-1.5l-.5-.5-.5-.5h-1-1l-.5.5-.5.5-1.5-.5-1.5-.5-4.5-5.5-4.5-5.5 3-6.5 3-6.5-1 1-1 1-4.5 11-4.5 11 4 5 4 5 5.5 1 5.5 1 5-4 5-4 3-2.5 3-2.5" />
        </g>
        <path d="m642 464l-5-25-6-2.5-6-2.5-4.5.5-4.5.5-4.5 4.5-4.5 4.5-5.5 1.5-5.5 1.5-4.5-4-4.5-4-4-5-4-5-2-7-2-7-1-8-1-8v-7.5-7.5-9-9l-.5-8.5-.5-8.5-.5-8.5-.5-8.5-3-6-3-6-3-5.5-3-5.5-2-7-2-7 .5-4.5.5-4.5 3-5 3-5-1 .5-1 .5-1 1-1 1-1 1.5-1 1.5-1 1-1 1-2 1-2 1-.5.5-.5.5-2 .5-2 .5-2 .5-2 .5-1 1-1 1-1 .5-1 .5 3 6 3 6 3.5 5.5 3.5 5.5 2.5 6 2.5 6 1.5 7.5 1.5 7.5 1.5 7.5 1.5 7.5.5 7.5.5 7.5 1 6.5 1 6.5-.5 7.5-.5 7.5 1.5 7.5 1.5 7.5 2 7 2 7 3.5 5 3.5 5 3 5 3 5 4.5 4 4.5 4h7 7l5 2 5 2 1.5 13.5 1.5 13.5h1.5 1.5 2.5 2.5 2 2 2.5 2.5 2 2 .5.5l.5-1 .5-1v-2.5-2.5-2-2-2.5-2.5-2-2-2-2" style="fill:#bf4f47;stroke:#bf4f47" />
        <g style="fill:#928e81;stroke:#928e81">
            <path d="m642 150l1-2v-2.5-2.5-1.5-1.5l-.5 1-.5 1v2 2l-1 1.5-1 1.5h-2-2l-2-.5-2-.5v2 2l-.5 1-.5 1v1 1l-.5-.5-.5-.5-1 1-1 1-.5 1.5-.5 1.5-.5 2-.5 2v2 2l-.5 2-.5 2-1 2-1 2-3 9-3 9-3.5 4.5-3.5 4.5-2.5 6-2.5 6 1-.5 1-.5-.5 1-.5 1v1 1l-.5 1.5-.5 1.5-.5.5-.5.5-.5.5-.5.5-.5 1-.5 1v2 2l.5.5.5.5v1.5 1.5l1 1 1 1-.5-2.5-.5-2.5-.5-2-.5-2 1-1 1-1 1-1.5 1-1.5.5-1.5.5-1.5 6-10 6-10 2-7 2-7 2-6.5 2-6.5 2-6.5 2-6.5.5-1 .5-1 .5-.5.5-.5v-1-1l.5-.5.5-.5h1.5 1.5 1 1l1-1 1-1" />
            <path d="m640 224l1-1-2.5.5-2.5.5-1.5 1-1.5 1-1 1-1 1-1.5 1-1.5 1-.5 1.5-.5 1.5-.5 2-.5 2-.5 1-.5 1 .5 2.5.5 2.5.5-1.5.5-1.5v-2-2l1-1.5 1-1.5.5-1.5.5-1.5 1.5-1 1.5-1 1.5-.5 1.5-.5 1.5-1 1.5-1 .5-1 .5-1" />
        </g>
        <path d="m639 243l1-3v-1.5-1.5l-1.5-.5-1.5-.5h-1.5-1.5l-1 1.5-1 1.5-.5 1-.5 1v2 2l-1 1-1 1-1 1.5-1 1.5-1 1-1 1-1.5 1.5-1.5 1.5-.5 1.5-.5 1.5-.5 2-.5 2 .5 1.5.5 1.5 1.5 1.5 1.5 1.5v-1-1-1.5-1.5l.5-.5.5-.5v-1-1l.5-.5.5-.5.5-1 .5-1 .5-.5.5-.5.5-.5.5-.5.5-.5.5-.5 1-.5 1-.5.5-.5.5-.5 1-1 1-1 1-1.5 1-1.5 1-2 1-2" style="fill:#7a3428;stroke:#7a3428" />
        <path d="m639 147l1-3v-1.5-1.5l-1.5 1.5-1.5 1.5-1.5-.5-1.5-.5h-1.5-1.5l-1 1-1 1v1.5 1.5l.5 1 .5 1 .5-1 .5-1 .5-1.5.5-1.5 1.5 1 1.5 1h2 2" style="fill:#77584b;stroke:#77584b" />
        <path d="m638 167l1-3v-1-1-1-1-1.5-1.5l-.5-.5-.5-.5h-1-1l-.5.5-.5.5-1.5.5-1.5.5-2 9.5-2 9.5v7 7l3-5.5 3-5.5 2-6.5 2-6.5" style="fill:#dedacd;stroke:#dedacd" />
        <path d="m634 251l1-1-1 1-1 1-.5.5-.5.5-1 .5-1 .5-.5.5-.5.5-.5.5-.5.5-.5.5-.5.5-.5 1-.5 1-.5.5-.5.5v1 1l-.5.5-.5.5v1.5 1.5l1-2 1-2 1-1 1-1 1-1.5 1-1.5 1-1 1-1 1-2 1-2" style="fill:#992f18;stroke:#992f18" />
        <path d="m631 241l1-2-1 1.5-1 1.5-.5 1-.5 1-.5.5-.5.5-.5.5-.5.5v1 1l-1 .5-1 .5-.5.5-.5.5-.5.5-.5.5-.5.5-.5.5v1.5 1.5l1.5-1.5 1.5-1.5 1-1 1-1 1-1.5 1-1.5 1-1 1-1v-2-2" style="fill:#504b3f;stroke:#504b3f" />
        <path d="m631 218l1-3-.5-1.5-.5-1.5v-2.5-2.5l-.5-1.5-.5-1.5h-1.5-1.5l-.5 1.5-.5 1.5-.5 1-.5 1v2 2 2 2h2.5 2.5l.5.5.5.5" style="fill:#b19b8f;stroke:#b19b8f" />
        <path d="m626 303l1-3v-2-2l-.5-2-.5-2-1.5.5-1.5.5-.5 2-.5 2-.5 1.5-.5 1.5-1 1.5-1 1.5v2 2l1.5-.5 1.5-.5 1-1.5 1-1.5h1 1" style="fill:#8d776c;stroke:#8d776c" />
        <path d="m625 246l1-2-.5-2.5-.5-2.5-.5 1.5-.5 1.5-.5 1.5-.5 1.5-1 1.5-1 1.5-1 1-1 1-1 1.5-1 1.5-.5 1-.5 1h.5.5l1-1 1-1 1-.5 1-.5.5-.5.5-.5 1-1 1-1 .5-1.5.5-1.5" style="fill:#b19b8f;stroke:#b19b8f" />
        <path d="m624 157l-2-13-.5-7.5-.5-7.5-3.5-5.5-3.5-5.5-1.5-6.5-1.5-6.5h-2.5-2.5l-4.5-3.5-4.5-3.5h5 5l-.5-6.5-.5-6.5-4-4.5-4-4.5-4.5-4.5-4.5-4.5-5.5-3.5-5.5-3.5-6-3-6-3-6.5-2-6.5-2-8-1-8-1-8.5-.5-8.5-.5-8 1-8 1-7.5 1-7.5 1-6.5 2.5-6.5 2.5-6 3-6 3-4 5-4 5-4.5 4-4.5 4-4 5-4 5-2 7-2 7-4 5-4 5-1.5 5-1.5 5 5-3 5-3 5-4 5-4 3.5-5.5 3.5-5.5 4.5-4 4.5-4 5.5-3.5 5.5-3.5 6.5-2.5 6.5-2.5 7 1 7 1 5-4 5-4 5 3.5 5 3.5 3.5 2.5 3.5 2.5 5 2 5 2 5 4 5 4 4 4.5 4 4.5 3.5 5.5 3.5 5.5 4.5 4.5 4.5 4.5 6.5 2.5 6.5 2.5 2 6.5 2 6.5-3.5 5.5-3.5 5.5-4-3-4-3-6-3-6-3-4 2.5-4 2.5-5 4-5 4-1 7-1 7-2 7-2 7-6 1.5-6 1.5-5.5 2.5-5.5 2.5-7 2-7 2-8 1-8 1 4 2.5 4 2.5 8 1 8 1 5.5 4 5.5 4 .5 1 .5 1 .5 2 .5 2 .5 1.5.5 1.5 1 1.5 1 1.5 1 1 1 1 1 1 1 1 1.5 1 1.5 1 1 1 1 1v1.5 1.5l.5 1.5.5 1.5.5.5.5.5v1 1 1.5 1.5 1 1 1 1 1 1 1.5 1.5 2 2 1 1l.5 1 .5 1 1.5-.5 1.5-.5h1 1 1 1 1 1l1 .5 1 .5 6.5-2 6.5-2 4-2 4-2h3 3l4.5.5 4.5.5-1.5-3.5-1.5-3.5 2.5-5 2.5-5 7-8 7-8 4-6 4-6 3-5.5 3-5.5 2.5-6.5 2.5-6.5 2.5-6.5 2.5-6.5 1.5-8 1.5-8" style="fill:#22150a;stroke:#22150a" />
        <g style="fill:#dedacd;stroke:#dedacd">
            <path d="m622 241h-5l-4.5 4.5-4.5 4.5 2.5 1.5 2.5 1.5 4.5-4.5 4.5-4.5v-1.5-1.5" />
            <path d="m620 208l1-3-1-1-1-1-1.5 1-1.5 1-.5 1.5-.5 1.5-1 1.5-1 1.5v2 2l1.5 1 1.5 1 1-1 1-1 1-1 1-1v-2.5-2.5" />
        </g>
        <path d="m618 488h1l-1.5-13.5-1.5-13.5-5-2-5-2h-7-7l-4.5-4-4.5-4-3-5-3-5-3.5-5-3.5-5-2-7-2-7-1.5-7.5-1.5-7.5.5-7.5.5-7.5-1-6.5-1-6.5-.5-7.5-.5-7.5-1.5-7.5-1.5-7.5-1.5-7.5-1.5-7.5-2.5-6-2.5-6-3.5-5.5-3.5-5.5-3-6-3-6-1 1-1 1-.5.5-.5.5-1 .5-1 .5-.5.5-.5.5h-1-1l-.5-.5-.5-.5-1 .5-1 .5 1 6.5 1 6.5-1 6.5-1 6.5v8 8 9 9l.5 8.5.5 8.5 1 7.5 1 7.5-.5 14-.5 14-2 6-2 6-1 5-1 5-1-7-1-7 .5-7 .5-7-2-6-2-6v-9-9l-1.5-7.5-1.5-7.5-2-6.5-2-6.5-2.5-6.5-2.5-6.5v-9-9l1-7 1-7h-1.5-1.5-2-2l-.5.5-.5.5-2 8.5-2 8.5-2 7-2 7-5-2.5-5-2.5-3-6-3-6 .5-8.5.5-8.5 1.5-15 1.5-15-.5-1.5-.5-1.5-1-.5-1-.5-.5-1-.5-1v1.5 1.5 2.5 2.5 2 2l-.5 1.5-.5 1.5-1.5 8-1.5 8-3-1-3-1-4.5-4-4.5-4h-5-5l-4.5 4.5-4.5 4.5-5-1-5-1-4 3.5-4 3.5-6-2-6-2-5.5-2.5-5.5-2.5-6.5 2.5-6.5 2.5-4.5-4.5-4.5-4.5-2-6.5-2-6.5 2.5-6.5 2.5-6.5 7.5-5.5 7.5-5.5h-1.5-1.5l-1.5 1-1.5 1-1.5.5-1.5.5-1.5.5-1.5.5-2 .5-2 .5h-3-3l-2.5 6-2.5 6v7.5 7.5l1.5 7.5 1.5 7.5 3.5 5.5 3.5 5.5 7 1 7 1 7-.5 7-.5 3 6 3 6 1.5 7.5 1.5 7.5 3 12 3 12-1 7.5-1 7.5-2.5 6-2.5 6-4.5 4.5-4.5 4.5-5.5 2-5.5 2-6.5 1.5-6.5 1.5.5 7.5.5 7.5.5 8.5.5 8.5 1.5 7 1.5 7 1.5 7.5 1.5 7.5 1.5 9.5 1.5 9.5h9.5 9.5 9 9 8.5 8.5 9 9 9 9 9 9 8.5 8.5 9 9 1 1l.5-8.5.5-8.5.5-8.5.5-8.5.5-8.5.5-8.5.5-8.5.5-8.5-.5-8-.5-8-1-8-1-8-.5-8.5-.5-8.5-.5-8.5-.5-8.5v-9-9l.5-8 .5-8 2.5-4.5 2.5-4.5 2.5 6.5 2.5 6.5 1 8 1 8 1 7.5 1 7.5v8 8 9 9l1 8 1 8 2 6.5 2 6.5 3.5 5.5 3.5 5.5 3 6 3 6 3 6 3 6 4.5 4.5 4.5 4.5 3.5 5 3.5 5 7.5-.5 7.5-.5 2 8.5 2 8.5h3 3 2 2 1 1" style="fill:#ce3d29;stroke:#ce3d29" />
        <path d="m618 320v-2l-.5-1.5-.5-1.5-2 .5-2 .5v2 2l2 .5 2 .5.5-.5.5-.5" style="fill:#8d776c;stroke:#8d776c" />
        <g style="fill:#b19b8f;stroke:#b19b8f">
            <path d="m618 227l-9 5-.5-7-.5-7-.5 1.5-.5 1.5-1 1.5-1 1.5-1 1-1 1 .5 2 .5 2 .5 2.5.5 2.5 1.5 1 1.5 1 1 1 1 1-.5 1.5-.5 1.5-.5 2-.5 2 1-.5 1-.5.5-1 .5-1 .5-.5.5-.5v-2-2l.5-1 .5-1 .5-.5.5-.5 1.5-.5 1.5-.5v-1.5-1.5l.5-.5.5-.5v-1.5-1.5" />
            <path d="m615 256l1-1-2 1-2 1-.5 1-.5 1h-1-1l-.5.5-.5.5-.5.5-.5.5h-1.5-1.5l-.5-.5-.5-.5-.5-.5-.5-.5v-1-1l.5-2 .5-2-1 .5-1 .5v2 2l-2 .5-2 .5-1.5-.5-1.5-.5-2 .5-2 .5-1.5.5-1.5.5-1 1-1 1h2 2l.5-.5.5-.5.5-.5.5-.5h1.5 1.5 1 1 1 1v1 1 1 1l-6 4.5-6 4.5-5.5-1-5.5-1 5-4.5 5-4.5h-2-2l-1 1-1 1-1.5 1-1.5 1-.5 1.5-.5 1.5-1 1-1 1-1 .5-1 .5-1 .5-1 .5-.5 1.5-.5 1.5-1 1.5-1 1.5-1 1-1 1-.5 1.5-.5 1.5 1.5 1 1.5 1 10.5-3.5 10.5-3.5 5.5-1.5 5.5-1.5 3.5-5.5 3.5-5.5 5-4.5 5-4.5" />
        </g>
        <path d="m614 176h-7l1 6 1 6 2.5-5.5 2.5-5.5v-.5-.5" style="fill:#571804;stroke:#571804" />
        <g style="fill:#928e81;stroke:#928e81">
            <path d="m612 400l1-3-.5-1.5-.5-1.5-.5 2-.5 2-.5 1.5-.5 1.5-1 1.5-1 1.5-.5 1.5-.5 1.5 2-.5 2-.5.5-1.5.5-1.5v-1.5-1.5" />
            <path d="m610 360l1-3-.5-1.5-.5-1.5-1.5 1-1.5 1-1 1-1 1 .5 2 .5 2 1.5-.5 1.5-.5.5-.5.5-.5" />
        </g>
        <path d="m609 242l1-3-1-1-1-1-1.5-1-1.5-1-1-1-1-1v-1.5-1.5l-.5-.5-.5-.5v-2-2l.5-1 .5-1 .5-.5.5-.5.5-.5.5-.5.5-1.5.5-1.5-2.5 7.5-2.5 7.5 2 6 2 6-4 5-4 5-6.5 2.5-6.5 2.5-6.5 4.5-6.5 4.5v1.5 1.5l1-.5 1-.5 1-1 1-1 .5-1.5.5-1.5 1.5-1 1.5-1 1-1 1-1h2 2l1-1 1-1 1.5-.5 1.5-.5 2-.5 2-.5 1.5.5 1.5.5 2-.5 2-.5v-2-2l1-.5 1-.5 1.5-2 1.5-2 1-1.5 1-1.5.5-2 .5-2" style="fill:#8d776c;stroke:#8d776c" />
        <path d="m606 216l1-2-1 .5-1 .5-1.5 1-1.5 1-.5 1.5-.5 1.5-.5 1.5-.5 1.5v1.5 1.5 2 2 1 1 1.5 1.5l1 1 1 1 .5.5.5.5.5.5.5.5v1 1l-.5 1.5-.5 1.5-.5 1-.5 1-.5 1-.5 1-.5.5-.5.5-.5 1-.5 1-1.5.5-1.5.5-1 .5-1 .5-1 .5-1 .5-2 .5-2 .5h-1.5-1.5l-1 .5-1 .5-2 .5-2 .5-1 1-1 1-1.5 1-1.5 1-.5 1.5-.5 1.5-1 1-1 1-.5 1.5-.5 1.5h.5.5l6.5-4.5 6.5-4.5 6.5-2.5 6.5-2.5 4-5 4-5-2-6-2-6 2.5-7.5 2.5-7.5v-1-1" style="fill:#77584b;stroke:#77584b" />
        <path d="m605 488h1l-2-8.5-2-8.5-7.5.5-7.5.5-3.5-5-3.5-5-4.5-4.5-4.5-4.5-3-6-3-6-3-6-3-6-3.5-5.5-3.5-5.5-2-6.5-2-6.5-1-8-1-8v-9-9-8-8l-1-7.5-1-7.5-1-8-1-8-2.5-6.5-2.5-6.5-2.5 4.5-2.5 4.5-.5 8-.5 8v9 9l.5 8.5.5 8.5.5 8.5.5 8.5 1 8 1 8 .5 8 .5 8-.5 8.5-.5 8.5-.5 8.5-.5 8.5-.5 8.5-.5 8.5-.5 8.5-.5 8.5h9.5 9.5 9 9 9 9 9 9" style="fill:#cd3606;stroke:#cd3606" />
        <path d="m603 305l-11-11h-7-7l-3.5-1-3.5-1-2-2.5-2-2.5v8 8l3.5 5.5 3.5 5.5 2.5 6.5 2.5 6.5v7.5 7.5 9 9 8 8l-.5 8.5-.5 8.5 1 7.5 1 7.5 1-8.5 1-8.5-.5-7.5-.5-7.5v-8-8-8.5-8.5l1.5-6.5 1.5-6.5.5-7.5.5-7.5 2.5-4 2.5-4 6.5-1 6.5-1" style="fill:#8d776c;stroke:#8d776c" />
        <path d="m603 244l1-3v-1-1l-.5-.5-.5-.5-.5-.5-.5-.5-1-1-1-1v-1.5-1.5-1-1-2-2-1.5-1.5l.5-1.5.5-1.5-1 1.5-1 1.5-.5 1.5-.5 1.5v3 3 1.5 1.5l1 1.5 1 1.5 1 1 1 1-.5 2-.5 2-1 1-1 1-.5 1-.5 1-1 2-1 2 1.5-.5 1.5-.5.5-1 .5-1 .5-.5.5-.5.5-1 .5-1 .5-1 .5-1" style="fill:#504b3f;stroke:#504b3f" />
        <path d="m601 244l1-4-1-1-1-1-1-1.5-1-1.5v-1.5-1.5l-.5-1-.5-1v-1-1-1.5-1.5-1.5-1.5l-7 8-7 8-2.5 5-2.5 5 1.5 3.5 1.5 3.5-4.5-.5-4.5-.5h-3-3l-4 2-4 2-6.5 2-6.5 2 .5 2 .5 2v1.5 1.5l-1 1-1 1-1.5.5-1.5.5h-1-1l.5.5.5.5-.5.5-.5.5h-1.5-1.5l-.5.5-.5.5h-1-1l-.5-.5-.5-.5-1 .5-1 .5-1 1-1 1-1.5.5-1.5.5h-.5-.5l-1 .5-1 .5-1.5 1-1.5 1-1 1-1 1 1 5.5 1 5.5 5-4 5-4 7-1.5 7-1.5 9.5-6 9.5-6 1-1 1-1 2-.5 2-.5 1-1 1-1 1-1.5 1-1.5 1-1 1-1 1.5-1 1.5-1 1-1 1-1 2-.5 2-.5 1-.5 1-.5 1-1 1-1 .5-.5.5-.5 1-.5 1-.5 1-1 1-1 .5-.5.5-.5 1-.5 1-.5 2-.5 2-.5 1-1 1-1" style="fill:#571804;stroke:#571804" />
        <path d="m600 149v-2l-1-1-1-1-1.5 1-1.5 1-1 1-1 1-1 .5-1 .5v2 2l1 1.5 1 1.5h2 2l1-1 1-1 .5-2 .5-2v-1-1" style="fill:#3d372b;stroke:#3d372b" />
        <path d="m598 264v-2-1-1h-1-1-1-1-1.5-1.5l-.5.5-.5.5-.5.5-.5.5h-2-2l-5 4.5-5 4.5 5.5 1 5.5 1 6-4.5 6-4.5" style="fill:#bab5a9;stroke:#bab5a9" />
        <g style="fill:#7a3428;stroke:#7a3428">
            <path d="m598 248l1-2-2 .5-2 .5-1 .5-1 .5-.5.5-.5.5-1 1-1 1-1 .5-1 .5-.5.5-.5.5-1 1-1 1h1.5 1.5l2-.5 2-.5 1-.5 1-.5 1-.5 1-.5 1-2 1-2" />
            <path d="m573 264l1-3-1 1-1 1-1 1.5-1 1.5-1 1-1 1-2 .5-2 .5-1 1-1 1-.5.5-.5.5-.5 1-.5 1h-1-1l-.5.5-.5.5-1 .5-1 .5-1 1-1 1-.5.5-.5.5-.5 1-.5 1-1 1-1 1-1 1-1 1 1.5.5 1.5.5 2-1 2-1 1-1 1-1 1-1.5 1-1.5 1-1 1-1 1-.5 1-.5 1-1.5 1-1.5 1-.5 1-.5.5-.5.5-.5 1.5-1 1.5-1 .5-1.5.5-1.5 1-1 1-1" />
        </g>
        <path d="m561 272l1-1-9.5 6-9.5 6-7 1.5-7 1.5-5 4-5 4-1-5.5-1-5.5-1.5 1-1.5 1-1.5 1.5-1.5 1.5-4.5 4-4.5 4 2.5 3.5 2.5 3.5 5.5-3.5 5.5-3.5 6-2.5 6-2.5 8.5-3 8.5-3 1-1 1-1 1-1 1-1 .5-1 .5-1 .5-.5.5-.5 1-1 1-1 1-.5 1-.5.5-.5.5-.5h1 1l.5-1 .5-1" style="fill:#761f05;stroke:#761f05" />
        <path d="m549 287l1-1-1.5-.5-1.5-.5-8.5 3-8.5 3-6 2.5-6 2.5-5.5 3.5-5.5 3.5-2.5-3.5-2.5-3.5 4.5-4 4.5-4-1.5-1.5-1.5-1.5h-.5-.5l-.5 1-.5 1-1 .5-1 .5-.5.5-.5.5-.5 1-.5 1-1.5 1.5-1.5 1.5-.5 1-.5 1-.5 1-.5 1-.5.5-.5.5v1 1 1 1l.5 1 .5 1 .5.5.5.5 1 1 1 1h2 2 1.5 1.5l2-1 2-1 1.5-1 1.5-1 1-1 1-1 1.5-1 1.5-1 1-1 1-1 2.5-.5 2.5-.5 1-.5 1-.5.5.5.5.5h1 1l.5-.5.5-.5 1-.5 1-.5.5-.5.5-.5 1-1 1-1 1-.5 1-.5 1-1 1-1 2-.5 2-.5 2-.5 2-.5" style="fill:#992f18;stroke:#992f18" />
        <path d="m546 269v-3l-.5-2-.5-2-1-.5-1-.5h-1-1-1-1-1-1l-1.5.5-1.5.5-.5-1-.5-1v-1-1-2-2-1.5-1.5-1-1-1-1-1-1-1.5-1.5-1-1l-.5-.5-.5-.5-.5-1.5-.5-1.5v2 2l.5 2.5.5 2.5v2 2 2.5 2.5 2 2l-.5 1.5-.5 1.5-.5 2-.5 2-.5 1.5-.5 1.5-1 1.5-1 1.5-.5 1.5-.5 1.5-1 1.5-1 1.5.5.5.5.5 1.5-.5 1.5-.5 1-1 1-1 1-.5 1-.5.5.5.5.5h1 1l.5-.5.5-.5h1.5 1.5l.5-.5.5-.5-.5-.5-.5-.5h1 1l1.5-.5 1.5-.5 1-1 1-1" style="fill:#3d372b;stroke:#3d372b" />
        <path d="m531 261l1-3v-2-2-2.5-2.5-2-2l-.5-2.5-.5-2.5v1.5 1.5 2 2 2.5 2.5 2 2l-.5 1.5-.5 1.5-.5 2-.5 2-1 1.5-1 1.5-1 1-1 1-1 1.5-1 1.5-.5 1.5-.5 1.5-1.5 2-1.5 2 2.5-.5 2.5-.5 1-1.5 1-1.5.5-1.5.5-1.5 1-1.5 1-1.5.5-1.5.5-1.5.5-2 .5-2" style="fill:#504b3f;stroke:#504b3f" />
        <path d="m530 259l1-3v-2-2-2.5-2.5-2-2-1.5-1.5-2-2-1.5-1.5l-1-1-1-1-1.5-1-1.5-1h-.5-.5l-1.5-1.5-1.5-1.5-1.5-1-1.5-1-.5-1.5-.5-1.5-.5-1.5-.5-1.5v-2.5-2.5l-10.5-4-10.5-4-8-.5-8-.5-7.5 1.5-7.5 1.5-8-1-8-1h-.5-.5l-2.5-.5-2.5-.5-2 .5-2 .5-.5 1.5-.5 1.5.5 2 .5 2 1 2 1 2 .5 1 .5 1 1 1.5 1 1.5 1 1 1 1 1 1 1 1 1 1.5 1 1.5 1 1 1 1 .5 1 .5 1 1.5 1.5 1.5 1.5.5 1.5.5 1.5 1 2 1 2 1 .5 1 .5 1 1.5 1 1.5v1 1l-.5.5-.5.5-.5.5-.5.5-1 1-1 1 2 .5 2 .5 1 .5 1 .5 1-1 1-1 .5 1.5.5 1.5 1 2 1 2v-1.5-1.5l-.5-1.5-.5-1.5v-3-3l-.5-1.5-.5-1.5-.5-1-.5-1-4-5.5-4-5.5-4-4.5-4-4.5-3.5-5.5-3.5-5.5 12-.5 12-.5 1-.5 1-.5h2 2l2-.5 2-.5h2 2 2 2 2.5 2.5 2 2 2.5 2.5l1.5.5 1.5.5 1.5.5 1.5.5h1.5 1.5l.5.5.5.5.5.5.5.5.5 1 .5 1 .5 1.5.5 1.5v1 1l-.5.5-.5.5v1 1l-1 .5-1 .5-.5.5-.5.5.5.5.5.5v1 1l1 .5 1 .5h1 1 1 1l.5.5.5.5 1 .5 1 .5.5 1 .5 1 1.5 1 1.5 1 1 .5 1 .5 1 1.5 1 1.5.5 1.5.5 1.5v1 1 1.5 1.5 2 2l-.5 1.5-.5 1.5v2 2 1.5 1.5l-.5.5-.5.5-.5.5-.5.5-1 1-1 1-.5.5-.5.5-1 .5-1 .5-1.5.5-1.5.5-.5 2-.5 2-.5 1-.5 1 1.5-1 1.5-1 1-1.5 1-1.5 1-1 1-1 .5.5.5.5-1 1.5-1 1.5-1 1.5-1 1.5-1 1-1 1-1 1.5-1 1.5-1.5 1-1.5 1-.5.5-.5.5-.5 1-.5 1 1-.5 1-.5 1-.5 1-.5h1 1l.5-.5.5-.5 1-1 1-1 1.5-2 1.5-2 .5-1.5.5-1.5 1-1.5 1-1.5 1-1 1-1 1-1.5 1-1.5.5-2 .5-2" style="fill:#77584b;stroke:#77584b" />
        <path d="m528 417l1-28-1-7.5-1-7.5-.5-8.5-.5-8.5v-9-9-8-8l1-6.5 1-6.5-1-6.5-1-6.5-2.5.5-2.5.5-1 1-1 1-1.5 1-1.5 1-1 1-1 1-1.5 1-1.5 1-2 1-2 1-1 7-1 7v9 9l2.5 6.5 2.5 6.5 2 6.5 2 6.5 1.5 7.5 1.5 7.5v9 9l2 6 2 6-.5 7-.5 7 1 7 1 7 1-5 1-5 2-6 2-6" style="fill:#bf4f47;stroke:#bf4f47" />
        <path d="m527 253l1-3v-2-2-1.5-1.5-1-1l-.5-1.5-.5-1.5-1-1.5-1-1.5.5 1.5.5 1.5v1 1 1.5 1.5 2 2 1 1 1 1 1 1l-.5 1.5-.5 1.5-5 3.5-5 3.5-4 4.5-4 4.5-6.5-2.5-6.5-2.5-5.5-3-5.5-3-5-4-5-4-3-5.5-3-5.5.5 1 .5 1 .5 1.5.5 1.5.5 1 .5 1 .5 1.5.5 1.5v2.5 2.5l1 1 1 1 2 .5 2 .5 1.5.5 1.5.5 1 .5 1 .5 1.5.5 1.5.5.5.5.5.5 1 .5 1 .5.5.5.5.5 1 1 1 1 6 3 6 3 10-5 10-5 1-1 1-1 .5-.5.5-.5.5-.5.5-.5v-1.5-1.5-2-2" style="fill:#bab5a9;stroke:#bab5a9" />
        <path d="m525 256l1-3v-1-1-1-1-1-1-2-2-1.5-1.5-1-1l-.5-1.5-.5-1.5-1-.5-1-.5-1.5-1-1.5-1-.5-1-.5-1h-.5-.5l-6.5 2.5-6.5 2.5v-7-7l.5-5.5.5-5.5h-.5-.5-1.5-1.5-1.5-1.5l-1.5-.5-1.5-.5h-2.5-2.5-2-2-2-2-1-1l-1 .5-1 .5h-2-2-1-1-2.5-2.5l-12 .5-12 .5 3.5 5.5 3.5 5.5 4 4.5 4 4.5 4 5.5 4 5.5 3 5.5 3 5.5 5 4 5 4 5.5 3 5.5 3 6.5 2.5 6.5 2.5 4-4.5 4-4.5 5-3.5 5-3.5" style="fill:#dedacd;stroke:#dedacd" />
        <path d="m525 229h1l-1-1-1-1-1-1-1-1-1-1.5-1-1.5-.5-1.5-.5-1.5-.5-2-.5-2-.5-1-.5-1v2.5 2.5l.5 1.5.5 1.5.5 1.5.5 1.5 1.5 1 1.5 1 1.5 1.5 1.5 1.5" style="fill:#3d372b;stroke:#3d372b" />
        <path d="m524 278h1l-.5-.5-.5-.5-2.5.5-2.5.5-1 1-1 1-.5.5-.5.5h-1-1l-1 .5-1 .5-1 .5-1 .5-1 .5-1 .5v.5.5l1.5 1.5 1.5 1.5 1.5-1.5 1.5-1.5 1.5-1 1.5-1 1-1 1-1 1.5-1 1.5-1 1-.5 1-.5" style="fill:#7a3428;stroke:#7a3428" />
        <path d="m523 267l-1-1-1 1-1 1-1 1.5-1 1.5-1.5 1-1.5 1-1 1-1 1-1 .5-1 .5-1 1-1 1h-1-1l-1.5.5-1.5.5 1 .5 1 .5h3 3l1.5-1 1.5-1 1-1.5 1-1.5 1-1 1-1 1-1.5 1-1.5 1-1.5 1-1.5" style="fill:#8d776c;stroke:#8d776c" />
        <path d="m522 265l1-1-10 5-10 5-6-3-6-3v.5.5l1 .5 1 .5 1 1 1 1 1 1 1 1 1.5 1 1.5 1 1 1 1 1 1 .5 1 .5 1.5-.5 1.5-.5h1 1l1-1 1-1 1-.5 1-.5 1-1 1-1 .5-1 .5-1 .5-2 .5-2 1.5-.5 1.5-.5 1-.5 1-.5" style="fill:#b19b8f;stroke:#b19b8f" />
        <path d="m520 138l-8-7-4 5-4 5-3.5 5.5-3.5 5.5 2 6 2 6 5-3.5 5-3.5 3.5-5.5 3.5-5.5 1-4 1-4" style="fill:#504b3f;stroke:#504b3f" />
        <path d="m518 230h1l-1-.5-1-.5-.5-.5-.5-.5h-1-1-1-1l-1-.5-1-.5v-1-1l-.5-.5-.5-.5.5-.5.5-.5 1-.5 1-.5v-1-1l.5-.5.5-.5v-1-1l-.5-1.5-.5-1.5-.5-1-.5-1-.5-.5-.5-.5-.5-.5-.5-.5h-1.5-1.5l-.5 5.5-.5 5.5v7 7l6.5-2.5 6.5-2.5" style="fill:#bab5a9;stroke:#bab5a9" />
        <path d="m511 281l1-1h-3-3l-1-.5-1-.5-1-.5-1-.5-1-1-1-1-1.5-1-1.5-1-1-1-1-1-1-1-1-1-1-.5-1-.5h-.5-.5l-.5.5-.5.5 1 1.5 1 1.5h.5.5l1 .5 1 .5 1 1 1 1 1.5 1 1.5 1 .5 1.5.5 1.5 1.5 1 1.5 1 2.5.5 2.5.5 1-.5 1-.5.5-1 .5-1" style="fill:#a9615b;stroke:#a9615b" />
        <path d="m507 285h1v-.5-.5l-2.5-.5-2.5-.5-1.5-1-1.5-1-.5-1.5-.5-1.5-1.5-1-1.5-1-1-1-1-1-1-.5-1-.5v2 2l1.5 1 1.5 1 .5 2 .5 2 1 1 1 1 1 1.5 1 1.5h2 2l1-.5 1-.5.5-1 .5-1" style="fill:#bf4f47;stroke:#bf4f47" />
        <path d="m505 210h1l-1.5-.5-1.5-.5-1.5-.5-1.5-.5h-2.5-2.5-2-2-2.5-2.5-2-2-2-2l-2 .5-2 .5h-2-2l-1 .5-1 .5h2.5 2.5 1 1 2 2l1-.5 1-.5h1 1 2 2 2 2 2.5 2.5l1.5.5 1.5.5h1.5 1.5 1.5 1.5" style="fill:#bab5a9;stroke:#bab5a9" />
        <path d="m503 289l1-1h-2-2l-1-1.5-1-1.5-1-1-1-1-.5-2-.5-2-1.5-1-1.5-1-.5.5-.5.5h-.5-.5l1 1 1 1v2.5 2.5l.5 1.5.5 1.5v2 2l1.5 1 1.5 1h1.5 1.5l1.5-1.5 1.5-1.5.5-1 .5-1" style="fill:#ce3d29;stroke:#ce3d29" />
        <path d="m499 309l1-1-1-1-1-1-.5-.5-.5-.5-.5-1-.5-1v-1-1-1-1l.5-.5.5-.5.5-1 .5-1 .5-1 .5-1h-1.5-1.5l-1.5-1-1.5-1v-2-2l-.5-1.5-.5-1.5v-2.5-2.5l-1-1-1-1-2 .5-2 .5-.5 1.5-.5 1.5v1 1l-1-.5-1-.5-1-1-1-1-.5-.5-.5-.5-.5-2-.5-2-1.5 15-1.5 15-.5 8.5-.5 8.5 3 6 3 6 5 2.5 5 2.5 2-7 2-7 2-8.5 2-8.5" style="fill:#cd3606;stroke:#cd3606" />
        <path d="m495 105l-5-10-5.5 2.5-5.5 2.5-4.5 4.5-4.5 4.5-3.5 5.5-3.5 5.5h-6.5-6.5l-5 4-5 4-2.5 6.5-2.5 6.5-2.5 6.5-2.5 6.5-2.5 6-2.5 6 3 5 3 5 4-4 4-4 3 6 3 6 3 5.5 3 5.5 5.5-1.5 5.5-1.5 6-3 6-3 .5-6.5.5-6.5-1.5-7.5-1.5-7.5 2.5-6 2.5-6 3.5-5.5 3.5-5.5 5-4 5-4 .5-8.5.5-8.5v-.5-.5" style="fill:#22150a;stroke:#22150a" />
        <path d="m491 278l1-1v-2-2h-.5-.5-.5-.5-1-1-.5-.5-2-2l-1-1-1-1-1-1.5-1-1.5-1-.5-1-.5-.5-.5-.5-.5h-.5-.5l-1 1-1 1 1 1 1 1 .5 1 .5 1 1 .5 1 .5.5 1.5.5 1.5.5 2 .5 2 .5.5.5.5 1 1 1 1 1 .5 1 .5v-1-1l.5-1.5.5-1.5 2-.5 2-.5h.5.5" style="fill:#992f18;stroke:#992f18" />
        <path d="m490 273h1l-1-1.5-1-1.5-1-1-1-1-1-.5-1-.5-.5-.5-.5-.5h-1-1l-.5-.5-.5-.5h-2.5-2.5-.5-.5v.5.5h.5.5l.5.5.5.5 1 .5 1 .5 1.5-.5 1.5-.5 1.5 1 1.5 1 1 1 1 1 .5 1 .5 1h1 1" style="fill:#7a3428;stroke:#7a3428" />
        <path d="m490 269h1v-.5-.5l-1-1-1-1-.5-.5-.5-.5-1-.5-1-.5-.5-.5-.5-.5-1.5-.5-1.5-.5h-.5-.5-1.5-1.5l.5 1 .5 1-1.5.5-1.5.5h2.5 2.5l.5.5.5.5h1 1l.5.5.5.5 1 .5 1 .5 1 1 1 1 .5-.5.5-.5" style="fill:#77584b;stroke:#77584b" />
        <path d="m487 273h1l-.5-1-.5-1-1-1-1-1-1.5-1-1.5-1-1.5.5-1.5.5 1 1.5 1 1.5 1 1 1 1h2 2" style="fill:#761f05;stroke:#761f05" />
        <path d="m483 373v-15l-2.5-6.5-2.5-6.5-5-4-5-4-2 6-2 6-3 5.5-3 5.5-4 5-4 5-4 5-4 5-4.5 4.5-4.5 4.5-1.5 2-1.5 2 3.5 5.5 3.5 5.5 2.5 6.5 2.5 6.5 2 7 2 7 2.5 6 2.5 6 5 4 5 4 5 4 5 4 4-4 4-4 1.5-5.5 1.5-5.5v-7.5-7.5-8-8-9-9-8-8l.5-1 .5-1" style="fill:#bf4f47;stroke:#bf4f47" />
        <path d="m481 262h1l-1-.5-1-.5-1.5-.5-1.5-.5-2-.5-2-.5-1-1-1-1v-2.5-2.5l-.5-1.5-.5-1.5-.5-1-.5-1v3 3l.5 1.5.5 1.5v1.5 1.5l1 .5 1 .5 1 .5 1 .5.5.5.5.5h1.5 1.5 1.5 1.5" style="fill:#b19b8f;stroke:#b19b8f" />
        <path d="m479 264l-1-2h-1.5-1.5l-.5-.5-.5-.5-1-.5-1-.5-1-.5-1-.5-1-2-1-2-.5-1.5-.5-1.5-1 1-1 1v1.5 1.5l.5 1.5.5 1.5.5.5.5.5.5 1 .5 1 1.5.5 1.5.5 2 .5 2 .5h.5.5l1.5-.5 1.5-.5" style="fill:#a9615b;stroke:#a9615b" />
        <path d="m474 285l1-3v-2-2-2.5-2.5-1.5-1.5l-1-1-1-1 1-1 1-1v-.5-.5l-2-.5-2-.5-1.5-.5-1.5-.5-.5-1-.5-1-.5-.5-.5-.5-.5-1.5-.5-1.5v-1.5-1.5l-1-.5-1-.5-.5.5-.5.5-1 .5-1 .5.5 1 .5 1-.5 1-.5 1v2 2 1 1l.5 1 .5 1-.5 2-.5 2-3 3.5-3 3.5-1.5 1.5-1.5 1.5-5-8.5-5-8.5h-2-2-2-2-1.5-1.5l-.5 1-.5 1-.5 7-.5 7-3 3-3 3-1-8-1-8-3-6-3-6-8.5-2.5-8.5-2.5.5 1 .5 1-1.5-.5-1.5-.5-2.5.5-2.5.5-7.5 5.5-7.5 5.5-2.5 6.5-2.5 6.5 2 6.5 2 6.5 4.5 4.5 4.5 4.5 6.5-2.5 6.5-2.5 5.5 2.5 5.5 2.5 6 2 6 2 4-3.5 4-3.5 5 1 5 1 4.5-4.5 4.5-4.5h5 5l4.5 4 4.5 4 3 1 3 1 1.5-8 1.5-8" style="fill:#bf4f47;stroke:#bf4f47" />
        <path d="m468 203l-11-4-5 1-5 1 7 2 7 2 3.5-1 3.5-1" style="fill:#22150a;stroke:#22150a" />
        <path d="m463 248v-2l-1-1.5-1-1.5-1-.5-1-.5-.5 1-.5 1-6-.5-6-.5-6 3-6 3-4.5-4-4.5-4-2.5-4.5-2.5-4.5-7 1.5-7 1.5h-7.5-7.5l-6 2-6 2-6.5 1.5-6.5 1.5-6-1-6-1h-.5-.5l-5 3-5 3-7.5 1.5-7.5 1.5-8 1-8 1-9 3-9 3 1 .5 1 .5.5 1 .5 1h.5.5l1.5.5 1.5.5 8-1.5 8-1.5 8-1 8-1 7.5-1 7.5-1 7-2 7-2 8-1 8-1 6.5-2.5 6.5-2.5 6.5-2 6.5-2 4 3 4 3 5.5 3.5 5.5 3.5 6.5 2.5 6.5 2.5 6.5-2 6.5-2 6.5-2 6.5-2 .5-.5.5-.5" style="fill:#571804;stroke:#571804" />
        <path d="m462 254l1-1-2-.5-2-.5-6 3.5-6 3.5-8 1-8 1-5.5-3.5-5.5-3.5-6-2.5-6-2.5-6.5-1.5-6.5-1.5-6 3-6 3-7.5 1.5-7.5 1.5-7 1-7 1-7 1.5-7 1.5-8.5.5-8.5.5-9.5 2-9.5 2v2 2l1 2 1 2 .5 2 .5 2-.5 1.5-.5 1.5.5 2 .5 2v2 2l-.5 1.5-.5 1.5.5 1.5.5 1.5.5 1.5.5 1.5.5.5.5.5v1.5 1.5l.5 1.5.5 1.5.5.5.5.5v1.5 1.5 2 2l.5 1 .5 1h1 1l.5-2 .5-2-.5-1.5-.5-1.5v-2.5-2.5l-.5-1.5-.5-1.5v-2.5-2.5l-.5-1-.5-1-.5-7.5-.5-7.5.5-6.5.5-6.5 8-.5 8-.5 7.5-.5 7.5-.5 12.5-1 12.5-1h3 3l2-.5 2-.5 1.5-.5 1.5-.5 1.5-.5 1.5-.5 1.5-1 1.5-1h1.5 1.5l2.5-.5 2.5-.5 1.5.5 1.5.5-.5-1-.5-1 7 .5 7 .5 9.5 5 9.5 5h1.5 1.5 2 2 2 2 2 2l2-.5 2-.5 1.5-.5 1.5-.5 1-1 1-1 .5-.5.5-.5 1-.5 1-.5 1.5-1.5 1.5-1.5 1-.5 1-.5" style="fill:#992f18;stroke:#992f18" />
        <path d="m461 250l1-1-6.5 2-6.5 2-6.5 2-6.5 2-6.5-2.5-6.5-2.5-5.5-3.5-5.5-3.5-4-3-4-3-6.5 2-6.5 2-6.5 2.5-6.5 2.5-8 1-8 1-7 2-7 2-7.5 1-7.5 1-8 1-8 1-8 1.5-8 1.5 1.5 2 1.5 2 9.5-2 9.5-2 8.5-.5 8.5-.5 7-1.5 7-1.5 7-1 7-1 7.5-1.5 7.5-1.5 6-3 6-3 6.5 1.5 6.5 1.5 6 2.5 6 2.5 5.5 3.5 5.5 3.5 8-1 8-1 6-3.5 6-3.5 1-1 1-1" style="fill:#761f05;stroke:#761f05" />
        <path d="m460 271l1-4-.5-1-.5-1v-1-1-2-2l.5-1 .5-1-.5-1-.5-1-1.5 1.5-1.5 1.5-1 .5-1 .5-.5.5-.5.5-1 1-1 1-1.5.5-1.5.5-2 .5-2 .5h-2-2l5 8.5 5 8.5 1.5-1.5 1.5-1.5 3-3.5 3-3.5" style="fill:#ce3d29;stroke:#ce3d29" />
        <path d="m459 332l1-16-2.5-6.5-2.5-6.5-5.5 2.5-5.5 2.5-1.5 7.5-1.5 7.5-2 6.5-2 6.5v9 9l6.5-1.5 6.5-1.5 3.5-5.5 3.5-5.5 1-4 1-4" style="fill:#cd3606;stroke:#cd3606" />
        <path d="m458 244l1-2-1-2-1-2-.5-1.5-.5-1.5-1.5-1.5-1.5-1.5-7-7.5-7-7.5-5 3-5 3-4.5 4.5-4.5 4.5 2.5 4.5 2.5 4.5 4.5 4 4.5 4 6-3 6-3 6 .5 6 .5" style="fill:#22150a;stroke:#22150a" />
        <path d="m448 205h1l-1.5-.5-1.5-.5-1-.5-1-.5h-1-1l-1.5-.5-1.5-.5-1-.5-1-.5-.5.5-.5.5-1 1-1 1v2 2l1 1.5 1 1.5 1 1 1 1 .5 1 .5 1 1 .5 1 .5-1-2-1-2-.5-2-.5-2 .5-1.5.5-1.5 2-.5 2-.5 2.5.5 2.5.5" style="fill:#504b3f;stroke:#504b3f" />
        <path d="m429 266l1-2-9.5-5-9.5-5-7-.5-7-.5 8.5 2.5 8.5 2.5 3 6 3 6 1 8 1 8 3-3 3-3 .5-7 .5-7" style="fill:#ce3d29;stroke:#ce3d29" />
        <path d="m417 145l-6-7-4 5-4 5-1.5 6.5-1.5 6.5 2 7 2 7 5-3.5 5-3.5.5-7.5.5-7.5 1-4 1-4" style="fill:#22150a;stroke:#22150a" />
        <path d="m416 365l-6-24-1.5-7.5-1.5-7.5-3-6-3-6-7 .5-7 .5-7-1-7-1-3.5-5.5-3.5-5.5-1.5-7.5-1.5-7.5v-7.5-7.5l2.5-6 2.5-6-12.5 1-12.5 1-7.5.5-7.5.5-8 .5-8 .5-.5 6.5-.5 6.5.5 7.5.5 7.5 7.5.5 7.5.5 6 .5 6 .5 3 6 3 6 1.5 7.5 1.5 7.5 5.5.5 5.5.5 4.5 2 4.5 2 5 4 5 4 5 4 5 4 1.5 9 1.5 9-2 6.5-2 6.5-3 6-3 6-5 3.5-5 3.5-3.5-4.5-3.5-4.5-2-6-2-6-3 2.5-3 2.5-.5 8.5-.5 8.5-.5 7.5-.5 7.5 1 8 1 8 1 7.5 1 7.5.5 7.5.5 7.5-1 7-1 7-1.5 10-1.5 10h2 2 2 2 2 2 2.5 2.5 2 2 2.5 2.5 2 2 2.5 2.5l-1.5-9.5-1.5-9.5-1.5-7.5-1.5-7.5-1.5-7-1.5-7-.5-8.5-.5-8.5-.5-7.5-.5-7.5 6.5-1.5 6.5-1.5 5.5-2 5.5-2 4.5-4.5 4.5-4.5 2.5-6 2.5-6 1-7.5 1-7.5" style="fill:#cd3606;stroke:#cd3606" />
        <path d="m391 360l-3-18-5-4-5-4-5-4-5-4-4.5-2-4.5-2-5.5-.5-5.5-.5-1.5-7.5-1.5-7.5-3-6-3-6-6-.5-6-.5-7.5-.5-7.5-.5.5 1 .5 1v2.5 2.5l.5 1.5.5 1.5v2.5 2.5l.5 1.5.5 1.5-.5 2-.5 2 4 4.5 4 4.5 7 2 7 2 5.5 3 5.5 3 2.5 6.5 2.5 6.5-1.5 7-1.5 7-2 7-2 7v7.5 7.5l-1 8-1 8-3.5 5.5-3.5 5.5-3.5 3.5-3.5 3.5-4-1.5-4-1.5.5 8 .5 8 .5 8.5.5 8.5v9 9l-.5 8-.5 8v.5.5h2 2 1.5 1.5l-.5-2-.5-2 .5-1.5.5-1.5.5-2 .5-2 1-1 1-1 1.5 1 1.5 1 .5 1.5.5 1.5 1 1.5 1 1.5.5 1.5.5 1.5.5 1 .5 1h3.5 3.5 2 2 .5.5l1.5-10 1.5-10 1-7 1-7-.5-7.5-.5-7.5-1-7.5-1-7.5-1-8-1-8 .5-7.5.5-7.5.5-8.5.5-8.5 3-2.5 3-2.5 2 6 2 6 3.5 4.5 3.5 4.5 5-3.5 5-3.5 3-6 3-6 2-6.5 2-6.5" style="fill:#ce3d29;stroke:#ce3d29" />
        <path d="m381 355l-6-9-4.5-1.5-4.5-1.5-3.5-2.5-3.5-2.5 2 6 2 6 2 5.5 2 5.5 4 2 4 2 3-5 3-5" style="fill:#bf4f47;stroke:#bf4f47" />
        <path d="m353 240h1l-2-6.5-2-6.5-5.5-2.5-5.5-2.5-8 1-8 1-7 .5-7 .5-5.5-3.5-5.5-3.5.5-8.5.5-8.5.5-8.5.5-8.5.5-7 .5-7-1-8-1-8 1-8 1-8 1-8 1-8v-8.5-8.5-9-9-8-8l1-8 1-8 .5-7 .5-7 1.5-7.5 1.5-7.5v-8-8l-4.5-5-4.5-5h-3.5-3.5-2-2-2.5-2.5-2-2l-.5.5-.5.5-6.5 2.5-6.5 2.5-7 1-7 1-7.5 1.5-7.5 1.5-7 1.5-7 1.5-8 1-8 1-8 1-8 1-7.5 1.5-7.5 1.5-8 .5-8 .5-7.5 1.5-7.5 1.5-8.5.5-8.5.5h-8-8l-6.5 2-6.5 2-5.5-3.5-5.5-3.5-.5-11.5-.5-11.5h-10.5-10.5-8.5-8.5-9-9-9-9-1.5-1.5l-.5.5-.5.5-2.5 6-2.5 6-1.5 7.5-1.5 7.5-.5 8-.5 8v10.5 10.5 9 9 8.5 8.5 9 9 9 9 9 9 8.5 8.5 9 9 9 9 9 9 9 9 8.5 8.5 9 9 9 9 9 9 8.5 8.5 9 9 9 9 9 9 8.5 8.5 9 9 9 9 9 9 8.5 8.5 1 1l8.5.5 8.5.5 7.5.5 7.5.5 10 3 10 3-.5 1-.5 1v1.5 1.5h8.5 8.5 9 9 9 9 9 9 8.5 8.5 9 9 9 9 9 9 8.5 8.5 9 9 9 9 9 9 8.5 8.5 9 9 6 6l.5-9 .5-9 .5-7 .5-7-.5-8.5-.5-8.5-.5-8.5-.5-8.5.5-8.5.5-8.5-1.5-7-1.5-7-2-7-2-7-1-7-1-7-.5-7.5-.5-7.5-1-9.5-1-9.5-7.5-2-7.5-2-7.5-1.5-7.5-1.5-12-2-12-2h-.5-.5l-8.5-1.5-8.5-1.5-7-2-7-2-6.5-2-6.5-2-7.5-1.5-7.5-1.5-7.5-1.5-7.5-1.5h-8-8l-.5.5-.5.5-.5.5-.5.5-7 3-7 3h-7-7l-7.5.5-7.5.5-3.5 5.5-3.5 5.5-5 7-5 7-.5 1-.5 1-3 5.5-3 5.5-6.5-2.5-6.5-2.5-7-6-7-6-1.5-1-1.5-1-.5-.5-.5-.5-1-.5-1-.5-.5-2.5-.5-2.5-.5-2-.5-2-.5-.5-.5-.5v-1-1l.5-.5.5-.5v-1-1-1.5-1.5-1-1l.5-.5.5-.5v-1-1l.5-1 .5-1v-1-1l.5-.5.5-.5v-1-1-1.5-1.5l.5-.5.5-.5.5-1 .5-1 .5-1 .5-1 1-1.5 1-1.5 1-1 1-1 1.5-1 1.5-1 1-1 1-1 1-1.5 1-1.5 1-1 1-1 2-1 2-1 .5-1 .5-1 .5-.5.5-.5.5-.5.5-.5.5-.5.5-.5 1-.5 1-.5.5-.5.5-.5.5-.5.5-.5.5-.5.5-.5 1-.5 1-.5.5-.5.5-.5h1 1l.5-.5.5-.5h1.5 1.5l1.5-.5 1.5-.5h1 1 1.5 1.5l1-.5 1-.5-.5-1-.5-1-1-1-1-1-2-1.5-2-1.5-1-.5-1-.5-.5-.5-.5-.5-.5-.5-.5-.5v-1-1l-.5-1-.5-1-.5-.5-.5-.5v-1-1-1-1-1-1l-.5-1-.5-1v-1-1-1-1l.5-.5.5-.5h1 1l.5 1 .5 1v1 1l.5.5.5.5.5.5.5.5.5 2 .5 2 1-.5 1-.5h2 2l1.5.5 1.5.5 1 1 1 1 .5.5.5.5.5 1 .5 1 1 1 1 1 .5.5.5.5v1.5 1.5 1.5 1.5 1.5 1.5l9 .5 9 .5 8-1 8-1 8.5-.5 8.5-.5 8.5-.5 8.5-.5 8 .5 8 .5 8 1 8 1h9 9 9 9 9 9l14.5-.5 14.5-.5 9-3 9-3 8-1 8-1 7.5-1.5 7.5-1.5 5-3 5-3" style="fill:#22150a;stroke:#22150a" />
        <path d="m352 346l-5-13-5.5-3-5.5-3-7-2-7-2-4-4.5-4-4.5h-1-1l.5 1 .5 1 .5 1.5.5 1.5-.5 1.5-.5 1.5v1.5 1.5l-.5 1-.5 1-.5 1.5-.5 1.5-.5.5-.5.5-.5 1-.5 1v1 1l-.5.5-.5.5v1.5 1.5l-.5 1-.5 1 1.5 8 1.5 8 1.5 7.5 1.5 7.5 1 7.5 1 7.5 1 7 1 7 1 7.5 1 7.5 1 2 1 2 4 1.5 4 1.5 3.5-3.5 3.5-3.5 3.5-5.5 3.5-5.5 1-8 1-8v-7.5-7.5l2-7 2-7 1.5-7 1.5-7" style="fill:#bf4f47;stroke:#bf4f47" />
        <path d="m339 488h1l-.5-1-.5-1-.5-1.5-.5-1.5-1-1.5-1-1.5-.5-1.5-.5-1.5-1.5-1-1.5-1-1 1-1 1-.5 2-.5 2-.5 1.5-.5 1.5.5 2 .5 2h2 2 2 2 1 1" style="fill:#cd3606;stroke:#cd3606" />
        <path d="m322 487l1-16v-9-9l-.5-8.5-.5-8.5-.5-8-.5-8-1-2-1-2v.5.5 1.5 1.5 1 1 1 1 1 1 1.5 1.5 1 1 1 1l-.5 1.5-.5 1.5 1 8.5 1 8.5-1 7.5-1 7.5.5 9.5.5 9.5v.5.5h1.5 1.5v-.5-.5" style="fill:#992f18;stroke:#992f18" />
        <path d="m319 487l-1-19 1-7.5 1-7.5-1-8.5-1-8.5-.5-1.5-.5-1.5v-1-1l-.5-.5-.5-.5v-1-1l-.5-1-.5-1 .5 8 .5 8v9 9 14 14h1.5 1.5v-.5-.5" style="fill:#761f05;stroke:#761f05" />
        <path d="m318 436l1-3v-1-1-1-1-1.5-1.5-1-1-1-1-1-1-1.5-1.5-.5-.5l-1-7.5-1-7.5-1-7-1-7-1-7.5-1-7.5-1.5-7.5-1.5-7.5-1.5-8-1.5-8-.5-1-.5-1v-2-2-2-2l-.5-1-.5-1-1-.5-1-.5-.5.5-.5.5 1 7.5 1 7.5 1 7 1 7 1.5 7.5 1.5 7.5 1.5 7 1.5 7 1 8 1 8 .5 11.5.5 11.5.5 1 .5 1v1 1l.5.5.5.5v1 1l.5 1.5.5 1.5" style="fill:#7a3428;stroke:#7a3428" />
        <path d="m315 488h1v-14-14-9-9l-.5-8-.5-8-.5-11.5-.5-11.5-1-8-1-8-1.5-7-1.5-7-1.5-7.5-1.5-7.5-1-7-1-7-1-7.5-1-7.5h-1-1l1 9.5 1 9.5.5 7.5.5 7.5 1 7 1 7 2 7 2 7 1.5 7 1.5 7-.5 8.5-.5 8.5.5 8.5.5 8.5.5 8.5.5 8.5-.5 7-.5 7-.5 9-.5 9h2 2" style="fill:#571804;stroke:#571804" />
        <path d="m313 322l1-3-.5-1.5-.5-1.5-.5-1-.5-1h-.5-.5-.5-.5l-1 .5-1 .5.5 1.5.5 1.5-.5 1.5-.5 1.5-.5 1-.5 1-.5 1-.5 1v1.5 1.5 1.5 1.5 2 2 2 2l.5 1 .5 1 .5-1 .5-1v-1.5-1.5l.5-.5.5-.5v-1-1l.5-1 .5-1 .5-.5.5-.5.5-1.5.5-1.5.5-1 .5-1v-1.5-1.5" style="fill:#a9615b;stroke:#a9615b" />
        <path d="m311 314h1l-.5-1-.5-1v-2-2-1.5-1.5l-.5-.5-.5-.5-.5-1.5-.5-1.5v-1.5-1.5l-.5-.5-.5-.5-.5-1.5-.5-1.5-.5-1.5-.5-1.5v-1.5-1.5l-.5.5-.5.5-.5-1-.5-1-.5-1.5-.5-1.5v-1-1-1.5-1.5-2-2-1-1-1-1l.5-1 .5-1v-2-2l-1.5-2-1.5-2-1.5-.5-1.5-.5.5 1.5.5 1.5 1 1 1 1v2 2l-.5 2-.5 2 .5 1.5.5 1.5.5 2 .5 2-.5 1.5-.5 1.5.5 2 .5 2v2 2 1.5 1.5l.5 1.5.5 1.5.5 1 .5 1 .5 1.5.5 1.5v1 1l.5 1 .5 1 .5 1.5.5 1.5.5.5.5.5.5 1 .5 1 1 1 1 1" style="fill:#7a3428;stroke:#7a3428" />
        <path d="m310 314h1l-1-1-1-1-.5-1-.5-1-.5-.5-.5-.5-.5-1.5-.5-1.5-.5-1-.5-1v-1-1l-.5-1.5-.5-1.5-.5-1-.5-1-.5-1.5-.5-1.5v2 2l.5 2 .5 2v2 2l1 1.5 1 1.5.5 1.5.5 1.5 1 1.5 1 1.5 1-.5 1-.5" style="fill:#77584b;stroke:#77584b" />
        <path d="m308 321l1-3-.5-1.5-.5-1.5-1-1.5-1-1.5-.5-1.5-.5-1.5-1-1.5-1-1.5v-2-2l-.5-2-.5-2v-2-2h-.5-.5l-1-7.5-1-7.5-.5-7.5-.5-7.5-7-1.5-7-1.5h-9-9l-14-.5-14-.5h-3-3-2-2-2.5-2.5-2-2-2-2l-2-.5-2-.5h-2-2-2.5-2.5l-1.5-.5-1.5-.5h-3-3l-.5.5-.5.5h-2-2-1-1-1.5-1.5-1-1-1-1-1-1-1.5-1.5-1-1-1-1-1-1-1.5-1.5l-1.5-.5-1.5-.5h-3-3-2-2l-2 .5-2 .5h-2-2-2-2-2.5-2.5l-1 .5-1 .5-.5.5-.5.5h-.5-.5l-.5.5-.5.5h-2-2-1-1-1-1-1.5-1.5-1-1-1-1l-.5.5-.5.5h-1-1l-1 .5-1 .5h-1-1-1-1-1-1-2.5-2.5-1.5-1.5-2.5-2.5-2-2l-1.5 1-1.5 1-1 1-1 1-1.5.5-1.5.5-1 1.5-1 1.5-1.5.5-1.5.5-2 1-2 1-1 1-1 1-1 1.5-1 1.5-1 1-1 1-1.5 1-1.5 1-1 1-1 1-1 1.5-1 1.5-.5 1-.5 1-.5 2-.5 2v1.5 1.5 1.5 1.5 1.5 1.5l-.5 1.5-.5 1.5-.5 2-.5 2v2 2 2.5 2.5l.5 1.5.5 1.5v1 1l-1-1.5-1-1.5.5 2.5.5 2.5 1 .5 1 .5.5.5.5.5 1.5 1 1.5 1 1.5 1.5 1.5 1.5 1 1.5 1 1.5 1.5.5 1.5.5 2 .5 2 .5 1.5.5 1.5.5 1.5.5 1.5.5 1.5.5 1.5.5h2.5 2.5l1.5-1 1.5-1 1-1 1-1 1.5-1.5 1.5-1.5 3-5.5 3-5.5 3.5-4.5 3.5-4.5 4.5-4.5 4.5-4.5 7.5 1.5 7.5 1.5 12-3.5 12-3.5.5-.5.5-.5 7-1.5 7-1.5 7 2 7 2 7.5 1.5 7.5 1.5 7 2 7 2 6.5 2 6.5 2 10.5 2.5 10.5 2.5 8 1.5 8 1.5 8 .5 8 .5 9.5 1.5 9.5 1.5-2-.5-2-.5-1-.5-1-.5h2 2 2 2l2 .5 2 .5 1.5.5 1.5.5.5-1 .5-1 .5-1 .5-1" style="fill:#8d776c;stroke:#8d776c" />
        <path d="m306 328v-3l-1.5-.5-1.5-.5-2-.5-2-.5h-2-2-2-2l1 .5 1 .5 2 .5 2 .5 1 .5 1 .5 2 1 2 1 1 .5 1 .5.5 1 .5 1v-1.5-1.5" style="fill:#77584b;stroke:#77584b" />
        <path d="m306 291l1-3v-2-2l-.5-2-.5-2 .5-1.5.5-1.5-.5-2-.5-2-1-2-1-2-.5 1-.5 1v1 1 1 1 2 2 1.5 1.5 1 1l.5 1.5.5 1.5.5 1 .5 1 .5-.5.5-.5v1.5 1.5" style="fill:#761f05;stroke:#761f05" />
        <path d="m302 329l1-1-2-1-2-1-1-.5-1-.5-9.5-1.5-9.5-1.5-8-.5-8-.5-8-1.5-8-1.5 12 2 12 2 7.5 1.5 7.5 1.5 7.5 2 7.5 2h1 1" style="fill:#3d372b;stroke:#3d372b" />
        <path d="m302 320l-2-13-1-8-1-8-1.5-7.5-1.5-7.5v-5-5h-.5-.5l-2-.5-2-.5-1.5.5-1.5.5-1.5-.5-1.5-.5-2.5-1-2.5-1h-3-3-3-3l6.5 2 6.5 2 3.5 5.5 3.5 5.5 4 4 4 4 1 7.5 1 7.5 1.5 9 1.5 9-1 .5-1 .5h-2.5-2.5-2-2-2-2l2.5.5 2.5.5h2 2 2.5 2.5l1.5-.5 1.5-.5" style="fill:#bab5a9;stroke:#bab5a9" />
        <path d="m301 294h1v-1.5-1.5-2-2l-.5-2-.5-2 .5-1.5.5-1.5-.5-2-.5-2-.5-1.5-.5-1.5.5-2 .5-2v-2-2l-1-1-1-1-.5-1.5-.5-1.5h-.5-.5-.5-.5l-7-.5-7-.5-8 .5-8 .5h-14-14l14 .5 14 .5h9 9l7 1.5 7 1.5.5 7.5.5 7.5 1 7.5 1 7.5" style="fill:#77584b;stroke:#77584b" />
        <path d="m300 319l-3-18-1-7.5-1-7.5-4-4-4-4-3.5-5.5-3.5-5.5-6.5-2-6.5-2h-1.5-1.5-2.5-2.5-1.5-1.5l-.5.5-.5.5h-9-9-8-8l-13.5-1-13.5-1h-.5-.5-2.5-2.5-2.5-2.5-2-2-2-2-2.5-2.5-2-2-3-3l-1 .5-1 .5h-2.5-2.5-2-2-2.5-2.5-2-2-2-2-1-1l-.5.5-.5.5-1.5.5-1.5.5h-2.5-2.5l-1.5.5-1.5.5h-2.5-2.5-2-2-2.5-2.5-2-2l-8 1.5-8 1.5-5 4-5 4-5 3.5-5 3.5-4 5-4 5-1.5 7.5-1.5 7.5.5 7.5.5 7.5 2 1.5 2 1.5 5.5 2.5 5.5 2.5-3.5-5-3.5-5 .5-7.5.5-7.5 3-6 3-6 5.5-3.5 5.5-3.5 6.5 2 6.5 2-3.5 5.5-3.5 5.5-3 5-3 5 4 2 4 2-3.5 5.5-3.5 5.5-3 3.5-3 3.5 5-2 5-2 3-6 3-6 4.5-6 4.5-6 6.5-3.5 6.5-3.5 7 2 7 2 7.5-1.5 7.5-1.5h.5.5l3.5-5 3.5-5 7 1 7 1 7 1.5 7 1.5 8 2.5 8 2.5h1.5 1.5l2 .5 2 .5 1.5.5 1.5.5 2 .5 2 .5 1.5.5 1.5.5 2 .5 2 .5.5.5.5.5 8.5 1.5 8.5 1.5 13.5 3.5 13.5 3.5h3 3 2 2l2 .5 2 .5 1.5.5 1.5.5 2 .5 2 .5h2 2 2 2 2.5 2.5l1-.5 1-.5" style="fill:#dedacd;stroke:#dedacd" />
        <path d="m296 260h1l-.5-1-.5-1-1-.5-1-.5-14.5.5-14.5.5h-9-9-9-9-9-9l-8-1-8-1-8-.5-8-.5-8.5.5-8.5.5-8.5.5-8.5.5-8 1-8 1-9-.5-9-.5-1 .5-1 .5h-2-2l-2.5.5-2.5.5h-1.5-1.5-1-1l-1.5.5-1.5.5h-1.5-1.5l-.5.5-.5.5h-1-1l-.5.5-.5.5-1 .5-1 .5-.5.5-.5.5-.5.5-.5.5-.5.5-.5.5-1 .5-1 .5-.5.5-.5.5-.5.5-.5.5-.5.5-.5.5-.5 1-.5 1 1.5-.5 1.5-.5 1-1.5 1-1.5 1.5-.5 1.5-.5 1-1 1-1 1.5-1 1.5-1h2 2l1.5-.5 1.5-.5 2-.5 2-.5h2 2l1.5-.5 1.5-.5h2.5 2.5l1.5-.5 1.5-.5h2.5 2.5 2 2 2.5 2.5 3 3l1-.5 1-.5h2.5 2.5 2 2 2 2l2-.5 2-.5h2 2 3 3 1.5 1.5 2.5 2.5 2 2l2-.5 2-.5h2 2 2 2 1 1 1.5 1.5l1 .5 1 .5h3 3l1.5.5 1.5.5h2.5 2.5 2 2l2 .5 2 .5h2 2 2 2 2.5 2.5 2 2 3 3 14 14l8-.5 8-.5 7 .5 7 .5" style="fill:#3d372b;stroke:#3d372b" />
        <path d="m294 266h1l-.5-1-.5-1-1.5-.5-1.5-.5h-.5-.5-2-2-2-2-1.5-1.5l2.5 1 2.5 1 1.5.5 1.5.5 1.5-.5 1.5-.5 2 .5 2 .5" style="fill:#b19b8f;stroke:#b19b8f" />
        <path d="m290 263h1l-10-.5-10-.5h-8.5-8.5-9-9-9-9-5-5l8 .5 8 .5h16 16 1.5 1.5 2.5 2.5 1.5 1.5 3 3 3 3 1.5 1.5 2 2 2 2" style="fill:#928e81;stroke:#928e81" />
        <path d="m279 1l1-1h-10-10-8.5-8.5-9-9-9-9-9-9-9-9-8.5-8.5-9-9-9-9-9-9-6.5-6.5l.5 11.5.5 11.5 5.5 3.5 5.5 3.5 6.5-2 6.5-2h8 8l8.5-.5 8.5-.5 7.5-1.5 7.5-1.5 8-.5 8-.5 7.5-1.5 7.5-1.5 8-1 8-1 8-1 8-1 7-1.5 7-1.5 7.5-1.5 7.5-1.5 7-1 7-1 6.5-2.5 6.5-2.5" style="fill:#3d372b;stroke:#3d372b" />
        <g style="fill:#bab5a9;stroke:#bab5a9">
            <path d="m263 317h1l-13.5-3.5-13.5-3.5-8.5-1.5-8.5-1.5 8 2 8 2 7 2 7 2 6.5 1 6.5 1" />
            <path d="m255 264l1-1h-16-16l-8-.5-8-.5h-3-3-2.5-2.5-1.5-1.5l13.5 1 13.5 1h8 8 9 9" />
        </g>
        <g style="fill:#3d372b;stroke:#3d372b">
            <path d="m255 138v-15l.5-8.5.5-8.5v-9-9-9-9l-1-7.5-1-7.5-7 1-7 1-8 1-8 1-8 1-8 1-7 .5-7 .5-7.5 1.5-7.5 1.5-6.5 2.5-6.5 2.5-6.5 2.5-6.5 2.5-7.5 1-7.5 1-6.5 1.5-6.5 1.5-7.5 1.5-7.5 1.5-8.5-.5-8.5-.5-3 6-3 6-.5 8-.5 8-1 8-1 8 .5 8.5.5 8.5.5 7.5.5 7.5v8.5 8.5l-.5 7.5-.5 7.5v8 8l6 3 6 3 8-.5 8-.5 8 1 8 1h9 9l8.5.5 8.5.5 7.5 1 7.5 1 8 1 8 1 8.5.5 8.5.5 8.5.5 8.5.5 7.5.5 7.5.5 4.5-4 4.5-4v-8-8-8-8-9-9l1-7.5 1-7.5v-5-5" />
            <path d="m245 318h1l-10.5-2.5-10.5-2.5-6.5-2-6.5-2-7-2-7-2-7.5-1.5-7.5-1.5-7-2-7-2-7 1.5-7 1.5h8 8l7.5 1.5 7.5 1.5 7.5 1.5 7.5 1.5 6.5 2 6.5 2 7 2 7 2 8.5 1.5 8.5 1.5" />
            <path d="m236 348l-7-8-7 1-7 1-7.5.5-7.5.5-5.5 3.5-5.5 3.5-5 1.5-5 1.5-7.5 1.5-7.5 1.5-6.5 2.5-6.5 2.5 8 1 8 1 7.5-1 7.5-1 7-2 7-2 6.5-.5 6.5-.5 8-1 8-1 5.5-3 5.5-3" />
        </g>
        <g style="fill:#bab5a9;stroke:#bab5a9">
            <path d="m197 301h1l-8-2.5-8-2.5-7-1.5-7-1.5-7-1-7-1-3.5 5-3.5 5 6.5-4 6.5-4 7.5 1.5 7.5 1.5 7 1.5 7 1.5 4 1 4 1" />
            <path d="m193 262h1l-1-.5-1-.5h-2-2l-2-.5-2-.5h-2-2l-2 .5-2 .5h-2-2-2.5-2.5-2-2l-1.5.5-1.5.5h3 3 2 2 2.5 2.5 2 2 2 2 2.5 2.5 2.5 2.5" />
        </g>
        <path d="m192 259l1-1-1-.5-1-.5h-1.5-1.5-1-1-2-2-2-2l-2 .5-2 .5h-2-2-2.5-2.5-1.5-1.5l1.5.5 1.5.5h1.5 1.5 1 1 1 1 1 1 1.5 1.5 1 1 1 1 1 1 1.5 1.5 1 1 2 2" style="fill:#77584b;stroke:#77584b" />
        <g style="fill:#3d372b;stroke:#3d372b">
            <path d="m153 449l-7-8-4.5-2.5-4.5-2.5-3.5 3.5-3.5 3.5h-8-8l-6.5 2-6.5 2 1 4 1 4h8 8l8-1 8-1h5.5 5.5l3.5-2 3.5-2" />
            <path d="m153 303l1-1-12 3.5-12 3.5-7.5-1.5-7.5-1.5-4.5 4.5-4.5 4.5-3.5 4.5-3.5 4.5-3 5.5-3 5.5 5-7 5-7 3.5-5.5 3.5-5.5 7.5-.5 7.5-.5h7 7l7-3 7-3" />
        </g>
        <path d="m151 290v-2l-1-1-1-1-2 .5-2 .5-1.5.5-1.5.5-1.5 1-1.5 1v2 2h2.5 2.5l1-1 1-1 1.5-.5 1.5-.5 1-.5 1-.5" style="fill:#bab5a9;stroke:#bab5a9" />
        <path d="m147 361l-4-11-8.5.5-8.5.5-6 3-6 3-4.5 1-4.5 1h-.5-.5l-1 1-1 1-.5.5-.5.5v1 1l-.5.5-.5.5-1 .5-1 .5-1 1-1 1-.5.5-.5.5-.5-.5-.5-.5-.5-.5-.5-.5-1 .5-1 .5-.5.5-.5.5-1.5-.5-1.5-.5 1.5 4.5 1.5 4.5 7.5-1.5 7.5-1.5 7-2 7-2 6.5-2 6.5-2 6.5-1.5 6.5-1.5 1-1 1-1" style="fill:#3d372b;stroke:#3d372b" />
        <path d="m133 264l1-1-2.5.5-2.5.5h-2.5-2.5-2-2l-2 .5-2 .5h-2-2-2.5-2.5l-1.5.5-1.5.5h2 2 2.5 2.5 2 2 2.5 2.5l1.5-.5 1.5-.5h2.5 2.5l1.5-.5 1.5-.5" style="fill:#bab5a9;stroke:#bab5a9" />
        <path d="m132 261l1-1h-3-3-2.5-2.5-2-2-2.5-2.5l-1.5.5-1.5.5h-2.5-2.5l-1.5.5-1.5.5h-2-2l-2 .5-2 .5-1.5.5-1.5.5h2.5 2.5 1.5 1.5l2.5-.5 2.5-.5 1.5-.5 1.5-.5h2.5 2.5l1.5-.5 1.5-.5h2 2 2.5 2.5 2 2 1.5 1.5.5.5" style="fill:#504b3f;stroke:#504b3f" />
        <path d="m130 262l1-1h-1.5-1.5-2-2-2.5-2.5-2-2l-1.5.5-1.5.5h-2.5-2.5l-1.5.5-1.5.5-2.5.5-2.5.5h2.5 2.5 1 1 1 1 1 1l1-.5 1-.5h1 1l.5-.5.5-.5h1 1 1 1 1.5 1.5 1 1 1 1 2 2" style="fill:#77584b;stroke:#77584b" />
        <g style="fill:#571804;stroke:#571804">
            <path d="m111 255v-3-1.5-1.5l-.5-.5-.5-.5-1-1-1-1-.5-1-.5-1-.5-.5-.5-.5-1-1-1-1-1.5-.5-1.5-.5h-2-2l-1 .5-1 .5 1 1 1 1v1.5 1.5l.5 1.5.5 1.5v1 1l-1.5.5-1.5.5 2 1.5 2 1.5 1 1 1 1 .5 1 .5 1-1 .5-1 .5 2.5-.5 2.5-.5h2 2l1-.5 1-.5v-1.5-1.5" />
            <path d="m104 359h1l-5-4.5-5-4.5-3.5 3-3.5 3-1 5-1 5 .5 1 .5 1 1.5.5 1.5.5.5-.5.5-.5 1-.5 1-.5.5.5.5.5.5.5.5.5.5-.5.5-.5 1-1 1-1 1-.5 1-.5.5-.5.5-.5v-1-1l.5-.5.5-.5 1-1 1-1" />
        </g>
        <path d="m103 311l1-3v-.5-.5l-4.5 6-4.5 6-3 6-3 6-5 2-5 2 3-3.5 3-3.5 3.5-5.5 3.5-5.5-4-2-4-2 3-5 3-5 3.5-5.5 3.5-5.5-6.5-2-6.5-2-5.5 3.5-5.5 3.5-3 6-3 6-.5 7.5-.5 7.5 3.5 5 3.5 5-5.5-2.5-5.5-2.5 5.5 3.5 5.5 3.5 6.5 1.5 6.5 1.5 3.5-5 3.5-5 3.5-5.5 3.5-5.5 1.5-2.5 1.5-2.5" style="fill:#bab5a9;stroke:#bab5a9" />
        <g style="fill:#3d372b;stroke:#3d372b">
            <path d="m98 251v-2l-.5-1.5-.5-1.5v-1.5-1.5l-1-1-1-1-.5-2-.5-2-.5-.5-.5-.5-.5-.5-.5-.5v-1-1l-.5-1-.5-1h-1-1l-.5.5-.5.5v1 1 1 1l.5 1 .5 1v1 1 1 1 1 1l.5.5.5.5.5 1 .5 1v1 1l.5.5.5.5.5.5.5.5 1 .5 1 .5 1.5-.5 1.5-.5" />
            <path d="m92 337l1-2-1.5 1.5-1.5 1.5-1 1-1 1-.5 1-.5 1-1.5 1-1.5 1h-2-2l-1.5-1-1.5-1-1.5-1-1.5-1-1.5-.5-1.5-.5-2-.5-2-.5-1.5-.5-1.5-.5-1-1.5-1-1.5-1.5-1.5-1.5-1.5 7 6 7 6 6.5 2.5 6.5 2.5 3-5.5 3-5.5" />
        </g>
        <path d="m91 296l-9-4-5 4-5 4-1.5 7-1.5 7 .5-2 .5-2 .5-2 .5-2 .5-1.5.5-1.5 1-1.5 1-1.5h2 2l1-1 1-1 1-1.5 1-1.5h2 2l.5 1 .5 1-1 1-1 1-.5.5-.5.5-.5 1-.5 1-.5 1.5-.5 1.5-.5 1-.5 1 1.5-1.5 1.5-1.5 1-1 1-1 1-1.5 1-1.5 1-1 1-1 .5-.5.5-.5" style="fill:#b19b8f;stroke:#b19b8f" />
        <path d="m87 342l1-2-1.5 1-1.5 1h-2.5-2.5l-1.5-.5-1.5-.5-1.5-.5-1.5-.5 1.5 1 1.5 1 1.5 1 1.5 1h2 2l1.5-1 1.5-1" style="fill:#504b3f;stroke:#504b3f" />
        <path d="m87 297l-1-2h-2-2l-1 1.5-1 1.5-1 1-1 1h-2-2l-1 1.5-1 1.5-.5 1.5-.5 1.5-.5 2-.5 2-.5 2-.5 2v1.5 1.5 1.5 1.5l1 1.5 1 1.5 1 1 1 1 1.5.5 1.5.5h1 1 1.5 1.5l1-1 1-1 .5-.5.5-.5.5-1 .5-1-1-2-1-2-1-1-1-1-1-1-1-1v-2.5-2.5l1-.5 1-.5.5-1 .5-1 .5-1.5.5-1.5.5-1 .5-1 .5-.5.5-.5 1-1 1-1" style="fill:#928e81;stroke:#928e81" />
        <path d="m86 323l1-3-1-1-1-1-1-.5-1-.5 1 2 1 2-.5 1-.5 1-.5.5-.5.5-1 1-1 1h-1.5-1.5-1-1l-1.5-.5-1.5-.5-1-1-1-1-1-1.5-1-1.5v-1.5-1.5-1.5-1.5l-.5 1-.5 1-.5 1.5-.5 1.5 1 1.5 1 1.5.5 1.5.5 1.5 1.5 1 1.5 1 1.5.5 1.5.5h2 2l1.5-1 1.5-1 1-1 1-1 .5-.5.5-.5" style="fill:#b19b8f;stroke:#b19b8f" />
        <path d="m81 323l-3-12-1.5-4.5-1.5-4.5-2 7-2 7 4 4 4 4 1-.5 1-.5" style="fill:#8d776c;stroke:#8d776c" />
        <path d="m55 295l1-4-.5 1-.5 1-.5.5-.5.5v1.5 1.5 1 1l-.5.5-.5.5v1 1l-.5 1-.5 1v1 1l-.5.5-.5.5v1 1 1.5 1.5 1 1l-.5.5-.5.5v1 1l.5.5.5.5.5 2 .5 2v-2-2-2.5-2.5-2-2l.5-2 .5-2 1-2 1-2v-1.5-1.5-1.5-1.5" style="fill:#3d372b;stroke:#3d372b" />
        <path d="m54 325v-2l-.5-1.5-.5-1.5v-2.5-2.5-2-2l.5-2 .5-2 .5-1.5.5-1.5v-1.5-1.5l-1 2-1 2-.5 2-.5 2v2 2 2.5 2.5 2 2l1 1.5 1 1.5" style="fill:#504b3f;stroke:#504b3f" />
        <g style="fill:#3d372b;stroke:#3d372b">
            <path d="m52 483l-20-6-7.5-.5-7.5-.5-8.5-.5-8.5-.5v6.5 6.5h2 2 9 9 9 9 5.5 5.5v-1.5-1.5l.5-1 .5-1" />
            <path d="m9 1l1-1h-5-5v5 5 8.5 8.5 8.5 8.5l.5-8 .5-8 1.5-7.5 1.5-7.5 2.5-6 2.5-6" />
        </g>
    </g>
</svg>
