<svg xmlns="http://www.w3.org/2000/svg" viewBox="0 0 160 960">
    <path d="m0 0h160v960h-160z" style="fill:#3f372b" />
    <g style="stroke-linejoin:round;stroke-width:.7">
        <path d="m0 959v1h1.5 1.5 2 2 1.5 1.5v-.5-.5l-.5-1-.5-1-.5-.5-.5-.5-.5-.5-.5-.5-1-.5-1-.5-.5-.5-.5-.5-1-1-1-1-1-.5-1-.5v2 2 2 2 .5.5" style="fill:#5d564a;stroke:#5d564a" />
        <path d="m10 959v1h1 1v-.5-.5l-.5-1-.5-1-1-1-1-1-.5-.5-.5-.5-1-.5-1-.5-2-1-2-1 1 1 1 1 .5.5.5.5 1 .5 1 .5.5.5.5.5.5.5.5.5.5 1 .5 1" style="fill:#bcb8ac;stroke:#bcb8ac" />
        <path d="m12 959v1h10.5 10.5 8.5 8.5 9 9v-.5-.5-.5-.5l-.5-1-.5-1-.5-.5-.5-.5v-1-1-1-1l-.5-1-.5-1v-1-1h1 1 1 1l.5.5.5.5.5 1 .5 1 .5.5.5.5.5.5.5.5.5.5.5.5.5 1 .5 1v1 1l.5 1.5.5 1.5h9 9 9 9 8.5 8.5 9 9 6.5 6.5v-2.5-2.5-9-9-9-9-8.5-8.5-9-9-9-9-8-8l-1-.5-1-.5v-1.5-1.5-1-1-1-1l.5-.5.5-.5.5 1 .5 1v-2-2-2.5-2.5h-1.5-1.5l-1 1-1 1 .5 1 .5 1 .5 1.5.5 1.5h-1-1l-2-.5-2-.5v-2-2l.5-.5.5-.5 1-.5 1-.5-1-1-1-1-1.5-1-1.5-1-1-.5-1-.5-1-.5-1-.5-1.5-.5-1.5-.5h-1-1v1 1l.5.5.5.5.5 1 .5 1v1 1l-.5.5-.5.5-.5.5-.5.5-1.5-.5-1.5-.5-1-.5-1-.5-1-1-1-1-1-1-1-1-1-.5-1-.5h-1.5-1.5-2-2l-.5.5-.5.5v1 1 1 1l-1.5-.5-1.5-.5-1-.5-1-.5v-2-2l.5-2 .5-2-5-4-5-4-7.5.5-7.5.5.5 4 .5 4 3.5 4.5 3.5 4.5 9 2.5 9 2.5 1.5 1 1.5 1-.5 2-.5 2-1.5.5-1.5.5h-2.5-2.5-2-2l-1.5-.5-1.5-.5-2.5-.5-2.5-.5-2-1-2-1-4-5-4-5-2.5-6-2.5-6-10.5 1.5-10.5 1.5-.5 3-.5 3 7 2 7 2 1 4.5 1 4.5-1.5-.5-1.5-.5-2-.5-2-.5-2-.5-2-.5h-1.5-1.5l-1-.5-1-.5-2.5-.5-2.5-.5-2-.5-2-.5-1-1-1-1-1-1.5-1-1.5v-2-2l-1.5-1-1.5-1h-3-3l-1 .5-1 .5-1 1-1 1-1.5.5-1.5.5-2-.5-2-.5-1.5-.5-1.5-.5-1.5-.5-1.5-.5-1-1.5-1-1.5-1-1.5-1-1.5-1.5.5-1.5.5-1.5.5-1.5.5-2 .5-2 .5h-2-2l-2-.5-2-.5v2 2 2.5 2.5 2 2 2 2 1 1h1.5 1.5l1.5.5 1.5.5 1.5-1 1.5-1h1 1l.5.5.5.5.5.5.5.5.5 2 .5 2 1.5 2 1.5 2 .5 1.5.5 1.5-.5 1.5-.5 1.5-1.5 1-1.5 1-1 .5-1 .5-1 .5-1 .5-1 .5-1 .5-1.5.5-1.5.5-.5.5-.5.5-.5 1-.5 1-1.5.5-1.5.5v2.5 2.5 2 2 1 1l1 .5 1 .5 1.5.5 1.5.5 1 1 1 1 1.5 1 1.5 1 .5 1.5.5 1.5-1 .5-1 .5-1.5-.5-1.5-.5-1.5-.5-1.5-.5-1.5-1-1.5-1v2 2 2.5 2.5 2 2 2.5 2.5 2 2 .5.5h2 2l1 1 1 1 .5.5.5.5h1 1l.5 1 .5 1 2 1 2 1 1.5 1 1.5 1 1.5.5 1.5.5 1.5 1 1.5 1 1.5.5 1.5.5 1-1 1-1 1.5-1 1.5-1 1-1 1-1 1.5-1 1.5-1 2 1 2 1h1.5 1.5l1 1 1 1 1.5 1 1.5 1 1 1 1 1 .5 1.5.5 1.5 1 1.5 1 1.5 1 1 1 1 1 1.5 1 1.5.5 2 .5 2 .5 1 .5 1-.5 2-.5 2-1.5.5-1.5.5-1.5-.5-1.5-.5-.5-1-.5-1-1-1-1-1-.5-1-.5-1-.5-.5-.5-.5-.5-.5-.5-.5h-1-1l-1-1.5-1-1.5-1.5-.5-1.5-.5-.5 1-.5 1 .5.5.5.5.5.5.5.5.5.5.5.5.5.5.5.5.5 1 .5 1v1 1h-1-1l-1.5-.5-1.5-.5-7.5-1.5-7.5-1.5-3.5-4.5-3.5-4.5-8-4-8-4v1.5 1.5 2 2 2 2 2.5 2.5 2 2 2.5 2.5 2 2 2 2l1 .5 1 .5 2 1 2 1 1 .5 1 .5.5.5.5.5 1 1 1 1 .5 1 .5 1" style="fill:#ddd9cc;stroke:#ddd9cc" />
        <path d="m68 959v1h1.5 1.5 2 2v-.5-.5l-1-1.5-1-1.5v1.5 1.5l-1.5-.5-1.5-.5-.5-1-.5-1v-1-1l.5-.5.5-.5.5 1 .5 1 1 .5 1 .5-.5-1.5-.5-1.5-1.5-1-1.5-1-.5 1.5-.5 1.5v2 2 .5.5" style="fill:#b7b18d;stroke:#b7b18d" />
        <path d="m75 959v1h.5.5l-.5-1.5-.5-1.5v-1-1l-.5-1-.5-1-.5-.5-.5-.5-.5-.5-.5-.5-.5-.5-.5-.5-.5-1-.5-1-.5-.5-.5-.5h-1-1-1-1v1 1l.5 1 .5 1v1 1 1 1l.5.5.5.5.5 1 .5 1v-2-2l.5-1.5.5-1.5 1.5 1 1.5 1 .5 1.5.5 1.5 1 1.5 1 1.5" style="fill:#bcb8ac;stroke:#bcb8ac" />
        <path d="m70 958l3 1v-1.5-1.5l-1-.5-1-.5-.5-1-.5-1-.5.5-.5.5v1 1l.5 1 .5 1" style="fill:#958f84;stroke:#958f84" />
        <path d="m129 953l3 1 1.5-.5 1.5-.5 1-1.5 1-1.5.5-.5.5-.5v-.5-.5l2-.5 2-.5 1.5-.5 1.5-.5 1-1 1-1h1 1l1-.5 1-.5 1-1 1-1 1.5-1 1.5-1 .5-1.5.5-1.5-1.5-1-1.5-1-1-.5-1-.5h-3.5-3.5l-.5.5-.5.5.5.5.5.5-1 .5-1 .5h-2-2-1-1l-.5.5-.5.5h-1-1-1-1l-1 .5-1 .5-1.5 1-1.5 1h-2-2l-1.5 1-1.5 1 .5 1.5.5 1.5.5 1.5.5 1.5 1.5 1 1.5 1 1 1 1 1 1 .5 1 .5" style="fill:#7e7569;stroke:#7e7569" />
        <path d="m131 949h2 .5.5v-.5-.5l.5-1 .5-1-.5-.5-.5-.5-1-1-1-1h-1.5-1.5l-1.5 1.5-1.5 1.5 2 1.5 2 1.5h.5.5" style="fill:#3f372b;stroke:#3f372b" />
        <path d="m134 948v1l1-.5 1-.5.5-1.5.5-1.5 2-.5 2-.5h2 2l1.5-1 1.5-1v-.5-.5h-1.5-1.5l-1 1-1 1h-2.5-2.5l-1.5 1.5-1.5 1.5-.5 1-.5 1" style="fill:#5d564a;stroke:#5d564a" />
        <path d="m138 948v1h1.5 1.5l1.5-.5 1.5-.5 1.5-1 1.5-1 1.5-.5 1.5-.5 1.5-1 1.5-1 1-1 1-1 1.5-1 1.5-1 .5-1.5.5-1.5-1-1-1-1-2-.5-2-.5h-.5-.5l1 .5 1 .5 1.5 1 1.5 1-.5 1.5-.5 1.5-1.5 1-1.5 1-1 1-1 1-1 .5-1 .5h-1-1l-1 1-1 1-1.5.5-1.5.5-2 .5-2 .5" style="fill:#bcb8ac;stroke:#bcb8ac" />
        <path d="m125 945l1 1 1.5-1.5 1.5-1.5h1.5 1.5l1-1.5 1-1.5 1.5-.5 1.5-.5h1 1 1.5 1.5l1.5-.5 1.5-.5 1.5-.5 1.5-.5h1 1v1.5 1.5l1.5-1.5 1.5-1.5-1.5-.5-1.5-.5h-2.5-2.5l-1.5.5-1.5.5-2 .5-2 .5-1.5.5-1.5.5-1.5 1-1.5 1-1.5.5-1.5.5h-2-2v1.5 1.5" style="fill:#5d564a;stroke:#5d564a" />
        <path d="m134 945l1 1 1.5-1.5 1.5-1.5h2.5 2.5l1-1 1-1-.5-.5-.5-.5.5-1 .5-1-1.5.5-1.5.5h-1.5-1.5-1-1l-1.5.5-1.5.5-1 1.5-1 1.5 1 1 1 1" style="fill:#76352c;stroke:#76352c" />
        <path d="m52 940l3 1 1.5-.5 1.5-.5.5-2 .5-2-.5-1-.5-1v2 2l-.5.5-.5.5-.5.5-.5.5-1.5-.5-1.5-.5-1-.5-1-.5.5 1 .5 1" style="fill:#bcb8ac;stroke:#bcb8ac" />
        <path d="m144 940l1 1h1.5 1.5l1-.5 1-.5v-1.5-1.5h-1-1l-1.5.5-1.5.5-.5 1-.5 1" style="fill:#3f372b;stroke:#3f372b" />
        <path d="m53 939l3 1 .5-.5.5-.5.5-.5.5-.5v-2-2l-.5-2-.5-2-1-1.5-1-1.5-1-1-1-1-1-1.5-1-1.5-.5-1.5-.5-1.5-1-1-1-1-1.5-1-1.5-1-1-1-1-1h-1.5-1.5-1.5-1.5l-1 .5-1 .5-.5.5-.5.5-.5 1-.5 1-1.5.5-1.5.5-.5.5-.5.5-1 .5-1 .5-2-.5-2-.5-1-.5-1-.5-1-.5-1-.5-.5-.5-.5-.5h-1-1l-.5-.5-.5-.5-1-.5-1-.5-.5-.5-.5-.5-1-1-1-1-1-.5-1-.5-1.5-.5-1.5-.5-.5-.5-.5-.5-.5-.5-.5-.5h-1.5-1.5v1 1l2 1 2 1 1.5 1 1.5 1 1.5.5 1.5.5 1.5 1 1.5 1v1 1h-1-1l-1.5-.5-1.5-.5-2.5-1-2.5-1 6.5 3.5 6.5 3.5 4 5 4 5 9-1.5 9-1.5 1 1.5 1 1.5h1 1l.5.5.5.5.5.5.5.5.5 1 .5 1 1 1 1 1 1 .5 1 .5" style="fill:#958f84;stroke:#958f84" />
        <path d="m38 937l3 1h1 1v-1-1l-.5-1-.5-1-.5-.5-.5-.5-.5-.5-.5-.5-.5-.5-.5-.5-.5-.5-.5-.5.5-1 .5-1 1.5.5 1.5.5-9 1.5-9 1.5-4-5-4-5-6.5-3.5-6.5-3.5-1.5-.5-1.5-.5v1.5 1.5l8 4 8 4 3.5 4.5 3.5 4.5 7.5 1.5 7.5 1.5" style="fill:#bcb8ac;stroke:#bcb8ac" />
        <path d="m132 937h2 1 1l.5-.5.5-.5h1 1 2 2l1-.5 1-.5-.5-.5-.5-.5h-2.5-2.5l-2 .5-2 .5-1.5.5-1.5.5v.5.5" style="fill:#b7b18d;stroke:#b7b18d" />
        <path d="m51 933h2v-1-1l-1-1-1-1-.5.5-.5.5h-1-1l1 1 1 1 .5.5.5.5" style="fill:#3f372b;stroke:#3f372b" />
        <path d="m26 931l3 1 1.5-.5 1.5-.5.5-.5.5-.5h-1.5-1.5l-2-.5-2-.5-.5-1-.5-1 .5-2 .5-2h2 2 1.5 1.5l.5 2.5.5 2.5.5-1 .5-1 .5-1.5.5-1.5 2 .5 2 .5v-.5-.5l-.5-1-.5-1-.5-1.5-.5-1.5 1.5-1 1.5-1 1.5.5 1.5.5-3.5 2.5-3.5 2.5-7.5-.5-7.5-.5-.5 1.5-.5 1.5 2.5 3.5 2.5 3.5" style="fill:#7e7569;stroke:#7e7569" />
        <path d="m50 930l1-1-.5-.5-.5-.5-1-.5-1-.5-.5-1.5-.5-1.5-1-1-1-1v1.5 1.5l.5 1.5.5 1.5 1 1 1 1h1 1" style="fill:#3c1e13;stroke:#3c1e13" />
        <path d="m26 929l4 1h1.5 1.5l.5-1 .5-1-.5-2.5-.5-2.5h-1.5-1.5-2-2l-.5 2-.5 2 .5 1 .5 1" style="fill:#5d564a;stroke:#5d564a" />
        <path d="m50 928l1 1-1-2-1-2-1-1.5-1-1.5-.5-1-.5-1-1.5-.5-1.5-.5-.5-.5-.5-.5-1 .5-1 .5.5 2.5.5 2.5 1 1 1 1 1 1 1 1h.5.5l-.5-1.5-.5-1.5v-1.5-1.5l1 1 1 1 .5 1.5.5 1.5 1 .5 1 .5" style="fill:#3f372b;stroke:#3f372b" />
        <path d="m40 923v1h.5.5l-.5-2.5-.5-2.5 1-.5 1-.5.5.5.5.5 1.5.5 1.5.5-1-1.5-1-1.5-1.5-.5-1.5-.5-1.5 1-1.5 1 .5 1.5.5 1.5.5 1 .5 1" style="fill:#5d564a;stroke:#5d564a" />
        <path d="m23 919l4 1 1-.5 1-.5.5-.5.5-.5 1.5-.5 1.5-.5.5-1 .5-1 .5-.5.5-.5 1-.5 1-.5h1.5 1.5l-2-1-2-1-1.5 1-1.5 1-1 1-1 1-1.5 1-1.5 1-1 1-1 1-1.5-.5-1.5-.5-1.5-1-1.5-1-1.5-.5-1.5-.5-1.5-1-1.5-1-2-1-2-1 1 1 1 1 .5.5.5.5 1 .5 1 .5.5.5.5.5h1 1l.5.5.5.5 1 .5 1 .5 1 .5 1 .5" style="fill:#bcb8ac;stroke:#bcb8ac" />
        <path d="m11 918h2v-1-1l-1.5-1-1.5-1-1.5-.5-1.5-.5-1.5-1-1.5-1-2-1-2-1v1.5 1.5 1 1l1.5.5 1.5.5 2.5 1 2.5 1 1.5.5 1.5.5" style="fill:#7e7569;stroke:#7e7569" />
        <path d="m102 916l3 1h2 2l1.5-1 1.5-1 1-1 1-1-2.5.5-2.5.5-.5 1-.5 1-2-.5-2-.5-1-1-1-1 .5-1.5.5-1.5 1-1.5 1-1.5-1.5.5-1.5.5-.5 2-.5 2v1 1l.5 1 .5 1" style="fill:#bcb8ac;stroke:#bcb8ac" />
        <path d="m104 915l4 1 .5-1 .5-1h-2-2l-1-.5-1-.5 1-1.5 1-1.5 1-.5 1-.5 2-.5 2-.5 1-1 1-1 1.5 1 1.5 1-1 1-1 1-1 .5-1 .5-1.5 1.5-1.5 1.5 2.5-.5 2.5-.5 1.5-.5 1.5-.5v-.5-.5-.5-.5l2-.5 2-.5.5-.5.5-.5.5-.5.5-.5-.5-.5-.5-.5-1-1-1-1-2-.5-2-.5-1.5-.5-1.5-.5-1.5 1-1.5 1-1.5.5-1.5.5-1 1-1 1-1 1.5-1 1.5-.5 1.5-.5 1.5 1 1 1 1" style="fill:#958f84;stroke:#958f84" />
        <path d="m105 914h4l1.5-1.5 1.5-1.5-2 .5-2 .5h-1.5-1.5v-1-1l-1 1.5-1 1.5 1 .5 1 .5" style="fill:#7e7569;stroke:#7e7569" />
        <path d="m105 912h3l2-.5 2-.5 1-.5 1-.5 1-1 1-1-1.5-1-1.5-1-1 1-1 1-2 .5-2 .5-1 .5-1 .5v1 1" style="fill:#5d564a;stroke:#5d564a" />
        <g style="fill:#bcb8ac;stroke:#bcb8ac">
            <path d="m138 912l3 1-.5-1.5-.5-1.5-1.5-1-1.5-1-.5 1.5-.5 1.5 1 .5 1 .5" />
            <path d="m8 910l2 1-.5-1-.5-1h-1-1l-.5-.5-.5-.5-1-1-1-1h-2-2v.5.5h1.5 1.5l.5.5.5.5.5.5.5.5 1.5.5 1.5.5" />
            <path d="m117 910v1l1-.5 1-.5h2 2l2-.5 2-.5v-2-2l-2-.5-2-.5h-1.5-1.5l1 1 1 1 .5.5.5.5-.5.5-.5.5-.5.5-.5.5-2 .5-2 .5" />
            <path d="m117 895l3 1h2 2v-1.5-1.5l-1.5 1-1.5 1-1.5-.5-1.5-.5-1.5-2-1.5-2v2 2l1 .5 1 .5" />
        </g>
        <path d="m118 894l3 1 1.5-1 1.5-1v-.5-.5l1-.5 1-.5.5-.5.5-.5.5-.5.5-.5h1 1l.5-1 .5-1-.5-.5-.5-.5v-1-1l-.5-.5-.5-.5-.5-1-.5-1h1 1 1 1 1 1 1 1l1 .5 1 .5 2.5.5 2.5.5 1.5-.5 1.5-.5v-.5-.5l1.5-.5 1.5-.5v-1.5-1.5l-1-1-1-1-.5-1-.5-1h-1.5-1.5-1.5-1.5-2-2-1-1-1.5-1.5l1 .5 1 .5h2 2 1 1 1.5 1.5l1.5.5 1.5.5.5.5.5.5 1 .5 1 .5-1 1-1 1-1 .5-1 .5h-1.5-1.5l-1-.5-1-.5h-2.5-2.5l-2-.5-2-.5-2 .5-2 .5-1.5.5-1.5.5-1.5.5-1.5.5 1 1.5 1 1.5.5-1.5.5-1.5.5 1 .5 1 .5.5.5.5.5.5.5.5v1 1l-1 .5-1 .5-.5 1-.5 1-1 1-1 1h-1-1l-1-.5-1-.5-.5-1.5-.5-1.5-.5-1-.5-1-1.5-1-1.5-1-2.5-1-2.5-1-.5-.5-.5-.5-.5-1-.5-1v-1-1l-.5-1-.5-1 .5-1.5.5-1.5.5-.5.5-.5h1.5 1.5l1.5.5 1.5.5 1 1 1 1 .5.5.5.5h1.5 1.5v1 1h1.5 1.5 2.5 2.5l-1-1-1-1 1-.5 1-.5 2-.5 2-.5-1.5-.5-1.5-.5-3 .5-3 .5-1.5-.5-1.5-.5-1.5-1-1.5-1-1-.5-1-.5-2-.5-2-.5-1.5.5-1.5.5-2 .5-2 .5-.5 2.5-.5 2.5v1.5 1.5l.5 2 .5 2 1 1 1 1 1.5 1 1.5 1 1.5.5 1.5.5 1.5 1 1.5 1 1 .5 1 .5 1.5 2 1.5 2" style="fill:#958f84;stroke:#958f84" />
        <path d="m95 893l3 1 1-1 1-1-1-1.5-1-1.5-.5-.5-.5-.5v1.5 1.5l-.5.5-.5.5h-3-3l1 .5 1 .5h1.5 1.5" style="fill:#bcb8ac;stroke:#bcb8ac" />
        <path d="m119 892h2l1-1 1-1 .5-1 .5-1-1.5 1-1.5 1h-1-1l-1-1.5-1-1.5-1-.5-1-.5.5 1 .5 1 .5 1.5.5 1.5 1 .5 1 .5" style="fill:#5d564a;stroke:#5d564a" />
        <path d="m124 892v1l1-.5 1-.5 1.5-.5 1.5-.5 1.5-1 1.5-1v-2-2l-1-1.5-1-1.5h2 2 2 2l-1-.5-1-.5h-1-1-1-1-1-1-1-1l.5 1 .5 1 .5.5.5.5v1 1l.5.5.5.5-.5 1-.5 1h-1-1l-.5.5-.5.5-.5.5-.5.5-1 .5-1 .5" style="fill:#bcb8ac;stroke:#bcb8ac" />
        <path d="m88 891l2 1h3 3l.5-.5.5-.5v-1.5-1.5l-1.5-1.5-1.5-1.5-1-1-1-1-1.5-1-1.5-1-.5-1.5-.5-1.5-1-1-1-1-2-.5-2-.5-1 1-1 1-.5 3-.5 3 1.5 2 1.5 2 1 1 1 1 1.5 1 1.5 1h.5.5" style="fill:#958f84;stroke:#958f84" />
        <path d="m119 890h2l1.5-1 1.5-1v-.5-.5l-1-1.5-1-1.5-1-1.5-1-1.5 1.5-.5 1.5-.5 1.5-.5 1.5-.5v-1-1h-2.5-2.5-1.5-1.5-1.5-1.5-1.5-1.5l-2-.5-2-.5-.5 1.5-.5 1.5v1.5 1.5l2.5 1 2.5 1 1.5 1 1.5 1 1 .5 1 .5 1 1.5 1 1.5" style="fill:#3f372b;stroke:#3f372b" />
        <path d="m149 889l3 1 1.5-.5 1.5-.5v-1.5-1.5h-2-2l-1.5 1-1.5 1 .5.5.5.5" style="fill:#bcb8ac;stroke:#bcb8ac" />
        <path d="m87 888l3 1 1-1 1-1-1.5-1-1.5-1-1-1-1-1-1-1.5-1-1.5-1-1-1-1-1 1.5-1 1.5.5 1.5.5 1.5 1 1 1 1 1.5 1 1.5 1" style="fill:#5d564a;stroke:#5d564a" />
        <path d="m9 887l2-1-.5-1.5-.5-1.5-1.5-1-1.5-1-1-1-1-1-1.5-.5-1.5-.5-1-.5-1-.5v3 3l1.5 1 1.5 1 1.5.5 1.5.5 1.5.5 1.5.5" style="fill:#bcb8ac;stroke:#bcb8ac" />
        <path d="m124 887v1l1-.5 1-.5v-1-1l-.5-.5-.5-.5-.5-.5-.5-.5-.5-1-.5-1-.5 1.5-.5 1.5 1 1.5 1 1.5" style="fill:#5d564a;stroke:#5d564a" />
        <path d="m30 885h2l1.5-.5 1.5-.5 1.5-1 1.5-1 1-.5 1-.5-2 .5-2 .5-1.5.5-1.5.5h-1-1v-2-2l1-1.5 1-1.5-1 1-1 1-1 1-1 1-.5 2-.5 2 1 .5 1 .5" style="fill:#bcb8ac;stroke:#bcb8ac" />
        <path d="m31 883h2l1.5-.5 1.5-.5 2-.5 2-.5h2 2l2-.5 2-.5 1.5-.5 1.5-.5 2-.5 2-.5 1-.5 1-.5v-.5-.5l.5-1.5.5-1.5-.5-.5-.5-.5-1-.5-1-.5-1-1-1-1h-2.5-2.5l-1.5.5-1.5.5-2 .5-2 .5-1.5.5-1.5.5-1.5 1-1.5 1-1 1-1 1-1 1.5-1 1.5v2 2" style="fill:#7e7569;stroke:#7e7569" />
        <path d="m78 882l1 1 .5-3 .5-3 1-1 1-1 2 .5 2 .5-1-1-1-1h-2-2l-1.5 1-1.5 1-1.5.5-1.5.5-.5 1.5-.5 1.5 1.5 1 1.5 1h1 1" style="fill:#bcb8ac;stroke:#bcb8ac" />
        <path d="m106 881l1 1v-1.5-1.5l.5-1.5.5-1.5 2 .5 2 .5h1.5 1.5 1.5 1.5v-1-1h-1.5-1.5l-.5-.5-.5-.5-1-1-1-1-1.5-.5-1.5-.5h-1.5-1.5l-.5.5-.5.5-.5 1.5-.5 1.5.5 1 .5 1v1 1l.5 1 .5 1" style="fill:#5d564a;stroke:#5d564a" />
        <path d="m146 881v1h1.5 1.5l1-1 1-1v-2.5-2.5l-1.5-.5-1.5-.5-1-.5-1-.5.5 1 .5 1 1 1 1 1v1.5 1.5l-1.5.5-1.5.5" style="fill:#bcb8ac;stroke:#bcb8ac" />
        <path d="m139 879l2 1h1.5 1.5v-.5-.5l1-1 1-1-.5-.5-.5-.5h-1.5-1.5l-1.5-.5-1.5-.5h-1-1-1.5-1.5-2-2-1-1-2-2l1 1 1 1v1 1l2-.5 2-.5 2 .5 2 .5h2.5 2.5" style="fill:#5d564a;stroke:#5d564a" />
        <path d="m144 879v1l1-.5 1-.5 1-1 1-1-1-.5-1-.5-.5-.5-.5-.5-1.5-.5-1.5-.5h-1.5-1.5-1-1-2-2l-1-.5-1-.5h-.5-.5l-2 .5-2 .5-1 .5-1 .5h2 2 1 1 2 2 1.5 1.5 1 1l1.5.5 1.5.5h1.5 1.5l.5.5.5.5-1 1-1 1" style="fill:#7e7569;stroke:#7e7569" />
        <path d="m39 877l1 1v-.5-.5h1.5 1.5 1 1l1-.5 1-.5h1 1l.5-.5.5-.5h1 1l-.5-1-.5-1-.5.5-.5.5h-1-1l-.5.5-.5.5h-1.5-1.5-1-1-2-2l.5 1 .5 1" style="fill:#3f372b;stroke:#3f372b" />
        <path d="m40 877v1h1.5 1.5 2 2l2-.5 2-.5 1.5-.5 1.5-.5v-1.5-1.5l-1.5-.5-1.5-.5-2 .5-2 .5-1.5.5-1.5.5h-2-2l-1 .5-1 .5h2 2 1 1 1.5 1.5l.5-.5.5-.5h1 1l.5-.5.5-.5.5 1 .5 1h-1-1l-.5.5-.5.5h-1-1l-1 .5-1 .5h-1-1-1.5-1.5" style="fill:#5d564a;stroke:#5d564a" />
        <g style="fill:#bcb8ac;stroke:#bcb8ac">
            <path d="m57 876v1l1-.5 1-.5v-2-2-.5-.5h1 1l-1-1-1-1-1-.5-1-.5-.5-.5-.5-.5v-1-1-1-1l1-.5 1-.5.5-.5.5-.5 1-.5 1-.5h-1.5-1.5l-2 .5-2 .5v2 2 1.5 1.5l-.5.5-.5.5 1 1 1 1 1 .5 1 .5.5.5.5.5-.5 1.5-.5 1.5" />
            <path d="m100 874l1 1 .5-2.5.5-2.5 2-.5 2-.5 1.5-.5 1.5-.5 2 .5 2 .5-1-1-1-1-2-.5-2-.5-1 1-1 1-1.5.5-1.5.5-1 1.5-1 1.5v1 1" />
        </g>
        <path d="m63 873h2 2 2l2-.5 2-.5 1.5-.5 1.5-.5 1.5-1 1.5-1 1-1 1-1 1.5-1 1.5-1 1.5-.5 1.5-.5 1-1 1-1v-.5-.5l-.5-1.5-.5-1.5-1-.5-1-.5h-2.5-2.5-2-2l-1.5-.5-1.5-.5h-1.5-1.5l1-.5 1-.5-2-.5-2-.5-1.5.5-1.5.5-1 1-1 1-1.5 1-1.5 1v.5.5l-1 .5-1 .5-.5.5-.5.5-1 .5-1 .5v1 1 1 1l.5.5.5.5 1 .5 1 .5 1 1 1 1 1 1 1 1" style="fill:#7e7569;stroke:#7e7569" />
        <path d="m127 872l3 1h.5.5 1.5 1.5 1 1 2 2 1.5 1.5v-.5-.5h-2-2-2-2-3-3-1-1" style="fill:#b7b18d;stroke:#b7b18d" />
        <path d="m143 872v1h1.5 1.5l-1-1-1-1-2-.5-2-.5-1.5.5-1.5.5h-2.5-2.5l-1.5.5-1.5.5h3 3 2 2 2 2" style="fill:#bcb8ac;stroke:#bcb8ac" />
        <path d="m64 868l2 1v-.5-.5l.5-.5.5-.5-2-1.5-2-1.5-.5-.5-.5-.5-1 1.5-1 1.5 1.5.5 1.5.5.5.5.5.5" style="fill:#3f372b;stroke:#3f372b" />
        <path d="m66 868v1h1.5 1.5l1.5-.5 1.5-.5 2-.5 2-.5 1-1 1-1 1-.5 1-.5v-.5-.5l1.5-.5 1.5-.5v-1-1l-1.5-.5-1.5-.5-2.5.5-2.5.5-1.5-1-1.5-1h-2-2v.5.5h2 2l-.5 1.5-.5 1.5 1 1.5 1 1.5-1 1-1 1h-1.5-1.5-.5-.5l-.5.5-.5.5" style="fill:#76352c;stroke:#76352c" />
        <path d="m68 866v1h1.5 1.5l1-1 1-1-1-1.5-1-1.5.5-1.5.5-1.5h-2-2l-1 1.5-1 1.5v1.5 1.5l1 .5 1 .5" style="fill:#791e05;stroke:#791e05" />
        <path d="m0 865v1l1.5-.5 1.5-.5.5-1 .5-1 .5-.5.5-.5 1.5-.5 1.5-.5 1-.5 1-.5 1-.5 1-.5v-.5-.5l1-.5 1-.5.5-.5.5-.5.5-.5.5-.5v-1.5-1.5l-.5-1.5-.5-1.5-.5-1.5-.5-1.5-.5-2-.5-2-.5-.5-.5-.5-.5-.5-.5-.5h-1-1l-1.5 1-1.5 1-.5 2-.5 2v1 1 1 1l-.5 1-.5 1-1 .5-1 .5-1 .5-1 .5v1.5 1.5l2-.5 2-.5 1-.5 1-.5.5-1.5.5-1.5.5-2 .5-2 1-1 1-1 1 1.5 1 1.5v2 2l-.5 1.5-.5 1.5-1 .5-1 .5-2 1-2 1-1.5.5-1.5.5-1 .5-1 .5v2 2" style="fill:#958f84;stroke:#958f84" />
        <path d="m108 864l12-3-5.5-3.5-5.5-3.5-7-2-7-2-4.5 3-4.5 3v.5.5l1 .5 1 .5.5 1.5.5 1.5.5-1 .5-1 2 .5 2 .5 1.5.5 1.5.5 2 .5 2 .5 1.5.5 1.5.5 2 .5 2 .5" style="fill:#bcb8ac;stroke:#bcb8ac" />
        <path d="m80 863v1l1-.5 1-.5 1.5-.5 1.5-.5v-1.5-1.5h-2-2-.5-.5l1.5.5 1.5.5v1 1l-1.5.5-1.5.5" style="fill:#5d564a;stroke:#5d564a" />
        <path d="m145 861l3 1 1.5-.5 1.5-.5.5-2 .5-2-1-1-1-1-2-.5-2-.5.5 1.5.5 1.5.5.5.5.5-1 .5-1 .5-2-.5-2-.5h-1.5-1.5l-1.5-.5-1.5-.5-1.5-1-1.5-1-1.5-.5-1.5-.5-1.5-1-1.5-1 1-1 1-1h2 2l1.5 1 1.5 1 1.5.5 1.5.5 2 .5 2 .5h1.5 1.5l-7-3-7-3-2 3.5-2 3.5 6.5 2.5 6.5 2.5 2 .5 2 .5" style="fill:#bcb8ac;stroke:#bcb8ac" />
        <g style="fill:#5d564a;stroke:#5d564a">
            <path d="m0 860v1l1-.5 1-.5 1.5-.5 1.5-.5 2-1 2-1h-1.5-1.5-.5-.5l-.5-.5-.5-.5-2 .5-2 .5v1.5 1.5" />
            <path d="m109 860l3 1h1 1v-.5-.5-1-1h-1-1-1-1l-.5-.5-.5-.5h-1.5-1.5l.5 1.5.5 1.5h1 1" />
        </g>
        <path d="m114 860v1l1-.5 1-.5v-1-1l-2-.5-2-.5-1.5-.5-1.5-.5h-2-2-2-2l1 1.5 1 1.5 2 .5 2 .5-.5-1.5-.5-1.5h1.5 1.5l.5.5.5.5h1 1 1 1v1 1" style="fill:#7e7569;stroke:#7e7569" />
        <path d="m12 858v1l1-.5 1-.5 1.5-1 1.5-1 .5-1.5.5-1.5-.5-1.5-.5-1.5-1.5-2-1.5-2 .5 1.5.5 1.5.5 1.5.5 1.5v1.5 1.5l-.5.5-.5.5-.5.5-.5.5-1 .5-1 .5" style="fill:#bcb8ac;stroke:#bcb8ac" />
        <g style="fill:#958f84;stroke:#958f84">
            <path d="m98 858l3 1h1 1l-1-1.5-1-1.5-1 .5-1 .5-1.5-.5-1.5-.5-1-.5-1-.5 1.5-.5 1.5-.5 2 1 2 1h2 2 2 2l-2-.5-2-.5-1-1-1-1-2-.5-2-.5h-2-2l-1.5 1-1.5 1 .5.5.5.5 1 1.5 1 1.5h1.5 1.5" />
            <path d="m142 858l4 1 1-.5 1-.5-.5-.5-.5-.5-.5-1.5-.5-1.5h-1.5-1.5l-2-.5-2-.5-1.5-.5-1.5-.5-1.5-1-1.5-1h-2-2l-1 1-1 1 1.5 1 1.5 1 1.5.5 1.5.5 1.5 1 1.5 1 1.5.5 1.5.5h1.5 1.5" />
        </g>
        <path d="m5 857h1 1.5 1.5l1-.5 1-.5.5-1.5.5-1.5v-2-2l-1-1.5-1-1.5-1 1-1 1-.5 2-.5 2-.5 1.5-.5 1.5-1 .5-1 .5.5.5.5.5" style="fill:#3f372b;stroke:#3f372b" />
        <path d="m30 856l3 1h2 2 2.5 2.5l1.5-.5 1.5-.5 1.5-1 1.5-1 1-1 1-1v-.5-.5l-1.5.5-1.5.5-.5.5-.5.5-.5.5-.5.5-1 .5-1 .5-1.5.5-1.5.5h-1-1-1.5-1.5-2.5-2.5" style="fill:#bcb8ac;stroke:#bcb8ac" />
        <path d="m74 856l3 1h2 2 2.5 2.5v-.5-.5h-1.5-1.5-2.5-2.5l-1.5-.5-1.5-.5h-1-1l-1 .5-1 .5h1.5 1.5" style="fill:#b7b18d;stroke:#b7b18d" />
        <path d="m96 856l3 1 1-.5 1-.5-2-1-2-1-1.5.5-1.5.5 1 .5 1 .5" style="fill:#7e7569;stroke:#7e7569" />
        <path d="m28 855l2 1h2.5 2.5 1.5 1.5 1 1l1.5-.5 1.5-.5 1-.5 1-.5.5-.5.5-.5.5-.5.5-.5 1.5-.5 1.5-.5 1-.5 1-.5h2 2l1.5-.5 1.5-.5v-.5-.5l1.5-.5 1.5-.5-.5-1.5-.5-1.5-1.5-.5-1.5-.5-2-.5-2-.5h-2.5-2.5-2-2-2.5-2.5-2-2l-1.5.5-1.5.5-1 1.5-1 1.5-1 1-1 1-1 1.5-1 1.5v2 2h.5.5" style="fill:#b7b18d;stroke:#b7b18d" />
        <path d="m0 853v1l1-.5 1-.5 1-.5 1-.5v-.5-.5-1.5-1.5l-.5-.5-.5-.5h-1.5-1.5v3 3" style="fill:#ddd9cc;stroke:#ddd9cc" />
        <path d="m31 852l3 1h2 2l1.5-1 1.5-1h-2-2l-2-.5-2-.5 1-1 1-1-1.5 1-1.5 1-.5 1-.5 1" style="fill:#3f372b;stroke:#3f372b" />
        <path d="m4 851v1l.5-1 .5-1v-1-1-1-1l.5-2 .5-2-1.5-.5-1.5-.5h-1.5-1.5v3 3h1.5 1.5l.5.5.5.5v1.5 1.5" style="fill:#bcb8ac;stroke:#bcb8ac" />
        <path d="m33 850l4 1h2 2l1-1 1-1 1-1 1-1-2-.5-2-.5-1.5.5-1.5.5-1.5.5-1.5.5-1 1-1 1" style="fill:#3c1e13;stroke:#3c1e13" />
        <g style="fill:#bcb8ac;stroke:#bcb8ac">
            <path d="m158 849l2 1v-2.5-2.5-1-1l-.5-1-.5-1-.5.5-.5.5v1 1 1 1 1.5 1.5" />
            <path d="m59 848v1h1.5 1.5l1-1 1-1-1-1.5-1-1.5-1.5-.5-1.5-.5h-.5-.5l1.5.5 1.5.5.5 1.5.5 1.5-1.5.5-1.5.5" />
        </g>
        <path d="m49 847l3 1h1 1v-.5-.5l.5-.5.5-.5-1.5-.5-1.5-.5h-3-3l1 .5 1 .5.5.5.5.5" style="fill:#5d564a;stroke:#5d564a" />
        <path d="m54 847v1h1.5 1.5l1-1 1-1-1.5-1-1.5-1h-2-2-2.5-2.5-2-2l1.5.5 1.5.5h3 3l1.5.5 1.5.5-.5.5-.5.5" style="fill:#7e7569;stroke:#7e7569" />
        <path d="m105 845l3 1h2 2 2.5 2.5l1.5-.5 1.5-.5.5-2 .5-2-1.5-1-1.5-1 .5 1.5.5 1.5-.5 1.5-.5 1.5h-2-2-2.5-2.5l-1.5-.5-1.5-.5-1-.5-1-.5-.5-.5-.5-.5h-1.5-1.5-2-2l2 1 2 1 2.5.5 2.5.5" style="fill:#bcb8ac;stroke:#bcb8ac" />
        <path d="m106 844l3 1h2.5 2.5 2 2l.5-1.5.5-1.5-.5-1.5-.5-1.5-9-2.5-9-2.5-3.5-4.5-3.5-4.5-.5-4-.5-4 7.5-.5 7.5-.5 5 4 5 4 .5 1 .5 1 1 .5 1 .5h1 1l1 .5 1 .5h1.5 1.5l1.5-.5 1.5-.5h1 1l1-.5 1-.5h1.5 1.5l2-.5 2-.5 1.5.5 1.5.5 1.5 1.5 1.5 1.5 1 .5 1 .5 1.5 1 1.5 1 1.5.5 1.5.5 1 .5 1 .5h1.5 1.5v-3-3-.5-.5h-1-1l.5 1 .5 1-.5.5-.5.5h-1.5-1.5l-.5-.5-.5-.5-.5-.5-.5-.5-1-.5-1-.5-.5-.5-.5-.5-.5-.5-.5-.5-.5-.5-.5-.5-1-.5-1-.5-.5-.5-.5-.5h-1-1-1.5-1.5-1.5-1.5-1-1-.5-.5l-1.5.5-1.5.5-1 .5-1 .5h-2-2l-2-.5-2-.5-.5-1.5-.5-1.5-1-1.5-1-1.5-1-1-1-1-1-1-1-1-1.5-.5-1.5-.5-2 .5-2 .5-1.5.5-1.5.5h-2.5-2.5-2-2l-2 .5-2 .5-1.5.5-1.5.5h-1-1v-.5-.5l-1.5.5-1.5.5-2-.5-2-.5h-2-2l-2 .5-2 .5-1.5.5-1.5.5-1.5 1-1.5 1h-2-2l-1.5.5-1.5.5-1 .5-1 .5 1.5.5 1.5.5-1.5.5-1.5.5h-2.5-2.5-2-2-2.5-2.5-2-2-1-1l-1.5.5-1.5.5v-.5-.5l-1-.5-1-.5-1.5-.5-1.5-.5-.5-.5-.5-.5-.5-1-.5-1-.5-.5-.5-.5h-1-1v-1-1l-1-.5-1-.5h-1-1v1 1l-1-.5-1-.5-1.5.5-1.5.5-1 1.5-1 1.5 1.5-.5 1.5-.5 2 .5 2 .5 1 1 1 1 1 1.5 1 1.5 1 1.5 1 1.5 1.5.5 1.5.5 2 .5 2 .5 1.5-.5 1.5-.5 1-1 1-1 1-.5 1-.5 1-.5 1-.5h1.5 1.5 2 2l.5.5.5.5h1.5 1.5l1.5-.5 1.5-.5 1.5-.5 1.5-.5h2 2l10.5-1.5 10.5-1.5 2.5 6 2.5 6 4 5 4 5h2 2 1.5 1.5l.5.5.5.5 1 .5 1 .5" style="fill:#9e99a5;stroke:#9e99a5" />
        <path d="m107 843l3 1h2 2l1.5-1 1.5-1-1-1-1-1h-2.5-2.5-1-1l-1 1.5-1 1.5h.5.5" style="fill:#7e7569;stroke:#7e7569" />
        <g style="fill:#bcb8ac;stroke:#bcb8ac">
            <path d="m77 842l-2-9-7-2-7-2 .5-3 .5-3h-2-2l-1.5.5-1.5.5-1.5.5-1.5.5h-1.5-1.5l-.5-.5-.5-.5h-2-2-1.5-1.5l-1 .5-1 .5h3 3l1.5 1 1.5 1v2 2l1 1.5 1 1.5 1 1 1 1 2 .5 2 .5 2.5.5 2.5.5-1-1-1-1-1-.5-1-.5-1.5-.5-1.5-.5-1-.5-1-.5-.5-2.5-.5-2.5 2.5.5 2.5.5h1.5 1.5l1.5.5 1.5.5h1 1l1 .5 1 .5 1.5.5 1.5.5.5.5.5.5 1 .5 1 .5 1.5 1 1.5 1 1 .5 1 .5 1.5 1 1.5 1-1 1-1 1-1.5-.5-1.5-.5v-.5-.5h-2-2-2.5-2.5l2 .5 2 .5 2 .5 2 .5 1.5.5 1.5.5" />
            <path d="m155 841h2l-.5-1.5-.5-1.5-.5-1-.5-1 1-1 1-1-1-.5-1-.5-1.5-.5-1.5-.5 1 1 1 1-1 .5-1 .5-.5.5-.5.5v2 2l2 .5 2 .5" />
        </g>
        <path d="m75 840l3 1 1-1 1-1-1.5-1-1.5-1-1-.5-1-.5 1 1.5 1 1.5-1 .5-1 .5" style="fill:#b7b18d;stroke:#b7b18d" />
        <path d="m75 839v1l1-.5 1-.5-1-1.5-1-1.5-1.5-1-1.5-1-1-.5-1-.5-.5-.5-.5-.5-1.5-.5-1.5-.5-1-.5-1-.5h-1-1l-1.5-.5-1.5-.5h-1.5-1.5l-1.5.5-1.5.5.5 2 .5 2 1.5.5 1.5.5 1 .5 1 .5h.5.5l-1-1.5-1-1.5h2 2l2 .5 2 .5 1.5.5 1.5.5 2 .5 2 .5-1 1-1 1v.5.5h2 2" style="fill:#958f84;stroke:#958f84" />
        <path d="m61 838l2 1h1.5 1.5 2.5 2.5v-.5-.5l-1.5-.5-1.5-.5-2-.5-2-.5h-2-2-.5-.5l1 1 1 1" style="fill:#9e99a5;stroke:#9e99a5" />
        <path d="m96 838h2l-.5-1.5-.5-1.5-1.5-1-1.5-1-1-1-1-1-1-1.5-1-1.5.5 1.5.5 1.5.5 2 .5 2 1 1 1 1 1 .5 1 .5" style="fill:#5d564a;stroke:#5d564a" />
        <path d="m68 837l3 1 1-1 1-1-2-.5-2-.5-1.5-.5-1.5-.5-2-.5-2-.5h-2-2l1 1.5 1 1.5h2 2l2 .5 2 .5" style="fill:#7e7569;stroke:#7e7569" />
        <path d="m137 835l3 1 .5-.5.5-.5.5-.5.5-.5v-1-1l-.5-1-.5-1-.5-.5-.5-.5v-1-1h1 1l1.5.5 1.5.5 1 .5 1 .5-1.5-1.5-1.5-1.5-1.5-.5-1.5-.5-2 .5-2 .5.5 1 .5 1 1 1 1 1v1.5 1.5h-1.5-1.5l-1.5-1-1.5-1-2.5-1-2.5-1 1 .5 1 .5 1 1 1 1 1 1 1 1 1 .5 1 .5" style="fill:#bcb8ac;stroke:#bcb8ac" />
        <path d="m52 833l2 1-.5-2-.5-2 1.5-.5 1.5-.5-2.5-.5-2.5-.5.5 2.5.5 2.5" style="fill:#b7b18d;stroke:#b7b18d" />
        <path d="m118 833l3 1v-1-1-1-1l.5-.5.5-.5h2 2 1.5 1.5v-.5-.5h-1-1-1.5-1.5l-1-.5-1-.5h-1-1l-1-.5-1-.5-.5-1-.5-1-.5 2-.5 2v2 2l1 .5 1 .5" style="fill:#bcb8ac;stroke:#bcb8ac" />
        <path d="m137 833h3l-.5-.5-.5-.5-1-.5-1-.5-1-1-1-1-1.5-.5-1.5-.5h-1.5-1.5v.5.5l2.5 1 2.5 1 1.5 1 1.5 1" style="fill:#9e99a5;stroke:#9e99a5" />
        <path d="m139 832l1 1v-1.5-1.5l-1-1-1-1-.5-1-.5-1h-1.5-1.5l-1 .5-1 .5h-1-1l-1.5.5-1.5.5h1 1 1.5 1.5l1.5.5 1.5.5 1 1 1 1 1 .5 1 .5" style="fill:#958f84;stroke:#958f84" />
        <path d="m158 830l1-1-.5-1-.5-1-.5-.5-.5-.5-1.5-.5-1.5-.5-.5-.5-.5-.5-.5-.5-.5-.5h-1-1l-1-.5-1-.5-.5-.5-.5-.5h-1-1-1-1l-1.5.5-1.5.5h1.5 1.5 1 1l.5.5.5.5 1 .5 1 .5.5.5.5.5.5.5.5.5.5.5.5.5 1 .5 1 .5.5.5.5.5.5.5.5.5h1.5 1.5" style="fill:#76352c;stroke:#76352c" />
        <path d="m22 826l3 1-1-1.5-1-1.5-1-1.5-1-1.5-1-1-1-1-2-.5-2-.5-1.5.5-1.5.5-1 1-1 1h-1-1-1-1-1-1l-1.5-.5-1.5-.5h-.5-.5v1 1l2 .5 2 .5h2 2l2-.5 2-.5 1.5-.5 1.5-.5 1.5-.5 1.5-.5 1 1.5 1 1.5 1 1.5 1 1.5" style="fill:#bcb8ac;stroke:#bcb8ac" />
        <path d="m157 826l1 1h1 1v-1-1l-1.5-.5-1.5-.5-1-.5-1-.5-.5-.5-.5-.5-.5-.5-.5-.5-.5-.5-.5-.5-1-.5-1-.5h-1-1l-.5-.5-.5-.5h-1.5-1.5l-1.5.5-1.5.5-.5.5-.5.5h-1.5-1.5l-1 1-1 1h1 1 1.5 1.5l1.5-.5 1.5-.5h1 1 1 1l.5.5.5.5 1 .5 1 .5h1 1l.5.5.5.5.5.5.5.5 1.5.5 1.5.5" style="fill:#9a3628;stroke:#9a3628" />
        <path d="m33 824l3-1 2-1 2-1h2 2 2.5 2.5 2 2 1.5 1.5l1-.5 1-.5 1.5-.5 1.5-.5h2 2l1.5-1 1.5-1 1.5-.5 1.5-.5 2-.5 2-.5h2 2l2 .5 2 .5 1.5-.5 1.5-.5.5-1 .5-1h1 1 1 1 1 1l1-.5 1-.5h2 2 1 1 1 1l.5.5.5.5h1.5 1.5l2-.5 2-.5-1.5-1-1.5-1h-.5-.5l-8 .5-8 .5-7.5 1.5-7.5 1.5-7.5 1.5-7.5 1.5-11.5 1-11.5 1-1.5.5-1.5.5-1 1.5-1 1.5v.5.5" style="fill:#76352c;stroke:#76352c" />
        <path d="m125 824h4l-1-.5-1-.5-1-1-1-1-1.5-.5-1.5-.5-.5-2-.5-2-1-1-1-1-2.5-.5-2.5-.5 1 1 1 1 1 1 1 1 1 1.5 1 1.5.5 1.5.5 1.5 2 .5 2 .5" style="fill:#3c1e13;stroke:#3c1e13" />
        <path d="m157 824l3 1v-9-9-8.5-8.5-9-9-2.5-2.5l-1 .5-1 .5h-1-1l-.5.5-.5.5-1 .5-1 .5-1 1-1 1-1.5-.5-1.5-.5-1.5-6.5-1.5-6.5-2-7-2-7-.5-8.5-.5-8.5 2-7 2-7 2-6.5 2-6.5 1-8 1-8 1-7 1-7 1-7 1-7 1.5-7 1.5-7 1.5-7.5 1.5-7.5v-3-3-2.5-2.5-2-2-2.5-2.5-2-2-2.5-2.5-2-2l-1-.5-1-.5.5-1.5.5-1.5v-1-1l-1-.5-1-.5.5-1.5.5-1.5.5-.5.5-.5-.5-.5-.5-.5-.5.5-.5.5.5-1 .5-1v-1-1l1-1 1-1v-2.5-2.5-2-2-2-2-.5-.5l-.5-.5-.5-.5-4.5-2.5-4.5-2.5-4.5-3-4.5-3-.5-9.5-.5-9.5-2.5-.5-2.5-.5-1.5-1-1.5-1-.5-1-.5-1-1-.5-1-.5-1-1-1-1-2.5.5-2.5.5.5 7 .5 7-1 7.5-1 7.5-1.5 7.5-1.5 7.5-.5 8.5-.5 8.5 2 3 2 3 3.5-4 3.5-4 3 5 3 5 2 6 2 6 3 5.5 3 5.5 2.5 6.5 2.5 6.5.5 7.5.5 7.5-.5 7.5-.5 7.5-1 7.5-1 7.5-1 8-1 8-2 7-2 7-2 7-2 7-.5 8-.5 8 1 8 1 8 1 8 1 8-2.5 6.5-2.5 6.5-4-4.5-4-4.5-7 6-7 6-.5 1.5-.5 1.5v1.5 1.5l-.5 1.5-.5 1.5-1 1.5-1 1.5-.5 1.5-.5 1.5-1.5 1-1.5 1-1 1-1 1-.5.5-.5.5-.5-1-.5-1-1-.5-1-.5-1-1-1-1-.5.5-.5.5-1-.5-1-.5h-2-2l-.5-.5-.5-.5h-1.5-1.5-2-2-2-2-1-1l-1-.5-1-.5h-2-2l-.5-.5-.5-.5-1-.5-1-.5h-2-2l-1.5-1-1.5-1h-2-2-2.5-2.5l-1.5.5-1.5.5-1.5-.5-1.5-.5-2-.5-2-.5h-2-2l-2 .5-2 .5-1 1-1 1-1.5 1-1.5 1-1 1-1 1-1 1-1 1-.5 2-.5 2v2 2l1 1.5 1 1.5 1 1 1 1 1 1 1 1 1.5 1 1.5 1 1.5.5 1.5.5 1.5-.5 1.5-.5 2-.5 2-.5h2 2 2.5 2.5l1.5-.5 1.5-.5h2.5 2.5l1.5-.5 1.5-.5 1.5-.5 1.5-.5 2-.5 2-.5 1.5-.5 1.5-.5 1.5-.5 1.5-.5v-.5-.5-.5-.5h1 1l1 .5 1 .5 1-1 1-1 .5-.5.5-.5h1.5 1.5l.5 1.5.5 1.5 2-1 2-1 2-.5 2-.5 1.5.5 1.5.5 1.5-.5 1.5-.5 2 .5 2 .5 1.5.5 1.5.5h2 2 3 3l5-3.5 5-3.5 7 1 7 1 1 7 1 7 .5.5.5.5h1.5 1.5l.5.5.5.5h1 1l1 .5 1 .5.5.5.5.5.5.5.5.5.5.5.5.5 1 .5 1 .5" style="fill:#c63b28;stroke:#c63b28" />
        <path d="m36 823h2 2 2 2.5 2.5 2 2 2.5 2.5l1.5-.5 1.5-.5-1.5-.5-1.5-.5h-1.5-1.5-2-2-2.5-2.5-2-2l-2 1-2 1" style="fill:#7e7569;stroke:#7e7569" />
        <g style="fill:#791e05;stroke:#791e05">
            <path d="m127 823l2 1 1-.5 1-.5 1.5-.5 1.5-.5-1-.5-1-.5h-2-2l-1.5-1-1.5-1-.5-1.5-.5-1.5-.5-2-.5-2-1.5-.5-1.5-.5-1.5-.5-1.5-.5h-2.5-2.5-2-2l1.5 1 1.5 1 1.5.5 1.5.5 2.5.5 2.5.5 1 1 1 1 .5 2 .5 2 1.5.5 1.5.5 1 1 1 1" />
            <path d="m31 822l2 1 1-1.5 1-1.5-2-.5-2-.5-1-1-1-1h-1-1l-.5-1-.5-1-.5-.5-.5-.5-.5-.5-.5-.5-1-.5-1-.5-.5 1-.5 1 1 .5 1 .5v1 1h1 1l.5.5.5.5.5 1 .5 1 .5.5.5.5 1.5.5 1.5.5" />
        </g>
        <path d="m132 821l2 1h.5.5l1-1 1-1h1.5 1.5l.5-.5.5-.5 1.5-.5 1.5-.5-.5-.5-.5-.5h-1.5-1.5l-1.5.5-1.5.5-2 .5-2 .5-1.5-.5-1.5-.5-1-1-1-1v-2.5-2.5l-1-1-1-1-2-.5-2-.5h-2.5-2.5-3-3l-2 1-2 1h.5.5 2 2 2.5 2.5l1.5.5 1.5.5 1.5.5 1.5.5.5 2 .5 2 .5 1.5.5 1.5 1.5 1 1.5 1h2 2" style="fill:#9d2a03;stroke:#9d2a03" />
        <path d="m1 820l3 1h1 1 1 1 1 1l1-1 1-1h-1-1-1.5-1.5-1.5-1.5-2-2v.5.5h.5.5" style="fill:#9e99a5;stroke:#9e99a5" />
        <path d="m31 819l4 1 1.5-.5 1.5-.5v-.5-.5h-1.5-1.5l-1.5-.5-1.5-.5-1.5-1-1.5-1-1-1-1-1-1-1-1-1h-1.5-1.5v.5.5l1 .5 1 .5.5.5.5.5.5.5.5.5.5 1 .5 1h1 1l1 1 1 1" style="fill:#9d2a03;stroke:#9d2a03" />
        <path d="m0 818v1h2 2 1.5 1.5 1.5 1.5v-.5-.5l1-1 1-1-.5-1.5-.5-1.5h1 1l1 .5 1 .5 1 .5 1 .5-.5-1-.5-1-1-1-1-1-1.5-1.5-1.5-1.5-1 .5-1 .5-1.5-.5-1.5-.5-1.5-1-1.5-1-1.5 1-1.5 1v2 2 1 1h2 2l1.5.5 1.5.5-.5 1-.5 1h-2-2l-1 .5-1 .5" style="fill:#7e7569;stroke:#7e7569" />
        <path d="m10 818v1h1 1l1-1.5 1-1.5 1.5-.5 1.5-.5-1-.5-1-.5-1-.5-1-.5h-1-1l.5 1.5.5 1.5-1 1-1 1" style="fill:#958f84;stroke:#958f84" />
        <path d="m38 818v1l11.5-1 11.5-1 7.5-1.5 7.5-1.5 7.5-1.5 7.5-1.5 8-.5 8-.5 2-1 2-1h-2-2l-1.5-.5-1.5-.5-2-.5-2-.5-1.5.5-1.5.5-1.5-.5-1.5-.5-2 .5-2 .5-2 1-2 1-2 .5-2 .5h-1-1-1-1-1.5-1.5l-1.5.5-1.5.5-1.5.5-1.5.5-2 .5-2 .5-1.5.5-1.5.5-1.5.5-1.5.5h-2.5-2.5l-1.5.5-1.5.5h-2.5-2.5-2-2l-2 .5-2 .5-1.5.5-1.5.5h1.5 1.5" style="fill:#9a3628;stroke:#9a3628" />
        <path d="m130 818l3 1 2-.5 2-.5 1.5-.5 1.5-.5h1.5 1.5l-1-7-1-7-7-1-7-1-5 3.5-5 3.5h2.5 2.5l2 .5 2 .5 1 1 1 1v2.5 2.5l1 1 1 1" style="fill:#c63501;stroke:#c63501" />
        <g style="fill:#5d564a;stroke:#5d564a">
            <path d="m0 817v1l1-.5 1-.5h2 2l.5-1 .5-1-1.5-.5-1.5-.5h-2-2v1.5 1.5" />
            <path d="m19 816v-2l-.5-.5-.5-.5-.5-1-.5-1-1-.5-1-.5-1-.5-1-.5.5-1 .5-1-.5-.5-.5-.5-1 1-1 1 1.5 1.5 1.5 1.5 1 1 1 1 .5 1 .5 1 1 .5 1 .5" />
        </g>
        <path d="m86 816h2l1.5-.5 1.5-.5 2-.5 2-.5h2 2 2.5 2.5l1.5-.5 1.5-.5h-1.5-1.5l-.5-.5-.5-.5h-1-1-1-1-2-2l-1 .5-1 .5h-1-1-1-1-1-1l-.5 1-.5 1v.5.5" style="fill:#7e7569;stroke:#7e7569" />
        <path d="m18 813l1 1h1 1l.5-1 .5-1v-.5-.5-.5-.5l-1-1-1-1v-1-1-1-1l.5-.5.5-.5v-1.5-1.5l.5-.5.5-.5.5-.5.5-.5v-1-1l1-.5 1-.5.5-.5.5-.5.5-.5.5-.5v-1.5-1.5l-1 .5-1 .5-1 .5-1 .5-1 1-1 1-.5.5-.5.5-.5 1-.5 1-.5 1.5-.5 1.5v1 1l-.5 1-.5 1-1 1-1 1h1 1v2.5 2.5l.5 1 .5 1" style="fill:#76352c;stroke:#76352c" />
        <path d="m15 810l2 1v-2.5-2.5h-1-1l1-1 1-1 .5-1 .5-1v-1-1l.5-1.5.5-1.5.5-1 .5-1 .5-.5.5-.5 1-1 1-1 1-.5 1-.5 1-.5 1-.5h1.5 1.5l.5-.5.5-.5v-.5-.5l1-1 1-1 1-.5 1-.5h1 1l1.5.5 1.5.5 1.5-.5 1.5-.5-.5-1-.5-1-.5-.5-.5-.5-1-.5-1-.5-1.5-.5-1.5-.5-1.5.5-1.5.5-1 .5-1 .5-1.5 1-1.5 1-1.5.5-1.5.5h-1-1l-.5 1-.5 1-1 1-1 1-.5.5-.5.5-.5 1-.5 1-1 1-1 1-.5.5-.5.5-.5 1-.5 1v2 2l-.5 1-.5 1-1 .5-1 .5-.5 1-.5 1-1.5-.5-1.5-.5-2-.5-2-.5h-1.5-1.5v2 2l1.5-1 1.5-1 1.5 1 1.5 1 1.5.5 1.5.5 1-.5 1-.5 1-1 1-1 .5.5.5.5-.5 1-.5 1 1 .5 1 .5" style="fill:#958f84;stroke:#958f84" />
        <path d="m22 810v1h1.5 1.5l-1-1.5-1-1.5v-2-2l.5-2 .5-2 1-1 1-1 1-1 1-1 1.5-1 1.5-1-1-1-1-1 .5-1 .5-1h-1.5-1.5v1.5 1.5l-.5.5-.5.5-.5.5-.5.5-1 .5-1 .5v1 1l-.5.5-.5.5-.5.5-.5.5v1.5 1.5l-.5.5-.5.5v1 1 1 1l1 1 1 1" style="fill:#9a3628;stroke:#9a3628" />
        <path d="m75 809v1h1.5 1.5 1 1 1 1l2-.5 2-.5-.5-1.5-.5-1.5h-1.5-1.5l-.5.5-.5.5-1 1-1 1-1-.5-1-.5h-1-1v.5.5" style="fill:#b95047;stroke:#b95047" />
        <path d="m7 805l3 1 .5-1 .5-1 1-.5 1-.5v-.5-.5l-1-1-1-1-1.5.5-1.5.5-2-.5-2-.5h-2-2v2 2h1.5 1.5l2 .5 2 .5" style="fill:#ddd9cc;stroke:#ddd9cc" />
        <path d="m102 803l1-1 1-1 1-1 1.5-1 1.5-1 .5-1.5.5-1.5 1-1.5 1-1.5.5-1.5.5-1.5v-1.5-1.5l-.5 1-.5 1-1 .5-1 .5-1 1-1 1-.5 1.5-.5 1.5-.5 1.5-.5 1.5-1 1-1 1h-1-1l-1-1-1-1h-1.5-1.5-2-2l-2-.5-2-.5h-2-2-2-2-1-1l-1-.5-1-.5h-2-2l-.5-.5-.5-.5h-2-2l1 .5 1 .5.5.5.5.5h2 2l1 .5 1 .5h1 1 2 2 2 2 1.5 1.5l.5.5.5.5h2 2l1 .5 1 .5.5-.5.5-.5 1 1 1 1 1 .5 1 .5.5 1 .5 1" style="fill:#9a3628;stroke:#9a3628" />
        <path d="m13 802v1l.5-1 .5-1v-2-2l.5-1 .5-1 .5-.5.5-.5 1-1 1-1 .5-1 .5-1 .5-.5.5-.5 1-1 1-1 .5-1 .5-1h1 1l1.5-.5 1.5-.5 1.5-1 1.5-1h-1.5-1.5-2-2l-1.5.5-1.5.5-.5.5-.5.5-1 .5-1 .5-1.5-.5-1.5-.5-.5.5-.5.5-1-.5-1-.5-1.5.5-1.5.5h-1-1l-1 .5-1 .5-1.5.5-1.5.5-1 .5-1 .5v1.5 1.5.5.5l1.5-.5 1.5-.5v-1-1h2 2l1.5 1 1.5 1 .5 1.5.5 1.5-.5.5-.5.5-.5-.5-.5-.5-.5 1-.5 1-1 .5-1 .5-1.5-.5-1.5-.5-1.5-.5-1.5-.5v2.5 2.5h2 2l2 .5 2 .5 1.5-.5 1.5-.5 1 1 1 1" style="fill:#bcb8ac;stroke:#bcb8ac" />
        <path d="m101 799h2l1-1 1-1 .5-1.5.5-1.5h-2-2-2-2-1.5-1.5-2-2-1-1-1.5-1.5-2-2-2-2-1-1l-1-.5-1-.5-1.5-.5-1.5-.5h-1-1l-1-.5-1-.5-1.5-1.5-1.5-1.5h-1-1-2.5-2.5-2-2l-1.5.5-1.5.5h-2.5-2.5l-1.5-.5-1.5-.5-1-.5-1-.5-1.5.5-1.5.5h-1-1l-.5.5-.5.5h-1.5-1.5l-.5.5-.5.5-.5 1-.5 1 1 1 1 1 1-1 1-1 2-.5 2-.5h2 2l2 .5 2 .5 1.5.5 1.5.5 1.5-.5 1.5-.5h2.5 2.5 2 2l1.5 1 1.5 1h2 2 2 2l.5.5.5.5h2 2l1 .5 1 .5h1 1 2 2 2 2l2 .5 2 .5h2 2 1.5 1.5l1 1 1 1" style="fill:#9d2a03;stroke:#9d2a03" />
        <path d="m6 797l2-1 .5-1 .5-1-1-1-1-1-2-.5-2-.5-1.5.5-1.5.5v1.5 1.5l1.5.5 1.5.5 1.5.5 1.5.5" style="fill:#958f84;stroke:#958f84" />
        <path d="m147 796l3 1 1-1 1-1 1-1.5 1-1.5v-1-1l-1-.5-1-.5-1 1-1 1-1 1.5-1 1.5-.5 1-.5 1" style="fill:#c63501;stroke:#c63501" />
        <path d="m10 795l1-1-.5-1.5-.5-1.5-1.5-1-1.5-1h-2-2v1 1l2 .5 2 .5 1 1 1 1 .5.5.5.5" style="fill:#b7b18d;stroke:#b7b18d" />
        <path d="m102 794h4l.5-1.5.5-1.5v-.5-.5-7.5-7.5l-.5-8.5-.5-8.5-.5-13.5-.5-13.5-1 8.5-1 8.5-2.5 12.5-2.5 12.5.5 2 .5 2 1 1.5 1 1.5.5 2.5.5 2.5.5 1 .5 1v1 1l-1 1-1 1-.5.5-.5.5-2-.5-2-.5-2-.5-2-.5-1.5-.5-1.5-.5-2-.5-2-.5-1.5-.5-1.5-.5h-2-2-2.5-2.5l-1.5-.5-1.5-.5-2 .5-2 .5-1 .5-1 .5 1.5 1.5 1.5 1.5 1 .5 1 .5h1 1l1.5.5 1.5.5 1 .5 1 .5h1 1 2 2 2 2 1.5 1.5 1 1 2 2 1.5 1.5 2 2" style="fill:#791e05;stroke:#791e05" />
        <path d="m100 792l1-1 1-1 1-1v-1-1l-.5-1-.5-1h-.5-.5l-1 1-1 1h-1-1-1-1l-1.5-.5-1.5-.5h-1.5-1.5l-1-.5-1-.5-1.5-.5-1.5-.5-2 .5-2 .5h-2-2l-2-.5-2-.5-1.5-.5-1.5-.5h-1.5-1.5-1.5-1.5-1-1-1-1l-1 .5-1 .5h-1-1-1-1l-1 .5-1 .5-.5.5-.5.5 1 .5 1 .5h1.5 1.5 2 2l1.5.5 1.5.5h1 1l1-.5 1-.5 2-.5 2-.5 1.5.5 1.5.5h2.5 2.5 2 2l1.5.5 1.5.5 2 .5 2 .5 1.5.5 1.5.5 2 .5 2 .5 2 .5 2 .5" style="fill:#76352c;stroke:#76352c" />
        <path d="m107 790v1l1-1 1-1 1-.5 1-.5.5-1 .5-1 .5-1.5.5-1.5v-.5-.5l2.5-6.5 2.5-6.5 1-8 1-8 2.5-6.5 2.5-6.5 1.5-7 1.5-7-2.5-2.5-2.5-2.5h-2-2l-4-3-4-3v-10-10l-.5 1-.5 1v1 1l-.5 1-.5 1v1 1 1 1l-.5.5-.5.5v1.5 1.5 1 1l-.5.5-.5.5v1 1 1.5 1.5l-.5 2.5-.5 2.5v1.5 1.5 2 2l-.5 1-.5 1 .5 13.5.5 13.5.5 8.5.5 8.5v7.5 7.5" style="fill:#9d2a03;stroke:#9d2a03" />
        <path d="m31 788v1h1.5 1.5l.5-.5.5-.5h1 1l1.5-.5 1.5-.5v-.5-.5l-1.5-.5-1.5-.5h-1-1l-1 .5-1 .5-1 1-1 1" style="fill:#791e05;stroke:#791e05" />
        <path d="m42 788l3 1h2.5 2.5l1.5-.5 1.5-.5h2 2 2.5 2.5l-1.5-.5-1.5-.5h-2-2-1.5-1.5l-1-.5-1-.5-2 1-2 1-1.5-.5-1.5-.5-1.5-.5-1.5-.5v.5.5l1 .5 1 .5" style="fill:#9a3628;stroke:#9a3628" />
        <path d="m0 787v1l1-.5 1-.5 1.5-.5 1.5-.5 1-.5 1-.5h1 1l1.5-.5 1.5-.5 1 .5 1 .5.5-.5.5-.5 1.5.5 1.5.5 1-.5 1-.5.5-.5.5-.5 1.5-.5 1.5-.5h2 2 1.5 1.5l1-.5 1-.5 1.5-.5 1.5-.5h.5.5l1-.5 1-.5.5-1 .5-1v-1.5-1.5h-1.5-1.5-1-1-1-1l-1 .5-1 .5h-1-1-1-1-1-1-1.5-1.5-2-2l-1.5-.5-1.5-.5.5-1 .5-1 1-1 1-1 1.5-.5 1.5-.5 2-.5 2-.5h2 2l1.5-.5 1.5-.5v-1-1l-2-1-2-1-1.5.5-1.5.5-2-.5-2-.5-1-.5-1-.5-.5-1.5-.5-1.5-1-1-1-1h-.5-.5l-2 .5-2 .5-1 1-1 1-1.5 1-1.5 1-1.5.5-1.5.5h-1.5-1.5v3 3 2.5 2.5 2 2 2.5 2.5 2 2" style="fill:#ddd9cc;stroke:#ddd9cc" />
        <path d="m43 787l3 1 2-1 2-1h-1-1-.5-.5l-2-.5-2-.5-1.5.5-1.5.5 1.5.5 1.5.5" style="fill:#b95047;stroke:#b95047" />
        <path d="m92 786l3 1h1 1 1 1l1-1 1-1v-.5-.5l-1-1-1-1-.5-.5-.5-.5-.5-1-.5-1-1.5-.5-1.5-.5-.5-.5-.5-.5-.5-1-.5-1-1-1-1-1v-1-1h1 1l1 .5 1 .5h1.5 1.5l-.5-2-.5-2-2-7.5-2-7.5-5 1.5-5 1.5-.5 4.5-.5 4.5-5-1-5-1-5.5-2-5.5-2-6 1-6 1-5.5 3.5-5.5 3.5 7 .5 7 .5 5-1 5-1 6.5.5 6.5.5 2.5 3 2.5 3-6.5 4.5-6.5 4.5h1.5 1.5l1.5.5 1.5.5 2 .5 2 .5h2 2l2-.5 2-.5 1.5.5 1.5.5 1 .5 1 .5h1.5 1.5" style="fill:#3f372b;stroke:#3f372b" />
        <path d="m43 785l4 1v-.5-.5l-1-1.5-1-1.5h-1-1l-.5-.5-.5-.5v-1-1l-.5-1-.5-1v1 1l-.5.5-.5.5h-1.5-1.5-.5-.5l1.5.5 1.5.5 1 .5 1 .5.5.5.5.5.5 1 .5 1" style="fill:#b7b18d;stroke:#b7b18d" />
        <path d="m47 785v1h.5.5v-.5-.5-1-1l-1-1-1-1-1-1-1-1v-2-2l-.5-1-.5-1-.5-.5-.5-.5-1-.5-1-.5-1.5.5-1.5.5h-2-2l-1.5.5-1.5.5h1.5 1.5 1 1 1 1l1.5.5 1.5.5v1.5 1.5l-.5 1-.5 1-1 .5-1 .5h1.5 1.5l.5-.5.5-.5v-1-1l.5 1 .5 1v1 1l.5.5.5.5h1 1l1 1.5 1 1.5" style="fill:#9e99a5;stroke:#9e99a5" />
        <path d="m48 785v1h1 1l.5-.5.5-.5v-.5-.5l-.5-1-.5-1-1-1-1-1-2-.5-2-.5 1 1 1 1 1 1 1 1v1 1" style="fill:#7e7569;stroke:#7e7569" />
        <path d="m51 784v1l1-.5 1-.5h1 1 1 1l1-.5 1-.5h1 1 1 1 1.5 1.5l6.5-4.5 6.5-4.5-2.5-3-2.5-3-6.5-.5-6.5-.5-5 1-5 1-7-.5-7-.5 5.5-3.5 5.5-3.5 6-1 6-1 5.5 2 5.5 2 5 1 5 1 .5-4.5.5-4.5 5-1.5 5-1.5 2 7.5 2 7.5 2-7 2-7 .5-6 .5-6 1-8 1-8 1-8 1-8v-2.5-2.5-2-2l-2.5 4.5-2.5 4.5-6.5 1-6.5 1-11.5 3-11.5 3 5.5-3.5 5.5-3.5 6-2.5 6-2.5 5-4 5-4 4 1.5 4 1.5.5-1 .5-1v-1-1-1.5-1.5l.5-1.5.5-1.5-2-2-2-2-5 4-5 4-6 .5-6 .5-2.5 1.5-2.5 1.5-2 2-2 2-5.5.5-5.5.5-5.5 3-5.5 3-5.5 3.5-5.5 3.5-5.5 3.5-5.5 3.5-5 4-5 4-5.5 2-5.5 2 5-4 5-4 5-3 5-3 4.5-3.5 4.5-3.5 5-3.5 5-3.5 5.5-2.5 5.5-2.5 5-4 5-4 6-3 6-3 5.5-3 5.5-3 5-3.5 5-3.5-5.5 3-5.5 3-5.5 3-5.5 3-6 3-6 3-6 3-6 3-5 3.5-5 3.5-5.5 3.5-5.5 3.5-5.5 3.5-5.5 3.5-5 4-5 4-5.5 4.5-5.5 4.5h1.5 1.5l1 .5 1 .5-1 1.5-1 1.5-1 1-1 1-1 1-1 1v1.5 1.5l6 2.5 6 2.5 6 3 6 3 7 5.5 7 5.5h1 1l1 .5 1 .5.5.5.5.5.5 1 .5 1v2 2l2 .5 2 .5 1 1 1 1 .5 1 .5 1" style="fill:#5d564a;stroke:#5d564a" />
        <path d="m101 784v1h.5.5l-.5-2.5-.5-2.5-1-1.5-1-1.5-.5-2-.5-2v-.5-.5h-.5-.5-1.5-1.5l-1-.5-1-.5h-1-1v1 1l1 1 1 1 .5 1 .5 1 .5.5.5.5 1.5.5 1.5.5.5 1 .5 1 .5.5.5.5 1 1 1 1" style="fill:#3c1e13;stroke:#3c1e13" />
        <path d="m113 782v1l7-6 7-6 4 4.5 4 4.5 2.5-6.5 2.5-6.5-1-8-1-8-1-8-1-8 .5-8 .5-8 2-7 2-7 2-7 2-7 1-8 1-8 1-7.5 1-7.5.5-7.5.5-7.5-.5-7.5-.5-7.5-2.5-6.5-2.5-6.5-3-5.5-3-5.5-2-6-2-6-3-5-3-5-3.5 4-3.5 4-2-3-2-3 .5-8.5.5-8.5 1.5-7.5 1.5-7.5 1-7.5 1-7.5-.5-7-.5-7-1.5.5-1.5.5-.5.5-.5.5-.5.5-.5.5h-1-1l-1.5-.5-1.5-.5.5-1 .5-1v-.5-.5l-2-1-2-1-2 7-2 7-.5 8-.5 8v9 9 9 9l.5 8.5.5 8.5 1 7.5 1 7.5 1 8 1 8 1 7.5 1 7.5 1 .5 1 .5.5.5.5.5.5 1 .5 1v1 1 1 1 1 1 1 1 .5.5 1 1 1 1 1 1l-.5 1-.5 1v1 1 1 1 1 1 1 1 1.5 1.5l-.5.5-.5.5v1 1l-.5 1-.5 1v1.5 1.5l-.5 2-.5 2v10 10l4 3 4 3h2 2l2.5 2.5 2.5 2.5-1.5 7-1.5 7-2.5 6.5-2.5 6.5-1 8-1 8-2.5 6.5-2.5 6.5" style="fill:#c63501;stroke:#c63501" />
        <path d="m15 774l3 1h2 2 1.5 1.5 1 1 1 1 1 1l1-.5 1-.5h1 1 1 1 1.5 1.5l-1.5-.5-1.5-.5h-1-1-1-1-1.5-1.5l-2 .5-2 .5-1.5-.5-1.5-.5-1-.5-1-.5.5-1 .5-1 1.5-.5 1.5-.5h2 2v-.5-.5h-2-2l-2 .5-2 .5-1.5.5-1.5.5-1 1-1 1-.5 1-.5 1" style="fill:#bcb8ac;stroke:#bcb8ac" />
        <path d="m23 773l3 1 2-.5 2-.5-2.5-.5-2.5-.5.5-1 .5-1 1.5-.5 1.5-.5h-2-2l-1.5.5-1.5.5-.5 1-.5 1 1 .5 1 .5" style="fill:#9e99a5;stroke:#9e99a5" />
        <path d="m25 772l5 1 1.5-.5 1.5-.5h2 2l1.5-.5 1.5-.5h-1-1-2-2l-1.5-.5-1.5-.5 1-.5 1-.5h-2-2l-1.5.5-1.5.5-.5 1-.5 1" style="fill:#958f84;stroke:#958f84" />
        <path d="m98 772v1l2.5-12.5 2.5-12.5 1-8.5 1-8.5.5-1 .5-1v-2-2-1.5-1.5l-.5-.5-.5-.5.5-1.5.5-1.5v-2.5-2.5l-.5-1.5-.5-1.5-1 8-1 8-1 8-1 8-.5 6-.5 6-2 7-2 7 .5 2 .5 2h.5.5" style="fill:#76352c;stroke:#76352c" />
        <path d="m148 771l3 1 1-1 1-1 1-.5 1-.5.5-.5.5-.5h1 1l1-.5 1-.5v-9.5-9.5-9-9-9-9-9-9-9-9-8.5-8.5-9-9-7-7l-1.5 7.5-1.5 7.5-1.5 7-1.5 7-1 7-1 7-1 7-1 7-1 8-1 8-2 6.5-2 6.5-2 7-2 7 .5 8.5.5 8.5 2 7 2 7 1.5 6.5 1.5 6.5" style="fill:#b95047;stroke:#b95047" />
        <path d="m31 770l3 1h2 2l-7-5.5-7-5.5-6-3-6-3-6-2.5-6-2.5v1.5 1.5.5.5h2 2l1.5.5 1.5.5 1.5 1.5 1.5 1.5h2.5 2.5.5.5l2 .5 2 .5.5 2 .5 2h2 2l1.5.5 1.5.5 2 1 2 1v1 1l-1.5.5-1.5.5v.5.5h2 2l-1 .5-1 .5" style="fill:#7e7569;stroke:#7e7569" />
        <g style="fill:#bcb8ac;stroke:#bcb8ac">
            <path d="m21 763l4 1 1.5-.5 1.5-.5-1.5-.5-1.5-.5h-2-2l-.5-2-.5-2-2-.5-2-.5 1 1 1 1 .5 1.5.5 1.5 1 .5 1 .5" />
            <path d="m0 762v1h1.5 1.5l1.5-.5 1.5-.5 1.5-1 1.5-1 1-1 1-1 2-.5 2-.5h-2.5-2.5l-1.5.5-1.5.5-1.5.5-1.5.5h-1-1-1-1v1.5 1.5" />
        </g>
        <path d="m2 759h2l1.5-.5 1.5-.5 1.5-.5 1.5-.5h-2-2-2-2l-1 .5-1 .5v.5.5h1 1" style="fill:#9e99a5;stroke:#9e99a5" />
        <path d="m0 757v1l1-.5 1-.5h2 2 2 2l-1.5-1.5-1.5-1.5-1.5-.5-1.5-.5h-2-2v2 2" style="fill:#958f84;stroke:#958f84" />
        <path d="m7 747h2l.5-1.5.5-1.5h-2.5-2.5l-1 1-1 1 2 .5 2 .5" style="fill:#3f372b;stroke:#3f372b" />
        <path d="m0 745v1l1-1 1-1 1-1 1-1 1-1.5 1-1.5-1-.5-1-.5h-1.5-1.5-.5-.5v2.5 2.5 1 1" style="fill:#7e7569;stroke:#7e7569" />
        <path d="m0 737v1h.5.5l5.5-4.5 5.5-4.5 5-4 5-4 5.5-3.5 5.5-3.5 5.5-3.5 5.5-3.5 5-3.5 5-3.5 6-3 6-3 6-3 6-3 5.5-3 5.5-3 5.5-3 5.5-3 2-1.5 2-1.5v-.5-.5l-6.5 2.5-6.5 2.5-5.5 3-5.5 3-5 3-5 3-6 2.5-6 2.5-5 3-5 3-5 4-5 4-5.5 3.5-5.5 3.5-5 3.5-5 3.5-8.5 6.5-8.5 6.5v1 1" style="fill:#3f372b;stroke:#3f372b" />
        <path d="m7 736l11-4 5-4 5-4 5.5-3.5 5.5-3.5 5.5-3.5 5.5-3.5 5.5-3 5.5-3 5.5-.5 5.5-.5 2-2 2-2 2.5-1.5 2.5-1.5 6-.5 6-.5 5-4 5-4 2 2 2 2 .5-1.5.5-1.5.5-.5.5-.5v-1.5-1.5-2-2-.5-.5-2-2l-1-1-1-1h-1.5-1.5l-2 1.5-2 1.5-5 3.5-5 3.5-5.5 3-5.5 3-6 3-6 3-5 4-5 4-5.5 2.5-5.5 2.5-5 3.5-5 3.5-4.5 3.5-4.5 3.5-5 3-5 3-5 4-5 4" style="fill:#7e7569;stroke:#7e7569" />
        <path d="m0 734v1l8.5-6.5 8.5-6.5 5-3.5 5-3.5 5.5-3.5 5.5-3.5 5-4 5-4 5-3 5-3 6-2.5 6-2.5 5-3 5-3 5.5-3 5.5-3 6.5-2.5 6.5-2.5.5-1 .5-1v-1-1-1.5-1.5l-.5-2-.5-2-1-8-1-8-1-8-1-8-1-8-1-8-.5-8.5-.5-8.5v-8.5-8.5-9-9-9-9l1-8 1-8 .5-8 .5-8 .5-8.5.5-8.5v-8-8l.5-8.5.5-8.5 1-13 1-13v-.5-.5-2-2-1-1-1-1-2-2-.5-.5-3.5-3.5-2-2-2-2l-.5-2-.5-2v-.5-.5l-1 .5-1 .5h-1-1l-1 .5-1 .5-2-.5-2-.5-8-.5-8-.5-8-.5-8-.5-8-.5-8-.5-8-1-8-1h-7-7l-7.5-.5-7.5-.5v1.5 1.5l9 1 9 1h8 8l8 .5 8 .5 8.5.5 8.5.5 8.5.5 8.5.5 7.5.5 7.5.5 1 6.5 1 6.5-.5 7.5-.5 7.5-2 7-2 7-5.5 2.5-5.5 2.5-7 1.5-7 1.5-7 2-7 2h-7-7l-7.5-1.5-7.5-1.5-5.5-2.5-5.5-2.5-8.5.5-8.5.5v8.5 8.5 9 9 9 9 8.5 8.5 9 9 9 9 9 9 8.5 8.5 9 9 9 9 9 9 8.5 8.5 9 9 9 9 9 9 8 8" style="fill:#3c1e13;stroke:#3c1e13" />
        <path d="m105 721l1 1 .5-2.5.5-2.5v-1.5-1.5-1-1l.5-.5.5-.5v-1-1-1.5-1.5l.5-.5.5-.5v-1-1-1-1l.5-1 .5-1v-1-1l.5-1 .5-1 .5-2 .5-2v-1.5-1.5-.5-.5-2.5-2.5-2.5-2.5l-.5 1-.5 1-1 .5-1 .5v2 2 1.5 1.5l-.5.5-.5.5-.5 1.5-.5 1.5-.5 1.5-.5 1.5v1.5 1.5 1 1l-.5 1-.5 1v2 2 2.5 2.5l.5 1.5.5 1.5v2.5 2.5l-.5 1.5-.5 1.5" style="fill:#9a3628;stroke:#9a3628" />
        <path d="m64 718l23-6 6.5-1 6.5-1 2.5-4.5 2.5-4.5-4-1.5-4-1.5-5 4-5 4-6 2.5-6 2.5-5.5 3.5-5.5 3.5" style="fill:#7e7569;stroke:#7e7569" />
        <path d="m112 687v1l.5-1 .5-1v-1-1l.5-.5.5-.5v-1.5-1.5-1-1-1-1-1-1-1-1l.5-1 .5-1v-1-1-1-1-1-1-.5-.5-1-1-1-1-1-1-1-1l-.5-1-.5-1-.5-.5-.5-.5-1-.5-1-.5v3.5 3.5 1.5 1.5 1 1 1.5 1.5 1 1 1 1 2 2l.5 1.5.5 1.5v2.5 2.5 2.5 2.5" style="fill:#c63b28;stroke:#c63b28" />
        <path d="m97 681l3 1h2 2l1.5-1 1.5-1 .5-1.5.5-1.5-1.5-1-1.5-1-1 1-1 1-1.5 1-1.5 1-1 1-1 1h-.5-.5" style="fill:#958f84;stroke:#958f84" />
        <path d="m109 679v1l1-.5 1-.5.5-1 .5-1-.5-1.5-.5-1.5-.5-.5-.5-.5h-1.5-1.5l1 1 1 1v2 2" style="fill:#b95047;stroke:#b95047" />
        <path d="m110 673l1 1v-2-2-1-1-1-1-1.5-1.5-1-1-1.5-1.5l-1 1-1 1-.5 1-.5 1v1.5 1.5 1.5 1.5 1 1l-.5 1.5-.5 1.5h1.5 1.5" style="fill:#9a3628;stroke:#9a3628" />
        <path d="m104 672v1h1.5 1.5l.5-1.5.5-1.5v-1-1-1.5-1.5-1.5-1.5l-1.5-.5-1.5-.5h-.5-.5l.5 2 .5 2v1.5 1.5 1 1l-.5 1-.5 1" style="fill:#76352c;stroke:#76352c" />
        <path d="m105 661l3 1v-.5-.5l-.5-8-.5-8-1-7.5-1-7.5-1-8-1-8-1-8-1-8v-9-9-8.5-8.5l.5-8.5.5-8.5v-9-9l.5-8.5.5-8.5.5-14.5.5-14.5v-2.5-2.5-2.5-2.5l.5-1.5.5-1.5v-2-2-2.5-2.5-2-2-2.5-2.5-2-2-2.5-2.5-2-2-1.5-1.5h-.5-.5l-1 13-1 13-.5 8.5-.5 8.5v8 8l-.5 8.5-.5 8.5-.5 8-.5 8-1 8-1 8v9 9 9 9 8.5 8.5l.5 8.5.5 8.5 1 8 1 8 1 8 1 8 1 8 1 8h.5.5" style="fill:#791e05;stroke:#791e05" />
        <path d="m108 661v1l.5-1 .5-1 1-1 1-1v-3.5-3.5l-1-7.5-1-7.5-1-8-1-8-1-7.5-1-7.5-.5-8.5-.5-8.5v-9-9-9-9l.5-8 .5-8 2-7 2-7v-2.5-2.5l-.5-.5-.5-.5v-1.5-1.5-1-1-1-1-1.5-1.5-1-1l.5-.5.5-.5v-1-1l.5-1 .5-1 .5-.5.5-.5.5-.5.5-.5v-1-1l.5-1.5.5-1.5v-1.5-1.5l.5-1.5.5-1.5v-1-1l.5-1 .5-1 .5-1.5.5-1.5.5-.5.5-.5.5-1 .5-1 1-1 1-1 1-.5 1-.5 1.5-1.5 1.5-1.5 1-1.5 1-1.5h-1-1l-5 4.5-5 4.5-4.5 10-4.5 10v-2.5-2.5-.5-.5-2-2l-.5-.5-.5-.5-.5-1.5-.5-1.5-.5 14.5-.5 14.5-.5 8.5-.5 8.5v9 9l-.5 8.5-.5 8.5v8.5 8.5 9 9l1 8 1 8 1 8 1 8 1 7.5 1 7.5.5 8 .5 8" style="fill:#9d2a03;stroke:#9d2a03" />
        <g style="fill:#3f372b;stroke:#3f372b">
            <path d="m41 642h13l-3.5-5.5-3.5-5.5-5 4-5 4 2 1.5 2 1.5" />
            <path d="m49 608l1-8-4.5 1.5-4.5 1.5 4 2.5 4 2.5" />
            <path d="m42 596h2l1.5-.5 1.5-.5-.5-1-.5-1h-2-2l-1 .5-1 .5 1 1 1 1" />
            <path d="m16 595h2l1.5.5 1.5.5h2.5 2.5l1-1 1-1v-1.5-1.5l-1.5-.5-1.5-.5-2 .5-2 .5-1.5.5-1.5.5-1.5.5-1.5.5.5 1 .5 1" />
        </g>
        <g style="fill:#b95047;stroke:#b95047">
            <path d="m158 593l2 1v-2.5-2.5-2.5-2.5-2-2-1.5-1.5l-1 1-1 1v1 1l-.5 1-.5 1 .5-.5.5-.5.5.5.5.5-.5.5-.5.5-.5 1.5-.5 1.5 1 .5 1 .5v1 1l-.5 1.5-.5 1.5" />
            <path d="m159 562l1 1v-3-3-2.5-2.5-2-2-2.5-2.5-2-2-2.5-2.5-2-2-2-2-2.5-2.5-.5-.5l-1.5-.5-1.5-.5-1-.5-1-.5-1.5-.5-1.5-.5-1 1-1 1-1 2-1 2-1 1.5-1 1.5h-1.5-1.5l-1.5.5-1.5.5-1.5-.5-1.5-.5-1.5-.5-1.5-.5-.5-.5-.5-.5-1.5-1-1.5-1-.5-.5-.5-.5-1-.5-1-.5v.5.5 1.5 1.5l1 1 1 1 1 .5 1 .5.5 1 .5 1v-.5-.5l1-.5 1-.5 1 .5 1 .5h1 1l2-.5 2-.5.5.5.5.5-1.5 2-1.5 2 .5 9.5.5 9.5 4.5 3 4.5 3 4.5 2.5 4.5 2.5" />
        </g>
        <path d="m135 531l5 1 1.5-2 1.5-2-.5-.5-.5-.5-2 .5-2 .5h-1-1l-1-.5-1-.5-1 .5-1 .5v.5.5l1.5 1 1.5 1" style="fill:#9a3628;stroke:#9a3628" />
        <path d="m115 528h2l.5-.5.5-.5.5-.5.5-.5 1.5-.5 1.5-.5 2.5-.5 2.5-.5v-1.5-1.5h-1.5-1.5l-.5-.5-.5-.5h-1.5-1.5l-1 1-1 1-1 1-1 1-1.5.5-1.5.5-.5 1-.5 1 1.5.5 1.5.5" style="fill:#9d2a03;stroke:#9d2a03" />
        <path d="m137 526l3 1 1.5-.5 1.5-.5v-.5-.5l.5-1.5.5-1.5.5-1 .5-1v-.5-.5l.5-2 .5-2v-3-3l1-8 1-8 .5-8.5.5-8.5 1.5-7.5 1.5-7.5v-7-7l-1.5-7-1.5-7-5.5 8.5-5.5 8.5-.5 1.5-.5 1.5v8 8l1.5 3 1.5 3v5 5l-.5-1.5-.5-1.5-1.5-1-1.5-1-1.5-1-1.5-1v1 1l1 1 1 1 .5.5.5.5.5.5.5.5.5 1 .5 1 .5.5.5.5v1 1l.5.5.5.5 1 .5 1 .5.5.5.5.5.5.5.5.5.5.5.5.5-.5 1-.5 1v2 2l-.5 1.5-.5 1.5v1 1l.5 1 .5 1v1.5 1.5 3 3l-1 1-1 1-1 2.5-1 2.5h-1.5-1.5-.5-.5l-.5-.5-.5-.5h-2.5-2.5l1.5 1 1.5 1 .5.5.5.5 1.5.5 1.5.5" style="fill:#958f84;stroke:#958f84" />
        <path d="m143 525v1h1.5 1.5l1-1.5 1-1.5 1-2 1-2-.5-.5-.5-.5.5-2 .5-2 1-1.5 1-1.5v-.5-.5l-.5-.5-.5-.5v-1-1l-.5-1.5-.5-1.5-1-1.5-1-1.5-1 1-1 1v3 3l.5 1.5.5 1.5.5 2 .5 2-.5 1.5-.5 1.5-1 .5-1 .5-.5 1-.5 1-.5 1.5-.5 1.5" style="fill:#5d564a;stroke:#5d564a" />
        <path d="m113 524v1l1.5-.5 1.5-.5 1-1 1-1-1.5.5-1.5.5-1.5-.5-1.5-.5-1-1-1-1-.5-1.5-.5-1.5v2.5 2.5l2 1 2 1" style="fill:#c63b28;stroke:#c63b28" />
        <path d="m137 523h3l-.5-.5-.5-.5-1-1.5-1-1.5-1-1-1-1-2 .5-2 .5-.5-1.5-.5-1.5-1.5-1-1.5-1-1.5.5-1.5.5-2-.5-2-.5-1.5.5-1.5.5-1 1-1 1-1-.5-1-.5v1.5 1.5l1 .5 1 .5.5 1 .5 1 1-.5 1-.5 1-.5 1-.5 1.5-.5 1.5-.5.5.5.5.5 1.5.5 1.5.5 1 .5 1 .5.5-1.5.5-1.5.5.5.5.5 1 .5 1 .5 1.5 1.5 1.5 1.5h.5.5" style="fill:#bcb8ac;stroke:#bcb8ac" />
        <path d="m112 522l3 1 1.5-.5 1.5-.5v-.5-.5-.5-.5l-1 .5-1 .5h-1.5-1.5l-1-1-1-1v-2.5-2.5-2-2-1-1-1-1l.5-1 .5-1v-2-2l-1 1.5-1 1.5v2 2 1 1 1.5 1.5l-.5 2.5-.5 2.5.5 1.5.5 1.5 1 1 1 1" style="fill:#b95047;stroke:#b95047" />
        <path d="m135 522l1 1-1.5-1.5-1.5-1.5-1-.5-1-.5-.5-.5-.5-.5-.5 1.5-.5 1.5.5.5.5.5h2.5 2.5" style="fill:#b7b18d;stroke:#b7b18d" />
        <path d="m139 522l1 1 1-2.5 1-2.5 1-1 1-1v-3-3l-1-4-1-4-2.5-5.5-2.5-5.5-3.5-5.5-3.5-5.5-3.5-.5-3.5-.5-3 5.5-3 5.5-2 12.5-2 12.5 1 .5 1 .5 1-1 1-1 1.5-.5 1.5-.5 2 .5 2 .5 1.5-.5 1.5-.5 1.5 1 1.5 1 .5 1.5.5 1.5 2-.5 2-.5 1 1 1 1 1 1.5 1 1.5" style="fill:#ddd9cc;stroke:#ddd9cc" />
        <path d="m113 521h3l-.5-1-.5-1-1-.5-1-.5v-1.5-1.5l-.5-.5-.5-.5h-.5-.5v2.5 2.5l1 1 1 1" style="fill:#b7b18d;stroke:#b7b18d" />
        <path d="m118 521v1l1-1 1-1h1.5 1.5l.5.5.5.5h1.5 1.5v-.5-.5l-1.5-.5-1.5-.5-.5-.5-.5-.5-1.5.5-1.5.5-1 .5-1 .5v.5.5" style="fill:#76352c;stroke:#76352c" />
        <path d="m145 519v1l1-.5 1-.5.5-1.5.5-1.5-.5-2-.5-2-.5-1.5-.5-1.5v3 3l-.5 2-.5 2" style="fill:#7e7569;stroke:#7e7569" />
        <path d="m157 519l3 1v-2-2-1.5-1.5h-2-2l-1.5-.5-1.5-.5h-.5-.5v2.5 2.5l1.5.5 1.5.5 1 .5 1 .5" style="fill:#9a3628;stroke:#9a3628" />
        <path d="m149 518l1 1 1-1 1-1v-2.5-2.5-.5-.5l-1 1.5-1 1.5-.5 2-.5 2" style="fill:#76352c;stroke:#76352c" />
        <path d="m108 516l1 1 .5-2.5.5-2.5v-1.5-1.5-1-1-2-2l1-1.5 1-1.5.5-1.5.5-1.5v-2.5-2.5l-.5 1.5-.5 1.5v1 1l-.5.5-.5.5-.5.5-.5.5-.5 1-.5 1v1 1l-.5.5-.5.5v1 1 1.5 1.5 1 1 1 1 1.5 1.5" style="fill:#9a3628;stroke:#9a3628" />
        <path d="m112 514l1 1 2-12.5 2-12.5 3-5.5 3-5.5 3.5.5 3.5.5 3.5 5.5 3.5 5.5 2.5 5.5 2.5 5.5 1 4 1 4v-1.5-1.5l-.5-1-.5-1v-1-1l.5-1.5.5-1.5v-2-2-.5-.5l-1-.5-1-.5-1-1-1-1-1-1-1-1-.5-2-.5-2-1-1-1-1-1-2-1-2v-1-1l-.5-.5-.5-.5-1-1.5-1-1.5-.5-1-.5-1h-1.5-1.5l-.5.5-.5.5-.5.5-.5.5h-1-1v-.5-.5l-1 .5-1 .5-1 1-1 1-.5 1-.5 1-.5.5-.5.5-.5 1.5-.5 1.5-.5 1-.5 1v1 1l-.5 1.5-.5 1.5v1.5 1.5 2.5 2.5l-.5 1.5-.5 1.5v2 2l-.5 1-.5 1v1 1 1 1 2 2h.5.5" style="fill:#bcb8ac;stroke:#bcb8ac" />
        <path d="m153 512l3 1h2 2v-1.5-1.5-2-2-2.5-2.5-2-2-2.5-2.5-2-2-2-2-2.5-2.5-2-2-2.5-2.5-2-2l-1.5 7.5-1.5 7.5-2.5 14.5-2.5 14.5v.5.5.5.5h.5.5" style="fill:#b95047;stroke:#b95047" />
        <path d="m151 509l1 1 2.5-14.5 2.5-14.5 1.5-7.5 1.5-7.5v-8.5-8.5-8.5-8.5-9-9-9-9-9-9-8.5-8.5-1-1l-2.5 7.5-2.5 7.5-3.5 11-3.5 11 .5-8.5.5-8.5 1.5-6.5 1.5-6.5-1.5-6.5-1.5-6.5-3.5-1-3.5-1-.5 8-.5 8-.5 7.5-.5 7.5v8 8 8.5 8.5l-1 8-1 8v9.5 9.5l5.5-8.5 5.5-8.5 1.5 7 1.5 7v7 7l-1.5 7.5-1.5 7.5-.5 8.5-.5 8.5-1 8-1 8v-3-3l1-1 1-1 1 1.5 1 1.5.5 1.5.5 1.5v1 1" style="fill:#7e7569;stroke:#7e7569" />
        <path d="m106 496l9-20 5-4.5 5-4.5v-.5-.5l2-8 2-8 .5-8 .5-8 .5-8.5.5-8.5 1-10.5 1-10.5-1.5.5-1.5.5.5-8.5.5-8.5v-8.5-8.5l1-7 1-7-.5-9-.5-9-4.5 3-4.5 3-3.5 4.5-3.5 4.5-.5 8.5-.5 8.5-1 8-1 8v8 8l-.5 8-.5 8v8 8l-1 8-1 8v8 8l-1 7.5-1 7.5-1 8.5-1 8.5v2.5 2.5" style="fill:#c63501;stroke:#c63501" />
        <path d="m144 495v1l.5-1 .5-1-.5-.5-.5-.5-.5-.5-.5-.5-.5-.5-.5-.5-1-.5-1-.5-.5-.5-.5-.5v-1-1l-.5-.5-.5-.5-.5-1-.5-1-.5-.5-.5-.5-.5-.5-.5-.5-1-1-1-1 1 2 1 2 1 1 1 1 .5 2 .5 2 1 1 1 1 1 1 1 1 1 .5 1 .5" style="fill:#9e99a5;stroke:#9e99a5" />
        <path d="m106 490v1l1-8.5 1-8.5 1-7.5 1-7.5v-8-8l1-8 1-8v-8-8l.5-8 .5-8v-8-8l1-8 1-8 .5-8.5.5-8.5 3.5-4.5 3.5-4.5 4.5-3 4.5-3 1-8.5 1-8.5 1-14.5 1-14.5v-.5-.5-2.5-2.5l-1.5 7.5-1.5 7.5-.5 7.5-.5 7.5-1.5 7-1.5 7-2-1-2-1v-7.5-7.5l-.5-9.5-.5-9.5-1 .5-1 .5-.5 2-.5 2 .5 1.5.5 1.5v1.5 1.5 2 2 1 1 1.5 1.5 2 2l-.5 1-.5 1v1.5 1.5 2 2l-.5 2-.5 2v1.5 1.5l-.5 1.5-.5 1.5h-1.5-1.5l-.5 1-.5 1h-1-1l-1-1-1-1-1.5.5-1.5.5-1.5-.5-1.5-.5-2-1-2-1v2.5 2.5l-.5 1.5-.5 1.5.5.5.5.5.5 1 .5 1-.5 1-.5 1v1.5 1.5l.5 1 .5 1v2 2 1 1 1.5 1.5l.5 1.5.5 1.5.5 1.5.5 1.5v1 1l.5 1 .5 1 .5 1.5.5 1.5v1 1 .5.5 1.5 1.5l.5 2.5.5 2.5.5 1.5.5 1.5.5 1.5.5 1.5v2.5 2.5 2 2l-.5 3-.5 3-.5 8-.5 8 .5 7.5.5 7.5-.5 8.5-.5 8.5v9 9l-.5 10-.5 10v2 2" style="fill:#c63b28;stroke:#c63b28" />
        <path d="m105 485l1 1 .5-10 .5-10v-9-9l.5-8.5.5-8.5-.5-7.5-.5-7.5.5-8 .5-8-.5-.5-.5-.5v-1.5-1.5l-.5-1.5-.5-1.5v-2.5-2.5-2-2-2.5-2.5l-.5-1.5-.5-1.5.5-1 .5-1v-1.5-1.5-.5-.5-1-1l-.5-1.5-.5-1.5-.5-1-.5-1v-1-1l-.5-1.5-.5-1.5-.5-1.5-.5-1.5v-1.5-1.5-1-1-2-2l-.5-1-.5-1v-1.5-1.5l-.5-.5-.5-.5-1-1-1-1v-1.5-1.5l-.5-1.5-.5-1.5 1 9 1 9 1 8 1 8 1.5 7 1.5 7 1 8 1 8-.5 7-.5 7v1.5 1.5 1 1l.5 1 .5 1v1 1l-.5 1.5-.5 1.5v2 2l.5 2 .5 2-.5 2.5-.5 2.5v1.5 1.5 2 2 2.5 2.5 2 2 2.5 2.5 2 2 2.5 2.5 2 2l-.5 1.5-.5 1.5v2.5 2.5 2.5 2.5l.5 1.5.5 1.5" style="fill:#9a3628;stroke:#9a3628" />
        <path d="m140 485v-10l-1.5-3-1.5-3v-8-8l-.5 2.5-.5 2.5-.5 2-.5 2-.5 1.5-.5 1.5-1 1-1 1-1.5 1.5-1.5 1.5 1 1 1 1 .5.5.5.5v1 1l.5 1.5.5 1.5 1.5 1 1.5 1 1.5 1 1.5 1 .5 1.5.5 1.5" style="fill:#7e7569;stroke:#7e7569" />
        <path d="m132 477l1 1-.5-1.5-.5-1.5v-1-1l-.5-.5-.5-.5-1-1-1-1h-1.5-1.5l2 .5 2 .5v1.5 1.5l1 1.5 1 1.5" style="fill:#958f84;stroke:#958f84" />
        <path d="m122 474h2l.5-.5.5-.5.5-.5.5-.5h1.5 1.5l.5 1 .5 1v-1.5-1.5l-2-.5-2-.5h1.5 1.5l1.5-1.5 1.5-1.5 1-1 1-1 .5-1.5.5-1.5.5-2 .5-2 .5-2.5.5-2.5.5-1.5.5-1.5v-9.5-9.5l1-8 1-8v-8.5-8.5-8-8l.5-7.5.5-7.5.5-8 .5-8 .5-9 .5-9 .5-7 .5-7 .5-8.5.5-8.5 1-8 1-8-.5-8.5-.5-8.5 1-13 1-13v-.5-.5-2-2l-.5-2-.5-2-.5 1.5-.5 1.5v1 1h-1-1v1 1l-.5 1-.5 1v1.5 1.5 2 2 1 1l-.5 1-.5 1-.5 1.5-.5 1.5h-1-1-2-2l-.5 2-.5 2-.5 1.5-.5 1.5v1 1 1.5 1.5l-1 1-1 1v1 1l-.5 1-.5 1-1 1-1 1-.5.5-.5.5-.5 1.5-.5 1.5v1.5 1.5l-1 1.5-1 1.5.5 9.5.5 9.5v7.5 7.5l2 1 2 1 1.5-7 1.5-7 .5-7.5.5-7.5 1.5-7.5 1.5-7.5v-2.5-2.5-1-1l.5-1.5.5-1.5.5-2 .5-2 .5-1.5.5-1.5 1-1.5 1-1.5.5 1.5.5 1.5v2 2 1 1 1.5 1.5l.5 1.5.5 1.5v1 1l.5 1 .5 1v1.5 1.5l.5 2.5.5 2.5v2 2l-.5 2-.5 2v2 2l-.5 1.5-.5 1.5-.5 2.5-.5 2.5v1.5 1.5 1.5 1.5 1 1l-.5 1-.5 1v3 3l-1 7.5-1 7.5-.5 7.5-.5 7.5-.5 8.5-.5 8.5-.5 7.5-.5 7.5-1 8-1 8-.5 7-.5 7v9 9 9 9l-3 8.5-3 8.5-1 1.5-1 1.5-1.5 1.5-1.5 1.5v.5.5" style="fill:#b95047;stroke:#b95047" />
        <path d="m125 466v1h1 1l3-8.5 3-8.5v-9-9-9-9l.5-7 .5-7 1-8 1-8 .5-7.5.5-7.5.5-8.5.5-8.5.5-7.5.5-7.5 1-7.5 1-7.5h-.5-.5l-1 8.5-1 8.5-1 8-1 8-.5 8-.5 8-1 12.5-1 12.5-1 10.5-1 10.5-.5 8.5-.5 8.5-.5 8-.5 8-2 8-2 8" style="fill:#c63b28;stroke:#c63b28" />
        <path d="m43 459h14l7-2 7-2 7-1.5 7-1.5 5.5-2.5 5.5-2.5 2-7 2-7 .5-7.5.5-7.5-1-6.5-1-6.5-7.5-.5-7.5-.5-8.5-.5-8.5-.5-8.5-.5-8.5-.5-8-.5-8-.5h-8-8l-9-1-9-1v10 10 8.5 8.5 8 8l8.5-.5 8.5-.5 5.5 2.5 5.5 2.5 7.5 1.5 7.5 1.5" style="fill:#1c1408;stroke:#1c1408" />
        <path d="m94 441l1-8-6 2-6 2 5.5 2 5.5 2" style="fill:#3c1e13;stroke:#3c1e13" />
        <path d="m104 434v1h.5.5l.5-2.5.5-2.5-.5-2-.5-2v-2-2h-.5-.5v2 2 1 1 1 1 2 2" style="fill:#76352c;stroke:#76352c" />
        <path d="m146 429l2-13 .5-7.5.5-7.5-2.5 5.5-2.5 5.5 1 7 1 7v1.5 1.5" style="fill:#958f84;stroke:#958f84" />
        <path d="m104 421v1h.5.5l.5-1.5.5-1.5v-1-1l-.5-1-.5-1v-1-1-1.5-1.5-.5-.5-1.5-1.5-1-1l-1-1-1-1 .5 2 .5 2v2 2 2 2 3.5 3.5" style="fill:#791e05;stroke:#791e05" />
        <path d="m105 409v1l.5-7 .5-7-1-8-1-8-1.5-7-1.5-7-1-8-1-8-1-9-1-9-.5-1.5-.5-1.5v-1-1l.5-1 .5-1 2.5-1.5 2.5-1.5-1-.5-1-.5-2-1-2-1-1 8-1 8 .5 8 .5 8 1 7 1 7 1 7 1 7 2 11 2 11v.5.5l1 1 1 1v1 1 1.5 1.5" style="fill:#76352c;stroke:#76352c" />
        <path d="m93 402l4 1 1-.5 1-.5h1 1l1-.5 1-.5-2-11-2-11-1-7-1-7-1-7-1-7-.5-8-.5-8 1-8 1-8-3.5-5.5-3.5-5.5-3.5-5-3.5-5-4.5-4.5-4.5-4.5-4-5-4-5-6.5 2.5-6.5 2.5-6-.5-6-.5-6-2-6-2-5.5-3.5-5.5-3.5-1-5-1-5 5-3.5 5-3.5 6.5-2.5 6.5-2.5 7-2 7-2 6.5 2.5 6.5 2.5 5 4 5 4 4.5 4 4.5 4 5 4 5 4 9.5 6.5 9.5 6.5-.5-1.5-.5-1.5v-1-1l.5-.5.5-.5 1 .5 1 .5 1.5-1.5 1.5-1.5-1-.5-1-.5 1.5-1.5 1.5-1.5 1-1 1-1 1.5-1 1.5-1 2-1 2-1 .5-1 .5-1 .5-.5.5-.5v-1-1l.5-.5.5-.5v-1.5-1.5l.5-.5.5-.5v-1-1-1-1l.5-.5.5-.5v-1.5-1.5l.5-.5.5-.5.5-.5.5-.5v-1-1l.5-1 .5-1 .5-.5.5-.5.5-.5.5-.5v-1-1l.5-1 .5-1 .5-.5.5-.5.5-1 .5-1-.5-.5-.5-.5-.5-1-.5-1 .5-.5.5-.5.5-1 .5-1 1 1 1 1 .5-1 .5-1 .5-1 .5-1 .5-1 .5-1h-1.5-1.5l1.5-6 1.5-6 3.5-4.5 3.5-4.5 1-2.5 1-2.5-.5-1.5-.5-1.5-1.5-1-1.5-1-1.5-.5-1.5-.5h-1-1l-1 .5-1 .5h-2-2-2-2-2.5-2.5-2-2l-1.5-.5-1.5-.5-4-5.5-4-5.5-2-5.5-2-5.5-1.5-5.5-1.5-5.5-2-6-2-6 3-6 3-6-1-6.5-1-6.5 1.5-7.5 1.5-7.5 5.5-2.5 5.5-2.5 3.5 5.5 3.5 5.5 3 5.5 3 5.5 5.5 1.5 5.5 1.5 3 6 3 6 1.5 6.5 1.5 6.5-4 3.5-4 3.5v-8-8l-2 2-2 2-.5 8.5-.5 8.5-5 7-5 7 1.5.5 1.5.5h1 1 1 1l.5.5.5.5h1 1 1.5 1.5 1 1 1 1 2 2l1-.5 1-.5h1 1 1 1v-1.5-1.5-.5-.5h-1.5-1.5-1-1-1.5-1.5-1-1l-.5.5-.5.5h-1-1l-1.5-.5-1.5-.5v-1.5-1.5l.5-1.5.5-1.5h1 1 1.5 1.5l1.5.5 1.5.5h1.5 1.5l2 .5 2 .5v-8.5-8.5-9-9-8.5-8.5-4.5-4.5l-5.5-.5-5.5-.5-3.5 2.5-3.5 2.5-4 1.5-4 1.5v-7-7l-5.5-3-5.5-3-7 2-7 2-1-6-1-6 4.5-4.5 4.5-4.5 5.5-3 5.5-3 7-2 7-2 6.5-2.5 6.5-2.5 1.5-7.5 1.5-7.5 1-5.5 1-5.5v-7-7l-1-7-1-7 .5-7 .5-7h-8.5-8.5-9-9-9-9-8.5-8.5-9-9-9-9-9-9-8.5-8.5-8.5-8.5v.5.5 9 9 9 9 8.5 8.5 9 9 9 9 9 9 8.5 8.5 9 9 9 9 9 9 9 9 8.5 8.5 9 9 9 9 9 9 8.5 8.5 9 9 9 9 9 9 8.5 8.5 9 9 9 9 2 2l7.5.5 7.5.5h7 7l8 1 8 1 8 .5 8 .5 8 .5 8 .5 8 .5 8 .5" style="fill:#3f372b;stroke:#3f372b" />
        <path d="m107 399l1 1 .5-3 .5-3v-2-2-2.5-2.5l-.5-1.5-.5-1.5-.5-1.5-.5-1.5-.5-2.5-.5-2.5-.5 1-.5 1 .5 1.5.5 1.5v2.5 2.5 2 2 2.5 2.5l.5 1.5.5 1.5v1.5 1.5" style="fill:#b95047;stroke:#b95047" />
        <path d="m130 397l3-1 1-12.5 1-12.5.5-8 .5-8 1-8 1-8 1-8.5 1-8.5v-.5-.5-2.5-2.5-2-2l.5-2 .5-2 .5-1 .5-1 .5-2.5.5-2.5.5-1.5.5-1.5v-2-2l.5-2 .5-2v-2-2l-.5-2.5-.5-2.5-.5-.5-.5-.5-.5-2-.5-2-.5-2-.5-2-1.5-1-1.5-1-.5 1.5-.5 1.5v2 2 1 1 1.5 1.5l-.5 1.5-.5 1.5-1 14.5-1 14.5-1 8.5-1 8.5.5 9 .5 9-1 7-1 7v8.5 8.5l-.5 8.5-.5 8.5" style="fill:#9d2a03;stroke:#9d2a03" />
        <path d="m148 396l7-22 2.5-7.5 2.5-7.5v-3-3-.5-.5l-1.5-.5-1.5-.5v-2-2l.5-1 .5-1 1-1 1-1v-2-2-2.5-2.5-2-2-2.5-2.5-2-2-.5-.5l-1 1-1 1-.5.5-.5.5-.5 1.5-.5 1.5-.5.5-.5.5v1.5 1.5l-.5 1.5-.5 1.5-.5.5-.5.5-.5 1.5-.5 1.5-.5 1-.5 1-1 1.5-1 1.5h-1-1l.5-2.5.5-2.5v-.5-.5l2-7 2-7 2-6.5 2-6.5 2-8 2-8v-1.5-1.5-2.5-2.5-2-2-2-2-.5-.5l-.5-.5-.5-.5-.5-2.5-.5-2.5v-1-1l1-2.5 1-2.5v-10-10-9-9-5.5-5.5l-1 .5-1 .5-1 1-1 1-.5 1.5-.5 1.5-.5 2-.5 2-.5 1.5-.5 1.5-.5 2-.5 2v2 2l-.5 2-.5 2-.5 1.5-.5 1.5-1 .5-1 .5-1 13-1 13 .5 8.5.5 8.5-1 8-1 8-.5 8.5-.5 8.5-.5 7-.5 7-.5 9-.5 9 3.5 1 3.5 1 1.5 6.5 1.5 6.5-1.5 6.5-1.5 6.5-.5 8.5-.5 8.5" style="fill:#958f84;stroke:#958f84" />
        <path d="m126 382h2l.5-1.5.5-1.5.5-2 .5-2-.5-1.5-.5-1.5v-2.5-2.5h-1-1l-.5 2-.5 2-.5 1.5-.5 1.5v2 2l.5 2 .5 2" style="fill:#c63b28;stroke:#c63b28" />
        <path d="m157 351l3 1v-3.5-3.5-1-1l-1 1-1 1-.5 1-.5 1v2 2" style="fill:#9e99a5;stroke:#9e99a5" />
        <path d="m147 342h2l1-1.5 1-1.5.5-1 .5-1-.5-2-.5-2-.5 1.5-.5 1.5-1 .5-1 .5-.5 2.5-.5 2.5" style="fill:#b7b18d;stroke:#b7b18d" />
        <path d="m100 340l1 1 .5-1 .5-1-.5-1-.5-1-.5-.5-.5-.5.5-1.5.5-1.5v-2.5-2.5l-.5-1-.5-1-1.5-.5-1.5-.5-.5 1-.5 1v1 1l.5 1.5.5 1.5.5 1.5.5 1.5v1.5 1.5l1 1 1 1" style="fill:#b95047;stroke:#b95047" />
        <path d="m148 336v1l1-.5 1-.5.5-1.5.5-1.5.5 2 .5 2 .5-1.5.5-1.5.5-.5.5-.5.5-1.5.5-1.5v-1.5-1.5l.5-.5.5-.5.5-1.5.5-1.5.5-.5.5-.5 1-1 1-1v-2-2-2-2-2.5-2.5-2-2-2.5-2.5-2-2-.5-.5l-2 8-2 8-2 6.5-2 6.5-2 7-2 7" style="fill:#9e99a5;stroke:#9e99a5" />
        <path d="m113 332h2l.5-1 .5-1v-.5-.5l-1-1.5-1-1.5h-1.5-1.5l-1.5-.5-1.5-.5h-1-1l1 1 1 1 1.5 1.5 1.5 1.5 1 1 1 1" style="fill:#b95047;stroke:#b95047" />
        <path d="m152 331l1-1 .5-1.5.5-1.5.5-2 .5-2-.5-.5-.5-.5-.5 2-.5 2-.5 1.5-.5 1.5v1 1" style="fill:#b7b18d;stroke:#b7b18d" />
        <g style="fill:#9a3628;stroke:#9a3628">
            <path d="m105 330l3 1 1.5-.5 1.5-.5-1.5-1.5-1.5-1.5-1-1-1-1-1-1-1-1-1-.5-1-.5-2.5 1.5-2.5 1.5 1.5.5 1.5.5.5 1 .5 1 2 1 2 1" />
            <path d="m116 329v1h1.5 1.5l.5-1.5.5-1.5v-1.5-1.5h-1-1-.5-.5-1-1l-.5-.5-.5-.5v1.5 1.5l1 1.5 1 1.5" />
        </g>
        <path d="m108 325l3 1v-.5-.5-.5-.5-.5-.5l-1-.5-1-.5-1-.5-1-.5-.5-.5-.5-.5-1-.5-1-.5-1-1-1-1-1.5-.5-1.5-.5-1-1.5-1-1.5-.5-1-.5-1-4-4.5-4-4.5-3.5-5-3.5-5-5-5.5-5-5.5-.5-.5-.5-.5-.5-1.5-.5-1.5-1.5-.5-1.5-.5-6.5 2-6.5 2-5.5-1-5.5-1-7-1.5-7-1.5-5.5-3.5-5.5-3.5 4.5-2.5 4.5-2.5 5-4 5-4 5.5-3 5.5-3 7.5 1.5 7.5 1.5 5 4 5 4 4.5 4.5 4.5 4.5 6.5 5.5 6.5 5.5 1.5 1 1.5 1 .5.5.5.5 1 .5 1 .5 1.5.5 1.5.5.5.5.5.5 1 .5 1 .5 1.5 1.5 1.5 1.5 1 1 1 1 .5-.5.5-.5h.5.5l.5-.5.5-.5-.5-1-.5-1-9.5-6.5-9.5-6.5-5-4-5-4-4.5-4-4.5-4-5-4-5-4-6.5-2.5-6.5-2.5-7 2-7 2-6.5 2.5-6.5 2.5-5 3.5-5 3.5 1 5 1 5 5.5 3.5 5.5 3.5 6 2 6 2 6 .5 6 .5 6.5-2.5 6.5-2.5 4 5 4 5 4.5 4.5 4.5 4.5 3.5 5 3.5 5 3.5 5.5 3.5 5.5 2 1 2 1-.5-1-.5-1-.5-.5-.5-.5-.5-.5-.5-.5h.5.5l.5.5.5.5.5.5.5.5h1 1l.5 1 .5 1h1 1l-.5 1-.5 1 1 1 1 1h1 1" style="fill:#5d564a;stroke:#5d564a" />
        <path d="m111 325v1h1.5 1.5v-1.5-1.5l.5-1 .5-1v-1.5-1.5l-.5-1.5-.5-1.5v-1-1-1.5-1.5-2-2-1-1-1.5-1.5l-.5-1.5-.5-1.5v-1-1-1-1-1.5-1.5h-.5-.5v2.5 2.5 2.5 2.5 3 3l.5 1 .5 1v1 1 1 1 1 1 1.5 1.5 1 1 1 1 1 1l-1 .5-1 .5" style="fill:#7e7569;stroke:#7e7569" />
        <path d="m111 324v1l1-.5 1-.5v-1-1-1-1-1-1-1.5-1.5-1-1-1-1-1-1l-.5-1-.5-1v2 2 2.5 2.5 2 2l-.5 1.5-.5 1.5v.5.5" style="fill:#958f84;stroke:#958f84" />
        <path d="m115 324h2v-.5-.5l-.5-1-.5-1v-2-2-2.5-2.5-2-2l-.5-2-.5-2v-2-2-2.5-2.5l-.5-2-.5-2v-.5-.5l-.5.5-.5.5v1.5 1.5 1 1 1 1l.5 1.5.5 1.5v1.5 1.5 1 1 2 2 1.5 1.5 1 1l.5 1.5.5 1.5v1.5 1.5l-.5 1-.5 1 .5.5.5.5" style="fill:#76352c;stroke:#76352c" />
        <path d="m118 324h2l.5-2 .5-2v-2-2-1.5-1.5-.5-.5-2.5-2.5l-.5-.5-.5-.5v-1-1-1-1-1.5-1.5-2-2l.5-1.5.5-1.5.5-2 .5-2-.5-1.5-.5-1.5-.5.5-.5.5-.5 1-.5 1v1 1l-.5.5-.5.5v1 1 1.5 1.5 2 2 1 1 1.5 1.5 2 2 1 1 1 1l.5.5.5.5v1.5 1.5 1 1l-.5.5-.5.5v2 2" style="fill:#9d2a03;stroke:#9d2a03" />
        <path d="m117 323v1h.5.5v-2-2l.5-.5.5-.5v-1-1-1.5-1.5l-.5-.5-.5-.5v-1-1-1-1-2-2-1.5-1.5-1-1-2-2-1.5-1.5-1-1l.5-.5.5-.5v-1-1l.5-1 .5-1 .5-.5.5-.5.5 1.5.5 1.5 1-.5 1-.5 1-1.5 1-1.5v-1.5-1.5h-1-1l.5-1.5.5-1.5v-1-1l.5-1 .5-1-1 1-1 1-1 1.5-1 1.5-2 .5-2 .5-1.5 1.5-1.5 1.5v1.5 1.5l.5 2 .5 2-1 .5-1 .5.5 2 .5 2v2.5 2.5 2 2l.5 2 .5 2v2 2 2.5 2.5 2 2l.5 1 .5 1" style="fill:#791e05;stroke:#791e05" />
        <path d="m102 322l2 1 .5-1 .5-1h-1-1l-.5-1-.5-1h-1-1l-.5-.5-.5-.5-.5-.5-.5-.5h-.5-.5l.5.5.5.5.5.5.5.5.5 1 .5 1 1 .5 1 .5" style="fill:#7e7569;stroke:#7e7569" />
        <path d="m109 322l2 1v-.5-.5-1.5-1.5-2.5-2.5-2-2-1.5-1.5-.5-.5-1.5-1.5-1.5-1.5-1-1-1.5-1.5-1.5-1.5l-1-1-1-1v2.5 2.5 2.5 2.5l.5 1.5.5 1.5v2.5 2.5 2 2 2.5 2.5l-.5 1.5-.5 1.5-1 .5-1 .5 1 .5 1 .5" style="fill:#bcb8ac;stroke:#bcb8ac" />
        <path d="m111 322v1l.5-1.5.5-1.5v-2-2-2.5-2.5-2-2h-.5-.5v1.5 1.5 2 2 2.5 2.5 1.5 1.5" style="fill:#b7b18d;stroke:#b7b18d" />
        <path d="m140 321v1h.5.5v-3-3l.5-1 .5-1v-1-1-1.5-1.5-1.5-1.5l-.5 1-.5 1-.5 2-.5 2v2 2 2.5 2.5" style="fill:#9a3628;stroke:#9a3628" />
        <path d="m106 320l1 1v-.5-.5l-1-1.5-1-1.5-1.5-1-1.5-1-1.5-.5-1.5-.5-1.5-1.5-1.5-1.5.5 1 .5 1 1 1.5 1 1.5 1.5.5 1.5.5 1 1 1 1 1 .5 1 .5" style="fill:#bcb8ac;stroke:#bcb8ac" />
        <path d="m107 320v1l1-.5 1-.5.5-1.5.5-1.5v-2.5-2.5-2-2-2.5-2.5l-.5-1.5-.5-1.5v-2.5-2.5-2.5-2.5l-.5-.5-.5-.5-2.5-.5-2.5-.5-1-1-1-1-1.5-1-1.5-1-1.5-.5-1.5-.5-.5-1.5-.5-1.5-6.5-5.5-6.5-5.5-4.5-4.5-4.5-4.5-5-4-5-4-7.5-1.5-7.5-1.5-5.5 3-5.5 3-5 4-5 4-4.5 2.5-4.5 2.5 5.5 3.5 5.5 3.5 7 1.5 7 1.5 5.5 1 5.5 1 6.5-2 6.5-2 1.5-1 1.5-1 .5-1.5.5-1.5 1-1 1-1 2-.5 2-.5 1.5.5 1.5.5v2.5 2.5l-1 1-1 1-2 .5-2 .5-1 2-1 2 5 5.5 5 5.5 3.5 5 3.5 5 4 4.5 4 4.5 1.5 1.5 1.5 1.5 1.5.5 1.5.5 1.5 1 1.5 1 1 1.5 1 1.5" style="fill:#ddd9cc;stroke:#ddd9cc" />
        <path d="m121 312v1l.5-1 .5-1v-2-2-1.5-1.5-1-1-2-2-1.5-1.5l-.5-1.5-.5-1.5-.5 1.5-.5 1.5v2 2 1.5 1.5 1 1 1 1l.5.5.5.5v2.5 2.5" style="fill:#c63501;stroke:#c63501" />
        <path d="m111 306v1h.5.5v-3-3-2.5-2.5-2.5-2.5l-.5.5-.5.5v1.5 1.5 1.5 1.5 1 1 1.5 1.5 1.5 1.5" style="fill:#958f84;stroke:#958f84" />
        <path d="m148 291h2v-2-2l-1-1.5-1-1.5v2 2 1.5 1.5" style="fill:#b7b18d;stroke:#b7b18d" />
        <path d="m114 290v1l1-.5 1-.5-.5-2-.5-2v-1.5-1.5l-1-.5-1-.5-.5.5-.5.5v1 1l.5 1.5.5 1.5.5 1 .5 1" style="fill:#3c1e13;stroke:#3c1e13" />
        <path d="m108 289l1 1-1.5-1.5-1.5-1.5-1-.5-1-.5-.5-.5-.5-.5-1.5-.5-1.5-.5-1-.5-1-.5-.5-.5-.5-.5-1.5-1-1.5-1 .5 1.5.5 1.5 1.5.5 1.5.5 1.5 1 1.5 1 1 1 1 1 2.5.5 2.5.5" style="fill:#bcb8ac;stroke:#bcb8ac" />
        <path d="m136 284v1l.5-1.5.5-1.5v-1.5-1.5-1-1-2-2l.5-1.5.5-1.5-.5-.5-.5-.5-.5 1.5-.5 1.5v1 1 2.5 2.5 2.5 2.5" style="fill:#9a3628;stroke:#9a3628" />
        <path d="m124 281h2l.5-1.5.5-1.5.5-.5.5-.5 1-1 1-1 .5-1 .5-1v-1-1l1-1 1-1v-1.5-1.5-1-1l.5-1.5.5-1.5.5-2 .5-2 .5-1 .5-1 .5-1.5.5-1.5 1-1 1-1 .5-2 .5-2 1.5-1.5 1.5-1.5.5-1 .5-1v-1-1h1 1v-1-1l.5-1.5.5-1.5-.5-1-.5-1 1-1 1-1 1-1.5 1-1.5.5-1.5.5-1.5 1-1.5 1-1.5.5-1.5.5-1.5 1-2 1-2-.5-1-.5-1-.5 1-.5 1-1 1-1 1-.5.5-.5.5v1.5 1.5l-1 1-1 1-.5.5-.5.5-.5 1-.5 1-.5 1-.5 1-.5 1-.5 1-.5 1-.5 1-.5 1-.5 1-.5 1-.5 1-.5 1-.5 1-.5 1-.5 1-.5.5-.5.5-.5 1-.5 1v1 1l-.5.5-.5.5-.5.5-.5.5-.5 1-.5 1v1 1l-.5.5-.5.5-.5.5-.5.5v1.5 1.5l-.5.5-.5.5v1 1 1 1l-.5.5-.5.5v1.5 1.5l-.5.5-.5.5v1 1l-.5.5-.5.5-.5 1-.5 1-.5 1-.5 1-.5 1-.5 1-.5 1-.5 1v1 1l-.5 1.5-.5 1.5" style="fill:#76352c;stroke:#76352c" />
        <path d="m70 280l1 1 1-2 1-2 2-.5 2-.5 1-1 1-1v-2.5-2.5l-1.5-.5-1.5-.5-2 .5-2 .5-1 1-1 1-.5 1.5-.5 1.5-1.5 1-1.5 1 1.5.5 1.5.5.5 1.5.5 1.5" style="fill:#bcb8ac;stroke:#bcb8ac" />
        <path d="m143 280l1 1v-1.5-1.5l-.5-1-.5-1v-1-1l-.5-1.5-.5-1.5v-1.5-1.5-1-1-2-2l-.5-1.5-.5-1.5-1 1.5-1 1.5-.5 1.5-.5 1.5-.5 2-.5 2 .5.5.5.5 1.5 1 1.5 1 .5 2 .5 2 .5 2 .5 2" style="fill:#c63b28;stroke:#c63b28" />
        <path d="m116 279l2 1 2-.5 2-.5 1-1.5 1-1.5 1-1 1-1 .5-1 .5-1 .5-1 .5-1-2 1-2 1-1.5 1-1.5 1-1 1-1 1-1.5 1.5-1.5 1.5" style="fill:#3c1e13;stroke:#3c1e13" />
        <path d="m159 275l1 1v-3-3-2.5-2.5-1-1l-1 2.5-1 2.5v1 1l.5 2.5.5 2.5" style="fill:#7e7569;stroke:#7e7569" />
        <path d="m139 257h2l.5-1.5.5-1.5.5-1 .5-1v-1-1-2-2-1.5-1.5l-1.5 1.5-1.5 1.5-.5 2-.5 2-1 1-1 1-.5 1.5-.5 1.5-.5 1-.5 1h2 2" style="fill:#9a3628;stroke:#9a3628" />
        <path d="m148 242v1l1-.5 1-.5.5-1.5.5-1.5.5-2 .5-2v-2-2l.5-2 .5-2 .5-1.5.5-1.5.5-2 .5-2 .5-1.5.5-1.5 1-1 1-1 1-.5 1-.5v-1.5-1.5l-1 .5-1 .5-1 1-1 1-1 2-1 2-.5 1.5-.5 1.5-1 1.5-1 1.5-.5 1.5-.5 1.5-1 1.5-1 1.5-1 1-1 1 .5 1 .5 1 .5 2 .5 2v2 2" style="fill:#7e7569;stroke:#7e7569" />
        <g style="fill:#3c1e13;stroke:#3c1e13">
            <path d="m140 236l1 1 .5-1 .5-1 .5-1 .5-1-1-1-1-1-.5 1-.5 1-.5.5-.5.5.5 1 .5 1" />
            <path d="m143 227h3l.5-1 .5-1 .5-1 .5-1 .5-.5.5-.5 1-1 1-1v-1.5-1.5l.5-.5.5-.5 1-1 1-1 .5-1 .5-1 .5 1 .5 1 1-1 1-1 1-.5 1-.5v-2.5-2.5l-.5-.5-.5-.5-1-.5-1-.5-1-1.5-1-1.5-1 2.5-1 2.5-3.5 4.5-3.5 4.5-1.5 6-1.5 6" />
        </g>
        <path d="m159 205l1 1v-2.5-2.5l-.5-.5-.5-.5-1-1-1-1-.5-1.5-.5-1.5-2.5-1-2.5-1h-2-2-1.5-1.5-2-2-1-1-1-1-1-1-1.5-1.5-2.5-2.5l.5.5.5.5h1.5 1.5 1.5 1.5 1.5 1.5 2 2 1 1 1.5 1.5l1.5.5 1.5.5 1.5.5 1.5.5 1.5 1 1.5 1 .5 1.5.5 1.5 1 1.5 1 1.5 1 .5 1 .5" style="fill:#b7b18d;stroke:#b7b18d" />
        <path d="m159 200l1 1v-3-3-2.5-2.5-2-2-1-1l-1 .5-1 .5-1.5.5-1.5.5-2 .5-2 .5h-2-2l-1.5.5-1.5.5-2-.5-2-.5-6.5-2.5-6.5-2.5 1.5-5 1.5-5 6-8.5 6-8.5v-3-3l-2.5-7-2.5-7-3-5.5-3-5.5-3-5-3-5-4.5-3.5-4.5-3.5-1.5 7-1.5 7 1 7 1 7-3 6-3 6 1 6 1 6 2 5.5 2 5.5 1.5 5.5 1.5 5.5 4 6 4 6h2.5 2.5v-.5-.5h1.5 1.5 1 1 1 1 1.5 1.5 2 2 1 1 1 1l1 .5 1 .5 2.5 1 2.5 1 .5 1.5.5 1.5 1 1 1 1" style="fill:#ddd9cc;stroke:#ddd9cc" />
        <path d="m124 195l3 1h2 2 2.5 2.5 2 2 2 2l1-.5 1-.5h-2-2-1.5-1.5-1-1-1-1-1-1l-1.5-.5-1.5-.5h-1.5-1.5l-.5-.5-.5-.5-4-6-4-6-1.5-5.5-1.5-5.5-2-5.5-2-5.5-1-6-1-6 3-6 3-6-1-7-1-7 1.5-7 1.5-7 4.5 3.5 4.5 3.5 3 5 3 5 3 5.5 3 5.5 2.5 7 2.5 7v-1.5-1.5l.5.5.5.5.5 1.5.5 1.5 2-2 2-2v8 8l4-3.5 4-3.5-1.5-6.5-1.5-6.5-3-6-3-6-5.5-1.5-5.5-1.5-3-5.5-3-5.5-3.5-5.5-3.5-5.5-5.5 2.5-5.5 2.5-1.5 7.5-1.5 7.5 1 6.5 1 6.5-3 6-3 6 2 6 2 6 1.5 5.5 1.5 5.5 2 5.5 2 5.5 4 5.5 4 5.5" style="fill:#5d564a;stroke:#5d564a" />
        <path d="m130 194l3 1h1 1 1 1 1 1 1.5 1.5 2 2 1 1l-1.5-.5-1.5-.5h-1.5-1.5-1-1-2-2-1.5-1.5-1.5-1.5" style="fill:#7e7569;stroke:#7e7569" />
        <path d="m131 192v1h1.5 1.5 1 1 1 1 1 1 2 2 1.5 1.5 2 2l-1-.5-1-.5h-1-1-1-1-2-2-1.5-1.5-1-1-1-1-1.5-1.5" style="fill:#bcb8ac;stroke:#bcb8ac" />
        <path d="m140 187l4 1 1.5-.5 1.5-.5h2 2l2-.5 2-.5 1.5-.5 1.5-.5 1-.5 1-.5v-1-1h-1-1-1-1l-1 .5-1 .5-1 .5-1 .5h-1-1l-1 .5-1 .5h-1-1-1-1-1-1l-1.5-.5-1.5-.5-1-.5-1-.5h-1.5-1.5l-.5-1-.5-1 5-7 5-7 .5-8.5.5-8.5-.5-1.5-.5-1.5v2.5 2.5 1 1 1.5 1.5 2 2l-.5.5-.5.5v-1.5-1.5-2-2l-6 8.5-6 8.5-1.5 5-1.5 5 6.5 2.5 6.5 2.5" style="fill:#7e7569;stroke:#7e7569" />
        <g style="fill:#5d564a;stroke:#5d564a">
            <path d="m139 184l3 1h1 1 1 1 1 1l1-.5 1-.5h1 1l1-.5 1-.5h-2-2-1-1-1-1-1.5-1.5-1-1l-.5-.5-.5-.5h-1-1-1-1l-1.5-.5-1.5-.5.5 1 .5 1h1.5 1.5l1 .5 1 .5" />
            <path d="m144 178l3 1h1 1l.5-.5.5-.5h1 1 1.5 1.5 1 1 1.5 1.5v-2-2l-2-.5-2-.5h-1.5-1.5l-1.5-.5-1.5-.5h-1.5-1.5-1-1l-.5 1.5-.5 1.5v1.5 1.5" />
        </g>
        <path d="m142 162l1-1v-2-2-1.5-1.5-1-1-2.5-2.5l-.5-.5-.5-.5v1.5 1.5 3 3 2 2 1.5 1.5" style="fill:#958f84;stroke:#958f84" />
        <path d="m134 120l8-3 3.5-2.5 3.5-2.5 5.5.5 5.5.5v-3-3-2.5-2.5-.5-.5h-1.5-1.5l-1.5-.5-1.5-.5h-1-1l-1.5 1-1.5 1-1.5.5-1.5.5h-2.5-2.5l-.5 1.5-.5 1.5-1.5-.5-1.5-.5-6.5-3-6.5-3-4.5 1.5-4.5 1.5-3-3.5-3-3.5 3.5-4.5 3.5-4.5 5-3 5-3 6-2.5 6-2.5 11-3 11-3v-9.5-9.5-9-9-9-9-7-7h-1-1l-.5 7-.5 7 1 7 1 7v7 7l-1 5.5-1 5.5-1.5 7.5-1.5 7.5-6.5 2.5-6.5 2.5-7 2-7 2-5.5 3-5.5 3-4.5 4.5-4.5 4.5 1 6 1 6 7-2 7-2 5.5 3 5.5 3v7 7" style="fill:#3c1e13;stroke:#3c1e13" />
        <path d="m137 105l3 1 .5-1.5.5-1.5h2.5 2.5l1.5-.5 1.5-.5 1.5-1 1.5-1h1 1l1.5.5 1.5.5h1.5 1.5v-3-3-2.5-2.5-2-2-2.5-2.5-2-2-2.5-2.5-1.5-1.5l-11 3-11 3-6 2.5-6 2.5-5 3-5 3-3.5 4.5-3.5 4.5 3 3.5 3 3.5 4.5-1.5 4.5-1.5 6.5 3 6.5 3" style="fill:#1c1408;stroke:#1c1408" />
    </g>
</svg>
