<svg xmlns="http://www.w3.org/2000/svg" viewBox="0 0 368 960">
    <path d="m0 0h368v960h-368z" style="fill:#3f372b" />
    <g style="stroke-linejoin:round;stroke-width:.7">
        <path d="m0 959v1h1.5 1.5 2 2 2.5 2.5 2 2 2 2v-.5-.5l.5-14 .5-14 4.5 11 4.5 11 4.5 3.5 4.5 3.5h3 3 1 1v-.5-.5-.5-.5l9-4 9-4 1-8.5 1-8.5 9.5 13.5 9.5 13.5h1.5 1.5v-.5-.5l14.5-4 14.5-4 26-5 26-5h16 16l.5 4.5.5 4.5-15 .5-15 .5-18.5 4.5-18.5 4.5h18.5 18.5 17.5 17.5 18 18 17.5 17.5 2.5 2.5v-.5-.5h1.5 1.5 1.5 1.5 1 1l1-.5 1-.5-1.5-.5-1.5-.5-.5-.5-.5-.5-.5-1-.5-1-1-1-1-1-.5-.5-.5-.5 6-.5 6-.5 1 .5 1 .5 1 .5 1 .5h1 1l.5 1 .5 1 1 1 1 1 1 2 1 2h1.5 1.5 2 2 .5.5v-.5-.5l-8.5-7.5-8.5-7.5 11.5 8 11.5 8h.5.5v-.5-.5l-.5-1.5-.5-1.5-1.5-.5-1.5-.5-1.5-.5-1.5-.5-1.5-1-1.5-1-1-1-1-1-.5-2-.5-2-.5-1.5-.5-1.5-.5-1-.5-1 8.5-2 8.5-2h15 15l-5 5.5-5 5.5-1 .5-1 .5-1.5.5-1.5.5.5 1.5.5 1.5v1.5 1.5l-1 1-1 1-2 1-2 1h1.5 1.5 2.5 2.5 2 2 2.5 2.5 2 2 2 2 2.5 2.5 1 1v-1-1l-1.5.5-1.5.5h-2-2l-1.5-.5-1.5-.5v-.5-.5-1.5-1.5l1-1 1-1h1 1 1.5 1.5 1.5 1.5v-2-2-2-2-2.5-2.5-2-2-2.5-2.5-2-2-2-2-.5-.5l-.5-.5-.5-.5-.5-1-.5-1-1-.5-1-.5-1.5-1-1.5-1-1.5-.5-1.5-.5.5-1 .5-1 1.5-.5 1.5-.5 1.5 1 1.5 1 1.5 1 1.5 1v-1.5-1.5-2.5-2.5-2-2-2.5-2.5-2-2-2.5-2.5-2-2-1-1h-1.5-1.5-2-2-2-2l-2 1-2 1-.5 1-.5 1 .5 1 .5 1v1 1 1.5 1.5l-.5 1.5-.5 1.5-1.5-.5-1.5-.5-1-.5-1-.5-1-.5-1-.5-1.5-1-1.5-1-.5-1.5-.5-1.5-.5-1-.5-1-1-.5-1-.5-1.5.5-1.5.5h-1-1-1.5-1.5l-.5-1.5-.5-1.5-.5-.5-.5-.5-.5-.5-.5-.5-.5-.5-.5-.5-1.5-1-1.5-1 .5 1 .5 1 1 1 1 1 1 1.5 1 1.5-1.5.5-1.5.5-2 .5-2 .5-1.5.5-1.5.5-2 .5-2 .5-1 1-1 1-1.5-.5-1.5-.5 4-8 4-8-.5-1-.5-1-1-.5-1-.5-1.5-.5-1.5-.5-18.5 4-18.5 4h-1.5-1.5-2.5-2.5l-1.5 1-1.5 1h-2-2l-1 .5-1 .5-1.5.5-1.5.5-1.5.5-1.5.5h-2-2-2.5-2.5l-1.5.5-1.5.5-.5 2-.5 2-1 1-1 1-2-.5-2-.5-1.5-.5-1.5-.5h-1-1l-1-.5-1-.5h-1-1l-.5-.5-.5-.5-.5-.5-.5-.5v-1-1l.5-1 .5-1h1 1 1 1v-2-2l-1-.5-1-.5-.5-1-.5-1-1-.5-1-.5-1 .5-1 .5v2 2l-.5.5-.5.5-.5.5-.5.5h-1-1l-1 .5-1 .5h-1-1l-.5.5-.5.5h-1-1-1-1-1.5-1.5l-2-.5-2-.5-1.5-.5-1.5-.5-2-1-2-1h-1.5-1.5-1-1l-.5-.5-.5-.5h-1-1l-1-.5-1-.5-.5-.5-.5-.5h-1-1l-.5-.5-.5-.5-1-.5-1-.5-1.5-.5-1.5-.5-.5-8.5-.5-8.5 13-3.5 13-3.5 15-2 15-2 18-3.5 18-3.5-2-.5-2-.5-1.5-.5-1.5-.5-2.5-1-2.5-1h-1.5-1.5-1-1-1-1-1-1l-1.5-.5-1.5-.5-12-4.5-12-4.5-14 1-14 1-20.5-1.5-20.5-1.5-2 1-2 1-1.5.5-1.5.5-1.5 1-1.5 1-1.5.5-1.5.5-1.5 1-1.5 1-1 1-1 1-1.5 1-1.5 1-.5 1-.5 1 3 5.5 3 5.5 6.5 17 6.5 17 .5 1.5.5 1.5-.5 2-.5 2 7.5 5 7.5 5 7.5-9.5 7.5-9.5 9.5 8 9.5 8-20 8.5-20 8.5-1-.5-1-.5-.5-1-.5-1-2-1-2-1-.5 1.5-.5 1.5-.5 1.5-.5 1.5-.5 2-.5 2-.5 1.5-.5 1.5h-1-1l-1-1.5-1-1.5v-1-1-1.5-1.5l-.5-1.5-.5-1.5-1-1.5-1-1.5-.5-1.5-.5-1.5-.5-2-.5-2v-3-3l-.5-.5-.5-.5v-2.5-2.5-2-2l.5-2 .5-2 .5-1.5.5-1.5-1-.5-1-.5-1.5.5-1.5.5-1.5-.5-1.5-.5-.5-1.5-.5-1.5-4-4.5-4-4.5-16-3.5-16-3.5-3.5 6-3.5 6-18 7.5-18 7.5 7.5-9.5 7.5-9.5-28.5 8-28.5 8v18 18 18 18 3 3" style="fill:#dad6c9;stroke:#dad6c9" />
        <path d="m20 959v1h1.5 1.5 2 2 1.5 1.5v-.5-.5l.5-2 .5-2 1-1 1-1 1-1.5 1-1.5 1-1 1-1 .5 2 .5 2v2 2 2 2h.5.5l-4.5-3.5-4.5-3.5-4.5-11-4.5-11-.5 14-.5 14" style="fill:#bcb8ac;stroke:#bcb8ac" />
        <path d="m30 959v1h1.5 1.5 2 2 .5.5v-2-2-2-2l-.5-2-.5-2-1 1-1 1-1 1.5-1 1.5-1 1-1 1-.5 2-.5 2" style="fill:#949082;stroke:#949082" />
        <path d="m47 959v1h1.5 1.5 2 2 2.5 2.5 2 2 2.5 2.5 2 2 2.5 2.5.5.5v-.5-.5l-1-.5-1-.5.5-1 .5-1-.5-.5-.5-.5-1-1.5-1-1.5-2 1.5-2 1.5-1.5.5-1.5.5-1.5-.5-1.5-.5-1-.5-1-.5-.5-.5-.5-.5h-1-1l-1-.5-1-.5-1.5.5-1.5.5h-1-1l-1.5.5-1.5.5v1.5 1.5l-.5.5-.5.5v-1-1-1.5-1.5l-.5 2.5-.5 2.5v.5.5" style="fill:#78352b;stroke:#78352b" />
        <path d="m78 959v1h1.5 1.5v-.5-.5l-16.5-3-16.5-3v1.5 1.5 1 1l.5-.5.5-.5v-1.5-1.5l.5-1 .5-1h1 1l1-.5 1-.5h2 2 1 1l1 .5 1 .5 1.5.5 1.5.5h1 1 1.5 1.5l1-1 1-1 1-1 1-1 .5-.5.5-.5 1 .5 1 .5-.5.5-.5.5-1 1-1 1 1 1.5 1 1.5.5.5.5.5-.5 1-.5 1 1 .5 1 .5" style="fill:#949082;stroke:#949082" />
        <g style="fill:#bcb8ac;stroke:#bcb8ac">
            <path d="m81 959v1h1.5 1.5 1 1l-9.5-13.5-9.5-13.5-1 8.5-1 8.5-9 4-9 4 .5-2.5.5-2.5 16.5 3 16.5 3" />
            <path d="m89 959v1h1.5 1.5 2 2 1.5 1.5v-.5-.5l7 .5 7 .5h3 3 2.5 2.5 2 2 2.5 2.5 1.5 1.5l18.5-4.5 18.5-4.5 15-.5 15-.5-.5-4.5-.5-4.5h-16-16l9.5 3 9.5 3-1.5.5-1.5.5h-2.5-2.5l-1.5.5-1.5.5-1.5-.5-1.5-.5-2-.5-2-.5-1.5-.5-1.5-.5-2-.5-2-.5h-2-2v-1.5-1.5h2 2l3-.5 3-.5-26 5-26 5-14.5 4-14.5 4" />
        </g>
        <g style="fill:#949082;stroke:#949082">
            <path d="m99 959v1h1.5 1.5 2 2 2.5 2.5 1 1l-7-.5-7-.5" />
            <path d="m284 959v1h1.5 1.5 2 2 2.5 2.5 2 2 2.5 2.5 2 2l-1-2-1-2-1-1-1-1-.5-1-.5-1h-1-1l-1-.5-1-.5-1-.5-1-.5-1-1-1-1-.5-.5-.5-.5v-1-1l-.5-.5-.5-.5-1-.5-1-.5-.5-.5-.5-.5-.5-.5-.5-.5h-1-1l-1 .5-1 .5-.5.5-.5.5-.5.5-.5.5v1 1l.5 1 .5 1 1 2 1 2 1 1 1 1 .5 1 .5 1 .5.5.5.5 1.5.5 1.5.5-1 .5-1 .5h-1-1-1.5-1.5-1.5-1.5" />
        </g>
        <path d="m317 959v1h1.5 1.5 1.5 1.5l-11.5-8-11.5-8 8.5 7.5 8.5 7.5" style="fill:#eeeade;stroke:#eeeade" />
        <path d="m324 959v1h1.5 1.5 2 2 1.5 1.5v-.5-.5l1.5-1 1.5-1 1.5-.5 1.5-.5v-1.5-1.5l-1-1-1-1v-1.5-1.5l1.5-.5 1.5-.5 2.5.5 2.5.5h1.5 1.5 2 2l3-.5 3-.5h-1.5-1.5-1.5-1.5l-1.5-.5-1.5-.5h-2-2-1-1-1-1-1-1-2-2l-1.5 1-1.5 1-.5.5-.5.5.5 1 .5 1 .5 1.5.5 1.5-.5.5-.5.5-.5 1-.5 1h-1.5-1.5-1-1l-.5-.5-.5-.5-1-1-1-1-1.5-.5-1.5-.5-1.5-1-1.5-1-1.5-.5-1.5-.5-1-1.5-1-1.5-.5-.5-.5-.5-.5-1.5-.5-1.5-.5-1-.5-1v-1-1-1.5-1.5l-.5 1-.5 1v1.5 1.5l.5 1 .5 1 .5 1.5.5 1.5.5 2 .5 2 1 1 1 1 1.5 1 1.5 1 1.5.5 1.5.5 1.5.5 1.5.5.5 1.5.5 1.5" style="fill:#9e98a3;stroke:#9e98a3" />
        <g style="fill:#bcb8ac;stroke:#bcb8ac">
            <path d="m334 959v1h1 1l2-1 2-1 1-1 1-1v-1.5-1.5l-.5-1.5-.5-1.5 1.5-.5 1.5-.5 1-.5 1-.5-2.5-.5-2.5-.5-1.5.5-1.5.5v1.5 1.5l1 1 1 1v1.5 1.5l-1.5.5-1.5.5-1.5 1-1.5 1" />
            <path d="m358 958l3 1h2 2l1.5-.5 1.5-.5v-2.5-2.5-.5-.5h-1.5-1.5-1.5-1.5-1-1l-1 1-1 1v1.5 1.5.5.5" />
        </g>
        <path d="m284 957l-12-13-7.5 2.5-7.5 2.5 13.5 4 13.5 4" style="fill:#eeeade;stroke:#eeeade" />
        <path d="m329 957h3l.5-1 .5-1 .5-.5.5-.5-.5-1.5-.5-1.5-.5-1-.5-1 .5-.5.5-.5 1.5-1 1.5-1 1-.5 1-.5 1.5-.5 1.5-.5h2 2 2 2l2.5-.5 2.5-.5-.5-.5-.5-.5h-3-3l-1.5-.5-1.5-.5h-2-2l-2 .5-2 .5h-2-2-2.5-2.5-2-2l-1.5-1-1.5-1-.5-1.5-.5-1.5h-2-2l-1 .5-1 .5.5 1.5.5 1.5v1.5 1.5l.5.5.5.5.5 1.5.5 1.5 1.5-1 1.5-1h1 1l.5.5.5.5h1 1l.5 1 .5 1 .5.5.5.5h1 1l.5.5.5.5 1 .5 1 .5v1 1 1 1l-1.5-.5-1.5-.5h-.5-.5v1 1h1 1" style="fill:#555043;stroke:#555043" />
        <path d="m326 956l1 1v-1-1l-.5-1.5-.5-1.5-2-.5-2-.5-1.5-.5-1.5-.5-1.5-1-1.5-1-.5-1.5-.5-1.5-.5-.5-.5-.5v-1.5-1.5l-.5-1.5-.5-1.5h-1-1l.5 2 .5 2 .5.5.5.5v2 2l1 1.5 1 1.5 1.5.5 1.5.5 1.5 1 1.5 1 1.5.5 1.5.5 1 1 1 1" style="fill:#5f5a65;stroke:#5f5a65" />
        <path d="m64 955l3 1 1.5-.5 1.5-.5 2-1.5 2-1.5 1-1 1-1 .5-.5.5-.5-1-.5-1-.5-.5.5-.5.5-1 1-1 1-1 1-1 1h-1.5-1.5-1-1l-1.5-.5-1.5-.5-1-.5-1-.5h-1-1-2-2l-1 .5-1 .5h-1-1l-.5 1-.5 1 1.5-.5 1.5-.5h1 1l1.5-.5 1.5-.5 1 .5 1 .5h1 1l.5.5.5.5 1 .5 1 .5" style="fill:#7c574d;stroke:#7c574d" />
        <path d="m298 955l1-1-1-1-1-1-1.5-1-1.5-1-.5-1.5-.5-1.5-1.5-1-1.5-1-1 1-1 1 1 1.5 1 1.5 1 1 1 1 1 1 1 1 2 .5 2 .5" style="fill:#555043;stroke:#555043" />
        <path d="m328 955l3 1v-1-1-1-1l-1-.5-1-.5-.5-.5-.5-.5h-1-1l-.5-.5-.5-.5-.5-1-.5-1h-1-1l-.5-.5-.5-.5h-1-1l-1.5 1-1.5 1 1.5 1 1.5 1 1.5.5 1.5.5 2 .5 2 .5.5 1.5.5 1.5h.5.5" style="fill:#3f372b;stroke:#3f372b" />
        <g style="fill:#bcb8ac;stroke:#bcb8ac">
            <path d="m286 951l1 1-1-2-1-2-.5-1-.5-1v-1-1l.5-.5.5-.5.5-.5.5-.5 1-.5 1-.5h1 1l.5.5.5.5.5.5.5.5 1 .5 1 .5.5.5.5.5v1 1l.5.5.5.5 1 1 1 1-6 .5-6 .5" />
            <path d="m230 950l3 1 1.5-.5 1.5-.5 1.5-1 1.5-1 1.5-.5 1.5-.5 2-.5 2-.5h2 2l2-.5 2-.5 1.5-.5 1.5-.5.5-.5.5-.5-3 .5-3 .5-1.5.5-1.5.5h-2.5-2.5l-1.5.5-1.5.5-1.5 1-1.5 1-1.5.5-1.5.5-1.5-.5-1.5-.5.5-1.5.5-1.5 1-1.5 1-1.5 1-1 1-1 1.5-1.5 1.5-1.5-1.5.5-1.5.5-1 1-1 1-1.5 1-1.5 1-.5 1.5-.5 1.5-.5 1.5-.5 1.5v1 1" />
        </g>
        <path d="m25 949h2v-2-2l-.5-2-.5-2-.5-1.5-.5-1.5-.5-2-.5-2-1.5.5-1.5.5-1 1.5-1 1.5v2 2l.5 1.5.5 1.5 1 1.5 1 1.5 1.5.5 1.5.5" style="fill:#949082;stroke:#949082" />
        <path d="m175 948l3 1 1.5-.5 1.5-.5h2.5 2.5l1.5-.5 1.5-.5.5-1.5.5-1.5-1.5.5-1.5.5-2 .5-2 .5h-2-2l-1.5-.5-1.5-.5-3-1-3-1-.5 1-.5 1 1 1 1 1 2 .5 2 .5" style="fill:#5f5a65;stroke:#5f5a65" />
        <path d="m232 948l3 1 1.5-.5 1.5-.5 1.5-1 1.5-1 1.5-.5 1.5-.5h2.5 2.5l1.5-.5 1.5-.5 3-.5 3-.5 1.5-.5 1.5-.5v-.5-.5l.5-1.5.5-1.5-.5-.5-.5-.5-.5-.5-.5-.5-.5-.5-.5-.5h-1.5-1.5-1-1-1-1-1-1l-1 .5-1 .5h-1-1-1-1l-.5.5-.5.5h-1.5-1.5l-1.5 1.5-1.5 1.5-1 1-1 1-1 1.5-1 1.5-.5 1.5-.5 1.5" style="fill:#949082;stroke:#949082" />
        <g style="fill:#bcb8ac;stroke:#bcb8ac">
            <path d="m346 948l10-11h-15-15l-8.5 2-8.5 2v-1.5-1.5l.5-1 .5-1 24.5 5.5 24.5 5.5-3 .5-3 .5h-2-2-1.5-1.5" />
            <path d="m103 947l3-20 5.5 3.5 5.5 3.5-2.5-12-2.5-12-6-11-6-11-6.5-.5-6.5-.5v3.5 3.5-2-2l.5-1 .5-1 .5-2 .5-2 6.5 6.5 6.5 6.5 5 17.5 5 17.5-1-1-1-1-.5-2-.5-2v-2-2l-1-1.5-1-1.5-1.5 1.5-1.5 1.5v2 2l-.5 1.5-.5 1.5-.5 1.5-.5 1.5-1 1.5-1 1.5h-1-1v-1.5-1.5-2-2l-.5-.5-.5-.5-1-.5-1-.5v-2-2l.5-1 .5-1 .5-1.5.5-1.5v-2-2l.5-2 .5-2-.5-1.5-.5-1.5-1-1-1-1-1.5-1-1.5-1h-.5-.5l1.5 14 1.5 14 4.5 8.5 4.5 8.5" />
        </g>
        <g style="fill:#949082;stroke:#949082">
            <path d="m168 946l3 1-1-1-1-1 .5-1 .5-1h1.5 1.5 2 2 2 2 2.5 2.5l2 .5 2 .5-.5 1.5-.5 1.5-9.5-3-9.5-3-3 .5-3 .5h-2-2v1.5 1.5h2 2l2 .5 2 .5" />
            <path d="m312 946l1 1v-2-2l-.5-.5-.5-.5-.5-2-.5-2 23 2.5 23 2.5-.5 2-.5 2h1.5 1.5l-24.5-5.5-24.5-5.5v1.5 1.5 1 1l.5 1 .5 1 .5 1.5.5 1.5" />
        </g>
        <path d="m350 946l3 1h1.5 1.5l.5-2 .5-2h-1.5-1.5l-2.5.5-2.5.5h-2-2-2-2l-1.5.5-1.5.5-1 .5-1 .5h2 2 1 1 1 1 1 1 2 2" style="fill:#5f5a65;stroke:#5f5a65" />
        <path d="m176 945l3 1h2 2l2-.5 2-.5 1.5-.5 1.5-.5-2-.5-2-.5h-2.5-2.5-2-2-2-2-1.5-1.5l3 1 3 1" style="fill:#7c574d;stroke:#7c574d" />
        <path d="m237 944l3 1 1.5-.5 1.5-.5 2-.5 2-.5h2 2l2-.5 2-.5 1.5-.5 1.5-.5 1-1.5 1-1.5-1-.5-1-.5v1.5 1.5l-2 .5-2 .5h-2-2l-2 .5-2 .5h-2-2l-1.5-.5-1.5-.5-1 1.5-1 1.5" style="fill:#5f5a65;stroke:#5f5a65" />
        <path d="m353 942l1 1h1.5 1.5l-23-2.5-23-2.5h1 1l1-.5 1-.5h2 2l.5 1.5.5 1.5 1.5 1 1.5 1h2 2 2.5 2.5 2 2l2-.5 2-.5h2 2l1.5.5 1.5.5h3 3" style="fill:#7c574d;stroke:#7c574d" />
        <path d="m63 941l3 1 1.5-.5 1.5-.5 1.5-1 1.5-1v-1-1l-1.5-1-1.5-1-1.5.5-1.5.5-1.5 1-1.5 1-.5 1.5-.5 1.5h.5.5" style="fill:#9e98a3;stroke:#9e98a3" />
        <path d="m239 941l3 1h2 2l2-.5 2-.5h2 2l2-.5 2-.5v-1.5-1.5h-2-2l-1.5.5-1.5.5h-2-2l-2 .5-2 .5-1.5.5-1.5.5-.5.5-.5.5" style="fill:#555043;stroke:#555043" />
        <g style="fill:#bcb8ac;stroke:#bcb8ac">
            <path d="m261 941v1l1-.5 1-.5 1-1 1-1h1.5 1.5l1.5-.5 1.5-.5 1.5-.5 1.5-.5h-2-2l-1.5-.5-1.5-.5-1.5-1.5-1.5-1.5-1-.5-1-.5 1.5 1.5 1.5 1.5-1 1-1 1-1-1.5-1-1.5-1.5-.5-1.5-.5-2 .5-2 .5h-2-2l-2 .5-2 .5h-2-2l-1 1-1 1h1.5 1.5l.5-.5.5-.5h1 1 1 1l1-.5 1-.5h1 1 1 1 1 1 1.5 1.5l.5.5.5.5.5.5.5.5.5.5.5.5-.5 1.5-.5 1.5" />
            <path d="m152 936l19-8-13-1-13-1 3.5 5 3.5 5" />
        </g>
        <path d="m267 936l3 1h2 2 2.5 2.5l1.5-.5 1.5-.5 1.5-1 1.5-1 1-1 1-1 1.5-1 1.5-1 1.5-.5 1.5-.5v-.5-.5l.5-1 .5-1 .5-.5.5-.5.5-1 .5-1-.5-.5-.5-.5-.5-.5-.5-.5h-1-1-1.5-1.5-1-1-1-1l-1-.5-1-.5h-2.5-2.5l1.5.5 1.5.5.5.5.5.5h1.5 1.5 2 2l2 .5 2 .5-2 .5-2 .5-1 1.5-1 1.5-1 1-1 1-1.5 1-1.5 1-1.5.5-1.5.5-1.5.5-1.5.5-2-.5-2-.5.5-.5.5-.5-1-.5-1-.5-1-1-1-1 .5-1 .5-1-1 .5-1 .5-1.5-.5-1.5-.5 1.5-1 1.5-1h-1.5-1.5l-1 1-1 1-1.5.5-1.5.5v1 1l1 1.5 1 1.5 1 .5 1 .5 1.5 1.5 1.5 1.5" style="fill:#949082;stroke:#949082" />
        <path d="m98 935h2l1-1.5 1-1.5.5-1.5.5-1.5.5-1.5.5-1.5v-2-2l-.5 1-.5 1v1 1 1 1l-1 .5-1 .5-.5.5-.5.5-.5-.5-.5-.5v-1-1l-.5-.5-.5-.5-1-.5-1-.5-.5-1.5-.5-1.5v2 2l1 .5 1 .5.5.5.5.5v2 2 1.5 1.5" style="fill:#9e98a3;stroke:#9e98a3" />
        <path d="m112 932l-10-35-6.5-6.5-6.5-6.5.5 1 .5 1 1.5-1.5 1.5-1.5h1 1l.5 1.5.5 1.5v1 1l.5 1 .5 1 .5 1.5.5 1.5.5 2 .5 2 1.5 1.5 1.5 1.5.5 1 .5 1v2 2l.5 1.5.5 1.5.5 2 .5 2 1.5.5 1.5.5-.5 2-.5 2-1.5.5-1.5.5-1 1.5-1 1.5-.5 1.5-.5 1.5h-1-1l-.5-1-.5-1v-1-1l.5-1 .5-1v-1-1-1-1-1-1-1.5-1.5-2-2l-.5-.5-.5-.5-1-1-1-1h-1-1l-.5-1-.5-1-.5.5-.5.5 1.5 1 1.5 1 1 1 1 1 .5 1.5.5 1.5-.5 2-.5 2v2 2l-.5 1.5-.5 1.5-.5 1-.5 1 .5 1.5.5 1.5 1 .5 1 .5.5.5.5.5v1 1l.5.5.5.5.5-.5.5-.5 1-.5 1-.5v-1-1-1-1l.5-1 .5-1 1.5-1.5 1.5-1.5 1 1.5 1 1.5v2 2l.5 2 .5 2 1 1 1 1" style="fill:#949082;stroke:#949082" />
        <path d="m272 932l4 1 1.5-.5 1.5-.5 1.5-.5 1.5-.5 1.5-1 1.5-1 1-1 1-1 1-1.5 1-1.5h-1.5-1.5-2-2l-.5 2.5-.5 2.5-1 1-1 1h-3-3l-.5.5-.5.5" style="fill:#78352b;stroke:#78352b" />
        <path d="m260 931l2 1-1-1.5-1-1.5v-1-1l1.5-.5 1.5-.5 1-1 1-1h1.5 1.5l1.5-1 1.5-1 1-1 1-1h2.5 2.5 2.5 2.5l-1.5-.5-1.5-.5-1.5-.5-1.5-.5h-2.5-2.5l-1 1-1 1-1.5 1-1.5 1-1.5.5-1.5.5h-2.5-2.5l-.5 1.5-.5 1.5.5 1.5.5 1.5.5 1 .5 1" style="fill:#bcb8ac;stroke:#bcb8ac" />
        <path d="m112 930h2l1-1 1-1v-2.5-2.5-2-2l-2-.5-2-.5-.5 1.5-.5 1.5-.5 2-.5 2 .5 1.5.5 1.5.5 1 .5 1" style="fill:#5f5a65;stroke:#5f5a65" />
        <path d="m196 930h2l1.5-.5 1.5-.5 1.5-1 1.5-1v-.5-.5l-1 .5-1 .5-1.5.5-1.5.5-1.5-.5-1.5-.5 8-2.5 8-2.5-2-9.5-2-9.5-4 7.5-4 7.5-2 6-2 6" style="fill:#bcb8ac;stroke:#bcb8ac" />
        <path d="m271 930l2 1h3 3l1-1 1-1-2.5-.5-2.5-.5v-.5-.5l.5-.5.5-.5.5-.5.5-.5v-1-1h-2.5-2.5l-1.5 1.5-1.5 1.5-.5 1-.5 1 1 1 1 1" style="fill:#791f07;stroke:#791f07" />
        <path d="m317 929v-11l-13 1-13 1h-4-4l1 .5 1 .5h1 1 1 1 1.5 1.5 1 1l.5.5.5.5.5.5.5.5-.5 1-.5 1-.5.5-.5.5-.5 1-.5 1 1-.5 1-.5 1-1.5 1-1.5 1.5-.5 1.5-.5 1.5 1 1.5 1 1.5.5 1.5.5 2 .5 2 .5 1.5.5 1.5.5 2 .5 2 .5" style="fill:#bcb8ac;stroke:#bcb8ac" />
        <path d="m276 928l5 1 .5-2.5.5-2.5-1.5-1-1.5-1-2-.5-2-.5-1 1-1 1h2.5 2.5v1 1l-.5.5-.5.5-.5.5-.5.5v.5.5" style="fill:#9b372a;stroke:#9b372a" />
        <path d="m196 927l3 1 1.5-.5 1.5-.5 1-.5 1-.5 2-1 2-1 2-.5 2-.5v-.5-.5l-8 2.5-8 2.5" style="fill:#949082;stroke:#949082" />
        <path d="m61 926l3 1h2 2l2-.5 2-.5 1-1 1-1v-1.5-1.5l-.5-1.5-.5-1.5-2 .5-2 .5-1.5.5-1.5.5-1.5.5-1.5.5-1.5 1-1.5 1 .5 1.5.5 1.5" style="fill:#bcb8ac;stroke:#bcb8ac" />
        <path d="m197 926h2l1.5-.5 1.5-.5 1.5-1 1.5-1 1.5-.5 1.5-.5 1.5-1 1.5-1 1-1 1-1 .5-2 .5-2v-2-2h-.5-.5v1.5 1.5 2 2l-1.5 1-1.5 1-1.5.5-1.5.5h-1-1l-.5-.5-.5-.5-1.5.5-1.5.5-1.5.5-1.5.5-1 1.5-1 1.5.5 1 .5 1" style="fill:#5f5a65;stroke:#5f5a65" />
        <path d="m265 926l3 1 1-.5 1-.5 1.5-1.5 1.5-1.5 1-1 1-1 2 .5 2 .5 1.5 1 1.5 1h2 2 1.5 1.5l2-.5 2-.5-2-.5-2-.5h-2-2-1.5-1.5l-.5-.5-.5-.5-1.5-.5-1.5-.5h-2.5-2.5l-1 1-1 1-1.5 1-1.5 1-1.5 1-1.5 1" style="fill:#7c574d;stroke:#7c574d" />
        <path d="m319 926h2 2 2l.5-1.5.5-1.5-1.5-.5-1.5-.5h-2.5-2.5l-1.5-.5-1.5-.5-1 1.5-1 1.5 1.5 1 1.5 1h1.5 1.5" style="fill:#5f5a65;stroke:#5f5a65" />
        <path d="m359 926l-15-12 2.5 5.5 2.5 5.5 5 .5 5 .5" style="fill:#bcb8ac;stroke:#bcb8ac" />
        <path d="m99 925h2l.5-1.5.5-1.5 1-1.5 1-1.5 1.5-.5 1.5-.5.5-2 .5-2-1.5-.5-1.5-.5-.5-2-.5-2-.5-1.5-.5-1.5v-2-2l-.5-1-.5-1v2 2 1 1 1 1l.5 1 .5 1v1 1 1 1 1 1h-1-1l-.5-1-.5-1v-2-2l-.5-2-.5-2v2 2 1.5 1.5 1 1 1 1 1 1l-.5 1-.5 1v1 1l.5 1 .5 1" style="fill:#5f5a65;stroke:#5f5a65" />
        <g style="fill:#949082;stroke:#949082">
            <path d="m314 925l2 1-1.5-1-1.5-1 1-1.5 1-1.5 1.5.5 1.5.5h2.5 2.5l1.5.5 1.5.5-.5 1.5-.5 1.5-10-5-10-5 4.5 4.5 4.5 4.5" />
            <path d="m140 921h2l.5-1.5.5-1.5.5-2 .5-2 .5-1.5.5-1.5.5-1.5.5-1.5v-1.5-1.5-1-1l-.5-.5-.5-.5-.5-1-.5-1-.5-.5-.5-.5v-1-1-1-1-1-1-1-1l.5-1 .5-1 .5-2 .5-2-.5-1.5-.5-1.5-1-1-1-1-.5-.5-.5-.5-.5-1-.5-1-.5-1.5-.5-1.5h-1-1l-.5 1-.5 1-.5 1.5-.5 1.5v1 1l-.5.5-.5.5v1 1l-.5 1-.5 1v1 1 1 1 2 2 3 3l.5 2 .5 2 .5 1.5.5 1.5 1 1.5 1 1.5.5 1.5.5 1.5v1.5 1.5 1 1l1 1.5 1 1.5" />
        </g>
        <path d="m205 920h2l1.5-.5 1.5-.5 1.5-1 1.5-1v-2-2-1.5-1.5l-2-1-2-1-1 1.5-1 1.5v2 2l-.5 1.5-.5 1.5-1 .5-1 .5.5.5.5.5" style="fill:#555043;stroke:#555043" />
        <path d="m234 920h2 1 1l3-.5 3-.5 1.5-.5 1.5-.5 1-1.5 1-1.5 1.5-.5 1.5-.5h2.5 2.5l1.5-.5 1.5-.5 1-.5 1-.5-1.5-.5-1.5-.5.5-1 .5-1-2-.5-2-.5h-2-2l-2-.5-2-.5h-2-2-2.5-2.5l-1.5.5-1.5.5 1.5-1 1.5-1h2 2 2.5 2.5l-1.5-1-1.5-1h-2-2l-2 .5-2 .5-1.5.5-1.5.5-1 1.5-1 1.5-1 1-1 1-.5 1.5-.5 1.5v2.5 2.5l1.5.5 1.5.5h1 1" style="fill:#7c574d;stroke:#7c574d" />
        <path d="m244 920l22-13-6.5-.5-6.5-.5 1.5.5 1.5.5h1 1l1 .5 1 .5 1.5.5 1.5.5.5.5.5.5-1 1-1 1-1 .5-1 .5-1.5.5-1.5.5h-2.5-2.5l-1.5.5-1.5.5-1 1.5-1 1.5-1.5.5-1.5.5-3 .5-3 .5h3 3" style="fill:#bcb8ac;stroke:#bcb8ac" />
        <path d="m367 920l1 1v-3-3l-1.5-1-1.5-1-1.5-1-1.5-1-1.5.5-1.5.5-.5 1-.5 1 1.5.5 1.5.5 1.5 1 1.5 1 1 .5 1 .5.5 1 .5 1" style="fill:#eeeade;stroke:#eeeade" />
        <path d="m101 916h2v-1-1-1-1-1-1l-.5-1-.5-1v-1-1-1-1-2-2l-1.5-1.5-1.5-1.5-.5-2-.5-2-.5-1.5-.5-1.5-.5-1-.5-1v-1-1l-.5-1.5-.5-1.5h-1-1l-1.5 1.5-1.5 1.5v2.5 2.5l.5 1.5.5 1.5v-1.5-1.5-2-2l1-1 1-1 1 1 1 1 .5 2 .5 2v2 2l1 1.5 1 1.5.5 1.5.5 1.5v.5.5l-1.5-.5-1.5-.5 1 1.5 1 1.5.5 1 .5 1 .5 2 .5 2v2 2l.5 1 .5 1" style="fill:#555043;stroke:#555043" />
        <path d="m234 916l3 1 1.5-.5 1.5-.5v-.5-.5-1.5-1.5l-1-1-1-1-2 1-2 1-.5 1.5-.5 1.5.5.5.5.5" style="fill:#3f372b;stroke:#3f372b" />
        <path d="m240 915v1l1-.5 1-.5 1.5-.5 1.5-.5 1-1.5 1-1.5-.5-.5-.5-.5 1-.5 1-.5h-2-2-1.5-1.5l-1.5.5-1.5.5 1 1 1 1v1.5 1.5" style="fill:#78352b;stroke:#78352b" />
        <path d="m77 913l3 1 1-1 1-1 1-1.5 1-1.5-.5-1.5-.5-1.5-1.5-1-1.5-1-1-1-1-1-2-.5-2-.5-.5 1.5-.5 1.5.5 1.5.5 1.5.5 2 .5 2 1 1 1 1" style="fill:#949082;stroke:#949082" />
        <path d="m153 913l40-17-9.5-8-9.5-8-7.5 9.5-7.5 9.5-7.5-5-7.5-5-.5 1-.5 1v1 1 1 1 1 1 1 1l.5.5.5.5.5 1 .5 1 .5.5.5.5v1 1 1.5 1.5l2 1 2 1 .5 1 .5 1 1 .5 1 .5" style="fill:#bcb8ac;stroke:#bcb8ac" />
        <path d="m78 911l3 1 .5-1.5.5-1.5-1.5-1-1.5-1-1-1-1-1-1 .5-1 .5.5 1.5.5 1.5 1 1 1 1" style="fill:#5f5a65;stroke:#5f5a65" />
        <path d="m259 911l3 1 1-1 1-1-.5-.5-.5-.5-1.5-.5-1.5-.5-1-.5-1-.5h-1-1l-1.5-.5-1.5-.5-1 .5-1 .5-1.5-.5-1.5-.5h-2.5-2.5-2-2l-1.5 1-1.5 1 1.5-.5 1.5-.5h2.5 2.5 2 2l2 .5 2 .5h2 2l2 .5 2 .5-.5 1-.5 1" style="fill:#949082;stroke:#949082" />
        <path d="m317 910l4-9-6-1.5-6-1.5.5 2.5.5 2.5-1.5.5-1.5.5-2-.5-2-.5-1.5-.5-1.5-.5-1-1-1-1-.5-1.5-.5-1.5.5 2 .5 2 1 1.5 1 1.5 1.5.5 1.5.5 2 .5 2 .5 1.5.5 1.5.5 1.5 1 1.5 1 1.5.5 1.5.5h.5.5" style="fill:#bcb8ac;stroke:#bcb8ac" />
        <path d="m276 908l-19-6h-4-4l13.5 3 13.5 3" style="fill:#eeeade;stroke:#eeeade" />
        <path d="m317 907l3 1h2 2 2.5 2.5l.5-1.5.5-1.5-1.5-1-1.5-1-1.5-.5-1.5-.5h-2.5-2.5l-1.5.5-1.5.5-1 1-1 1 1.5 1 1.5 1" style="fill:#949082;stroke:#949082" />
        <path d="m158 906l16-11 7.5 2.5 7.5 2.5h.5.5v-1.5-1.5l-.5-.5-.5-.5-.5-1.5-.5-1.5-1-.5-1-.5-2-.5-2-.5h-2-2l-.5-2-.5-2-1.5-.5-1.5-.5-1 .5-1 .5.5 1.5.5 1.5-.5 1.5-.5 1.5-1.5 1-1.5 1-1 1-1 1-1.5.5-1.5.5-1.5 1.5-1.5 1.5-.5 1.5-.5 1.5-1 1-1 1" style="fill:#555043;stroke:#555043" />
        <path d="m288 906l-15-14-10.5.5-10.5.5 13 5 13 5 5 1.5 5 1.5" style="fill:#bcb8ac;stroke:#bcb8ac" />
        <path d="m98 905l1 1-.5-1-.5-1-1-1.5-1-1.5-.5-1-.5-1-.5-1-.5-1-1.5-1.5-1.5-1.5-.5-1.5-.5-1.5v-2.5-2.5l-.5-1-.5-1-.5 2-.5 2-.5 1-.5 1v2 2l1 2.5 1 2.5.5 1.5.5 1.5h.5.5.5.5l.5-.5.5-.5.5 1 .5 1h1 1l1 1 1 1" style="fill:#5f5a65;stroke:#5f5a65" />
        <path d="m303 903l4 1 1.5-.5 1.5-.5-.5-2.5-.5-2.5-8.5-10.5-8.5-10.5 2.5 10 2.5 10 .5 1.5.5 1.5 1 1 1 1 1.5.5 1.5.5" style="fill:#949082;stroke:#949082" />
        <path d="m99 902v-1l-.5-1.5-.5-1.5-1-1.5-1-1.5v-2-2l-.5-2-.5-2-1-1-1-1-1 1-1 1v2 2 1.5 1.5l1.5 1.5 1.5 1.5.5 1 .5 1 .5 1 .5 1 1.5.5 1.5.5" style="fill:#3f372b;stroke:#3f372b" />
        <path d="m189 901l-13-18-8 8-8 8 .5 1 .5 1 1.5-1.5 1.5-1.5v-.5-.5l1-.5 1-.5 1.5-1 1.5-1 1-1 1-1-.5-2-.5-2 .5-1.5.5-1.5 1.5-.5 1.5-.5 1.5 1 1.5 1 1 1 1 1 2 .5 2 .5 1.5.5 1.5.5 1 1.5 1 1.5.5 1.5.5 1.5.5.5.5.5v1.5 1.5l-.5.5-.5.5" style="fill:#949082;stroke:#949082" />
        <path d="m146 897l3 1v-2-2-2.5-2.5l-.5-1.5-.5-1.5-.5-2-.5-2-.5 1.5-.5 1.5v2.5 2.5l-.5 1.5-.5 1.5v2 2h.5.5" style="fill:#eeeade;stroke:#eeeade" />
        <path d="m164 897v1l1.5-.5 1.5-.5 1-1 1-1 1.5-1 1.5-1 .5-1.5.5-1.5-.5-1.5-.5-1.5 1-.5 1-.5 1.5.5 1.5.5.5 2 .5 2h2 2l2 .5 2 .5 1 .5 1 .5-1-1.5-1-1.5-1.5-.5-1.5-.5-2-.5-2-.5-1-1-1-1-1.5-1-1.5-1-1.5.5-1.5.5-.5 1.5-.5 1.5.5 2 .5 2-1 1-1 1-1.5 1-1.5 1-1 .5-1 .5" style="fill:#7c574d;stroke:#7c574d" />
        <g style="fill:#bcb8ac;stroke:#bcb8ac">
            <path d="m349 896l3 1 .5-1.5.5-1.5v-1.5-1.5-1-1l-.5-1-.5-1 .5-1 .5-1-1 .5-1 .5-1 1-1 1v1 1l.5 1 .5 1-1 .5-1 .5-1-.5-1-.5-.5-.5-.5-.5.5-1 .5-1v-1-1l-.5-.5-.5-.5-1-.5-1-.5-2.5.5-2.5.5 1 .5 1 .5.5 1 .5 1 .5 1.5.5 1.5 1.5 1 1.5 1 1 .5 1 .5 1 .5 1 .5" />
            <path d="m132 893l1 1v-2-2-1-1-1-1l.5-1 .5-1v-1-1l.5-.5.5-.5v-1-1l.5-1.5.5-1.5.5-1 .5-1h1 1l.5 1.5.5 1.5.5 1 .5 1 .5.5.5.5 1 1 1 1-6.5-17-6.5-17-3-5.5-3-5.5-1 1.5-1 1.5-.5 2-.5 2 .5 1.5.5 1.5h-.5-.5l-1-1-1-1-1-1.5-1-1.5.5-1.5.5-1.5h-1-1l-.5 1-.5 1 .5 1.5.5 1.5.5.5.5.5.5 1 .5 1 1.5 1.5 1.5 1.5 1 .5 1 .5.5 1 .5 1 1 1 1 1 .5.5.5.5.5 1 .5 1 1 1 1 1h1 1l.5 1 .5 1v2 2 2 2l-.5.5-.5.5-.5 1-.5 1-1 1-1 1h-1-1l-1.5-1-1.5-1 .5 1.5.5 1.5 1.5.5 1.5.5 1.5-.5 1.5-.5 1 .5 1 .5-.5 1.5-.5 1.5-.5 2-.5 2v2 2 2.5 2.5" />
        </g>
        <path d="m348 893l2-1-.5-1-.5-1v-1-1l1-1 1-1 1-.5 1-.5 2-1 2-1h2 2 2 2 1.5 1.5v-2.5-2.5-2-2h-1-1v.5.5l-2 1-2 1h-2-2-2.5-2.5l-1 1-1 1h-2.5-2.5-2-2-1-1l-2.5-.5-2.5-.5-1.5-.5-1.5-.5-1.5-1-1.5-1 .5 1 .5 1h-1-1l-1-.5-1-.5-1-.5-1-.5-1.5-1-1.5-1-1-1-1-1-1.5-.5-1.5-.5-.5-.5-.5-.5-1-.5-1-.5-1.5-.5-1.5-.5h-.5-.5-2-2l-1.5 1.5-1.5 1.5-2 .5-2 .5h-2-2-2.5-2.5l-1.5.5-1.5.5-1 .5-1 .5h1.5 1.5 1.5 1.5l2-.5 2-.5h2 2 2.5 2.5l1-1 1-1 1.5-.5 1.5-.5 1.5 1 1.5 1 1.5.5 1.5.5 1 .5 1 .5.5 1 .5 1 .5 1 .5 1 2.5 1 2.5 1 1.5 1 1.5 1 .5.5.5.5.5.5.5.5.5.5.5.5.5 1.5.5 1.5h1.5 1.5 1 1l1.5-.5 1.5-.5 2.5-.5 2.5-.5 1 .5 1 .5.5.5.5.5v1 1l-.5 1-.5 1 .5.5.5.5 1 .5 1 .5" style="fill:#9e98a3;stroke:#9e98a3" />
        <path d="m309 891l3 1 1-1 1-1 2-.5 2-.5 1.5-.5 1.5-.5 2-.5 2-.5 1.5-.5 1.5-.5-1-1.5-1-1.5-1-1-1-1-.5-1-.5-1-2.5-1-2.5-1-.5-1-.5-1-4 8-4 8" style="fill:#eeeade;stroke:#eeeade" />
        <g style="fill:#bcb8ac;stroke:#bcb8ac">
            <path d="m232 890l4 1 1-1 1-1 .5-2 .5-2 1.5-.5 1.5-.5h2.5 2.5 2 2l1.5-.5 1.5-.5 1.5-.5 1.5-.5 1-.5 1-.5h-2.5-2.5l-2 .5-2 .5-1.5.5-1.5.5h-2.5-2.5l-1.5.5-1.5.5-1.5-.5-1.5-.5-2.5-.5-2.5-.5-1-1-1-1-1.5-1-1.5-1v2 2h-1-1-1-1l-.5 1-.5 1v1 1l.5.5.5.5.5.5.5.5h1 1l1 .5 1 .5h1 1l1.5.5 1.5.5" />
            <path d="m42 884l36-15 3.5-6 3.5-6h-1.5-1.5l-1.5.5-1.5.5-1.5 1-1.5 1-1.5.5-1.5.5-2 .5-2 .5-1.5.5-1.5.5h-2-2l-.5.5-.5.5-2 .5-2 .5-7.5 9.5-7.5 9.5" />
            <path d="m206 883h2 1 1l.5-.5.5-.5h1 1l1-.5 1-.5h1 1l.5-.5.5-.5.5-.5.5-.5v-2-2l1-.5 1-.5 1 .5 1 .5-.5-1-.5-1-1-.5-1-.5-.5-1.5-.5-1.5v-1-1l.5-1 .5-1 .5-1.5.5-1.5v-1-1l1-.5 1-.5 1.5-.5 1.5-.5h1 1l1-.5 1-.5h2 2l2-.5 2-.5 1-.5 1-.5v-.5-.5l1-.5 1-.5 1-1 1-1h1 1l.5-.5.5-.5h1 1l.5-1 .5-1 .5-.5.5-.5.5-.5.5-.5v-1-1l1-.5 1-.5.5-.5.5-.5h1 1 1 1 1.5 1.5l.5-.5.5-.5.5-.5.5-.5v-1-1l-18 3.5-18 3.5-15 2-15 2-13 3.5-13 3.5.5 8.5.5 8.5-1-.5-1-.5-1-1.5-1-1.5h9 9l9-1.5 9-1.5-2.5 7-2.5 7-2-.5-2-.5h-2-2l2 1 2 1 1.5.5 1.5.5 2 .5 2 .5h1.5 1.5" />
        </g>
        <path d="m236 883l3 1 1.5-.5 1.5-.5h2.5 2.5l1.5-.5 1.5-.5 2-.5 2-.5h2.5 2.5 2 2l1.5-1 1.5-1 1-.5 1-.5h2.5 2.5 2 2l1.5-1 1.5-1 .5-1.5.5-1.5h1.5 1.5l1-.5 1-.5 1.5-.5 1.5-.5h2.5 2.5 2 2l2-.5 2-.5h-1.5-1.5-2-2l-2-.5-2-.5-1.5.5-1.5.5h-2-2l-22.5 5.5-22.5 5.5 1-.5 1-.5h2 2l2-1.5 2-1.5v-.5-.5h-2.5-2.5l-.5-.5-.5-.5h-1.5-1.5l-1-1-1-1-2-.5-2-.5h-1.5-1.5l-.5 1-.5 1h-1-1l-1-.5-1-.5-.5-1-.5-1 .5-.5.5-.5-.5-.5-.5-.5v-1-1l-.5-1-.5-1v-1-1l.5-.5.5-.5.5-.5.5-.5h1 1 2 2l1-.5 1-.5 1.5-1 1.5-1v-.5-.5l1.5-1 1.5-1-1 .5-1 .5-2 .5-2 .5h-2-2l-1 .5-1 .5h-1-1l-1.5.5-1.5.5-1 .5-1 .5v1 1l-.5 1.5-.5 1.5-.5 1-.5 1v1 1l.5 1.5.5 1.5 1 .5 1 .5.5 1 .5 1 .5 1 .5 1 1 .5 1 .5 1.5 1 1.5 1 1 1 1 1 2.5.5 2.5.5" style="fill:#949082;stroke:#949082" />
        <path d="m239 881l45-11v-.5-.5h2.5 2.5l2-.5 2-.5h2 2l1.5-.5 1.5-.5h2.5 2.5 2 2 .5.5l-1.5-2-1.5-2-.5-.5-.5-.5h-3-3-1.5-1.5-2-2l-1.5.5-1.5.5-2 .5-2 .5-1.5.5-1.5.5-2 .5-2 .5-1 1-1 1-1.5 1-1.5 1-2 .5-2 .5-.5 1-.5 1-1.5.5-1.5.5-2 .5-2 .5-1.5.5-1.5.5-1.5-.5-1.5-.5h-.5-.5l-1.5 1-1.5 1h-1.5-1.5l-2 1.5-2 1.5h-2-2l-1 .5-1 .5" style="fill:#7c574d;stroke:#7c574d" />
        <path d="m0 880v1l28.5-8 28.5-8 2-.5 2-.5.5-.5.5-.5h2 2l1.5-.5 1.5-.5 2-.5 2-.5 1.5-.5 1.5-.5 1.5-1 1.5-1 1.5-.5 1.5-.5h1.5 1.5l16 3.5 16 3.5 4 4.5 4 4.5 1.5 1 1.5 1h1 1l1-1 1-1 .5-1 .5-1 .5-.5.5-.5v-2-2-2-2l-.5-1-.5-1h-1-1l-1-1-1-1-.5-1-.5-1-.5-.5-.5-.5-1-1-1-1-.5-1-.5-1-1-.5-1-.5-1-.5-1-.5-1.5-.5-1.5-.5v1 1 1.5 1.5l-.5 1-.5 1v-2-2-1.5-1.5l-1.5-.5-1.5-.5-.5-.5-.5-.5h1.5 1.5l.5-1.5.5-1.5-.5-.5-.5-.5v-1.5-1.5h1 1 1 1l-.5 1.5-.5 1.5 1 1.5 1 1.5 1 1 1 1h.5.5l-.5-1.5-.5-1.5.5-2 .5-2 1-1.5 1-1.5.5-1 .5-1 1.5-1 1.5-1 1-1 1-1 1.5-1 1.5-1 1.5-.5 1.5-.5 1.5-1 1.5-1 1.5-.5 1.5-.5 2-1 2-1 2-.5 2-.5 3-.5 3-.5 1.5-.5 1.5-.5 2-.5 2-.5 1-1 1-1 1-1.5 1-1.5 1-1.5 1-1.5-1 .5-1 .5-1.5 1-1.5 1-1 1-1 1-1 1.5-1 1.5h-1.5-1.5l-14 4.5-14 4.5-9 8.5-9 8.5-14 4-14 4-13.5 4-13.5 4-13.5 4-13.5 4-15 4-15 4v1.5 1.5" style="fill:#5f5a65;stroke:#5f5a65" />
        <path d="m196 879l4 1v-.5-.5-.5-.5h-1.5-1.5l-1-.5-1-.5h-2-2l-2-.5-2-.5-1.5-.5-1.5-.5-1.5-1-1.5-1-1.5-.5-1.5-.5-1.5-.5-1.5-.5h-1-1l-1.5-1-1.5-1h-.5-.5l1 1.5 1 1.5 1 .5 1 .5 1.5.5 1.5.5 1 .5 1 .5.5.5.5.5h1 1l.5.5.5.5 1 .5 1 .5h1 1l.5.5.5.5h1 1 1.5 1.5 2 2" style="fill:#9e98a3;stroke:#9e98a3" />
        <path d="m200 879v1l2.5-7 2.5-7-9 1.5-9 1.5h-9-9 .5.5v-1.5-1.5h2 2l1 .5 1 .5 2 .5 2 .5 1.5 1 1.5 1 1.5.5 1.5.5 2.5.5 2.5.5 1.5.5 1.5.5 1.5.5 1.5.5 2 .5 2 .5h2 2l1 1.5 1 1.5-1.5.5-1.5.5h-2-2" style="fill:#949082;stroke:#949082" />
        <path d="m274 879l37-8-1.5-1-1.5-1-1.5.5-1.5.5-1 1-1 1h-2.5-2.5-2-2l-2 .5-2 .5h-1.5-1.5-1.5-1.5-1.5-1.5l-.5 1.5-.5 1.5-1.5 1-1.5 1h-2-2-2.5-2.5l-1 .5-1 .5h2.5 2.5 1.5 1.5" style="fill:#bcb8ac;stroke:#bcb8ac" />
        <path d="m340 879h2 2 2 2.5 2.5l1-1 1-1h2.5 2.5 2 2l2-1 2-1h-1.5-1.5-2-2l-2-.5-2-.5-1 1-1 1-2 .5-2 .5-1.5-.5-1.5-.5-2 .5-2 .5h-2-2l-1.5-.5-1.5-.5-1.5-1-1.5-1-.5-.5-.5-.5-.5-.5-.5-.5-.5-.5-.5-.5-.5-1-.5-1-1.5-.5-1.5-.5-.5-.5-.5-.5-1-.5-1-.5v-2-2l.5-.5.5-.5.5-1 .5-1-1.5-1.5-1.5-1.5-1 .5-1 .5-1 1-1 1h-1.5-1.5l-1.5.5-1.5.5h-2-2l-.5 1-.5 1 .5.5.5.5 2-.5 2-.5h2 2 1 1l.5.5.5.5v1 1l.5.5.5.5 1 .5 1 .5v1 1h1 1l.5.5.5.5 1 .5 1 .5.5.5.5.5.5 1 .5 1 .5.5.5.5 1.5 1 1.5 1 1.5.5 1.5.5 2.5.5 2.5.5" style="fill:#9b2c00;stroke:#9b2c00" />
        <path d="m200 878v1h2 2l1.5-.5 1.5-.5-1-1.5-1-1.5h-2-2l-2-.5-2-.5-1.5-.5-1.5-.5-1.5-.5-1.5-.5 1 .5 1 .5.5 1 .5 1h-2-2l-1.5-.5-1.5-.5-2-.5-2-.5-1.5-.5-1.5-.5-2-.5-2-.5-1-1-1-1-.5-1-.5-1h1.5 1.5l-1-.5-1-.5h-2-2v1.5 1.5l1.5 1 1.5 1h1 1l1.5.5 1.5.5 1.5.5 1.5.5 1.5 1 1.5 1 1.5.5 1.5.5 2 .5 2 .5h2 2l1 .5 1 .5h1.5 1.5" style="fill:#5f5a65;stroke:#5f5a65" />
        <path d="m328 877h2l-.5-1-.5-1-.5-.5-.5-.5-1-.5-1-.5-2-.5-2-.5-1.5-1-1.5-1-1-1-1-1-2-.5-2-.5-1-1-1-1v-1.5-1.5l-2 .5-2 .5 1.5 2 1.5 2 1.5.5 1.5.5 1 .5 1 .5.5.5.5.5 1.5.5 1.5.5 1 1 1 1 1.5 1 1.5 1 1 .5 1 .5 1 .5 1 .5" style="fill:#78352b;stroke:#78352b" />
        <path d="m0 876v1l15-4 15-4 13.5-4 13.5-4 13.5-4 13.5-4 14-4 14-4 9-8.5 9-8.5 14-4.5 14-4.5v-.5-.5l1-.5 1-.5 1.5-1 1.5-1 .5-1.5.5-1.5 2-.5 2-.5 1-1 1-1 2-1 2-1 1-.5 1-.5 1-.5 1-.5 11.5-7 11.5-7 11-7 11-7 11.5-7.5 11.5-7.5v-1-1h-.5-.5l-12 7-12 7-10.5 7.5-10.5 7.5-15 8-15 8-9.5-8.5-9.5-8.5-14-2.5-14-2.5-9.5-8.5-9.5-8.5-11.5-6.5-11.5-6.5-13-4.5-13-4.5-9.5-8.5-9.5-8.5-18-10.5-18-10.5v19.5 19.5 17.5 17.5 18 18 17.5 17.5 12.5 12.5" style="fill:#3f372b;stroke:#3f372b" />
        <path d="m249 876v1h1.5 1.5l1.5-1 1.5-1 1-1 1-1 .5-.5.5-.5.5-.5.5-.5h1 1l1-.5 1-.5h1 1 1 1l1.5.5 1.5.5 2-.5 2-.5 1.5-1 1.5-1 1-1 1-1 2-.5 2-.5 1.5-.5 1.5-.5 2-.5 2-.5 1.5-.5 1.5-.5h2 2 1.5 1.5 3 3l.5-1 .5-1h2 2l1.5-.5 1.5-.5 10-8 10-8 17-9 17-9v-2.5-2.5-2.5-2.5-2-2-1-1h-1-1l1-21 1-21v-18.5-18.5-17.5-17.5-18-18-14.5-14.5l-6 12.5-6 12.5-9.5 17.5-9.5 17.5-1-.5-1-.5-1-.5-1-.5-.5-1-.5-1v-1-1-1-1l.5-.5.5-.5v-1.5-1.5-2-2l1-1 1-1v-2-2l1.5-16.5 1.5-16.5.5-16.5.5-16.5 3-14.5 3-14.5 6.5-16.5 6.5-16.5.5-1 .5-1 .5-.5.5-.5-.5-1-.5-1 .5-.5.5-.5v-1-1l.5-.5.5-.5h.5.5v-1-1l-.5.5-.5.5-.5-.5-.5-.5-.5-.5-.5-.5-.5-.5-.5-.5-.5-1-.5-1-2-.5-2-.5-1.5-.5-1.5-.5 1 1 1 1 .5 1 .5 1 .5.5.5.5-.5 1-.5 1-4.5 13-4.5 13-4 13.5-4 13.5-1.5 16.5-1.5 16.5-1.5 16-1.5 16-1 16-1 16-2 15.5-2 15.5 5.5 9 5.5 9 3.5-14 3.5-14 4 1 4 1-2.5 15-2.5 15-3 15-3 15-3.5 14-3.5 14-8 13.5-8 13.5-1 .5-1 .5v1.5 1.5l-1 1-1 1-.5.5-.5.5-.5 1-.5 1-.5 1.5-.5 1.5-1 1.5-1 1.5-1 1-1 1-1 1-1 1-.5.5-.5.5-1 .5-1 .5-1 1-1 1-1 .5-1 .5-11 6-11 6-15 11-15 11h2.5 2.5" style="fill:#b45048;stroke:#b45048" />
        <path d="m335 876l3 1h2 2l2-.5 2-.5 1.5.5 1.5.5 2-.5 2-.5 1-1 1-1 2 .5 2 .5h2 2 1.5 1.5v-.5-.5h-1.5-1.5-1-1l-.5-.5-.5-.5h-1-1-1.5-1.5-1-1l-.5.5-.5.5-.5.5-.5.5h-1.5-1.5-1-1l-.5-.5-.5-.5h-1-1l5.5-11.5 5.5-11.5 1.5-12.5 1.5-12.5-5.5 12-5.5 12-12.5 3-12.5 3 1.5 1.5 1.5 1.5-.5 1-.5 1-.5.5-.5.5v2 2l1 .5 1 .5.5.5.5.5 1.5.5 1.5.5.5 1 .5 1 .5.5.5.5.5.5.5.5.5.5.5.5 1.5 1 1.5 1" style="fill:#c73402;stroke:#c73402" />
        <path d="m243 875l1 1 15-11 15-11 11-6 11-6-1 1-1 1-.5.5-.5.5-.5.5-.5.5-1 .5-1 .5h-1-1l-.5.5-.5.5-1.5-.5-1.5-.5h-1-1l-1 .5-1 .5h-1-1l-.5.5-.5.5-1.5-.5-1.5-.5-1-.5-1-.5h-1-1l-1 .5-1 .5-1-.5-1-.5-16 12.5-16 12.5 2 .5 2 .5 1 1 1 1h1.5 1.5" style="fill:#c73c28;stroke:#c73c28" />
        <path d="m256 875l3 1 1.5-.5 1.5-.5 2-.5 2-.5 1.5-.5 1.5-.5.5-1 .5-1-1.5-.5-1.5-.5h-1-1-1-1l-1 .5-1 .5h-1-1l-.5.5-.5.5-.5.5-.5.5-1 1-1 1h.5.5" style="fill:#9b372a;stroke:#9b372a" />
        <path d="m187 874l3 1h2 2l-.5-1-.5-1-1-.5-1-.5-2.5-.5-2.5-.5-1.5-.5-1.5-.5-1.5-1-1.5-1-2-.5-2-.5h-1.5-1.5l.5 1 .5 1 1 1 1 1 2 .5 2 .5 1.5.5 1.5.5 2 .5 2 .5" style="fill:#555043;stroke:#555043" />
        <path d="m228 874h2l.5-1 .5-1-.5-.5-.5-.5-1-1-1-1v-1-1l-.5-.5-.5-.5.5-.5.5-.5.5-1 .5-1 .5-.5.5-.5 1-.5 1-.5h-2-2-1-1l-.5.5-.5.5-.5.5-.5.5v1 1l.5 1 .5 1v1 1l.5.5.5.5-.5.5-.5.5.5 1 .5 1 1 .5 1 .5" style="fill:#78352b;stroke:#78352b" />
        <path d="m343 874h2l.5.5.5.5h1 1 1.5 1.5l.5-.5.5-.5.5-.5.5-.5h1 1 1.5 1.5 1 1l.5.5.5.5h1 1 1.5 1.5 1 1v-20-20-4.5-4.5l-17 9-17 9-10 8-10 8h1.5 1.5l1-1 1-1 1-.5 1-.5 12.5-3 12.5-3 5.5-12 5.5-12-1.5 12.5-1.5 12.5-5.5 11.5-5.5 11.5" style="fill:#c73c28;stroke:#c73c28" />
        <path d="m326 873l2 1-.5-1-.5-1-.5-.5-.5-.5-1-.5-1-.5-.5-.5-.5-.5h-1-1v-1-1l-1-.5-1-.5-.5-.5-.5-.5v-1-1l-.5-.5-.5-.5h-1-1-2-2v1.5 1.5l1 1 1 1 2 .5 2 .5 1 1 1 1 1.5 1 1.5 1 2 .5 2 .5" style="fill:#791f07;stroke:#791f07" />
        <path d="m230 871l1 1h1.5 1.5l16-12.5 16-12.5h-2-2l-1 .5-1 .5-2 .5-2 .5-.5 1-.5 1-1.5.5-1.5.5-2 .5-2 .5-1.5.5-1.5.5-1.5 1-1.5 1-1 1-1 1h-1.5-1.5l-1.5 1-1.5 1-1 .5-1 .5-1 .5-1 .5-.5.5-.5.5-.5 1-.5 1-.5.5-.5.5.5.5.5.5v1 1l1 1 1 1" style="fill:#9b372a;stroke:#9b372a" />
        <path d="m195 869l14-3 1.5-3.5 1.5-3.5-13 2.5-13 2.5 4.5 2.5 4.5 2.5" style="fill:#dad6c9;stroke:#dad6c9" />
        <path d="m284 869v1h2 2l1.5-.5 1.5-.5 2 .5 2 .5h2 2 1.5 1.5l1.5-1.5 1.5-1.5h-2.5-2.5l-1.5.5-1.5.5h-2-2l-2 .5-2 .5h-2.5-2.5" style="fill:#5f5a65;stroke:#5f5a65" />
        <path d="m237 857v1h1.5 1.5l1-1 1-1 1.5-1 1.5-1 1.5-.5 1.5-.5 2-.5 2-.5 1.5-.5 1.5-.5.5-1 .5-1 1-1.5 1-1.5 1.5-1 1.5-1 .5-.5.5-.5-1.5.5-1.5.5-2 .5-2 .5-.5 1.5-.5 1.5-1.5 1-1.5 1-1.5.5-1.5.5-1.5 1-1.5 1-1.5.5-1.5.5-1 .5-1 .5-1.5 1-1.5 1" style="fill:#7c574d;stroke:#7c574d" />
        <path d="m200 856l3 1h2 2 2.5 2.5l1-1 1-1-.5-2-.5-2-1.5-.5-1.5-.5h-.5-.5l1.5.5 1.5.5v1 1l-.5.5-.5.5-.5 1-.5 1h-2-2l-1.5-.5-1.5-.5-1.5-1.5-1.5-1.5-1 1.5-1 1.5 1 .5 1 .5" style="fill:#9e98a3;stroke:#9e98a3" />
        <g style="fill:#949082;stroke:#949082">
            <path d="m116 855l1-2v-1.5-1.5-1-1l1.5.5 1.5.5 1 .5 1 .5-1.5-1.5-1.5-1.5-.5-1-.5-1-.5-.5-.5-.5-.5-1.5-.5-1.5.5-1 .5-1h-1-1v1.5 1.5l.5.5.5.5-.5 1.5-.5 1.5h-1.5-1.5l.5.5.5.5 1.5.5 1.5.5v1.5 1.5 2 2" />
            <path d="m203 855l3 1h2 2l.5-1 .5-1 .5-.5.5-.5v-1-1l-1.5-.5-1.5-.5h-1.5-1.5l-1.5.5-1.5.5-1.5.5-1.5.5 1.5 1.5 1.5 1.5" />
            <path d="m240 854v1l1-.5 1-.5 1.5-.5 1.5-.5 1.5-1 1.5-1 1.5-.5 1.5-.5 1.5-1 1.5-1 .5-1.5.5-1.5 2-.5 2-.5 1.5-.5 1.5-.5-.5.5-.5.5-1.5 1-1.5 1-1 1.5-1 1.5 2-.5 2-.5 1-.5 1-.5v-.5-.5l1-.5 1-.5 1.5-.5 1.5-.5.5-1 .5-1 .5-1 .5-1v-1.5-1.5l-.5-.5-.5-.5-.5-1-.5-1-1.5-.5-1.5-.5-2-.5-2-.5 1 1 1 1-1.5-.5-1.5-.5-13.5-5-13.5-5-14-1.5-14-1.5-15-6-15-6-.5 1-.5 1-1.5.5-1.5.5-1 1.5-1 1.5-1 1.5-1 1.5-1 1-1 1-2 .5-2 .5-1.5.5-1.5.5-3 .5-3 .5h.5.5l21.5-1 21.5-1 14.5 2 14.5 2 14 5 14 5 2.5 1 2.5 1 1.5.5 1.5.5 2 .5 2 .5v1 1l-.5.5-.5.5-.5.5-.5.5h-1.5-1.5-1-1-1-1l-.5.5-.5.5-1 .5-1 .5v1 1l-.5.5-.5.5-.5.5-.5.5-.5 1-.5 1h-1-1l-.5.5-.5.5h-1-1l-1 1-1 1-1 .5-1 .5" />
        </g>
        <path d="m274 848l3 1 .5-.5.5-.5h1 1l1-.5 1-.5-2-.5-2-.5-1.5-1-1.5-1-1.5.5-1.5.5-2 .5-2 .5-1 .5-1 .5 1 .5 1 .5 1-.5 1-.5h1 1l1 .5 1 .5" style="fill:#c73402;stroke:#c73402" />
        <path d="m126 847l3 1 .5-1.5.5-1.5v-1.5-1.5l-1-1-1-1h-1.5-1.5l-1 1-1 1 .5 2 .5 2 1 .5 1 .5" style="fill:#949082;stroke:#949082" />
        <path d="m284 847l3 1 .5-.5.5-.5h1 1l1-.5 1-.5.5-.5.5-.5.5-.5.5-.5 1-1 1-1 1-.5 1-.5 1-1 1-1 1-.5 1-.5.5-.5.5-.5 1-1 1-1 1-1 1-1 1-1.5 1-1.5.5-1.5.5-1.5.5-1 .5-1 .5-.5.5-.5 1-1 1-1v-1.5-1.5l1-.5 1-.5v-.5-.5l-.5-2-.5-2-.5-1.5-.5-1.5-2.5-.5-2.5-.5h-1.5-1.5l1 1.5 1 1.5 1 1.5 1 1.5.5 1.5.5 1.5-.5 1.5-.5 1.5-.5.5-.5.5v1.5 1.5l-1 1-1 1-1 1.5-1 1.5-1 1-1 1-1 1.5-1 1.5-1 1-1 1-1 .5-1 .5-1 .5-1 .5-.5.5-.5.5-1 1-1 1-.5 1-.5 1-1 1-1 1-2.5.5-2.5.5" style="fill:#9b372a;stroke:#9b372a" />
        <path d="m262 846v1h2 2l1-.5 1-.5 2-.5 2-.5 1.5-.5 1.5-.5 1.5 1 1.5 1 2 .5 2 .5h1 1l2.5-.5 2.5-.5 1-1 1-1 .5-1 .5-1-1.5 1-1.5 1-1.5.5-1.5.5-1.5-.5-1.5-.5h-2-2l-1-.5-1-.5-.5-.5-.5-.5h-1-1-1-1-2-2l-.5 1-.5 1-1.5.5-1.5.5-1 .5-1 .5" style="fill:#9b2c00;stroke:#9b2c00" />
        <path d="m283 844l3 1 1.5-.5 1.5-.5 1.5-1 1.5-1 1-1 1-1 .5-.5.5-.5 1-.5 1-.5v-.5-.5l.5-1 .5-1-1-1-1-1-2 .5-2 .5-1-1-1-1-2 .5-2 .5h-1.5-1.5l-1.5.5-1.5.5-.5.5-.5.5h-1.5-1.5l-1.5.5-1.5.5h-1.5-1.5l-.5.5-.5.5v1.5 1.5l-.5 1-.5 1h2 2 1 1 1 1l.5.5.5.5 1 .5 1 .5h2 2" style="fill:#791f07;stroke:#791f07" />
        <path d="m297 837v1l1-.5 1-.5 1-1 1-1 1-1.5 1-1.5 1-1 1-1 1-1.5 1-1.5 1-1 1-1v-1.5-1.5l.5-.5.5-.5.5-1.5.5-1.5-.5-1.5-.5-1.5-1-1.5-1-1.5-1-1.5-1-1.5-.5-.5-.5-.5-.5-.5-.5-.5-1-1-1-1-1-.5-1-.5v-1-1l-.5-.5-.5-.5.5-.5.5-.5v-1-1-1.5-1.5l.5-.5.5-.5v-1-1-1-1l.5-.5.5-.5v-1.5-1.5-1-1-1-1l.5-.5.5-.5-.5-1-.5-1v-1-1-1.5-1.5l-.5-1-.5-1-1-.5-1-.5-.5-1-.5-1h-2-2l-2-.5-2-.5.5 2 .5 2-.5 1.5-.5 1.5h1 1 1.5 1.5l1 1 1 1 1.5 1 1.5 1 .5 1.5.5 1.5-.5 2-.5 2-1 2-1 2 .5 19 .5 19-.5 1.5-.5 1.5-1 1-1 1 1 1 1 1-.5 1-.5 1" style="fill:#78352b;stroke:#78352b" />
        <path d="m268 836l1 1 .5-.5.5-.5v-.5-.5l1-.5 1-.5.5-.5.5-.5 1-.5 1-.5h1 1l.5-.5.5-.5h1 1l1.5 1 1.5 1h1.5 1.5l2-.5 2-.5 1 1 1 1 2-.5 2-.5 1-1 1-1 .5-1.5.5-1.5h-1.5-1.5l-1.5 1-1.5 1-1.5.5-1.5.5-1.5-.5-1.5-.5-2.5-8-2.5-8-21.5 7-21.5 7 1.5.5 1.5.5h1 1l1 .5 1 .5h2 2l.5-.5.5-.5 1 .5 1 .5h2 2l1.5 1 1.5 1 2 .5 2 .5 1.5.5 1.5.5.5 1 .5 1" style="fill:#3f372b;stroke:#3f372b" />
        <path d="m270 835v1h1.5 1.5l1.5-.5 1.5-.5h1.5 1.5l.5-.5.5-.5 1.5-.5 1.5-.5-1.5-1-1.5-1h-1-1l-.5.5-.5.5h-1-1l-1 .5-1 .5-.5.5-.5.5-1 .5-1 .5" style="fill:#2c190d;stroke:#2c190d" />
        <path d="m240 833l3 1h1 1 1 1 1 1 1.5 1.5l-14-5-14-5-14.5-2-14.5-2-1 .5-1 .5-.5.5-.5.5h-1-1l-.5.5-.5.5-1 .5-1 .5-.5.5-.5.5h-1-1l-.5.5-.5.5h-1.5-1.5l-1.5.5-1.5.5-1.5-.5-1.5-.5-1.5-.5-1.5-.5-1-.5-1-.5-1.5.5-1.5.5-2-.5-2-.5-1.5-.5-1.5-.5h-2.5-2.5l-1-.5-1-.5h-.5-.5l-2 .5-2 .5 20.5 1.5 20.5 1.5 14-1 14-1 12 4.5 12 4.5" style="fill:#bcb8ac;stroke:#bcb8ac" />
        <path d="m259 833l3 1-1-1-1-1-1.5-1-1.5-1h-2-2l-1-.5-1-.5-.5.5-.5.5h-2-2l-1-.5-1-.5h-1-1l-1.5-.5-1.5-.5-11-7-11-7-12.5 1-12.5 1-7-5.5-7-5.5-1 .5-1 .5-1 .5-1 .5v.5.5l15 6 15 6 14 1.5 14 1.5 13.5 5 13.5 5" style="fill:#5f5a65;stroke:#5f5a65" />
        <path d="m287 830l3 1 1.5-.5 1.5-.5 1.5-1 1.5-1h1.5 1.5l-.5-19-.5-19-.5-.5-.5-.5-.5-1.5-.5-1.5-2 .5-2 .5-.5 1.5-.5 1.5-1.5 1-1.5 1-1.5.5-1.5.5h-1.5-1.5l-2.5.5-2.5.5-1.5-.5-1.5-.5-1-1-1-1-1.5-.5-1.5-.5-.5-.5-.5-.5h-1.5-1.5l-1.5-.5-1.5-.5h-1-1l-1.5-1-1.5-1-.5-.5-.5-.5-1.5-1.5-1.5-1.5-1-1-1-1-.5-2-.5-2v-2-2l-.5-1.5-.5-1.5-19.5 10.5-19.5 10.5 18.5-13.5 18.5-13.5-.5-.5-.5-.5-11.5 7.5-11.5 7.5-11 7-11 7-11.5 7-11.5 7 7 5.5 7 5.5 12.5-1 12.5-1 11 7 11 7 21.5-7 21.5-7 2.5 8 2.5 8" style="fill:#555043;stroke:#555043" />
        <path d="m174 826l3 1 1.5-.5 1.5-.5h1.5 1.5l.5-.5.5-.5h1 1l.5-.5.5-.5 1-.5 1-.5.5-.5.5-.5h1 1l.5-.5.5-.5 1-.5 1-.5-21.5 1-21.5 1 1 .5 1 .5h2.5 2.5l1.5.5 1.5.5 2 .5 2 .5 1.5-.5 1.5-.5 1 .5 1 .5 1.5.5 1.5.5" style="fill:#9e98a3;stroke:#9e98a3" />
        <path d="m158 818v1h1.5 1.5l1-1.5 1-1.5 1-1 1-1 1.5-1 1.5-1 1-.5 1-.5 1.5-.5 1.5-.5.5-1 .5-1v-.5-.5l-2 1-2 1-1 1-1 1-2 .5-2 .5-.5 1.5-.5 1.5-1.5 1-1.5 1-1 .5-1 .5" style="fill:#555043;stroke:#555043" />
        <path d="m316 817v1l8-13.5 8-13.5 3.5-14 3.5-14 3-15 3-15 2.5-15 2.5-15-4-1-4-1-3.5 14-3.5 14-5.5-9-5.5-9 2-15.5 2-15.5 1-16 1-16 1.5-16 1.5-16 1.5-16.5 1.5-16.5 4-13.5 4-13.5 4.5-13 4.5-13h-1-1l-.5.5-.5.5-.5 1.5-.5 1.5-.5 1.5-.5 1.5-1 1.5-1 1.5-1 1-1 1-1.5-.5-1.5-.5v-1.5-1.5l-1.5.5-1.5.5-.5-.5-.5-.5-.5-1-.5-1 .5-1.5.5-1.5-.5-1-.5-1-1 .5-1 .5v2 2 1.5 1.5 2 2 2.5 2.5 1.5 1.5l1 1 1 1v1 1 1 1l-.5.5-.5.5v1.5 1.5l-1 2-1 2-.5 1.5-.5 1.5v2.5 2.5l-.5 1.5-.5 1.5-.5 2-.5 2v2 2l-.5 2-.5 2 .5 1.5.5 1.5-.5 1.5-.5 1.5v2.5 2.5 2 2l-.5 1.5-.5 1.5-.5 16.5-.5 16.5-1 17-1 17-2 15.5-2 15.5v17 17l-1 15.5-1 15.5-2.5 20.5-2.5 20.5.5 1.5.5 1.5.5 2 .5 2" style="fill:#c73c28;stroke:#c73c28" />
        <path d="m309 809l5 1v-.5-.5l-2.5-15-2.5-15-3-13.5-3-13.5-1-15-1-15 .5-17 .5-17-2.5-15.5-2.5-15.5-.5-17-.5-17-.5-17.5-.5-17.5v-17-17-14.5-14.5l-3.5.5-3.5.5v16.5 16.5l-1 17-1 17-1 16.5-1 16.5-1.5 16.5-1.5 16.5-.5 16-.5 16-1.5 16.5-1.5 16.5-2.5 27.5-2.5 27.5v.5.5l1.5 1.5 1.5 1.5 2.5-15 2.5-15 9 8 9 8 .5 1 .5 1 1 .5 1 .5.5 1 .5 1 1 1 1 1v1 1 1 1 1.5 1.5 2 2 1 1l-.5 1-.5 1v2 2 1 1l-.5.5-.5.5v1 1l.5 1 .5 1v1 1l.5.5.5.5.5 1.5.5 1.5.5.5.5.5h1.5 1.5" style="fill:#9b2c00;stroke:#9b2c00" />
        <path d="m314 809v1l2.5-20.5 2.5-20.5 1-15.5 1-15.5v-17-17l2-15.5 2-15.5 1-17 1-17 .5-16.5.5-16.5-1 1-1 1-.5.5-.5.5-1 1.5-1 1.5v1.5 1.5l1 1 1 1 .5 1.5.5 1.5-.5 2-.5 2-.5 1.5-.5 1.5-.5 2-.5 2-.5 1.5-.5 1.5-.5.5-.5.5v-3.5-3.5l-2.5 16.5-2.5 16.5-4-4-4-4v-15.5-15.5l.5-13.5.5-13.5-1-16.5-1-16.5-.5-17.5-.5-17.5-.5-17.5-.5-17.5v-16.5-16.5l-1.5-16.5-1.5-16.5-2-15.5-2-15.5-3 14-3 14-1 16.5-1 16.5-1.5 16.5-1.5 16.5v16.5 16.5l-.5 17.5-.5 17.5-1 16.5-1 16.5-1 16-1 16-2 15.5-2 15.5-1 17-1 17-1.5 15-1.5 15-6 5.5-6 5.5-.5-15.5-.5-15.5 1-17 1-17 1.5-16 1.5-16 1.5-16.5 1.5-16.5.5-16 .5-16 1-17 1-17 1-16.5 1-16.5 1-17 1-17 .5-17 .5-17 1-16 1-16-.5-22-.5-22-1 29-1 29-.5-2-.5-2v-1-1-1-1-1-1l-.5-1-.5-1-.5-1.5-.5-1.5-.5 17.5-.5 17.5-3 14.5-3 14.5-2 16-2 16-3 14.5-3 14.5-1 17-1 17-3.5 16.5-3.5 16.5.5-16.5.5-16.5-3-17.5-3-17.5-1 17-1 17-.5 17.5-.5 17.5-.5 16-.5 16-5 12-5 12-1 25.5-1 25.5-1-2-1-2-1-1.5-1-1.5v-2-2l1.5 1 1.5 1 1 1 1 1 .5 1.5.5 1.5.5 2.5.5 2.5 8 11.5 8 11.5 5.5 22.5 5.5 22.5h.5.5l7-11 7-11 1 17 1 17 2.5-27.5 2.5-27.5 1.5-16.5 1.5-16.5.5-16 .5-16 1.5-16.5 1.5-16.5 1-16.5 1-16.5 1-17 1-17v-16.5-16.5l3.5-.5 3.5-.5v14.5 14.5 17 17l.5 17.5.5 17.5.5 17 .5 17 2.5 15.5 2.5 15.5-.5 17-.5 17 1 15 1 15 3 13.5 3 13.5 2.5 15 2.5 15" style="fill:#c73402;stroke:#c73402" />
        <path d="m366 809h2v-2-2-2.5-2.5-1-1l-.5-.5-.5-.5v-2-2l-1-1.5-1-1.5v-2-2-2-2l.5-2 .5-2 1-.5 1-.5v-3-3-2-2l-1 21-1 21" style="fill:#c73c28;stroke:#c73c28" />
        <path d="m304 807l1 1-.5-1.5-.5-1.5-.5-.5-.5-.5v-1-1l-.5-1-.5-1v-1-1l.5-.5.5-.5v-1-1-2-2l.5-1 .5-1v-1-1-2-2-1.5-1.5-1-1-1-1l-1-1-1-1v1.5 1.5 1 1l.5 1 .5 1-.5.5-.5.5v1 1 1 1 1.5 1.5l-.5.5-.5.5v1 1 1 1l-.5.5-.5.5v1.5 1.5 1 1l-.5.5-.5.5.5.5.5.5v1 1l1 .5 1 .5 1 1 1 1" style="fill:#791f07;stroke:#791f07" />
        <path d="m170 805l30-16 10.5-7.5 10.5-7.5 12-7 12-7v-.5-.5l-3.5-14.5-3.5-14.5-6.5-11-6.5-11-5-24-5-24-1 .5-1 .5-1 .5-1 .5-1 1.5-1 1.5v2 2l-1 1.5-1 1.5-.5 1.5-.5 1.5-1 1.5-1 1.5-1.5.5-1.5.5-2-.5-2-.5-10.5-7-10.5-7-12.5-5.5-12.5-5.5-9-8.5-9-8.5-10.5-6.5-10.5-6.5-7-8.5-7-8.5 9.5-6.5 9.5-6.5 7 1.5 7 1.5 4.5-2.5 4.5-2.5 9.5-7 9.5-7 10-2 10-2 3 7.5 3 7.5 4-12 4-12 12.5 1.5 12.5 1.5-4 4.5-4 4.5 5.5 4.5 5.5 4.5 1 5.5 1 5.5-1.5 20-1.5 20 3-16 3-16 2-16 2-16 2-15.5 2-15.5v-18-18l2.5-15 2.5-15-3.5-22.5-3.5-22.5-17-.5-17-.5-18.5 2.5-18.5 2.5-2-14.5-2-14.5 13-1.5 13-1.5-12-2.5-12-2.5h-2-2-1-1l-1 .5-1 .5h-2-2l-.5.5-.5.5h-1.5-1.5-2-2-1-1-1-1-1-1l-1.5-.5-1.5-.5-12-6.5-12-6.5-2.5-13.5-2.5-13.5 13 1.5 13 1.5 15 4.5 15 4.5-6-7-6-7-9-8-9-8 .5-17 .5-17 1-16 1-16 1-15.5 1-15.5-2-12.5-2-12.5-14.5 2-14.5 2-14.5 2.5-14.5 2.5-15.5 2-15.5 2-19.5 2.5-19.5 2.5v3 3 2.5 2.5 2 2 2.5 2.5 2 2 2.5 2.5 2 2 2 2 2.5 2.5l14-5 14-5 13.5-3 13.5-3 15-3 15-3 7 5.5 7 5.5-.5 15.5-.5 15.5-.5 17.5-.5 17.5-6.5 11-6.5 11-16-1.5-16-1.5-26-1.5-26-1.5v19.5 19.5 18 18 17.5 17.5 18 18 17.5 17.5 18 18 17.5 17.5 18 18 17.5 17.5 17 17l18 10.5 18 10.5 9.5 8.5 9.5 8.5 13 4.5 13 4.5 11.5 6.5 11.5 6.5 9.5 8.5 9.5 8.5 14 2.5 14 2.5 9.5 8.5 9.5 8.5" style="fill:#2c190d;stroke:#2c190d" />
        <path d="m367 797l1 1v-3-3-2.5-2.5-2-2-2.5-2.5-.5-.5l-1 .5-1 .5-.5 2-.5 2v2 2 2 2l1 1.5 1 1.5v2 2" style="fill:#c73402;stroke:#c73402" />
        <path d="m274 793l3 1 2.5-.5 2.5-.5v-.5-.5l1.5-.5 1.5-.5.5-.5.5-.5h1 1l.5-1 .5-1 .5-.5.5-.5.5-.5.5-.5.5-.5.5-.5v-1.5-1.5-1-1-1-1l.5-.5.5-.5-.5-1-.5-1h-1-1l-1.5 2.5-1.5 2.5v1.5 1.5l-1 1-1 1-2 .5-2 .5h-2-2-1.5-1.5-2-2-1.5-1.5-1.5-1.5-3.5-3.5l1.5 1 1.5 1h1 1l1.5.5 1.5.5h1.5 1.5l.5.5.5.5 1.5.5 1.5.5 1 1 1 1" style="fill:#7c574d;stroke:#7c574d" />
        <g style="fill:#5f5a65;stroke:#5f5a65">
            <path d="m282 792v1h1.5 1.5l1.5-.5 1.5-.5 1.5-1 1.5-1 .5-1.5.5-1.5 2-.5 2-.5.5-1 .5-1v-1.5-1.5-2-2l-1-1-1-1h-1.5-1.5l.5 1 .5 1-.5.5-.5.5v1 1 1 1 1.5 1.5l-.5.5-.5.5-.5.5-.5.5-.5.5-.5.5-.5 1-.5 1h-1-1l-.5.5-.5.5-1.5.5-1.5.5" />
            <path d="m210 790l39-21-.5-2-.5-2-.5-1-.5-1-18.5 13.5-18.5 13.5" />
        </g>
        <path d="m297 789l1 1 1-2 1-2 .5-2 .5-2-.5-1.5-.5-1.5-1.5-1-1.5-1v2 2 1.5 1.5l-.5 1-.5 1 .5 1.5.5 1.5" style="fill:#7c574d;stroke:#7c574d" />
        <path d="m256 785l1 1h3.5 3.5 1.5 1.5v-.5-.5h-2-2l-1-.5-1-.5-.5-.5-.5-.5h-1-1l-.5-.5-.5-.5v-1-1l-.5-1-.5-1-.5-.5-.5-.5-.5-.5-.5-.5v-1-1-1-1l-.5-1-.5-1v-2-2l-.5-1-.5-1-1-2-1-2h-2-2v1 1l.5.5.5.5.5 1 .5 1 .5 2 .5 2 .5 1.5.5 1.5v2 2l.5 2 .5 2 1 1 1 1 1.5 1.5 1.5 1.5" style="fill:#78352b;stroke:#78352b" />
        <path d="m267 785v1h1.5 1.5 2 2v-.5-.5l.5-1 .5-1-1.5-1.5-1.5-1.5-1 .5-1 .5-1.5-.5-1.5-.5-2.5-.5-2.5-.5-1.5-.5-1.5-.5-.5-1.5-.5-1.5-.5-2-.5-2-.5-2-.5-2h-.5-.5l-.5-.5-.5-.5h-.5-.5v2 2l.5 1 .5 1v1 1 1 1l.5.5.5.5.5.5.5.5.5 1 .5 1v1 1l.5.5.5.5h1 1l.5.5.5.5 1 .5 1 .5h2 2" style="fill:#9b372a;stroke:#9b372a" />
        <path d="m274 785v1h1.5 1.5 2 2l2-.5 2-.5 1-1 1-1v-1.5-1.5l-.5-.5-.5-.5h-.5-.5v1.5 1.5l-.5.5-.5.5-1 .5-1 .5-2-.5-2-.5h-1.5-1.5l-.5 1-.5 1" style="fill:#78352b;stroke:#78352b" />
        <path d="m278 783l4 1 1-.5 1-.5.5-.5.5-.5v-1.5-1.5l-.5-1.5-.5-1.5v-1-1l-.5-1-.5-1v-2-2l1-1.5 1-1.5 1.5.5 1.5.5 1 1 1 1 2 .5 2 .5h2 2l-9-8-9-8-2.5 15-2.5 15h1.5 1.5" style="fill:#791f07;stroke:#791f07" />
        <path d="m267 780l3 1 1-.5 1-.5v-.5-.5l-1-17-1-17-7 11-7 11 .5 2 .5 2 .5 2 .5 2 .5 1.5.5 1.5 1.5.5 1.5.5 2.5.5 2.5.5" style="fill:#c73c28;stroke:#c73c28" />
        <path d="m286 779l1 1 1.5-2.5 1.5-2.5.5-1.5.5-1.5-.5-2-.5-2-1-1-1-1-1.5-.5-1.5-.5-1 1.5-1 1.5v2 2l.5 1 .5 1v1 1l.5 1.5.5 1.5h.5.5" style="fill:#9b372a;stroke:#9b372a" />
        <path d="m254 766l1 1-5.5-22.5-5.5-22.5-8-11.5-8-11.5-1-.5-1-.5h-.5-.5l1-25.5 1-25.5 5-12 5-12 .5-16 .5-16 .5-17.5.5-17.5 1-17 1-17 1.5-26 1.5-26-.5-.5-.5-.5-.5-.5-.5-.5-1.5 17.5-1.5 17.5-1 17-1 17-.5 17-.5 17-1.5 16.5-1.5 16.5-3.5 14-3.5 14-2.5 15.5-2.5 15.5-2.5 15-2.5 15 9.5 8.5 9.5 8.5 7.5 25 7.5 25 1 2 1 2 .5 1 .5 1h.5.5" style="fill:#9b2c00;stroke:#9b2c00" />
        <path d="m245 759v1h.5.5 2 2l-7.5-25-7.5-25-9.5-8.5-9.5-8.5 2.5-15 2.5-15 2.5-15.5 2.5-15.5 3.5-14 3.5-14 1.5-16.5 1.5-16.5.5-17 .5-17 1-17 1-17 1.5-17.5 1.5-17.5v-2.5-2.5l-.5-1.5-.5-1.5v-2.5-2.5l-.5-1.5-.5-1.5-.5-2-.5-2-.5-1.5-.5-1.5-.5-1.5-.5-1.5v-2.5-2.5l-.5-2.5-.5-2.5-.5-.5-.5-.5-.5-1-.5-1-1-.5-1-.5v1 1l3.5 22.5 3.5 22.5-2.5 15-2.5 15v18 18l-2 15.5-2 15.5-2 16-2 16-3 16-3 16-.5 2-.5 2-.5 2-.5 2-.5 1.5-.5 1.5-1 1.5-1 1.5v2 2 3 3l5 24 5 24 6.5 11 6.5 11 3.5 14.5 3.5 14.5" style="fill:#791f07;stroke:#791f07" />
        <g style="fill:#c73c28;stroke:#c73c28">
            <path d="m261 728l12-11 1.5-15 1.5-15 1-17 1-17 2-15.5 2-15.5 1-16 1-16 1-16.5 1-16.5.5-17.5.5-17.5v-16.5-16.5l1.5-16.5 1.5-16.5 1-16.5 1-16.5 3-14 3-14 2 15.5 2 15.5 1.5 16.5 1.5 16.5v16.5 16.5l.5 17.5.5 17.5.5 17.5.5 17.5 1 16.5 1 16.5-.5 13.5-.5 13.5v15.5 15.5l4 4 4 4 2.5-16.5 2.5-16.5v-1.5-1.5l.5-1 .5-1v-1-1-1.5-1.5-.5-.5-1.5-1.5-1.5-1.5l-.5 1.5-.5 1.5v1 1l-.5 1-.5 1-.5 1.5-.5 1.5v1 1l-.5 1-.5 1v2 2l-.5 2-.5 2-.5 1.5-.5 1.5h-1-1l-.5-16.5-.5-16.5v-17-17l-1-14.5-1-14.5-.5-17.5-.5-17.5.5-15 .5-15-.5-17.5-.5-17.5-2.5-15-2.5-15-3-26-3-26-1 2-1 2v2 2l-.5 2-.5 2v2 2l-.5 2-.5 2-.5 1.5-.5 1.5-.5 2-.5 2v2 2 2.5 2.5l-1 .5-1 .5-1 15.5-1 15.5-1.5 16-1.5 16-1 15-1 15-1 15.5-1 15.5v16 16l-2.5-9-2.5-9v-17-17l1-14.5 1-14.5-.5-16.5-.5-16.5 1.5-16 1.5-16 .5-16.5.5-16.5-3.5-16-3.5-16-.5 2-.5 2 1 1.5 1 1.5v1.5 1.5l.5 2.5.5 2.5.5 22 .5 22-1 16-1 16-.5 17-.5 17-1 17-1 17-1 16.5-1 16.5-1 17-1 17-.5 16-.5 16-1.5 16.5-1.5 16.5-1.5 16-1.5 16-1 17-1 17 .5 15.5.5 15.5" />
            <path d="m226 698l2 1-.5-2.5-.5-2.5-.5-1.5-.5-1.5-1-1-1-1-1.5-1-1.5-1v2 2l1 1.5 1 1.5 1 2 1 2h.5.5" />
        </g>
        <path d="m335 689l2 1v-.5-.5-2-2l-.5-.5-.5-.5-.5-1-.5-1-1-2-1-2v1.5 1.5l-.5.5-.5.5v1 1 1 1l.5 1 .5 1 1 .5 1 .5" style="fill:#949082;stroke:#949082" />
        <path d="m337 689v1l9.5-17.5 9.5-17.5 6-12.5 6-12.5v-2.5-2.5-2.5-2.5-2-2-2.5-2.5-2-2-1.5-1.5l-4.5 11-4.5 11-11.5 22-11.5 22-.5-1-.5-1v2 2l-1 1-1 1v2 2l1 2 1 2 .5 1 .5 1 .5.5.5.5v2 2" style="fill:#7c574d;stroke:#7c574d" />
        <path d="m236 683h2l.5-1.5.5-1.5.5-2 .5-2v-1-1-2.5-2.5l-1-1-1-1-1 .5-1 .5v2 2 2 2l-.5 2-.5 2 .5 1.5.5 1.5" style="fill:#9b2c00;stroke:#9b2c00" />
        <path d="m197 678l4 1 1.5-.5 1.5-.5 1-1.5 1-1.5.5-1.5.5-1.5 1-1.5 1-1.5v-2-2l1-1.5 1-1.5 1-.5 1-.5 1-.5 1-.5v-3-3-2-2l1-1.5 1-1.5.5-1.5.5-1.5.5-2 .5-2 .5-2 .5-2 1.5-20 1.5-20-1-5.5-1-5.5-5.5-4.5-5.5-4.5 4-4.5 4-4.5-12.5-1.5-12.5-1.5-4 12-4 12-3-7.5-3-7.5-10 2-10 2-9.5 7-9.5 7-4.5 2.5-4.5 2.5-7-1.5-7-1.5-9.5 6.5-9.5 6.5 7 8.5 7 8.5 10.5 6.5 10.5 6.5 9 8.5 9 8.5 12.5 5.5 12.5 5.5 10.5 7 10.5 7" style="fill:#3f372b;stroke:#3f372b" />
        <path d="m336 670l23-44 4.5-11 4.5-11v-18-18-17.5-17.5-3.5-3.5l-.5 1-.5 1-1-.5-1-.5-1 1.5-1 1.5.5 1.5.5 1.5.5 2 .5 2 .5 1.5.5 1.5v1.5 1.5l-.5 1.5-.5 1.5h-1.5-1.5l-.5-1.5-.5-1.5-.5-.5-.5-.5-1-1-1-1-6.5 16.5-6.5 16.5-3 14.5-3 14.5-.5 16.5-.5 16.5-1.5 16.5-1.5 16.5.5 1 .5 1" style="fill:#949082;stroke:#949082" />
        <path d="m314 636h2l.5-1.5.5-1.5.5-2 .5-2v-2-2l.5-1 .5-1v-1-1l.5-1.5.5-1.5.5-1 .5-1v-1-1l.5-1.5.5-1.5 2-14 2-14 2.5-27 2.5-27h-1-1l-1.5 16-1.5 16-3.5 18-3.5 18-.5-16.5-.5-16.5 1.5-16.5 1.5-16.5 2.5-28.5 2.5-28.5-.5-.5-.5-.5v-2.5-2.5-2-2l-.5-2-.5-2-.5-1.5-.5-1.5v-2.5-2.5l.5-1.5.5-1.5v-2.5-2.5-2-2l-1.5-1-1.5-1-1-1-1-1-.5-1-.5-1-3.5-14.5-3.5-14.5-.5-16.5-.5-16.5-2.5-18.5-2.5-18.5-.5-.5-.5-.5-.5-2-.5-2v-1-1l-1 .5-1 .5-1.5-.5-1.5-.5v-2.5-2.5l.5-1.5.5-1.5-.5-2-.5-2-.5.5-.5.5-.5-1.5-.5-1.5-.5 1-.5 1-.5.5-.5.5-.5.5-.5.5-.5-.5-.5-.5-.5-1-.5-1-1 1-1 1v1 1l-.5-.5-.5-.5v-1.5-1.5h-1-1v1 1l-.5.5-.5.5h-1-1l2-10.5 2-10.5 2.5-1.5 2.5-1.5v-1.5-1.5l.5-1.5.5-1.5v-1-1-1.5-1.5-2-2-1-1-1.5-1.5l-7 8.5-7 8.5-6 10-6 10 2.5 13.5 2.5 13.5 1.5 1 1.5 1 3.5 16 3.5 16-.5 16.5-.5 16.5-1.5 16-1.5 16 .5 16.5.5 16.5-1 14.5-1 14.5v17 17l2.5 9 2.5 9v-16-16l1-15.5 1-15.5 1-15 1-15 1.5-16 1.5-16 1-15.5 1-15.5v-.5-.5l1-17 1-17 3-1 3-1 3 26 3 26 2.5 15 2.5 15 .5 17.5.5 17.5-.5 15-.5 15 .5 17.5.5 17.5 1 14.5 1 14.5v17 17l.5 16.5.5 16.5" style="fill:#b45048;stroke:#b45048" />
        <path d="m321 635l1-1 .5-1.5.5-1.5.5-2 .5-2 .5-1.5.5-1.5.5-2 .5-2-.5-1.5-.5-1.5-1-1-1-1-.5 1.5-.5 1.5v1.5 1.5 1 1l-.5 1-.5 1v1.5 1.5 3.5 3.5" style="fill:#9b2c00;stroke:#9b2c00" />
        <path d="m322 617v1l.5-1.5.5-1.5v-1.5-1.5l1-1.5 1-1.5.5-.5.5-.5 1-1 1-1 .5-1.5.5-1.5v-2-2-2.5-2.5l.5-1.5.5-1.5-.5-1.5-.5-1.5.5-2 .5-2v-2-2l.5-2 .5-2 .5-1.5.5-1.5v-2.5-2.5l.5-1.5.5-1.5-.5-.5-.5-.5-.5-1-.5-1v-1.5-1.5l.5-2 .5-2 1-2 1-2v-1.5-1.5-2.5-2.5-2-2-1.5-1.5-2-2l1-.5 1-.5v-.5-.5l-1-1.5-1-1.5-.5-.5-.5-.5-.5-.5-.5-.5-.5 1-.5 1v1 1l-2.5 27-2.5 27-2 14-2 14v1.5 1.5 1.5 1.5" style="fill:#9b372a;stroke:#9b372a" />
        <path d="m82 606l10-19-7-9-7-9-3.5 5.5-3.5 5.5-8 1.5-8 1.5-6.5-2.5-6.5-2.5 7 8.5 7 8.5 13 5 13 5v.5.5" style="fill:#3f372b;stroke:#3f372b" />
        <path d="m319 597l7-36 1.5-16 1.5-16-.5-.5-.5-.5.5-1.5.5-1.5.5-2 .5-2v-2-2-2.5-2.5l.5-1.5.5-1.5 1.5-1 1.5-1 1 1 1 1 .5 1.5.5 1.5 1 1 1 1-.5-2-.5-2v-2-2l-.5-.5-.5-.5.5-1 .5-1v-2-2-1-1l.5-1 .5-1v-3-3l-.5 1.5-.5 1.5-.5 1.5-.5 1.5-.5 2-.5 2-.5 1.5-.5 1.5h-1.5-1.5v-2-2-1-1-1-1-1.5-1.5-1-1l.5-.5.5-.5v-1.5-1.5l3-16.5 3-16.5 3-15 3-15 3-14.5 3-14.5 3-15 3-15 5.5-14 5.5-14v-2-2-2.5-2.5-2-2-2.5-2.5-2-2-2-2-2.5-2.5-2-2-.5-.5l-.5-1.5-.5-1.5v-1-1-1-1l-.5.5-.5.5v1.5 1.5l-.5.5-.5.5v1 1l-.5.5-.5.5.5 1 .5 1v1 1 1 1l-.5.5-.5.5-.5.5-.5.5-.5 1-.5 1-.5.5-.5.5v1 1h-1-1l2.5-15 2.5-15 2-1 2-1v-1.5-1.5-2-2-2-2-2.5-2.5-2-2-2.5-2.5-2-2-2.5-2.5-.5-.5l-.5-1-.5-1v-1.5-1.5l-.5.5-.5.5-.5.5-.5.5v1 1l-1 .5-1 .5h-1-1-1-1-1.5-1.5-2-2l-.5.5-.5.5-1 .5-1 .5-1.5.5-1.5.5-1.5-.5-1.5-.5-1.5-.5-1.5-.5-.5-1-.5-1h-1-1l-.5-.5-.5-.5-.5-.5-.5-.5-.5-.5-.5-.5-.5-.5-.5-.5-.5-1-.5-1-.5-.5-.5-.5v-1-1l-.5-.5-.5-.5v-1.5-1.5l-.5-.5-.5-.5v-1-1l.5-.5.5-.5.5-1 .5-1 .5-.5.5-.5v-1-1l.5-.5.5-.5.5-1 .5-1v-2-2l.5-1 .5-1-.5-1.5-.5-1.5v-1-1l-.5.5-.5.5v1 1 1.5 1.5 1 1 1 1l-1 1-1 1-9.5 9.5-9.5 9.5-9.5 17-9.5 17v1.5 1.5 1 1 2 2 1.5 1.5 1 1l-.5 1.5-.5 1.5v1.5 1.5l-.5 1.5-.5 1.5v2 2 2 2 2.5 2.5 2.5 2.5l.5 1 .5 1 .5.5.5.5.5-.5.5-.5.5-.5.5-.5.5-1 .5-1 1.5-17 1.5-17 3 2 3 2v25.5 25.5l2.5 18.5 2.5 18.5.5 16.5.5 16.5 3.5 14.5 3.5 14.5 5.5-3 5.5-3-1.5 23-1.5 23-2.5 28.5-2.5 28.5-1.5 16.5-1.5 16.5.5 16.5.5 16.5" style="fill:#949082;stroke:#949082" />
        <path d="m246 590l7-33 1-17 1-17 3-14.5 3-14.5 2-16 2-16 3-14.5 3-14.5.5-17.5.5-17.5.5-2.5.5-2.5v-2-2-2.5-2.5l-.5-2-.5-2-.5-.5-.5-.5v-.5-.5l-2.5 9.5-2.5 9.5-4.5-14-4.5-14v2.5 2.5l.5 1 .5 1v1.5 1.5 2.5 2.5l.5 2 .5 2v2 2l-.5 1-.5 1-1-.5-1-.5 6.5 8.5 6.5 8.5-2 14.5-2 14.5-4.5 16.5-4.5 16.5-1.5-1-1.5-1-1.5-1-1.5-1 .5-1.5.5-1.5-1-1.5-1-1.5h-1-1l-1.5-.5-1.5-.5v1.5 1.5 1.5 1.5 1.5 1.5l-1.5 26-1.5 26 3 17.5 3 17.5-.5 16.5-.5 16.5" style="fill:#c73c28;stroke:#c73c28" />
        <path d="m194 588l3 1 1-1 1-1h1.5 1.5l-.5-1.5-.5-1.5-1.5-1-1.5-1-1.5.5-1.5.5-1 1.5-1 1.5.5 1 .5 1" style="fill:#2c190d;stroke:#2c190d" />
        <path d="m332 564l1 1 1-2 1-2v-1.5-1.5l.5-.5.5-.5v-1-1-1-1l-1-1-1-1-1 2-1 2-.5 2-.5 2v1.5 1.5l.5 1 .5 1" style="fill:#9b2c00;stroke:#9b2c00" />
        <path d="m362 546h3l.5-1.5.5-1.5v-1.5-1.5l-.5-1.5-.5-1.5-.5-2-.5-2-.5-1.5-.5-1.5 1-1.5 1-1.5 1 .5 1 .5.5-1 .5-1v-3-3-2-2-2.5-2.5l-.5 1.5-.5 1.5-1 1.5-1 1.5-.5 1.5-.5 1.5h-1.5-1.5l.5-1 .5-1 .5-2 .5-2 .5-1.5.5-1.5.5-2 .5-2 .5-1.5.5-1.5 1-2 1-2v-2-2-1.5-1.5l-1 1-1 1v1 1 1.5 1.5l-.5 1.5-.5 1.5-.5 1.5-.5 1.5-.5.5-.5.5v1.5 1.5l-.5 1.5-.5 1.5-.5.5-.5.5v1.5 1.5l-1 1-1 1v1 1l-.5 1-.5 1-.5 1-.5 1 .5 1 .5 1 .5.5.5.5.5.5.5.5.5.5.5.5.5-.5.5-.5v1 1h-.5-.5l-.5.5-.5.5v1 1l-.5.5-.5.5.5 1 .5 1-.5.5-.5.5-.5 1-.5 1 1 1 1 1 .5.5.5.5.5 1.5.5 1.5" style="fill:#7c574d;stroke:#7c574d" />
        <path d="m341 541l3 1 1-1 1-1 1-1.5 1-1.5.5-1.5.5-1.5.5-1.5.5-1.5h-1-1l-1-.5-1-.5h-1.5-1.5l-.5-.5-.5-.5h-1-1l-.5.5-.5.5h-1.5-1.5v.5.5l.5 1 .5 1-.5 1.5-.5 1.5.5 1 .5 1 .5.5.5.5 1.5-.5 1.5-.5v1.5 1.5" style="fill:#c73402;stroke:#c73402" />
        <path d="m348 531h2l.5-.5.5-.5v-.5-.5-1-1l-1.5.5-1.5.5-1.5-1-1.5-1h-2-2l-.5-.5-.5-.5h-1.5-1.5l-1.5 1-1.5 1 1 1.5 1 1.5h1.5 1.5l.5-.5.5-.5h1 1l.5.5.5.5h1.5 1.5l1 .5 1 .5" style="fill:#9b2c00;stroke:#9b2c00" />
        <path d="m351 529v1h1 1l.5-1 .5-1-.5-.5-.5-.5-.5-1-.5-1-1-1-1-1v-.5-.5l-1-.5-1-.5-.5-1-.5-1-1.5-.5-1.5-.5-1.5-1-1.5-1-1-1-1-1-1-1-1-1h-1.5-1.5l-1 1-1 1v2.5 2.5 3 3l.5.5.5.5v-1.5-1.5-1-1-1.5-1.5-1-1l.5-.5.5-.5h1 1l.5.5.5.5.5.5.5.5.5 1 .5 1h1 1l.5.5.5.5.5.5.5.5 1 .5 1 .5.5.5.5.5h1 1l.5.5.5.5 1 1.5 1 1.5v1 1" style="fill:#78352b;stroke:#78352b" />
        <path d="m328 528l1 1h1 1v-1-1l.5-1 .5-1v-3-3-2.5-2.5l1-1 1-1h1.5 1.5l-.5-1.5-.5-1.5-1-1-1-1-1.5 1-1.5 1-.5 1.5-.5 1.5v2.5 2.5 2 2l-.5 2-.5 2-.5 1.5-.5 1.5" style="fill:#7c574d;stroke:#7c574d" />
        <path d="m348 528l3-1-1-1.5-1-1.5-.5-.5-.5-.5h-1-1l-.5-.5-.5-.5-1-.5-1-.5-.5-.5-.5-.5-.5-.5-.5-.5h-1-1l-.5-1-.5-1-.5-.5-.5-.5-.5-.5-.5-.5h-1-1l-.5.5-.5.5v1 1 1.5 1.5 1 1 1.5 1.5l.5.5.5.5 1.5-1 1.5-1h1.5 1.5l.5.5.5.5h2 2l1.5 1 1.5 1" style="fill:#791f07;stroke:#791f07" />
        <path d="m353 524l4 1 .5-1 .5-1 .5-1 .5-1v-1-1l1-1 1-1v-1.5-1.5l.5-.5.5-.5.5-1.5.5-1.5v-1.5-1.5l.5-.5.5-.5.5-1.5.5-1.5.5-1.5.5-1.5v-1.5-1.5-1-1l1-1 1-1v-2.5-2.5-2-2-2-2l-1-.5-1-.5-1.5-1-1.5-1-.5-.5-.5-.5-.5-.5-.5-.5-.5-.5-.5-.5-.5-.5-.5-.5-.5-1.5-.5-1.5-1-.5-1-.5h-1-1l-.5.5-.5.5-1 .5-1 .5 7.5 10 7.5 10-6.5 15.5-6.5 15.5h-1.5-1.5v.5.5l1.5.5 1.5.5" style="fill:#949082;stroke:#949082" />
        <path d="m353 522l13-31-7.5-10-7.5-10-1 1-1 1-1 1.5-1 1.5-1 1-1 1-1 1.5-1 1.5-1 1-1 1-1 .5-1 .5v1 1 1.5 1.5 3 3l-.5 1-.5 1v1 1 2 2l-.5 1-.5 1 .5.5.5.5v2 2l.5 2 .5 2 1 1 1 1 1.5 1 1.5 1 1.5.5 1.5.5-3-13-3-13 8-8 8-8-3 21.5-3 21.5-2-.5-2-.5.5 1 .5 1 1 .5 1 .5h1.5 1.5" style="fill:#bcb8ac;stroke:#bcb8ac" />
        <path d="m351 520l6-43 .5 1 .5 1 .5 2 .5 2v2 2l.5 1.5.5 1.5.5 2 .5 2v2 2l-1 1.5-1 1.5h-1-1v-12-12l-8 8-8 8 3 13 3 13 2 .5 2 .5" style="fill:#dad6c9;stroke:#dad6c9" />
        <path d="m361 520h3l.5-1.5.5-1.5 1-1.5 1-1.5.5-1.5.5-1.5v-2-2-2-2-1.5-1.5l-1 2-1 2-.5 1.5-.5 1.5-.5 2-.5 2-.5 1.5-.5 1.5-.5 2-.5 2-.5 1-.5 1" style="fill:#555043;stroke:#555043" />
        <path d="m267 505l1-1 .5-1.5.5-1.5v-2.5-2.5-2-2l-1-1.5-1-1.5-.5 1.5-.5 1.5-.5 2-.5 2 .5 1.5.5 1.5v2 2l.5 1 .5 1" style="fill:#9b2c00;stroke:#9b2c00" />
        <path d="m13 502l3 1h2 2l.5-2 .5-2v-1-1l-1.5 1-1.5 1h-2-2l-1 1.5-1 1.5h.5.5" style="fill:#3f372b;stroke:#3f372b" />
        <path d="m332 502h3l.5-1.5.5-1.5.5-2 .5-2 .5-1.5.5-1.5.5-1.5.5-1.5v-1.5-1.5l-1.5 1.5-1.5 1.5v2 2h-1-1l.5-2 .5-2v-1.5-1.5l-.5-.5-.5-.5h-.5-.5v1.5 1.5l-.5.5-.5.5v1 1 1.5 1.5 1 1 1 1 2 2" style="fill:#5f5a65;stroke:#5f5a65" />
        <path d="m357 501h2l1-1.5 1-1.5v-2-2l-.5-2-.5-2-.5-1.5-.5-1.5v-2-2l-.5-2-.5-2-.5-1-.5-1v12 12" style="fill:#eeeade;stroke:#eeeade" />
        <path d="m334 493h2v-2-2l1.5-1.5 1.5-1.5v-1-1-.5-.5l1-1.5 1-1.5h-1.5-1.5l-.5 1-.5 1-1 2-1 2v1.5 1.5l-.5 2-.5 2" style="fill:#555043;stroke:#555043" />
        <g style="fill:#7c574d;stroke:#7c574d">
            <path d="m334 485l1 1 1-2 1-2 .5-1 .5-1 .5-1.5.5-1.5.5-1 .5-1v-.5-.5-1.5-1.5l1-1.5 1-1.5v-.5-.5-1.5-1.5l.5-1.5.5-1.5v-2-2l.5-2 .5-2 .5-1.5.5-1.5v-2.5-2.5l1-2 1-2 5-28 5-28v-.5-.5l.5-2.5.5-2.5.5-2 .5-2v-2-2l.5-1.5.5-1.5.5-1.5.5-1.5.5-1.5.5-1.5v-1-1l.5-1 .5-1 .5-1.5.5-1.5 1-.5 1-.5v-1.5-1.5l1-1 1-1v-2.5-2.5-2.5-2.5-2-2l-5.5 14-5.5 14-3 15-3 15-3 14.5-3 14.5-3 15-3 15-3 16.5-3 16.5h.5.5" />
            <path d="m339 483v1l1-.5 1-.5 1-1 1-1 1-1.5 1-1.5 1-1 1-1 1-1.5 1-1.5 1-1 1-1 1-.5 1-.5.5-.5.5-.5h1 1l1 .5 1 .5 2-.5 2-.5-.5-1-.5-1-1-.5-1-.5-.5-.5-.5-.5h-.5-.5l-1 .5-1 .5-1 .5-1 .5-1.5 1-1.5 1-.5 1-.5 1-.5.5-.5.5-1 .5-1 .5v1 1l-.5.5-.5.5-.5.5-.5.5-.5 1-.5 1-1 .5-1 .5-1 1.5-1 1.5" />
        </g>
        <path d="m338 480h3l1-.5 1-.5.5-1 .5-1 .5-.5.5-.5.5-.5.5-.5v-1-1l1-.5 1-.5.5-.5.5-.5.5-1 .5-1-1.5.5-1.5.5-.5.5-.5.5-.5 1-.5 1-1.5.5-1.5.5-1 .5-1 .5-.5 1-.5 1-.5 1.5-.5 1.5" style="fill:#78352b;stroke:#78352b" />
        <path d="m366 479l2 1v-2.5-2.5-1-1l-.5-.5-.5-.5-1-.5-1-.5-.5-.5-.5-.5-1-.5-1-.5-2 .5-2 .5.5 1.5.5 1.5.5.5.5.5.5.5.5.5.5.5.5.5.5.5.5.5 1.5 1 1.5 1" style="fill:#5f5a65;stroke:#5f5a65" />
        <path d="m340 474v1l1-.5 1-.5 1.5-.5 1.5-.5.5-1 .5-1 .5-.5.5-.5 1.5-.5 1.5-.5 1.5-1 1.5-1 1-.5 1-.5 1-.5 1-.5.5-1 .5-1 .5-1 .5-1-.5-.5-.5-.5v-.5-.5l-1.5 1-1.5 1-1 .5-1 .5-.5 1-.5 1-1.5.5-1.5.5-1 .5-1 .5-.5.5-.5.5-.5.5-.5.5h-1.5-1.5l-1 1.5-1 1.5v1.5 1.5" style="fill:#9b372a;stroke:#9b372a" />
        <path d="m325 473l1 1 1.5-23 1.5-23-5.5 3-5.5 3 .5 1 .5 1 1 1 1 1 1.5 1 1.5 1v2 2 2.5 2.5l-.5 1.5-.5 1.5v2.5 2.5l.5 1.5.5 1.5.5 2 .5 2v2 2 2.5 2.5" style="fill:#7c574d;stroke:#7c574d" />
        <path d="m256 472l9-33 2-14.5 2-14.5-6.5-8.5-6.5-8.5.5-12 .5-12 4.5 14 4.5 14 2.5-9.5 2.5-9.5v-3.5-3.5-2-2-2.5-2.5-2-2-2-2-1.5-1.5l-1 1-1 1-.5 2.5-.5 2.5v2.5 2.5l-.5 1.5-.5 1.5h-1-1l-1-.5-1-.5v-1.5-1.5l-1-1-1-1v-1-1-1.5-1.5l-.5-1.5-.5-1.5v-1-1l-.5-.5-.5-.5v-1-1-1.5-1.5l.5-.5.5-.5v-1-1-1-1-1.5-1.5l.5-1 .5-1-1.5.5-1.5.5-.5.5-.5.5-.5 1.5-.5 1.5-1 1-1 1-2 .5-2 .5-1 1-1 1 .5 2 .5 2 1 1 1 1 .5 2 .5 2v2 2l-1.5-.5-1.5-.5-1.5-1-1.5-1v-1-1h-1-1l-.5-.5-.5-.5h-1.5-1.5-1-1l-.5.5-.5.5-1.5.5-1.5.5 4.5 12.5 4.5 12.5-3.5 23.5-3.5 23.5.5 2.5.5 2.5.5 1.5.5 1.5v2.5 2.5l.5 1.5.5 1.5.5 1.5.5 1.5.5.5.5.5v1.5 1.5l.5 1.5.5 1.5v1 1 1.5 1.5l1 2 1 2 1.5.5 1.5.5h1 1l1 1.5 1 1.5-.5 1.5-.5 1.5 1.5 1 1.5 1 1.5 1 1.5 1" style="fill:#b45048;stroke:#b45048" />
        <path d="m367 472l1 1v-3-3-2.5-2.5-.5-.5l-1 .5-1 .5-.5-.5-.5-.5-1 .5-1 .5-.5.5-.5.5-.5.5-.5.5-1 1-1 1 1 .5 1 .5.5 1 .5 1 1 .5 1 .5.5.5.5.5 1 .5 1 .5" style="fill:#949082;stroke:#949082" />
        <path d="m243 469l1 1v-1.5-1.5-1.5-1.5-1.5-1.5l-1-2-1-2v-1.5-1.5-1-1l-.5-1.5-.5-1.5v-1.5-1.5l-.5-.5-.5-.5-.5-1.5-.5-1.5-.5-1.5-.5-1.5v-2.5-2.5l-.5-1.5-.5-1.5-.5-2.5-.5-2.5v1.5 1.5 1.5 1.5l.5 2.5.5 2.5v2.5 2.5l.5 1.5.5 1.5.5 1.5.5 1.5.5 2 .5 2 .5 1.5.5 1.5v2.5 2.5l.5 1.5.5 1.5v2.5 2.5l.5.5.5.5" style="fill:#9b372a;stroke:#9b372a" />
        <g style="fill:#b45048;stroke:#b45048">
            <path d="m342 467v1h1.5 1.5l.5-.5.5-.5.5-.5.5-.5 1-.5 1-.5v-.5-.5l-1-1.5-1-1.5v-2.5-2.5l.5-1.5.5-1.5.5-2 .5-2v-1.5-1.5l-1 .5-1 .5.5-2 .5-2-.5-1-.5-1-1 2-1 2v2.5 2.5l-.5 1.5-.5 1.5-.5 2-.5 2v2 2l-.5 1.5-.5 1.5v1.5 1.5" />
            <path d="m358 465l1 1 1-1 1-1 .5-.5.5-.5.5-.5.5-.5 1-.5 1-.5.5.5.5.5 1-.5 1-.5v-19.5-19.5-18-18-17.5-17.5-1-1l-1 1-1 1v1.5 1.5 1.5 1.5l-.5 1.5-.5 1.5v1 1l.5 1 .5 1-.5 1.5-.5 1.5.5 1.5.5 1.5v1 1 1.5 1.5l-.5 1.5-.5 1.5v1 1l-.5 1-.5 1v2 2 1 1l-.5 1-.5 1-1 18.5-1 18.5-1 17-1 17-.5 1-.5 1-.5 1-.5 1h.5.5" />
        </g>
        <path d="m349 464v1l1.5-.5 1.5-.5.5-1 .5-1v-.5-.5-2-2-2-2l-.5-2-.5-2-.5-1.5-.5-1.5.5-2 .5-2v-2-2l-.5 1-.5 1-1 1.5-1 1.5v1.5 1.5 1.5 1.5l-.5 2-.5 2-.5 1.5-.5 1.5v2.5 2.5l1 1.5 1 1.5" style="fill:#c73c28;stroke:#c73c28" />
        <path d="m353 461v1l1-.5 1-.5 1.5-1 1.5-1 1-22.5 1-22.5-.5 1.5-.5 1.5v1 1 1 1 1 1 1.5 1.5 1 1l-.5.5-.5.5v1 1l-.5.5-.5.5v1.5 1.5l-.5.5-.5.5-.5.5-.5.5h-1-1l-.5-1.5-.5-1.5v2 2 2 2l-.5 2-.5 2 .5 1.5.5 1.5.5 2 .5 2v2 2 2 2" style="fill:#c73402;stroke:#c73402" />
        <path d="m358 460l1 1 1-17 1-17 1-18.5 1-18.5-1 1-1 1v3 3l-.5 1.5-.5 1.5v2.5 2.5 2 2 2 2l-1 22.5-1 22.5v.5.5" style="fill:#c73c28;stroke:#c73c28" />
        <path d="m347 447l2-1v-1.5-1.5l1-1.5 1-1.5.5-1 .5-1v-2-2l3.5-24.5 3.5-24.5h-1-1l-5 28-5 28 .5 1 .5 1-.5 2-.5 2" style="fill:#9b372a;stroke:#9b372a" />
        <path d="m353 437h2l.5-.5.5-.5.5-.5.5-.5v-1.5-1.5l.5-.5.5-.5v-1-1l.5-.5.5-.5v-1-1-1.5-1.5-1-1-1-1-1-1l.5-1.5.5-1.5v-2-2-2-2-2.5-2.5l.5-1.5.5-1.5v-3-3-.5-.5l.5-1 .5-1v-1.5-1.5l.5-1.5.5-1.5v-1-1-1.5-1.5-2-2h-1-1v1.5 1.5 1 1 1.5 1.5l-1 1.5-1 1.5-3.5 24.5-3.5 24.5.5 1.5.5 1.5" style="fill:#9b2c00;stroke:#9b2c00" />
        <path d="m161 434l37-5 17 .5 17 .5v-1-1-1.5-1.5-1.5-1.5-1-1-1-1-1-1-1.5-1.5-1-1l-.5-1.5-.5-1.5v-.5-.5l-.5-1.5-.5-1.5v-1-1-1-1-1.5-1.5l-1.5-.5-1.5-.5h-1-1-1.5-1.5l-31.5.5-31.5.5 12 2.5 12 2.5-13 1.5-13 1.5 2 14.5 2 14.5" style="fill:#3f372b;stroke:#3f372b" />
        <path d="m235 431l1 1v-1.5-1.5-1.5-1.5l-.5-.5-.5-.5v-1.5-1.5-2-2l-.5-1.5-.5-1.5v-2.5-2.5l-1-1.5-1-1.5-.5.5-.5.5.5 1.5.5 1.5v1 1 1.5 1.5 1 1 1 1 1 1 1.5 1.5 1.5 1.5l1 .5 1 .5.5 1 .5 1" style="fill:#78352b;stroke:#78352b" />
        <path d="m235 425l1 1 3.5-23.5 3.5-23.5-4.5-12.5-4.5-12.5h-.5-.5l-1 .5-1 .5h-1.5-1.5l-1 1-1 1 .5.5.5.5v1 1l.5 2 .5 2h.5.5l.5-1 .5-1 .5.5.5.5.5.5.5.5v1.5 1.5l.5.5.5.5v1 1l.5.5.5.5.5 2 .5 2 .5 1.5.5 1.5v1 1l-.5 1-.5 1-.5-.5-.5-.5v1 1l.5.5.5.5-.5.5-.5.5v1.5 1.5l.5.5.5.5-.5.5-.5.5-1 .5-1 .5-1 1-1 1h-1-1l-.5.5-.5.5h-1.5-1.5l-.5.5-.5.5h1 1 1 1 1.5 1.5l1 1 1 1v1 1 1.5 1.5 2.5 2.5l1 1.5 1 1.5v2.5 2.5l.5 1.5.5 1.5v2 2 1.5 1.5" style="fill:#7c574d;stroke:#7c574d" />
        <path d="m275 413l2-58-.5-2.5-.5-2.5-1 .5-1 .5v1 1l-.5.5-.5.5v1.5 1.5 1 1 1 1 1 1 1.5 1.5 1 1 1 1 1 1l-.5 1-.5 1v1 1 2 2l.5 2 .5 2v2.5 2.5 2 2l-.5 2.5-.5 2.5.5 1.5.5 1.5.5 1 .5 1v1 1 1 1 1 1l.5 2 .5 2" style="fill:#9b2c00;stroke:#9b2c00" />
        <path d="m231 407v1l.5-.5.5-.5v-2.5-2.5-1.5-1.5-1-1l-1-1-1-1h-1.5-1.5-1-1-1-1l.5-.5.5-.5h1.5 1.5l.5-.5.5-.5h1 1l1-1 1-1v-.5-.5l-.5-1-.5-1v-1.5-1.5-2-2l-.5-2-.5-2v-2-2l-1-1.5-1-1.5v-3-3l-.5-2-.5-2-1-.5-1-.5-1.5.5-1.5.5 3.5 14.5 3.5 14.5-15.5 2.5-15.5 2.5-22 .5-22 .5 34 .5 34 .5h1.5 1.5 1 1l1.5.5 1.5.5v1.5 1.5 1 1 1 1l.5 1.5.5 1.5" style="fill:#949082;stroke:#949082" />
        <path d="m130 398l3 1h1 1 1 1 1 1 2 2 1.5 1.5l.5-.5.5-.5h2 2l1-.5 1-.5h1 1 2 2v-.5-.5h-1.5-1.5l-1.5-.5-1.5-.5h.5.5l22-.5 22-.5 15.5-2.5 15.5-2.5-3.5-14.5-3.5-14.5h-2-2l-.5.5-.5.5-1 .5-1 .5h-1-1l-.5.5-.5.5-.5.5-.5.5h-1.5-1.5l-.5.5-.5.5h-1-1l-.5.5-.5.5-1 .5-1 .5-1.5.5-1.5.5-1.5-.5-1.5-.5-2 .5-2 .5-.5.5-.5.5h-1-1-1-1l-.5.5-.5.5h-1.5-1.5-1-1-1-1l-.5.5-.5.5h-1.5-1.5l-.5.5-.5.5h-1-1-1-1-1-1-1.5-1.5-1-1-1-1l-1.5-.5-1.5-.5-.5-.5-.5-.5-15-4.5-15-4.5-13-1.5-13-1.5 2.5 13.5 2.5 13.5 12 6.5 12 6.5" style="fill:#bcb8ac;stroke:#bcb8ac" />
        <path d="m159 396v1l31.5-.5 31.5-.5h-31.5-31.5" style="fill:#555043;stroke:#555043" />
        <path d="m153 395l3 1h1.5 1.5 31.5 31.5l-34-.5-34-.5h-.5-.5" style="fill:#7c574d;stroke:#7c574d" />
        <path d="m130 394l33-4 16.5 1.5 16.5 1.5 16-2 16-2-4-13.5-4-13.5-13 5-13 5-15 2.5-15 2.5-6-2.5-6-2.5.5 1 .5 1 .5.5.5.5.5.5.5.5h-1-1l-1.5-3-1.5-3-1.5-1.5-1.5-1.5-2-.5-2-.5-1.5-.5-1.5-.5-2-.5-2-.5h-2-2l-2 .5-2 .5-1.5.5-1.5.5h-2-2l-1.5-1-1.5-1h-1-1l1 1 1 1 1 .5 1 .5h1 1 1 1 1 1l-1 .5-1 .5-.5.5-.5.5h-1-1l-.5.5-.5.5-1.5-.5-1.5-.5-1-.5-1-.5h-2-2l.5-2 .5-2h-2-2-1-1l.5 1 .5 1 .5 1.5.5 1.5 1 1.5 1 1.5v2 2l1 1.5 1 1.5 1 1 1 1 1.5.5 1.5.5h1.5 1.5l1 1 1 1-1 1.5-1 1.5-1.5-.5-1.5-.5h-1.5-1.5l2 1 2 1 2 .5 2 .5 1 1 1 1 1.5.5 1.5.5 1.5 1 1.5 1" style="fill:#dad6c9;stroke:#dad6c9" />
        <g style="fill:#9b372a;stroke:#9b372a">
            <path d="m258 394l1-2v-2-2l-1-.5-1-.5-.5-1-.5-1-.5-.5-.5-.5v-1-1-1.5-1.5l-.5-1.5-.5-1.5v-1-1l.5-1 .5-1 1 1 1 1v-2.5-2.5l-.5 12-.5 12 1 .5 1 .5" />
            <path d="m291 394v1l1-.5 1-.5v-2.5-2.5-2-2l.5-2 .5-2 .5-1.5.5-1.5.5-2 .5-2v-2-2l.5-2 .5-2v-2-2l1-2 1-2-3 1-3 1-1 17-1 17" />
        </g>
        <path d="m132 393l24-9-13 3-13 3 1 1.5 1 1.5" style="fill:#eeeade;stroke:#eeeade" />
        <path d="m5 392l13-6-7-1-7-1 .5 4 .5 4" style="fill:#3f372b;stroke:#3f372b" />
        <path d="m361 391v1l1-1 1-1 .5-1 .5-1v-1-1-2-2l.5-1 .5-1v-1-1l.5-1.5.5-1.5v-1.5-1.5-1-1l-.5-1.5-.5-1.5.5-1.5.5-1.5-.5-1-.5-1v-1-1l.5-1.5.5-1.5v-1.5-1.5l-1 .5-1 .5-.5 1.5-.5 1.5-.5 1-.5 1v1 1l-.5 1.5-.5 1.5v1.5 1.5 3 3h1 1v2 2 1.5 1.5 1 1l-.5 1.5-.5 1.5v1.5 1.5l-.5 1-.5 1" style="fill:#9b372a;stroke:#9b372a" />
        <path d="m232 390v1l1-.5 1-.5.5-.5.5-.5-.5-.5-.5-.5v-1.5-1.5l.5-.5.5-.5-.5-.5-.5-.5v-1-1l.5.5.5.5.5-1 .5-1v-1-1l-.5-1.5-.5-1.5-.5 1-.5 1h-.5-.5l-.5-2-.5-2-.5-1.5-.5-1.5-1-1-1-1v-2-2h-.5-.5v3 3l1 1.5 1 1.5v2 2l.5 2 .5 2v2 2 1.5 1.5l.5 1 .5 1" style="fill:#5f5a65;stroke:#5f5a65" />
        <path d="m257 387l2 1-.5-2-.5-2v-2.5-2.5-1.5-1.5l-.5-1-.5-1-1-1-1-1-.5 1-.5 1v1 1l.5 1.5.5 1.5v1.5 1.5 1 1l.5.5.5.5.5 1 .5 1" style="fill:#9b2c00;stroke:#9b2c00" />
        <path d="m117 386l3 1 1-1.5 1-1.5-1-1-1-1h-1.5-1.5l-1.5-.5-1.5-.5-1-1-1-1-1-1.5-1-1.5v-2-2l-1-1.5-1-1.5-.5-1.5-.5-1.5-.5-1-.5-1-.5 1.5-.5 1.5.5 1.5.5 1.5.5 2 .5 2v2 2l.5 2 .5 2 1.5.5 1.5.5 1.5.5 1.5.5v1 1h1.5 1.5" style="fill:#eeeade;stroke:#eeeade" />
        <path d="m357 384v1h1 1l1-1.5 1-1.5v-1.5-1.5-1-1-1.5-1.5-3-3-1.5-1.5l-.5 1.5-.5 1.5-.5 1.5-.5 1.5v2 2l-.5 2-.5 2-.5 2.5-.5 2.5" style="fill:#78352b;stroke:#78352b" />
        <path d="m271 379l1 1v-2-2-1-1l.5-1 .5-1v-1-1-1-1-1-1-1.5-1.5-1-1-1-1-1-1-1.5-1.5l.5-.5.5-.5v-1-1l1-.5 1-.5v-1.5-1.5l-1-1.5-1-1.5.5-2 .5-2-1.5-1-1.5-1-.5 1-.5 1v1.5 1.5 1 1 1.5 1.5 1.5 1.5 1.5 1.5 2 2 2 2 2.5 2.5 2 2 3.5 3.5.5.5" style="fill:#9b372a;stroke:#9b372a" />
        <path d="m233 377h1l.5-1 .5-1-.5-2-.5-2-.5-.5-.5-.5v-1-1l-.5-.5-.5-.5v-1.5-1.5l-.5-.5-.5-.5-.5-.5-.5-.5-.5 1-.5 1v2 2l1 1 1 1 .5 1.5.5 1.5.5 2 .5 2" style="fill:#555043;stroke:#555043" />
        <path d="m153 376h2l-.5-.5-.5-.5-.5-.5-.5-.5-.5-1-.5-1-1-1-1-1 1.5 3 1.5 3" style="fill:#eeeade;stroke:#eeeade" />
        <path d="m158 371l3 1h1 1 1 1 1.5 1.5 1 1 1 1 1 1l.5-.5.5-.5h1.5 1.5l.5-.5.5-.5h1 1 1 1 1.5 1.5l.5-.5.5-.5h1 1 1 1l.5-.5.5-.5 2-.5 2-.5 1-1 1-1 2-.5 2-.5 1.5-.5 1.5-.5 2-.5 2-.5 1.5-.5 1.5-.5 1.5-1 1.5-1 1.5-.5 1.5-.5h2 2l2-1.5 2-1.5v-.5-.5l10-8.5 10-8.5 7.5-9 7.5-9 4.5-13.5 4.5-13.5 6.5-11 6.5-11 6-12 6-12 13-12 13-12 3.5-11 3.5-11-14.5-7-14.5-7 .5 1.5.5 1.5h-1.5-1.5l-1.5-.5-1.5-.5h-1.5-1.5l-1-1-1-1-1.5-.5-1.5-.5h-1-1l-.5-1-.5-1-1-1-1-1h-1-1l.5-1 .5-1 1.5-.5 1.5-.5.5-.5.5-.5v-1.5-1.5-2-2l1-1 1-1-4-13.5-4-13.5-.5-16.5-.5-16.5 12-4 12-4 6.5-6 6.5-6 .5 5.5.5 5.5 10 7.5 10 7.5 6 11 6 11-2 13.5-2 13.5 12.5 2.5 12.5 2.5v-19.5-19.5-17.5-17.5l-13-5-13-5-7 2.5-7 2.5-14.5-1.5-14.5-1.5-12 7.5-12 7.5 6.5-12 6.5-12 11.5-6 11.5-6 14.5-1.5 14.5-1.5 14 6 14 6v-20-20-17-17h-.5-.5-18-18-17.5-17.5-18-18-18-18-17.5-17.5-18-18-17.5-17.5-18-18-17.5-17.5-18-18-4.5-4.5l-1 25-1 25v19.5 19.5 17.5 17.5 18 18 17.5 17.5 18 18 2.5 2.5l19.5-2.5 19.5-2.5 15.5-2 15.5-2 14.5-2.5 14.5-2.5 14.5-2 14.5-2 2 12.5 2 12.5-1 15.5-1 15.5-1 16-1 16-.5 17-.5 17 9 8 9 8 6 7 6 7 .5.5.5.5" style="fill:#3f372b;stroke:#3f372b" />
        <path d="m117 369l3 1 .5-.5.5-.5h1 1l.5-.5.5-.5 1-.5 1-.5h-1-1-1-1-1-1l-1-.5-1-.5-1-1-1-1h-2-2l-.5 2-.5 2h2 2l1 .5 1 .5" style="fill:#eeeade;stroke:#eeeade" />
        <path d="m180 367l3 1h2 2l2-.5 2-.5 1-1 1-1-2-.5-2-.5-1.5.5-1.5.5-2 .5-2 .5-1 .5-1 .5" style="fill:#2c190d;stroke:#2c190d" />
        <path d="m196 367l3 1 1.5-.5 1.5-.5 1-.5 1-.5.5-.5.5-.5h1 1l.5-.5.5-.5h1.5 1.5l.5-.5.5-.5.5-.5.5-.5h1 1l1-.5 1-.5.5-.5.5-.5h2 2l1.5-.5 1.5-.5 1 .5 1 .5v-1-1l-.5-.5-.5-.5 1-1 1-1h-1-1l-2 1.5-2 1.5h-2-2l-1.5.5-1.5.5-1.5 1-1.5 1-1.5.5-1.5.5-2 .5-2 .5-1.5.5-1.5.5-2 .5-2 .5-1 1-1 1" style="fill:#5f5a65;stroke:#5f5a65" />
        <path d="m265 366h2l.5-1.5.5-1.5v-2.5-2.5l.5-2.5.5-2.5v-.5-.5l-4-9-4-9-.5 1-.5 1v1.5 1.5 1 1 1 1l-.5.5-.5.5v1.5 1.5 1 1l.5.5.5.5v1 1l.5 1.5.5 1.5v1.5 1.5 1 1l1 1 1 1v1.5 1.5l1 .5 1 .5" style="fill:#949082;stroke:#949082" />
        <path d="m249 357l3 1v-2-2l-.5-2-.5-2-1-1-1-1-.5-2-.5-2 1-1 1-1 2-.5 2-.5 1-1 1-1 .5-1.5.5-1.5-1.5 1-1.5 1-1.5.5-1.5.5-1 1.5-1 1.5-1 1-1 1-1 1-1 1-1.5 1-1.5 1-1 1-1 1-1.5 1-1.5 1-2 1-2 1h.5.5l1.5-.5 1.5-.5.5-.5.5-.5h1 1 1.5 1.5l.5.5.5.5h1 1v1 1l1.5 1 1.5 1" style="fill:#9b372a;stroke:#9b372a" />
        <path d="m84 355l13-22 .5-17.5.5-17.5.5-15.5.5-15.5-7-5.5-7-5.5-15 3-15 3-13.5 3-13.5 3-14 5-14 5v19 19 16.5 16.5l26 1.5 26 1.5 16 1.5 16 1.5" style="fill:#3f372b;stroke:#3f372b" />
        <path d="m226 354v1h1 1 1.5 1.5l1-.5 1-.5 2-1 2-1 1.5-1 1.5-1 1-1 1-1 1.5-1 1.5-1 1-1 1-1 1-1 1-1 1-1.5 1-1.5 1.5-.5 1.5-.5 1.5-1 1.5-1 .5-.5.5-.5 4.5-14.5 4.5-14.5 6-11.5 6-11.5 5.5-12.5 5.5-12.5 15.5-17 15.5-17v-.5-.5-.5-.5l-13 12-13 12-6 12-6 12-6.5 11-6.5 11-4.5 13.5-4.5 13.5-7.5 9-7.5 9-10 8.5-10 8.5" style="fill:#78352b;stroke:#78352b" />
        <g style="fill:#7c574d;stroke:#7c574d">
            <path d="m269 352v1l1-1 1-1v-1.5-1.5-1.5-1.5-1-1-1.5-1.5l.5-1 .5-1-2.5-13.5-2.5-13.5 6-10 6-10 7-8.5 7-8.5 9.5-17 9.5-17 9.5-9.5 9.5-9.5-1.5-1-1.5-1-2 .5-2 .5-1 1-1 1-.5 1-.5 1-15.5 17-15.5 17-5.5 12.5-5.5 12.5-6 11.5-6 11.5-4.5 14.5-4.5 14.5 1.5-.5 1.5-.5 4 9 4 9" />
            <path d="m304 334l1 1v-25.5-25.5l-3-2-3-2-1.5 17-1.5 17 .5 1.5.5 1.5.5-.5.5-.5.5 2 .5 2-.5 1.5-.5 1.5v2.5 2.5l1.5.5 1.5.5 1-.5 1-.5v1 1l.5 2 .5 2" />
            <path d="m283 318h2l.5-.5.5-.5v-1-1h1 1v1.5 1.5l.5.5.5.5v-1-1l1-1 1-1v-2.5-2.5-2.5-2.5-2-2-2-2l.5-1.5.5-1.5-2.5 1.5-2.5 1.5-2 10.5-2 10.5" />
        </g>
        <g style="fill:#9e98a3;stroke:#9e98a3">
            <path d="m359 313h2v-1-1l.5-.5.5-.5.5-1 .5-1 .5-.5.5-.5.5-.5.5-.5v-1-1-1-1l-.5-1-.5-1 .5-.5.5-.5v-1-1l.5-.5.5-.5v-1.5-1.5l.5-.5.5-.5v1 1 1 1l.5 1.5.5 1.5v-1.5-1.5-2-2-2.5-2.5-2-2-1-1l-2 1-2 1-2.5 15-2.5 15" />
            <path d="m343 248l3 1 1.5-.5 1.5-.5 1-.5 1-.5.5-.5.5-.5h2 2 1.5 1.5 1 1 1 1l1-.5 1-.5v-1-1l.5-.5.5-.5.5-.5.5-.5v1.5 1.5l.5 1 .5 1v-1.5-1.5-2-2-.5-.5l-1.5.5-1.5.5-1.5.5-1.5.5-2 .5-2 .5-1.5.5-1.5.5h-2.5-2.5l-1.5.5-1.5.5-1 .5-1 .5-1.5-.5-1.5-.5v-1-1l-.5-.5-.5-.5-1-.5-1-.5h-1-1l-.5-.5-.5-.5-.5-.5-.5-.5-.5-1-.5-1-.5-.5-.5-.5-.5-.5-.5-.5-.5-.5-.5-.5v-1.5-1.5l.5-.5.5-.5.5-.5.5-.5v-1-1l.5-.5.5-.5v-2-2l-.5 1-.5 1-.5.5-.5.5v1 1l-.5.5-.5.5-.5 1-.5 1-.5.5-.5.5v1 1l.5.5.5.5v1.5 1.5l.5.5.5.5v1 1l.5.5.5.5.5 1 .5 1 .5.5.5.5.5.5.5.5.5.5.5.5.5.5.5.5h1 1l.5 1 .5 1 1.5.5 1.5.5" />
        </g>
        <path d="m345 244l2-1 1.5-.5 1.5-.5h2.5 2.5l1.5-.5 1.5-.5 2-.5 2-.5 1.5-.5 1.5-.5 1.5-.5 1.5-.5v-2-2-1-1h-1.5-1.5l-1.5.5-1.5.5-1.5.5-1.5.5-2 .5-2 .5-1.5.5-1.5.5h-2.5-2.5l-1.5-.5-1.5-.5-2-.5-2-.5-1-1-1-1-1-1-1-1-.5-2-.5-2v-2-2l.5-2 .5-2-.5-2.5-.5-2.5v.5.5l-.5 1-.5 1v2 2 2 2l-.5.5-.5.5v1 1l-.5.5-.5.5-.5.5-.5.5v1.5 1.5l.5.5.5.5.5.5.5.5.5.5.5.5.5 1 .5 1 .5.5.5.5.5.5.5.5h1 1l1 .5 1 .5.5.5.5.5v1 1l1.5.5 1.5.5" style="fill:#bcb8ac;stroke:#bcb8ac" />
        <path d="m344 235l3 1h2.5 2.5l1.5-.5 1.5-.5 2-.5 2-.5 1.5-.5 1.5-.5 1.5-.5 1.5-.5h1.5 1.5v-1-1l-11.5.5-11.5.5h-1.5-1.5l-1-.5-1-.5-1-1-1-1v-1-1-1.5-1.5-2-2l-.5-.5-.5-.5v-1.5-1.5-2-2-1-1l-.5-1-.5-1-.5-1.5-.5-1.5-1-1.5-1-1.5-1-2-1-2v1.5 1.5l.5 1.5.5 1.5 1 1.5 1 1.5.5 1.5.5 1.5v2 2l.5 2.5.5 2.5-.5 2-.5 2v2 2l.5 2 .5 2 1 1 1 1 1 1 1 1 2 .5 2 .5" style="fill:#dad6c9;stroke:#dad6c9" />
        <path d="m345 231l23-1v-1.5-1.5-2-2-2.5-2.5-2-2-2.5-2.5-2-2-2-2-2.5-2.5-2-2-2.5-2.5-1.5-1.5l-.5 2-.5 2v2 2l-.5.5-.5.5v-1.5-1.5-1.5-1.5-1-1-1-1-1-1-1.5-1.5-1-1l-.5-.5-.5-.5h-2-2l-1 .5-1 .5-.5.5-.5.5-.5.5-.5.5-1 .5-1 .5-1 1-1 1-1 .5-1 .5-1 2-1 2-1.5.5-1.5.5-1.5 1-1.5 1-1 1-1 1-1.5 1-1.5 1-1.5.5-1.5.5-2 1.5-2 1.5 1 2 1 2 1 1.5 1 1.5.5 1.5.5 1.5.5 1 .5 1v1 1 2 2 1.5 1.5l.5.5.5.5v2 2 1.5 1.5 1 1l1 1 1 1 1 .5 1 .5h1.5 1.5" style="fill:#eeeade;stroke:#eeeade" />
        <path d="m321 223v1l.5-1 .5-1 1-1 1-1 2-.5 2-.5 1.5 1 1.5 1 1-1 1-1v-1-1-1-1-1.5-1.5-1-1l.5-.5.5-.5v1 1l.5 1.5.5 1.5v-.5-.5-2-2l-.5-1.5-.5-1.5-1-1.5-1-1.5-.5-1.5-.5-1.5v-1.5-1.5l-.5-.5-.5-.5-14.5-7-14.5-7-8-17.5-8-17.5v-.5-.5l-2-18-2-18 13.5-3.5 13.5-3.5 15.5 13 15.5 13 .5 1 .5 1 .5.5.5.5v1 1 1 1l.5.5.5.5.5 1 .5 1v1 1 1 1 1 1l.5 1 .5 1v1 1l.5.5.5.5v1 1l-.5.5-.5.5v1.5 1.5l-.5.5-.5.5v1 1l-1 .5-1 .5-1.5.5-1.5.5-1 1-1 1-1.5 1-1.5 1-.5 2-.5 2-.5 1-.5 1v2.5 2.5l.5 1.5.5 1.5 1.5 1 1.5 1 1 .5 1 .5 1 .5 1 .5 1 .5 1 .5h2 2l2-1 2-1h1 1l1-.5 1-.5 1-1 1-1 1-.5 1-.5.5-.5.5-.5.5-.5.5-.5 1-.5 1-.5 2-1 2-1h1.5 1.5v-2.5-2.5l-12.5-2.5-12.5-2.5 2-13.5 2-13.5-6-11-6-11-10-7.5-10-7.5-.5-5.5-.5-5.5-6.5 6-6.5 6-12 4-12 4 .5 16.5.5 16.5 4 13.5 4 13.5.5 1 .5 1 .5.5.5.5.5.5.5.5v1 1l.5.5.5.5.5 1 .5 1 .5.5.5.5.5.5.5.5v1 1l1 .5 1 .5.5.5.5.5.5.5.5.5 1 1 1 1 14.5 7 14.5 7-3.5 11-3.5 11v.5.5" style="fill:#555043;stroke:#555043" />
        <path d="m330 196l1 1 2-1.5 2-1.5 1.5-.5 1.5-.5 1.5-1 1.5-1 1-1 1-1 1.5-1 1.5-1 1.5-.5 1.5-.5 1-2 1-2h-1-1l-1 1-1 1-1.5 1-1.5 1-1.5.5-1.5.5-1 1.5-1 1.5-1.5.5-1.5.5h-1-1l-1-1.5-1-1.5 1.5-.5 1.5-.5 2-.5 2-.5-1-2-1-2-1-.5-1-.5-1.5-1-1.5-1-.5-1.5-.5-1.5v-2.5-2.5l.5-1 .5-1-9 12-9 12-1.5-.5-1.5-.5-1-.5-1-.5v-1-1l-.5-.5-.5-.5-.5-.5-.5-.5-1-.5-1-.5v-1-1l-.5-.5-.5-.5-1.5-.5-1.5-.5 14.5 7 14.5 7" style="fill:#dad6c9;stroke:#dad6c9" />
        <path d="m314 193l18-24 .5-2 .5-2 1.5-1 1.5-1 1-1 1-1 1.5-.5 1.5-.5v-.5-.5l.5-1 .5-1 .5-1.5.5-1.5v-2.5-2.5l-.5-1.5-.5-1.5-.5-2-.5-2v-2-2l-.5-2-.5-2-.5-2.5-.5-2.5-15.5-13-15.5-13-13.5 3.5-13.5 3.5 2 18.5 2 18.5 8 17.5 8 17.5 1.5.5 1.5.5.5.5.5.5v1 1l1 .5 1 .5.5.5.5.5.5.5.5.5v1 1l1 .5 1 .5 1.5.5 1.5.5" style="fill:#eeeade;stroke:#eeeade" />
        <path d="m366 193l1-1v-2-2l.5-2 .5-2v-2-2-2.5-2.5-1-1h-1.5-1.5l-2 1-2 1h2 2l.5.5.5.5v1 1 1.5 1.5 1 1 1 1 1 1 1.5 1.5 1.5 1.5" style="fill:#dad6c9;stroke:#dad6c9" />
        <path d="m262 191l18-19-4-2-4-2-6 10-6 10 1 1.5 1 1.5" style="fill:#555043;stroke:#555043" />
        <path d="m334 191h2l1.5-.5 1.5-.5 1-1.5 1-1.5 1.5-.5 1.5-.5 1.5-1 1.5-1 1-1 1-1-2 1-2 1h-2-2l-1-.5-1-.5-1-.5-1-.5 1 2 1 2-2 .5-2 .5-1.5.5-1.5.5 1 1.5 1 1.5" style="fill:#bcb8ac;stroke:#bcb8ac" />
        <path d="m297 189h3l-.5-1.5-.5-1.5-1-1-1-1-.5-.5-.5-.5-.5-.5-.5-.5-1-.5-1-.5v-1-1l-.5-.5-.5-.5-.5-.5-.5-.5-.5-1-.5-1-.5-.5-.5-.5v-1-1l-.5-.5-.5-.5-.5-.5-.5-.5-.5-1-.5-1-1 1-1 1v2 2 1.5 1.5l-.5.5-.5.5-1.5.5-1.5.5-.5 1-.5 1h1 1l1 1 1 1 .5 1 .5 1h1 1l1.5.5 1.5.5 1 1 1 1h1.5 1.5l1.5.5 1.5.5" style="fill:#2c190d;stroke:#2c190d" />
        <g style="fill:#dad6c9;stroke:#dad6c9">
            <path d="m301 178l3 1 1.5-.5 1.5-.5-.5-2-.5-2-1-1-1-1-1.5 1-1.5 1-.5 1.5-.5 1.5.5.5.5.5" />
            <path d="m341 159v1l1-.5 1-.5v-1-1l.5-.5.5-.5v-1.5-1.5l.5-.5.5-.5v-1-1l-.5-.5-.5-.5v-1-1l-.5-1-.5-1v-1-1-1-1-1-1l-.5-1-.5-1-.5-.5-.5-.5v-1-1-1-1l-.5-.5-.5-.5-.5-1-.5-1 .5 2.5.5 2.5.5 2 .5 2v2 2l.5 2 .5 2 .5 1.5.5 1.5v2.5 2.5l-.5 1.5-.5 1.5-.5 1-.5 1" />
            <path d="m285 146v1l-2-18.5-2-18.5 2 18 2 18" />
        </g>
        <g style="fill:#555043;stroke:#555043">
            <path d="m355 145l8-25-6.5-7.5-6.5-7.5-11.5-1.5-11.5-1.5 10.5 6 10.5 6 2 13 2 13 1.5 2.5 1.5 2.5" />
            <path d="m267 125l3 1v-2-2l-1-1.5-1-1.5-1.5-.5-1.5-.5h-1.5-1.5l1 1 1 1 1 1.5 1 1.5.5 1 .5 1" />
        </g>
        <g style="fill:#2c190d;stroke:#2c190d">
            <path d="m273 119h2v-2-2l-.5-2-.5-2-1-1-1-1-1.5-1-1.5-1h-1-1l1 1.5 1 1.5v2 2l1 1 1 1 1 1.5 1 1.5" />
            <path d="m275 101l24-15 14.5 1.5 14.5 1.5 7-2.5 7-2.5 13 5 13 5v-1.5-1.5-2-2-2-2-2.5-2.5-2-2l-14-6-14-6-14.5 1.5-14.5 1.5-11.5 6-11.5 6-6.5 12-6.5 12" />
            <path d="m0 49v1l1-25 1-25h-1-1v18 18 6.5 6.5" />
        </g>
    </g>
</svg>
