<svg xmlns="http://www.w3.org/2000/svg" viewBox="0 0 872 720">
    <path d="m0 0h872v720h-872z" style="fill:#25150a" />
    <g style="stroke-linejoin:round;stroke-width:.7">
        <path d="m871 720h1v-1.5-1.5-2-2-2.5-2.5-2-2-2.5-2.5-2-2-2.5-2.5-1.5-1.5h-.5-.5l-36 5-36 5-.5.5-.5.5-1.5.5-1.5.5-1.5.5-1.5.5v2.5 2.5l-1 1-1 1-1 1-1 1-.5.5-.5.5v1 1l1.5.5 1.5.5.5.5.5.5.5.5.5.5h1 1l1 .5 1 .5h1 1l.5-.5.5-.5-.5 1.5-.5 1.5-1 1-1 1h1.5 1.5 1 1l8-1 8-1-2.5 1-2.5 1h29.5 29.5" style="fill:#753529;stroke:#753529" />
        <path d="m871 687h1v-1.5-1.5-2-2-1-1h-.5-.5l-12.5-12.5-12.5-12.5-14.5-16-14.5-16-15-.5-15-.5-15-3.5-15-3.5-12 6-12 6-.5 1.5-.5 1.5 1 1 1 1v1.5 1.5l-1 1-1 1-2 .5-2 .5-1.5-.5-1.5-.5-1-1.5-1-1.5-1.5-.5-1.5-.5-.5-1.5-.5-1.5-1-1.5-1-1.5-1-1-1-1-.5-2-.5-2 .5-1.5.5-1.5.5-2 .5-2v-2-2l-1.5-1-1.5-1-1-.5-1-.5h-.5-.5-2-2l-1.5 1-1.5 1-1 1-1 1-.5-.5-.5-.5.5-2 .5-2v-2-2l1.5-1.5 1.5-1.5-7.5-41.5-7.5-41.5-.5.5-.5.5.5 1 .5 1 .5 1.5.5 1.5.5 1 .5 1 8 27 8 27-11.5 22.5-11.5 22.5-8.5 22-8.5 22-36 27.5-36 27.5h35.5 35.5 33.5 33.5 16 16l.5-1 .5-1 .5-1.5.5-1.5.5-1.5.5-1.5v-2.5-2.5-1-1l1.5-1 1.5-1 14-3 14-3 36-5 36-5" style="fill:#3d3126;stroke:#3d3126" />
        <path d="m871 678h1v-32-32h-.5-.5l.5-16.5.5-16.5v-3-3-2-2-2-2h-.5-.5l-17.5 5.5-17.5 5.5-9.5 21.5-9.5 21.5 14.5 16 14.5 16 12.5 12.5 12.5 12.5" style="fill:#551905;stroke:#551905" />
        <g style="fill:#25150a;stroke:#25150a">
            <path d="m871 614h1v-1.5-1.5-2-2-2.5-2.5-2-2-2.5-2.5-2-2-2.5-2.5-1.5-1.5l-.5 16.5-.5 16.5" />
            <path d="m871 567h1v-35-35-35.5-35.5-35.5-35.5-35.5-35.5-35.5-35.5-35.5-35.5-23-23h-.5-.5l-1.5-48-1.5-48h-25-25l-.5 21-.5 21-3 30.5-3 30.5-.5 32-.5 32-7 21.5-7 21.5-16 4.5-16 4.5 5.5 16.5 5.5 16.5-8-6.5-8-6.5-14 9.5-14 9.5-4-22.5-4-22.5-12-12.5-12-12.5 3 23.5 3 23.5-12.5 20-12.5 20-17-14.5-17-14.5-13-13-13-13-3.5-30-3.5-30-2-31.5-2-31.5-3-48-3-48h-35-35-33.5-33.5-12.5-12.5l-.5 2.5-.5 2.5.5 1.5.5 1.5v1 1l-12 16-12 16-5 17.5-5 17.5-22 9.5-22 9.5-12.5 34-12.5 34 .5 1.5.5 1.5v1 1h1 1l.5 1 .5 1 .5 1.5.5 1.5.5.5.5.5.5 1 .5 1v2 2l.5.5.5.5.5.5.5.5.5-.5.5-.5h2.5 2.5l18.5-6.5 18.5-6.5 33-17 33-17 21.5-39.5 21.5-39.5 2.5-11 2.5-11v2 2 2 2l34.5-.5 34.5-.5-13 7.5-13 7.5-10 6.5-10 6.5-8 25.5-8 25.5-15 23.5-15 23.5 3.5 29 3.5 29 2.5 51 2.5 51-4 29.5-4 29.5-.5 31.5-.5 31.5 29.5-4.5 29.5-4.5 24-4.5 24-4.5 11.5 5 11.5 5 37.5 10 37.5 10-15 14.5-15 14.5 15 12 15 12 7.5 41.5 7.5 41.5h1.5 1.5l1.5 1 1.5 1v2 2l.5 1 .5 1 1 .5 1 .5 1.5 1 1.5 1v2 2l-.5 2-.5 2-.5 1.5-.5 1.5.5 2 .5 2 1 1 1 1 1 1.5 1 1.5 1 .5 1 .5h1 1l.5-1 .5-1 .5-.5.5-.5.5-.5.5-.5.5-.5.5-.5.5-.5.5-.5 1 .5 1 .5 1.5.5 1.5.5 12-6 12-6 15 3.5 15 3.5 15 .5 15 .5 9.5-21.5 9.5-21.5 17.5-5.5 17.5-5.5" />
        </g>
        <path d="m871 96h1v-25-25h-.5-.5l-.5-2-.5-2-.5-2-.5-2v-2-2-2.5-2.5-2-2-2-2-2.5-2.5-2-2-2.5-2.5-2-2-1.5-1.5h-.5-.5l1.5 48 1.5 48" style="fill:#3d3126;stroke:#3d3126" />
        <path d="m871 46h1v-23-23h-1.5-1.5v1.5 1.5 2 2 2.5 2.5 2 2 2.5 2.5 2 2 2 2 2.5 2.5 2 2l.5 2 .5 2 .5 2 .5 2" style="fill:#534e41;stroke:#534e41" />
        <path d="m841 367l-10-37-17.5 13-17.5 13-11.5-14-11.5-14 9.5-25 9.5-25-6-5.5-6-5.5-9.5 8-9.5 8-13 9.5-13 9.5 6 27.5 6 27.5-12.5 23-12.5 23-19-15.5-19-15.5-7-23.5-7-23.5-1.5 4-1.5 4-3.5 21-3.5 21-3 5.5-3 5.5-9.5 17-9.5 17 18.5 4 18.5 4h15.5 15.5l16.5-5 16.5-5 18 .5 18 .5 4-18.5 4-18.5 17-7.5 17-7.5h13.5 13.5" style="fill:#3d3126;stroke:#3d3126" />
        <path d="m817 718l-16 2h1.5 1.5 2 2 2 2l2.5-1 2.5-1" style="fill:#551905;stroke:#551905" />
        <path d="m817 42l1-42h-2-2-2-2-2.5-2.5-2-2-2.5-2.5-2-2-2-2-2-2l.5 1 .5 1-.5 1.5-.5 1.5-.5 28-.5 28-3.5 18-3.5 18-9 11.5-9 11.5-8.5-23.5-8.5-23.5-19.5-36.5-19.5-36.5h-1.5-1.5-2-2-.5-.5l15.5 30.5 15.5 30.5-12.5 3.5-12.5 3.5-9 16-9 16-.5 17-.5 17-9.5-9-9.5-9-14.5-3-14.5-3 6-9 6-9-9.5 2-9.5 2 5.5-11 5.5-11 9.5-8.5 9.5-8.5 4.5-28.5 4.5-28.5h-31-31l3 49 3 49 2 31.5 2 31.5 3.5 30 3.5 30 13 13 13 13 17 14.5 17 14.5 12.5-20 12.5-20-3-23.5-3-23.5 12 12.5 12 12.5 4 22.5 4 22.5 14-9.5 14-9.5 8 6.5 8 6.5-5.5-16.5-5.5-16.5 16-4.5 16-4.5 7-21.5 7-21.5.5-32 .5-32 3-30.5 3-30.5" style="fill:#3d3126;stroke:#3d3126" />
        <path d="m807 580h-24l.5 1 .5 1-.5 1-.5 1v.5.5l12-2.5 12-2.5" style="fill:#551905;stroke:#551905" />
        <path d="m802 193l-22-29 5 14.5 5 14.5h6 6" style="fill:#534e41;stroke:#534e41" />
        <g style="fill:#551905;stroke:#551905">
            <path d="m798 718l1-3-.5.5-.5.5h-1-1l-1-.5-1-.5h-1-1l-.5-.5-.5-.5-.5-.5-.5-.5-1.5-.5-1.5-.5-1.5 1-1.5 1-.5 1.5-.5 1.5v1.5 1.5h2 2 2.5 2.5 2 2l1-1 1-1" />
            <path d="m798 698l1-1-14 3-14 3h1 1l1-1.5 1-1.5 1.5-.5 1.5-.5h1 1v1.5 1.5l1 1 1 1 1 1.5 1 1.5 2 1 2 1 1-1 1-1 1-1 1-1v-2.5-2.5l1.5-.5 1.5-.5 1.5-.5 1.5-.5" />
        </g>
        <path d="m790 635l1-3-.5-1.5-.5-1.5-2-.5-2-.5-1 1-1 1-1.5 1-1.5 1 .5 1.5.5 1.5 1.5 1 1.5 1h2 2l.5-1 .5-1" style="fill:#25150a;stroke:#25150a" />
        <path d="m787 710l1-1-2-1-2-1-1-1.5-1-1.5-1-1-1-1v-1.5-1.5h-1-1l-1.5.5-1.5.5-1 1.5-1 1.5v2 2 1.5 1.5 2 2 2 2h-2.5-2.5l.5 1 .5 1h3 3 2 2 2 2v-1.5-1.5l.5-1.5.5-1.5 1.5-1 1.5-1v-1-1" style="fill:#3d3126;stroke:#3d3126" />
        <path d="m784 5l1-3-.5-1-.5-1h-34-34-7-7l19.5 36.5 19.5 36.5 8.5 23.5 8.5 23.5 9-11.5 9-11.5 3.5-18 3.5-18 .5-28 .5-28" style="fill:#25150a;stroke:#25150a" />
        <path d="m783 584l1-2-.5-1-.5-1-11 .5-11 .5 11 2 11 2v-.5-.5" style="fill:#3d3126;stroke:#3d3126" />
        <path d="m773 707v-4h-1-1l-1.5 1-1.5 1v1 1 2.5 2.5l-.5 1.5-.5 1.5-.5 1.5-.5 1.5-.5 1-.5 1h2 2l-.5-1-.5-1h2.5 2.5v-2-2-2-2-1.5-1.5" style="fill:#753529;stroke:#753529" />
        <path d="m764 178l-19-30-9.5-4-9.5-4 13.5 19 13.5 19h5.5 5.5" style="fill:#25150a;stroke:#25150a" />
        <path d="m753 451l-53 2 23.5 1 23.5 1 3-2 3-2" style="fill:#3d3126;stroke:#3d3126" />
        <path d="m751 601l1-3-1.5-.5-1.5-.5-2-.5-2-.5-1.5.5-1.5.5-1.5 1-1.5 1-1 .5-1 .5 2 2 2 2 2.5.5 2.5.5 1.5-1 1.5-1 1-1 1-1" style="fill:#551905;stroke:#551905" />
        <path d="m740 605l1-1-2-2-2-2 1.5 2.5 1.5 2.5" style="fill:#3d3126;stroke:#3d3126" />
        <path d="m734 633v-3l-1-1-1-1 .5-1.5.5-1.5-1.5-.5-1.5-.5-1-.5-1-.5-.5.5-.5.5-.5.5-.5.5-.5.5-.5.5-.5.5-.5.5-.5 1-.5 1h-1-1l-1-.5-1-.5.5 1.5.5 1.5 1.5.5 1.5.5 1 1.5 1 1.5 1.5.5 1.5.5 2-.5 2-.5 1-1 1-1" style="fill:#551905;stroke:#551905" />
        <g style="fill:#534e41;stroke:#534e41">
            <path d="m729 198l-9-56-4 19.5-4 19.5 8.5 8.5 8.5 8.5" />
            <path d="m725 61l-31-61h-1.5-1.5-2.5-2.5-2-2-2.5-2.5-2-2-2-2-2-2l-4.5 28.5-4.5 28.5-9.5 8.5-9.5 8.5-5.5 11-5.5 11 9.5-2 9.5-2-6 9-6 9 14.5 3 14.5 3 9.5 9 9.5 9 .5-17 .5-17 9-16 9-16 12.5-3.5 12.5-3.5" />
        </g>
        <path d="m710 605h1l-.5-1-.5-1v-2-2l-1.5-1-1.5-1h-1.5-1.5l-1.5 1.5-1.5 1.5v2 2l-.5 2-.5 2 .5.5.5.5 1-1 1-1 1.5-1 1.5-1h2 2" style="fill:#551905;stroke:#551905" />
        <path d="m707 576l-16-54h-.5-.5l-.5 1-.5 1v1.5 1.5l-.5 2-.5 2-.5 1.5-.5 1.5-1 .5-1 .5h1 1l.5.5.5.5.5.5.5.5v1 1h-.5-.5-2-2v-1-1l-2 .5-2 .5-1-1-1-1h-2.5-2.5l-1.5-.5-1.5-.5-1-.5-1-.5h-.5-.5-2-2l1 1 1 1h1 1l.5.5.5.5.5.5.5.5h1.5 1.5l.5.5.5.5.5.5.5.5.5.5.5.5h-1.5-1.5l-1.5-.5-1.5-.5-2-.5-2-.5-1.5-.5-1.5-.5-2-.5-2-.5-1.5-.5-1.5-.5h-2-2v-1-1l-1-.5-1-.5h2 2 2.5 2.5l-1-.5-1-.5h-2.5-2.5-2-2-2.5-2.5l-2 .5-2 .5-.5 1-.5 1h-2.5-2.5l-1-1-1-1-.5-2-.5-2-1-1-1-1-.5-1-.5-1-1 1-1 1-1.5-1-1.5-1h-1.5-1.5l-.5.5-.5.5-.5.5-.5.5.5.5.5.5.5 1 .5 1 .5.5.5.5h1 1 1 1l.5-1 .5-1h1 1l.5.5.5.5-.5 1.5-.5 1.5-1 .5-1 .5-1 1-1 1-2-.5-2-.5-1.5-.5-1.5-.5h-1-1-1-1-1.5-1.5-1-1l-.5-.5-.5-.5h-1-1l-.5-1-.5-1v-1-1l-.5-.5-.5-.5-1.5-.5-1.5-.5h-.5-.5l-1-2-1-2 2.5-.5 2.5-.5 1.5.5 1.5.5 1.5.5 1.5.5h2.5 2.5l.5-1.5.5-1.5 1-1.5 1-1.5h2 2l.5 1 .5 1h2.5 2.5 1 1l.5 1 .5 1 .5-.5.5-.5v-1-1l.5-1 .5-1-21-3-21-3 19-9.5 19-9.5-21 7-21 7h-.5-.5l.5 1 .5 1v1 1l-.5 1.5-.5 1.5-1.5 1-1.5 1-.5.5-.5.5-1 .5-1 .5-1.5.5-1.5.5h-1-1l-.5-1-.5-1-1.5-.5-1.5-.5h-1-1l-1 .5-1 .5-.5-1.5-.5-1.5-1.5.5-1.5.5-1 1-1 1-.5 1.5-.5 1.5-12.5-5-12.5-5-2-1-2-1-26.5 6.5-26.5 6.5v.5.5l-1 1-1 1h2 2l1.5.5 1.5.5-1 1-1 1-.5.5-.5.5-.5 1-.5 1 .5.5.5.5h1.5 1.5l1-.5 1-.5 7.5 3 7.5 3 2-.5 2-.5 1.5.5 1.5.5h1 1 1.5 1.5l1.5.5 1.5.5h1 1 1.5 1.5 2 2l.5-.5.5-.5h1 1 1 1l1-.5 1-.5h2 2 1 1l1 .5 1 .5h1.5 1.5 2.5 2.5 2 2l1.5 1 1.5 1 1.5.5 1.5.5 1 1.5 1 1.5h2 2 1.5 1.5l-1.5-1-1.5-1v-1-1l1.5-.5 1.5-.5 1.5-1 1.5-1 .5-1.5.5-1.5 2-.5 2-.5 1.5.5 1.5.5.5 2 .5 2 1 1 1 1-.5 1.5-.5 1.5-2 .5-2 .5h-1-1l-1-.5-1-.5-1 1-1 1h2 2l.5.5.5.5h1.5 1.5l.5.5.5.5.5.5.5.5.5.5.5.5 1 .5 1 .5v1 1l.5.5.5.5v1 1 1.5 1.5 2 2l-9 13-9 13 26.5-1 26.5-1 18.5 1.5 18.5 1.5-1 1-1 1h-1-1l-.5 1-.5 1-1 1-1 1v1 1 1 1l.5.5.5.5.5 1 .5 1 1 1 1 1v1 1l1.5.5 1.5.5h2.5 2.5l1.5-.5 1.5-.5h1 1l2-.5 2-.5h2 2l16-12.5 16-12.5-1 2.5-1 2.5-.5 1.5-.5 1.5-.5 1.5-.5 1.5-.5 2-.5 2-1 1-1 1-1 1.5-1 1.5-.5 1.5-.5 1.5-.5 2-.5 2-1 1-1 1-6 18-6 18 .5 1 .5 1v1.5 1.5 2 2l-1 1-1 1-1.5 1-1.5 1-1.5.5-1.5.5-1 1.5-1 1.5-1 1-1 1-1.5.5-1.5.5-1.5 1-1.5 1-.5 1-.5 1-.5.5-.5.5-32.5 26.5-32.5 26.5h1.5 1.5l36-27.5 36-27.5 8.5-22 8.5-22 11.5-22.5 11.5-22.5" style="fill:#534e41;stroke:#534e41" />
        <path d="m701 577l-32 25h2 2 1.5 1.5l1.5-.5 1.5-.5 2-.5 2-.5 1-1 1-1h1.5 1.5l.5 1.5.5 1.5-.5 1.5-.5 1.5v1 1l1-1 1-1 .5-2 .5-2 .5-1.5.5-1.5 1-1.5 1-1.5 1-1 1-1 .5-2 .5-2 .5-1.5.5-1.5.5-1.5.5-1.5 1-2.5 1-2.5" style="fill:#755f4d;stroke:#755f4d" />
        <path d="m696 176l-34-17-15.5-6-15.5-6-7-4.5-7-4.5 8.5 18 8.5 18 6 18.5 6 18.5 12-16.5 12-16.5 13-1 13-1" style="fill:#534e41;stroke:#534e41" />
        <path d="m690 522h1l-.5-1-.5-1-.5-1.5-.5-1.5-.5-1-.5-1-2-1-2-1-1-.5-1-.5-1 1.5-1 1.5 1 1.5 1 1.5.5 1.5.5 1.5.5 1 .5 1 .5 1 .5 1-.5 1.5-.5 1.5-.5 1.5-.5 1.5-1.5.5-1.5.5-1 1.5-1 1.5h1 1 2.5 2.5l1-.5 1-.5.5-1.5.5-1.5.5-2 .5-2v-1.5-1.5l.5-1 .5-1" style="fill:#753529;stroke:#753529" />
        <g style="fill:#3d3126;stroke:#3d3126">
            <path d="m689 539v-2l-.5-.5-.5-.5-.5-.5-.5-.5h-1-1-2.5-2.5-1-1l1-1.5 1-1.5-2-.5-2-.5h-1-1-1-1l-.5-.5-.5-.5h-1.5-1.5l-2 .5-2 .5 1 1 1 1 1 .5 1 .5 1 .5 1 .5 1.5.5 1.5.5h2.5 2.5l1 1 1 1 2-.5 2-.5v1 1h2 2 .5.5" />
            <path d="m689 461l-75-20-11.5-5-11.5-5-24 4.5-24 4.5-29.5 4.5-29.5 4.5-1 .5-1 .5.5 1.5.5 1.5 24.5-4 24.5-4 7.5 17.5 7.5 17.5-34 2.5-34 2.5-1 .5-1 .5v1.5 1.5l2.5.5 2.5.5 1.5-.5 1.5-.5h2.5 2.5l1.5.5 1.5.5h2.5 2.5l1.5-.5 1.5-.5h2.5 2.5 2 2l1 1 1 1v1.5 1.5l-1.5.5-1.5.5h-2.5-2.5-2-2l-2 .5-2 .5h-2-2l-2 .5-2 .5-1.5.5-1.5.5h-2-2l-2.5.5-2.5.5v1.5 1.5 2.5 2.5l-.5 1.5-.5 1.5v2.5 2.5l-.5 2.5-.5 2.5 26.5-6.5 26.5-6.5 27.5-4.5 27.5-4.5 1 .5 1 .5-.5 1.5-.5 1.5v2 2l21-7 21-7-19 9.5-19 9.5 21 3 21 3h.5.5l.5-1 .5-1 1-1 1-1h1.5 1.5l.5-2 .5-2v-1.5-1.5l-.5-1.5-.5-1.5 1-1.5 1-1.5 1-1 1-1v-.5-.5l-19-7-19-7-1-.5-1-.5-1.5.5-1.5.5 1 .5 1 .5v.5.5 2 2l-.5.5-.5.5-.5 1-.5 1-1.5-.5-1.5-.5h-1-1l-.5-.5-.5-.5h-1-1-1.5-1.5l-.5-1.5-.5-1.5.5-.5.5-.5.5-1 .5-1 1.5-.5 1.5-.5v-.5-.5l-15-11.5-15-11.5 1-1.5 1-1.5h1 1 1.5 1.5l2.5-.5 2.5-.5 23.5 3 23.5 3 16 11.5 16 11.5v1.5 1.5l-.5 1-.5 1-1 1.5-1 1.5.5 1 .5 1 1.5-.5 1.5-.5h2 2l1.5-1.5 1.5-1.5 15-14.5 15-14.5" />
        </g>
        <path d="m688 604l1-3-.5-1.5-.5-1.5h-1.5-1.5l-1 1-1 1-2 .5-2 .5-1.5.5-1.5.5h-1.5-1.5-2-2-2-2l1.5.5 1.5.5h1.5 1.5l1.5.5 1.5.5h2.5 2.5l.5.5.5.5h1 1 1 1l.5.5.5.5-18 2.5-18 2.5-1 .5-1 .5-1.5.5-1.5.5 11.5 4 11.5 4-2.5.5-2.5.5-1.5-.5-1.5-.5-1.5-.5-1.5-.5-2 .5-2 .5-1-1-1-1h-2.5-2.5l-1.5.5-1.5.5h-2.5-2.5l-2-1-2-1-8.5-9-8.5-9-2-.5-2-.5h-1-1-1-1-1-1-1.5-1.5-2-2l-.5-.5-.5-.5h-1-1-1-1-1.5-1.5-1-1-1-1-1-1-1.5-1.5-1-1l-.5-.5-.5-.5-.5-.5-.5-.5 1.5-.5 1.5-.5 2-.5 2-.5h2 2l2-.5 2-.5h1.5 1.5v-.5-.5h-2.5-2.5-3-3l-.5.5-.5.5-.5-3-.5-3h2.5 2.5l1.5-.5 1.5-.5h2 2 1 1 1.5 1.5 2 2l.5-.5.5-.5h1.5 1.5 2 2l2-.5 2-.5 1.5.5 1.5.5v1 1l-1 .5-1 .5-1 .5-1 .5-2 .5-2 .5h-2-2l-2 .5-2 .5h-2-2l-1.5.5-1.5.5 9-4.5 9-4.5-26.5 1-26.5 1-17.5 11.5-17.5 11.5 27.5 7 27.5 7 2 .5 2 .5.5.5.5.5.5.5.5.5v1 1 1 1l-.5 1-.5 1-1 1-1 1-1.5 1-1.5 1-2-1-2-1h-1-1l.5 1 .5 1v1 1l-1 .5-1 .5-1 1-1 1v1 1l.5.5.5.5v1 1l-1 .5-1 .5-1.5.5-1.5.5h-1-1-2-2l1 .5 1 .5h2 2l1.5.5 1.5.5v1 1l-1 .5-1 .5-1 .5-1 .5-.5.5-.5.5h-1-1-1-1l-2-.5-2-.5 2 1.5 2 1.5h2 2l1.5-.5 1.5-.5 2-.5 2-.5 1-1 1-1 1-1.5 1-1.5.5-1.5.5-1.5 1.5-1 1.5-1h3 3 .5.5l18 1.5 18 1.5 26-2.5 26-2.5 6-18 6-18v-1-1" style="fill:#787367;stroke:#787367" />
        <path d="m688 515l1-1-15-12-15-12-1.5 1.5-1.5 1.5 1.5 1 1.5 1h1 1l2 .5 2 .5h2 2l2 .5 2 .5 1.5.5 1.5.5 1.5 1 1.5 1 .5 1.5.5 1.5.5 1.5.5 1.5.5 3 .5 3 1 .5 1 .5 2 1 2 1" style="fill:#551905;stroke:#551905" />
        <path d="m685 606l-1-1h-1-1-1-1l-.5-.5-.5-.5h-2.5-2.5l1 1 1 1v1 1l-.5 1-.5 1h-1-1-1.5-1.5l-1.5-.5-1.5-.5h-2-2-1-1-1.5-1.5l-1.5.5-1.5.5h-1-1l-2 .5-2 .5 18-2.5 18-2.5" style="fill:#9a968a;stroke:#9a968a" />
        <path d="m684 528l1-3-.5-1-.5-1h-.5-.5l-1.5-4-1.5-4 1-1.5 1-1.5-.5-3-.5-3-.5-1.5-.5-1.5-.5-1.5-.5-1.5-1.5-1-1.5-1-1.5-.5-1.5-.5-2-.5-2-.5h-2-2l-2-.5-2-.5h-1-1l-1.5-1-1.5-1h-2-2l-1.5.5-1.5.5-1.5 1-1.5 1h-2-2l-1 .5-1 .5v.5.5h2.5 2.5l.5 1.5.5 1.5.5 2 .5 2-.5 1.5-.5 1.5-1 1-1 1-2 .5-2 .5-1.5-1-1.5-1-.5 2-.5 2 .5.5.5.5-.5 1-.5 1-1 1-1 1-.5 2-.5 2v2 2l1 1.5 1 1.5h2 2 2 2 1 1 1.5 1.5l1.5.5 1.5.5h1 1 1.5 1.5 2 2l2 .5 2 .5 2-.5 2-.5h1.5 1.5l.5.5.5.5h1 1 1 1l2 .5 2 .5 1.5-.5 1.5-.5.5-1.5.5-1.5" style="fill:#782100;stroke:#782100" />
        <path d="m683 523h1l-.5-1-.5-1-.5-1.5-.5-1.5-1-1.5-1-1.5 1.5 4 1.5 4" style="fill:#992b00;stroke:#992b00" />
        <path d="m679 550l-48-11 11.5 13 11.5 13 12.5-7.5 12.5-7.5" style="fill:#3d3126;stroke:#3d3126" />
        <g style="fill:#b9b5a9;stroke:#b9b5a9">
            <path d="m677 647v-3l-.5-1-.5-1h-.5-.5l-25.5 2.5-25.5 2.5-.5.5-.5.5-12.5.5-12.5.5h-2-2-1-1l-1 .5-1 .5h-1-1-1-1-1-1-1-1l-.5-1-.5-1 .5-.5.5-.5.5-.5.5-.5h1 1 1.5 1.5l.5-.5.5-.5h1 1 1 1 1 1 1.5 1.5 1 1l.5.5.5.5v1 1l-1 .5-1 .5h2 2l.5-.5.5-.5v-1.5-1.5l-.5-.5-.5-.5h-1-1-1-1-1-1-1.5-1.5-1-1-2-2-.5-.5l-.5.5-.5.5-24.5 6.5-24.5 6.5 8.5-5 8.5-5-42 5.5-42 5.5 1 1 1 1 1 1 1 1v1 1l-2 1-2 1 29-3 29-3 26-2.5 26-2.5 29-4.5 29-4.5-15 6-15 6 25 3.5 25 3.5.5-1 .5-1 1.5-1 1.5-1 1.5-.5 1.5-.5 1-1 1-1 1-1.5 1-1.5 1.5-.5 1.5-.5 1.5-1 1.5-1 1-1 1-1v-2-2" />
            <path d="m676 608v-2l-1-1-1-1h-.5-.5-2-2-2-2l-2 .5-2 .5-1.5.5-1.5.5h-2.5-2.5l-1.5.5-1.5.5-1.5.5-1.5.5h-1-1l-1 .5-1 .5 1 1 1 1h2 2l2-.5 2-.5h1 1l1.5-.5 1.5-.5h1.5 1.5 1 1 2 2l1.5.5 1.5.5h1.5 1.5 1 1l.5-1 .5-1" />
        </g>
        <path d="m675 642h1l-26 2.5-26 2.5 25.5-2.5 25.5-2.5" style="fill:#9a968a;stroke:#9a968a" />
        <path d="m675 541l-1-1-.5-.5-.5-.5-.5-.5-.5-.5h-1.5-1.5l-.5-.5-.5-.5-.5-.5-.5-.5h-1-1l-1-1-1-1-2.5-.5-2.5-.5h-2.5-2.5-2-2l1 .5 1 .5v1 1h2 2l1.5.5 1.5.5 2 .5 2 .5 1.5.5 1.5.5 2 .5 2 .5 1.5.5 1.5.5h1.5 1.5" style="fill:#755f4d;stroke:#755f4d" />
        <path d="m673 604h1l-1.5-.5-1.5-.5h-1.5-1.5l-1.5-.5-1.5-.5-2 .5-2 .5h-1-1l-1.5.5-1.5.5h-2.5-2.5-1.5-1.5l-1.5.5-1.5.5h-1-1l-.5-2-.5-2-1.5-.5-1.5-.5h-2.5-2.5-2-2-2.5-2.5-2-2-2.5-2.5l8.5 9 8.5 9 1-.5 1-.5h-1.5-1.5l-.5-.5-.5-.5h-1-1-1-1-1.5-1.5-1-1l-.5-.5-.5-.5h-1-1l-1-.5-1-.5h-1-1l-.5-.5-.5-.5h-1-1l-1-.5-1-.5h-1-1v-1-1h1 1l1 .5 1 .5h1.5 1.5l-.5-1-.5-1-.5-1.5-.5-1.5-.5-1-.5-1h1 1l.5-.5.5-.5h1 1 1.5 1.5l1.5-.5 1.5-.5h1 1l1-.5 1-.5h1 1 1 1l.5.5.5.5h1 1 1.5 1.5 1 1l.5.5.5.5.5.5.5.5v1 1 1.5 1.5l-.5.5-.5.5.5 2 .5 2 1 .5 1 .5.5-1 .5-1 1.5-.5 1.5-.5 1-.5 1-.5h-2-2l-1-1-1-1 1-.5 1-.5h1 1l1.5-.5 1.5-.5 1.5-.5 1.5-.5h2.5 2.5l1.5-.5 1.5-.5 2-.5 2-.5h2 2 2 2" style="fill:#995249;stroke:#995249" />
        <path d="m667 621l-23-8-.5 1-.5 1-.5.5-.5.5-1.5.5-1.5.5h-2-2l-1 .5-1 .5 2 1 2 1h2.5 2.5l1.5-.5 1.5-.5h2.5 2.5l1 1 1 1 2-.5 2-.5 1.5.5 1.5.5 1.5.5 1.5.5 2.5-.5 2.5-.5" style="fill:#755f4d;stroke:#755f4d" />
        <path d="m667 534h1l-1-.5-1-.5-1-1-1-1-2-.5-2-.5h-2-2-1.5-1.5-1-1l-1.5-.5-1.5-.5h-1.5-1.5-1-1-2-2-2-2l-1.5 1-1.5 1 1 .5 1 .5 2 .5 2 .5 2-.5 2-.5h2.5 2.5 2 2 2.5 2.5l1 .5 1 .5 2.5.5 2.5.5h2 2" style="fill:#753529;stroke:#753529" />
        <path d="m657 667l1-1-25-3.5-25-3.5 15-6 15-6-29 4.5-29 4.5-26 2.5-26 2.5-29 3-29 3-37.5 2.5-37.5 2.5-.5 1.5-.5 1.5h2.5 2.5 2 2v1 1l-.5 2-.5 2 1 1 1 1 1 .5 1 .5.5.5.5.5h1 1l1 .5 1 .5.5.5.5.5h1 1l.5.5.5.5 1 .5 1 .5.5.5.5.5h1 1 1 1l1 .5 1 .5.5 1.5.5 1.5-.5 1.5-.5 1.5v2 2l.5 1 .5 1v1 1l.5.5.5.5.5 1 .5 1v1 1 1 1l-.5 1.5-.5 1.5-1 .5-1 .5h-1-1l-1-1-1-1-1-.5-1-.5-1-1-1-1-1.5-.5-1.5-.5-2 .5-2 .5-1.5-.5-1.5-.5-2-.5-2-.5-1.5-.5-1.5-.5-1.5-1.5-1.5-1.5-21.5-6.5-21.5-6.5-1-.5-1-.5-.5-.5-.5-.5-.5-.5-.5-.5-.5-.5-.5-.5-.5-1-.5-1-.5-.5-.5-.5-1-.5-1-.5h-.5-.5l-26-4.5-26-4.5-1.5.5-1.5.5-1 1-1 1 14 11.5 14 11.5-27-1.5-27-1.5-31-5.5-31-5.5 8.5-4.5 8.5-4.5 1-.5 1-.5h1.5 1.5l1.5-.5 1.5-.5-23.5 3.5-23.5 3.5h-1.5-1.5l-.5.5-.5.5h-1-1l-.5.5-.5.5h-1.5-1.5l-1 1-1 1-.5.5-.5.5-31.5 4-31.5 4-1.5 1-1.5 1-.5.5-.5.5h-1-1l-1 1-1 1 .5 1.5.5 1.5 1 1.5 1 1.5 1 1 1 1-.5 1.5-.5 1.5v2 2l-.5.5-.5.5-.5.5-.5.5h-1-1l-1-.5-1-.5-.5 1.5-.5 1.5h33.5 33.5l37.5-5.5 37.5-5.5-1 1-1 1-1.5.5-1.5.5-1.5.5-1.5.5-1.5 1-1.5 1-1 1-1 1-2 .5-2 .5-1.5 1-1.5 1h35 35 33 33l.5-2 .5-2h1 1l1 .5 1 .5 1.5.5 1.5.5h1 1 1.5 1.5l1.5-.5 1.5-.5h2 2l.5-.5.5-.5 1-.5 1-.5 1-.5 1-.5 1.5-1.5 1.5-1.5 1-1 1-1 2-.5 2-.5 1 1 1 1 1 1.5 1 1.5 1 1 1 1-.5 1.5-.5 1.5v1 1h28 28 9.5 9.5 35 35 30.5 30.5l32.5-26.5 32.5-26.5" style="fill:#dcd7cb;stroke:#dcd7cb" />
        <path d="m651 586l-37-3-9 4.5-9 4.5v.5.5h2.5 2.5l.5 1 .5 1-1 1-1 1h-2-2-2.5-2.5-2-2-2-2l-1-1-1-1-1.5.5-1.5.5.5.5.5.5.5.5.5.5h1 1 1.5 1.5 1 1 1 1 1 1 1.5 1.5 1 1 1 1l.5.5.5.5h2 2 1.5 1.5 1 1 1 1 1 1l2 .5 2 .5h2.5 2.5 2 2 2.5 2.5 2 2 2.5 2.5l1.5.5 1.5.5.5 2 .5 2h1 1l1.5-.5 1.5-.5h1.5 1.5l-1.5-.5-1.5-.5v-1-1l-1-1-1-1-.5-1-.5-1-.5-.5-.5-.5v-1-1-1-1l1-1 1-1 .5-1 .5-1h1 1l1-1 1-1" style="fill:#755f4d;stroke:#755f4d" />
        <path d="m651 484l-32-23-23.5-3-23.5-3 24 8.5 24 8.5-.5 1-.5 1-2 .5-2 .5-1.5-.5-1.5-.5-1 1.5-1 1.5-1 1-1 1-1 1-1 1-2 1-2 1 19 7 19 7 1-.5 1-.5h2 2l1.5-1 1.5-1-.5-1-.5-1 1-1.5 1-1.5.5-1 .5-1v-1.5-1.5" style="fill:#534e41;stroke:#534e41" />
        <path d="m647 658l-49 4 17.5 2 17.5 2 7-4 7-4" style="fill:#9a968a;stroke:#9a968a" />
        <path d="m647 349l-10-33 2.5 20 2.5 20 2.5-3.5 2.5-3.5" style="fill:#3d3126;stroke:#3d3126" />
        <path d="m646 508l1-3-.5-2-.5-2-.5-1.5-.5-1.5h-2.5-2.5l-1 1-1 1-1 1.5-1 1.5.5 1.5.5 1.5v1.5 1.5l1.5 1 1.5 1 2-.5 2-.5 1-1 1-1" style="fill:#551905;stroke:#551905" />
        <path d="m642 616l1-1-1-.5-1-.5-1 .5-1 .5h-2-2-2-2l-1.5-.5-1.5-.5h-1-1-1.5-1.5l-1.5-.5-1.5-.5-.5-.5-.5-.5-2-.5-2-.5h-1.5-1.5l-1-.5-1-.5h-1-1v1 1h1 1l1 .5 1 .5h1 1l.5.5.5.5h1 1l1 .5 1 .5h1 1l.5.5.5.5h1 1 1.5 1.5 1 1 1 1l.5.5.5.5h1.5 1.5 2 2l1.5-.5 1.5-.5" style="fill:#753529;stroke:#753529" />
        <path d="m641 606v-2l-.5-.5-.5-.5-.5-.5-.5-.5h-1-1-1.5-1.5-1-1l-.5-.5-.5-.5h-1-1-1-1l-1 .5-1 .5h-1-1l-1.5.5-1.5.5h-1.5-1.5-1-1l-.5.5-.5.5h-1-1l.5 1 .5 1 1.5-.5 1.5-.5h1.5 1.5l1.5-.5 1.5-.5h1 1 1.5 1.5 2 2l.5-.5.5-.5h1.5 1.5l1.5.5 1.5.5.5 1 .5 1v2.5 2.5 1 1 1 1l1-.5 1-.5-.5-2-.5-2 .5-.5.5-.5v-1.5-1.5" style="fill:#9b3827;stroke:#9b3827" />
        <path d="m639 613v-2h-.5-.5-1.5-1.5l-2-.5-2-.5-1.5.5-1.5.5-2-.5-2-.5-1-1-1-1 1.5-1 1.5-1 1.5-.5 1.5-.5h2 2l2 .5 2 .5h1.5 1.5l-.5-1-.5-1-1.5-.5-1.5-.5h-1.5-1.5l-.5.5-.5.5h-2-2-1.5-1.5-1-1l-1.5.5-1.5.5h-1.5-1.5l-1.5.5-1.5.5.5 1.5.5 1.5.5 1 .5 1 2 .5 2 .5.5.5.5.5 1.5.5 1.5.5h1.5 1.5 1 1l1.5.5 1.5.5h2 2 2 2v-1-1" style="fill:#992b00;stroke:#992b00" />
        <path d="m638 611h1v-2.5-2.5h-1.5-1.5l-2-.5-2-.5h-2-2l-1.5.5-1.5.5-1.5 1-1.5 1 1 1 1 1 2 .5 2 .5 1.5-.5 1.5-.5 2 .5 2 .5h1.5 1.5" style="fill:#ba3400;stroke:#ba3400" />
        <path d="m637 535l1-2-2-.5-2-.5-1-.5-1-.5-1-.5-1-.5-.5-1-.5-1v-1-1-1.5-1.5l.5-1.5.5-1.5v-1.5-1.5h-.5-.5l-.5 1-.5 1v1 1l-.5.5-.5.5-.5-1-.5-1h-1-1-2.5-2.5l-1.5-.5-1.5-.5h-1-1l-.5.5-.5.5v1.5 1.5l.5.5.5.5h1 1 1 1l1.5.5 1.5.5 1.5 1 1.5 1 1-1 1-1 .5 1 .5 1 1 1 1 1 .5 2 .5 2 1 1 1 1h2.5 2.5" style="fill:#787367;stroke:#787367" />
        <path d="m637 514l-1-1h-1.5-1.5l-1 1-1 1-.5 1-.5 1v1.5 1.5l-.5 1.5-.5 1.5v1.5 1.5 1 1l.5 1 .5 1 1 .5 1 .5 1.5-1 1.5-1-1-1.5-1-1.5v-2-2l.5-2 .5-2 1-1 1-1 .5-1 .5-1" style="fill:#551905;stroke:#551905" />
        <path d="m629 545l-40 1 18 1.5 18 1.5 2-2 2-2" style="fill:#3d3126;stroke:#3d3126" />
        <path d="m626 533l1-3-.5-.5-.5-.5h-1-1l-.5 1-.5 1h-1-1-1-1l-.5-.5-.5-.5-.5-1-.5-1-.5-.5-.5-.5.5-.5.5-.5.5-.5.5-.5h1.5 1.5l-1.5-.5-1.5-.5h-1-1-1-1l-.5-.5-.5-.5v-1.5-1.5l.5-.5.5-.5h1 1l1.5.5 1.5.5-.5-1-.5-1h-2-2l-1 1.5-1 1.5-.5 1.5-.5 1.5h-2.5-2.5l-1.5-.5-1.5-.5-1.5-.5-1.5-.5-2.5.5-2.5.5h1.5 1.5 1 1l1 .5 1 .5 1.5.5 1.5.5h1 1 1.5 1.5l1.5.5 1.5.5v1 1l.5.5.5.5.5.5.5.5 1 .5 1 .5.5.5.5.5h1 1 1 1l.5.5.5.5-1 .5-1 .5-1.5.5-1.5.5 2 .5 2 .5 1-1 1-1 1-.5 1-.5" style="fill:#755f4d;stroke:#755f4d" />
        <path d="m623 648l1-1-18-1.5-18-1.5h2 2 1 1 1.5 1.5 1 1 1 1 1 1l.5.5.5.5v1.5 1.5l-.5.5-.5.5h-2-2-.5-.5l12.5-.5 12.5-.5" style="fill:#9a968a;stroke:#9a968a" />
        <path d="m623 533l-1-1h-1-1-1-1l-.5-.5-.5-.5-1-.5-1-.5-.5-.5-.5-.5-.5-.5-.5-.5v-1-1l-1.5-.5-1.5-.5h-1.5-1.5-1-1l-1.5-.5-1.5-.5-1-.5-1-.5h-1-1-1.5-1.5l-.5 1.5-.5 1.5h1 1l1 .5 1 .5 1.5.5 1.5.5.5.5.5.5v1 1l.5 1 .5 1h1 1l.5.5.5.5h1 1 1.5 1.5 1 1 1 1l1.5.5 1.5.5 1.5-.5 1.5-.5 1-.5 1-.5" style="fill:#787367;stroke:#787367" />
        <path d="m620 472l-48-17-2.5.5-2.5.5h-1.5-1.5-1-1l-1 1.5-1 1.5h1.5 1.5l1 .5 1 .5h1 1 1 1l.5 1 .5 1 17 5.5 17 5.5-1 1-1 1-.5 1.5-.5 1.5-2 .5-2 .5-.5.5-.5.5-1 .5-1 .5-2 .5-2 .5v.5.5h3.5 3.5l1.5-.5 1.5-.5 1 .5 1 .5 2-1 2-1 1-1 1-1 1-1 1-1 1-1.5 1-1.5 1.5.5 1.5.5 2-.5 2-.5.5-1 .5-1" style="fill:#753529;stroke:#753529" />
        <path d="m619 587v-2l-1.5-.5-1.5-.5-2 .5-2 .5h-2-2-1.5-1.5l-.5.5-.5.5h-2-2-1.5-1.5-1-1-2-2l-1.5.5-1.5.5h-2.5-2.5l1 2.5 1 2.5h3 3 2.5 2.5l1.5-.5 1.5-.5h2 2l2-.5 2-.5h2 2l2-.5 2-.5 1-.5 1-.5 1-.5 1-.5" style="fill:#b9b5a9;stroke:#b9b5a9" />
        <path d="m604 473l-34-11 1 1 1 1 .5.5.5.5.5.5.5.5 1 .5 1 .5.5.5.5.5-.5.5-.5.5.5.5.5.5.5.5.5.5.5 1 .5 1 .5.5.5.5h1 1 1 1l.5.5.5.5 1 .5 1 .5h1 1 1 1l.5-.5.5-.5 1 .5 1 .5.5.5.5.5 1 1 1 1 2-.5 2-.5.5-1.5.5-1.5 1-1 1-1" style="fill:#782100;stroke:#782100" />
        <path d="m602 595l-1-2h-2.5-2.5-1.5-1.5l-2 .5-2 .5h-2-2l-2 .5-2 .5 1 1 1 1h2 2 2 2 2.5 2.5 2 2l1-1 1-1" style="fill:#534e41;stroke:#534e41" />
        <path d="m601 648v-2l-.5-.5-.5-.5h-1-1-1.5-1.5-1-1-1-1-1-1l-.5.5-.5.5h-1.5-1.5-1-1l-.5.5-.5.5-.5.5-.5.5.5 1 .5 1h1 1 1 1 1 1 1 1l1-.5 1-.5h1 1 2 2 .5.5l1-.5 1-.5" style="fill:#dcd7cb;stroke:#dcd7cb" />
        <path d="m599 485v-1l-1-.5-1-.5h-3.5-3.5l-1.5.5-1.5.5-.5 1-.5 1-.5.5-.5.5.5 1.5.5 1.5h1.5 1.5 1 1l.5.5.5.5h1 1l1.5.5 1.5.5.5-1 .5-1 .5-.5.5-.5v-2-2" style="fill:#534e41;stroke:#534e41" />
        <path d="m597 527h1l-1-.5-1-.5h-1-1l.5-1.5.5-1.5 1 2 1 2" style="fill:#755f4d;stroke:#755f4d" />
        <path d="m596 480l1-1-1-1-1-1-.5-.5-.5-.5-1-.5-1-.5-.5.5-.5.5h-1-1-1-1l-1-.5-1-.5-.5-.5-.5-.5h-1-1-1-1l-.5-.5-.5-.5-.5-1-.5-1-.5-.5-.5-.5-.5-.5-.5-.5.5-.5.5-.5-.5-.5-.5-.5-1-.5-1-.5-.5-.5-.5-.5-.5-.5-.5-.5-1-1-1-1-.5-1-.5-1h-1-1-1-1l-1-.5-1-.5h-1.5-1.5l15 11.5 15 11.5 2-.5 2-.5 1-.5 1-.5" style="fill:#551905;stroke:#551905" />
        <path d="m587 629v-2-1-1l-.5-.5-.5-.5-.5-.5-.5-.5-2-.5-2-.5h-.5-.5-3-3l-1.5 1.5-1.5 1.5 1 .5 1 .5.5.5.5.5h1 1l-1 .5-1 .5 1 1 1 1h1 1 1.5 1.5l-1-1-1-1h1 1l1-.5 1-.5h1 1l-.5 1.5-.5 1.5-1.5 1-1.5 1-.5.5-.5.5h-1.5-1.5l2 1 2 1 1.5-1 1.5-1 1-1 1-1 .5-1 .5-1" style="fill:#995249;stroke:#995249" />
        <path d="m586 645l1-1h-3-3l-1.5 1-1.5 1-.5 1.5-.5 1.5-1 1.5-1 1.5-1 1-1 1-2 .5-2 .5-1.5.5-1.5.5h-2-2l-2-1.5-2-1.5h-2-2v-1.5-1.5l.5-1.5.5-1.5-.5.5-.5.5-8.5 5-8.5 5 24.5-6.5 24.5-6.5" style="fill:#9a968a;stroke:#9a968a" />
        <path d="m584 630l1-3h-1-1l-1 .5-1 .5h-1-1l1 1 1 1h-1.5-1.5-1-1l-1-1-1-1 1-.5 1-.5h-1-1l-.5-.5-.5-.5-1-.5-1-.5-1 .5-1 .5-2-.5-2-.5-.5 1.5-.5 1.5.5 2 .5 2h2 2 1.5 1.5 1 1l1.5.5 1.5.5h1.5 1.5l.5-.5.5-.5 1.5-1 1.5-1" style="fill:#753529;stroke:#753529" />
        <path d="m584 593l1-1-1-2.5-1-2.5.5 3 .5 3" style="fill:#9a968a;stroke:#9a968a" />
        <path d="m583 502l1-3-1-.5-1-.5-.5 1-.5 1-12.5 7.5-12.5 7.5.5.5.5.5 1-1 1-1 1.5-.5 1.5-.5 1-.5 1-.5.5-.5.5-.5h1 1l.5.5.5.5.5.5.5.5 1 .5 1 .5h1 1l.5-.5.5-.5h1 1l.5-1 .5-1v-1-1l.5-.5.5-.5.5-.5.5-.5 1.5-.5 1.5-.5h.5.5v-2-2" style="fill:#753529;stroke:#753529" />
        <path d="m582 513l1-3v-1-1l-.5-1-.5-1-1.5.5-1.5.5-.5.5-.5.5-.5.5-.5.5v1 1l-.5 1-.5 1h-1-1l-.5.5-.5.5h-1-1l-1-.5-1-.5-.5-.5-.5-.5-.5-.5-.5-.5h-1-1l-.5.5-.5.5-1 .5-1 .5.5 1.5.5 1.5 1-.5 1-.5h1 1l1.5.5 1.5.5.5 1 .5 1h1 1l1.5-.5 1.5-.5 1-.5 1-.5.5-.5.5-.5 1.5-1 1.5-1" style="fill:#755f4d;stroke:#755f4d" />
        <path d="m581 500l1-2-27.5 4.5-27.5 4.5 2 1 2 1 2 .5 2 .5 1.5.5 1.5.5 1 1 1 1 .5.5.5.5 1 .5 1 .5 1.5.5 1.5.5.5.5.5.5h1.5 1.5l1.5-.5 1.5-.5 1.5-.5 1.5-.5 12.5-7.5 12.5-7.5" style="fill:#551905;stroke:#551905" />
        <g style="fill:#755f4d;stroke:#755f4d">
            <path d="m580 622h1l-27.5-7-27.5-7h-.5-.5l-.5 1.5-.5 1.5-.5.5-.5.5-.5.5-.5.5h-1-1l-.5 1-.5 1-.5-.5-.5-.5h-1-1l-1.5-.5-1.5-.5-2-.5-2-.5h-2-2l-20-8-20-8 22.5 2.5 22.5 2.5 2-.5 2-.5.5-.5.5-.5 1-.5 1-.5h1.5 1.5l-1.5-2-1.5-2-1-1-1-1 .5-1.5.5-1.5 2-.5 2-.5-31.5.5-31.5.5-.5 1.5-.5 1.5v2.5 2.5l-1 1.5-1 1.5-1 1-1 1-1 1.5-1 1.5-1 1-1 1-1.5 1.5-1.5 1.5 19 3.5 19 3.5 19 2.5 19 2.5 24 5.5 24 5.5h1.5 1.5 1.5 1.5 1 1l-1.5-.5-1.5-.5h-1-1-1.5-1.5-2-2l-.5-2-.5-2 .5-1.5.5-1.5 2 .5 2 .5 1-.5 1-.5 1.5-1.5 1.5-1.5h3 3" />
            <path d="m579 559v-4h-.5-.5l-30-.5-30-.5 1 17 1 17 1 1 1 1 2-.5 2-.5v-2-2l1-1.5 1-1.5 1 1 1 1-.5 1.5-.5 1.5v2 2 1 1l-.5 1-.5 1h-2-2l-.5.5-.5.5-1.5 1-1.5 1 1 .5 1 .5 1 .5 1 .5.5.5.5.5v1 1l.5 1 .5 1v1.5 1.5l17.5-11.5 17.5-11.5 9-13 9-13" />
        </g>
        <path d="m578 555h1v-1.5-1.5-1-1l-.5-.5-.5-.5v-1-1l-1-.5-1-.5-.5-.5-.5-.5-.5-.5-.5-.5-.5-.5-.5-.5h-1.5-1.5l-.5-.5-.5-.5h-2-2l-1.5-.5-1.5-.5h-1.5-1.5-2-2l-1-1.5-1-1.5-1.5-.5-1.5-.5-1.5-1-1.5-1h-2-2-2.5-2.5-1.5-1.5l2.5.5 2.5.5h2 2l1.5.5 1.5.5 2 .5 2 .5-.5 1.5-.5 1.5-1.5.5-1.5.5h-2-2-2.5-2.5l-1.5-.5-1.5-.5-1.5 1-1.5 1-1.5.5-1.5.5-1 1.5-1 1.5-1 1-1 1h-2-2l-1.5 1-1.5 1v1.5 1.5l30 .5 30 .5" style="fill:#753529;stroke:#753529" />
        <path d="m576 637v-2l-.5-1-.5-1h-1.5-1.5-1.5-1.5l-.5.5-.5.5h-1.5-1.5l-.5 1.5-.5 1.5v1 1h-2.5-2.5l-1 .5-1 .5h2.5 2.5l2 .5 2 .5 1.5.5 1.5.5v1 1l-.5 1-.5 1h-1-1-2-2v.5.5h2 2 1 1l1.5-.5 1.5-.5 1-.5 1-.5v-1-1l-.5-.5-.5-.5v-1-1l1-1 1-1 1-.5 1-.5" style="fill:#9a968a;stroke:#9a968a" />
        <path d="m575 540l1-3-1-1-1-1-.5-2-.5-2-1.5-.5-1.5-.5-2 .5-2 .5-.5 1.5-.5 1.5-1.5 1-1.5 1-1.5.5-1.5.5v1 1l1.5 1 1.5 1 1.5.5 1.5.5 1-1 1-1 1 .5 1 .5h1 1l2-.5 2-.5" style="fill:#755f4d;stroke:#755f4d" />
        <path d="m574 553l-36-7-1 .5-1 .5-1 1-1 1-1 1.5-1 1.5.5 1.5.5 1.5 1.5 1 1.5 1 1.5.5 1.5.5h2.5 2.5l1.5.5 1.5.5.5 1 .5 1 3-.5 3-.5 1.5.5 1.5.5 1.5-1 1.5-1h2 2l1.5-.5 1.5-.5 1.5-1 1.5-1 1.5-.5 1.5-.5.5-1 .5-1" style="fill:#992b00;stroke:#992b00" />
        <path d="m573 41l-69 1-.5 2.5-.5 2.5-1 1.5-1 1.5-.5 1.5-.5 1.5-.5 1.5-.5 1.5-21.5 39.5-21.5 39.5-.5 1-.5 1-.5 1-.5 1-2 .5-2 .5-1 1-1 1-1.5 1-1.5 1-1.5.5-1.5.5-2 1.5-2 1.5h1.5 1.5l1.5-.5 1.5-.5 1-.5 1-.5h1 1l.5-.5.5-.5.5-.5.5-.5h1.5 1.5l.5-.5.5-.5.5.5.5.5.5.5.5.5 1.5 1 1.5 1 2 .5 2 .5 1 1 1 1 1 .5 1 .5-.5-1-.5-1-.5-1-.5-1-.5-.5-.5-.5-.5-1-.5-1-1-1-1-1h-1-1l-.5-1-.5-1 .5-1.5.5-1.5 14.5-20 14.5-20 22-38.5 22-38.5 17.5 13.5 17.5 13.5-13.5-5.5-13.5-5.5-.5.5-.5.5h-2.5-2.5l-2-.5-2-.5-1 1-1 1-.5 2-.5 2v2 2l-.5 1.5-.5 1.5v2.5 2.5l-.5 1.5-.5 1.5-.5 2-.5 2-8.5 29-8.5 29-.5.5-.5.5-.5 1-.5 1-1.5 1-1.5 1-.5 1.5-.5 1.5-.5 2-.5 2-1 1-1 1-.5 1.5-.5 1.5-1 1.5-1 1.5-1 1-1 1-.5 1-.5 1-1 2-1 2-1 1.5-1 1.5-1 1-1 1-1 1.5-1 1.5-1 1-1 1-.5 1.5-.5 1.5-1 1.5-1 1.5-1 1-1 1-1 1.5-1 1.5-.5 1-.5 1v.5.5h.5.5.5.5l.5-.5.5-.5 2-1.5 2-1.5 15-23.5 15-23.5 8-25.5 8-25.5 10-6.5 10-6.5 13-7.5 13-7.5" style="fill:#3d3126;stroke:#3d3126" />
        <path d="m571 651v-2l-1.5-.5-1.5-.5h-2-2l-1-.5-1-.5v-.5-.5l-1-.5-1-.5-2 .5-2 .5-.5.5-.5.5-.5 1.5-.5 1.5v1.5 1.5h2 2l2 .5 2 .5h1 1 1 1l.5-.5.5-.5 1-.5 1-.5 1-.5 1-.5" style="fill:#534e41;stroke:#534e41" />
        <path d="m569 644v-2l-1.5-.5-1.5-.5-2-.5-2-.5h-2.5-2.5l-24.5-7-24.5-7-3.5 11.5-3.5 11.5 32-2 32-2-1.5-.5-1.5-.5h-1-1-1-1l-1 1-1 1 2-.5 2-.5 1 .5 1 .5h2 2 1 1l.5-1 .5-1" style="fill:#b9b5a9;stroke:#b9b5a9" />
        <path d="m568 634l1-1-24-5.5-24-5.5-19-2.5-19-2.5-19-3.5-19-3.5-1 .5-1 .5-1 .5-1 .5-1.5 1-1.5 1h2 2 2 2 2.5 2.5 2 2 2.5 2.5 2 2 2.5 2.5 1 1l1.5 1 1.5 1-.5 1.5-.5 1.5-1.5.5-1.5.5-.5.5-.5.5h-2-2l1 .5 1 .5h1.5 1.5v1 1l.5.5.5.5v1 1 1.5 1.5l19.5.5 19.5.5 25 1.5 25 1.5-2.5.5-2.5.5-1 1-1 1 2 1.5 2 1.5 1-.5 1-.5h2.5 2.5v-1-1l.5-1.5.5-1.5h1.5 1.5" style="fill:#787367;stroke:#787367" />
        <path d="m567 47l-35-27h-.5-.5l-9.5 19.5-9.5 19.5-7 19.5-7 19.5 13-18.5 13-18.5 8-12.5 8-12.5 13.5 5.5 13.5 5.5" style="fill:#dcd7cb;stroke:#dcd7cb" />
        <path d="m566 46l1-3-.5-1.5-.5-1.5-1-1.5-1-1.5-1.5-.5-1.5-.5-2-.5-2-.5.5 1.5.5 1.5.5 2 .5 2 .5 1.5.5 1.5 1 1 1 1h1.5 1.5l.5-.5.5-.5" style="fill:#b9b5a9;stroke:#b9b5a9" />
        <path d="m565 645l-64 4-1 .5-1 .5-1.5.5-1.5.5h-3.5-3.5l-.5.5-.5.5h-2.5-2.5-2-2-2-2l-2 .5-2 .5h-2-2l-1.5 1-1.5 1 .5 1.5.5 1.5 2.5.5 2.5.5 42-5.5 42-5.5.5-.5.5-.5.5-.5.5-.5 1-1 1-1h1 1 1 1l1.5.5 1.5.5" style="fill:#dcd7cb;stroke:#dcd7cb" />
        <path d="m560 634l-50-3-19.5-.5-19.5-.5-1 .5-1 .5-1 .5-1 .5-1 1-1 1-.5.5-.5.5-1 .5-1 .5h-2-2l-1.5-.5-1.5-.5 1.5 1 1.5 1h1.5 1.5l1.5-.5 1.5-.5 1-1 1-1 2-.5 2-.5 1.5-.5 1.5-.5h.5.5l-39 5.5-39 5.5 33 7 33 7 13.5-3 13.5-3h3.5 3.5l1.5-.5 1.5-.5 1-.5 1-.5 3.5-11.5 3.5-11.5 24.5 7 24.5 7-2-1.5-2-1.5 1-1 1-1 2.5-.5 2.5-.5" style="fill:#9a968a;stroke:#9a968a" />
        <path d="m557 684l-60-3-14.5 6-14.5 6 8-.5 8-.5h-1.5-1.5-2-2-2.5-2.5-2-2l-1.5-1-1.5-1-1.5-.5-1.5-.5 16.5-2 16.5-2-1 .5-1 .5-.5.5-.5.5-.5.5-.5.5-1.5.5-1.5.5-2 1.5-2 1.5 31-3.5 31-3.5 5.5-.5 5.5-.5" style="fill:#b9b5a9;stroke:#b9b5a9" />
        <path d="m556 519l1-3-.5-.5-.5-.5-1.5.5-1.5.5-1.5.5-1.5.5h-1.5-1.5l-.5-.5-.5-.5-1.5-.5-1.5-.5-1-.5-1-.5-.5-.5-.5-.5-1-1-1-1-1.5-.5-1.5-.5-2-.5-2-.5 12.5 5 12.5 5" style="fill:#3d3126;stroke:#3d3126" />
        <path d="m550 541l1-3-2-.5-2-.5-1.5-.5-1.5-.5h-2-2l-2.5-.5-2.5-.5-1-.5-1-.5h-1-1-2-2l-1 .5-1 .5h-1-1-1-1l-.5.5-.5.5h-2-2-1.5-1.5-1-1l-1.5-.5-1.5-.5h-1.5-1.5-1-1l-1.5-.5-1.5-.5-2 .5-2 .5h-.5-.5l-1-.5-1-.5-1-.5-1-.5-1-1-1-1-.5-2-.5-2-1-1-1-1-1 1.5-1 1.5-1.5.5-1.5.5-1 .5-1 .5-2 1-2 1-1 1.5-1 1.5 1 1 1 1h2 2l1 .5 1 .5 1 .5 1 .5 1 .5 1 .5.5 1 .5 1-1 .5-1 .5h-2.5-2.5-2-2l-2 1-2 1 9.5 8.5 9.5 8.5-2 1-2 1-1.5 1-1.5 1-.5 2.5-.5 2.5-.5.5-.5.5-1 1-1 1-1 .5-1 .5 1 .5 1 .5v1 1l-.5 1-.5 1-2 .5-2 .5-1.5.5-1.5.5-2 .5-2 .5-1.5.5-1.5.5-2 .5-2 .5-2 1-2 1 .5 1 .5 1 31.5-.5 31.5-.5-1-17-1-17v-1.5-1.5l1.5-1 1.5-1h2 2l1-1 1-1 1-1.5 1-1.5 1.5-.5 1.5-.5 1.5-1 1.5-1 1.5.5 1.5.5h2.5 2.5 2 2l1.5-.5 1.5-.5" style="fill:#787367;stroke:#787367" />
        <path d="m547 561h1l-.5-1-.5-1-1.5-.5-1.5-.5h-2.5-2.5l-1.5-.5-1.5-.5-1.5-1-1.5-1-.5-1.5-.5-1.5 1-1.5 1-1.5 1-1 1-1 1-.5 1-.5 4.5 7.5 4.5 7.5" style="fill:#782100;stroke:#782100" />
        <path d="m547 480l-15-35-24.5 4-24.5 4h-.5-.5l-.5 1.5-.5 1.5-1 2.5-1 2.5.5 2.5.5 2.5v2.5 2.5h1 1l-.5 1.5-.5 1.5-.5.5-.5.5-1 2.5-1 2.5v1.5 1.5l.5 1 .5 1 34-2.5 34-2.5" style="fill:#534e41;stroke:#534e41" />
        <path d="m539 482v-2l-1.5-.5-1.5-.5-2-.5-2-.5-1.5-.5-1.5-.5-2-.5-2-.5-1.5-.5-1.5-.5h-2.5-2.5l-1 .5-1 .5h2 2l2 .5 2 .5 1.5.5 1.5.5v1 1l-1.5 1-1.5 1 2.5.5 2.5.5h2 2l2-.5 2-.5h1.5 1.5" style="fill:#755f4d;stroke:#755f4d" />
        <g style="fill:#b9b5a9;stroke:#b9b5a9">
            <path d="m539 37l1-1-8 12.5-8 12.5.5-2 .5-2 .5-1.5.5-1.5v-2.5-2.5l.5-1.5.5-1.5v-2-2l.5-2 .5-2 1-1 1-1 2 .5 2 .5h2.5 2.5" />
            <path d="m531 20h1l-22 38.5-22 38.5-14.5 20-14.5 20 17 2 17 2 7-11 7-11 8.5-29 8.5-29-13 18.5-13 18.5 7-19.5 7-19.5 9.5-19.5 9.5-19.5" />
        </g>
        <path d="m529 587l1-3-1-1-1-1-1 1.5-1 1.5v2 2l-2 .5-2 .5-1-1-1-1-2 .5-2 .5-.5 1.5-.5 1.5 1 1 1 1 1.5 2 1.5 2 1.5-1 1.5-1 .5-.5.5-.5h2 2l.5-1 .5-1v-1-1-2-2" style="fill:#534e41;stroke:#534e41" />
        <path d="m526 480v-2l-1.5-.5-1.5-.5-2-.5-2-.5h-2-2l.5 3 .5 3h3.5 3.5l1.5-1 1.5-1" style="fill:#787367;stroke:#787367" />
        <path d="m525 608h1v-1.5-1.5h-.5-.5l-1 .5-1 .5-.5-1.5-.5-1.5-1-1-1-1-2 .5-2 .5-1 1-1 1-2 .5-2 .5-1 1-1 1v1 1l1.5 1 1.5 1h2 2l-1 1-1 1 1.5.5 1.5.5h1 1l.5.5.5.5.5-1 .5-1h1 1l.5-.5.5-.5.5-.5.5-.5.5-1.5.5-1.5" style="fill:#992b00;stroke:#992b00" />
        <path d="m525 605h1l-.5-1-.5-1v-1-1l-.5-.5-.5-.5-1-.5-1-.5-1-.5-1-.5h-1.5-1.5l-1 .5-1 .5-.5.5-.5.5-2 .5-2 .5-.5.5-.5.5-1 .5-1 .5-1 .5-1 .5-.5.5-.5.5-.5.5-.5.5-.5.5-.5.5.5 1 .5 1 1 1.5 1 1.5h2 2l2 .5 2 .5 1-1 1-1h-2-2l-1.5-1-1.5-1v-1-1l1-1 1-1 2-.5 2-.5 1-1 1-1 2-.5 2-.5 1 1 1 1 .5 1.5.5 1.5 1-.5 1-.5" style="fill:#753529;stroke:#753529" />
        <path d="m519 566l1-3-1.5-.5-1.5-.5h-2.5-2.5-2-2l-2 .5-2 .5-1 1-1 1 1 1.5 1 1.5h2 2l1.5-.5 1.5-.5h2.5 2.5l1.5-.5 1.5-.5" style="fill:#9a968a;stroke:#9a968a" />
        <path d="m516 547v-2h-2-2-2.5-2.5-.5-.5-1.5-1.5l-.5.5-.5.5-.5 1-.5 1-.5.5-.5.5v1 1 1 1l1 .5 1 .5h1 1l.5-.5.5-.5v-1-1h1 1 1.5 1.5l.5-.5.5-.5 1.5-.5 1.5-.5 1-1 1-1" style="fill:#534e41;stroke:#534e41" />
        <path d="m513 550l1-1-1.5.5-1.5.5-.5.5-.5.5h-1.5-1.5-1-1v1 1l-.5.5-.5.5h-1-1l-1-.5-1-.5v-1-1-1-1l.5-.5.5-.5.5-1 .5-1 .5-.5.5-.5h1.5 1.5l3.5 2.5 3.5 2.5" style="fill:#755f4d;stroke:#755f4d" />
        <g style="fill:#534e41;stroke:#534e41">
            <path d="m512 494v-3l-1-1-1-1h-2-2-2.5-2.5l-1.5.5-1.5.5h-2.5-2.5l-1.5-.5-1.5-.5h-2.5-2.5l-1.5.5-1.5.5-2.5-.5-2.5-.5 2 1 2 1h2.5 2.5l1.5.5 1.5.5v1 1l-2 1-2 1h-2-2l-2.5.5-2.5.5v1 1l2.5-.5 2.5-.5h2 2l1.5-.5 1.5-.5 2-.5 2-.5h2 2l2-.5 2-.5h2 2 2.5 2.5l1.5-.5 1.5-.5" />
            <path d="m509 602l1-1-22.5-2.5-22.5-2.5 20 8 20 8-1-1.5-1-1.5-.5-1-.5-1 .5-.5.5-.5.5-.5.5-.5.5-.5.5-.5 1-.5 1-.5 1-.5 1-.5" />
        </g>
        <path d="m506 120l1-1-7 11-7 11 1-1 1-1 1-1.5 1-1.5.5-1.5.5-1.5 1-1 1-1 .5-2 .5-2 .5-1.5.5-1.5 1.5-1 1.5-1 .5-1 .5-1" style="fill:#9a968a;stroke:#9a968a" />
        <path d="m505 643l1-3h-2-2l-1 1-1 1-.5.5-.5.5-1 .5-1 .5-1 .5-1 .5-.5.5-.5.5h-1-1l-.5.5-.5.5h-1.5-1.5l-.5.5-.5.5h-1-1-1-1v-1-1l-.5-.5-.5-.5-.5-1.5-.5-1.5 12 .5 12 .5" style="fill:#753529;stroke:#753529" />
        <path d="m504 34l-5 22 .5-1.5.5-1.5.5-1.5.5-1.5 1-1.5 1-1.5.5-2.5.5-2.5v-2-2-2-2" style="fill:#551905;stroke:#551905" />
        <path d="m499 643l1-1h-3-3l-1.5-1-1.5-1-1.5.5-1.5.5h-2.5-2.5l-1 .5-1 .5.5 1.5.5 1.5.5.5.5.5v1 1h1 1 1 1l.5-.5.5-.5h1.5 1.5l.5-.5.5-.5h1 1l.5-.5.5-.5 1-.5 1-.5 1-.5 1-.5" style="fill:#992b00;stroke:#992b00" />
        <path d="m495 685l-33 4-1.5-1.5-1.5-1.5 1-1 1-1h2 2 1 1 1.5 1.5l1.5.5 1.5.5h2.5 2.5 2 2 2.5 2.5 1 1l.5.5.5.5-1 1.5-1 1.5 1.5-.5 1.5-.5.5-.5.5-.5.5-.5.5-.5 1-.5 1-.5" style="fill:#9a968a;stroke:#9a968a" />
        <path d="m495 535h1l-7.5-3-7.5-3 1.5-.5 1.5-.5 1-1.5 1-1.5 1 1 1 1 .5 2 .5 2 1 1 1 1 1 .5 1 .5 1 .5 1 .5" style="fill:#755f4d;stroke:#755f4d" />
        <path d="m493 327l-5-102-3.5-29-3.5-29-2 1.5-2 1.5 4.5 30 4.5 30 1.5 48 1.5 48-3 31-3 31-1.5 31.5-1.5 31.5h1 1l1-.5 1-.5.5-31.5.5-31.5 4-29.5 4-29.5" style="fill:#551905;stroke:#551905" />
        <path d="m492 143l1-2-17-2-17-2-.5 1.5-.5 1.5.5 1 .5 1h1 1l1 1 1 1 .5 1 .5 1 .5.5.5.5.5 1 .5 1 .5 1 .5 1 .5 2.5.5 2.5 1 1.5 1 1.5.5 1.5.5 1.5.5 2 .5 2 1.5 1 1.5 1 1-1.5 1-1.5 1-1 1-1 1-1.5 1-1.5.5-1.5.5-1.5 1-1 1-1 1-1.5 1-1.5 1-1 1-1 1-1.5 1-1.5 1-2 1-2" style="fill:#9a968a;stroke:#9a968a" />
        <path d="m490 686l-1-1h-1-1-2.5-2.5-2-2-2.5-2.5l-1.5-.5-1.5-.5h-1.5-1.5-1-1-2-2l-1 1-1 1 1.5 1.5 1.5 1.5 1.5.5 1.5.5 1.5 1 1.5 1h2 2 2.5 2.5 2 2 1.5 1.5l2-1.5 2-1.5 1-1.5 1-1.5" style="fill:#787367;stroke:#787367" />
        <path d="m490 562l-19-17h-1.5-1.5l-.5-1-.5-1v-1.5-1.5l.5-.5.5-.5v-1.5-1.5-1-1h-1-1v1 1l-.5 1-.5 1-1 1-1 1-.5 1-.5 1-.5 1-.5 1v1 1l-.5 1-.5 1v1 1l.5.5.5.5-.5 1-.5 1 .5 1.5.5 1.5.5 1 .5 1 2.5.5 2.5.5 1 1 1 1 2 .5 2 .5h2 2l2 .5 2 .5.5 1.5.5 1.5v2.5 2.5l.5-2.5.5-2.5 1.5-1 1.5-1 2-1 2-1" style="fill:#995249;stroke:#995249" />
        <path d="m489 494v-2l-1.5-.5-1.5-.5h-2.5-2.5l-2-1-2-1v-1.5-1.5l1-.5 1-.5-.5-1-.5-1v-1.5-1.5l-1 1-1 1-.5-1-.5-1-1-1-1-1 .5-.5.5-.5-.5-1-.5-1v-2-2l-.5 2.5-.5 2.5v2 2l-1 1-1 1-1 1.5-1 1.5-.5 2-.5 2-.5 1.5-.5 1.5-.5 2-.5 2 1 1 1 1-.5 2-.5 2v1 1l-.5 2-.5 2-.5 1.5-.5 1.5.5 2 .5 2-.5 1.5-.5 1.5v1.5 1.5l1 2 1 2-.5 1.5-.5 1.5-.5 1.5-.5 1.5-.5 2-.5 2v2.5 2.5l1-1 1-1 .5-1 .5-1v-1-1h1 1v1 1 1.5 1.5l-.5.5-.5.5v1.5 1.5l1.5-1.5 1.5-1.5 1-1 1-1h1.5 1.5 3 3l-1-.5-1-.5h-2-2l-1-1-1-1 1-1.5 1-1.5 2-1 2-1h-1.5-1.5l-.5-.5-.5-.5.5-1 .5-1 .5-.5.5-.5 1-1 1-1-1.5-.5-1.5-.5h-2-2-1.5-1.5v-2.5-2.5l1-1 1-1v-2.5-2.5l.5-1.5.5-1.5.5-2 .5-2-.5-1.5-.5-1.5.5-1.5.5-1.5 1.5-.5 1.5-.5 2.5-.5 2.5-.5h2 2l2-1 2-1" style="fill:#755f4d;stroke:#755f4d" />
        <path d="m489 325l-3-95-4.5-30-4.5-30-.5.5-.5.5 4 29.5 4 29.5 1.5 44.5 1.5 44.5-3 30.5-3 30.5-1.5 35.5-1.5 35.5 1-.5 1-.5 1.5-31.5 1.5-31.5 3-31 3-31" style="fill:#782100;stroke:#782100" />
        <path d="m488 652l1-1-13.5 3-13.5 3 .5.5.5.5h1 1l-.5-1.5-.5-1.5 1.5-1 1.5-1h2 2l2-.5 2-.5h2 2 2 2 2.5 2.5" style="fill:#b9b5a9;stroke:#b9b5a9" />
        <path d="m487 319l-3-89-4-29.5-4-29.5h-.5-.5l3.5 31 3.5 31 1 47 1 47-4 62-4 62h1 1l1.5-35.5 1.5-35.5 3-30.5 3-30.5" style="fill:#992b00;stroke:#992b00" />
        <path d="m486 542l-1-2-1-.5-1-.5-1-.5-1-.5h-3-3-1.5-1.5l-1 1-1 1-1.5 1.5-1.5 1.5.5 1 .5 1h1.5 1.5l2-1 2-1h2 2 2.5 2.5l1-.5 1-.5" style="fill:#534e41;stroke:#534e41" />
        <path d="m484 327l-2-94-3.5-31-3.5-31h-.5-.5l-.5.5-.5.5 3.5 30.5 3.5 30.5-2 3.5-2 3.5v8 8l3 34.5 3 34.5-4.5 64-4.5 64 1 .5 1 .5.5-1 .5-1 4-62 4-62" style="fill:#ba3400;stroke:#ba3400" />
        <path d="m482 453h1l-.5-1.5-.5-1.5h-1-1l-1 .5-1 .5h-1-1l-.5 1-.5 1-.5 1-.5 1v2.5 2.5 2 2l-.5.5-.5.5v2.5 2.5l.5-1 .5-1 1-1.5 1-1.5.5-1.5.5-1.5 1-.5 1-.5 1-2.5 1-2.5.5-1.5.5-1.5" style="fill:#9b3827;stroke:#9b3827" />
        <path d="m482 325l-6-69v-8-8l2-3.5 2-3.5-3.5-30.5-3.5-30.5-1.5-.5-1.5-.5-.5-.5-.5-.5v-1-1l-.5-1-.5-1-.5-.5-.5-.5v-1-1l-.5-.5-.5-.5-.5-1-.5-1-.5-.5-.5-.5v-1-1l-.5-.5-.5-.5-.5-.5-.5-.5-.5-1-.5-1v-1-1l-.5-.5-.5-.5-.5-1.5-.5-1.5-1.5-1-1.5-1-36.5 20-36.5 20 2 19 2 19-1 1-1 1-.5-.5-.5-.5v-1-1-1-1-1.5-1.5-1-1-1-1l.5-.5.5-.5.5-.5.5-.5.5-1 .5-1v-1-1l.5-.5.5-.5h1 1v2 2l21.5-14 21.5-14-3.5 27.5-3.5 27.5-3.5 27-3.5 27v29.5 29.5l-9.5 24.5-9.5 24.5 7.5 21 7.5 21-1 23.5-1 23.5 5.5 34.5 5.5 34.5 1 2.5 1 2.5 1 1 1 1v2.5 2.5l-.5 1.5-.5 1.5 1.5 1 1.5 1 1.5.5 1.5.5h1 1 1.5 1.5l1.5.5 1.5.5 1 1 1 1v1 1l1 .5 1 .5v-2-2-.5-.5-1-1-1-1l-.5-.5-.5-.5-.5-.5-.5-.5-1-.5-1-.5.5-.5.5-.5.5-.5.5-.5h1 1l1 .5 1 .5.5.5.5.5.5.5.5.5v1 1l.5.5.5.5.5 2 .5 2 1-1 1-1 1-1.5 1-1.5h2 2v-1.5-1.5-1-1-2-2l2.5-21 2.5-21v-1.5-1.5l.5-1.5.5-1.5-.5-2-.5-2 .5-1.5.5-1.5.5-2 .5-2v-1-1l.5-2 .5-2-1-1-1-1 .5-2 .5-2 .5-1.5.5-1.5.5-2 .5-2 2.5-16.5 2.5-16.5 4.5-63 4.5-63" style="fill:#de3a00;stroke:#de3a00" />
        <path d="m481 572l1-1v-2.5-2.5l-.5-1.5-.5-1.5-2-.5-2-.5h-2-2l-2-.5-2-.5-1-1-1-1-2.5-.5-2.5-.5v1.5 1.5h1 1l2.5.5 2.5.5 1.5.5 1.5.5 2 .5 2 .5 1.5-.5 1.5-.5-.5 1.5-.5 1.5-1 1.5-1 1.5-1 1-1 1-1.5 1-1.5 1-1.5-.5-1.5-.5-1.5 1-1.5 1h-1-1l-1-.5-1-.5-1-.5-1-.5h-2-2l-1 1.5-1 1.5-1 1-1 1v2 2 2.5 2.5 1 1 2 2l-.5 1.5-.5 1.5v.5.5l1-.5 1-.5 1-1 1-1v-1-1-1.5-1.5l-.5-1.5-.5-1.5.5-.5.5-.5 1-1.5 1-1.5 1-.5 1-.5 2-.5 2-.5 1.5-.5 1.5-.5 2-.5 2-.5 1.5-.5 1.5-.5 2.5-.5 2.5-.5 1-.5 1-.5 1-1 1-1" style="fill:#9b3827;stroke:#9b3827" />
        <path d="m481 474l1-3h-1-1v-2.5-2.5l-.5-2.5-.5-2.5-1 .5-1 .5-.5 1.5-.5 1.5-1 1.5-1 1.5-.5 1-.5 1v.5.5 2 2l.5 1 .5 1-.5.5-.5.5 1 1 1 1 .5 1 .5 1 1-1 1-1 1-2.5 1-2.5.5-.5.5-.5" style="fill:#995249;stroke:#995249" />
        <path d="m479 578v-2l-1-.5-1-.5-2.5.5-2.5.5-1.5.5-1.5.5-2 .5-2 .5-1.5.5-1.5.5-2 .5-2 .5-1 .5-1 .5-.5 2-.5 2 .5 1 .5 1 2-1 2-1 2-.5 2-.5 1.5-.5 1.5-.5 2-.5 2-.5 1.5-.5 1.5-.5 2-.5 2-.5.5-1 .5-1" style="fill:#9a968a;stroke:#9a968a" />
        <path d="m478 566l1-3-1.5.5-1.5.5-2-.5-2-.5-1.5-.5-1.5-.5-2.5-.5-2.5-.5.5 1 .5 1 .5.5.5.5 1 .5 1 .5.5 1 .5 1-1 .5-1 .5-1.5.5-1.5.5-1 1-1 1-.5 1-.5 1 1 .5 1 .5h1 1l1.5-1 1.5-1 1.5.5 1.5.5 1.5-1 1.5-1 1-1 1-1 1-1.5 1-1.5" style="fill:#992b00;stroke:#992b00" />
        <path d="m475 510l1-3v-2.5-2.5-1.5-1.5-1-1l-1.5.5-1.5.5-.5 1.5-.5 1.5.5 1.5.5 1.5-.5 2-.5 2-.5 1.5-.5 1.5v2.5 2.5l-1 1-1 1v2.5 2.5h1.5 1.5l1-1 1-1v-.5-.5l.5-2.5.5-2.5v-2.5-2.5" style="fill:#753529;stroke:#753529" />
        <path d="m474 665v-2l-1-1-1-1-1-1-1-1-2.5-.5-2.5-.5h-1-1l1 1 1 1 .5.5.5.5h-1-1l-.5.5-.5.5h-.5-.5l-24.5.5-24.5.5h-2-2l-2.5.5-2.5.5-.5.5-.5.5-12.5-15.5-12.5-15.5 1-18.5 1-18.5v-1.5-1.5l.5-1 .5-1 7.5-6 7.5-6h.5.5l1.5-.5 1.5-.5h1 1v-1-1l.5-.5.5-.5 1-.5 1-.5.5.5.5.5h1 1 1 1 1.5 1.5 1 1 1 1l.5.5.5.5 1 .5 1 .5h1 1l.5-1.5.5-1.5.5-.5.5-.5.5-.5.5-.5 1-.5 1-.5.5-1.5.5-1.5v-2.5-2.5l-1-1-1-1-1-2.5-1-2.5-1 .5-1 .5-1-1.5-1-1.5v1.5 1.5 1 1l-.5 1.5-.5 1.5-.5-.5-.5-.5-.5 1-.5 1-6.5-9.5-6.5-9.5-21-3.5-21-3.5h-2-2-.5-.5l-1 .5-1 .5-1 1-1 1-.5.5-.5.5-1 .5-1 .5-1.5.5-1.5.5-1-.5-1-.5-.5.5-.5.5v.5.5h1.5 1.5l1.5.5 1.5.5v1 1h-1.5-1.5l-1.5.5-1.5.5-1.5.5-1.5.5-.5.5-.5.5-1 .5-1 .5-.5.5-.5.5-.5.5-.5.5-.5.5-.5.5-1 .5-1 .5-.5.5-.5.5-.5.5-.5.5-.5.5-.5.5-.5.5-.5.5-1 .5-1 .5-.5.5-.5.5h-1-1l-.5.5-.5.5-1 .5-1 .5-.5.5-.5.5-1.5.5-1.5.5-.5.5-.5.5v.5.5l19.5 5.5 19.5 5.5-15.5 1-15.5 1 1 1 1 1h2 2l2-.5 2-.5.5.5.5.5-18 13-18 13-28 23-28 23 15 6 15 6 6.5 5.5 6.5 5.5 1-1 1-1 1.5-.5 1.5-.5 26.5 4.5 26.5 4.5 1 .5 1 .5.5.5.5.5.5 1 .5 1 .5.5.5.5.5.5.5.5.5.5.5.5 1 .5 1 .5 10.5 1 10.5 1-7-24-7-24 .5-18.5.5-18.5 7 22 7 22v2 2l.5.5.5.5 1 .5 1 .5 1 1.5 1 1.5.5 1 .5 1v1.5 1.5 1 1l.5 1 .5 1 .5 1.5.5 1.5.5.5.5.5.5-.5.5-.5h1 1l1-.5 1-.5h1 1l.5-.5.5-.5h1.5 1.5l37.5-2.5 37.5-2.5 2-1 2-1" style="fill:#9a968a;stroke:#9a968a" />
        <path d="m474 632h-1l-1.5.5-1.5.5-2 .5-2 .5-1 1-1 1-1.5.5-1.5.5h-1.5-1.5l-1.5-1-1.5-1-1-.5-1-.5-1-1-1-1 1-1 1-1 1-1 1-1 1-1.5 1-1.5.5-1.5.5-1.5 2-.5 2-.5h1.5 1.5l-38 8.5-38 8.5 1.5.5 1.5.5.5 1.5.5 1.5 1.5.5 1.5.5 39-5.5 39-5.5" style="fill:#b9b5a9;stroke:#b9b5a9" />
        <g style="fill:#d44130;stroke:#d44130">
            <path d="m474 455l1-2-1-.5-1-.5-2.5 16.5-2.5 16.5 1-1.5 1-1.5 1-1 1-1v-2-2l.5-2.5.5-2.5v-.5-.5-2.5-2.5l.5-.5.5-.5v-2-2-2.5-2.5" />
            <path d="m474 170l1-2-1.5-1-1.5-1-.5-2-.5-2-.5-1.5-.5-1.5-1-1.5-1-1.5-.5-2.5-.5-2.5-1-.5-1-.5-1-1-1-1-2-.5-2-.5.5 1.5.5 1.5.5.5.5.5v1 1l.5 1 .5 1 .5.5.5.5.5.5.5.5v1 1l.5.5.5.5.5 1 .5 1 .5.5.5.5v1 1l.5.5.5.5.5 1 .5 1v1 1l.5.5.5.5 1.5.5 1.5.5.5-.5.5-.5v-.5-.5" />
        </g>
        <path d="m473 619l1-3-1.5-1-1.5-1h-1-1-2.5-2.5-2-2-2.5-2.5-2-2-2.5-2.5-2-2-2-2-2-2l-2 .5-2 .5-2.5.5-2.5.5-1 .5-1 .5v1 1l1.5 1 1.5 1-.5 1.5-.5 1.5-18.5 7-18.5 7h.5.5l38-8.5 38-8.5h2 2l.5-.5.5-.5 1.5-.5 1.5-.5" style="fill:#9a968a;stroke:#9a968a" />
        <path d="m471 627v-2l-.5-.5-.5-.5v-1-1h-1.5-1.5l-1-.5-1-.5h-1.5-1.5l-2 .5-2 .5-.5 1.5-.5 1.5-1 1.5-1 1.5-1 1-1 1-1 1-1 1 1 1 1 1 1 .5 1 .5 1.5.5 1.5.5h2 2l1-.5 1-.5.5-.5.5-.5 1-1 1-1 1-.5 1-.5 1-.5 1-.5v-1.5-1.5" style="fill:#753529;stroke:#753529" />
        <path d="m469 567l-1-2-1-.5-1-.5-.5-.5-.5-.5-.5-1-.5-1h-1-1l-1.5 1-1.5 1v2 2 1 1 1.5 1.5l1 .5 1 .5.5-1 .5-1 1-1 1-1 1.5-.5 1.5-.5 1-.5 1-.5" style="fill:#ba3400;stroke:#ba3400" />
        <path d="m466 661l-1-1-1-1-1-1-.5-.5-.5-.5-33-7-33-7-1.5-.5-1.5-.5 35.5 9.5 35.5 9.5h1 1" style="fill:#995249;stroke:#995249" />
        <path d="m465 528l1-3-1-2-1-2-2.5 21-2.5 21 1.5-1 1.5-1v-1.5-1.5l-.5-1-.5-1-.5-1.5-.5-1.5.5-1 .5-1-.5-.5-.5-.5v-1-1l.5-1 .5-1v-1-1l.5-1 .5-1 .5-1 .5-1v-2.5-2.5l.5-2 .5-2 .5-1.5.5-1.5" style="fill:#d44130;stroke:#d44130" />
        <path d="m463 662l1-1-35.5-9.5-35.5-9.5-.5-1.5-.5-1.5-1.5-.5-1.5-.5h-.5-.5-2-2l-1-1-1-1v-2-2l2-.5 2-.5h2 2l2-.5 2-.5 1.5-.5 1.5-.5 2-.5 2-.5 1.5-1 1.5-1h-2-2l-.5.5-.5.5-1.5.5-1.5.5-1.5.5-1.5.5h-1.5-1.5-1-1-1-1-2-2l-1 .5-1 .5-.5-1-.5-1-.5 2.5-.5 2.5 1 1 1 1 .5 1.5.5 1.5 1 1 1 1h2.5 2.5l1 2 1 2 1.5.5 1.5.5 1.5.5 1.5.5 2 .5 2 .5 1 1 1 1 1 .5 1 .5 1.5.5 1.5.5h1 1l1.5 1 1.5 1 23.5 3.5 23.5 3.5 1 .5 1 .5 1 .5 1 .5" style="fill:#9b3827;stroke:#9b3827" />
        <path d="m462 662h1l-1-.5-1-.5-1-.5-1-.5-.5.5-.5.5-23-4-23-4-1.5-1-1.5-1h-1-1l-1.5-.5-1.5-.5-.5 2-.5 2-.5 1.5-.5 1.5.5.5.5.5.5 1 .5 1 1.5.5 1.5.5h1 1l1 .5 1 .5 1 .5 1 .5 24.5-.5 24.5-.5" style="fill:#992b00;stroke:#992b00" />
        <path d="m460 720h1-9.5-9.5 3 3 2.5 2.5 2 2 1.5 1.5" style="fill:#b9b5a9;stroke:#b9b5a9" />
        <path d="m458 661l1-1-23.5-3.5-23.5-3.5 23 4 23 4" style="fill:#ba3400;stroke:#ba3400" />
        <path d="m456 592l1-3-.5-1-.5-1-.5-1-.5-1 .5-2 .5-2-1 1.5-1 1.5-.5.5-.5.5.5 1.5.5 1.5v1.5 1.5 1 1l-1 1-1 1-1 .5-1 .5-1 1.5-1 1.5-.5 1.5-.5 1.5-1.5.5-1.5.5-.5.5-.5.5-.5 1-.5 1-1.5.5-1.5.5-.5.5-.5.5-1 .5-1 .5-1.5.5-1.5.5-.5.5-.5.5-1 .5-1 .5-1 1-1 1-1.5 1-1.5 1 2.5-.5 2.5-.5 2-.5 2-.5h2 2l1.5-1 1.5-1 1-.5 1-.5 1-.5 1-.5 1.5-1.5 1.5-1.5 1-1 1-1 1-1.5 1-1.5 1-1 1-1 1-1.5 1-1.5v-2.5-2.5" style="fill:#995249;stroke:#995249" />
        <path d="m456 145l-1-1-.5-.5-.5-.5-.5.5-.5.5h-1.5-1.5l-.5.5-.5.5-.5.5-.5.5h-1-1l-1 .5-1 .5-1.5.5-1.5.5-.5.5-.5.5-23.5 14-23.5 14-.5.5-.5.5-.5 1-.5 1-1.5.5-1.5.5-1.5.5-1.5.5-1 1-1 1v.5.5l36.5-20 36.5-20" style="fill:#ba3400;stroke:#ba3400" />
        <path d="m455 137l1-2-33 17-33 17 .5 1 .5 1 1 1 1 1 21.5-12 21.5-12 1-.5 1-.5 2-1.5 2-1.5 1.5-.5 1.5-.5 1.5-1 1.5-1 1-1 1-1 2-.5 2-.5.5-1 .5-1" style="fill:#551905;stroke:#551905" />
        <path d="m451 581v-4l-.5-2-.5-2-.5-.5-.5-.5v-1-1l-.5-.5-.5-.5-.5-.5-.5-.5-1-.5-1-.5h-1-1l-.5.5-.5.5-.5.5-.5.5 1 .5 1 .5.5.5.5.5.5.5.5.5v1 1 1 1 .5.5 2 2l.5 2.5.5 2.5.5 1.5.5 1.5 1 1.5 1 1.5h1 1v-2-2-1-1-2.5-2.5" style="fill:#ba3400;stroke:#ba3400" />
        <path d="m450 595l1-3h-1-1l-1-1.5-1-1.5-.5-1.5-.5-1.5-.5-2.5-.5-2.5-1-.5-1-.5v-1-1l-1-1-1-1-1.5-.5-1.5-.5h-1.5-1.5-1-1l-1.5-.5-1.5-.5-1.5-1-1.5-1-1 .5-1 .5-.5.5-.5.5-.5.5-.5.5-.5 1.5-.5 1.5-.5.5-.5.5v1.5 1.5l.5 2 .5 2v1.5 1.5l-11 12-11 12-.5 1-.5 1-1 1-1 1v2 2l-.5 2-.5 2v1.5 1.5l1.5-.5 1.5-.5.5-.5.5-.5h2 2l1.5-.5 1.5-.5.5-1 .5-1 1.5-.5 1.5-.5 1.5-1 1.5-1h1 1l2-.5 2-.5 1.5-1 1.5-1 1-.5 1-.5 1.5-1 1.5-1 1-1 1-1 1-.5 1-.5.5-.5.5-.5 1.5-.5 1.5-.5 1-.5 1-.5.5-.5.5-.5 1.5-.5 1.5-.5.5-1 .5-1 .5-.5.5-.5 1.5-.5 1.5-.5.5-1.5.5-1.5 1-1.5 1-1.5v-.5-.5" style="fill:#d44130;stroke:#d44130" />
        <path d="m441 10v-2l-.5-1.5-.5-1.5.5-2.5.5-2.5h-1.5-1.5-2.5-2.5-2-2-2.5-2.5-2-2-2-2-2.5-2.5-1-1v2 2l-2 .5-2 .5-2 .5-2 .5-1.5-.5-1.5-.5-2-.5-2-.5-1.5.5-1.5.5-1-1-1-1v-1.5-1.5h-35.5-35.5-1.5-1.5l7.5 25 7.5 25-9.5 40-9.5 40 .5 1 .5 1 .5.5.5.5.5.5.5.5 1 .5 1 .5 1 1 1 1 .5.5.5.5 1 .5 1 .5.5 1.5.5 1.5.5.5.5.5.5 1 .5 1 .5 1.5.5 1.5.5.5.5.5 1 1.5 1 1.5.5 1 .5 1 1 .5 1 .5v1 1l.5 1 .5 1 .5 1.5.5 1.5 1 1.5 1 1.5 1 1 1 1 .5-1.5.5-1.5 12.5-34 12.5-34 22-9.5 22-9.5 5-17.5 5-17.5 12-16 12-16" style="fill:#3d3126;stroke:#3d3126" />
        <path d="m440 149l1-1h-1.5-1.5l-1 .5-1 .5-.5.5-.5.5-21 12.5-21 12.5v1 1l23.5-14 23.5-14" style="fill:#992b00;stroke:#992b00" />
        <path d="m435 150l1-1-21.5 12-21.5 12v1 1l21-12.5 21-12.5" style="fill:#782100;stroke:#782100" />
        <path d="m433 182l-43 28-.5 1-.5 1v1 1 2 2l-.5 1.5-.5 1.5-.5 1-.5 1-2-19-2-19v-.5-.5l-1.5.5-1.5.5-.5 1.5-.5 1.5-1 1-1 1-.5.5-.5.5-1 .5-1 .5-.5 1-.5 1-.5 1.5-.5 1.5-6 18.5-6 18.5-7.5 26-7.5 26 20.5-3.5 20.5-3.5.5-1 .5-1 18-38.5 18-38.5-8 26-8 26-4.5 21-4.5 21-15 20.5-15 20.5-17.5 18-17.5 18 5 23.5 5 23.5 5.5 28 5.5 28 2 30 2 30v2 2h2 2l29 8.5 29 8.5 1 1.5 1 1.5 1-.5 1-.5-5.5-34.5-5.5-34.5 1-23.5 1-23.5-7.5-21-7.5-21 9.5-24.5 9.5-24.5v-29.5-29.5l3.5-27 3.5-27 3.5-27.5 3.5-27.5" style="fill:#d44130;stroke:#d44130" />
        <path d="m426 715l1-3v-1-1-1-1l-.5-1-.5-1-.5-.5-.5-.5v-1-1l-.5-1-.5-1-1-1-1-1-.5-1-.5-1h-1-1l-.5.5-.5.5-.5 1-.5 1-.5 1.5-.5 1.5v2.5 2.5l.5 1.5.5 1.5 1.5 1.5 1.5 1.5 1 1 1 1h1 1l1-.5 1-.5" style="fill:#9a968a;stroke:#9a968a" />
        <path d="m425 624l1-3-1.5-1-1.5-1v-1-1l-1.5 1-1.5 1-2 .5-2 .5h-1-1l-1.5 1-1.5 1-1.5.5-1.5.5-.5 1-.5 1-1.5.5-1.5.5-1.5 1-1.5 1-2 .5-2 .5-1.5.5-1.5.5-2 .5-2 .5h-2-2l-2 .5-2 .5v2 2l1 1 1 1h2 2l18.5-7 18.5-7" style="fill:#995249;stroke:#995249" />
        <path d="m424 697l1-3-.5-1.5-.5-1.5-1-.5-1-.5h-1-1-1-1l-.5-.5-.5-.5-1-.5-1-.5-.5-.5-.5-.5h-1-1l-.5-.5-.5-.5-1-.5-1-.5h-1-1l-.5-.5-.5-.5-1-.5-1-.5.5 1 .5 1 1.5 1 1.5 1 1.5.5 1.5.5 2 .5 2 .5.5 1.5.5 1.5-.5 1.5-.5 1.5-9.5 5-9.5 5 1.5 1.5 1.5 1.5 1.5.5 1.5.5 2 .5 2 .5 1.5.5 1.5.5 2-.5 2-.5 1.5.5 1.5.5 1 1 1 1 1 .5 1 .5-1.5-1.5-1.5-1.5-.5-1.5-.5-1.5v-2.5-2.5l.5-1.5.5-1.5.5-1 .5-1 .5-.5.5-.5h1 1l.5 1 .5 1 1 1 1 1v-2-2" style="fill:#b9b5a9;stroke:#b9b5a9" />
        <g style="fill:#de3a00;stroke:#de3a00">
            <path d="m423 200l-36 77 .5-1 .5-1 .5-1 .5-1 .5-.5.5-.5.5-1 .5-1 1-1 1-1v-1-1l1-.5 1-.5.5-1.5.5-1.5v-1-1l.5-.5.5-.5.5-.5.5-.5v1 1 1.5 1.5l-1 1.5-1 1.5-.5 1.5-.5 1.5-.5 2-.5 2-1 1-1 1-.5 1.5-.5 1.5-1 1.5-1 1.5h-2-2l.5-1 .5-1-20.5 3.5-20.5 3.5 7.5-26 7.5-26-2.5-8-2.5-8-.5.5-.5.5-1.5.5-1.5.5-1 1.5-1 1.5-1-1-1-1h-1.5-1.5l-1.5-.5-1.5-.5-1.5-1-1.5-1-1.5-.5-1.5-.5v1.5 1.5l-.5 1.5-.5 1.5h-1-1l-.5.5-.5.5h1 1l-1 .5-1 .5h-1-1v-1-1l-.5-.5-.5-.5.5-1 .5-1v-1-1l.5-.5.5-.5-.5-.5-.5-.5v-1.5-1.5-1-1-1-1-1-1l-.5-2-.5-2-1 .5-1 .5v1.5 1.5l-.5.5-.5.5-1 .5-1 .5-.5-1.5-.5-1.5-.5-.5-.5-.5-.5-1-.5-1-.5-1.5-.5-1.5v-1-1l.5-1 .5-1 .5-1.5.5-1.5 1-2.5 1-2.5-7.5-22-7.5-22-5 18-5 18 10.5 6 10.5 6-6.5 27-6.5 27-4 27.5-4 27.5v24.5 24.5l-4.5 20-4.5 20 9.5 18 9.5 18 6 16.5 6 16.5-2 44.5-2 44.5 14.5-4 14.5-4h1.5 1.5l.5-.5.5-.5 1-1.5 1-1.5.5-1.5.5-1.5.5-2 .5-2h1 1l1 1 1 1 .5 1.5.5 1.5-2-30-2-30-5.5-28-5.5-28-5-23.5-5-23.5 17.5-18 17.5-18 15-20.5 15-20.5 4.5-21 4.5-21 8-26 8-26" />
            <path d="m422 589v-3l-.5-2-.5-2-10.5 15.5-10.5 15.5 11-12 11-12" />
        </g>
        <path d="m421 579l1-1h-1-1-.5-.5l-18.5 25.5-18.5 25.5h2 2 1 1 1 1 1.5 1.5l1.5-.5 1.5-.5v-1.5-1.5l.5-2 .5-2v-2-2l1-1 1-1 .5-1 .5-1 10.5-15.5 10.5-15.5v-1.5-1.5" style="fill:#ba3400;stroke:#ba3400" />
        <path d="m419 578h1l-1-.5-1-.5-.5-.5-.5-.5h-1-1-1-1-1.5-1.5-1-1-1-1l-.5-.5-.5-.5-1 .5-1 .5-.5.5-.5.5v1 1h-1-1l-1.5.5-1.5.5.5 1 .5 1-.5 1-.5 1-.5 1-.5 1v1.5 1.5 2 2l-.5 2-.5 2-.5 1.5-.5 1.5-2 .5-2 .5-.5-1.5-.5-1.5-1.5-1-1.5-1h-1.5-1.5l-.5.5-.5.5v1.5 1.5l-.5 1.5-.5 1.5-.5 2-.5 2v1 1 2.5 2.5 2 2 2 2l-.5 3-.5 3 .5 1 .5 1 1-.5 1-.5 18.5-25.5 18.5-25.5" style="fill:#992b00;stroke:#992b00" />
        <path d="m419 563l1-3v-1-1-1.5-1.5l-29-8.5-29-8.5 21 3.5 21 3.5 1 1.5 1 1.5v2 2l1 .5 1 .5 1-1 1-1 1.5 1 1.5 1 1.5.5 1.5.5 1 1.5 1 1.5v2.5 2.5l.5.5.5.5" style="fill:#995249;stroke:#995249" />
        <g style="fill:#787367;stroke:#787367">
            <path d="m417 564l1-2v-2.5-2.5l-1-1.5-1-1.5-1.5-.5-1.5-.5-1.5-1-1.5-1-1 1-1 1-1-.5-1-.5v-2-2l-1-1.5-1-1.5 6.5 9.5 6.5 9.5" />
            <path d="m415 695l1-3-.5-1.5-.5-1.5-2-.5-2-.5-1.5-.5-1.5-.5-1.5-1-1.5-1-.5-1-.5-1-1-1-1-1-2-1.5-2-1.5h-1.5-1.5-2-2l-1 1-1 1 1 1.5 1 1.5 1 1 1 1 1.5 1 1.5 1 1.5.5 1.5.5 1.5 1 1.5 1 .5 1.5.5 1.5v1 1l-1 .5-1 .5-1 .5-1 .5h-1-1-1-1l-.5-.5-.5-.5h-1.5-1.5l-.5.5-.5.5v1 1l.5.5.5.5 1 .5 1 .5.5.5.5.5.5.5.5.5.5 1 .5 1 9.5-5 9.5-5" />
        </g>
        <path d="m413 663l-2-1-1-.5-1-.5h-1-1l-1.5-.5-1.5-.5-.5-1-.5-1-.5-.5-.5-.5.5-1.5.5-1.5.5-2 .5-2-1-.5-1-.5-1-1-1-1-2-.5-2-.5-1.5-.5-1.5-.5-1.5-.5-1.5-.5 7 10 7 10 2.5-.5 2.5-.5h2 2" style="fill:#782100;stroke:#782100" />
        <path d="m409 4v-4h-3.5-3.5-2-2-2.5-2.5-2-2v1.5 1.5l1 1 1 1 1.5-.5 1.5-.5 2 .5 2 .5 1.5.5 1.5.5 2-.5 2-.5 2-.5 2-.5" style="fill:#534e41;stroke:#534e41" />
        <path d="m403 695v-2l-.5-1.5-.5-1.5-1.5-1-1.5-1-1.5-.5-1.5-.5-1.5-1-1.5-1-1-1-1-1-1-1.5-1-1.5 1-1 1-1h2 2 1.5 1.5l1.5 9 1.5 9 1-.5 1-.5" style="fill:#9a968a;stroke:#9a968a" />
        <path d="m403 677v-2h-2-2-2.5-2.5l.5-1.5.5-1.5h-1.5-1.5l-.5.5-.5.5h-1-1l-1 .5-1 .5h-1-1l-.5.5-.5.5-.5-.5-.5-.5-.5-1.5-.5-1.5-.5-1-.5-1v-1-1-1.5-1.5l-.5-1-.5-1v1.5 1.5 1 1l-.5.5-.5.5-.5-.5-.5-.5h-1.5-1.5l-.5.5-.5.5v1 1l.5.5.5.5v1.5 1.5l.5.5.5.5v1 1l.5.5.5.5v1 1l1 .5 1 .5v1 1l.5.5.5.5-.5 1.5-.5 1.5v1.5 1.5 1 1h-1-1l-1.5 1-1.5 1-10.5-1-10.5-1 21.5 6.5 21.5 6.5-.5-1-.5-1-.5-.5-.5-.5-.5-.5-.5-.5-1-.5-1-.5-.5-.5-.5-.5v-1-1l.5-.5.5-.5h1.5 1.5l.5.5.5.5h1 1 1 1l1-.5 1-.5-1.5-9-1.5-9 2 1.5 2 1.5.5-2 .5-2" style="fill:#b9b5a9;stroke:#b9b5a9" />
        <path d="m403 665l1-1-7-10-7-10-1-2-1-2h-2.5-2.5l-1-1-1-1-.5-1.5-.5-1.5-1-1-1-1v.5.5l12.5 15.5 12.5 15.5" style="fill:#551905;stroke:#551905" />
        <path d="m402 562v-2l-1-1-1-1 .5-2 .5-2v-2-2l-1-1.5-1-1.5-1-1-1-1-1.5-1-1.5-1-1-1-1-1-1.5-.5-1.5-.5-.5-1-.5-1h-.5-.5l-12.5 20.5-12.5 20.5 20-8.5 20-8.5" style="fill:#dcd7cb;stroke:#dcd7cb" />
        <path d="m398 260v-2l-.5.5-.5.5-.5.5-.5.5v1 1l-.5 1.5-.5 1.5-1 .5-1 .5v1 1l-1 1-1 1-.5 1-.5 1-.5.5-.5.5-.5 1-.5 1-.5 1-.5 1-.5 1-.5 1-.5 1-.5 1h2 2l1-1.5 1-1.5.5-1.5.5-1.5 1-1 1-1 .5-2 .5-2 .5-1.5.5-1.5 1-1.5 1-1.5v-1.5-1.5" style="fill:#ba3400;stroke:#ba3400" />
        <path d="m397 584l1-2-.5-1-.5-1h-.5-.5l-.5.5-.5.5-1 1-1 1-1 .5-1 .5-.5 1.5-.5 1.5-.5-.5-.5-.5-.5.5-.5.5-.5.5-.5.5-1 .5-1 .5-.5.5-.5.5-.5.5-.5.5-1 .5-1 .5-.5 1-.5 1v1.5 1.5l1.5-.5 1.5-.5h1.5 1.5l1.5 1 1.5 1 .5 1.5.5 1.5 2-.5 2-.5.5-1.5.5-1.5.5-2 .5-2v-2-2-1.5-1.5l.5-1 .5-1" style="fill:#782100;stroke:#782100" />
        <path d="m395 581l1-1-7.5 6-7.5 6 1-.5 1-.5.5-.5.5-.5.5-.5.5-.5 1-.5 1-.5.5-.5.5-.5.5-.5.5-.5.5.5.5.5.5-1.5.5-1.5 1-.5 1-.5 1-1 1-1" style="fill:#753529;stroke:#753529" />
        <path d="m392 178l1-1v-1-1h-.5-.5l-1 .5-1 .5-1.5 1-1.5 1-1 1-1 1-2 .5-2 .5-1 1-1 1-1.5 1-1.5 1-1.5.5-1.5.5v1 1 1.5 1.5l-.5 1-.5 1v.5.5h.5.5l.5-1 .5-1 1-.5 1-.5.5-.5.5-.5 1-1 1-1 .5-1.5.5-1.5 1.5-.5 1.5-.5 1-1 1-1 1.5-.5 1.5-.5 1.5-.5 1.5-.5.5-1 .5-1" style="fill:#9b3827;stroke:#9b3827" />
        <path d="m392 175h1v-1-1l-1-1-1-1h-.5-.5l-18.5 5.5-18.5 5.5h-2.5-2.5l-.5.5-.5.5-.5-.5-.5-.5-.5-.5-.5-.5v-2-2l-.5-1-.5-1-.5-.5-.5-.5-.5-1.5-.5-1.5-.5-1-.5-1h-1-1v-1-1l-.5-1.5-.5-1.5-.5 1.5-.5 1.5-1-1-1-1-1-1.5-1-1.5-.5-1.5-.5-1.5-.5-1-.5-1v-1-1l-1-.5-1-.5-.5-1-.5-1-.5 1-.5 1 .5 1 .5 1 .5 1.5.5 1.5.5 2 .5 2 .5 1.5.5 1.5.5 2 .5 2 1 1 1 1v1.5 1.5h-.5-.5l-.5.5-.5.5h-.5-.5-.5-.5v.5.5l-.5 2-.5 2-.5 1.5-.5 1.5v1 1 1 1l-.5 1-.5 1 .5.5.5.5v1 1l.5.5.5.5v1 1 1 1 1.5 1.5l.5 1.5.5 1.5 1 1.5 1 1.5.5 1.5.5 1.5 1 1.5 1 1.5h1 1l2 .5 2 .5 1 1 1 1h2 2 1.5 1.5l2 .5 2 .5 1-1 1-1 1.5-1 1.5-1 .5-1.5.5-1.5v-1-1l.5-.5.5-.5.5-.5.5-.5.5-1 .5-1v-1-1h1 1l.5.5.5.5v-1-1l.5-1 .5-1v-1-1-1-1l.5-.5.5-.5.5-1 .5-1h1 1l1-.5 1-.5v-1.5-1.5-1-1l1.5-.5 1.5-.5 1.5-1 1.5-1 1-1 1-1 2-.5 2-.5 1-1 1-1 1.5-1 1.5-1 1-.5 1-.5" style="fill:#9a968a;stroke:#9a968a" />
        <path d="m390 171h1l-.5-1-.5-1-18.5 6.5-18.5 6.5 18.5-5.5 18.5-5.5" style="fill:#3d3126;stroke:#3d3126" />
        <path d="m389 214v-2l.5-1 .5-1v-2-2h-1-1l-.5.5-.5.5v1 1l-.5 1-.5 1-.5.5-.5.5-.5.5-.5.5v1 1 1 1 1.5 1.5 1 1 1 1l.5.5.5.5 1-1 1-1 .5-1 .5-1 .5-1.5.5-1.5v-2-2" style="fill:#ba3400;stroke:#ba3400" />
        <g style="fill:#b9b5a9;stroke:#b9b5a9">
            <path d="m387 538h1l-13.5 14.5-13.5 14.5.5 6 .5 6 12.5-20.5 12.5-20.5" />
            <path d="m386 718l1-3-1-1-1-1-1-1.5-1-1.5-1-1-1-1-2 .5-2 .5-1 1-1 1-1.5 1.5-1.5 1.5 1-.5 1-.5 1-1 1-1 1.5-1 1.5-1 1.5.5 1.5.5-.5 1.5-.5 1.5-.5 1-.5 1-.5.5-.5.5-.5 1-.5 1-.5 1-.5 1h1.5 1.5 2.5 2.5.5.5v-1-1" />
            <path d="m386 175l-29 20-9-7.5-9-7.5-1.5 12.5-1.5 12.5 11-2 11-2-1 1.5-1 1.5-.5 1.5-.5 1.5-1 1.5-1 1.5-1.5.5-1.5.5-1.5-.5-1.5-.5-2-.5-2-.5-1.5-.5-1.5-.5-2-1.5-2-1.5 17-9.5 17-9.5 8-5.5 8-5.5" />
        </g>
        <path d="m382 597l1-1-1.5.5-1.5.5-1 18.5-1 18.5v-.5-.5l.5-2.5.5-2.5.5-3 .5-3v-2-2-2-2-2.5-2.5-1-1l.5-2 .5-2 .5-1.5.5-1.5v-1.5-1.5" style="fill:#753529;stroke:#753529" />
        <path d="m381 713l1-3-1.5-.5-1.5-.5-1.5 1-1.5 1-1 1-1 1-1 .5-1 .5-1 .5-1 .5-1 .5-1 .5-.5.5-.5.5h-2-2l-1.5.5-1.5.5h-1.5-1.5-1-1l-1.5-.5-1.5-.5-1-.5-1-.5h-1-1l-.5 2-.5 2h3.5 3.5 2 2 2.5 2.5 2 2 2 2 2.5 2.5.5.5l.5-1 .5-1 .5-1 .5-1 .5-.5.5-.5.5-1 .5-1" style="fill:#9a968a;stroke:#9a968a" />
        <path d="m379 687l1-3-.5-.5-.5-.5v-1-1l-1-.5-1-.5v-1-1l-.5-.5-.5-.5v-1-1l-.5-.5-.5-.5v-1.5-1.5l-.5-.5-.5-.5v-1-1l.5-.5.5-.5h1.5 1.5l.5.5.5.5.5-.5.5-.5v-1-1-1.5-1.5l-1-1.5-1-1.5-1-.5-1-.5-.5-.5-.5-.5v-2-2h-.5-.5v20.5 20.5l1.5-1 1.5-1h1 1v-1-1-1.5-1.5" style="fill:#dcd7cb;stroke:#dcd7cb" />
        <path d="m374 653h1l-7-22-7-22-.5 18.5-.5 18.5 7 24 7 24v-20.5-20.5" style="fill:#b9b5a9;stroke:#b9b5a9" />
        <path d="m373 583l-28 12 .5 1.5.5 1.5 1 1.5 1 1.5h2 2l2-.5 2-.5-.5-.5-.5-.5 6-6.5 6-6.5 1.5-.5 1.5-.5 1.5-1 1.5-1" style="fill:#3d3126;stroke:#3d3126" />
        <path d="m372 197l1-3h-.5-.5l-.5 1-.5 1-.5 1.5-.5 1.5-1 1-1 1-.5 2-.5 2-1 1-1 1-1 1.5-1 1.5-1 1-1 1-1 .5-1 .5-1.5 1-1.5 1-1 1-1 1 .5.5.5.5 2.5 8 2.5 8 6-18.5 6-18.5" style="fill:#ba3400;stroke:#ba3400" />
        <path d="m372 193l1-2-1 .5-1 .5h-1-1l-.5 1-.5 1-.5.5-.5.5v1 1 1 1l-.5 1-.5 1v1 1l-.5-.5-.5-.5h-1-1v1 1l-.5 1-.5 1-.5.5-.5.5-.5.5-.5.5v1 1l-.5 1.5-.5 1.5 1-.5 1-.5 1-1 1-1 1-1.5 1-1.5 1-1 1-1 .5-2 .5-2 1-1 1-1 .5-1.5.5-1.5.5-1 .5-1v-.5-.5" style="fill:#992b00;stroke:#992b00" />
        <path d="m366 588v-1l-1 .5-1 .5-.5.5-.5.5h-1-1-1.5-1.5v1 1 1 1l-.5.5-.5.5-.5 1-.5 1-.5 1.5-.5 1.5.5.5.5.5 1.5-.5 1.5-.5 1.5-.5 1.5-.5.5-2.5.5-2.5.5-1.5.5-1.5 1-1 1-1" style="fill:#753529;stroke:#753529" />
        <path d="m366 586h1l-6 6.5-6 6.5.5-1.5.5-1.5.5-1 .5-1 .5-.5.5-.5v-1-1-1-1h1.5 1.5 1 1l.5-.5.5-.5 1-.5 1-.5v-.5-.5" style="fill:#551905;stroke:#551905" />
        <path d="m365 675l-4-11 2 8.5 2 8.5v-3-3" style="fill:#787367;stroke:#787367" />
        <path d="m364 603l-1-1-.5-1.5-.5-1.5v-.5-.5l-1.5.5-1.5.5-1.5.5-1.5.5-2 .5-2 .5h-2-2l-1-1.5-1-1.5-.5-1.5-.5-1.5 8.5 5 8.5 5 1-1 1-1" style="fill:#534e41;stroke:#534e41" />
        <path d="m359 574l1-3v-2-2l-.5-2-.5-2-.5-1.5-.5-1.5h-1.5-1.5l-.5 1.5-.5 1.5v2.5 2.5l.5 1.5.5 1.5.5 1.5.5 1.5h1.5 1.5" style="fill:#787367;stroke:#787367" />
        <path d="m358 681l-7-38-16-3.5-16-3.5-10.5 7-10.5 7h2.5 2.5l-1 1-1 1 .5.5.5.5v1 1l-.5.5-.5.5v1.5 1.5 1 1l.5.5.5.5.5.5.5.5.5 1 .5 1 .5.5.5.5v1 1l.5.5.5.5.5 1 .5 1h1.5 1.5l.5-1 .5-1 11 2.5 11 2.5v1 1l1.5 1 1.5 1h1.5 1.5l.5-.5.5-.5 1.5-16 1.5-16 7 19 7 19 .5-1 .5-1" style="fill:#551905;stroke:#551905" />
        <path d="m358 201l-22 4 2 1.5 2 1.5 1.5.5 1.5.5 2 .5 2 .5 1.5.5 1.5.5 1.5-.5 1.5-.5 1-1.5 1-1.5.5-1.5.5-1.5 1-1.5 1-1.5" style="fill:#dcd7cb;stroke:#dcd7cb" />
        <path d="m357 538h1v-2-2l-.5-1.5-.5-1.5-1-1-1-1h-1-1l-.5 2-.5 2-.5 1.5-.5 1.5-1 1.5-1 1.5-.5.5-.5.5h-1.5-1.5v1.5 1.5l1 .5 1 .5 1.5-.5 1.5-.5 1-.5 1-.5.5-.5.5-.5 1-1 1-1 1-.5 1-.5" style="fill:#ba3400;stroke:#ba3400" />
        <path d="m356 684l1-1-7-19-7-19-1.5 16-1.5 16 2 .5 2 .5 1 1 1 1 1.5 1 1.5 1 1 1 1 1 1 1.5 1 1.5h1 1l.5-1.5.5-1.5" style="fill:#25150a;stroke:#25150a" />
        <path d="m355 579l-39-11-.5 1-.5 1-1.5 1-1.5 1v2 2l2 .5 2 .5 1.5.5 1.5.5 2 1 2 1 .5.5.5.5 15.5-1 15.5-1" style="fill:#b9b5a9;stroke:#b9b5a9" />
        <path d="m354 219l1-1-.5-.5-.5-.5-2-.5-2-.5h-1.5-1.5-2-2l-1-1-1-1-2-.5-2-.5h-1-1v2 2l1.5.5 1.5.5 1.5 1 1.5 1 1.5.5 1.5.5h1.5 1.5l1 1 1 1 1-1.5 1-1.5 1.5-.5 1.5-.5" style="fill:#d44130;stroke:#d44130" />
        <path d="m350 548v-2l-1.5-.5-1.5-.5h-1.5-1.5l-1.5.5-1.5.5h-1-1l-.5.5-.5.5h-1.5-1.5l-.5.5-.5.5h-1-1l-.5.5-.5.5-1 .5-1 .5-.5.5-.5.5h-1-1-1-1l-.5.5-.5.5-1.5 1-1.5 1-.5 1-.5 1-.5 2-.5 2-.5 1.5-.5 1.5-1.5 1-1.5 1-.5 1.5-.5 1.5 1.5-.5 1.5-.5.5-.5.5-.5.5-1 .5-1 1-1 1-1 .5-1.5.5-1.5.5-.5.5-.5 1-.5 1-.5 1-1 1-1h1 1l1-.5 1-.5 1.5-.5 1.5-.5h1 1l1-.5 1-.5 2-1 2-1 1.5-.5 1.5-.5 1.5-.5 1.5-.5h1.5 1.5" style="fill:#995249;stroke:#995249" />
        <path d="m345 607l-31 2 14.5-1 14.5-1h1 1" style="fill:#b9b5a9;stroke:#b9b5a9" />
        <path d="m344 544l1-1v-1.5-1.5l-14.5 4-14.5 4-.5 1-.5 1-.5.5-.5.5v1 1 1 1l.5 1 .5 1 2.5-1.5 2.5-1.5 1.5-1 1.5-1 .5-.5.5-.5h1 1 1 1l.5-.5.5-.5 1-.5 1-.5.5-.5.5-.5h1 1l.5-.5.5-.5h1.5 1.5l.5-.5.5-.5h1 1l1.5-.5 1.5-.5v-.5-.5" style="fill:#d44130;stroke:#d44130" />
        <path d="m343 684h1l-26.5-4.5-26.5-4.5 26 4.5 26 4.5" style="fill:#b9b5a9;stroke:#b9b5a9" />
        <path d="m340 551l1-1-2 1-2 1-1 .5-1 .5h-1-1l-1.5.5-1.5.5-1 .5-1 .5h-1-1l-1 1-1 1-1 .5-1 .5-.5.5-.5.5-.5 1.5-.5 1.5-1 1-1 1-.5 1-.5 1 1.5-.5 1.5-.5.5-.5.5-.5 1-.5 1-.5.5-.5.5-.5h1 1l.5-.5.5-.5 1-.5 1-.5.5-.5.5-.5.5-.5.5-.5.5-.5.5-.5.5-.5.5-.5 1-.5 1-.5.5-.5.5-.5.5-.5.5-.5.5-.5.5-.5 1-.5 1-.5" style="fill:#787367;stroke:#787367" />
        <path d="m335 678h1l-1.5-1-1.5-1h-1.5-1.5-1.5-1.5l-2-.5-2-.5-1.5-.5-1.5-.5-1-1-1-1-2-1-2-1-1.5-.5-1.5-.5-.5 1-.5 1 1.5 1.5 1.5 1.5 1.5.5 1.5.5 1.5 1 1.5 1 1.5.5 1.5.5h2.5 2.5 2 2 2 2" style="fill:#753529;stroke:#753529" />
        <path d="m335 583l-1-1-2 .5-2 .5h-2-2l-1-1-1-1-.5-.5-.5-.5-1 .5-1 .5 1 1 1 1 .5 1 .5 1h-2-2-2-2l-.5.5-.5.5-22 23.5-22 23.5-1 .5-1 .5-.5.5-.5.5-.5.5-.5.5-.5 1-.5 1-.5.5-.5.5-.5.5-.5.5-.5.5-.5.5-1 .5-1 .5-.5 1.5-.5 1.5h-1-1l-.5.5-.5.5-.5.5-.5.5-1 .5-1 .5-.5.5-.5.5-.5.5-.5.5-.5.5-.5.5-1 .5-1 .5-1 .5-1 .5-.5.5-.5.5-1.5.5-1.5.5 28-23 28-23 18-13 18-13" style="fill:#787367;stroke:#787367" />
        <path d="m335 220v-3-2-2l-1-1.5-1-1.5-.5-1.5-.5-1.5-1-1.5-1-1.5-.5-1.5-.5-1.5-.5 1-.5 1 .5 2 .5 2v1 1 1 1 1 1 1.5 1.5l.5.5.5.5-.5.5-.5.5v1 1l-.5 1-.5 1 .5.5.5.5v1 1h1 1l1-.5 1-.5h-1-1l.5-.5.5-.5h1 1l.5-1.5.5-1.5" style="fill:#ba3400;stroke:#ba3400" />
        <g style="fill:#782100;stroke:#782100">
            <path d="m334 175v-3l-1-1-1-1-.5-2-.5-2-.5-1.5-.5-1.5-.5-2-.5-2-.5-1.5-.5-1.5-.5-1-.5-1-1-1.5-1-1.5-.5-1.5-.5-1.5-1-1.5-1-1.5-1-1-1-1-1-1.5-1-1.5-1-1-1-1-1.5-.5-1.5-.5-1.5-1-1.5-1-2-.5-2-.5 13.5 20.5 13.5 20.5h.5.5" />
            <path d="m333 674l-22-5 1.5.5 1.5.5 8.5 1 8.5 1-.5 2-.5 2h1.5 1.5v-1-1" />
        </g>
        <g style="fill:#992b00;stroke:#992b00">
            <path d="m332 176l1-1-13.5-20.5-13.5-20.5h-.5-.5v1.5 1.5l13 19.5 13 19.5h.5.5" />
            <path d="m331 672l-17-2 2 1 2 1 1 1 1 1 1.5.5 1.5.5 2 .5 2 .5h1.5 1.5l.5-2 .5-2" />
        </g>
        <path d="m330 176h1l-13-19.5-13-19.5-2 .5-2 .5h-1-1l-1.5-.5-1.5-.5-1.5 1-1.5 1-1.5.5-1.5.5 1 30.5 1 30.5-4.5 29-4.5 29 3.5 5 3.5 5 6-29.5 6-29.5-2 29.5-2 29.5-5.5 30-5.5 30-1.5 23-1.5 23 5.5 28 5.5 28 3 31 3 31 4-7.5 4-7.5 4.5 13.5 4.5 13.5-2.5 26.5-2.5 26.5 1-.5 1-.5-.5-1-.5-1v-1-1-1-1l.5-.5.5-.5.5-1 .5-1 2-44.5 2-44.5-6-16.5-6-16.5-9.5-18-9.5-18 4.5-20 4.5-20v-24.5-24.5l4-27.5 4-27.5 6.5-27 6.5-27-10.5-6-10.5-6 5-18 5-18 7.5 22 7.5 22 .5-1 .5-1 1-.5 1-.5-.5-.5-.5-.5v-1-1l.5-.5.5-.5.5-.5.5-.5.5-1 .5-1 1-.5 1-.5v-.5-.5" style="fill:#ba3400;stroke:#ba3400" />
        <path d="m330 50l-15-50h-3-3-1.5-1.5l-.5 2.5-.5 2.5.5 1.5.5 1.5-.5 1.5-.5 1.5-.5 58-.5 58 .5 1 .5 1 1.5 1 1.5 1h1.5 1.5l9.5-40 9.5-40" style="fill:#25150a;stroke:#25150a" />
        <path d="m329 181l1-4-1 .5-1 .5-.5 1-.5 1-.5.5-.5.5-.5.5-.5.5v1 1l.5.5.5.5-1 .5-1 .5-.5 1-.5 1-1 2.5-1 2.5-.5 1.5-.5 1.5-.5 1-.5 1v1 1l.5 1.5.5 1.5.5 1 .5 1 .5.5.5.5.5 1.5.5 1.5 1-.5 1-.5.5-.5.5-.5v-1.5-1.5l1-.5 1-.5.5-1 .5-1v-1.5-1.5-1-1-1-1l-.5-.5-.5-.5v-1-1l-.5-.5-.5-.5.5-1 .5-1v-1-1-1-1l.5-1.5.5-1.5" style="fill:#d44130;stroke:#d44130" />
        <path d="m327 154l1-2-1-1.5-1-1.5-.5-.5-.5-.5-.5-1.5-.5-1.5-.5-1-.5-1-.5-.5-.5-.5-.5-1.5-.5-1.5-1-.5-1-.5-.5-.5-.5-.5-1-1-1-1-1-.5-1-.5-.5-.5-.5-.5-.5-.5-.5-.5-.5-1-.5-1h-1.5-1.5l-1.5-1-1.5-1v1.5 1.5l.5 1.5.5 1.5 2 .5 2 .5 1.5 1 1.5 1 1.5.5 1.5.5 1 1 1 1 1 1.5 1 1.5 1 1 1 1 1 1.5 1 1.5.5 1.5.5 1.5 1 1.5 1 1.5" style="fill:#551905;stroke:#551905" />
        <path d="m324 585l-1-2-1-1-1-1 1-.5 1-.5-2-1-2-1-1.5-.5-1.5-.5-2-.5-2-.5v-2-2l1.5-1 1.5-1 .5-1 .5-1v-.5-.5l-1.5.5-1.5.5.5-1.5.5-1.5 1.5-1 1.5-1 .5-1.5.5-1.5.5-2 .5-2 .5-1 .5-1-2.5 1.5-2.5 1.5-1 .5-1 .5v1.5 1.5l-.5 1.5-.5 1.5h-.5-.5v1.5 1.5l-1 1-1 1-1.5.5-1.5.5 1 1.5 1 1.5-.5 2.5-.5 2.5 1 .5 1 .5h1 1 1 1l.5.5.5.5v1 1l-.5.5-.5.5-.5.5-.5.5v.5.5h2 2 2 2 2 2" style="fill:#9b3827;stroke:#9b3827" />
        <path d="m318 505l-9-27-4 7.5-4 7.5-3-31-3-31-5.5-28-5.5-28 1.5-23 1.5-23 5.5-30 5.5-30 2-29.5 2-29.5-6 29.5-6 29.5-3.5-5-3.5-5 4.5-29 4.5-29-1-30.5-1-30.5-1.5.5-1.5.5-.5 1-.5 1-1 31-1 31-2 27.5-2 27.5 2 24 2 24 1.5 18 1.5 18-1 24.5-1 24.5 5 27.5 5 27.5 1.5 31.5 1.5 31.5 7 26.5 7 26.5.5-1.5.5-1.5v-1.5-1.5l2.5-26.5 2.5-26.5" style="fill:#992b00;stroke:#992b00" />
        <path d="m315 586l1-1h-2-2l-14 15-14 15-.5 1-.5 1-1 1-1 1-.5 1.5-.5 1.5-1 1-1 1-1 1.5-1 1.5-1 1-1 1-1.5 2-1.5 2 22-23.5 22-23.5" style="fill:#755f4d;stroke:#755f4d" />
        <path d="m314 701l-28-23-6.5-5.5-6.5-5.5-15-6-15-6h-1.5-1.5-2-2l.5.5.5.5h1 1l.5.5.5.5v.5.5h-1-1l-.5.5-.5.5h-1-1l-1 .5-1 .5-1.5.5-1.5.5h-1-1l-1-.5-1-.5 1.5-1 1.5-1h-.5-.5l-26 12.5-26 12.5 23.5-3.5 23.5-3.5 2-.5 2-.5 1.5-.5 1.5-.5h1 1l-.5 2-.5 2-.5 1.5-.5 1.5 2 1 2 1 19 4.5 19 4.5-1-.5-1-.5-1.5-.5-1.5-.5h-1-1-1.5-1.5-1.5-1.5l1 .5 1 .5 1.5.5 1.5.5h2 2l1.5 1 1.5 1 1.5.5 1.5.5v1 1l-1 1-1 1h-2.5-2.5l-1.5-.5-1.5-.5h-2-2l27 1.5 27 1.5" style="fill:#b9b5a9;stroke:#b9b5a9" />
        <path d="m314 582v-2l-.5-.5-.5-.5h-1-1-1-1l-1-.5-1-.5-7-12.5-7-12.5 1-19.5 1-19.5-2-29-2-29-4-27.5-4-27.5-2-26.5-2-26.5-1.5-21-1.5-21 2.5-30.5 2.5-30.5.5-50 .5-50-1-1.5-1-1.5-3 29.5-3 29.5-1.5 36-1.5 36-.5 1-.5 1v2 2l.5.5.5.5v1 1 1 1l-.5 1-.5 1v1 1 1 1 1 1l-.5 1.5-.5 1.5 2.5 24 2.5 24-.5.5-.5.5-.5 1-.5 1-1 1-1 1-.5 2-.5 2-.5 1.5-.5 1.5 5.5 27.5 5.5 27.5-.5 29.5-.5 29.5v18.5 18.5l5 23 5 23-8 25-8 25-2.5 13.5-2.5 13.5.5-1 .5-1 1-1 1-1 1.5-1 1.5-1 1.5-.5 1.5-.5 1.5-1 1.5-1 1-1.5 1-1.5 16-16.5 16-16.5.5-.5.5-.5" style="fill:#551905;stroke:#551905" />
        <path d="m312 584l1-1-16 16.5-16 16.5v.5.5l1.5-1 1.5-1 14-15 14-15v-.5-.5" style="fill:#753529;stroke:#753529" />
        <path d="m311 564h1l-7-26.5-7-26.5-1.5-31.5-1.5-31.5-5-27.5-5-27.5 1-24.5 1-24.5-1.5-18-1.5-18-2-24-2-24 2-27.5 2-27.5 1-31 1-31-2 .5-2 .5-.5 51-.5 51-2.5 30.5-2.5 30.5 1.5 21 1.5 21 2 26.5 2 26.5 4 27.5 4 27.5 2 29 2 29-1 19.5-1 19.5 7 12.5 7 12.5.5-2.5.5-2.5-1-1.5-1-1.5 1.5-.5 1.5-.5 1-1 1-1v-1.5-1.5" style="fill:#782100;stroke:#782100" />
        <path d="m306 671h1l-.5-1-.5-1-.5-.5-.5-.5v-1-1l-.5-.5-.5-.5-.5-1-.5-1-.5-.5-.5-.5-.5-.5-.5-.5v-1-1-1.5-1.5l.5-.5.5-.5v-1-1l-.5-.5-.5-.5 1-1 1-1h-2.5-2.5l1 10.5 1 10.5h3 3" style="fill:#25150a;stroke:#25150a" />
        <path d="m305 469l1-3v-2-2l-.5-2-.5-2-.5-1.5-.5-1.5-1 1.5-1 1.5-.5 1.5-.5 1.5v2.5 2.5l.5 1.5.5 1.5.5 1.5.5 1.5 1-1.5 1-1.5" style="fill:#de3a00;stroke:#de3a00" />
        <path d="m305 134h1l-.5-1.5-.5-1.5v-1.5-1.5l-.5-1-.5-1-10-22-10-22-15.5-18-15.5-18-7.5 17.5-7.5 17.5 7.5-16.5 7.5-16.5 24.5 42.5 24.5 42.5-10.5-17.5-10.5-17.5-21-10-21-10 13 4.5 13 4.5 8.5 26 8.5 26-.5-.5-.5-.5-.5 1.5-.5 1.5 1 1.5 1 1.5 2-.5 2-.5.5-1 .5-1 1.5-.5 1.5-.5 1.5-.5 1.5-.5 1.5-1 1.5-1 1.5.5 1.5.5h1 1l2-.5 2-.5v-1.5-1.5" style="fill:#787367;stroke:#787367" />
        <path d="m305 11l1-3-.5-1.5-.5-1.5.5-2.5.5-2.5h-35-35-35.5-35.5-13-13l1.5 1 1.5 1v1 1l.5.5.5.5.5.5.5.5v1 1l-7.5-4-7.5-4h-34-34-30.5-30.5v3 3 35.5 35.5 35.5 35.5 14.5 14.5l25.5-4.5 25.5-4.5 21.5-4 21.5-4 7.5 7.5 7.5 7.5-4 .5-4 .5-6.5 20-6.5 20-1 29-1 29 6-15.5 6-15.5 7 16.5 7 16.5 7.5-17 7.5-17 5.5 23 5.5 23 10.5 12 10.5 12 3.5-20 3.5-20 18.5-11 18.5-11 34 11 34 11 1.5-36 1.5-36 3-29.5 3-29.5.5-1.5.5-1.5-9-24-9-24-11.5-4.5-11.5-4.5h-14.5-14.5l21-17.5 21-17.5 15.5 18 15.5 18 10 22 10 22 .5-57 .5-57" style="fill:#3d3126;stroke:#3d3126" />
        <path d="m302 133l-49-85-7.5 16.5-7.5 16.5.5-1.5.5-1.5 21 10 21 10 10.5 17.5 10.5 17.5" style="fill:#9a968a;stroke:#9a968a" />
        <path d="m288 551l-10-46v-18.5-18.5l.5-29.5.5-29.5-5.5-27.5-5.5-27.5-32-2.5-32-2.5-12-13.5-12-13.5 16.5-17.5 16.5-17.5 28 3.5 28 3.5.5-1.5.5-1.5v-1-1-1-1-1-1l.5-1 .5-1v-1-1-1-1l-.5-.5-.5-.5v-2-2l.5-1 .5-1-34-11-34-11-18.5 11-18.5 11-3.5 20-3.5 20-10.5-12-10.5-12-5.5-23-5.5-23-7.5 17-7.5 17-7-16.5-7-16.5-6 15.5-6 15.5 1-29 1-29 6.5-20 6.5-20 4-.5 4-.5-7.5-7.5-7.5-7.5-21.5 4-21.5 4-25.5 4.5-25.5 4.5v3 3 2 2 2.5 2.5 2 2 2.5 2.5 2 2 2.5 2.5 2 2 2 2 2.5 2.5l19-9.5 19-9.5 9 34 9 34-28 4-28 4v34.5 34.5 33.5 33.5 35.5 35.5 21 21h2.5 2.5 1 1 2 2l1 1.5 1 1.5.5 1.5.5 1.5.5 2 .5 2 .5 1.5.5 1.5 1.5 1 1.5 1 1 1 1 1-.5 1.5-.5 1.5-10-7.5-10-7.5v35 35 .5.5l23.5-2.5 23.5-2.5 30.5-1.5 30.5-1.5h3 3 1.5 1.5l2-.5 2-.5 1.5.5 1.5.5 1.5 1 1.5 1 1.5.5 1.5.5 1.5 1 1.5 1h2 2l1.5 1 1.5 1 1.5 1 1.5 1 1.5.5 1.5.5 1 1 1 1 .5 1 .5 1 1.5 1 1.5 1 .5.5.5.5v1 1h1 1l.5-1 .5-1h1 1v1 1h1 1l1 .5 1 .5 1.5.5 1.5.5h1 1l.5.5.5.5h1 1l1 .5 1 .5h1 1l.5.5.5.5.5.5.5.5.5 1 .5 1 1 .5 1 .5 1 .5 1 .5h2 2l.5.5.5.5h1.5 1.5l1.5.5 1.5.5 1 1 1 1 1.5.5 1.5.5 1.5.5 1.5.5.5-.5.5-.5h1.5 1.5 2 2 1 1l1 .5 1 .5 1 1 1 1-.5-1.5-.5-1.5v-1-1l.5-1 .5-1h2 2l.5-.5.5-.5 1 .5 1 .5 1 1 1 1v1 1h1.5 1.5l.5 1.5.5 1.5-.5 1.5-.5 1.5-1.5-1.5-1.5-1.5-1.5.5-1.5.5h-1.5-1.5l-1.5-.5-1.5-.5 14 9 14 9 12.5-12 12.5-12 2.5-13.5 2.5-13.5 8-25 8-25" style="fill:#25150a;stroke:#25150a" />
        <g style="fill:#534e41;stroke:#534e41">
            <path d="m283 617l1-2-1.5 1-1.5 1-.5.5-.5.5-16.5 17.5-16.5 17.5 1-.5 1-.5 1-.5 1-.5.5-.5.5-.5.5-.5.5-.5.5-.5.5-.5 1-.5 1-.5.5-.5.5-.5.5-.5.5-.5h1 1l.5-1.5.5-1.5 1-.5 1-.5.5-.5.5-.5.5-.5.5-.5.5-.5.5-.5.5-1 .5-1 .5-.5.5-.5.5-.5.5-.5 1-.5 1-.5 1.5-2 1.5-2 1-1 1-1 1-1.5 1-1.5 1-1 1-1 .5-1.5.5-1.5 1-1 1-1" />
            <path d="m282 139l-17-52-13-4.5-13-4.5-.5 1.5-.5 1.5 7.5-17.5 7.5-17.5-21 17.5-21 17.5h14.5 14.5l11.5 4.5 11.5 4.5 9 24 9 24 .5.5.5.5" />
        </g>
        <path d="m280 618l1-1v-.5-.5l-1 1.5-1 1.5-1.5 1-1.5 1-1.5.5-1.5.5-1.5 1-1.5 1-1 1-1 1-.5 1-.5 1-12.5 12-12.5 12 2.5.5 2.5.5 16.5-17.5 16.5-17.5" style="fill:#3d3126;stroke:#3d3126" />
        <path d="m274 697v-2l-1.5-.5-1.5-.5-1.5-1-1.5-1h-2-2l-1.5-.5-1.5-.5-1-.5-1-.5-2-.5-2-.5-.5-.5-.5-.5h-1.5-1.5l-1.5-.5-1.5-.5-2-.5-2-.5-1.5-.5-1.5-.5-2-.5-2-.5-1.5-.5-1.5-.5-2-1-2-1 .5-1.5.5-1.5.5-2 .5-2h-1-1l-1.5.5-1.5.5-2 .5-2 .5-1.5.5-1.5.5h-1.5-1.5l-1 .5-1 .5-.5.5-.5.5-1 .5-1 .5h-1.5-1.5l-1.5.5-1.5.5-.5.5-.5.5h-1-1l-.5.5-.5.5h-1.5-1.5-1-1l-.5.5-.5.5h-1-1l-1 .5-1 .5v1 1h1 1 2 2l31 5.5 31 5.5h2 2l1.5.5 1.5.5h2.5 2.5l1-1 1-1" style="fill:#9a968a;stroke:#9a968a" />
        <path d="m274 342l-5-48-28-3.5-28-3.5-16.5 17.5-16.5 17.5 12 13.5 12 13.5 32 2.5 32 2.5.5-1.5.5-1.5.5-2 .5-2 1-1 1-1 .5-1 .5-1 .5-.5.5-.5" style="fill:#3d3126;stroke:#3d3126" />
        <path d="m272 692l-38-9 1.5.5 1.5.5 2 .5 2 .5 1.5.5 1.5.5 2 .5 2 .5 1.5.5 1.5.5h1.5 1.5l.5.5.5.5 2 .5 2 .5h1.5 1.5 1.5 1.5 1 1l1.5.5 1.5.5 1 .5 1 .5" style="fill:#dcd7cb;stroke:#dcd7cb" />
        <path d="m246 654l1-1-2.5-.5-2.5-.5h-.5-.5l-21.5-8.5-21.5-8.5-20 13.5-20 13.5-20 13.5-20 13.5-27 15.5-27 15.5h2 2 2 2 2.5 2.5 2 2 2 2 .5.5l.5-1.5.5-1.5.5-.5.5-.5v-1-1-1.5-1.5l-.5-.5-.5-.5v-1-1h-1-1l-.5-.5-.5-.5.5-1 .5-1h1 1l.5-.5.5-.5h1 1l1-1.5 1-1.5 1-1 1-1h1 1l.5-.5.5-.5 1.5-1 1.5-1 2-.5 2-.5.5.5.5.5.5 1 .5 1h1 1l.5-.5.5-.5 1.5-.5 1.5-.5 32-22 32-22 20-4 20-4h-.5-.5v.5.5h1.5 1.5l1.5.5 1.5.5.5 1 .5 1v1 1l.5-2 .5-2 .5 1 .5 1-.5 1.5-.5 1.5.5 2 .5 2 1.5.5 1.5.5 1 .5 1 .5v.5.5l-1.5 1-1.5 1 1 .5 1 .5h1 1l1.5-.5 1.5-.5 1-.5 1-.5h1 1l.5-.5.5-.5h1 1v-.5-.5l-.5-.5-.5-.5h-1-1l-.5-.5-.5-.5h2 2 1.5 1.5l1.5-.5 1.5-.5" style="fill:#534e41;stroke:#534e41" />
        <path d="m241 652h1l-14-9-14-9-1-1-1-1-1-.5-1-.5h-1-1-2-2-1.5-1.5l-.5.5-.5.5-1.5-.5-1.5-.5-1.5-.5-1.5-.5-1-1-1-1-.5 2-.5 2v1.5 1.5l-1.5.5-1.5.5-1-.5-1-.5-.5.5-.5.5-.5.5-.5.5h-1-1l-1-.5-1-.5-.5-1.5-.5-1.5.5-.5.5-.5-1-.5-1-.5-1-1-1-1v-1-1l.5-1.5.5-1.5-.5-1-.5-1-.5-.5-.5-.5-.5-.5-.5-.5h-1-1l-1-.5-1-.5h-1-1l-.5-.5-.5-.5h-1-1l-1.5-.5-1.5-.5-1-.5-1-.5h-1-1v-1-1h-1-1l-.5 1-.5 1h-1-1v-1-1l-.5-.5-.5-.5-1.5-1-1.5-1-1 1-1 1 .5.5.5.5.5.5.5.5.5.5.5.5.5 1 .5 1v1 1l.5.5.5.5.5.5.5.5 1-.5 1-.5.5-.5.5-.5h1 1 1 1 1.5 1.5 1 1l.5.5.5.5.5.5.5.5-.5 1.5-.5 1.5-11.5-9.5-11.5-9.5-1.5-1-1.5-1-1.5-1-1.5-1h-2-2l-1.5-1-1.5-1-1.5-.5-1.5-.5-1.5-1-1.5-1-1.5-.5-1.5-.5-2 .5-2 .5 1 1 1 1h1.5 1.5l1 1 1 1v1 1l1 .5 1 .5 1.5.5 1.5.5-.5 1.5-.5 1.5-10-5.5-10-5.5-30.5 1.5-30.5 1.5-23.5 2.5-23.5 2.5v2.5 2.5h1 1l1.5-.5 1.5-.5 1.5 1 1.5 1v2 2 1 1l-1 2-1 2-.5 1.5-.5 1.5-.5 2-.5 2-.5 1.5-.5 1.5h-1.5-1.5v34 34 10.5 10.5h23 23 9 9l27-15.5 27-15.5 20-13.5 20-13.5 20-13.5 20-13.5 21.5 8.5 21.5 8.5" style="fill:#3d3126;stroke:#3d3126" />
        <path d="m231 709l-75 11h27.5 27.5l1.5-1 1.5-1 2-.5 2-.5 1-1 1-1 1.5-1 1.5-1 1.5-.5 1.5-.5 1.5-.5 1.5-.5 1-1 1-1" style="fill:#b9b5a9;stroke:#b9b5a9" />
        <path d="m228 658h1v-.5-.5h-.5-.5l-26 8-26 8-16.5 5.5-16.5 5.5 39.5-17 39.5-17h-.5-.5l-3-2.5-3-2.5v-.5-.5l-19.5 4-19.5 4-32 22-32 22 26-4.5 26-4.5 1-1 1-1h1.5 1.5l.5-.5.5-.5h1 1l.5-.5.5-.5h1.5 1.5l26-12.5 26-12.5" style="fill:#9a968a;stroke:#9a968a" />
        <path d="m228 657h1l-1-.5-1-.5-1.5-.5-1.5-.5-.5-2-.5-2 .5-1.5.5-1.5-.5-1-.5-1-.5 2-.5 2-39.5 17-39.5 17 16.5-5.5 16.5-5.5 26-8 26-8" style="fill:#787367;stroke:#787367" />
        <path d="m226 637l1-3-.5-1.5-.5-1.5h-1.5-1.5v-1-1l-1-1-1-1-1-.5-1-.5-.5.5-.5.5h-2-2l-.5 1-.5 1v1 1l.5 1.5.5 1.5 1.5.5 1.5.5h1.5 1.5l1.5-.5 1.5-.5 1.5 1.5 1.5 1.5" style="fill:#551905;stroke:#551905" />
        <path d="m221 650h1v-1-1h-.5-.5l-1 1-1 1h-2.5-2.5l-1.5.5-1.5.5-1.5.5-1.5.5-1.5-1-1.5-1 1-1 1-1 2-.5 2-.5 2-1 2-1 3 2.5 3 2.5" style="fill:#b9b5a9;stroke:#b9b5a9" />
        <path d="m221 648h1l-.5-1-.5-1-1.5-.5-1.5-.5h-1.5-1.5l-2 1-2 1-2 .5-2 .5-1 1-1 1 1.5 1 1.5 1 1.5-.5 1.5-.5 1.5-.5 1.5-.5h2.5 2.5l1-1 1-1" style="fill:#dcd7cb;stroke:#dcd7cb" />
        <path d="m216 644l-40 8 19.5-4 19.5-4h.5.5" style="fill:#787367;stroke:#787367" />
        <path d="m214 679l1-1-8.5 4.5-8.5 4.5h-2-2-1-1v-1-1l1-.5 1-.5h1 1l.5-.5.5-.5h1 1 1.5 1.5l.5-.5.5-.5h1 1l.5-.5.5-.5 1.5-.5 1.5-.5h1.5 1.5l1-.5 1-.5" style="fill:#b9b5a9;stroke:#b9b5a9" />
        <g style="fill:#551905;stroke:#551905">
            <path d="m191 635v-3l.5-2 .5-2-1.5-.5-1.5-.5h-1.5-1.5l-.5-.5-.5-.5h-2-2l-1-.5-1-.5-1-.5-1-.5-.5 1.5-.5 1.5v1 1l1 1 1 1 1 .5 1 .5-.5.5-.5.5.5 1.5.5 1.5 1 .5 1 .5h1 1l.5-.5.5-.5.5-.5.5-.5 1 .5 1 .5 1.5-.5 1.5-.5" />
            <path d="m166 625l1-3-.5-.5-.5-.5-.5-.5-.5-.5h-1-1-1.5-1.5-1-1-1-1l-.5.5-.5.5-1 .5-1 .5-.5-.5-.5-.5-.5-.5-.5-.5v-1-1l-.5-1-.5-1-.5-.5-.5-.5-.5-.5-.5-.5-.5-.5-.5-.5 1-1 1-1-.5-1-.5-1-1-1-1-1-1.5-.5-1.5-.5 11.5 9.5 11.5 9.5" />
        </g>
        <path d="m163 688l1-1-26 4.5-26 4.5-1.5.5-1.5.5-.5.5-.5.5h-1-1l-.5-1-.5-1-.5-.5-.5-.5-2 .5-2 .5 31.5-4 31.5-4" style="fill:#b9b5a9;stroke:#b9b5a9" />
        <g style="fill:#25150a;stroke:#25150a">
            <path d="m144 112l-8-49-7 3.5-7 3.5 7 10.5 7 10.5-8.5 14-8.5 14 10.5 5 10.5 5 2-8.5 2-8.5" />
            <path d="m144 8v-2l-.5-.5-.5-.5-.5-.5-.5-.5v-1-1l-1.5-1-1.5-1h-3.5-3.5-1.5-1.5l7.5 4 7.5 4" />
            <path d="m141 179l-21-16 6.5 19 6.5 19 4-11 4-11" />
        </g>
        <path d="m128 608l1-3-1.5-.5-1.5-.5-1-.5-1-.5v-1-1l-1-1-1-1h-1.5-1.5l-1-1-1-1h-1.5-1.5-3-3l10 5.5 10 5.5" style="fill:#551905;stroke:#551905" />
        <path d="m96 712l1-3-1-1-1-1-1-1.5-1-1.5-.5-1.5-.5-1.5-1 1.5-1 1.5h-1-1l-.5.5-.5.5h-1-1l-.5 1-.5 1 .5.5.5.5h1 1v1 1l.5.5.5.5v1.5 1.5 1 1l-.5.5-.5.5-.5 1.5-.5 1.5h1.5 1.5l.5-1.5.5-1.5 1 .5 1 .5h1 1l.5-.5.5-.5.5-.5.5-.5v-2-2" style="fill:#b9b5a9;stroke:#b9b5a9" />
        <path d="m73 607l1-3-1-1-1-1-2-.5-2-.5-1 1-1 1-2 .5-2 .5.5 1.5.5 1.5.5 2 .5 2h2 2l1-1 1-1 1.5-1 1.5-1" style="fill:#551905;stroke:#551905" />
        <g style="fill:#3d3126;stroke:#3d3126">
            <path d="m56 272l-18-68-19 9.5-19 9.5v28.5 28.5l28-4 28-4" />
            <path d="m20 549l1-3-1-1-1-1-1.5-1-1.5-1-.5-1.5-.5-1.5-.5-2-.5-2-.5-1.5-.5-1.5-1-1.5-1-1.5h-2-2-1-1-2.5-2.5v2.5 2.5l10 7.5 10 7.5" />
        </g>
        <path d="m8 617v-2-2-2l-1.5-1-1.5-1-1.5.5-1.5.5h-1-1v2.5 2.5 2.5 2.5 2 2 2 2 1.5 1.5h1.5 1.5l.5-1.5.5-1.5.5-2 .5-2 .5-1.5.5-1.5 1-2 1-2" style="fill:#551905;stroke:#551905" />
    </g>
</svg>
