<svg xmlns="http://www.w3.org/2000/svg" viewBox="0 0 192 960">
    <path d="m0 0h192v960h-192z" style="fill:#41392d" />
    <g style="stroke-linejoin:round;stroke-width:.7">
        <path d="m0 959v1h1.5 1.5 2 2 2.5 2.5 2 2 .5.5v-.5-.5l.5-1 .5-1 1.5-.5 1.5-.5 1-1 1-1v-.5-.5l-.5-1.5-.5-1.5-1.5-.5-1.5-.5-.5-.5-.5-.5-.5-1-.5-1 .5-1.5.5-1.5.5-.5.5-.5h1.5 1.5l1.5.5 1.5.5.5-.5.5-.5h1.5 1.5l1.5.5 1.5.5h1 1l.5 1 .5 1 .5 2 .5 2 .5 1 .5 1 .5 1.5.5 1.5.5 2 .5 2-.5 1-.5 1h3 3 2.5 2.5 1.5 1.5v-.5-.5l-.5-.5-.5-.5-1-.5-1-.5v-2-2l.5-1.5.5-1.5 1.5-1 1.5-1 1-1 1-1 1.5-1 1.5-1 1-.5 1-.5 2-.5 2-.5 1.5.5 1.5.5h2 2l2-.5 2-.5 1.5.5 1.5.5 1.5.5 1.5.5h1.5 1.5l1 .5 1 .5 1 1.5 1 1.5-1 1-1 1-1.5.5-1.5.5-1 .5-1 .5h-1-1l-1 .5-1 .5-1 1-1 1h-1-1l-1.5.5-1.5.5-1 2-1 2h1.5 1.5 2.5 2.5 2 2 2.5 2.5 2 2 2 2v-.5-.5l1-1 1-1 1.5-.5 1.5-.5 2 .5 2 .5 1 1.5 1 1.5h2 2 2 2 2 2 2.5 2.5v-.5-.5l4.5-3.5 4.5-3.5 11.5 4 11.5 4h3 3 2 2 1 1v-.5-.5l-.5-.5-.5-.5-1-1-1-1-1-1-1-1 .5-2 .5-2h2 2l2 .5 2 .5 1.5.5 1.5.5 2 .5 2 .5 1.5.5 1.5.5 1.5.5 1.5.5 1.5 1 1.5 1 .5 1.5.5 1.5h2.5 2.5.5.5v-1.5-1.5-2.5-2.5-2-2-2.5-2.5-1.5-1.5l-1 .5-1 .5-1.5-1-1.5-1-.5-1.5-.5-1.5.5-.5.5-.5 1-.5 1-.5h1.5 1.5v-2-2l-2-.5-2-.5h-1.5-1.5l-1-.5-1-.5-1.5-.5-1.5-.5-1-.5-1-.5-2-.5-2-.5v1.5 1.5l1 1 1 1 .5 2 .5 2-1 1-1 1-1.5-.5-1.5-.5h-2.5-2.5l-1.5-1-1.5-1-.5-1.5-.5-1.5-1.5-1-1.5-1-5.5-4.5-5.5-4.5-8-6.5-8-6.5h-2-2v1 1l.5 1 .5 1-1 1-1 1h-1-1-1-1-1-1-1.5-1.5l-1.5 1-1.5 1v2 2h1 1l.5.5.5.5.5 1 .5 1 .5.5.5.5.5 1.5.5 1.5 1 1 1 1 .5 1 .5 1 5.5 4.5 5.5 4.5 9 1 9 1-9 3-9 3-1.5-1-1.5-1h-2-2l-2-.5-2-.5-1.5-.5-1.5-.5-1-1.5-1-1.5-1-.5-1-.5v-2-2l-.5-1-.5-1v-.5-.5l-1-2.5-1-2.5-.5-.5-.5-.5v-1.5-1.5l-.5-1-.5-1-.5-.5-.5-.5-.5-1-.5-1h-1.5-1.5-1.5-1.5-2-2l-1 1-1 1h-1-1l-1 .5-1 .5-1.5.5-1.5.5-2 .5-2 .5h-1.5-1.5l3 3 3 3 7 3.5 7 3.5-.5 3.5-.5 3.5-2-.5-2-.5h-.5-.5-1.5-1.5l-1.5-.5-1.5-.5-2.5-1-2.5-1h-1.5-1.5l-1.5-.5-1.5-.5-2.5-.5-2.5-.5-1-1-1-1-1-1.5-1-1.5-.5-1.5-.5-1.5-.5-1.5-.5-1.5h-2.5-2.5-2-2l-1.5 1-1.5 1-2 .5-2 .5-1.5.5-1.5.5-2-.5-2-.5h-2-2l-1-1-1-1-1-1.5-1-1.5-.5-1.5-.5-1.5-2-.5-2-.5-2.5.5-2.5.5-2.5 1-2.5 1h-2-2l-1.5-.5-1.5-.5-1.5-1-1.5-1-1.5-.5-1.5-.5-2-.5-2-.5h-2.5-2.5l-1.5-.5-1.5-.5v2 2 2 2l2 .5 2 .5 1 1 1 1 1.5 1 1.5 1 1 1 1 1 .5 2 .5 2v2 2l-.5 2-.5 2-1.5.5-1.5.5-1.5-.5-1.5-.5-1.5-1-1.5-1-1-.5-1-.5v3 3 2.5 2.5 2 2 2 2" style="fill:#e1ddd1;stroke:#e1ddd1" />
        <path d="m17 959v1h1.5 1.5 2 2 .5.5v-.5-.5l.5-1 .5-1 .5-1.5.5-1.5.5-1.5.5-1.5 1-1.5 1-1.5 1 1 1 1v2.5 2.5l-1 1-1 1v1.5 1.5h3.5 3.5.5.5l.5-1 .5-1-.5-2-.5-2-.5-1.5-.5-1.5-.5-1-.5-1-1-1.5-1-1.5-1-1-1-1-2-.5-2-.5-1 1-1 1-1 1.5-1 1.5v2 2l-.5 1-.5 1-1 1-1 1-1.5.5-1.5.5-.5 1-.5 1" style="fill:#b8b4a8;stroke:#b8b4a8" />
        <path d="m25 959v1h1.5 1.5 1 1v-1.5-1.5l1-1 1-1v-2.5-2.5l-1-1-1-1-1 1.5-1 1.5-.5 1.5-.5 1.5-.5 1.5-.5 1.5-.5 1-.5 1" style="fill:#41392d;stroke:#41392d" />
        <path d="m52 959v1h1.5 1.5 2 2 2.5 2.5 2 2l1-2 1-2 .5-1 .5-1-1.5.5-1.5.5-1 1.5-1 1.5h-2-2-2.5-2.5l-2.5.5-2.5.5" style="fill:#b8b4a8;stroke:#b8b4a8" />
        <path d="m93 959v1h1.5 1.5 2 2 2 2l-1-1.5-1-1.5-2-.5-2-.5-1.5.5-1.5.5-1 1-1 1" style="fill:#d1cdb2;stroke:#d1cdb2" />
        <path d="m121 959v1h1 1v-.5-.5-1-1l1.5-1 1.5-1h2 2l2 .5 2 .5 2.5.5 2.5.5-1-.5-1-.5-1-.5-1-.5h-2-2l-1.5-.5-1.5-.5h-1-1l-1-.5-1-.5-1 1-1 1-.5.5-.5.5v1.5 1.5" style="fill:#b8b4a8;stroke:#b8b4a8" />
        <path d="m123 959v1h1.5 1.5 2 2 2.5 2.5 2 2 2.5 2.5 2 2 1 1v-.5-.5h-2.5-2.5l-2-.5-2-.5-1-.5-1-.5-2.5-.5-2.5-.5-2-.5-2-.5h-2-2l-1.5 1-1.5 1v1 1" style="fill:#9a9589;stroke:#9a9589" />
        <path d="m150 959v1h1.5 1.5l-11.5-4-11.5-4-4.5 3.5-4.5 3.5v-1.5-1.5l.5-.5.5-.5 1-1 1-1 1 .5 1 .5h1 1l1.5.5 1.5.5h2 2l1 .5 1 .5 1 .5 1 .5 1 .5 1 .5 2 .5 2 .5h2.5 2.5" style="fill:#d1cdb2;stroke:#d1cdb2" />
        <path d="m165 959v1h1.5 1.5 1.5 1.5v-.5-.5l-2-.5-2-.5-.5-1.5-.5-1.5 1.5-.5 1.5-.5 2 .5 2 .5h2 2l-1.5-1-1.5-1h-2-2l-.5-.5-.5-.5h-1.5-1.5l-1.5.5-1.5.5v1 1l.5 1.5.5 1.5.5.5.5.5" style="fill:#b8b4a8;stroke:#b8b4a8" />
        <path d="m171 959v1h1.5 1.5 2 2 2 2v-.5-.5l-1-1-1-1-1.5-1-1.5-1h-2-2l-2-.5-2-.5-1.5.5-1.5.5.5 1.5.5 1.5 2 .5 2 .5" style="fill:#9a9589;stroke:#9a9589" />
        <path d="m182 959v1h1.5 1.5.5.5l-.5-1.5-.5-1.5-1.5-1-1.5-1-1.5-.5-1.5-.5-1.5-.5-1.5-.5-2-.5-2-.5-1.5-.5-1.5-.5-2-.5-2-.5h-2-2l-.5 2-.5 2 1 1 1 1 1 1 1 1-.5-1.5-.5-1.5v-1-1l1.5-.5 1.5-.5h1.5 1.5l.5.5.5.5h2 2l1.5 1 1.5 1 1.5 1 1.5 1 1 1 1 1" style="fill:#d1cdb2;stroke:#d1cdb2" />
        <path d="m51 958l1 1 2.5-.5 2.5-.5h2.5 2.5 2 2l1-1.5 1-1.5 1.5-.5 1.5-.5-.5 1-.5 1 1.5-.5 1.5-.5h1 1l1-1 1-1 1-.5 1-.5h1 1l1-.5 1-.5-1.5-.5-1.5-.5 1-.5 1-.5.5-1 .5-1-2.5-1-2.5-1v.5.5l1 .5 1 .5-.5 1-.5 1-.5.5-.5.5h-1-1-1-1l-1 .5-1 .5-1.5.5-1.5.5-1 1-1 1-2 .5-2 .5-1.5.5-1.5.5h-1.5-1.5l-1-.5-1-.5-.5-1-.5-1 1-1 1-1 1.5-1 1.5-1 1.5-.5 1.5-.5 1 .5 1 .5.5.5.5.5-.5 1.5-.5 1.5 1.5-1 1.5-1 1-1 1-1-.5-1-.5-1v-.5-.5h-2.5-2.5l-2-.5-2-.5h2 2 1.5 1.5v-.5-.5l-1-.5-1-.5h-2-2l-1 .5-1 .5-1.5 1-1.5 1-1 1-1 1-1.5 1-1.5 1-.5 1.5-.5 1.5v2 2l1 .5 1 .5" style="fill:#9a9589;stroke:#9a9589" />
        <path d="m55 955l2 1v-.5-.5l1.5-.5 1.5-.5 2-.5 2-.5-1-.5-1-.5h-2-2-1-1l1.5-1.5 1.5-1.5-1.5 1-1.5 1-1 1-1 1 .5 1 .5 1" style="fill:#41392d;stroke:#41392d" />
        <path d="m57 955v1h1.5 1.5l1.5-.5 1.5-.5 2-.5 2-.5 1-1 1-1 1.5-.5 1.5-.5v-.5-.5l1-.5 1-.5 1-1 1-1h-1-1-1-1-2-2l.5 1 .5 1-1 1-1 1-1.5 1-1.5 1-2 .5-2 .5-1.5.5-1.5.5" style="fill:#60584d;stroke:#60584d" />
        <path d="m23 953v1l.5-1 .5-1v-2-2l1-1.5 1-1.5 1-1 1-1 2 .5 2 .5 1 1 1 1 1 1.5 1 1.5-.5-2-.5-2-.5-1-.5-1h-1-1l-1.5-.5-1.5-.5h-1.5-1.5l-.5.5-.5.5-1.5-.5-1.5-.5h-1.5-1.5l-.5.5-.5.5-.5 1.5-.5 1.5.5 1 .5 1 .5.5.5.5 1.5.5 1.5.5.5 1.5.5 1.5" style="fill:#d1cdb2;stroke:#d1cdb2" />
        <path d="m56 952h2 2 2l1 .5 1 .5.5-1.5.5-1.5-.5-.5-.5-.5-1-.5-1-.5-1.5.5-1.5.5-1.5 1.5-1.5 1.5" style="fill:#77200b;stroke:#77200b" />
        <path d="m72 950v1l1-.5 1-.5h1 1 1 1l.5-.5.5-.5.5-1 .5-1-1-.5-1-.5h-1.5-1.5-1.5-1.5-2-2v.5.5h2 2 1 1 1 1l-1 1-1 1-1 .5-1 .5" style="fill:#726d62;stroke:#726d62" />
        <path d="m80 950l3 1v-.5-.5l1-.5 1-.5v-1.5-1.5l-2-1-2-1h-1.5-1.5-1-1-1-1-1.5-1.5-1-1-1.5-1.5v.5.5h2 2 1.5 1.5 1 1 1.5 1.5l2.5 1 2.5 1-.5 1-.5 1-1 .5-1 .5" style="fill:#b8b4a8;stroke:#b8b4a8" />
        <g style="fill:#d1cdb2;stroke:#d1cdb2">
            <path d="m83 950v1l1.5-.5 1.5-.5 1-1 1-1-1-1.5-1-1.5-1-.5-1-.5h-1.5-1.5l2 1 2 1v1.5 1.5l-1 .5-1 .5" />
            <path d="m136 946l18-6-9-1-9-1-5.5-4.5-5.5-4.5.5 1 .5 1 .5 1 .5 1 1 1 1 1 1 1.5 1 1.5-.5 2-.5 2-1.5-.5-1.5-.5-2-.5-2-.5-1-.5-1-.5h-.5-.5l1 1.5 1 1.5 1.5.5 1.5.5 2 .5 2 .5h2 2l1.5 1 1.5 1" />
        </g>
        <path d="m59 945l4 1h2.5 2.5 2 2 1.5 1.5 1.5 1.5v-.5-.5h-1.5-1.5-1-1-1.5-1.5-2-2-1.5-1.5-2-2" style="fill:#997f6d;stroke:#997f6d" />
        <path d="m137 945l15-3-8-1-8-1 .5 2.5.5 2.5" style="fill:#b8b4a8;stroke:#b8b4a8" />
        <g style="fill:#d1cdb2;stroke:#d1cdb2">
            <path d="m5 943l3 1 1.5-.5 1.5-.5.5-2 .5-2v-2-2l-.5-2-.5-2-1-1-1-1-1.5-1-1.5-1-1-1-1-1-2-.5-2-.5v2 2 1.5 1.5h1.5 1.5l1 .5 1 .5 1 1 1 1v1 1l.5 1 .5 1h-1.5-1.5l-1-1-1-1h-1.5-1.5v2 2l1 .5 1 .5 1.5 1 1.5 1" />
            <path d="m64 943l2 1h1.5 1.5 1 1 1.5 1.5 1 1 1 1 1.5 1.5l-1.5-.5-1.5-.5-1.5-.5-1.5-.5-2 .5-2 .5h-2-2l-1.5-.5-1.5-.5-2 .5-2 .5h2 2" />
        </g>
        <path d="m138 943l3 1h2 2 2.5 2.5v-1-1l-1.5-1-1.5-1-1.5-.5-1.5-.5h-2.5-2.5l-1 1-1 1 .5 1 .5 1" style="fill:#9a9589;stroke:#9a9589" />
        <path d="m104 942l1-7-7-3.5-7-3.5-3-3-3-3h-2-2l-.5.5-.5.5h-1-1-1.5-1.5l-1 .5-1 .5h-1.5-1.5-1-1-1-1-1-1l-1 .5-1 .5h2 2 2.5 2.5l.5 1.5.5 1.5.5 1.5.5 1.5 1 1.5 1 1.5 1 1 1 1 2.5.5 2.5.5-1-.5-1-.5-.5-1-.5-1-.5-.5-.5-.5-.5-.5-.5-.5-.5-.5-.5-.5v-1.5-1.5l.5-.5.5-.5h1 1 1 1l.5.5.5.5h1 1l1 .5 1 .5h1 1l.5.5.5.5.5.5.5.5 1 .5 1 .5h1 1l.5.5.5.5 1.5.5 1.5.5 1 .5 1 .5 1 .5 1 .5 2.5.5 2.5.5 1 1 1 1-.5 1.5-.5 1.5h-2-2" style="fill:#d1cdb2;stroke:#d1cdb2" />
        <path d="m100 941l4 1h2 2l.5-1.5.5-1.5-1-1-1-1-2.5-.5-2.5-.5 1 .5 1 .5.5 1 .5 1-1.5.5-1.5.5h-1.5-1.5v.5.5h.5.5" style="fill:#b8b4a8;stroke:#b8b4a8" />
        <path d="m127 941l3 1 .5-2 .5-2-1 1-1 1-1.5-.5-1.5-.5-2-1-2-1-.5-1-.5-1v2 2l1 .5 1 .5 2 .5 2 .5" style="fill:#9a9589;stroke:#9a9589" />
        <g style="fill:#d1cdb2;stroke:#d1cdb2">
            <path d="m190 941l2-1v-1.5-1.5-1.5-1.5h-1.5-1.5l-1 .5-1 .5-.5.5-.5.5.5 1.5.5 1.5 1.5 1 1.5 1" />
            <path d="m93 940l3 1h1.5 1.5v-.5-.5-.5-.5h-2-2l-.5-.5-.5-.5h-2-2-1-1l2.5 1 2.5 1" />
        </g>
        <path d="m99 939v1h1.5 1.5l1.5-.5 1.5-.5-.5-1-.5-1-1-.5-1-.5-1-.5-1-.5-1-.5-1-.5h-2-2l-2-.5-2-.5-1.5-.5-1.5-.5-1.5-.5-1.5-.5-2-.5-2-.5.5 1.5.5 1.5 1 1.5 1 1.5h2 2l1.5 1 1.5 1h2 2l.5.5.5.5h2 2" style="fill:#9a9589;stroke:#9a9589" />
        <path d="m126 939l3 1 1-1 1-1-1-1.5-1-1.5-1-1-1-1-.5-1-.5-1-.5-1-.5-1-.5-1-.5-1-1-1-1-1h-.5-.5l-1-.5-1-.5-1.5-.5-1.5-.5.5 2 .5 2 .5 1.5.5 1.5-.5 1-.5 1 .5 1 .5 1v2 2l1 .5 1 .5h.5.5v-2-2l-.5-1.5-.5-1.5 1-1 1-1 .5 1.5.5 1.5.5.5.5.5.5 1 .5 1v.5.5h-1.5-1.5l2 1 2 1" style="fill:#726d62;stroke:#726d62" />
        <path d="m5 938h3l-.5-1-.5-1v-1-1l-1-1-1-1-1-.5-1-.5h-1.5-1.5v2.5 2.5h1.5 1.5l1 1 1 1" style="fill:#41392d;stroke:#41392d" />
        <path d="m82 937l3 1h1.5 1.5 1 1l-1.5-1-1.5-1h-2-2l-1-1.5-1-1.5-.5-1.5-.5-1.5 2 .5 2 .5 1.5.5 1.5.5 1.5.5 1.5.5 2 .5 2 .5h2 2l-1.5-.5-1.5-.5-.5-.5-.5-.5h-1-1l-1-.5-1-.5-.5-.5-.5-.5-.5-.5-.5-.5h-1-1l-1-.5-1-.5h-1-1l-.5-.5-.5-.5h-1-1-1-1l-.5.5-.5.5v1.5 1.5l.5.5.5.5.5.5.5.5.5.5.5.5.5 1 .5 1 1 .5 1 .5" style="fill:#b8b4a8;stroke:#b8b4a8" />
        <path d="m125 937v-1l-.5-1-.5-1-.5-.5-.5-.5-.5-1.5-.5-1.5-1 1-1 1 .5 1.5.5 1.5.5 1 .5 1h1.5 1.5" style="fill:#60584d;stroke:#60584d" />
        <path d="m172 935l3 1 1-1 1-1-.5-2-.5-2-1-1-1-1v-1.5-1.5l2 .5 2 .5-1-.5-1-.5-.5-1-.5-1-2.5.5-2.5.5.5 2 .5 2 1.5.5 1.5.5.5 2 .5 2-1.5.5-1.5.5-1.5-.5-1.5-.5-1.5-1-1.5-1-.5-.5-.5-.5-1-.5-1-.5-1.5-.5-1.5-.5 1.5 1 1.5 1 .5 1.5.5 1.5 1.5 1 1.5 1h2.5 2.5" style="fill:#d1cdb2;stroke:#d1cdb2" />
        <g style="fill:#b8b4a8;stroke:#b8b4a8">
            <path d="m169 933l3 1 1.5-.5 1.5-.5-.5-2-.5-2-1.5-.5-1.5-.5-.5-2-.5-2 2.5-.5 2.5-.5-1-.5-1-.5-1 .5-1 .5-1.5 1-1.5 1-1.5.5-1.5.5-1.5.5-1.5.5-1 .5-1 .5 1.5.5 1.5.5 1 .5 1 .5.5.5.5.5 1.5 1 1.5 1" />
            <path d="m117 931v1l.5-1 .5-1-.5-1.5-.5-1.5-.5-2-.5-2 1.5.5 1.5.5 1 .5 1 .5-1-2-1-2-2-.5-2-.5v3 3l1 2.5 1 2.5" />
        </g>
        <path d="m188 929l4 1v-1.5-1.5-1.5-1.5l-.5 1-.5 1-1.5-.5-1.5-.5 1-.5 1-.5-1.5-.5-1.5-.5-1.5-1-1.5-1-.5.5-.5.5-.5 1-.5 1-1-1-1-1-1.5-1.5-1.5-1.5h-1.5-1.5-2-2l-1 .5-1 .5-1 .5-1 .5-.5 1-.5 1h-1.5-1.5l-1.5-.5-1.5-.5h-1.5-1.5l-1-1-1-1-.5-1.5-.5-1.5-1-1.5-1-1.5-1-1-1-1-1.5-1-1.5-1-1-1-1-1-1.5-1-1.5-1-1.5-.5-1.5-.5-.5-.5-.5-.5-1-.5-1-.5-1.5-.5-1.5-.5-1-.5-1-.5h-2-2-1-1v1 1l-1 .5-1 .5-.5.5-.5.5v1 1l-.5.5-.5.5-1 .5-1 .5-.5.5-.5.5h-1-1l-.5.5-.5.5-1 .5-1 .5h-1-1l-1 .5-1 .5h-1.5-1.5-1-1l-1 .5-1 .5-1.5.5-1.5.5-.5.5-.5.5-1 .5-1 .5h-2-2-1.5-1.5-1-1-1-1l-.5.5-.5.5h-1-1-1-1l-1 .5-1 .5h-1-1l-1 .5-1 .5-2.5.5-2.5.5h-2-2l-1 .5-1 .5 1.5.5 1.5.5h1 1 1.5 1.5 2.5 2.5 1.5 1.5 1 1l.5-.5.5-.5h2 2 1.5 1.5l2-.5 2-.5 1.5-.5 1.5-.5 1-.5 1-.5h1 1l1-1 1-1h2 2 1.5 1.5 1.5 1.5l1.5-1 1.5-1v-.5-.5l1-1 1-1 1.5-1 1.5-1 1.5-.5 1.5-.5 1-.5 1-.5v-2-2l1-1 1-1 2 1 2 1 1.5 1 1.5 1 8 6.5 8 6.5 5.5 4.5 5.5 4.5 1-.5 1-.5 1.5-.5 1.5-.5 1.5-.5 1.5-.5 1.5-1 1.5-1 1-.5 1-.5 1 .5 1 .5.5 1 .5 1 1 .5 1 .5 1 .5 1 .5 1.5.5 1.5.5 1 .5 1 .5h1.5 1.5" style="fill:#9a9589;stroke:#9a9589" />
        <path d="m48 928l4 1 1.5-.5 1.5-.5 2-.5 2-.5 1.5-1 1.5-1 1-.5 1-.5h1 1 1 1 1 1 1.5 1.5l1-.5 1-.5h-2.5-2.5-1.5-1.5-1-1l-1.5-.5-1.5-.5-2 .5-2 .5h-1-1l-1 .5-1 .5-1.5-.5-1.5-.5-1.5-.5-1.5-.5-1.5-1-1.5-1-1-1-1-1-1-1-1-1-1.5-1-1.5-1-1.5-1.5-1.5-1.5.5 2 .5 2 2 .5 2 .5-.5.5-.5.5h-2-2-1.5-1.5l-1.5.5-1.5.5-.5.5-.5.5h-1.5-1.5-2-2-1.5-1.5l1 .5 1 .5 2 .5 2 .5 1.5-.5 1.5-.5h1.5 1.5l2.5-.5 2.5-.5 2 .5 2 .5.5 1.5.5 1.5 1 1.5 1 1.5 1 1 1 1h2 2" style="fill:#b8b4a8;stroke:#b8b4a8" />
        <path d="m114 925l1 1v-3-3l2 .5 2 .5 1 2 1 2h.5.5l-.5-1.5-.5-1.5-.5-.5-.5-.5-.5-1-.5-1-.5-.5-.5-.5h-1-1v-2-2l-1 .5-1 .5-1.5 1-1.5 1 .5 1 .5 1 .5.5.5.5.5 1 .5 1v1.5 1.5" style="fill:#d1cdb2;stroke:#d1cdb2" />
        <path d="m188 925l3 1 .5-1 .5-1v-1-1l-.5-.5-.5-.5v-1.5-1.5-1.5-1.5-1-1h-.5-.5v2 2 1 1l-.5 1-.5 1-2-1-2-1h-2-2l-1-.5-1-.5-1 .5-1 .5 1.5 1.5 1.5 1.5 1 1 1 1 .5-1 .5-1 .5-.5.5-.5 1.5 1 1.5 1 1.5.5 1.5.5-1 .5-1 .5" style="fill:#8d3426;stroke:#8d3426" />
        <path d="m51 923l3 1 1-.5 1-.5v-.5-.5l-2-.5-2-.5-1.5-.5-1.5-.5-1-1.5-1-1.5-1-1-1-1-1.5-1-1.5-1-1-1-1-1-1-1-1-1-.5-2-.5-2-.5-1-.5-1-.5.5-.5.5v2 2 1.5 1.5l1.5 1.5 1.5 1.5 1.5 1 1.5 1 1 1 1 1 1 1 1 1 1.5 1 1.5 1 1.5.5 1.5.5" style="fill:#77200b;stroke:#77200b" />
        <path d="m56 922v1h1 1v-.5-.5l1.5-.5 1.5-.5 2-.5 2-.5h2 2 2 2l1-.5 1-.5h1 1l1-.5 1-.5h1 1 1 1l.5-.5.5-.5h1 1 1 1 1.5 1.5v-.5-.5l1.5-.5 1.5-.5 2-.5 2-.5 1.5-.5 1.5-.5 1.5-.5 1.5-.5h1 1 2 2 1 1v-.5-.5l1.5-1 1.5-1 1-1 1-1 1.5-1.5 1.5-1.5-8 3-8 3-8 1.5-8 1.5-9 1.5-9 1.5-9.5 1-9.5 1-5-5-5-5 6-10 6-10 1-.5 1-.5 1-.5 1-.5 1-.5 1-.5v-4.5-4.5l15.5 2 15.5 2-10.5-1-10.5-1-12 3.5-12 3.5-.5 1-.5 1-.5.5-.5.5v1 1l-.5.5-.5.5-1 .5-1 .5-.5.5-.5.5v1 1l-.5.5-.5.5-.5.5-.5.5v1 1l-.5 2-.5 2 .5 1 .5 1 .5 2 .5 2 1 1 1 1 1 1 1 1 1.5 1 1.5 1 1 1 1 1 1 1.5 1 1.5 1.5.5 1.5.5 2 .5 2 .5" style="fill:#8d3426;stroke:#8d3426" />
        <path d="m58 922v1l2-.5 2-.5 1-.5 1-.5h2 2l2.5-.5 2.5-.5h-2-2-2-2l-2 .5-2 .5-1.5.5-1.5.5" style="fill:#9e524c;stroke:#9e524c" />
        <path d="m159 922l3 1v-.5-.5-.5-.5l-1.5-1-1.5-1-.5-1.5-.5-1.5-1-1.5-1-1.5-1-1-1-1-1.5-1.5-1.5-1.5-1-.5-1-.5-1.5-.5-1.5-.5-.5-.5-.5-.5-1-.5-1-.5-1 1-1 1 1.5 1 1.5 1 1 1 1 1 1.5 1 1.5 1 1 1 1 1 1 1.5 1 1.5.5 1.5.5 1.5 1 1 1 1h1.5 1.5" style="fill:#77200b;stroke:#77200b" />
        <path d="m162 922v1h1.5 1.5l.5-1 .5-1 1-.5 1-.5v-.5-.5h-1-1l-1.5-.5-1.5-.5h-1-1l-.5-1-.5-1-1-1-1-1-1-1.5-1-1.5-1-1-1-1-1.5-.5-1.5-.5 1.5 1.5 1.5 1.5 1 1 1 1 1 1.5 1 1.5.5 1.5.5 1.5 1.5 1 1.5 1v.5.5" style="fill:#8d3426;stroke:#8d3426" />
        <path d="m18 921l3 1h2 2l2.5-1 2.5-1h-1.5-1.5l-1.5.5-1.5.5-2-.5-2-.5-1-.5-1-.5h-1.5-1.5l1.5 1 1.5 1" style="fill:#d1cdb2;stroke:#d1cdb2" />
        <path d="m191 921l1 1v-10-10-11-11-11-11-11-11-11-11-11.5-11.5-11-11-11-11-4.5-4.5l-2.5 7.5-2.5 7.5-2 8-2 8-2 8-2 8-1.5 8.5-1.5 8.5-1.5 8.5-1.5 8.5-2 8-2 8-3 7-3 7-4.5 5.5-4.5 5.5-8 8.5-8 8.5v-1.5-1.5l.5-1 .5-1v-2.5-2.5l-1-2-1-2-1 1-1 1-.5.5-.5.5-.5.5-.5.5v1 1l-.5.5-.5.5-.5 1-.5 1-.5.5-.5.5-.5.5-.5.5-.5.5-.5.5-1 1.5-1 1.5v2 2l-1 .5-1 .5.5.5.5.5.5.5.5.5.5.5.5.5 1 .5 1 .5 1.5.5 1.5.5.5.5.5.5v1.5 1.5l-1 2-1 2 1.5.5 1.5.5v.5.5l-1.5.5-1.5.5 1.5 1 1.5 1 1.5-.5 1.5-.5h1 1l1.5 1 1.5 1 1.5.5 1.5.5 1.5 1 1.5 1 1.5 1.5 1.5 1.5 1.5.5 1.5.5 1 1 1 1 1 1.5 1 1.5 1 1 1 1 .5 1 .5 1h1 1l1.5.5 1.5.5.5-1 .5-1 1.5-.5 1.5-.5h2 2 2 2 1 1l1 .5 1 .5 1.5 1 1.5 1 2 1 2 1 .5-1 .5-1v-1-1-2-2h.5.5v1 1 1.5 1.5 1.5 1.5" style="fill:#d53603;stroke:#d53603" />
        <path d="m168 919v1l1-.5 1-.5h2 2 1.5 1.5l1-.5 1-.5 1 .5 1 .5h2 2l-1.5-1-1.5-1-1-.5-1-.5h-1-1-2-2-2-2l-1.5.5-1.5.5-.5 1-.5 1h1 1" style="fill:#cd3c2b;stroke:#cd3c2b" />
        <path d="m12 918l3 1h1.5 1.5v-.5-.5l-1-.5-1-.5-1.5-.5-1.5-.5-2-.5-2-.5-2.5-.5-2.5-.5-2-.5-2-.5v1.5 1.5l1.5.5 1.5.5h2.5 2.5l2 .5 2 .5" style="fill:#b8b4a8;stroke:#b8b4a8" />
        <path d="m18 918v1h1.5 1.5 2 2 1.5 1.5l.5-.5.5-.5 1.5-.5 1.5-.5h1.5 1.5l-1-.5-1-.5h-1.5-1.5l-2 .5-2 .5-1.5.5-1.5.5-2-.5-2-.5h-1.5-1.5l1 .5 1 .5" style="fill:#9a9589;stroke:#9a9589" />
        <path d="m51 918l19-2 9-1.5 9-1.5 8-1.5 8-1.5 8-3 8-3 .5-1 .5-1 2-1.5 2-1.5 1-1.5 1-1.5h2 2l1-2 1-2v-1.5-1.5l-.5-.5-.5-.5-1.5-.5-1.5-.5-1-.5-1-.5-.5-.5-.5-.5-.5-.5-.5-.5-.5-.5-.5-.5 1-.5 1-.5v-2-2l-1.5 1.5-1.5 1.5-1.5 1-1.5 1-1 1-1 1-2 .5-2 .5-1.5.5-1.5.5-2 .5-2 .5-1 1-1 1h-1.5-1.5l-1 1-1 1-1.5-.5-1.5-.5-1-.5-1-.5h-2-2-1.5-1.5-2-2-1-1l-1 .5-1 .5h-2-2l-1.5-.5-1.5-.5h-2.5-2.5l-2 .5-2 .5-2 .5-2 .5-1.5.5-1.5.5-1 1.5-1 1.5-1.5.5-1.5.5-1.5-.5-1.5-.5 1-1.5 1-1.5 1-1 1-1v-1.5-1.5l-6 10-6 10 5 5 5 5" style="fill:#cd3c2b;stroke:#cd3c2b" />
        <path d="m19 917l4 1 1.5-.5 1.5-.5 2-.5 2-.5h1.5 1.5l1 .5 1 .5h2 2l.5-.5.5-.5-2-.5-2-.5-1.5-.5-1.5-.5-.5-1-.5-1-1-1-1-1-.5-.5-.5-.5-.5-.5-.5-.5.5-1 .5-1h-1.5-1.5l-2-.5-2-.5-.5 1-.5 1 1 1 1 1 1.5.5 1.5.5 1 .5 1 .5.5.5.5.5-.5.5-.5.5h-1-1-1.5-1.5-1-1-1-1l-1.5-.5-1.5-.5h-.5-.5-1.5-1.5l1 .5 1 .5 1 .5 1 .5h1 1 1 1 1 1l1 .5 1 .5-1.5.5-1.5.5-1.5-.5-1.5-.5-3-.5-3-.5h-2-2-2-2l2.5.5 2.5.5 2 .5 2 .5 1.5.5 1.5.5h1.5 1.5" style="fill:#726d62;stroke:#726d62" />
        <path d="m91 916v1h2 2l1-.5 1-.5.5-.5.5-.5 1.5-.5 1.5-.5 1-.5 1-.5h1 1 1.5 1.5l1-.5 1-.5h-2-2-1-1l-1.5.5-1.5.5-1.5.5-1.5.5-2 .5-2 .5-1.5.5-1.5.5" style="fill:#9e524c;stroke:#9e524c" />
        <g style="fill:#60584d;stroke:#60584d">
            <path d="m18 915l3 1 1.5-.5 1.5-.5-1-.5-1-.5h-1-1-1-1-1-1l-1-.5-1-.5-1-.5-1-.5-1-.5-1-.5h-1.5-1.5l-.5-.5-.5-.5-1-.5-1-.5-2-.5-2-.5v2.5 2.5l2 .5 2 .5h2 2 2 2l3 .5 3 .5" />
            <path d="m33 914l3 1-.5-2-.5-2-.5-.5-.5-.5-1.5-1-1.5-1 1-2 1-2-2 1-2 1-.5 1-.5 1 .5.5.5.5.5.5.5.5 1 1 1 1 .5 1 .5 1" />
        </g>
        <path d="m114 914v1l1-.5 1-.5 1.5-1 1.5-1v-.5-.5h1.5 1.5 2 2l1-1.5 1-1.5-1-1-1-1 .5-1 .5-1h1.5 1.5l-2-1-2-1-1 1-1 1v2 2l-1 .5-1 .5-1.5.5-1.5.5-1.5 1-1.5 1-1 1-1 1" style="fill:#b8b4a8;stroke:#b8b4a8" />
        <path d="m16 912l3 1h1 1 1 1 1.5 1.5 1 1l.5-.5.5-.5-.5-.5-.5-.5-1-.5-1-.5-2 1-2 1h-3-3" style="fill:#997f6d;stroke:#997f6d" />
        <path d="m10 911l2 1h1.5 1.5v-.5-.5-.5-.5l1.5-.5 1.5-.5-1-1.5-1-1.5-.5 1-.5 1-1.5-.5-1.5-.5-1.5-.5-1.5-.5h-1.5-1.5l-1-1-1-1h-1-1l-1 .5-1 .5v1.5 1.5l2 .5 2 .5 1 .5 1 .5.5.5.5.5h1.5 1.5" style="fill:#d1cdb2;stroke:#d1cdb2" />
        <path d="m15 911v1h.5.5 3 3l2-1 2-1-1.5-.5-1.5-.5-1-1-1-1h-.5-.5v1.5 1.5l-1 .5-1 .5h-1.5-1.5" style="fill:#9a9589;stroke:#9a9589" />
        <path d="m112 911v1l1-.5 1-.5.5-.5.5-.5h1 1l.5-.5.5-.5 1-.5 1-.5.5-.5.5-.5v-1-1l.5-.5.5-.5 1-.5 1-.5v-1-1h1 1 2 2l-1-.5-1-.5-1.5-.5-1.5-.5-2 1.5-2 1.5-.5 1-.5 1-1.5 1.5-1.5 1.5-1 1-1 1-1.5 1-1.5 1" style="fill:#9e524c;stroke:#9e524c" />
        <path d="m119 911v1h1.5 1.5 1 1 1 1 1 1l1-1 1-1-.5-1-.5-1v-1-1h2 2l-1.5-1-1.5-1h-1.5-1.5l-.5 1-.5 1 1 1 1 1-1 1.5-1 1.5h-2-2-1.5-1.5" style="fill:#d1cdb2;stroke:#d1cdb2" />
        <path d="m15 910v1h1.5 1.5l1-.5 1-.5v-1.5-1.5l-.5-.5-.5-.5-1-1.5-1-1.5 3-.5 3-.5h-.5-.5l-2.5-.5-2.5-.5-1 2-1 2 .5.5.5.5 1 1.5 1 1.5-1.5.5-1.5.5" style="fill:#b8b4a8;stroke:#b8b4a8" />
        <path d="m34 910l1 1v-1.5-1.5-2-2h-1-1l-1 2-1 2 1.5 1 1.5 1" style="fill:#41392d;stroke:#41392d" />
        <path d="m12 907l3 1 .5-1 .5-1-.5-.5-.5-.5-.5-.5-.5-.5-.5-1.5-.5-1.5-.5-.5-.5-.5-.5.5-.5.5-1 .5-1 .5h-1-1-1-1-1-1l-1.5-.5-1.5-.5v1.5 1.5.5.5l1-.5 1-.5h1 1l1 1 1 1h1.5 1.5l1.5.5 1.5.5" style="fill:#e1ddd1;stroke:#e1ddd1" />
        <path d="m149 907l2 1-1.5-1.5-1.5-1.5-1.5-1-1.5-1-1.5-.5-1.5-.5-1.5-1-1.5-1h-1-1l-1.5.5-1.5.5-1.5-1-1.5-1 1.5-.5 1.5-.5v-.5-.5l-1.5-.5-1.5-.5h-2-2l-1 1.5-1 1.5 1.5.5 1.5.5 1 .5 1 .5 1 .5 1 .5 1.5.5 1.5.5 1 .5 1 .5.5.5.5.5 1.5.5 1.5.5 1-1 1-1 1 .5 1 .5.5.5.5.5 1.5.5 1.5.5" style="fill:#8d3426;stroke:#8d3426" />
        <path d="m19 906l1 1h.5.5l.5-1 .5-1 2 .5 2 .5h1.5 1.5l2-1 2-1h1 1l.5-.5.5-.5.5-2 .5-2v-1-1l.5-.5.5-.5.5-.5.5-.5v-1-1l.5-.5.5-.5 1-.5 1-.5.5-.5.5-.5v-1-1l.5-.5.5-.5.5-1 .5-1h-.5-.5l-.5-.5-.5-.5-1-1.5-1-1.5v1 1 1.5 1.5l-.5 1-.5 1-1 1-1 1h-1-1l-1 .5-1 .5-.5 1.5-.5 1.5v1 1l-.5 1-.5 1-1 2-1 2h-2-2-1.5-1.5l-3 .5-3 .5 1 1.5 1 1.5" style="fill:#997f6d;stroke:#997f6d" />
        <path d="m14 904l1 1 1-2 1-2 2.5.5 2.5.5v-.5-.5l-4.5-4.5-4.5-4.5 9.5 3 9.5 3 .5-1 .5-1v-1-1l.5-1.5.5-1.5 1-.5 1-.5h1 1l1-1 1-1v-.5-.5l-.5-1.5-.5-1.5-1-1-1-1-1-1.5-1-1.5-.5-1.5-.5-1.5.5-1.5.5-1.5-.5-1.5-.5-1.5-.5 1-.5 1-.5.5-.5.5v1.5 1.5l-.5.5-.5.5v1 1l-.5.5-.5.5-1 .5-1 .5-.5.5-.5.5h-1-1-1-1l-1 .5-1 .5h-1-1l-.5.5-.5.5h-1-1l-2-1-2-1h-2-2-2-2-1-1l-1 .5-1 .5v1.5 1.5l1-.5 1-.5 1.5-.5 1.5-.5 1.5-.5 1.5-.5 2 .5 2 .5 1 1 1 1-.5 2-.5 2-.5 1.5-.5 1.5-1 1.5-1 1.5-1.5.5-1.5.5-1.5-.5-1.5-.5-1-.5-1-.5v-1-1l-1-1-1-1v2.5 2.5 2 2 .5.5l1.5.5 1.5.5h1 1 1 1 1 1l1-.5 1-.5.5-.5.5-.5.5.5.5.5.5 1.5.5 1.5" style="fill:#d1cdb2;stroke:#d1cdb2" />
        <path d="m22 901v1h.5.5 1.5 1.5 2 2l1-2 1-2-9.5-3-9.5-3 4.5 4.5 4.5 4.5" style="fill:#e1ddd1;stroke:#e1ddd1" />
        <path d="m4 896l3 1 1.5-.5 1.5-.5 1-1.5 1-1.5.5-1.5.5-1.5.5-2 .5-2-1-1-1-1-2-.5-2-.5-1.5.5-1.5.5-1.5.5-1.5.5-1 .5-1 .5v2.5 2.5l1 1 1 1v1 1l1 .5 1 .5" style="fill:#b8b4a8;stroke:#b8b4a8" />
        <path d="m49 896l3 1 1.5-.5 1.5-.5 1-1.5 1-1.5 1.5-.5 1.5-.5 2-.5 2-.5 2-.5 2-.5-1-1-1-1-.5-.5-.5-.5h-1-1l-1-1-1-1h-1-1l-1 .5-1 .5-1 .5-1 .5-1 .5-1 .5v1.5 1.5l-1 1-1 1-1 1.5-1 1.5" style="fill:#d53603;stroke:#d53603" />
        <path d="m19 894l3 1h2 2l1.5-1 1.5-1 1.5-.5 1.5-.5-1-1.5-1-1.5-.5-1.5-.5-1.5-2-.5-2-.5h-2-2l-1 1-1 1-.5 2-.5 2 .5 1.5.5 1.5" style="fill:#b8b4a8;stroke:#b8b4a8" />
        <g style="fill:#9a9589;stroke:#9a9589">
            <path d="m22 893l3 1 1-1 1-1v-1.5-1.5l-1-1-1-1-2 .5-2 .5-.5 1.5-.5 1.5 1 1 1 1" />
            <path d="m7 892h2l1-1 1-1 .5-2 .5-2-1.5-.5-1.5-.5-2 .5-2 .5-1 1-1 1 1 1.5 1 1.5 1 .5 1 .5" />
        </g>
        <g style="fill:#d53603;stroke:#d53603">
            <path d="m97 891l3 1 1-1 1-1v-.5-.5h-.5-.5l-1-.5-1-.5-2 .5-2 .5v.5.5l1 .5 1 .5" />
            <path d="m113 891h2l1-1 1-1-.5-1-.5-1-1.5.5-1.5.5-2 .5-2 .5.5.5.5.5 1.5.5 1.5.5" />
        </g>
        <g style="fill:#8d3426;stroke:#8d3426">
            <path d="m73 890l3 1h2 2l1-.5 1-.5h1 1 2 2 1.5 1.5 2 2v-.5-.5l-2-.5-2-.5-2 .5-2 .5h-2-2-2.5-2.5-2-2l-1.5-.5-1.5-.5-2-.5-2-.5-.5-.5-.5-.5-1-.5-1-.5h-1.5-1.5l1 1 1 1h1 1l.5.5.5.5 1 1 1 1h2.5 2.5" />
            <path d="m102 889v1h1.5 1.5l1-1 1-1 2-.5 2-.5 1.5-.5 1.5-.5 2-.5 2-.5 1-1 1-1 1.5-1 1.5-1 1.5-1.5 1.5-1.5 1-1.5 1-1.5.5-.5.5-.5.5-.5.5-.5.5-.5.5-.5.5-1 .5-1 .5-.5.5-.5v-1-1l.5-.5.5-.5.5-.5.5-.5 1-1 1-1 .5-1 .5-1 .5-1.5.5-1.5.5-2 .5-2 .5-1.5.5-1.5.5-1.5.5-1.5.5-2 .5-2 1-2 1-2-.5-.5-.5-.5-1-1-1-1-1 1-1 1-1 1-1 1-.5 2-.5 2-1 1-1 1-.5 2-.5 2-.5 1.5-.5 1.5-1 1.5-1 1.5-.5 1.5-.5 1.5-1.5 1.5-1.5 1.5v.5.5l1 1 1 1 .5 1 .5 1v1 1l-1 1.5-1 1.5h-2-2-1.5-1.5-.5-.5l-.5 1-.5 1-.5.5-.5.5-1 .5-1 .5-.5.5-.5.5-.5.5-.5.5-.5.5-.5.5h-1.5-1.5-1-1-1-1-1.5-1.5-2-2l-.5-.5-.5-.5-1 .5-1 .5 1.5.5 1.5.5.5.5.5.5h1 1 1 1l1 .5 1 .5v1 1 1 1h-1.5-1.5l-1 1-1 1h.5.5" />
        </g>
        <path d="m71 888l3 1h2 2 2.5 2.5 2 2l2-.5 2-.5 2 .5 2 .5 2-.5 2-.5 1 .5 1 .5 1-1 1-1h1.5 1.5v-1-1-1-1l-1-.5-1-.5h-1-1-1-1l-.5-.5-.5-.5-1.5-.5-1.5-.5-1.5-.5-1.5-.5-1.5.5-1.5.5-15.5-2-15.5-2v4.5 4.5h1 1 1.5 1.5l1 .5 1 .5.5.5.5.5 2 .5 2 .5" style="fill:#77200b;stroke:#77200b" />
        <path d="m40 887v1l.5-1 .5-1v-1.5-1.5l-.5-.5-.5-.5-1-1-1-1v-1.5-1.5l-.5-1.5-.5-1.5v-1-1l-.5-.5-.5-.5v-1-1l-1-1-1-1-1-1.5-1-1.5-1-.5-1-.5-.5-.5-.5-.5-2-.5-2-.5 1 .5 1 .5.5 1 .5 1 1.5 1.5 1.5 1.5 1.5 1.5 1.5 1.5.5 1.5.5 1.5-.5 1.5-.5 1.5.5 1.5.5 1.5 1 1.5 1 1.5 1 1 1 1 .5 1.5.5 1.5" style="fill:#b8b4a8;stroke:#b8b4a8" />
        <path d="m16 884h2l.5-.5.5-.5h1 1l1-.5 1-.5h1 1 1 1l.5-.5.5-.5 1-.5 1-.5.5-.5.5-.5v-1-1l.5-.5.5-.5v-1.5-1.5l.5-.5.5-.5.5-1 .5-1-1.5-1.5-1.5-1.5-1.5-1.5-1.5-1.5-2.5-1-2.5-1h-2-2-2.5-2.5-2-2-2.5-2.5l-1.5.5-1.5.5-1 .5-1 .5v3 3 2 2 2.5 2.5 2 2l1-.5 1-.5h1 1 2 2 2 2l2 1 2 1" style="fill:#e1ddd1;stroke:#e1ddd1" />
        <path d="m43 884l1 1v-.5-.5l-.5-1.5-.5-1.5-.5-2-.5-2v-2-2l-.5-2-.5-2-1.5-.5-1.5-.5-.5-1-.5-1-1-.5-1-.5-7-4-7-4-10.5-3-10.5-3v1.5 1.5l2 .5 2 .5 2 .5 2 .5 1.5.5 1.5.5h2.5 2.5l1.5.5 1.5.5 2 .5 2 .5h2 2l1 1 1 1 .5 1 .5 1 1 .5 1 .5 1 1.5 1 1.5 1 .5 1 .5 1 1 1 1 .5 2 .5 2 .5 1.5.5 1.5.5 2 .5 2 1 1.5 1 1.5" style="fill:#726d62;stroke:#726d62" />
        <path d="m44 884v1h.5.5l12-3.5 12-3.5 10.5 1 10.5 1 1.5-.5 1.5-.5 1.5.5 1.5.5 1-.5 1-.5.5.5.5.5h2 2 1.5 1.5 1 1 1 1 1.5 1.5l.5-.5.5-.5.5-.5.5-.5.5-.5.5-.5 1-.5 1-.5.5-.5.5-.5.5-1 .5-1-1-.5-1-.5-1-.5-1-.5-1-.5-1-.5-1-1.5-1-1.5-1-1-1-1 .5-2 .5-2 1.5-.5 1.5-.5 1-1.5 1-1.5h2 2l1.5.5 1.5.5 1 1.5 1 1.5 1 1 1 1 1.5-1.5 1.5-1.5.5-1.5.5-1.5 1-1.5 1-1.5.5-1.5.5-1.5.5-2 .5-2 1-1 1-1 .5-2 .5-2 1-1 1-1 1-1 1-1 .5-2 .5-2-9-2-9-2-12.5 2-12.5 2-1.5-1.5-1.5-1.5-5-3-5-3 7-3 7-3 8.5-2.5 8.5-2.5 6-2.5 6-2.5 2 4.5 2 4.5 6.5-1 6.5-1 .5-2 .5-2-.5-1.5-.5-1.5v-1-1-1.5-1.5-2-2-1-1-1.5-1.5l-.5-1-.5-1-7 2-7 2-7 3-7 3-7.5 2.5-7.5 2.5-8 1.5-8 1.5-5-.5-5-.5 5-4.5 5-4.5 7-1.5 7-1.5 7-2.5 7-2.5-4-1.5-4-1.5-6.5-1-6.5-1-6.5 4-6.5 4-5.5 4-5.5 4-6.5 4-6.5 4-5.5 4-5.5 4-7.5 2.5-7.5 2.5 6-4.5 6-4.5 5.5-4.5 5.5-4.5 6-4 6-4 5.5-4.5 5.5-4.5 6.5-3.5 6.5-3.5 6.5-3.5 6.5-3.5 7-3 7-3 13.5-6 13.5-6v-1.5-1.5h-.5-.5l-7.5 3-7.5 3-6 3.5-6 3.5-7.5 3-7.5 3-6 3.5-6 3.5-6.5 4-6.5 4-5.5 4-5.5 4-6.5 4-6.5 4-5.5 4-5.5 4-6 4.5-6 4.5-7 4-7 4-7.5 5-7.5 5v1.5 1.5 2 2 2 2 .5.5l10.5 3 10.5 3 7 4 7 4 6.5-3 6.5-3 8.5-1.5 8.5-1.5 3.5 2.5 3.5 2.5-15 2.5-15 2.5h-2.5-2.5l.5 1 .5 1 1.5.5 1.5.5.5 2 .5 2v2 2l.5 2 .5 2 .5 1.5.5 1.5" style="fill:#60584d;stroke:#60584d" />
        <path d="m40 882l1 1v-1-1l-.5-2-.5-2-.5-1.5-.5-1.5-.5-2-.5-2-1-1-1-1-1-.5-1-.5 1 1 1 1v1 1l.5.5.5.5v1 1l.5 1.5.5 1.5v1.5 1.5l1 1 1 1" style="fill:#9a9589;stroke:#9a9589" />
        <path d="m138 877l16-17 4.5-5.5 4.5-5.5 3-7 3-7 2-8 2-8 1.5-8.5 1.5-8.5 1.5-8.5 1.5-8.5 2-8 2-8 2-8 2-8 2.5-7.5 2.5-7.5v-3.5-3.5-2-2-2.5-2.5-2-2-2.5-2.5-2-2-2-2l-2.5 5.5-2.5 5.5-1.5 8.5-1.5 8.5-1.5 8.5-1.5 8.5-2 8-2 8-2 8-2 8-4.5 7.5-4.5 7.5v-9.5-9.5l-1.5-9.5-1.5-9.5-1-7.5-1-7.5v-9.5-9.5l1.5 4 1.5 4 1.5 6 1.5 6 1.5-8 1.5-8 1-8.5 1-8.5 1-8.5 1-8.5.5-9 .5-9 .5-9.5.5-9.5-3.5 4-3.5 4-2 8.5-2 8.5-4-.5-4-.5-.5-8-.5-8-1.5-6-1.5-6 2.5-6 2.5-6 2-6.5 2-6.5 2-8.5 2-8.5v-9.5-9.5-8.5-8.5l-2 8-2 8-2 8-2 8-1 9-1 9-2.5 7.5-2.5 7.5-2 8-2 8-1 9-1 9 .5 9.5.5 9.5 1 9 1 9 1.5 18 1.5 18 .5-10 .5-10 1-9 1-9 1 9 1 9 .5 10.5.5 10.5 1.5 9.5 1.5 9.5-2 11.5-2 11.5-.5-.5-.5-.5-.5 1-.5 1v2.5 2.5l-.5 1.5-.5 1.5v2.5 2.5 2.5 2.5l4.5-2 4.5-2 2 6.5 2 6.5-2.5 8.5-2.5 8.5-6 6-6 6 .5-2 .5-2-1-2-1-2h-.5-.5l-1 2-1 2-.5 2-.5 2-.5 1.5-.5 1.5-.5 1.5-.5 1.5-.5 2-.5 2-.5 1.5-.5 1.5-.5 1-.5 1 1 2 1 2v2.5 2.5l-.5 1-.5 1v1.5 1.5" style="fill:#cd3c2b;stroke:#cd3c2b" />
        <path d="m118 872l2 1h.5.5v-.5-.5l.5-1 .5-1-.5-.5-.5-.5v-1.5-1.5l1.5-.5 1.5-.5 1.5-.5 1.5-.5v-.5-.5l-1-1-1-1-1-1.5-1-1.5-1.5-.5-1.5-.5h-2-2l-1 1.5-1 1.5-1.5.5-1.5.5-.5 2-.5 2 1 1 1 1 1 1.5 1 1.5 1 .5 1 .5 1 .5 1 .5" style="fill:#41392d;stroke:#41392d" />
        <path d="m121 872v1h1.5 1.5 2 2l1-1.5 1-1.5v-1-1l-.5-1-.5-1-1-1-1-1-1.5.5-1.5.5-1.5.5-1.5.5v1.5 1.5l.5.5.5.5-.5 1-.5 1" style="fill:#77200b;stroke:#77200b" />
        <path d="m42 866l30-5-3.5-2.5-3.5-2.5-8.5 1.5-8.5 1.5-6.5 3-6.5 3 1 .5 1 .5h2.5 2.5" style="fill:#41392d;stroke:#41392d" />
        <path d="m46 864l3 1 1.5-.5 1.5-.5 2-.5 2-.5 1.5-.5 1.5-.5-1-.5-1-.5h-2-2-2.5-2.5l-1.5.5-1.5.5-.5.5-.5.5 1 .5 1 .5" style="fill:#3c1e14;stroke:#3c1e14" />
        <path d="m0 863v1l1-.5 1-.5 1.5-.5 1.5-.5h2.5 2.5 2 2 2.5 2.5 2 2l2.5 1 2.5 1-.5-1-.5-1-1-.5-1-.5h-1.5-1.5-1-1-1-1-1-1-1.5-1.5l-.5-.5-.5-.5h-1-1-1-1-1.5-1.5l-.5.5-.5.5h-1-1l-1 .5-1 .5v.5.5" style="fill:#d1cdb2;stroke:#d1cdb2" />
        <path d="m29 862l1 1-.5-1-.5-1-1-1-1-1h-2-2l-2-.5-2-.5-1.5-.5-1.5-.5h-2.5-2.5l-1.5-.5-1.5-.5-2-.5-2-.5-2-.5-2-.5v1.5 1.5 1.5 1.5l2-1 2-1h2 2l2 .5 2 .5h2 2l2 .5 2 .5 2.5.5 2.5.5 2 .5 2 .5" style="fill:#9a9589;stroke:#9a9589" />
        <path d="m0 861v1l1-.5 1-.5h1 1l.5-.5.5-.5h1.5 1.5 1 1 1 1l.5.5.5.5h1.5 1.5 1 1 1 1 1 1 1.5 1.5l-2.5-.5-2.5-.5-2-.5-2-.5h-2-2l-2-.5-2-.5h-2-2l-2 1-2 1v.5.5" style="fill:#b8b4a8;stroke:#b8b4a8" />
        <path d="m43 856h2v-1-1l-2-.5-2-.5-1 1-1 1 2 .5 2 .5" style="fill:#726d62;stroke:#726d62" />
        <path d="m147 848l12-12 2.5-8.5 2.5-8.5-2-6.5-2-6.5-4.5 2-4.5 2v1 1l.5 1 .5 1v1 1l.5 1 .5 1-.5 1.5-.5 1.5v1 1l-.5 1-.5 1-.5 1.5-.5 1.5-.5.5-.5.5v1 1l-.5.5-.5.5-.5 1-.5 1v1 1l-.5.5-.5.5v1.5 1.5l1 2 1 2-.5 2-.5 2" style="fill:#c74f47;stroke:#c74f47" />
        <g style="fill:#726d62;stroke:#726d62">
            <path d="m69 844l3 1 1-1 1-1v-1.5-1.5l-.5-1.5-.5-1.5-.5-2-.5-2-1 1-1 1-1 1.5-1 1.5v2 2l.5 1 .5 1" />
            <path d="m3 841l14-6 6.5-4.5 6.5-4.5-7.5 2.5-7.5 2.5-6 5-6 5" />
        </g>
        <path d="m144 839l1 1h.5.5v-1.5-1.5l.5-.5.5-.5v-1-1l.5-1 .5-1 .5-.5.5-.5v-1-1l.5-.5.5-.5.5-1.5.5-1.5.5-1 .5-1v-1-1l.5-1.5.5-1.5-.5-1-.5-1v-1-1l-.5-1-.5-1-1.5-.5-1.5-.5-.5 2-.5 2 .5 2.5.5 2.5-.5 1.5-.5 1.5-1 1.5-1 1.5-.5 1.5-.5 1.5-.5 2-.5 2-.5 2-.5 2 1 1 1 1" style="fill:#9e524c;stroke:#9e524c" />
        <path d="m0 838v1l7.5-5 7.5-5 7-4 7-4 6-4.5 6-4.5 5.5-4 5.5-4 6.5-4 6.5-4 5.5-4 5.5-4 6.5-4 6.5-4 6-3.5 6-3.5 7.5-3 7.5-3 6-3.5 6-3.5 7.5-3 7.5-3v-.5-.5l-8 2-8 2-7 3-7 3-6.5 3.5-6.5 3.5-7 3-7 3-5.5 4.5-5.5 4.5-6.5 3.5-6.5 3.5-6 4-6 4-5.5 4.5-5.5 4.5-6 4-6 4-6 4-6 4-7.5 6-7.5 6v.5.5" style="fill:#41392d;stroke:#41392d" />
        <path d="m0 836v1l7.5-6 7.5-6 6-4 6-4 6-4 6-4 5.5-4.5 5.5-4.5 6-4 6-4 6.5-3.5 6.5-3.5 5.5-4.5 5.5-4.5 7-3 7-3 6.5-3.5 6.5-3.5 7-3 7-3 8-2 8-2-2-8-2-8-.5-10-.5-10-.5-9-.5-9v-10.5-10.5l.5-9 .5-9 2.5-8 2.5-8 1.5-8 1.5-8 1.5-9 1.5-9 2.5-7 2.5-7 1.5-9 1.5-9v-7.5-7.5l-2-8.5-2-8.5-2-7.5-2-7.5-1-9.5-1-9.5-1-12.5-1-12.5-1.5 1-1.5 1-1 1-1 1-.5 2-.5 2-1 1-1 1-1 1-1 1-1 1.5-1 1.5-1.5.5-1.5.5-1 1.5-1 1.5-1.5.5-1.5.5-1.5 2-1.5 2 1-.5 1-.5 1-1 1-1h1 1l.5-1 .5-1 1.5-.5 1.5-.5h1 1l.5.5.5.5-.5 1-.5 1-1.5.5-1.5.5-.5.5-.5.5-1 .5-1 .5-1 1-1 1h-1-1l-.5 1-.5 1h-1.5-1.5l.5-1 .5-1 .5-1 .5-1-1.5 1.5-1.5 1.5-1 1.5-1 1.5-.5 1.5-.5 1.5-1 1.5-1 1.5-1 1-1 1-1 1.5-1 1.5-1 1-1 1-1.5.5-1.5.5-1.5 1-1.5 1-1.5-.5-1.5-.5-1-.5-1-.5-.5-.5-.5-.5-.5-1-.5-1-.5-1.5-.5-1.5-.5-.5-.5-.5h-1.5-1.5l-1.5-.5-1.5-.5-.5-.5-.5-.5-.5-.5-.5-.5-.5-.5-.5-.5v-1.5-1.5l.5-1.5.5-1.5v-1-1l.5-1 .5-1 .5-2.5.5-2.5-1 1-1 1-.5 2-.5 2v2 2l-1 .5-1 .5-.5-1-.5-1 .5-2 .5-2 .5-1.5.5-1.5-.5-2-.5-2 1-1 1-1 .5-1.5.5-1.5h1.5 1.5l-.5 1.5-.5 1.5v2 2l.5-1 .5-1 .5-1 .5-1v-2-2l.5-.5.5-.5.5-1 .5-1 .5-1.5.5-1.5 1-1.5 1-1.5.5-1.5.5-1.5-7 1-7 1-6.5-.5-6.5-.5-3 5-3 5 1 6 1 6-5.5 4.5-5.5 4.5-6 1.5-6 1.5-6-4.5-6-4.5-5.5 4-5.5 4-9 5-9 5v11 11 11 11 11.5 11.5 11 11 11 11 11 11 11 11 11.5 11.5 11 11 11 11 11 11 11 11 11.5 11.5 9 9" style="fill:#3c1e14;stroke:#3c1e14" />
        <g style="fill:#726d62;stroke:#726d62">
            <path d="m100 833l25-4 9 2 9 2 .5-2 .5-2 .5-1.5.5-1.5 1-1.5 1-1.5.5-1.5.5-1.5-.5-2.5-.5-2.5-6.5 1-6.5 1-2-4.5-2-4.5-6 2.5-6 2.5-8.5 2.5-8.5 2.5-7 3-7 3 5 3 5 3 1.5 1.5 1.5 1.5" />
            <path d="m31 824l15-5 5.5-4 5.5-4 6.5-4 6.5-4 5.5-4 5.5-4 6.5-4 6.5-4 6.5 1 6.5 1 4 1.5 4 1.5-7 2.5-7 2.5-7 1.5-7 1.5-5 4.5-5 4.5 5 .5 5 .5 8-1.5 8-1.5 7.5-2.5 7.5-2.5 7-3 7-3 7-2 7-2 .5-1 .5-1v-.5-.5-2.5-2.5-2-2l-.5-2-.5-2v-1.5-1.5l-2 1-2 1-1.5 1-1.5 1-1.5.5-1.5.5-1 1-1 1-2 .5-2 .5h-1-1l-1-1-1-1 1-1.5 1-1.5 1-1 1-1 1-1 1-1v-1.5-1.5l1-1 1-1 1.5-1 1.5-1 1.5-.5 1.5-.5 1.5-1 1.5-1 1-1 1-1-.5-1.5-.5-1.5-13.5 6-13.5 6-7 3-7 3-6.5 3.5-6.5 3.5-6.5 3.5-6.5 3.5-5.5 4.5-5.5 4.5-6 4-6 4-5.5 4.5-5.5 4.5-6 4.5-6 4.5" />
        </g>
        <path d="m148 811l3 1v-1-1-2.5-2.5-2.5-2.5l.5-1.5.5-1.5v-2.5-2.5l.5-1 .5-1-.5-1.5-.5-1.5.5-1.5.5-1.5v-2.5-2.5-2-2-2.5-2.5l-.5-1.5-.5-1.5v-2.5-2.5l-.5-1.5-.5-1.5-.5-2-.5-2v-2-2l-.5-1.5-.5-1.5-1.5-18-1.5-18-1-9-1-9-.5-9.5-.5-9.5 1-9 1-9 2-8 2-8 2.5-7.5 2.5-7.5 1-9 1-9 2-8 2-8 2-8 2-8v-2.5-2.5l.5-.5.5-.5-.5-1-.5-1-.5-2-.5-2v-.5-.5l-.5-1.5-.5-1.5v-2-2l-1-1.5-1-1.5-.5-1.5-.5-1.5-.5-2-.5-2-.5-1.5-.5-1.5-.5-2-.5-2-.5-1.5-.5-1.5-.5-2.5-.5-2.5v-1.5-1.5l-.5-1-.5-1v-2-2l-.5-.5-.5-.5v-1.5-1.5-2-2l-.5-.5-.5-.5v-1.5-1.5-2-2-1-1-1-1l-.5-.5-.5-.5-.5-1-.5-1-.5-1.5-.5-1.5.5-.5.5-.5-.5-2-.5-2-.5-1.5-.5-1.5v-1.5-1.5l-1 1-1 1 1.5 9 1.5 9 1.5 9 1.5 9 1.5 8 1.5 8 2 8.5 2 8.5 2 7.5 2 7.5-2 8.5-2 8.5-1.5 8-1.5 8-2 8.5-2 8.5-2 7.5-2 7.5-2 8.5-2 8.5-1.5 8-1.5 8v10 10l1 9 1 9 .5 9.5.5 9.5.5 14 .5 14v1.5 1.5l.5 1.5.5 1.5.5 2 .5 2 .5 1.5.5 1.5v2.5 2.5l.5 1.5.5 1.5v2 2 2.5 2.5 2 2l-.5 1-.5 1-.5 1-.5 1 .5 1 .5 1v1.5 1.5 1 1 2 2 1.5 1.5 1 1l.5 1.5.5 1.5" style="fill:#8d3426;stroke:#8d3426" />
        <path d="m164 797l9-15 2-8 2-8 2-8 2-8 1.5-8.5 1.5-8.5 1.5-8.5 1.5-8.5 2.5-5.5 2.5-5.5v-3.5-3.5-2-2-2.5-2.5-2-2-2-2-2.5-2.5-2-2-2.5-2.5l-1.5.5-1.5.5-.5 1-.5 1-2 8.5-2 8.5-4 12.5-4 12.5 1-9.5 1-9.5.5-9.5.5-9.5v-13.5-13.5l-2-.5-2-.5-1-1-1-1v2 2l-.5.5-.5.5-.5 1-.5 1h-1.5-1.5l-.5-9-.5-9 .5-9.5.5-9.5h2.5 2.5l.5-2 .5-2 .5-2 .5-2v-2.5-2.5l-1-9.5-1-9.5 3.5-3 3.5-3v18.5 18.5 2 2 3.5 3.5l1-9 1-9 .5-10.5.5-10.5v-11-11-10.5-10.5l1-10 1-10 1.5-9.5 1.5-9.5 2-8.5 2-8.5v-1.5-1.5l-1 1.5-1 1.5-1 .5-1 .5-.5-1.5-.5-1.5v-2-2-1-1-1.5-1.5-2-2-1-1-2.5-2.5l-.5 2-.5 2-.5.5-.5.5v1.5 1.5 2 2l-.5.5-.5.5-.5-1-.5-1v-1.5-1.5-1-1-1.5-1.5l-.5-2-.5-2-.5 1.5-.5 1.5v1.5 1.5l-.5 1.5-.5 1.5v1 1 1 1l-.5.5-.5.5v2.5 2.5l1 1 1 1 .5 1.5.5 1.5v2.5 2.5l.5 1.5.5 1.5v2.5 2.5 2 2l-.5 2-.5 2-.5 1.5-.5 1.5-.5.5-.5.5-.5-1-.5-1v-1-1l-.5-1-.5-1v-1.5-1.5l-.5-.5-.5-.5v-1.5-1.5l-.5-2-.5-2v1.5 1.5 2 2 1 1l-.5 1-.5 1v2 2h-1-1l-1-2-1-2-.5-2-.5-2-.5-1.5-.5-1.5-.5-2-.5-2v-2-2l-.5-2-.5-2v-2-2l.5-1.5.5-1.5-.5-3-.5-3h-2-2l-1.5 1-1.5 1-1 1-1 1-1 .5-1 .5-1 2-1 2-.5 1.5-.5 1.5-1.5-.5-1.5-.5h-.5-.5l-.5 3-.5 3 .5 2 .5 2-.5.5-.5.5.5 1.5.5 1.5.5 1 .5 1 .5.5.5.5v1 1 1 1 2 2 1.5 1.5l.5.5.5.5v2 2 1.5 1.5l.5.5.5.5v2 2l.5 1 .5 1v1.5 1.5l2.5-6 2.5-6 1.5-6.5 1.5-6.5 2 3 2 3 .5 9 .5 9-2 17-2 17 .5 2 .5 2 .5 1 .5 1-.5.5-.5.5v2.5 2.5 8.5 8.5 9.5 9.5l-2 8.5-2 8.5-2 6.5-2 6.5-2.5 6-2.5 6 1.5 6 1.5 6 .5 8 .5 8 4 .5 4 .5 2-8.5 2-8.5 3.5-4 3.5-4-.5 9.5-.5 9.5-.5 9-.5 9-1 8.5-1 8.5-1 8.5-1 8.5-1.5 8-1.5 8-1.5-6-1.5-6-1.5-4-1.5-4v9.5 9.5l1 7.5 1 7.5 1.5 9.5 1.5 9.5v9.5 9.5" style="fill:#c74f47;stroke:#c74f47" />
        <path d="m154 791l4-23-1.5-9.5-1.5-9.5-.5-10.5-.5-10.5-1-9-1-9-1 9-1 9-.5 10-.5 10 .5 1.5.5 1.5v2 2l.5 2 .5 2 .5 1.5.5 1.5v2.5 2.5l.5 1.5.5 1.5v2.5 2.5 2 2 2.5 2.5l-.5 1.5-.5 1.5.5 1.5.5 1.5.5.5.5.5" style="fill:#d53603;stroke:#d53603" />
        <path d="m147 789v1l.5-1 .5-1v-2-2-2.5-2.5-2-2l-.5-1.5-.5-1.5-.5.5-.5.5v1.5 1.5l.5 2 .5 2v2 2 2.5 2.5" style="fill:#9e524c;stroke:#9e524c" />
        <path d="m144 787l1-1v-2-2l-.5-2-.5-2-.5 1.5-.5 1.5-.5 2-.5 2 1 1 1 1" style="fill:#997f6d;stroke:#997f6d" />
        <path d="m128 781h2l2-.5 2-.5 1-1 1-1 1.5-.5 1.5-.5 1.5-1 1.5-1 2-1 2-1 .5-.5.5-.5v-2.5-2.5l-.5-1.5-.5-1.5-.5-2-.5-2-1 1-1 1-1.5 1-1.5 1-1.5.5-1.5.5-1.5 1-1.5 1-1 1-1 1v1.5 1.5l-1 1-1 1-1 1-1 1-1 1.5-1 1.5 1 1 1 1" style="fill:#60584d;stroke:#60584d" />
        <path d="m143 753v1h.5.5l-.5-14-.5-14-.5-9.5-.5-9.5-1-9-1-9v-10-10l1.5-8 1.5-8 2-8.5 2-8.5 2-7.5 2-7.5 2-8.5 2-8.5 1.5-8 1.5-8 2-8.5 2-8.5-2-7.5-2-7.5-2-8.5-2-8.5-1.5-8-1.5-8-1.5-9-1.5-9-1.5-9-1.5-9 1 12.5 1 12.5 1 9.5 1 9.5 2 7.5 2 7.5 2 8.5 2 8.5v7.5 7.5l-1.5 9-1.5 9-2.5 7-2.5 7-1.5 9-1.5 9-1.5 8-1.5 8-2.5 8-2.5 8-.5 9-.5 9v10.5 10.5l.5 9 .5 9 .5 10 .5 10 2 8 2 8" style="fill:#77200b;stroke:#77200b" />
        <g style="fill:#41392d;stroke:#41392d">
            <path d="m121 720l3 1h2 2v-1.5-1.5h-2-2l-1.5 1-1.5 1" />
            <path d="m105 717l15-3-8-1-8-1 .5 2.5.5 2.5" />
        </g>
        <path d="m176 712l8-25 2-8.5 2-8.5v-.5-.5l.5-2 .5-2-.5-.5-.5-.5v-1.5-1.5l1-1 1-1 .5-.5.5-.5.5 1.5.5 1.5v-2.5-2.5-2.5-2.5-2-2-.5-.5l-1.5.5-1.5.5-1 .5-1 .5-.5-1-.5-1-.5-1-.5-1v-1-1-1-1-1-1l.5-1 .5-1v-1-1h-1-1l.5-.5.5-.5v-1.5-1.5-1-1-1-1l.5-.5.5-.5v-1.5-1.5-1-1l.5-1.5.5-1.5-.5-.5-.5-.5v-3-3-2.5-2.5l.5-1.5.5-1.5v-2.5-2.5-2-2-2.5-2.5-8-8l.5-13 .5-13v-1.5-1.5l.5-2 .5-2v-2-2-2-2-1-1l.5-1 .5-1 .5-1.5.5-1.5-.5-.5-.5-.5.5-1 .5-1v-2-2l.5-2.5.5-2.5v-2-2-2.5-2.5-2-2-2.5-2.5-2-2-2-2l-2 8.5-2 8.5-1.5 9.5-1.5 9.5-1 10-1 10v10.5 10.5 11 11l-.5 10.5-.5 10.5-1 9-1 9v3 3l-.5 2-.5 2 .5 1.5.5 1.5-.5 2-.5 2-.5 1.5-.5 1.5.5 1.5.5 1.5v13.5 13.5l-.5 9.5-.5 9.5-1 9.5-1 9.5" style="fill:#b9726a;stroke:#b9726a" />
        <g style="fill:#41392d;stroke:#41392d">
            <path d="m71 697l2-14-3.5 1.5-3.5 1.5 2.5 5.5 2.5 5.5" />
            <path d="m108 681l3 1 .5-1.5.5-1.5-1.5-1-1.5-1-1-1-1-1-2 .5-2 .5.5 1.5.5 1.5 1.5 1 1.5 1h.5.5" />
            <path d="m46 675l10-8-9-2-9-2h-8-8l5.5 5.5 5.5 5.5 6.5.5 6.5.5" />
        </g>
        <path d="m188 669v1l.5-1 .5-1 1.5-.5 1.5-.5v-2.5-2.5-.5-.5l-.5-1.5-.5-1.5-.5.5-.5.5-1 1-1 1v1.5 1.5l.5.5.5.5-.5 2-.5 2" style="fill:#9e524c;stroke:#9e524c" />
        <path d="m168 651h3l.5-1 .5-1 .5-.5.5-.5v-2-2-1.5-1.5-1.5-1.5-1-1-1-1-1-1-1-1-1.5-1.5-1-1l.5-.5.5-.5v-1-1-1-1l-.5-1-.5-1v-2-2h-2.5-2.5l-.5 9.5-.5 9.5.5 9 .5 9" style="fill:#b9726a;stroke:#b9726a" />
        <path d="m187 648l2-1 1.5-.5 1.5-.5v-11-11-11-11-11-11-11-11-.5-.5l-.5-.5-.5-.5v-3-3l-.5-1.5-.5-1.5v2 2l-.5 1-.5 1v-1-1l-.5-2.5-.5-2.5-.5 13-.5 13v8 8h1 1l.5 1.5.5 1.5v2 2l-.5 2-.5 2v2 2 2.5 2.5l-.5 1.5-.5 1.5-.5 3-.5 3-.5 1.5-.5 1.5v1 1 1.5 1.5l-.5.5-.5.5v1 1 1 1 1.5 1.5l-.5.5-.5.5h1 1v1 1l-.5 1-.5 1v1 1 1 1 1 1l.5 1 .5 1 .5 1 .5 1" style="fill:#997f6d;stroke:#997f6d" />
        <path d="m175 646l4 1-.5-1.5-.5-1.5.5-1.5.5-1.5.5-2 .5-2-.5-1.5-.5-1.5.5-2 .5-2v-3-3-3.5-3.5-2-2h-.5-.5v1.5 1.5l-.5 1.5-.5 1.5-.5.5-.5.5-.5-2-.5-2v-1-1l-.5-2-.5-2v-2-2l-.5 2-.5 2-.5 2-.5 2v2 2l.5 1 .5 1v1 1 1 1l-.5.5-.5.5v1 1 1.5 1.5 1 1 1 1 1 1 1 1 1.5 1.5 1.5 1.5l1 1 1 1" style="fill:#9e524c;stroke:#9e524c" />
        <path d="m177 620l1-1 .5-1.5.5-1.5v-1.5-1.5-.5-.5-2.5-2.5-1-1l-.5-1-.5-1v-2-2l-.5-.5-.5-.5v-1.5-1.5l-.5-1.5-.5-1.5v-2-2l-.5-.5-.5-.5-.5 1-.5 1v2 2 1 1l.5 1 .5 1v2 2 2.5 2.5 2 2l.5 2 .5 2v1 1l.5 2 .5 2" style="fill:#8d3426;stroke:#8d3426" />
        <path d="m186 616l1 1 .5-3 .5-3 .5-1.5.5-1.5v-2.5-2.5-2-2l.5-2 .5-2v-2-2l-.5-1.5-.5-1.5h-1-1v2.5 2.5 2 2 2.5 2.5l-.5 1.5-.5 1.5v2.5 2.5 3 3" style="fill:#9a9589;stroke:#9a9589" />
        <g style="fill:#cd3c2b;stroke:#cd3c2b">
            <path d="m179 612v1h.5.5v-18.5-18.5l-3.5 3-3.5 3 1 9.5 1 9.5v-2-2l-.5-1-.5-1v-1-1-2-2l.5-1 .5-1 .5.5.5.5v2 2l.5 1.5.5 1.5v1.5 1.5l.5.5.5.5v2 2l.5 1 .5 1v1 1 2.5 2.5" />
            <path d="m163 563v1l2-17 2-17-.5-9-.5-9-2-3-2-3-1.5 6.5-1.5 6.5-2.5 6-2.5 6 .5 2.5.5 2.5.5 1.5.5 1.5.5 2 .5 2 .5 1.5.5 1.5.5 2 .5 2 .5 1.5.5 1.5 1 1.5 1 1.5v2 2l.5 1.5.5 1.5" />
        </g>
        <path d="m191 556l1 1v-3-3-2.5-2.5-2-2-2.5-2.5-2-2-2.5-2.5-2-2-2-2-2.5-2.5-1.5-1.5l-.5 2.5-.5 2.5v2 2l-.5 1-.5 1 .5.5.5.5-.5 1.5-.5 1.5-.5 1-.5 1v1 1 2 2 2 2l-.5 2-.5 2v1.5 1.5l.5 2.5.5 2.5v1 1l.5-1 .5-1v-2-2l.5 1.5.5 1.5v3 3" style="fill:#9a9589;stroke:#9a9589" />
        <path d="m99 532l3 1 1.5-1 1.5-1 1.5-.5 1.5-.5 1-1 1-1 1-1.5 1-1.5 1-1 1-1 1-1.5 1-1.5.5-1.5.5-1.5 1-1.5 1-1.5 1.5-1.5 1.5-1.5 1.5-2 1.5-2 1.5-.5 1.5-.5 1-1.5 1-1.5 1.5-.5 1.5-.5 1-1.5 1-1.5 1-1 1-1 1-1 1-1 .5-2 .5-2 1-1 1-1 1.5-1 1.5-1 1-1 1-1v1.5 1.5l.5 1.5.5 1.5.5-3 .5-3-.5-1.5-.5-1.5h-1.5-1.5-1-1-1-1l-4 6-4 6-5 5-5 5-4.5 5.5-4.5 5.5-7.5 5.5-7.5 5.5-2.5-4.5-2.5-4.5-2-3.5-2-3.5 2.5-8 2.5-8 3-6.5 3-6.5 6-4.5 6-4.5 6-3.5 6-3.5 5.5-5 5.5-5 3.5 4.5 3.5 4.5.5-2 .5-2h.5.5l-.5-1-.5-1v-1.5-1.5-3-3l-.5-1-.5-1-.5-.5-.5-.5-.5-.5-.5-.5.5-1 .5-1-.5-1.5-.5-1.5 1-1 1-1v-1-1l-.5-.5-.5-.5-.5-1-.5-1h-.5-.5l-.5.5-.5.5v2.5 2.5l.5 2 .5 2-.5 1.5-.5 1.5h-1-1l.5-2 .5-2v-2.5-2.5l.5-1.5.5-1.5v-.5-.5-1.5-1.5-2-2h-1-1l-1 1-1 1-4 6-4 6-8.5 9-8.5 9 1.5-1 1.5-1h2 2 1 1l1-.5 1-.5 1.5-.5 1.5-.5h1 1l1 .5 1 .5-.5 1.5-.5 1.5-.5.5-.5.5-1.5.5-1.5.5-6.5 4-6.5 4-7.5 8.5-7.5 8.5-.5 1.5-.5 1.5-1 1.5-1 1.5-.5 1.5-.5 1.5-.5 1-.5 1-.5.5-.5.5v2 2l-.5 1-.5 1-.5 1-.5 1-.5 2.5-.5 2.5-.5 1-.5 1v1 1l-.5 1.5-.5 1.5v1.5 1.5l.5.5.5.5.5.5.5.5.5.5.5.5 1.5.5 1.5.5h1.5 1.5l.5.5.5.5.5 1.5.5 1.5.5 1 .5 1 .5.5.5.5 1 .5 1 .5" style="fill:#41392d;stroke:#41392d" />
        <path d="m0 528v1l9-5 9-5 5.5-4 5.5-4 6 4.5 6 4.5 6-1.5 6-1.5 5.5-4.5 5.5-4.5-1-6-1-6 3-5 3-5 6.5.5 6.5.5 7-1 7-1 7.5-8.5 7.5-8.5 6.5-4 6.5-4 .5-1 .5-1h-1.5-1.5l-1.5.5-1.5.5h-1-1-1-1l-1 .5-1 .5-1 1-1 1v1 1l-1 .5-1 .5-1 1-1 1-1 1.5-1 1.5-1.5.5-1.5.5-2 .5-2 .5-1 1.5-1 1.5-.5 1-.5 1-.5 1-.5 1h-1-1-1-1l-1.5-.5-1.5-.5-7-1-7-1-2.5-8-2.5-8-6.5-3-6.5-3-9.5 1-9.5 1-8-1.5-8-1.5h-9.5-9.5v12 12 11 11 11 11 3.5 3.5" style="fill:#1f1509;stroke:#1f1509" />
        <path d="m99 526l15-11 4.5-5.5 4.5-5.5 5-5 5-5 4-6 4-6v-.5-.5l1-1 1-1v-2-2-1.5-1.5-2-2-1.5-1.5-.5-.5l-3.5-4.5-3.5-4.5-5.5 5-5.5 5-6 3.5-6 3.5-6 4.5-6 4.5-3 6.5-3 6.5-2.5 8-2.5 8 2 3.5 2 3.5 2.5 4.5 2.5 4.5" style="fill:#e1ddd1;stroke:#e1ddd1" />
        <g style="fill:#1f1509;stroke:#1f1509">
            <path d="m82 516l2-1v-2-2l.5-2 .5-2 1-1 1-1v-2-2l.5-1.5.5-1.5h-1.5-1.5l-.5 1.5-.5 1.5-1 1-1 1 .5 2 .5 2-.5 1.5-.5 1.5-.5 2-.5 2 .5 1 .5 1" />
            <path d="m120 515h3l.5-1 .5-1h1 1l1-1 1-1 1-.5 1-.5.5-.5.5-.5 1.5-.5 1.5-.5.5-1 .5-1-.5-.5-.5-.5h-1-1l-1.5.5-1.5.5-.5 1-.5 1h-1-1l-1 1-1 1-1 .5-1 .5-.5 1-.5 1-.5 1-.5 1" />
        </g>
        <path d="m180 512l1-1 .5-1.5.5-1.5.5-2 .5-2v-2-2-2.5-2.5l-.5-1.5-.5-1.5v-2.5-2.5l-.5-1.5-.5-1.5-1-1-1-1-.5 2-.5 2v1 1 1 1 1 1 1.5 1.5 1 1 1 1 2 2 1.5 1.5l.5 1 .5 1v1 1l.5 1 .5 1" style="fill:#cd3c2b;stroke:#cd3c2b" />
        <path d="m173 510h2v-2-2l.5-1 .5-1v-1-1-2-2-1.5-1.5l-.5-1-.5-1 .5-1 .5-1v-1-1-1.5-1.5-2-2-2-2-1-1-1.5-1.5-2-2-1-1-1.5-1.5h-.5-.5l-.5 1-.5 1-.5 2-.5 2-1 1-1 1v-1.5-1.5h-1.5-1.5v1.5 1.5l-.5 1-.5 1 .5 3 .5 3-.5 1.5-.5 1.5v2 2l.5 2 .5 2v2 2l.5 2 .5 2 .5 1.5.5 1.5.5 2 .5 2 1 2 1 2" style="fill:#b9726a;stroke:#b9726a" />
        <path d="m177 502l1 1v-2-2-1-1-1-1-1.5-1.5-1-1-1-1-1-1l.5-2 .5-2v-2.5-2.5l.5-.5.5-.5v-1-1-1-1l.5-1.5.5-1.5v-1.5-1.5l.5-1.5.5-1.5-.5-2-.5-2 .5-.5.5-.5v-1-1-1-1-2-2-.5-.5l-1 1-1 1-.5.5-.5.5v1.5 1.5l-1 1-1 1-.5 1.5-.5 1.5v2 2 1.5 1.5 1 1 2 2 1.5 1.5 1 1 2 2 2 2 1.5 1.5 1 1l-.5 1-.5 1 .5 1 .5 1 .5 2 .5 2v1.5 1.5" style="fill:#9e524c;stroke:#9e524c" />
        <path d="m10 493l15-3-7.5-1.5-7.5-1.5v3 3" style="fill:#3c1e14;stroke:#3c1e14" />
        <path d="m188 487l2-1 1-1.5 1-1.5v-1.5-1.5-2-2-2.5-2.5-2-2-2.5-2.5-2-2-2-2-2.5-2.5-2-2-.5-.5h-1-1l-.5 2.5-.5 2.5v2 2l-.5 2-.5 2-.5 1.5-.5 1.5v2 2 2.5 2.5 1 1 2 2 1.5 1.5 1 1 2 2l.5 1.5.5 1.5" style="fill:#9e524c;stroke:#9e524c" />
        <path d="m150 485l3 1 .5-1.5.5-1.5 1-2 1-2v-.5-.5l.5-1 .5-1v-1-1l.5-2 .5-2-1.5.5-1.5.5-.5 1.5-.5 1.5-.5 1.5-.5 1.5-1 1.5-1 1.5-1 .5-1 .5-.5.5-.5.5.5 1.5.5 1.5h.5.5" style="fill:#b9726a;stroke:#b9726a" />
        <path d="m141 481v1h1 1v-.5-.5l1-.5 1-.5v-2.5-2.5-2-2l-.5-2-.5-2-.5-1-.5-1v1.5 1.5 2 2 1.5 1.5 2 2l-1 1-1 1" style="fill:#d1cdb2;stroke:#d1cdb2" />
        <path d="m143 481v1h1 1v-.5-.5l.5-1 .5-1 .5-1.5.5-1.5-.5-.5-.5-.5v-1.5-1.5-2-2l-.5-.5-.5-.5v-1.5-1.5l-.5-2-.5-2-.5 2-.5 2v.5.5l.5 1 .5 1 .5 2 .5 2v2 2 2.5 2.5l-1 .5-1 .5" style="fill:#b8b4a8;stroke:#b8b4a8" />
        <path d="m145 481v1h1.5 1.5l.5-.5.5-.5v-.5-.5l3-7 3-7 4.5-4 4.5-4 3.5 5.5 3.5 5.5v1.5 1.5l1-1 1-1 .5-2 .5-2 .5-1 .5-1v-.5-.5l.5-9.5.5-9.5 2-9 2-9 2.5 11.5 2.5 11.5v2 2l.5-1.5.5-1.5.5-2 .5-2 .5-1 .5-1v-.5-.5l.5-1 .5-1v-1-1-1-1-1-1-1-1l.5-.5.5-.5v-1.5-1.5h1 1v-10-10-11-11-6.5-6.5l-1.5-.5-1.5-.5-1.5 1-1.5 1-1 1-1 1-1.5-.5-1.5-.5-.5-2-.5-2-.5-1.5-.5-1.5h-1.5-1.5l-1 1-1 1-.5 2-.5 2-1 1-1 1-1.5-.5-1.5-.5 1-7.5 1-7.5 3-16.5 3-16.5-3 7.5-3 7.5-3 7-3 7-4 6-4 6-5.5 12.5-5.5 12.5-6 2-6 2 4 4.5 4 4.5-6-1-6-1 .5 1 .5 1 1-.5 1-.5.5.5.5.5.5 1.5.5 1.5v2 2l1 1.5 1 1.5.5.5.5.5 1 .5 1 .5 1.5.5 1.5.5.5.5.5.5v1.5 1.5 2 2 1 1 1.5 1.5 1.5 1.5 1 1l.5 1 .5 1 .5.5.5.5.5 1 .5 1 1 1 1 1 .5.5.5.5v1.5 1.5l.5 1.5.5 1.5v1 1l.5 1 .5 1v2 2 1 1 1 1l-.5.5-.5.5-1.5-.5-1.5-.5-.5-.5-.5-.5-.5-.5-.5-.5v-1-1h-.5-.5l.5 2 .5 2v1.5 1.5l.5.5.5.5v2 2 1.5 1.5l.5.5.5.5-.5 1.5-.5 1.5-.5 1-.5 1" style="fill:#9a9589;stroke:#9a9589" />
        <path d="m149 480v1l1-.5 1-.5 1-1.5 1-1.5.5-1.5.5-1.5.5-1.5.5-1.5 1.5-.5 1.5-.5 1-1.5 1-1.5 1.5-.5 1.5-.5 1.5.5 1.5.5 1 1 1 1h1.5 1.5l-3.5-5.5-3.5-5.5-4.5 4-4.5 4-3 7-3 7" style="fill:#997f6d;stroke:#997f6d" />
        <path d="m86 478l3 1h1 1 1 1l.5-1 .5-1 .5-1 .5-1-1 .5-1 .5-1.5 1-1.5 1-1.5-.5-1.5-.5-1-.5-1-.5-.5-2-.5-2 .5-1.5.5-1.5h-1-1l-.5 1-.5 1-.5 1-.5 1-1.5 1-1.5 1h-2-2l-1-1.5-1-1.5-.5-1.5-.5-1.5.5-2 .5-2-.5-1.5-.5-1.5-1.5-.5-1.5-.5v-1.5-1.5l-.5-.5-.5-.5-6-2-6-2-8.5-.5-8.5-.5-9.5-.5-9.5-.5-9.5-2.5-9.5-2.5v1.5 1.5 2 2h9.5 9.5l8 1.5 8 1.5 9.5-1 9.5-1 6.5 3 6.5 3 2.5 8 2.5 8 7 1 7 1" style="fill:#3c1e14;stroke:#3c1e14" />
        <path d="m156 478v1l1-.5 1-.5 1-1 1-1 1.5-1 1.5-1h2 2l.5-1 .5-1v-1.5-1.5l-1-1-1-1-1.5-.5-1.5-.5-1.5.5-1.5.5-1 1.5-1 1.5-.5 2-.5 2v1 1l-.5 1-.5 1" style="fill:#9e524c;stroke:#9e524c" />
        <path d="m87 477l3 1 1.5-1 1.5-1 1-.5 1-.5 1-1.5 1-1.5 2-.5 2-.5 1.5-.5 1.5-.5 1-1.5 1-1.5v-.5-.5l.5-1 .5-1 .5-.5.5-.5v-1-1l.5-.5.5-.5.5-1 .5-1 8.5-9 8.5-9 4-6 4-6v-1.5-1.5-2-2l-1-1-1-1-1.5 1-1.5 1-1 1-1 1-.5.5-.5.5-1 .5-1 .5h-1.5-1.5l.5-1.5.5-1.5 1-1.5 1-1.5.5-2.5.5-2.5 1-2.5 1-2.5 1-1 1-1-.5-1-.5-1-1 .5-1 .5-1 1-1 1-1 1.5-1 1.5v2 2l-.5 1-.5 1-.5 1-.5 1-1 1-1 1v1 1l-.5.5-.5.5-.5.5-.5.5-1 .5-1 .5-.5.5-.5.5h-1-1l-.5.5-.5.5h-1.5-1.5l-1 1-1 1-.5.5-.5.5-.5 1-.5 1-1 1-1 1-.5.5-.5.5v1 1 1.5 1.5l1 2 1 2-.5 2-.5 2-1 1-1 1-.5 1-.5 1 1.5-1.5 1.5-1.5h1.5 1.5l-1 1-1 1v1.5 1.5l.5 1 .5 1 .5 1 .5 1-1 1-1 1v1 1l-.5 1-.5 1h-1.5-1.5l.5-1.5.5-1.5-1 1-1 1-.5.5-.5.5-.5-1-.5-1v-2-2l.5-1.5.5-1.5-1 1-1 1-.5 1-.5 1-.5 1-.5 1-.5 1.5-.5 1.5-.5.5-.5.5v-1.5-1.5-2.5-2.5l-.5-1-.5-1h-1-1l-1 1-1 1-1 1.5-1 1.5-1 1-1 1-.5 1-.5 1-.5 1-.5 1-1 1-1 1h-1-1v-1.5-1.5l.5-.5.5-.5.5-.5.5-.5v-1.5-1.5-.5-.5l-.5-1-.5-1-1.5.5-1.5.5-1-.5-1-.5 3-7 3-7 4.5-5.5 4.5-5.5 4-6 4-6 6.5-3.5 6.5-3.5 8.5-5.5 8.5-5.5 1-.5 1-.5h.5.5l.5 1.5.5 1.5 6 1 6 1-4-4.5-4-4.5 6-2 6-2h-1-1-2-2l-1 .5-1 .5h-1.5-1.5l-.5.5-.5.5h-1.5-1.5l-1 1-1 1h-1.5-1.5l-7 3.5-7 3.5-5.5 4-5.5 4-6 4.5-6 4.5-3.5 6-3.5 6-6.5 12-6.5 12v1.5 1.5l1.5.5 1.5.5.5 1.5.5 1.5-.5 2-.5 2 .5 1.5.5 1.5 1 1.5 1 1.5h2 2l1.5-1 1.5-1 .5-1 .5-1 .5-1 .5-1 .5-2 .5-2 1 .5 1 .5v2 2l-.5 2-.5 2 1 1.5 1 1.5" style="fill:#b8b4a8;stroke:#b8b4a8" />
        <path d="m184 477l1-1v-2-2-1.5-1.5l.5-.5.5-.5.5-2 .5-2v-2-2l.5-1.5.5-1.5.5-2 .5-2v-2-2l.5-2.5.5-2.5h-1-1l-.5 1-.5 1-.5 2-.5 2-.5 1.5-.5 1.5v-2-2l-1.5.5-1.5.5v2 2 1 1 1 1l-.5.5-.5.5.5 2 .5 2 .5 2 .5 2v1.5 1.5 1 1 1.5 1.5l.5 1 .5 1" style="fill:#b9726a;stroke:#b9726a" />
        <path d="m85 476l2 1-1-1.5-1-1.5.5-2 .5-2v-2-2l-1-.5-1-.5-.5 2-.5 2h1 1l-.5 1.5-.5 1.5.5 2 .5 2" style="fill:#41392d;stroke:#41392d" />
        <path d="m76 469h2l1-1 1-1 .5-1 .5-1v-.5-.5l.5-1.5.5-1.5.5-1.5.5-1.5.5-.5.5-.5.5-1 .5-1 1-1 1-1h1 1l.5-.5.5-.5.5.5.5.5v2.5 2.5 2.5 2.5 1.5 1.5l.5-.5.5-.5.5-1.5.5-1.5.5-1 .5-1 .5-1 .5-1v-.5-.5l.5-2 .5-2 1-1.5 1-1.5 1-1 1-1 .5-1.5.5-1.5v-2-2-1.5-1.5-1-1l.5-.5.5-.5 1-1 1-1 .5-1 .5-1 .5-.5.5-.5 1-1 1-1h1.5 1.5l.5-.5.5-.5h1 1l.5-.5.5-.5 1-.5 1-.5.5-.5.5-.5.5-.5.5-.5v-1-1l1-1 1-1 .5-1 .5-1v-.5-.5-2-2-1-1l.5-.5.5-.5.5-1 .5-1 .5-.5.5-.5.5-.5.5-.5-.5-1-.5-1-8.5 5.5-8.5 5.5-6.5 3.5-6.5 3.5-4 6-4 6-4.5 5.5-4.5 5.5-3 7-3 7h1.5 1.5l1-1 1-1v-1-1l1-.5 1-.5.5-1.5.5-1.5.5-.5.5-.5 1 .5 1 .5-.5 1.5-.5 1.5-.5.5-.5.5-.5 1-.5 1-.5 1.5-.5 1.5-.5 1-.5 1v1.5 1.5l-.5.5-.5.5-.5.5-.5.5v1.5 1.5" style="fill:#e1ddd1;stroke:#e1ddd1" />
        <path d="m106 466v1l1-1 1-1 1-.5 1-.5v-1-1l1-1 1-1 1-.5 1-.5h1 1 1 1l1.5-.5 1.5-.5h1.5 1.5l-.5 1-.5 1 1.5-.5 1.5-.5.5-.5.5-.5.5-1.5.5-1.5-1-.5-1-.5h-1-1l-1.5.5-1.5.5-1 .5-1 .5h-1-1-2-2l-1.5 1-1.5 1-.5 1-.5 1-.5.5-.5.5v1 1l-.5.5-.5.5-.5 1-.5 1" style="fill:#3c1e14;stroke:#3c1e14" />
        <path d="m97 465l1-1 1-1 1-1v-.5-.5h-1-1v-1-1-1-1l.5-1 .5-1-1 .5-1 .5-.5 1.5-.5 1.5v2 2l.5 1 .5 1" style="fill:#9a9589;stroke:#9a9589" />
        <g style="fill:#d1cdb2;stroke:#d1cdb2">
            <path d="m99 465h3l.5-1 .5-1v-1-1l1-1 1-1-.5-1-.5-1-.5-1-.5-1v1.5 1.5l-.5 1-.5 1-1 1-1 1-.5 1.5-.5 1.5" />
            <path d="m81 464v1l.5-1 .5-1 1-1 1-1 1-1.5 1-1.5 1-1 1-1h1 1l.5 1 .5 1v-2.5-2.5l-.5-.5-.5-.5-.5.5-.5.5h-1-1l-1 1-1 1-.5 1-.5 1-.5.5-.5.5-.5 1.5-.5 1.5-.5 1.5-.5 1.5" />
        </g>
        <g style="fill:#997f6d;stroke:#997f6d">
            <path d="m147 464l3 1 .5-.5.5-.5v-1-1-1-1-2-2l-.5-1-.5-1v-1-1l-.5-1.5-.5-1.5v-1.5-1.5l-.5-.5-.5-.5-1-1-1-1-.5-1-.5-1-.5-.5-.5-.5-.5-1-.5-1-1 1-1 1 .5 1.5.5 1.5-.5 1-.5 1 .5.5.5.5.5.5.5.5.5 1 .5 1 1.5-.5 1.5-.5.5 1.5.5 1.5.5 2 .5 2v2 2 2 2h-1.5-1.5l.5.5.5.5" />
            <path d="m175 463v1h.5.5v-2-2l.5-1.5.5-1.5v-.5-.5l.5-9.5.5-9.5 2 6 2 6v.5.5l1.5-.5 1.5-.5-2.5-11.5-2.5-11.5-2 9-2 9-.5 9.5-.5 9.5" />
        </g>
        <path d="m145 462l1 1h1.5 1.5v-2-2-2-2l-.5-2-.5-2-.5-1.5-.5-1.5-1.5.5-1.5.5v3 3 1.5 1.5l.5 1 .5 1v1 1" style="fill:#726d62;stroke:#726d62" />
        <path d="m100 461v1l1-1 1-1 .5-1 .5-1v-1.5-1.5l-1 1-1 1-1-1-1-1-.5 1-.5 1v1 1 1 1h1 1" style="fill:#997f6d;stroke:#997f6d" />
        <path d="m78 460v1l.5-1 .5-1 .5-1.5.5-1.5.5-1 .5-1 .5-.5.5-.5.5-1.5.5-1.5-1-.5-1-.5-.5.5-.5.5-.5 1.5-.5 1.5-1 .5-1 .5v1 1l-1 1-1 1h-1.5-1.5l1 .5 1 .5 1.5-.5 1.5-.5.5 1 .5 1" style="fill:#d1cdb2;stroke:#d1cdb2" />
        <path d="m67 457l1 1 6.5-12 6.5-12 3.5-6 3.5-6 6-4.5 6-4.5 5.5-4 5.5-4 7-3.5 7-3.5v-.5-.5l1.5-.5 1.5-.5 1.5-.5 1.5-.5.5-.5.5-.5h1.5 1.5 2 2v-.5-.5l4-6.5 4-6.5 2.5-7 2.5-7 4-6.5 4-6.5 3.5-6 3.5-6 3-7.5 3-7.5 4-7 4-7 .5-1 .5-1 .5-1.5.5-1.5-1.5 1.5-1.5 1.5-1.5 1-1.5 1-.5 1.5-.5 1.5h-1-1l2.5-7.5 2.5-7.5 2-8.5 2-8.5.5-8 .5-8 2.5-1 2.5-1-6-4.5-6-4.5-4.5-6-4.5-6-5-7.5-5-7.5-.5-.5-.5-.5v-1.5-1.5-2.5-2.5l.5-1.5.5-1.5.5-2 .5-2-.5-1.5-.5-1.5-.5-1.5-.5-1.5-.5-2-.5-2-1-1.5-1-1.5-.5-1.5-.5-1.5-.5-2-.5-2v-3-3l-.5-.5-.5-.5v-1.5-1.5-1-1-1-1l.5-.5.5-.5.5-1 .5-1h1 1l.5-.5.5-.5h1 1l1 .5 1 .5h1 1l.5.5.5.5.5.5.5.5v2 2l1 1.5 1 1.5.5.5.5.5.5 1 .5 1 1 1 1 1 1 1 1 1 .5 1 .5 1 1.5-.5 1.5-.5.5-.5.5-.5.5-1 .5-1 .5-.5.5-.5h1 1l.5.5.5.5h1.5 1.5l.5.5.5.5.5.5.5.5h1 1l.5-.5.5-.5.5 1 .5 1 .5 1 .5 1v-2.5-2.5-2.5-2.5-2-2-2.5-2.5-2-2-2.5-2.5-2-2-.5-.5l-.5-1-.5-1-1 1-1 1-1 1-1 1-1 1.5-1 1.5-.5 1.5-.5 1.5-1 1.5-1 1.5-1 1-1 1-.5 2-.5 2-1 1-1 1-1.5-.5-1.5-.5-7-5-7-5-8.5.5-8.5.5.5-7.5.5-7.5 5-6 5-6 6.5-4.5 6.5-4.5 7-4.5 7-4.5 5.5-3.5 5.5-3.5v-10-10-11-11-11-11-11-11-11-11-5.5-5.5h-6-6-11-11-11-11-11-11-11-11-11.5-11.5-11-11-11-11-11-11-1.5-1.5v9.5 9.5 11.5 11.5 11 11 11 11 11 11 11 11 11.5 11.5 11 11 11 11 11 11 11 11 11 11 11.5 11.5 11 11 11 11 11 11 11 11 11.5 11.5 11 11 11 11 2.5 2.5l9.5 2.5 9.5 2.5 9.5.5 9.5.5 8.5.5 8.5.5 6 2 6 2" style="fill:#41392d;stroke:#41392d" />
        <path d="m95 457v1l1-1 1-1 1-.5 1-.5v-1-1l.5-1 .5-1 1-1 1-1 .5-2 .5-2-1-2-1-2v2 2l-.5 1.5-.5 1.5-1 1-1 1-1 1.5-1 1.5-.5 2-.5 2" style="fill:#d1cdb2;stroke:#d1cdb2" />
        <path d="m101 457l2-2v-1.5-1.5l1-1 1-1h-1.5-1.5l-1.5 1.5-1.5 1.5v1 1l1 1 1 1" style="fill:#9a9589;stroke:#9a9589" />
        <path d="m177 456v1l1-1 1-1v-1.5-1.5l.5-.5.5-.5 1-1 1-1-2-6-2-6-.5 9.5-.5 9.5" style="fill:#726d62;stroke:#726d62" />
        <path d="m107 455l1-1 1-1 1-1 1-1.5 1-1.5h-1-1l-1-1.5-1-1.5 1-1 1-1-1.5 1-1.5 1v1 1l.5 1.5.5 1.5-.5 2-.5 2" style="fill:#d1cdb2;stroke:#d1cdb2" />
        <path d="m137 446h2l.5-1.5.5-1.5-.5-2-.5-2v-2.5-2.5l-.5 1.5-.5 1.5v2.5 2.5l-.5 2-.5 2" style="fill:#60584d;stroke:#60584d" />
        <path d="m188 443v1h1 1 1 1v-3-3-2-2-2.5-2.5h-1-1v1.5 1.5l-.5.5-.5.5v1 1 1 1 1 1 1 1l-.5 1-.5 1" style="fill:#997f6d;stroke:#997f6d" />
        <path d="m105 440l3 1 1.5-.5 1.5-.5 1-.5 1-.5h-1.5-1.5-1.5-1.5l-.5-.5-.5-.5v-1-1l-.5 1-.5 1v1 1" style="fill:#41392d;stroke:#41392d" />
        <path d="m120 439l10-10-3.5.5-3.5.5-1.5 4.5-1.5 4.5" style="fill:#e1ddd1;stroke:#e1ddd1" />
        <path d="m106 438l1 1v-.5-.5l1-1.5 1-1.5 2-.5 2-.5 1 1 1 1 .5-1 .5-1 .5-1.5.5-1.5-2 .5-2 .5-1.5.5-1.5.5-1 1-1 1-1 .5-1 .5v1 1" style="fill:#3c1e14;stroke:#3c1e14" />
        <path d="m107 438v1h1.5 1.5l1.5-.5 1.5-.5 1-1 1-1-1-1-1-1-2 .5-2 .5-1 1.5-1 1.5" style="fill:#1f1509;stroke:#1f1509" />
        <path d="m142 435l1 1v-1.5-1.5-1.5-1.5-1-1-2-2-1.5-1.5l-.5-.5-.5-.5-1.5-.5-1.5-.5-1-.5-1-.5-.5-.5-.5-.5-1-1.5-1-1.5-.5 2.5-.5 2.5 1 1 1 1 1-.5 1-.5 1.5.5 1.5.5.5 1.5.5 1.5.5 2 .5 2-.5 2.5-.5 2.5.5 1 .5 1" style="fill:#997f6d;stroke:#997f6d" />
        <path d="m139 433v1l.5-.5.5-.5v-.5-.5l.5-1.5.5-1.5-.5-2-.5-2-.5-1.5-.5-1.5-1.5.5-1.5.5-.5 1-.5 1v1.5 1.5l1-1 1-1h1 1v2 2 1.5 1.5" style="fill:#60584d;stroke:#60584d" />
        <path d="m140 432v1h.5.5l.5-2.5.5-2.5-.5-2-.5-2-.5-1.5-.5-1.5-1.5-.5-1.5-.5-1 .5-1 .5v2 2l.5-1 .5-1 1.5-.5 1.5-.5.5 1.5.5 1.5.5 2 .5 2-.5 1.5-.5 1.5" style="fill:#726d62;stroke:#726d62" />
        <path d="m122 425h3l1-.5 1-.5.5-.5.5-.5 1-1 1-1v-.5-.5-.5-.5l-1 .5-1 .5-.5 1-.5 1h-1.5-1.5l.5-1.5.5-1.5-1 1.5-1 1.5-.5 1.5-.5 1.5" style="fill:#60584d;stroke:#60584d" />
        <path d="m124 422h3l.5-1 .5-1 1-.5 1-.5.5-.5.5-.5v-.5-.5l.5-1 .5-1-.5-.5-.5-.5-.5-1-.5-1h-1-1l-1 1-1 1-.5 2.5-.5 2.5-.5 1.5-.5 1.5" style="fill:#41392d;stroke:#41392d" />
        <path d="m130 420v1l1.5-1 1.5-1 .5-2.5.5-2.5v-2-2l-.5-1.5-.5-1.5-.5-.5-.5-.5-1 .5-1 .5-1 1-1 1h2 2v1 1l.5 1 .5 1v1 1 1 1l-1 .5-1 .5-.5.5-.5.5v.5.5" style="fill:#726d62;stroke:#726d62" />
        <path d="m131 417v1l1-.5 1-.5v-1-1-1-1l-.5-1-.5-1v-1-1h-2-2l-1 2.5-1 2.5 1-1 1-1h1 1l.5 1 .5 1 .5.5.5.5-.5 1-.5 1" style="fill:#60584d;stroke:#60584d" />
        <path d="m122 416v1l.5-1 .5-1v-2-2l1-1.5 1-1.5 1-1 1-1 1-.5 1-.5-.5-1.5-.5-1.5h-.5-.5l-1 .5-1 .5.5 1 .5 1-.5.5-.5.5-.5.5-.5.5-.5 1-.5 1-.5.5-.5.5v1 1 2 2" style="fill:#d1cdb2;stroke:#d1cdb2" />
        <g style="fill:#60584d;stroke:#60584d">
            <path d="m125 397v1h1.5 1.5l1-1 1-1h1.5 1.5l.5-.5.5-.5h1.5 1.5l1-.5 1-.5h-2-2-1.5-1.5l-.5.5-.5.5-1.5.5-1.5.5-1.5.5-1.5.5" />
            <path d="m139 393v1h2 2v-.5-.5l3-7 3-7 3.5-7.5 3.5-7.5 4.5-6.5 4.5-6.5 3.5-8 3.5-8 4.5-11.5 4.5-11.5-4 7-4 7-3 7.5-3 7.5-3.5 6-3.5 6-4 6.5-4 6.5-2.5 7-2.5 7-4 6.5-4 6.5" />
        </g>
        <path d="m143 393v1h1 1l5.5-12.5 5.5-12.5 4-6 4-6 3-7 3-7 3-7.5 3-7.5 1-1.5 1-1.5 1-1.5 1-1.5.5-1.5.5-1.5.5-1.5.5-1.5 1-1.5 1-1.5.5-1.5.5-1.5 1-2 1-2v-.5-.5l.5-1 .5-1 .5-1 .5-1 .5-.5.5-.5 1-1.5 1-1.5v-1.5-1.5-1.5-1.5l-1 1.5-1 1.5-.5.5-.5.5v-.5-.5h-.5-.5l-.5 1-.5 1-.5 1-.5 1-.5 1-.5 1v1 1 1 1l-.5.5-.5.5-.5 1-.5 1-.5 1.5-.5 1.5-.5 1-.5 1-4.5 11.5-4.5 11.5-3.5 8-3.5 8-4.5 6.5-4.5 6.5-3.5 7.5-3.5 7.5-3 7-3 7" style="fill:#726d62;stroke:#726d62" />
        <path d="m168 376l3 1 1-1 1-1 .5-2 .5-2 1-1 1-1h1.5 1.5l.5 1.5.5 1.5.5 2 .5 2 1.5.5 1.5.5 1-1 1-1 1.5-1 1.5-1 1.5.5 1.5.5v-11.5-11.5-11-11-11-11-2-2l-1.5 1-1.5 1-1 .5-1 .5-1 2-1 2-.5 1.5-.5 1.5-1 1.5-1 1.5-.5 1.5-.5 1.5-.5 1.5-.5 1.5-1 1.5-1 1.5-1 1.5-1 1.5-3 16.5-3 16.5-1 7.5-1 7.5" style="fill:#b8b4a8;stroke:#b8b4a8" />
        <path d="m179 337l7-13-1.5-2.5-1.5-2.5-2.5 8.5-2.5 8.5.5.5.5.5" style="fill:#d1cdb2;stroke:#d1cdb2" />
        <path d="m174 315h2l.5-1.5.5-1.5 1.5-1 1.5-1 1.5-1.5 1.5-1.5v-.5-.5-2-2-1-1l.5-.5.5-.5 1-1.5 1-1.5v-.5-.5l.5-1 .5-1v-1-1-1.5-1.5-1-1l.5-.5.5-.5.5-1.5.5-1.5v-.5-.5-.5-.5-2.5-2.5-1-1l1.5-.5 1.5-.5v-1.5-1.5-1.5-1.5l-1.5-.5-1.5-.5-2.5 1-2.5 1-.5 8-.5 8-2 8.5-2 8.5-2.5 7.5-2.5 7.5" style="fill:#3c1e14;stroke:#3c1e14" />
        <path d="m183 306v1l.5-1 .5-1 .5-.5.5-.5v-1-1-1-1l.5-1 .5-1 .5-1 .5-1h-.5-.5l-1 1.5-1 1.5-.5.5-.5.5v1 1 2 2" style="fill:#41392d;stroke:#41392d" />
        <path d="m187 305v1l1-.5 1-.5 1.5-1 1.5-1v-2-2-1-1l-1 1.5-1 1.5-.5.5-.5.5-.5 1-.5 1-.5 1-.5 1" style="fill:#9a9589;stroke:#9a9589" />
        <path d="m186 295v1h.5.5l.5-1 .5-1v-.5-.5l.5-1 .5-1v-2-2-2.5-2.5l-.5 1.5-.5 1.5-.5.5-.5.5v1 1 1.5 1.5 1 1l-.5 1-.5 1" style="fill:#77200b;stroke:#77200b" />
        <path d="m189 295l1-1 1-1.5 1-1.5v-2-2-2-2-2.5-2.5l-.5 1.5-.5 1.5-.5 2-.5 2 .5 1.5.5 1.5-.5.5-.5.5v1 1l-.5 1.5-.5 1.5v.5.5" style="fill:#9e524c;stroke:#9e524c" />
        <path d="m188 293v1h.5.5l.5-1.5.5-1.5v-1-1l.5-.5.5-.5-.5-1.5-.5-1.5.5-2 .5-2h-1-1v.5.5 2.5 2.5 2 2l-.5 1-.5 1" style="fill:#8d3426;stroke:#8d3426" />
        <path d="m189 280v1h1 1l.5-1.5.5-1.5v-3-3l-1.5.5-1.5.5v1 1 2.5 2.5" style="fill:#77200b;stroke:#77200b" />
        <path d="m189 265l3 1v-1.5-1.5l-.5-.5-.5-.5-1-.5-1-.5-1-1-1-1-1-1.5-1-1.5-.5-1.5-.5-1.5h1.5 1.5l1.5.5 1.5.5 1 .5 1 .5v-2.5-2.5l-.5-.5-.5-.5-1.5-.5-1.5-.5-.5-1-.5-1 .5-.5.5-.5.5-.5.5-.5 1.5-.5 1.5-.5v-1.5-1.5-1.5-1.5l-1 .5-1 .5-1 .5-1 .5-.5.5-.5.5-.5.5-.5.5-.5.5-.5.5-.5.5-.5.5-1 .5-1 .5-.5.5-.5.5v1 1 1 1l1 .5 1 .5v1 1h-1-1l-1.5-.5-1.5-.5-4-6-4-6-4-5-4-5 1-8 1-8-3-7-3-7-1.5-8.5-1.5-8.5 9.5 8 9.5 8 .5-1 .5-1-1-1-1-1-.5-1-.5-1-1-1-1-1-1-1-1-1-.5-1-.5-1-.5-.5-.5-.5-1-1.5-1-1.5-.5-1-.5-1-1-1-1-1-1.5-.5-1.5-.5-2 .5-2 .5-1 1-1 1v3.5 3.5 3 3l.5 2 .5 2 .5 1.5.5 1.5 1 1.5 1 1.5.5 2 .5 2 1 1 1 1 .5 1.5.5 1.5v1 1 1 1l-.5 1-.5 1v2 2l-.5.5-.5.5v1.5 1.5 1.5 1.5l5 7.5 5 7.5 4.5 6 4.5 6 6 4.5 6 4.5" style="fill:#d1cdb2;stroke:#d1cdb2" />
        <g style="fill:#e1ddd1;stroke:#e1ddd1">
            <path d="m191 262l1 1v-3-3-1-1l-1-.5-1-.5-1.5-.5-1.5-.5h-1.5-1.5l.5 1.5.5 1.5 1 1.5 1 1.5 1 1 1 1 1 .5 1 .5" />
            <path d="m178 251l3 1h1 1v-1-1l-1-.5-1-.5v-1-1-1-1l.5-.5.5-.5 1-.5 1-.5.5-.5.5-.5.5-.5.5-.5.5-.5.5-.5.5-.5.5-.5 1-.5 1-.5 1-.5 1-.5v-2.5-2.5-2.5-2.5-1-1l-1-.5-1-.5-.5-1.5-.5-1.5-.5-1.5-.5-1.5-.5-2-.5-2-1-1-1-1-.5-2-.5-2-1-1-1-1-1-1-1-1-1.5-1-1.5-1-1-1-1-1-.5-1-.5-1-9.5-8-9.5-8 1.5 8.5 1.5 8.5 3 7 3 7-1 8-1 8 4 5 4 5 4 6 4 6" />
        </g>
        <path d="m191 249l1 1v-3-3-.5-.5l-1.5.5-1.5.5-.5.5-.5.5-.5.5-.5.5.5 1 .5 1 1.5.5 1.5.5" style="fill:#41392d;stroke:#41392d" />
        <path d="m157 228l1 1v-1.5-1.5-1.5-1.5l.5-.5.5-.5v-2-2l.5-1 .5-1v-1-1-1-1l-.5-1.5-.5-1.5-1-1-1-1 .5 1.5.5 1.5.5 1.5.5 1.5-.5 2-.5 2-.5 1.5-.5 1.5v2.5 2.5 1.5 1.5" style="fill:#60584d;stroke:#60584d" />
        <path d="m190 224l2 1v-2.5-2.5-2.5-2.5-2-2-1-1l-1 .5-1 .5.5 1.5.5 1.5-.5.5-.5.5-1-1.5-1-1.5-.5-1.5-.5-1.5-1-1.5-1-1.5h-.5-.5-.5-.5l-1-.5-1-.5-.5-.5-.5-.5v-1-1l-.5-.5-.5-.5-.5-.5-.5-.5-2-.5-2-.5.5 1 .5 1 1 1 1 1 1.5 1 1.5 1 1 1 1 1 1 1 1 1 .5 2 .5 2 1 1 1 1 .5 2 .5 2 .5 1.5.5 1.5.5 1.5.5 1.5" style="fill:#b8b4a8;stroke:#b8b4a8" />
        <path d="m190 214l1-1-.5-1.5-.5-1.5 1-.5 1-.5v-3-3-2.5-2.5-1.5-1.5l-.5-1-.5-1-.5-1-.5-1-.5.5-.5.5h-1-1l-.5-.5-.5-.5-.5-.5-.5-.5h-1.5-1.5l-.5-.5-.5-.5h-1-1l-.5.5-.5.5-.5 1-.5 1-.5.5-.5.5-1.5.5-1.5.5 1 1 1 1h2 2l1 1 1 1 .5.5.5.5.5 1 .5 1 1 2 1 2 1 1.5 1 1.5.5 1.5.5 1.5 1 1.5 1 1.5" style="fill:#60584d;stroke:#60584d" />
        <path d="m183 205h1v-.5-.5l-1-.5-1-.5-.5-1.5-.5-1.5-.5-.5-.5-.5-1-.5-1-.5-1.5-1-1.5-1-.5 1-.5 1 2 .5 2 .5.5.5.5.5.5.5.5.5v1 1l.5.5.5.5 1 .5 1 .5" style="fill:#9a9589;stroke:#9a9589" />
        <path d="m184 204v1h.5.5l-1-2-1-2-.5-1-.5-1-.5-.5-.5-.5-1-1-1-1h-2-2l1.5 1 1.5 1 1 .5 1 .5.5.5.5.5.5 1.5.5 1.5 1 .5 1 .5" style="fill:#726d62;stroke:#726d62" />
        <path d="m151 186l1 1v-3.5-3.5l1-1 1-1 2-.5 2-.5 1.5.5 1.5.5 1 1 1 1 .5 1 .5 1v-2-2l-.5-.5-.5-.5-.5-.5-.5-.5h-1-1l-1-.5-1-.5h-1-1l-.5.5-.5.5h-1-1l-.5 1-.5 1-.5.5-.5.5v1 1 1 1 1.5 1.5" style="fill:#60584d;stroke:#60584d" />
        <path d="m174 180l3 1 1-1 1-1 .5-2 .5-2 1-1 1-1 1-1.5 1-1.5.5-1.5.5-1.5 1-1.5 1-1.5 1-1 1-1 1-1 1-1 .5 1 .5 1v-3-3-1.5-1.5l-6.5 3.5-6.5 3.5-6 3-6 3-10 2-10 2v-7-7l4.5-5 4.5-5 6-4.5 6-4.5 12-7 12-7v-2-2l-5.5 3.5-5.5 3.5-7 4.5-7 4.5-6.5 4.5-6.5 4.5-5 6-5 6-.5 7.5-.5 7.5 8.5-.5 8.5-.5 7 5 7 5" style="fill:#3c1e14;stroke:#3c1e14" />
        <path d="m147 170l20-4 6-3 6-3 6.5-3.5 6.5-3.5v-2.5-2.5-2-2-2-2-2.5-2.5-2-2-2.5-2.5-1.5-1.5l-12 7-12 7-6 4.5-6 4.5-4.5 5-4.5 5v7 7" style="fill:#1f1509;stroke:#1f1509" />
    </g>
</svg>
