<svg xmlns="http://www.w3.org/2000/svg" viewBox="0 0 960 424">
    <path d="m0 0h960v424h-960z" style="fill:#27170b" />
    <g style="stroke-linejoin:round;stroke-width:.7">
        <path d="m959 424h1v-1.5-1.5-2-2-2.5-2.5-2-2h-.5-.5l-13.5 1.5-13.5 1.5-14 2-14 2-12 1.5-12 1.5-11-.5-11-.5 10.5-5 10.5-5 13.5-1 13.5-1 27-2 27-2v-.5-.5h-.5-.5-15.5-15.5l-13 1-13 1-14 .5-14 .5-9.5-2-9.5-2-12.5 12.5-12.5 12.5h17 17 16 16 6 6l9-5 9-5 12 2 12 2h-1.5-1.5l-1 .5-1 .5h-1-1-1-1-1-1-1.5-1.5-1-1-1-1-1-1l-1 .5-1 .5-.5.5-.5.5h-1-1l-.5.5-.5.5-1.5 1-1.5 1h3 3 2.5 2.5 2 2 2.5 2.5 2 2 2.5 2.5 2 2 2.5 2.5" style="fill:#938e82;stroke:#938e82" />
        <path d="m959 408h1v-1.5-1.5-2-2l-27 2-27 2-13.5 1-13.5 1-10.5 5-10.5 5 11 .5 11 .5 12-1.5 12-1.5 14-2 14-2 13.5-1.5 13.5-1.5" style="fill:#b8b3a4;stroke:#b8b3a4" />
        <path d="m959 400h1v-17-17-15.5-15.5-5.5-5.5h-.5-.5l-1.5.5-1.5.5h-2-2l-1.5-1-1.5-1v-2-2l.5-2 .5-2 1.5-.5 1.5-.5h2 2 1.5 1.5v-3.5-3.5-1-1h-.5-.5l-13 1-13 1-9 3.5-9 3.5-10-.5-10-.5 9-7 9-7-8.5-3.5-8.5-3.5h-.5-.5-2-2l-1.5 1-1.5 1-1 1-1 1-1 1-1 1h-1-1l3.5 7 3.5 7-10.5 2-10.5 2-13-1.5-13-1.5-8-3.5-8-3.5-5 3.5-5 3.5 13 2.5 13 2.5-4 3.5-4 3.5-13 1-13 1-11.5-4-11.5-4 7.5-8 7.5-8 11.5-2 11.5-2 8.5-4 8.5-4-13-.5-13-.5-11.5 3-11.5 3-9 2.5-9 2.5-11 4.5-11 4.5-12.5 4-12.5 4-5.5-10.5-5.5-10.5-1-11.5-1-11.5 3.5-12.5 3.5-12.5 15-.5 15-.5 5-3.5 5-3.5 10-6 10-6 10 2.5 10 2.5-10 5.5-10 5.5-.5 5-.5 5 14.5-1 14.5-1 13-.5 13-.5 13-1.5 13-1.5-10.5-5-10.5-5-13.5 1-13.5 1 4.5-7 4.5-7-1-6.5-1-6.5-12-2.5-12-2.5-8 3.5-8 3.5-5 6-5 6-11-.5-11-.5 2.5-6 2.5-6 5-4.5 5-4.5-20 3.5-20 3.5-.5 1.5-.5 1.5v1.5 1.5l-.5.5-.5.5h-1-1l-.5.5-.5.5h-1-1l-.5.5-.5.5-1-.5-1-.5v-1-1h-1-1v-1-1l-1-.5-1-.5v-1-1l-.5-.5-.5-.5-.5-.5-.5-.5v-1.5-1.5l-.5-.5-.5-.5v-1-1l.5-.5.5-.5.5-1 .5-1 .5-1 .5-1-.5-1-.5-1v-2-2l-5-12-5-12-9.5-6-9.5-6 .5-12 .5-12-.5-14-.5-14-9 2.5-9 2.5-10.5-4-10.5-4-9-4-9-4-8 .5-8 .5-4.5 9-4.5 9-10-2.5-10-2.5-3.5-10-3.5-10-11.5-4-11.5-4-11-3.5-11-3.5-22-3.5-22-3.5h-.5-.5l-1.5.5-1.5.5-2 .5-2 .5 14 2 14 2 9 6.5 9 6.5 11.5 3 11.5 3 12 3.5 12 3.5-10.5 3-10.5 3 4 5.5 4 5.5 9.5 3 9.5 3 5.5 4 5.5 4-4.5 5-4.5 5 5 8.5 5 8.5 8.5-3.5 8.5-3.5 12.5-2 12.5-2-8 9-8 9-8 7.5-8 7.5-7 4.5-7 4.5-8.5 3-8.5 3-1 12.5-1 12.5 5.5 9 5.5 9-1 6.5-1 6.5 3.5 9 3.5 9 .5 8 .5 8-7-6.5-7-6.5-7.5-8-7.5-8v-6-6l-4.5-10-4.5-10-5.5-10-5.5-10-4 7.5-4 7.5-1.5 9-1.5 9-3-6.5-3-6.5v-11.5-11.5l-5 4.5-5 4.5 1.5 10 1.5 10 5 7.5 5 7.5-6.5 13.5-6.5 13.5 8 7 8 7 7.5 7 7.5 7 10 2.5 10 2.5 11 3.5 11 3.5 14.5 2.5 14.5 2.5 12-3.5 12-3.5 4-11.5 4-11.5 5.5-4 5.5-4 1.5.5 1.5.5v-9.5-9.5l-7-7.5-7-7.5-4.5 11-4.5 11-3.5 9-3.5 9-6.5-9-6.5-9 1-12.5 1-12.5 4.5-10 4.5-10-.5 13-.5 13 5 6.5 5 6.5-1-11.5-1-11.5 5-9.5 5-9.5 10.5-4 10.5-4 8.5-7.5 8.5-7.5 7.5-2.5 7.5-2.5-2 12-2 12-7 8.5-7 8.5-2 13.5-2 13.5-3 12-3 12 .5-1.5.5-1.5.5-1 .5-1 .5-1.5.5-1.5v-1-1l.5-1 .5-1 .5-1.5.5-1.5.5-.5.5-.5 1-1.5 1-1.5 4-5 4-5 .5 2 .5 2v1 1l.5 1 .5 1 1.5.5 1.5.5v-14.5-14.5l8-.5 8-.5 1-10.5 1-10.5 3 9.5 3 9.5.5 11.5.5 11.5-1.5 1-1.5 1h-1-1l-1-.5-1-.5-1 1-1 1h-1.5-1.5l-1.5-.5-1.5-.5-1 1.5-1 1.5-.5 1.5-.5 1.5-1.5.5-1.5.5-.5-.5-.5-.5h-.5-.5l.5 1.5.5 1.5-.5 1-.5 1 .5 1 .5 1 .5 1.5.5 1.5v2.5 2.5l.5-.5.5-.5h.5.5v2 2 2.5 2.5 2 2l-.5 1.5-.5 1.5v1 1l4.5.5 4.5.5 4-2.5 4-2.5-1.5 13-1.5 13-4.5 6-4.5 6 15 3 15 3 1.5 1 1.5 1 .5 1.5.5 1.5 1 2 1 2 8.5 1 8.5 1 13-2.5 13-2.5 10.5-5 10.5-5 14 .5 14 .5 14-1.5 14-1.5 12.5 5 12.5 5 1.5-.5 1.5-.5 2.5.5 2.5.5h2 2 1 1l2 .5 2 .5.5.5.5.5h1 1l.5.5.5.5h1.5 1.5l1.5.5 1.5.5.5.5.5.5.5 1 .5 1h1 1 1 1l.5 1 .5 1 1 1 1 1v1 1 1 1 1 1l-.5 1.5-.5 1.5-.5 1-.5 1-1.5 1-1.5 1-1.5.5-1.5.5-.5 1-.5 1 2-.5 2-.5 1.5-1 1.5-1h1 1v1 1l-9 7-9 7-11.5 2.5-11.5 2.5-3.5-3-3.5-3-10.5 5-10.5 5-6 9.5-6 9.5-9.5 4-9.5 4-2.5-9-2.5-9-9.5-4-9.5-4-11.5 4-11.5 4-11.5 4-11.5 4-13.5 3-13.5 3h1 1l1.5-1.5 1.5-1.5 1.5-.5 1.5-.5h1.5 1.5l-.5 1.5-.5 1.5-.5 1-.5 1v1.5 1.5h1 1l1-1 1-1 1.5.5 1.5.5.5 2 .5 2-.5 1.5-.5 1.5.5 1.5.5 1.5h16 16 15.5 15.5 15.5 15.5 4 4l12.5-12.5 12.5-12.5 9.5 2 9.5 2 14-.5 14-.5 13-1 13-1h15.5 15.5" style="fill:#80776b;stroke:#80776b" />
        <path d="m959 324h1v-1.5-1.5-2-2-1.5-1.5h-1.5-1.5-2-2l-1.5.5-1.5.5-.5 2-.5 2v2 2l1.5 1 1.5 1h2 2l1.5-.5 1.5-.5" style="fill:#938e82;stroke:#938e82" />
        <path d="m959 305h1v-17-17-9-9h-.5-.5l-.5 1-.5 1-1-1-1-1-1.5-.5-1.5-.5-2-.5-2-.5-1.5-.5-1.5-.5-21.5-1-21.5-1h-1.5-1.5l-1.5-.5-1.5-.5-.5-.5-.5-.5-.5-1-.5-1v-2-2l-2-.5-2-.5-1.5-.5-1.5-.5-.5-1-.5-1-.5-1.5-.5-1.5-1.5-.5-1.5-.5h-1-1l-.5-.5-.5-.5h-1-1l-1.5-.5-1.5-.5-2-.5-2-.5-1-1-1-1-1-1.5-1-1.5v-2-2l.5-2 .5-2h1 1l1.5-1 1.5-1 1.5-.5 1.5-.5h1.5 1.5l12.5 2 12.5 2 13.5 2 13.5 2 9.5 1.5 9.5 1.5-1-1.5-1-1.5 1-1.5 1-1.5h2 2l1.5 1 1.5 1 .5-1.5.5-1.5h.5.5l.5 1.5.5 1.5v-2.5-2.5-2-2-2.5-2.5-2-2-1-1h-.5-.5l-8.5-.5-8.5-.5-14-.5-14-.5-9.5 6-9.5 6-11-4-11-4 8.5-6 8.5-6 10-5.5 10-5.5 6-3.5 6-3.5-13 2.5-13 2.5-11.5 4-11.5 4-11 4.5-11 4.5-13 2.5-13 2.5-13 1.5-13 1.5-13.5 1-13.5 1-20 3.5-20 3.5h-.5-.5-3-3l-1.5.5-1.5.5-1 .5-1 .5h1 1l20-3.5 20-3.5-5 4.5-5 4.5-2.5 6-2.5 6 11 .5 11 .5 5-6 5-6 8-3.5 8-3.5 12 2.5 12 2.5 1 6.5 1 6.5-4.5 7-4.5 7 13.5-1 13.5-1 10.5 5 10.5 5-13 1.5-13 1.5-13 .5-13 .5-14.5 1-14.5 1 .5-5 .5-5 10-5.5 10-5.5-10-2.5-10-2.5-10 6-10 6-5 3.5-5 3.5-15 .5-15 .5-.5 2.5-.5 2.5-.5 1.5-.5 1.5 1 .5 1 .5 1.5-.5 1.5-.5-.5 1.5-.5 1.5-.5 1-.5 1-.5.5-.5.5.5 1 .5 1 1.5.5 1.5.5 1.5.5 1.5.5h1.5 1.5 1 1l.5.5.5.5-.5 1.5-.5 1.5-1 .5-1 .5-.5.5-.5.5-.5-.5-.5-.5h-2-2l-1 .5-1 .5-.5.5-.5.5v1.5 1.5l.5 1.5.5 1.5.5.5.5.5.5.5.5.5.5.5.5.5.5 1 .5 1-.5.5-.5.5v1 1 1 1 1.5 1.5 1 1l.5.5.5.5.5.5.5.5v1.5 1.5 1 1 1 1l-.5 1.5-.5 1.5-.5 1-.5 1-.5 1.5-.5 1.5 1 1 1 1v2 2l12.5-4 12.5-4 11-4.5 11-4.5 9-2.5 9-2.5 11.5-3 11.5-3 13 .5 13 .5-8.5 4-8.5 4-11.5 2-11.5 2-7.5 8-7.5 8 11.5 4 11.5 4 13-1 13-1 4-3.5 4-3.5-13-2.5-13-2.5 5-3.5 5-3.5 8 3.5 8 3.5 13 1.5 13 1.5 10.5-2 10.5-2-3.5-7-3.5-7v-1-1l-11 1.5-11 1.5-12-6.5-12-6.5h-1.5-1.5-2.5-2.5-2-2-2-2v-1-1l.5-1 .5-1 1.5-.5 1.5-.5 2-.5 2-.5 1-1 1-1 1-1.5 1-1.5 12-5.5 12-5.5 12.5-1 12.5-1 17 8.5 17 8.5-1.5 1-1.5 1-1.5 1-1.5 1-.5 1.5-.5 1.5-.5 1-.5 1-1.5-1.5-1.5-1.5-1 .5-1 .5-1.5 1-1.5 1 .5 1 .5 1-.5 1.5-.5 1.5-.5-1-.5-1-1-.5-1-.5v1 1l8.5 3.5 8.5 3.5-9 7-9 7 10 .5 10 .5 9-3.5 9-3.5 13-1 13-1" style="fill:#60574b;stroke:#60574b" />
        <path d="m959 253h1v-1.5-1.5-2-2-.5-.5h-.5-.5v-1.5-1.5-1-1-1-1l-.5-.5-.5-.5v1.5 1.5 1 1l-.5.5-.5.5v1 1l-1 .5-1 .5-.5.5-.5.5-.5.5-.5.5-1.5.5-1.5.5-2 .5-2 .5 1.5.5 1.5.5 2 .5 2 .5 1.5.5 1.5.5 1 1 1 1 .5-1 .5-1" style="fill:#80776b;stroke:#80776b" />
        <path d="m959 245h1v-1.5-1.5-2-2-2.5-2.5-2-2-2.5-2.5-.5-.5h-.5-.5l-1.5.5-1.5.5-1 .5-1 .5-.5 1.5-.5 1.5.5 1 .5 1 .5 1.5.5 1.5v1 1 1.5 1.5 2 2l-1 1-1 1-1.5 1-1.5 1h-2-2l2 1.5 2 1.5 1.5-.5 1.5-.5.5-.5.5-.5.5-.5.5-.5 1-.5 1-.5v-1-1l.5-.5.5-.5v-1-1-1.5-1.5l.5.5.5.5v1 1 1 1 1.5 1.5" style="fill:#60574b;stroke:#60574b" />
        <path d="m959 223h1v-1.5-1.5l-.5-1.5-.5-1.5h-.5-.5l-.5 1.5-.5 1.5-1.5-1-1.5-1h-2-2l-1 1.5-1 1.5 1 1.5 1 1.5 2 .5 2 .5 1-.5 1-.5 1.5-.5 1.5-.5" style="fill:#80776b;stroke:#80776b" />
        <path d="m959 200h1v-1.5-1.5-2-2-2.5-2.5-2-2-2.5-2.5-2-2-2.5-2.5h-.5-.5l-8-1-8-1-11-.5-11-.5-12 3.5-12 3.5-11.5 4-11.5 4-12.5 3-12.5 3-13 3-13 3-12.5 1-12.5 1-12.5 2-12.5 2-20 4-20 4-2.5.5-2.5.5 1 .5 1 .5 1 .5 1 .5 20-3.5 20-3.5 13.5-1 13.5-1 13-1.5 13-1.5 13-2.5 13-2.5 11-4.5 11-4.5 11.5-4 11.5-4 13-2.5 13-2.5-6 3.5-6 3.5-10 5.5-10 5.5-8.5 6-8.5 6 11 4 11 4 9.5-6 9.5-6 14 .5 14 .5 8.5.5 8.5.5" style="fill:#3c3327;stroke:#3c3327" />
        <path d="m959 170h1v-17-17-15.5-15.5-11.5-11.5h-.5-.5l-4.5.5-4.5.5-11.5 4-11.5 4-5.5-9-5.5-9 1-13.5 1-13.5 2-23 2-23h-2-2-2.5-2.5-2-2l1 1 1 1-5.5 9.5-5.5 9.5-5-10.5-5-10.5h-1.5-1.5l-.5 1-.5 1-.5 1-.5 1-5.5 10.5-5.5 10.5-12 1.5-12 1.5-2-6-2-6-1.5-.5-1.5-.5-.5-.5-.5-.5-.5-.5-.5-.5-.5-1-.5-1 .5-.5.5-.5v-1-1l.5-.5.5-.5v-1.5-1.5-1-1h-1-1-1-1l-.5-.5-.5-.5h1.5 1.5l1-.5 1-.5h-3-3-2-2-2.5-2.5-1.5-1.5l-.5 1.5-.5 1.5.5.5.5.5v1 1l.5.5.5.5.5 1 .5 1v2 2 1 1l.5 1 .5 1v2 2l-.5.5-.5.5.5 1 .5 1 1 1 1 1 .5.5.5.5-8.5 8-8.5 8-17-1.5-17-1.5-.5 1-.5 1-1 .5-1 .5-1.5.5-1.5.5-1-1.5-1-1.5-.5-.5-.5-.5 1-1.5 1-1.5 2 1 2 1-4.5-19.5-4.5-19.5h-16.5-16.5-15.5-15.5-15.5-15.5-15.5-15.5-15.5-15.5-15.5-15.5-15.5-15.5-15.5-15.5-13-13l-.5.5-.5.5-.5 1-.5 1 .5 1 .5 1v1 1l-.5 1-.5 1v2 2 1 1 1.5 1.5l-.5 1.5-.5 1.5.5 2 .5 2v2 2 2 2 1 1 1.5 1.5 2 2l10.5-4.5 10.5-4.5 14-.5 14-.5 11-2.5 11-2.5 12 .5 12 .5 12.5 2 12.5 2 12.5 3 12.5 3 10.5 5 10.5 5 10 5.5 10 5.5 8 7.5 8 7.5 7.5 8 7.5 8 3.5 12 3.5 12 4.5 11 4.5 11v15.5 15.5l5.5 10.5 5.5 10.5 10 1.5 10 1.5-1 1-1 1-.5.5-.5.5-.5 1-.5 1-.5.5-.5.5h-1-1-1-1l-1 .5-1 .5-.5-.5-.5-.5-.5.5-.5.5v1 1l-.5 1-.5 1-1 1-1 1h-1-1v1 1l-1 1-1 1 20-4 20-4 12.5-2 12.5-2 12.5-1 12.5-1 13-3 13-3 12.5-3 12.5-3 11.5-4 11.5-4 12-3.5 12-3.5 11 .5 11 .5 8 1 8 1" style="fill:#27170b;stroke:#27170b" />
        <path d="m959 82h1v-17-17-13-13h-.5-.5l-.5 7.5-.5 7.5-3.5-18.5-3.5-18.5h-2.5-2.5-2-2-2.5-2.5-2-2-2.5-2.5-2-2-1-1l-2 23-2 23-1 13.5-1 13.5 5.5 9 5.5 9 11.5-4 11.5-4 4.5-.5 4.5-.5" style="fill:#3c3327;stroke:#3c3327" />
        <path d="m959 22h1v-1.5-1.5-2-2-2.5-2.5-2-2-2.5-2.5-.5-.5h-1.5-1.5-2.5-2.5-.5-.5l3.5 18.5 3.5 18.5.5-7.5.5-7.5" style="fill:#60574b;stroke:#60574b" />
        <path d="m958 146l1-34-.5 13-.5 13v4 4" style="fill:#3c3327;stroke:#3c3327" />
        <path d="m957 344l-14-17-9.5 4-9.5 4 4.5 6 4.5 6 12-1.5 12-1.5" style="fill:#60574b;stroke:#60574b" />
        <path d="m956 405l-28-1-14 1.5-14 1.5-9 3.5-9 3.5 12.5-1 12.5-1 14-1.5 14-1.5 10.5-2 10.5-2" style="fill:#d8d4c6;stroke:#d8d4c6" />
        <path d="m955 235v-2l-.5-1.5-.5-1.5-.5-1-.5-1 .5-1.5.5-1.5-2-.5-2-.5-9.5-1.5-9.5-1.5-13.5-2-13.5-2-12.5-2-12.5-2 1 2.5 1 2.5 1 .5 1 .5-.5 1-.5 1v1 1l.5.5.5.5-.5 1.5-.5 1.5-.5.5-.5.5-.5.5-.5.5-1 .5-1 .5h-1.5-1.5l1.5.5 1.5.5h1 1l.5.5.5.5h1 1l1.5.5 1.5.5 1.5.5 1.5.5 1.5 1 1.5 1 1 1 1 1h2 2l-.5-2.5-.5-2.5.5-1.5.5-1.5 12-3 12-3 14 9.5 14 9.5-1 .5-1 .5h-.5-.5-2.5-2.5-2-2l-2.5 1-2.5 1-.5.5-.5.5-1 1-1 1h-2.5-2.5-2-2l-2.5-1-2.5-1-2-.5-2-.5h-.5-.5-3-3-.5-.5l-.5 1-.5 1 21.5 1 21.5 1 2-.5 2-.5-2-1.5-2-1.5h2 2l1.5-1 1.5-1 1-1 1-1v-2-2-1.5-1.5" style="fill:#793327;stroke:#793327" />
        <path d="m950 418l-24-4-9 5-9 5h2.5 2.5 2 2 2 2l1.5-1 1.5-1 .5-.5.5-.5h1 1l.5-.5.5-.5 1-.5 1-.5h1 1 1 1 1 1 1.5 1.5 1 1 1 1 1 1l1-.5 1-.5h1.5 1.5" style="fill:#80776b;stroke:#80776b" />
        <path d="m950 369l1-3-.5-1.5-.5-1.5h-2.5-2.5l-1.5.5-1.5.5-.5 2-.5 2-.5 1.5-.5 1.5 1.5 1 1.5 1 1.5.5 1.5.5 1-1 1-1 1-1.5 1-1.5" style="fill:#60574b;stroke:#60574b" />
        <path d="m950 274l1-3-1-1-1-1-1.5 1-1.5 1h-2-2v1.5 1.5l1 1 1 1 1.5 1 1.5 1 1-1 1-1 .5-1 .5-1" style="fill:#80776b;stroke:#80776b" />
        <path d="m950 243l-28-19-12 3-12 3 2 .5 2 .5.5 1.5.5 1.5 1 1.5 1 1.5 1 1 1 1 1.5 1 1.5 1 .5 1.5.5 1.5.5 1 .5 1 2 .5 2 .5 2.5-.5 2.5-.5 1.5-.5 1.5-.5 2-.5 2-.5 1.5.5 1.5.5 1 .5 1 .5 2.5-1 2.5-1h2 2 2.5 2.5.5.5l1-.5 1-.5" style="fill:#7b2000;stroke:#7b2000" />
        <path d="m938 25l-14-15 .5 12 .5 12 6.5-4.5 6.5-4.5" style="fill:#60574b;stroke:#60574b" />
        <path d="m934 257l1-3-1.5-.5-1.5-.5-2 .5-2 .5-1.5.5-1.5.5v1.5 1.5h1 1 2.5 2.5l1-.5 1-.5" style="fill:#938e82;stroke:#938e82" />
        <path d="m932 247l1-1-1-.5-1-.5-1.5-.5-1.5-.5-2 .5-2 .5-1.5.5-1.5.5-2.5.5-2.5.5 2.5 1 2.5 1h2 2 2.5 2.5l1-1 1-1" style="fill:#561804;stroke:#561804" />
        <path d="m928 325v-2l-1.5-.5-1.5-.5-1.5 1-1.5 1-1 1-1 1 1.5 1 1.5 1 1.5-.5 1.5-.5 1-1 1-1" style="fill:#938e82;stroke:#938e82" />
        <path d="m923 289l1-3-.5-1.5-.5-1.5-1-1.5-1-1.5h-1-1v1.5 1.5 2 2l1.5 1 1.5 1h.5.5" style="fill:#3c3327;stroke:#3c3327" />
        <path d="m915 279l-34-17-12.5 1-12.5 1-12 5.5-12 5.5 1.5 1 1.5 1 1.5-1 1.5-1 1-1 1-1 1-.5 1-.5 2-1 2-1h1.5 1.5 2 2l2 .5 2 .5 1 .5 1 .5h2.5 2.5l2-.5 2-.5 19.5 4 19.5 4-1.5 1.5-1.5 1.5v1.5 1.5l1.5 1.5 1.5 1.5.5-1 .5-1 .5-1.5.5-1.5 1.5-1 1.5-1 1.5-1 1.5-1" style="fill:#793327;stroke:#793327" />
        <path d="m911 246h1l-.5-1-.5-1-.5-1.5-.5-1.5-1.5-1-1.5-1-1-1-1-1-1-1.5-1-1.5-.5-1.5-.5-1.5-2-.5-2-.5-.5 1.5-.5 1.5.5 2.5.5 2.5.5 1 .5 1 .5.5.5.5.5.5.5.5v.5.5l.5.5.5.5.5.5.5.5 1 .5 1 .5h3 3" style="fill:#561804;stroke:#561804" />
        <path d="m911 2l-2-2h-3.5-3.5-2-2-2.5-2.5-1.5-1.5l5 10.5 5 10.5 5.5-9.5 5.5-9.5" style="fill:#3c3327;stroke:#3c3327" />
        <path d="m908 365v-2h-1-1l-1.5 1-1.5 1-2 .5-2 .5-1 1-1 1h-1-1l-.5.5-.5.5h-1.5-1.5l-.5.5-.5.5h-1-1-1-1-1-1l-.5.5-.5.5h-1.5-1.5l-.5.5-.5.5h-1-1l-.5-.5-.5-.5-1-.5-1-.5-.5-.5-.5-.5-.5-.5-.5-.5-.5-.5-.5-.5-1 .5-1 .5h-1-1l-1.5.5-1.5.5-.5.5-.5.5-14.5-1.5-14.5-1.5-6-6.5-6-6.5 15-7 15-7 1 .5 1 .5h1 1 1.5 1.5l1.5-.5 1.5-.5h1 1l1-.5 1-.5h2.5 2.5l-12.5-5-12.5-5-14 1.5-14 1.5-14-.5-14-.5-10.5 5-10.5 5-13 2.5-13 2.5-8.5-1-8.5-1 .5 1 .5 1 1 1 1 1 1 1.5 1 1.5.5 1.5.5 1.5 1 1.5 1 1.5.5 1.5.5 1.5v2.5 2.5l.5 1.5.5 1.5v2 2h.5.5v-2-2-1.5-1.5-2-2l.5-.5.5-.5 1-.5 1-.5 1.5.5 1.5.5.5.5.5.5 1 .5 1 .5 1 1 1 1v1 1h-.5-.5l-.5.5-.5.5h-.5-.5v1 1l1 1 1 1h3 3 .5.5 1.5 1.5 1.5 1.5l1.5-.5 1.5-.5 1 1 1 1v1.5 1.5l-.5 1.5-.5 1.5-1 1-1 1-1.5 1-1.5 1-1.5.5-1.5.5-2 .5-2 .5-1.5.5-1.5.5h-.5-.5l-1 1-1 1h-1-1l-.5-.5-.5-.5-.5-.5-.5-.5-.5-1-.5-1v-1-1-1-1-1-1-1-1l-.5-1-.5-1v1.5 1.5 1.5 1.5l-.5-1-.5-1-.5-2.5-.5-2.5h-.5-.5l14 8.5 14 8.5-11.5 4.5-11.5 4.5-10 1.5-10 1.5-11.5 3-11.5 3 1-.5 1-.5 1.5.5 1.5.5h1 1l.5 1 .5 1 1 1 1 1h1 1l13.5-3 13.5-3 11.5-4 11.5-4 11.5-4 11.5-4 9.5 4 9.5 4 2.5 9 2.5 9 9.5-4 9.5-4 6-9.5 6-9.5 10.5-5 10.5-5 3.5 3 3.5 3 11.5-2.5 11.5-2.5 9-7 9-7" style="fill:#938e82;stroke:#938e82" />
        <path d="m907 359l1-3v-1-1-1-1-1-1l-1-1-1-1-.5-1-.5-1h-1-1-1-1l-.5-1-.5-1-.5-.5-.5-.5-1.5-.5-1.5-.5h-1.5-1.5l-.5-.5-.5-.5h-1-1l-.5-.5-.5-.5-2-.5-2-.5.5 1.5.5 1.5 1 .5 1 .5 2.5.5 2.5.5 1.5 1 1.5 1 1.5.5 1.5.5 1 1.5 1 1.5 1 1 1 1 .5 1 .5 1 .5 1 .5 1v1 1l-12 5.5-12 5.5-17.5-2-17.5-2h-.5-.5-.5-.5l1.5.5 1.5.5 1.5.5 1.5.5 1.5 1 1.5 1h2 2 2 2 1.5 1.5l1.5-.5 1.5-.5h1 1l1-.5 1-.5.5.5.5.5.5.5.5.5.5.5.5.5 1 .5 1 .5.5.5.5.5h1 1l.5-.5.5-.5h1.5 1.5l.5-.5.5-.5h1 1 1 1 1 1l.5-.5.5-.5h1.5 1.5l.5-.5.5-.5h1 1l1-1 1-1 .5-1 .5-1 1.5-.5 1.5-.5 1.5-1 1.5-1 .5-1 .5-1" style="fill:#9d5b54;stroke:#9d5b54" />
        <path d="m907 279l-39-8-.5 1-.5 1-.5 1-.5 1h1 1 1 1l.5-.5.5-.5h1 1 1.5 1.5l.5.5.5.5h1 1 1 1 1.5 1.5 1 1 1 1v1 1l-11 5.5-11 5.5-4.5-8.5-4.5-8.5-2-.5-2-.5h-2-2-1.5-1.5l-.5 1-.5 1v1.5 1.5l-.5 1.5-.5 1.5-.5 2.5-.5 2.5 1 .5 1 .5.5 1 .5 1 1.5 1 1.5 1 .5 1 .5 1 1.5-.5 1.5-.5 1 .5 1 .5 1.5.5 1.5.5h1 1l1 .5 1 .5.5 1.5.5 1.5 18-3.5 18-3.5 1.5-1 1.5-1 1-.5 1-.5v-1.5-1.5l1.5-1.5 1.5-1.5" style="fill:#7b2000;stroke:#7b2000" />
        <path d="m905 358v-2l-.5-1-.5-1h-.5-.5l-1 .5-1 .5-.5 1.5-.5 1.5-12 3.5-12 3.5-15.5-1.5-15.5-1.5h-.5-.5-1.5-1.5-2-2l-.5.5-.5.5h-.5-.5l2.5.5 2.5.5h2 2l1 .5 1 .5 17.5 2 17.5 2 12-5.5 12-5.5" style="fill:#793327;stroke:#793327" />
        <path d="m904 246h1l-1-.5-1-.5-.5-.5-.5-.5-.5-.5-.5-.5v-.5-.5l-.5-.5-.5-.5-.5-.5-.5-.5-.5-1-.5-1h-2-2l-1-1-1-1-1.5-1-1.5-1-1.5-.5-1.5-.5.5 1.5.5 1.5.5 1 .5 1 1.5.5 1.5.5 2 .5 2 .5v2 2l.5 1 .5 1 .5.5.5.5 1.5.5 1.5.5h1.5 1.5l.5-1 .5-1" style="fill:#3c3327;stroke:#3c3327" />
        <path d="m904 178l-21 8 10-2.5 10-2.5.5-1.5.5-1.5" style="fill:#80776b;stroke:#80776b" />
        <path d="m903 354h1l-.5-1-.5-1-1-1-1-1-1-1.5-1-1.5-1.5-.5-1.5-.5-1.5-1-1.5-1-2.5-.5-2.5-.5h-.5-.5l-.5.5-.5.5 1 .5 1 .5 1.5 1 1.5 1 1.5.5 1.5.5 1.5 1 1.5 1 1 2 1 2 1 .5 1 .5 1-.5 1-.5" style="fill:#9a3628;stroke:#9a3628" />
        <path d="m900 358l1-3-1-.5-1-.5-.5.5-.5.5-13 3.5-13 3.5-13-2.5-13-2.5 5-6 5-6h-1-1-.5-.5l-1-.5-1-.5h-1-1-1.5-1.5l-1.5.5-1.5.5-.5.5-.5.5-1 .5-1 .5-1 1-1 1-.5.5-.5.5-1 1-1 1v1.5 1.5l1 1 1 1 1.5 1 1.5 1 1.5.5 1.5.5 1 1 1 1 15.5 1.5 15.5 1.5 12-3.5 12-3.5" style="fill:#7b2000;stroke:#7b2000" />
        <path d="m899 293l1-3-.5-1-.5-1-18 3.5-18 3.5h-.5-.5-1.5-1.5-2-2l-1.5-1-1.5-1-1-1.5-1-1.5-.5-1-.5-1-1.5-1-1.5-1-.5-1-.5-1-1-.5-1-.5h-2.5-2.5l-.5.5-.5.5-.5 1-.5 1 12 6.5 12 6.5 11-1.5 11-1.5 1-.5 1-.5 1-1 1-1 1.5-1 1.5-1 1.5-.5 1.5-.5h2 2l1 .5 1 .5.5 1 .5 1" style="fill:#793327;stroke:#793327" />
        <path d="m898 355l1-1-1-2-1-2-1.5-1-1.5-1-1.5-.5-1.5-.5-1.5-1-1.5-1-1-.5-1-.5-.5 1-.5 1h-1.5-1.5-1-1v-1-1h-1-1-1-1-1.5-1.5-2-2l-2.5-.5-2.5-.5h-2-2l-2 1-2 1-5 6-5 6 13 2.5 13 2.5 13-3.5 13-3.5" style="fill:#9a2d00;stroke:#9a2d00" />
        <path d="m895 292h1v-1-1h-2-2l-1.5.5-1.5.5-1.5 1-1.5 1-1 1-1 1-1 .5-1 .5v1 1h1 1l1-1 1-1 1-1 1-1 1.5-1 1.5-1h2 2" style="fill:#9d5b54;stroke:#9d5b54" />
        <path d="m888 277v-2h-1-1-1-1-1.5-1.5-1-1-1-1l-.5-.5-.5-.5h-1.5-1.5-1-1l-.5.5-.5.5h-1-1-1-1l.5-1 .5-1 .5-1 .5-1-2 .5-2 .5h-2.5-2.5l-1-.5-1-.5 4.5 8.5 4.5 8.5 11-5.5 11-5.5" style="fill:#9a2d00;stroke:#9a2d00" />
        <path d="m887 343h1l-1-.5-1-.5-.5-1.5-.5-1.5h-1-1-2-2l-.5.5-.5.5-1.5.5-1.5.5h-2-2l-.5.5-.5.5-.5 1-.5 1h2 2 1.5 1.5 1 1 1 1v1 1h1 1 1.5 1.5l.5-1 .5-1 .5-.5.5-.5" style="fill:#793327;stroke:#793327" />
        <path d="m886 2l1-2h-2.5-2.5-2.5-2.5-2-2-2.5-2.5-2-2-1.5-1.5l9 1.5 9 1.5 3.5-.5 3.5-.5" style="fill:#3c3327;stroke:#3c3327" />
        <g style="fill:#561804;stroke:#561804">
            <path d="m885 4l1-2-3.5.5-3.5.5-9-1.5-9-1.5h-1.5-1.5-2-2-1.5-1.5l1 .5 1 .5.5.5.5.5h-1.5-1.5v2 2l1 1.5 1 1.5-1 1-1 1-1 1.5-1 1.5-1.5 1-1.5 1 2 6 2 6 12-1.5 12-1.5 5.5-10.5 5.5-10.5" />
            <path d="m882 227l1-3-.5-.5-.5-.5v-1-1l.5-1 .5-1-1-.5-1-.5h-1.5-1.5l-1.5 1-1.5 1-1 1-1 1v1.5 1.5l1.5.5 1.5.5 1 1 1 1h1.5 1.5l.5-.5.5-.5" />
        </g>
        <path d="m880 229l1-1h-1.5-1.5l-1-1-1-1-1.5-.5-1.5-.5v-1.5-1.5l1-1 1-1 1.5-1 1.5-1h1.5 1.5l-1-2.5-1-2.5h-1.5-1.5l-1.5.5-1.5.5-1.5 1-1.5 1h-1-1l-.5 2-.5 2v2 2l1 1.5 1 1.5 1 1 1 1 2 .5 2 .5h1.5 1.5l1-.5 1-.5" style="fill:#3c3327;stroke:#3c3327" />
        <path d="m878 340l1-1-2.5-.5-2.5-.5-1.5.5-1.5.5h-2.5-2.5l-1 .5-1 .5h-1-1l-1.5.5-1.5.5h-1.5-1.5-1-1l-1-.5-1-.5h-1-1l1.5 1 1.5 1 1 .5 1 .5 1-.5 1-.5h2 2 1 1l1-.5 1-.5h3 3 2 2l1.5-.5 1.5-.5" style="fill:#9d5b54;stroke:#9d5b54" />
        <path d="m870 342l1-1h-3-3l-1 .5-1 .5h-1-1-2-2l-1 .5-1 .5-1-.5-1-.5.5 1.5.5 1.5h1 1l2-1 2-1h2 2l2.5.5 2.5.5.5-1 .5-1" style="fill:#9a3628;stroke:#9a3628" />
        <path d="m863 370l1-1h-1.5-1.5-2-2-2-2l-1.5-1-1.5-1-1.5-.5-1.5-.5-1.5-.5-1.5-.5-3.5-10-3.5-10 .5-1 .5-1 1.5-.5 1.5-.5 1.5-1 1.5-1 1.5-.5 1.5-.5 1.5.5 1.5.5h1 1l-15 7-15 7 6 6.5 6 6.5 14.5 1.5 14.5 1.5" style="fill:#80776b;stroke:#80776b" />
        <path d="m862 295h1l-.5-1.5-.5-1.5-1-.5-1-.5h-1-1l-1.5-.5-1.5-.5-1-.5-1-.5-1.5.5-1.5.5 1 1.5 1 1.5 1.5 1 1.5 1h2 2 1.5 1.5" style="fill:#561804;stroke:#561804" />
        <g style="fill:#3c3327;stroke:#3c3327">
            <path d="m862 40l1-3v-2-2l-2-.5-2-.5-1 1-1 1 .5 2 .5 2 1 1 1 1h1 1" />
            <path d="m854 2l-1-1-1-.5-1-.5h-3-3-1.5-1.5l-1 .5-1 .5h-1.5-1.5l.5.5.5.5h1 1 1 1v1 1 1.5 1.5l-.5.5-.5.5v1 1l-.5.5-.5.5.5 1 .5 1 .5.5.5.5.5.5.5.5 1.5.5 1.5.5 1.5-1 1.5-1 1-1.5 1-1.5 1-1 1-1-1-1.5-1-1.5v-2-2h1.5 1.5" />
        </g>
        <path d="m853 345h1l-.5-1.5-.5-1.5-1.5-1-1.5-1-1.5-.5-1.5-.5-1.5.5-1.5.5-1.5 1-1.5 1-1.5.5-1.5.5-.5 1-.5 1-1 1-1 1-1 1-1 1-2 1.5-2 1.5 1.5.5 1.5.5 1.5-.5 1.5-.5 1-1 1-1 .5-.5.5-.5 1-1 1-1 1-.5 1-.5.5-.5.5-.5 1.5-.5 1.5-.5h1.5 1.5 1 1l1 .5 1 .5" style="fill:#793327;stroke:#793327" />
        <path d="m845 365h1l-1-.5-1-.5h-2-2l-2.5-.5-2.5-.5h-1.5-1.5l-1.5-1-1.5-1-1-1-1-1-.5-1.5-.5-1.5 1.5-2 1.5-2 2-1.5 2-1.5 1-1 1-1 1-1 1-1 3.5 10 3.5 10h.5.5" style="fill:#60574b;stroke:#60574b" />
        <g style="fill:#561804;stroke:#561804">
            <path d="m845 272l1-2-2 1-2 1-1 .5-1 .5-1 1-1 1-1.5 1-1.5 1v1.5 1.5l-.5.5-.5.5 1 .5 1 .5 1 .5 1 .5h2.5 2.5l.5-2.5.5-2.5.5-1.5.5-1.5v-1.5-1.5" />
            <path d="m844 362h1l-1-1-1-1-1.5-.5-1.5-.5-1.5-1-1.5-1-1-1-1-1v-1.5-1.5l-1.5.5-1.5.5-1 .5-1 .5v1.5 1.5l.5 1.5.5 1.5h1 1l.5.5.5.5 1.5.5 1.5.5h2 2 1.5 1.5" />
        </g>
        <g style="fill:#3c3327;stroke:#3c3327">
            <path d="m837 284l1-1-1-.5-1-.5-1-.5-1-.5.5-.5.5-.5v-1.5-1.5l-1.5-1-1.5-1-1 1.5-1 1.5-1 1-1 1-2 .5-2 .5-1.5.5-1.5.5-.5 1-.5 1v1 1h2 2 2 2 2.5 2.5 1.5 1.5l.5-1 .5-1" />
            <path d="m836 363l1-1-1.5-.5-1.5-.5-.5-.5-.5-.5h-1-1l-.5-1.5-.5-1.5v-1.5-1.5l1-.5 1-.5-1.5-.5-1.5-.5-1.5 2-1.5 2 .5 1.5.5 1.5 1 1 1 1 1.5 1 1.5 1h1.5 1.5.5.5" />
        </g>
        <path d="m830 27l-1-1-1-1-1-1-.5-1-.5-1 .5-.5.5-.5v-2-2l-.5-1-.5-1v-1-1-2-2l-.5-1-.5-1-.5-.5-.5-.5v-1-1l-.5-.5-.5-.5.5-1.5.5-1.5h-16-16-12.5-12.5l4.5 19.5 4.5 19.5 1.5.5 1.5.5 17 1.5 17 1.5 8.5-8 8.5-8" style="fill:#561804;stroke:#561804" />
        <path d="m828 294v-2l-1.5-.5-1.5-.5-2 .5-2 .5h-2-2l-1 1.5-1 1.5 1.5.5 1.5.5h2.5 2.5l1.5-.5 1.5-.5 1-.5 1-.5" style="fill:#938e82;stroke:#938e82" />
        <g style="fill:#80776b;stroke:#80776b">
            <path d="m826 343l-27-4-11 4.5-11 4.5 8.5 5 8.5 5 10-3.5 10-3.5 6-4 6-4" />
            <path d="m809 266l-29-4h-15.5-15.5l3 5.5 3 5.5 13.5-2 13.5-2 13.5-1.5 13.5-1.5" />
        </g>
        <g style="fill:#938e82;stroke:#938e82">
            <path d="m809 249l-27-2 9 2.5 9 2.5 4.5-1.5 4.5-1.5" />
            <path d="m779 319l-22 3 8 2.5 8 2.5 3-4 3-4" />
        </g>
        <path d="m778 42l1-2-1.5-.5-1.5-.5-2-1-2-1-1 1.5-1 1.5.5.5.5.5 1 1.5 1 1.5 1.5-.5 1.5-.5 1-.5 1-.5" style="fill:#3c3327;stroke:#3c3327" />
        <path d="m775 383v-2l.5-1.5.5-1.5-.5-2-.5-2-1.5.5-1.5.5-1 1.5-1 1.5v2 2l1 1.5 1 1.5 1.5-.5 1.5-.5v-.5-.5" style="fill:#b8b3a4;stroke:#b8b3a4" />
        <path d="m773 368l-8 11 3.5-5 3.5-5 .5-.5.5-.5" style="fill:#80776b;stroke:#80776b" />
        <path d="m765 389l-28-17h-.5-.5v3 3l.5 2 .5 2v2 2l.5 2 .5 2v2 2 1 1l-8 1-8 1h-13-13-1-1l-1.5 1.5-1.5 1.5-.5 2-.5 2 .5 1.5.5 1.5 2.5.5 2.5.5 1.5-1 1.5-1 11.5-3 11.5-3 10-1.5 10-1.5 11.5-4.5 11.5-4.5" style="fill:#b8b3a4;stroke:#b8b3a4" />
        <path d="m765 375v-3l-1-1-1-1-1.5.5-1.5.5 1 1.5 1 1.5-.5 1.5-.5 1.5-1.5 1-1.5 1-.5.5-.5.5h-1-1-1-1l-.5.5-.5.5-1 .5-1 .5-.5.5-.5.5v.5.5.5.5l1.5-.5 1.5-.5 2-.5 2-.5 1.5-.5 1.5-.5 1.5-1 1.5-1 1-1 1-1 .5-1.5.5-1.5" style="fill:#793327;stroke:#793327" />
        <path d="m764 258v-2l-1.5-.5-1.5-.5-2-.5-2-.5-1.5.5-1.5.5-1 .5-1 .5 1.5.5 1.5.5 1.5 1 1.5 1h2 2l1-.5 1-.5" style="fill:#3c3327;stroke:#3c3327" />
        <path d="m761 377l1-3-1-1.5-1-1.5h-1.5-1.5-1.5-1.5l.5 1 .5 1 .5 1.5.5 1.5v1 1l-2 .5-2 .5-1-1-1-1v-1-1l.5-.5.5-.5 1-1.5 1-1.5h-3-3l-.5 2-.5 2 .5 2 .5 2 1.5 1.5 1.5 1.5 1-.5 1-.5.5-.5.5-.5h1 1 1 1l.5-.5.5-.5 1.5-1 1.5-1" style="fill:#7b2000;stroke:#7b2000" />
        <path d="m760 365l1-3-1.5-.5-1.5-.5-2-.5-2-.5h-2-2l-1 .5-1 .5 1 1 1 1 1.5 1 1.5 1h2 2 1.5 1.5" style="fill:#b8b3a4;stroke:#b8b3a4" />
        <path d="m756 378v-2l-.5-1.5-.5-1.5-.5-1-.5-1h-.5-.5l-1 1.5-1 1.5-.5.5-.5.5v1 1l1 1 1 1 2-.5 2-.5" style="fill:#9a2d00;stroke:#9a2d00" />
        <g style="fill:#561804;stroke:#561804">
            <path d="m753 191l-20-3-5.5-10.5-5.5-10.5v-15.5-15.5l-4.5-11-4.5-11-3.5-12-3.5-12-7.5-8-7.5-8-8-7.5-8-7.5-10-5.5-10-5.5-10.5-5-10.5-5-12.5-3-12.5-3-12.5-2-12.5-2-12-.5-12-.5-11 2.5-11 2.5-14 .5-14 .5-10.5 4.5-10.5 4.5-1.5.5-1.5.5-1.5.5-1.5.5-1.5 1-1.5 1h-2-2l-2 .5-2 .5-1.5.5-1.5.5-1.5.5-1.5.5.5 1 .5 1h2 2l.5-.5.5-.5h1.5 1.5 2 2 1 1l1-.5 1-.5h2 2l13-3.5 13-3.5 13-2.5 13-2.5 15-.5 15-.5 14.5 1 14.5 1 12.5 3 12.5 3 11.5 4 11.5 4 11 4.5 11 4.5 8 7.5 8 7.5 7 9 7 9 4.5 11 4.5 11 4.5 11 4.5 11-.5 13-.5 13 2 22.5 2 22.5h1.5 1.5 1 1 2 2l2.5-.5 2.5-.5 1-1 1-1v-1-1h1 1l1-1 1-1 .5-1 .5-1v-1-1l.5-.5.5-.5.5.5.5.5 1-.5 1-.5h1 1 1 1l.5-.5.5-.5.5-1 .5-1 .5-.5.5-.5 1-1 1-1" />
            <path d="m749 383l1-1-1.5-1.5-1.5-1.5-.5-2-.5-2 .5-2 .5-2-1-1-1-1-1 1-1 1-.5 2-.5 2v2 2l.5 1.5.5 1.5.5.5.5.5 1 .5 1 .5h1.5 1.5v-.5-.5" />
        </g>
        <path d="m748 385h1v-.5-.5h-1.5-1.5l-1-.5-1-.5-.5-.5-.5-.5-.5-1.5-.5-1.5v-2-2l.5-2 .5-2 1-1 1-1v-1-1l-1-1-1-1-.5-.5-.5-.5-.5.5-.5.5-.5.5-.5.5-.5 1-.5 1v1 1l.5 1.5.5 1.5.5 1 .5 1v1 1 1 1 1 1 1 1l.5 1 .5 1 .5.5.5.5.5.5.5.5h1 1l1-1 1-1" style="fill:#3c3327;stroke:#3c3327" />
        <path d="m748 366v-2l-1-1-1-1-1-.5-1-.5-.5-.5-.5-.5-1.5-.5-1.5-.5-1 .5-1 .5-.5.5-.5.5v2 2 1.5 1.5 2 2h.5.5v-1.5-1.5-1-1-1.5-1.5l.5-.5.5-.5.5-.5.5-.5h1 1l1 .5 1 .5.5.5.5.5 1 1 1 1h.5.5" style="fill:#80776b;stroke:#80776b" />
        <path d="m746 367l1-1-1-1-1-1-.5-.5-.5-.5-1-.5-1-.5h-1-1l-.5.5-.5.5-.5.5-.5.5v1.5 1.5 1 1 1.5 1.5l.5 2.5.5 2.5.5 1 .5 1v-1.5-1.5-1.5-1.5l-.5-1.5-.5-1.5v-1-1l.5-1 .5-1 .5-.5.5-.5.5-.5.5-.5.5.5.5.5 1 1 1 1h.5.5" style="fill:#60574b;stroke:#60574b" />
        <path d="m738 396v-2-2-2l-.5-2-.5-2v-2-2l-.5-2-.5-2v-3-3h-.5-.5l-4-12-4-12-8-7.5-8-7.5-12.5 1-12.5 1-2 12.5-2 12.5 4.5 13 4.5 13 .5-1 .5-1 .5-1 .5-1 .5-1.5.5-1.5v-2.5-2.5-2.5-2.5-2-2-2-2l1-1.5 1-1.5 1.5-.5 1.5-.5 2 .5 2 .5 1 .5 1 .5-4.5 19.5-4.5 19.5h13 13l8-1 8-1" style="fill:#d8d4c6;stroke:#d8d4c6" />
        <path d="m736 348l-14-19 2 5.5 2 5.5 5 4 5 4" style="fill:#60574b;stroke:#60574b" />
        <path d="m735 372h1v-2-2l-.5-1.5-.5-1.5v-2.5-2.5l-.5-1.5-.5-1.5-1-1.5-1-1.5-.5-1.5-.5-1.5-1-1.5-1-1.5-1-1-1-1-.5-1-.5-1-1-2-1-2-.5-1.5-.5-1.5-1.5-1-1.5-1h-.5-.5l-13-2.5-13-2.5-6.5 9-6.5 9 5.5 19 5.5 19-4.5-13-4.5-13 2-12.5 2-12.5 12.5-1 12.5-1 8 7.5 8 7.5 4 12 4 12" style="fill:#b8b3a4;stroke:#b8b3a4" />
        <path d="m732 271l1-3-.5-.5-.5-.5h-1-1-1.5-1.5l-1.5-.5-1.5-.5-1 .5-1 .5-1.5.5-1.5.5-.5 1.5-.5 1.5 3 .5 3 .5h2 2l.5.5.5.5.5-.5.5-.5 1-.5 1-.5" style="fill:#80776b;stroke:#80776b" />
        <path d="m731 211h1l-1-.5-1-.5-1-.5-1-.5h-2-2-1-1-1.5-1.5l-.5.5-.5.5-2-.5-2-.5-.5 1-.5 1-.5 1-.5 1 1.5 1 1.5 1 2.5-1 2.5-1 1-.5 1-.5 1.5-.5 1.5-.5h3 3" style="fill:#793327;stroke:#793327" />
        <path d="m727 424h1l-.5-1.5-.5-1.5.5-1.5.5-1.5-.5-2-.5-2-1.5-.5-1.5-.5-1 1-1 1v2 2 1 1 1.5 1.5h2 2 .5.5" style="fill:#938e82;stroke:#938e82" />
        <path d="m726 307l1-3v-1-1-1-1-1.5-1.5l-.5-.5-.5-.5-.5-.5-.5-.5v-1-1-1.5-1.5-1-1-1-1l.5-.5.5-.5-.5-1-.5-1-.5-.5-.5-.5-.5-.5-.5-.5-.5-.5-.5-.5-.5-1.5-.5-1.5v-1.5-1.5l.5-.5.5-.5 1-.5 1-.5-3-.5-3-.5.5-1.5.5-1.5 1.5-.5 1.5-.5 1-.5 1-.5-1.5-.5-1.5-.5-.5-1-.5-1-1-.5-1-.5-1-1-1-1-.5.5-.5.5-1 .5-1 .5v-2-2l.5-.5.5-.5h2 2l.5-1.5.5-1.5.5-2.5.5-2.5-3.5 12.5-3.5 12.5 1 11.5 1 11.5 5.5 10.5 5.5 10.5v-2-2l-1-1-1-1 .5-1.5.5-1.5.5-1 .5-1" style="fill:#9d5b54;stroke:#9d5b54" />
        <path d="m722 260l1-3-1.5.5-1.5.5-1-.5-1-.5h-2-2l-.5.5-.5.5v2 2l1-.5 1-.5.5-.5.5-.5 1 1 1 1 1 .5 1 .5.5-.5.5-.5.5-1 .5-1" style="fill:#793327;stroke:#793327" />
        <path d="m721 424h1v-1.5-1.5-1-1-2-2h-1-1-.5-.5l-.5 1.5-.5 1.5-.5 1-.5 1 .5 2 .5 2h1.5 1.5" style="fill:#b26e6a;stroke:#b26e6a" />
        <path d="m721 410l1-3h-1.5-1.5l-1.5.5-1.5.5-1.5 1.5-1.5 1.5v1.5 1.5h1 1l.5-.5.5-.5 2-.5 2-.5.5-1 .5-1" style="fill:#60574b;stroke:#60574b" />
        <g style="fill:#9d5b54;stroke:#9d5b54">
            <path d="m721 216l1-3h-1-1l-2.5 1-2.5 1-1.5-1-1.5-1-.5-1.5-.5-1.5-.5-1.5-.5-1.5.5-2 .5-2-1.5-1-1.5-1-.5 1-.5 1-.5 1-.5 1-.5.5-.5.5v1 1l.5.5.5.5v1.5 1.5l.5.5.5.5.5.5.5.5v1 1l1 .5 1 .5v1 1h1 1v1 1l1 .5 1 .5.5-.5.5-.5h1 1l.5-.5.5-.5h1 1l.5-.5.5-.5v-1.5-1.5" />
            <path d="m719 415h1v-1.5-1.5l-2 .5-2 .5-.5.5-.5.5h-1-1v-1.5-1.5h-1-1-1-1-.5-.5l-.5 1-.5 1 .5 1 .5 1h1.5 1.5l.5 1 .5 1 2.5 1.5 2.5 1.5.5-1 .5-1 .5-1.5.5-1.5" />
        </g>
        <path d="m719 335h1l-15-3-15-3 4.5-6 4.5-6 1.5-13 1.5-13-4 2.5-4 2.5-4.5-.5-4.5-.5-3 26.5-3 26.5v2.5 2.5 2 2l.5 2 .5 2v2 2 2.5 2.5 2 2 2.5 2.5 2 2l-.5 1.5-.5 1.5v-3-3l-.5-1-.5-1v3 3 1.5 1.5l.5 1.5.5 1.5.5.5.5.5 1 .5 1 .5h2 2v1 1 1 1l.5 1 .5 1h1 1l1 .5 1 .5 1.5-.5 1.5-.5h1 1l4.5-19.5 4.5-19.5h-.5-.5l-1.5-.5-1.5-.5-1.5.5-1.5.5-.5.5-.5.5-1 .5-1 .5v2 2 2.5 2.5l.5 1.5.5 1.5-.5 2-.5 2-.5 1-.5 1-.5 1.5-.5 1.5-.5 1-.5 1-.5 1-.5 1-5.5-19-5.5-19 6.5-9 6.5-9 13 2.5 13 2.5" style="fill:#938e82;stroke:#938e82" />
        <path d="m718 210l1-1-2-22.5-2-22.5.5-13 .5-13-4.5-11-4.5-11-4.5-11-4.5-11-7-9-7-9-8-7.5-8-7.5-11-4.5-11-4.5-11.5-4-11.5-4-12.5-3-12.5-3-14.5-1-14.5-1-15 .5-15 .5-13 2.5-13 2.5-13 3.5-13 3.5.5 1 .5 1h2.5 2.5l13-4.5 13-4.5 14-1.5 14-1.5 14 .5 14 .5 14.5 1 14.5 1 12.5 3 12.5 3 11 4.5 11 4.5 9.5 6 9.5 6 12 14.5 12 14.5 5.5 12 5.5 12 3 19 3 19-.5.5-.5.5v2 2 2 2 2.5 2.5 2 2 2.5 2.5 2 2 2 2l.5 1 .5 1 2 1 2 1v2 2 1 1l-.5 2.5-.5 2.5v1.5 1.5l2 .5 2 .5" style="fill:#7b2000;stroke:#7b2000" />
        <path d="m717 424h1l-.5-2-.5-2-2.5-1.5-2.5-1.5-.5 1-.5 1v.5.5l.5 2 .5 2h2.5 2.5" style="fill:#b84e46;stroke:#b84e46" />
        <path d="m715 201v-2-2-2l-2-1-2-1v1.5 1.5l.5.5.5.5-.5 1.5-.5 1.5-.5-1-.5-1-1.5-1.5-1.5-1.5v2 2l.5 1 .5 1 1.5 1 1.5 1-.5 2-.5 2 .5 1.5.5 1.5.5 1.5.5 1.5.5-1 .5-1 .5-1 .5-1v-1.5-1.5l.5-2.5.5-2.5" style="fill:#9a3628;stroke:#9a3628" />
        <path d="m711 424h1l-.5-2-.5-2-1-1-1-1-1-.5-1-.5h-2-2l-.5-.5-.5-.5-1 .5-1 .5.5 1.5.5 1.5.5.5.5.5v1.5 1.5h2 2 2 2 .5.5" style="fill:#c73926;stroke:#c73926" />
        <path d="m711 419l1-2-.5-1-.5-1h-1.5-1.5l-.5-1-.5-1h-1.5-1.5-2.5-2.5l-1.5-1-1.5-1-.5.5-.5.5-1.5 1-1.5 1 1 1 1 1 1.5.5 1.5.5h1.5 1.5l1-.5 1-.5.5.5.5.5h2 2l1 .5 1 .5 1 1 1 1v-.5-.5" style="fill:#9a3628;stroke:#9a3628" />
        <path d="m711 200l1-3-.5-.5-.5-.5v-1.5-1.5l-.5-1-.5-1-1-1.5-1-1.5v-1.5-1.5l-3-13.5-3-13.5-3-10.5-3-10.5-3-10.5-3-10.5-3.5-12-3.5-12-10-5.5-10-5.5-9-6.5-9-6.5-9.5-2-9.5-2-11-.5-11-.5-8.5 7-8.5 7-9-5.5-9-5.5-11.5-.5-11.5-.5h-11.5-11.5l-21.5-1-21.5-1-1 1-1 1v.5.5l1 1 1 1 22 3.5 22 3.5 11 3.5 11 3.5 11.5 4 11.5 4 3.5 10 3.5 10 10 2.5 10 2.5 4.5-9 4.5-9 8-.5 8-.5 9 4 9 4 10.5 4 10.5 4 9-2.5 9-2.5.5 14 .5 14-.5 12-.5 12 9.5 6 9.5 6 5 12 5 12 1.5 1.5 1.5 1.5.5 1 .5 1" style="fill:#9d5b54;stroke:#9d5b54" />
        <path d="m711 160l-6-38-5.5-12-5.5-12 4.5 11.5 4.5 11.5 4 19.5 4 19.5" style="fill:#9a2d00;stroke:#9a2d00" />
        <path d="m710 161l1-1-4-19.5-4-19.5-4.5-11.5-4.5-11.5-12-14.5-12-14.5-9.5-6-9.5-6-11-4.5-11-4.5-12.5-3-12.5-3-14.5-1-14.5-1-14-.5-14-.5-14 1.5-14 1.5-13 4.5-13 4.5-.5.5-.5.5-14 2-14 2-10 4.5-10 4.5h17 17l1-1 1-1 7-4.5 7-4.5 4.5-1 4.5-1 9.5-5 9.5-5h20.5 20.5 2 2 1.5 1.5 1 1 1 1 1 1 1.5 1.5l2.5.5 2.5.5 15 1.5 15 1.5 11.5 4 11.5 4 11 5 11 5 8.5 7 8.5 7 6.5 9 6.5 9 5.5 10 5.5 10 4 23.5 4 23.5v1.5 1.5 2 2 2 2 2.5 2.5 3 3 1.5 1.5l1 1.5 1 1.5v-2-2-2-2-2.5-2.5-2-2-2.5-2.5-2-2-2-2" style="fill:#9a3628;stroke:#9a3628" />
        <path d="m708 411h1l-1-1-1-1-.5-1-.5-1h-1-1l-1.5-.5-1.5-.5-1 .5-1 .5-1.5 1-1.5 1v.5.5.5.5l1.5 1 1.5 1h2.5 2.5 1.5 1.5l.5-1 .5-1" style="fill:#793327;stroke:#793327" />
        <path d="m708 163l-8-47-5.5-10-5.5-10-6.5-9-6.5-9-8.5-7-8.5-7-11-5-11-5-11.5-4-11.5-4-15-1.5-15-1.5-.5.5-.5.5-7.5 4-7.5 4-2.5-5-2.5-5h-20.5-20.5l-9.5 5-9.5 5-4.5 1-4.5 1-7 4.5-7 4.5 21.5 1 21.5 1h11.5 11.5l11.5.5 11.5.5 9 5.5 9 5.5 8.5-7 8.5-7 11 .5 11 .5 9.5 2 9.5 2 9 6.5 9 6.5 10 5.5 10 5.5 3.5 12 3.5 12 3 10.5 3 10.5 3 10.5 3 10.5 3 13.5 3 13.5v-3-3-2.5-2.5-2-2-2-2-1.5-1.5" style="fill:#b84e46;stroke:#b84e46" />
        <path d="m707 374l1-3-.5-1.5-.5-1.5-1-1.5-1-1.5v1.5 1.5 2 2 2 2l-.5 2-.5 2-1 2-1 2 1-.5 1-.5 1-1 1-1 .5-2 .5-2v-1.5-1.5" style="fill:#793327;stroke:#793327" />
        <path d="m705 372v-4h-.5-.5l-.5-1.5-.5-1.5-.5-.5-.5-.5-1 .5-1 .5v2 2 1 1 1 1l-.5 1-.5 1-.5 1.5-.5 1.5v2 2l-.5 1.5-.5 1.5-1 1.5-1 1.5-1 1-1 1v1.5 1.5l1.5.5 1.5.5 1-1.5 1-1.5.5-1.5.5-1.5 1-1.5 1-1.5.5-.5.5-.5 1-2 1-2 .5-2 .5-2v-2-2" style="fill:#561804;stroke:#561804" />
        <path d="m705 255l-1-23-3-9.5-3-9.5-1 10.5-1 10.5-8 .5-8 .5v14.5 14.5l1 2 1 2 .5-1 .5-1-.5-1.5-.5-1.5h.5.5l.5.5.5.5 1.5-.5 1.5-.5.5-1.5.5-1.5 1-1.5 1-1.5 1.5.5 1.5.5h1.5 1.5l1-1 1-1 1 .5 1 .5h1 1l1.5-1 1.5-1" style="fill:#938e82;stroke:#938e82" />
        <path d="m704 368h1v-1.5-1.5l-.5-1.5-.5-1.5h-2.5-2.5l-.5 1.5-.5 1.5.5 2 .5 2v2 2 1 1l.5-1 .5-1v-1-1-1-1-2-2l1-.5 1-.5.5.5.5.5.5 1.5.5 1.5" style="fill:#3c3327;stroke:#3c3327" />
        <path d="m704 359h1l-1-.5-1-.5-2-.5-2-.5-1.5.5-1.5.5-1 1.5-1 1.5v2 2 2 2 2.5 2.5 2.5 2.5l.5-1 .5-1 .5-2 .5-2-.5-1.5-.5-1.5v-2.5-2.5-2-2l1-.5 1-.5.5-.5.5-.5 1.5-.5 1.5-.5 1.5.5 1.5.5" style="fill:#b8b3a4;stroke:#b8b3a4" />
        <path d="m701 424h1v-1.5-1.5l-.5-.5-.5-.5-.5-1.5-.5-1.5h-1.5-1.5l-1.5-.5-1.5-.5-1-1-1-1-2-.5-2-.5-1-1.5-1-1.5-.5-1-.5-1-.5-2-.5-2v-1.5-1.5h-.5-.5l-6.5-.5-6.5-.5-4.5-11-4.5-11-6-6.5-6-6.5-8.5-6-8.5-6-5.5-7-5.5-7-4.5 11-4.5 11-2 12.5-2 12.5 2.5 19 2.5 19h2 2 2.5 2.5.5.5l1.5-14.5 1.5-14.5 1-12.5 1-12.5 6 6.5 6 6.5 10 20.5 10 20.5h3 3 2 2 2.5 2.5 2 2 2.5 2.5 2 2 2.5 2.5 2 2 2 2" style="fill:#c83500;stroke:#c83500" />
        <path d="m696 410v-1l-2.5-.5-2.5-.5-.5-1.5-.5-1.5.5-2 .5-2 1.5-1.5 1.5-1.5-1.5.5-1.5.5h-.5-.5l-.5 1-.5 1v1.5 1.5l-.5 1.5-.5 1.5 1 1.5 1 1.5 1.5.5 1.5.5h1.5 1.5v-.5-.5" style="fill:#b26e6a;stroke:#b26e6a" />
        <path d="m695 412l1-1h-1.5-1.5l-1.5-.5-1.5-.5-1-1.5-1-1.5.5-1.5.5-1.5v-1.5-1.5l-.5 1-.5 1-.5.5-.5.5v1 1l-1 1-1 1 .5 1 .5 1 1 1.5 1 1.5 2 .5 2 .5 1.5-1 1.5-1" style="fill:#c73926;stroke:#c73926" />
        <path d="m692 276v-2l-1.5-.5-1.5-.5-1 1.5-1 1.5v2 2l1 1.5 1 1.5 1-1 1-1 .5-2 .5-2v-.5-.5" style="fill:#938e82;stroke:#938e82" />
        <path d="m690 399h1l-1-.5-1-.5h-1-1l-.5-1-.5-1v-1-1-1-1h-2-2l.5 1.5.5 1.5.5 1.5.5 1.5v1.5 1.5 1.5 1.5l.5 2 .5 2 1-1 1-1v-1-1l.5-.5.5-.5.5-1 .5-1 .5-1 .5-1" style="fill:#9a3628;stroke:#9a3628" />
        <path d="m687 192l-15 5-8.5 7.5-8.5 7.5-10.5 4-10.5 4-5 9.5-5 9.5 1 11.5 1 11.5-5-6.5-5-6.5.5-13 .5-13-4.5 10-4.5 10-1 12.5-1 12.5 6.5 9 6.5 9 3.5-9 3.5-9 4.5-11 4.5-11 7 7.5 7 7.5v9.5 9.5l-.5 1.5-.5 1.5v1 1l-.5.5-.5.5v1 1 1.5 1.5 1 1 1 1 1 1 1.5 1.5 2 2l.5-.5.5-.5 1-.5 1-.5 1 1 1 1v-1.5-1.5l1-1 1-1v-1-1l.5-1 .5-1 1-1 1-1 .5-2 .5-2 .5-2.5.5-2.5 3-12 3-12 2-13.5 2-13.5 7-8.5 7-8.5 2-12 2-12" style="fill:#938e82;stroke:#938e82" />
        <path d="m685 293l1-3v-2-2-2.5-2.5-2-2h-.5-.5l-.5.5-.5.5v-2.5-2.5l-.5-1.5-.5-1.5-.5-1-.5-1-1-2-1-2-1.5-.5-1.5-.5-.5 1-.5 1v2 2l2 21.5 2 21.5v2.5 2.5 2.5 2.5 1 1l-.5 2-.5 2-.5 1.5-.5 1.5-.5 2.5-.5 2.5.5 1.5.5 1.5v1 1 1.5 1.5l.5 2 .5 2 3-26.5 3-26.5v-1-1" style="fill:#b26e6a;stroke:#b26e6a" />
        <path d="m683 401h1v-1.5-1.5l-.5-1.5-.5-1.5-.5-1.5-.5-1.5-1-.5-1-.5-.5-.5-.5-.5-.5-1.5-.5-1.5h-.5-.5l-.5-1.5-.5-1.5-.5-2-.5-2v-2-2-2-2l-.5-2-.5-2-.5-1.5-.5-1.5-.5-2-.5-2v-2-2-2.5-2.5l.5-1.5.5-1.5v-1.5-1.5-1-1l.5-1.5.5-1.5.5-13 .5-13-1.5-19.5-1.5-19.5h-.5-.5v2 2l-.5.5-.5.5-.5.5-.5.5-.5 1-.5 1v2.5 2.5l-.5 2-.5 2-.5.5-.5.5-1 2-1 2-1 1-1 1-1 .5-1 .5v2.5 2.5l-.5 2-.5 2v2 2l.5 2 .5 2v2 2l-.5 1.5-.5 1.5-3 12-3 12-6.5-1-6.5-1-3-8.5-3-8.5-10.5-1-10.5-1-12-1.5-12-1.5-12-3.5-12-3.5-13-3-13-3-10.5-5-10.5-5-9.5-6-9.5-6-6.5-9-6.5-9-5.5 10-5.5 10-10.5-4-10.5-4-10-4.5-10-4.5-6-9.5-6-9.5v-9.5-9.5l11 3.5 11 3.5 11-2.5 11-2.5 8-12 8-12-1 .5-1 .5-7 5-7 5-8.5 5-8.5 5-9-6.5-9-6.5-11.5 4-11.5 4-.5 11-.5 11 4 11.5 4 11.5 5 10.5 5 10.5 10.5 5.5 10.5 5.5 11 4.5 11 4.5 9.5 6 9.5 6 11 1.5 11 1.5 6-8.5 6-8.5 11.5 1 11.5 1 12.5 3 12.5 3 9.5 6 9.5 6 .5 21 .5 21-8.5 8-8.5 8-13.5 15.5-13.5 15.5h3.5 3.5 2 2 2.5 2.5 2 2 2 2 2.5 2.5 2 2 2.5 2.5 1 1l1-11.5 1-11.5 11 5.5 11 5.5v1.5 1.5 1 1 1 1l-.5.5-.5.5-.5 2-.5 2h2 2 1 1l-2.5-19-2.5-19 2-12.5 2-12.5 4.5-11 4.5-11 5.5 7 5.5 7 8.5 6 8.5 6 6 6.5 6 6.5 4.5 11 4.5 11 6.5.5 6.5.5" style="fill:#c73926;stroke:#c73926" />
        <path d="m680 312l-4-43-2-.5-2-.5v1.5 1.5 1 1 1.5 1.5l1.5 19.5 1.5 19.5-.5 13-.5 13 1 .5 1 .5v-2-2l.5-1 .5-1 .5-2.5.5-2.5.5-1.5.5-1.5.5-2 .5-2v-1-1-2.5-2.5-2.5-2.5" style="fill:#b84e46;stroke:#b84e46" />
        <path d="m679 386l1-3v-2-2-2.5-2.5-2-2-2.5-2.5-2-2l-.5-2-.5-2v-2-2-2.5-2.5l-.5-2-.5-2v-1.5-1.5-1-1l-.5-1.5-.5-1.5-.5 1-.5 1v2 2 2 2l.5 2 .5 2 .5 1.5.5 1.5v2 2 2.5 2.5 2 2 2.5 2.5 2 2 1.5 1.5l.5 1 .5 1v3 3" style="fill:#9d5b54;stroke:#9d5b54" />
        <path d="m677 387h1v-1.5-1.5-3-3-1.5-1.5-2-2-2.5-2.5-2-2-2.5-2.5-2-2l-.5-1.5-.5-1.5-.5-2-.5-2v-2-2l-1-.5-1-.5-.5 1.5-.5 1.5v1 1 1.5 1.5l1 1.5 1 1.5v2.5 2.5 2 2l-.5 1.5-.5 1.5-.5.5-.5.5.5 1.5.5 1.5.5 2 .5 2v2 2 2 2l.5 2 .5 2 .5 1.5.5 1.5" style="fill:#9a3628;stroke:#9a3628" />
        <path d="m676 265l1-2-.5-1-.5-1v-1-1l-.5-2-.5-2h-.5-.5v1.5 1.5 1.5 1.5l-.5.5-.5.5-.5 1.5-.5 1.5v1.5 1.5l2 .5 2 .5v-2-2" style="fill:#9d5b54;stroke:#9d5b54" />
        <path d="m674 364l1-3v-2-2-2.5-2.5l-1-1.5-1-1.5-.5 1.5-.5 1.5v2.5 2.5 2 2l.5 2 .5 2 .5-.5.5-.5" style="fill:#9a2d00;stroke:#9a2d00" />
        <path d="m674 255h1l-4 5-4 5 1 1 1 1 1.5-1 1.5-1 .5-1.5.5-1.5.5-.5.5-.5v-1.5-1.5-1.5-1.5" style="fill:#60574b;stroke:#60574b" />
        <path d="m671 276h1v-1.5-1.5-1-1-1.5-1.5-1.5-1.5l-1.5 1-1.5 1-.5.5-.5.5-.5 1-.5 1-.5 1.5-.5 1.5-1 1.5-1 1.5-.5 1.5-.5 1.5-.5 1.5-.5 1.5-.5 2-.5 2-.5 1.5-.5 1.5-.5 2-.5 2-.5 2-.5 2 1 2 1 2 1-.5 1-.5 1-1 1-1 1-2 1-2-1.5-.5-1.5-.5v-1.5-1.5-1-1-1-1l.5-.5.5-.5 1 .5 1 .5.5.5.5.5.5 1 .5 1v-2.5-2.5l.5-1 .5-1 .5-.5.5-.5.5-.5.5-.5v-2-2" style="fill:#9a3628;stroke:#9a3628" />
        <path d="m668 268l1-1-1-1-1-1-1 1.5-1 1.5-.5.5-.5.5-.5 1.5-.5 1.5-.5 1-.5 1v1 1l-.5 1.5-.5 1.5-.5 1-.5 1-.5 1.5-.5 1.5-.5 2.5-.5 2.5-.5 2-.5 2-1 1-1 1-.5 1-.5 1v1 1l-1 1-1 1v1.5 1.5l-.5.5-.5.5-2.5-13-2.5-13-5.5 4-5.5 4-4 11.5-4 11.5-12 3.5-12 3.5h-.5-.5l-2 .5-2 .5h-2-2l-2.5.5-2.5.5 14 1.5 14 1.5 10.5-3 10.5-3 6.5 5 6.5 5 3.5-14.5 3.5-14.5.5-2 .5-2 .5-2 .5-2 .5-1.5.5-1.5.5-2 .5-2 .5-1.5.5-1.5.5-1.5.5-1.5 1-1.5 1-1.5.5-1.5.5-1.5.5-1 .5-1" style="fill:#9d5b54;stroke:#9d5b54" />
        <path d="m667 293l1-4-.5-1-.5-1-.5-.5-.5-.5-1-.5-1-.5-.5.5-.5.5v1 1 1 1 1.5 1.5l1.5.5 1.5.5.5-.5.5-.5" style="fill:#9a2d00;stroke:#9a2d00" />
        <path d="m663 190l-23-2 7-6.5 7-6.5-7 1.5-7 1.5-5.5 6-5.5 6-2 3.5-2 3.5-3.5 8-3.5 8 11-3 11-3 8.5-7 8.5-7 3-1.5 3-1.5" style="fill:#938e82;stroke:#938e82" />
        <path d="m659 424h1l-10-20.5-10-20.5-6-6.5-6-6.5-1 12.5-1 12.5-1.5 14.5-1.5 14.5h3 3 2 2 2.5 2.5 2 2 2.5 2.5 2 2 2 2 2 2" style="fill:#9a2d00;stroke:#9a2d00" />
        <path d="m659 325l1-3v-2-2l-.5-2-.5-2v-2-2l.5-2 .5-2v-2.5-2.5l-1-2-1-2-3.5 14.5-3.5 14.5-6.5-5-6.5-5-10.5 3-10.5 3-14-1.5-14-1.5-14-2.5-14-2.5-12.5-3-12.5-3-9.5-6.5-9.5-6.5-13-13.5-13-13.5-.5-1-.5-1-.5-1.5-.5-1.5-.5-.5-.5-.5-.5-.5-.5-.5-.5-.5-.5-.5v-1.5-1.5-1-1l-.5-.5-.5-.5-.5-.5-.5-.5-.5-1-.5-1-.5-1.5-.5-1.5.5-.5.5-.5v-1.5-1.5-2-2-1.5-1.5l2-24 2-24v-1.5-1.5-2.5-2.5l-.5 1-.5 1-.5.5-.5.5v1.5 1.5l-.5.5-.5.5v1 1l.5.5.5.5-.5 1-.5 1v1 1 1 1 1 1 1.5 1.5 1 1 1 1l-.5.5-.5.5v1.5 1.5l-.5 2.5-.5 2.5-8 12-8 12-11 2.5-11 2.5-11-3.5-11-3.5v9.5 9.5l6 9.5 6 9.5 10 4.5 10 4.5 10.5 4 10.5 4 5.5-10 5.5-10 6.5 9 6.5 9 9.5 6 9.5 6 10.5 5 10.5 5 13 3 13 3 12 3.5 12 3.5 12 1.5 12 1.5 10.5 1 10.5 1 3 8.5 3 8.5 6.5 1 6.5 1 3-12 3-12" style="fill:#b84e46;stroke:#b84e46" />
        <g style="fill:#b26e6a;stroke:#b26e6a">
            <path d="m651 305l1-1-1-1-1-1-1 .5-1 .5-.5.5-.5.5v-2-2-1.5-1.5-1-1-1-1-1-1-1.5-1.5-1-1l.5-.5.5-.5v-1-1l.5-1.5.5-1.5-1.5-.5-1.5-.5 2.5 13 2.5 13" />
            <path d="m650 91l1-3-.5-1.5-.5-1.5-1.5-1-1.5-1-1 1-1 1 .5 2 .5 2-.5 1.5-.5 1.5 1 1.5 1 1.5 1-1 1-1 .5-1 .5-1" />
        </g>
        <g style="fill:#938e82;stroke:#938e82">
            <path d="m641 162l-19 6-8.5 7-8.5 7 2 6.5 2 6.5 6-8.5 6-8.5 8.5-7 8.5-7 1.5-1 1.5-1" />
            <path d="m625 147l-25 4-8.5 3.5-8.5 3.5-5-8.5-5-8.5 4.5-5 4.5-5-5.5-4-5.5-4-9.5-3-9.5-3-4-5.5-4-5.5 10.5-3 10.5-3-12-3.5-12-3.5-11.5-3-11.5-3-9-6.5-9-6.5-14-2-14-2-1 .5-1 .5 11.5 4.5 11.5 4.5 3 12.5 3 12.5 3.5 14 3.5 14-4.5 12.5-4.5 12.5-6.5-8-6.5-8-3.5-10-3.5-10-1.5 24-1.5 24h1.5 1.5l2-13 2-13 6 15.5 6 15.5-2 14-2 14-1 13.5-1 13.5 7 21 7 21 6.5-13.5 6.5-13.5-5-7.5-5-7.5-1.5-10-1.5-10 5-4.5 5-4.5v11.5 11.5l3 6.5 3 6.5 1.5-9 1.5-9 4-7.5 4-7.5 5.5 10 5.5 10 4.5 10 4.5 10v6 6l7.5 8 7.5 8 7 6.5 7 6.5-.5-8-.5-8-3.5-9-3.5-9 1-6.5 1-6.5-5.5-9-5.5-9 1-12.5 1-12.5 8.5-3 8.5-3 7-4.5 7-4.5 8-7.5 8-7.5 8-9 8-9" />
        </g>
        <path d="m624 120v-2-2-2l-1.5-1-1.5-1-1 1-1 1-.5 2-.5 2v2 2 1.5 1.5l1 1 1 1 1-1 1-1 1-.5 1-.5v-2-2" style="fill:#9d5b54;stroke:#9d5b54" />
        <path d="m609 412l-22-11-1 11.5-1 11.5h3 3 2.5 2.5 2 2 2.5 2.5 1 1l.5-2 .5-2 .5-.5.5-.5v-1-1-1-1-1.5-1.5" style="fill:#b84e46;stroke:#b84e46" />
        <path d="m602 317h1l-14.5-2.5-14.5-2.5-11-3.5-11-3.5-10-2.5-10-2.5-7.5-7-7.5-7-8-7-8-7-7-21-7-21 1-13.5 1-13.5 2-14 2-14h-.5-.5-.5-.5v2 2l-.5.5-.5.5-.5.5-.5.5v1 1l-.5 1-.5 1v1 1l-.5 1-.5 1-2 24-2 24 .5 2 .5 2v2 2l.5 2 .5 2 .5 1.5.5 1.5.5 1.5.5 1.5v1 1l.5 1 .5 1 .5 1.5.5 1.5.5.5.5.5.5 1 .5 1v1.5 1.5l13 13.5 13 13.5 9.5 6.5 9.5 6.5 12.5 3 12.5 3 14 2.5 14 2.5 2.5-.5 2.5-.5h2 2l2-.5 2-.5" style="fill:#b26e6a;stroke:#b26e6a" />
        <g style="fill:#938e82;stroke:#938e82">
            <path d="m599 225l-11-18-4 9.5-4 9.5 5.5 10 5.5 10 4-10.5 4-10.5" />
            <path d="m597 280l-4-27-4 5.5-4 5.5 4 9.5 4 9.5 2-1.5 2-1.5" />
        </g>
        <path d="m589 377l-1-42-9.5-6-9.5-6-12.5-3-12.5-3-11.5-1-11.5-1-6 8.5-6 8.5-11-1.5-11-1.5-9.5-6-9.5-6-11-4.5-11-4.5-10.5-5.5-10.5-5.5-5-10.5-5-10.5-4-11.5-4-11.5.5-11 .5-11 11.5-4 11.5-4 9 6.5 9 6.5 8.5-5 8.5-5 7-5 7-5v-.5-.5l-.5-2-.5-2 .5-1.5.5-1.5-.5-2-.5-2-.5-1.5-.5-1.5v-2.5-2.5-2.5-2.5l-8.5 9-8.5 9-11-4.5-11-4.5-16 6-16 6-.5.5-.5.5-.5 1-.5 1-6 10-6 10-11 6.5-11 6.5 2 13.5 2 13.5-8 1.5-8 1.5-5.5 8-5.5 8 14 14 14 14-5.5 12-5.5 12-11.5 4-11.5 4-10.5-5-10.5-5-9.5-6-9.5-6 1.5-12 1.5-12 7.5 6 7.5 6 7.5 8 7.5 8 6.5-4 6.5-4-4.5-11.5-4.5-11.5-7-15-7-15-11.5 1.5-11.5 1.5 3.5-9 3.5-9 4.5-12 4.5-12-1-.5-1-.5-1-1-1-1h-1.5-1.5-.5-.5l-9.5 6.5-9.5 6.5-6.5 9-6.5 9-9.5 6-9.5 6 4.5 10 4.5 10 5 10.5 5 10.5 4 11.5 4 11.5 4.5 11 4.5 11 6.5 9 6.5 9-7.5-1-7.5-1-6-9.5-6-9.5-5.5-10-5.5-10-5.5-10-5.5-10-3-12.5-3-12.5-4.5-10-4.5-10-3.5-10-3.5-10 8-8 8-8v-11.5-11.5l-6-9.5-6-9.5-11 1.5-11 1.5-5 10.5-5 10.5 2.5 13 2.5 13 1.5 13 1.5 13 .5 12 .5 12 2.5 13 2.5 13 3.5 12 3.5 12 4 18 4 18 1 2.5 1 2.5 11.5 18.5 11.5 18.5h16.5 16.5 15.5 15.5 15.5 15.5 15.5 15.5 15.5 15.5l-11-6-11-6-3.5-10-3.5-10-4.5-10-4.5-10 3.5-12 3.5-12 1-13.5 1-13.5-9-7-9-7 8.5-7 8.5-7 7 .5 7 .5-3 10.5-3 10.5 3.5-2 3.5-2h8.5 8.5l7.5 8 7.5 8 13 2.5 13 2.5 8.5 7 8.5 7v13.5 13.5l4 25.5 4 25.5h17 17 11.5 11.5l13.5-15.5 13.5-15.5 8.5-8 8.5-8" style="fill:#c83500;stroke:#c83500" />
        <path d="m583 44l1-1-2.5-.5-2.5-.5h-1.5-1.5-1-1-1-1-1-1-1.5-1.5-2-2l2.5 5 2.5 5 7.5-4 7.5-4" style="fill:#c73926;stroke:#c73926" />
        <path d="m580 206l1-3v-2-2-2.5-2.5l-1.5.5-1.5.5-1 1.5-1 1.5-.5 1.5-.5 1.5 1 1.5 1 1.5 1 1 1 1h.5.5" style="fill:#938e82;stroke:#938e82" />
        <path d="m564 138l1-3-1.5-.5-1.5-.5-2 .5-2 .5-.5 1.5-.5 1.5v2.5 2.5l1 1 1 1 1-.5 1-.5.5-1.5.5-1.5 1-1 1-1v-.5-.5" style="fill:#80776b;stroke:#80776b" />
        <path d="m506 133l-7-28-3-12.5-3-12.5-11.5-4.5-11.5-4.5-2 .5-2 .5-1.5 1-1.5 1 12.5 1.5 12.5 1.5 3.5 12 3.5 12 1.5 16 1.5 16-5.5 7-5.5 7-2.5-13-2.5-13-4.5 7-4.5 7 3 12.5 3 12.5-5-4.5-5-4.5-2.5-12-2.5-12-7-.5-7-.5-8 2-8 2-.5 9-.5 9 7.5 3 7.5 3-11 4.5-11 4.5-1-12.5-1-12.5v-13.5-13.5l2-11.5 2-11.5 17.5-7 17.5-7-1.5.5-1.5.5-1.5.5-1.5.5-2 .5-2 .5h-2-2l-1.5-.5-1.5-.5-1.5-1-1.5-1-1.5-.5-1.5-.5h-2.5-2.5l-5 4.5-5 4.5-3 6.5-3 6.5-1 2.5-1 2.5 3 13 3 13-1 14.5-1 14.5 7 1.5 7 1.5 10-4.5 10-4.5-5-6.5-5-6.5 5 .5 5 .5 7 12.5 7 12.5 1 1.5 1 1.5.5 2 .5 2 1 .5 1 .5 1.5-24 1.5-24 3.5 10 3.5 10 6.5 8 6.5 8 4.5-12.5 4.5-12.5" style="fill:#b8b3a4;stroke:#b8b3a4" />
        <path d="m498 133l-3-32-3.5-12-3.5-12-12.5-1.5-12.5-1.5-17.5 7-17.5 7-2 11.5-2 11.5v13.5 13.5l1 12.5 1 12.5 11-4.5 11-4.5-7.5-3-7.5-3 .5-9 .5-9 8-2 8-2 7 .5 7 .5 2.5 12 2.5 12 5 4.5 5 4.5-3-12.5-3-12.5 4.5-7 4.5-7 2.5 13 2.5 13 5.5-7 5.5-7" style="fill:#d8d4c6;stroke:#d8d4c6" />
        <path d="m492 175h1l-6-15.5-6-15.5-2 13-2 13 1.5-.5 1.5-.5 1-1 1-1 .5-1.5.5-1.5v-1.5-1.5l-.5-1.5-.5-1.5v-2.5-2.5h1 1l1 1.5 1 1.5 1 1 1 1 1 1 1 1v1 1 1.5 1.5 2 2l1 1.5 1 1.5v1.5 1.5" style="fill:#80776b;stroke:#80776b" />
        <path d="m492 52l1-1h-2.5-2.5l-.5-1-.5-1h-2-2l-1 .5-1 .5h-1-1-2-2-1.5-1.5l-.5.5-.5.5h-2-2l-.5-1-.5-1-2 1-2 1-1.5.5-1.5.5-2 .5-2 .5-1.5.5-1.5.5-1.5 1-1.5 1-1.5.5-1.5.5h-2-2-1-1l-1 .5-1 .5-1.5.5-1.5.5.5 1 .5 1v1 1l-.5 1-.5 1-1.5 1-1.5 1-1.5.5-1.5.5h-1-1-1.5-1.5l-1.5.5-1.5.5h-1-1l-1.5 1-1.5 1h1.5 1.5l1 .5 1 .5h1.5 1.5 1.5 1.5l1-.5 1-.5h1 1l1-.5 1-.5h2 2 1 1 1.5 1.5l1 .5 1 .5 1 1 1 1h1 1l.5-.5.5-.5.5-.5.5-.5 1 .5 1 .5 1.5.5 1.5.5.5-.5.5-.5.5-.5.5-.5h1 1l1-.5 1-.5h1 1l.5-.5.5-.5h1 1l1-.5 1-.5h1 1 1 1l.5-.5.5-.5h1.5 1.5l1-.5 1-.5v-.5-.5h-17-17l10-4.5 10-4.5 14-2 14-2" style="fill:#793327;stroke:#793327" />
        <g style="fill:#9d5b54;stroke:#9d5b54">
            <path d="m491 268v-3l-.5-1-.5-1-.5-.5-.5-.5-.5-1.5-.5-1.5-.5-1-.5-1v-1-1l-.5-1.5-.5-1.5-.5-1.5-.5-1.5-.5-2-.5-2v-2-2l-.5-2-.5-2v1.5 1.5 2 2 1.5 1.5l-.5.5-.5.5.5 1.5.5 1.5.5 1 .5 1 .5.5.5.5.5.5.5.5v1 1 1.5 1.5l.5.5.5.5.5.5.5.5.5.5.5.5.5 1.5.5 1.5.5 1 .5 1" />
            <path d="m491 175h1v-1.5-1.5l-1-1.5-1-1.5h-.5-.5l-1 1.5-1 1.5v1 1 1.5 1.5 2 2 2.5 2.5 1.5 1.5l.5-1 .5-1v-1-1l.5-1 .5-1v-1-1l.5-.5.5-.5.5-.5.5-.5v-2-2" />
        </g>
        <path d="m490 1l1-1h-16.5-16.5-15.5-15.5-15.5-15.5-15.5-15.5-15.5-15.5-15.5-15.5-16-16-15.5-15.5-12-12l-.5 15.5-.5 15.5 2 13.5 2 13.5 13.5-2 13.5-2 11-.5 11-.5 15 .5 15 .5 14.5 1 14.5 1 15-1 15-1 11.5 4 11.5 4 17-1 17-1h2 2 2 2 1 1l1-.5 1-.5h2 2 1 1 1.5 1.5l1.5-.5 1.5-.5 1-.5 1-.5h1 1 2 2l1.5-.5 1.5-.5 1.5-1 1.5-1 1.5-.5 1.5-.5 2-.5 2-.5 1.5-.5 1.5-.5 2-1 2-1 1.5-.5 1.5-.5 1.5-.5 1.5-.5 2-.5 2-.5h2 2l1.5-1 1.5-1 1.5-.5 1.5-.5 1.5-.5 1.5-.5v-2-2-1.5-1.5-1-1-2-2-2-2l-.5-2-.5-2 .5-1.5.5-1.5v-1.5-1.5-1-1-2-2l.5-1 .5-1v-1-1l-.5-1-.5-1 .5-1 .5-1" style="fill:#3c3327;stroke:#3c3327" />
        <path d="m489 169h1v-2-2-1.5-1.5-1-1l-1-1-1-1-1-1-1-1-1-1.5-1-1.5h-1-1v2.5 2.5l.5 1.5.5 1.5v1.5 1.5l-.5 1.5-.5 1.5 1.5 1 1.5 1 .5 1 .5 1 .5.5.5.5 1-1.5 1-1.5" style="fill:#60574b;stroke:#60574b" />
        <path d="m487 424h1l-4-25.5-4-25.5v-13.5-13.5l-8.5-7-8.5-7-13-2.5-13-2.5-7.5-8-7.5-8h-8.5-8.5l-3.5 2-3.5 2 3-10.5 3-10.5-7-.5-7-.5-8.5 7-8.5 7 9 7 9 7-1 13.5-1 13.5-3.5 12-3.5 12 4.5 10 4.5 10 3.5 10 3.5 10 11 6 11 6h3 3 2 2 2.5 2.5.5.5l2-15 2-15 1.5-13 1.5-13-6.5 1-6.5 1-6.5-4-6.5-4-3-6.5-3-6.5 8-2.5 8-2.5 10-4.5 10-4.5 12 2.5 12 2.5 2 11.5 2 11.5 1 26 1 26-.5 2-.5 2-1.5 1-1.5 1-.5 1.5-.5 1.5h2.5 2.5 2 2 2.5 2.5.5.5" style="fill:#9a2d00;stroke:#9a2d00" />
        <path d="m487 174v-2l-.5-.5-.5-.5h-.5-.5l-.5 1-.5 1-.5 1.5-.5 1.5-.5 2-.5 2 .5 1 .5 1-.5 1-.5 1-1 2-1 2-.5 1-.5 1 1 1.5 1 1.5v1 1 1.5 1.5 2 2 1 1 1.5 1.5l-.5 2-.5 2v2 2 .5.5l1-.5 1-.5.5-2.5.5-2.5v-1.5-1.5l.5-.5.5-.5v-1-1-1-1-1.5-1.5-1-1-1-1-1-1l.5-1 .5-1-.5-.5-.5-.5v-1-1l.5-.5.5-.5v-1.5-1.5l.5-.5.5-.5.5-1 .5-1v-2-2-1.5-1.5" style="fill:#9a3628;stroke:#9a3628" />
        <path d="m485 171h1l-.5-1-.5-1-1.5-1-1.5-1-1 1-1 1-1.5.5-1.5.5-.5 1-.5 1-1.5 1-1.5 1-1-1.5-1-1.5-.5-1.5-.5-1.5-1-.5-1-.5v1.5 1.5l.5 1 .5 1 1 .5 1 .5 1 1.5 1 1.5h2 2l2-.5 2-.5 1.5-1 1.5-1 .5-1 .5-1" style="fill:#9d5b54;stroke:#9d5b54" />
        <path d="m483 176l1-3-1.5 1-1.5 1-2 .5-2 .5h-2-2l-1-1.5-1-1.5-1-.5-1-.5h-.5-.5l-1 1.5-1 1.5v.5.5l.5 1.5.5 1.5.5 2 .5 2 .5 1.5.5 1.5 2-.5 2-.5 1-1 1-1 1.5-1 1.5-1 1-1 1-1 1 .5 1 .5.5-2 .5-2" style="fill:#b84e46;stroke:#b84e46" />
        <path d="m482 184l1-2-.5-1-.5-1-1-.5-1-.5-1 1-1 1-1.5 1-1.5 1-1 1-1 1-2 .5-2 .5-.5-1.5-.5-1.5-.5-2-.5-2-.5-1.5-.5-1.5v-.5-.5l-1 .5-1 .5-.5.5-.5.5-.5 1-.5 1-.5.5-.5.5-.5.5-.5.5v1 1l-.5 1-.5 1-.5.5-.5.5-.5.5-.5.5-.5.5-.5.5h-1-1l-1 .5-1 .5h-1.5-1.5l.5 1 .5 1v1.5 1.5l-.5.5-.5.5h-1-1l-.5.5-.5.5h-1.5-1.5-1-1-1-1l-.5-.5-.5-.5h-1.5-1.5-1-1-1-1l-.5-.5-.5-.5h-1-1l-1-.5-1-.5-.5-.5-.5-.5h-1-1l-.5-.5-.5-.5-.5-.5-.5-.5h-2.5-2.5l.5 1.5.5 1.5.5 1 .5 1-.5.5-.5.5-.5.5-.5.5-.5.5-.5.5-.5.5-.5.5-.5 1-.5 1h-1-1l-.5.5-.5.5-.5.5-.5.5-.5 1-.5 1-.5.5-.5.5v1 1 2 2l16-6 16-6 11 4.5 11 4.5 8.5-9 8.5-9 .5-.5.5-.5.5-1 .5-1 1-2 1-2" style="fill:#c73926;stroke:#c73926" />
        <path d="m480 211l1-4v-1.5-1.5-1-1-2-2-1.5-1.5-1-1l-1-1.5-1-1.5-.5.5-.5.5v2.5 2.5 2.5 2.5l.5 1.5.5 1.5.5 2 .5 2-.5 1.5-.5 1.5.5 2 .5 2v-2-2" style="fill:#9a2d00;stroke:#9a2d00" />
        <path d="m479 68h1l-1-1-1-1-1 .5-1 .5h-1.5-1.5l-.5.5-.5.5h-1-1-1-1l-1 .5-1 .5h-1-1l-.5.5-.5.5h-1-1l-1 .5-1 .5h-1-1l-.5.5-.5.5-.5.5-.5.5-1.5-.5-1.5-.5-1-.5-1-.5-.5.5-.5.5-.5.5-.5.5h-1-1l-1-1-1-1-.5.5-.5.5-1-.5-1-.5h-2-2l-1.5.5-1.5.5-1 .5-1 .5h1.5 1.5 2.5 2.5l1.5.5 1.5.5 1.5 1 1.5 1 1.5.5 1.5.5h2 2l2-.5 2-.5 1.5-.5 1.5-.5 1.5-.5 1.5-.5 1.5-1 1.5-1 2-.5 2-.5 1-.5 1-.5 2-.5 2-.5 1.5-.5 1.5-.5" style="fill:#60574b;stroke:#60574b" />
        <path d="m477 415l-2-52-2-11.5-2-11.5-12-2.5-12-2.5-10 4.5-10 4.5-8 2.5-8 2.5 3 6.5 3 6.5 6.5 4 6.5 4 6.5-1 6.5-1-1.5 13-1.5 13-2 15-2 15h3 3 1 1l.5-16.5.5-16.5 2-13.5 2-13.5 11-5.5 11-5.5-1.5 15-1.5 15-2 20.5-2 20.5h2 2 2 2l.5-1.5.5-1.5 1.5-1 1.5-1 .5-2 .5-2" style="fill:#7b2000;stroke:#7b2000" />
        <path d="m476 172l1-2h-1.5-1.5l-1-.5-1-.5-.5-2-.5-2-1-1.5-1-1.5h-.5-.5l-.5-1.5-.5-1.5-.5 2-.5 2-1-3-1-3v1 1l.5 2 .5 2v1.5 1.5l.5 2 .5 2h1 1v-1.5-1.5l1 .5 1 .5.5 1.5.5 1.5 1 1.5 1 1.5 1.5-1 1.5-1" style="fill:#793327;stroke:#793327" />
        <path d="m475 256l-17-6-1.5 8-1.5 8 .5.5.5.5 1 .5 1 .5 1 1 1 1 1 1 1 1 2 .5 2 .5 2.5-.5 2.5-.5.5-1 .5-1 .5-1.5.5-1.5v-2.5-2.5l.5-1.5.5-1.5.5-1.5.5-1.5" style="fill:#9d5b54;stroke:#9d5b54" />
        <path d="m471 353l-22 11-2 13.5-2 13.5-.5 16.5-.5 16.5h2 2 2.5 2.5 2 2 2.5 2.5 1 1l2-20.5 2-20.5 1.5-15 1.5-15" style="fill:#561804;stroke:#561804" />
        <path d="m470 273l1-1-2.5.5-2.5.5-2-.5-2-.5-1-1-1-1-1-1-1-1-1-.5-1-.5 1 2.5 1 2.5 1.5.5 1.5.5 1 1 1 1h2.5 2.5l1-1 1-1" style="fill:#b26e6a;stroke:#b26e6a" />
        <path d="m468 172h1l-.5-1-.5-1h-1-1l-.5.5-.5.5-2 1.5-2 1.5-.5 1-.5 1-.5 1.5-.5 1.5-.5 1-.5 1-1 1-1 1v1 1l-.5.5-.5.5h-1-1-1.5-1.5-2-2-2-2l-2-.5-2-.5-1.5-.5-1.5-.5-2-.5-2-.5h-2-2l-2-.5-2-.5h-.5-.5-1.5-1.5l-1.5.5-1.5.5-1 1-1 1-1 1.5-1 1.5-.5 1.5-.5 1.5-1 1.5-1 1.5-1 1-1 1-.5 1.5-.5 1.5-1.5 1-1.5 1v2 2l-.5 2-.5 2-.5 1.5-.5 1.5 2.5.5 2.5.5.5-.5.5-.5v-2-2-1-1l.5-.5.5-.5.5-1 .5-1 .5-.5.5-.5.5-.5.5-.5h1 1l.5-1 .5-1 .5-.5.5-.5.5-.5.5-.5.5-.5.5-.5.5-.5.5-.5-.5-1-.5-1-.5-1.5-.5-1.5 16.5-.5 16.5-.5h1.5 1.5l1-.5 1-.5h1 1l.5-.5.5-.5.5-.5.5-.5.5-.5.5-.5.5-1 .5-1v-1-1l.5-.5.5-.5.5-.5.5-.5.5-1 .5-1 .5-.5.5-.5 1-.5 1-.5 1-1.5 1-1.5" style="fill:#9a3628;stroke:#9a3628" />
        <path d="m468 162h1l-7-12.5-7-12.5-5-.5-5-.5 5 6.5 5 6.5-10 4.5-10 4.5-7-1.5-7-1.5 1-14.5 1-14.5-3-13-3-13 1-2.5 1-2.5 3-6.5 3-6.5 5-4.5 5-4.5h-1.5-1.5l-2.5.5-2.5.5-1.5.5-1.5.5-1 1-1 1-1 1.5-1 1.5-.5 1.5-.5 1.5.5.5.5.5 1 .5 1 .5.5.5.5.5.5.5.5.5v1 1l-.5 1.5-.5 1.5-.5 1-.5 1-1-.5-1-.5-.5-.5-.5-.5-.5-1-.5-1-1-1-1-1-.5-1-.5-1h-2.5-2.5l-.5.5-.5.5-1 .5-1 .5-.5 1.5-.5 1.5.5.5.5.5 1 .5 1 .5 1 1 1 1 1 2 1 2 4 13 4 13 1.5 20.5 1.5 20.5h1.5 1.5 1 1 1 1l1-.5 1-.5 1.5-.5 1.5-.5v-1-1-.5-.5l1-1 1-1h1 1l1 .5 1 .5h2 2 1 1 1 1l.5-.5.5-.5.5.5.5.5-1.5 1-1.5 1h1.5 1.5l1-.5 1-.5 1-1.5 1-1.5v-.5-.5l5-.5 5-.5.5 1.5.5 1.5.5 1.5.5 1.5" style="fill:#938e82;stroke:#938e82" />
        <path d="m466 163l1-4-.5-1.5-.5-1.5h-.5-.5v-1.5-1.5-1.5-1.5l-.5-1.5-.5-1.5-.5-.5-.5-.5-.5-1-.5-1-1.5-.5-1.5-.5-.5.5-.5.5v1 1 1 1 1.5 1.5l-.5 1.5-.5 1.5-.5 1.5-.5 1.5v.5.5l1-.5 1-.5v-1.5-1.5l.5-.5.5-.5v-1-1-1-1l.5-1 .5-1 .5-.5.5-.5.5.5.5.5v1 1l.5 1 .5 1v1 1l.5.5.5.5v1.5 1.5l1 3 1 3" style="fill:#60574b;stroke:#60574b" />
        <path d="m465 171l1-1-.5-2-.5-2h-.5-.5-1.5-1.5-2-2l-1-.5-1-.5-2 1-2 1-1 1-1 1-2 .5-2 .5-1.5.5-1.5.5-1.5.5-1.5.5h-2.5-2.5l-.5 1.5-.5 1.5h-1.5-1.5l-.5.5-.5.5-.5 1-.5 1-.5.5-.5.5h-1-1-1-1l-1 .5-1 .5-1.5.5-1.5.5h1.5 1.5l1 .5 1 .5 2 .5 2 .5h2 2l2 .5 2 .5 1.5.5 1.5.5 2 .5 2 .5h2 2 2 2l1-.5 1-.5 1-1 1-1 .5-.5.5-.5.5-1 .5-1 .5-1.5.5-1.5.5-.5.5-.5 1.5-1 1.5-1 2-1.5 2-1.5" style="fill:#7b2000;stroke:#7b2000" />
        <path d="m465 156h1l-5 .5-5 .5.5-1.5.5-1.5.5-1.5.5-1.5v-1.5-1.5-1-1-1-1l.5-.5.5-.5 1.5.5 1.5.5.5 1 .5 1 .5.5.5.5.5 1.5.5 1.5v1.5 1.5 1.5 1.5" style="fill:#80776b;stroke:#80776b" />
        <path d="m464 166h1v-1.5-1.5l-.5-2-.5-2h-.5-.5l-.5-1-.5-1-2 1-2 1-.5 1-.5 1-.5 1-.5 1-.5 1-.5 1 1 .5 1 .5h2 2 1.5 1.5" style="fill:#561804;stroke:#561804" />
        <path d="m463 159h1v-1-1-1.5-1.5l-.5-.5-.5-.5v-1-1l-.5-1-.5-1v-1-1l-.5-.5-.5-.5-.5.5-.5.5-.5 1-.5 1v1 1 1 1l-.5.5-.5.5v1.5 1.5 1 1l2-1 2-1 .5 1 .5 1" style="fill:#3c3327;stroke:#3c3327" />
        <path d="m460 176l1-2-1.5 1-1.5 1-.5.5-.5.5-.5 1.5-.5 1.5-.5 1-.5 1-.5.5-.5.5-1 1-1 1-1 .5-1 .5h1.5 1.5 1 1l.5-.5.5-.5v-1-1l1-1 1-1 .5-1 .5-1 .5-1.5.5-1.5" style="fill:#9a2d00;stroke:#9a2d00" />
        <path d="m457 161l1-2v-1-1l-1 .5-1 .5-1 1.5-1 1.5-1 .5-1 .5-.5.5-.5.5-1 1-1 1-1.5.5-1.5.5h-1-1l-1 .5-1 .5-1-.5-1-.5-1 .5-1 .5h-3-3l-.5.5-.5.5h-3-3l.5 1 .5 1h3 3l1 1 1 1h2.5 2.5l1.5-.5 1.5-.5 1.5-.5 1.5-.5 2-.5 2-.5 1-1 1-1 2-1 2-1 .5-1 .5-1 .5-1 .5-1" style="fill:#793327;stroke:#793327" />
        <path d="m452 160l-1-1-.5.5-.5.5h-1-1-1-1-2-2l-1-.5-1-.5h-1-1l-1 1-1 1v.5.5 1 1l-1.5.5-1.5.5-1 .5-1 .5h-1-1-1-1-1.5-1.5l1 .5 1 .5h1.5 1.5 1.5 1.5 3 3l1-.5 1-.5 1-1.5 1-1.5 2-.5 2-.5h1.5 1.5l1.5-1 1.5-1" style="fill:#80776b;stroke:#80776b" />
        <path d="m451 163l1-1h-1.5-1.5-1.5-1.5l-2 .5-2 .5-1 1.5-1 1.5 1 .5 1 .5 1-.5 1-.5h1 1l1.5-.5 1.5-.5 1-1 1-1" style="fill:#60574b;stroke:#60574b" />
        <path d="m450 191l-1-2-16.5.5-16.5.5h2.5 2.5l.5.5.5.5.5.5.5.5h1 1l.5.5.5.5 1 .5 1 .5h1 1l.5.5.5.5h1 1 1 1 1.5 1.5l.5.5.5.5h1 1 1 1 1.5 1.5l.5-.5.5-.5h1 1l.5-.5.5-.5v-1.5-1.5" style="fill:#b84e46;stroke:#b84e46" />
        <path d="m443 72l1-1-1-.5-1-.5h-1.5-1.5-1-1-2-2l-1 .5-1 .5h-1-1l-1 .5-1 .5h-1.5-1.5l-.5.5-.5.5-1.5.5-1.5.5-1 1-1 1-1 1-1 1-1 .5-1 .5-.5 1-.5 1-1 .5-1 .5-1.5 1-1.5 1h2 2 2 2l.5-1 .5-1 .5-.5.5-.5 1-.5 1-.5 1-1.5 1-1.5 1-1 1-1 1.5-.5 1.5-.5 2.5-.5 2.5-.5 1-.5 1-.5 1.5-.5 1.5-.5h2 2l1 .5 1 .5" style="fill:#9d5b54;stroke:#9d5b54" />
        <path d="m436 61l-1-2h-1.5-1.5-1-1-2-2l-1 .5-1 .5h-1-1-2-2-2-2l-.5.5-.5.5-10.5 2-10.5 2-3 13-3 13h1.5 1.5l1 .5 1 .5.5.5.5.5.5.5.5.5.5.5.5.5 1-.5 1-.5.5-.5.5-.5h1.5 1.5v-1.5-1.5l-.5-1-.5-1-1.5-1-1.5-1h-1-1-.5-.5l-2-.5-2-.5-1.5-.5-1.5-.5v-2.5-2.5l12-4.5 12-4.5 13-3.5 13-3.5v-1-1" style="fill:#561804;stroke:#561804" />
        <path d="m435 65l1-2-13 3.5-13 3.5-12 4.5-12 4.5h1.5 1.5l1 .5 1 .5.5.5.5.5v1 1l.5.5.5.5.5 1 .5 1h1 1l1.5-1.5 1.5-1.5.5-1 .5-1v-1-1l-.5-.5-.5-.5.5-1 .5-1 1-1 1-1 .5-.5.5-.5 1-.5 1-.5h2 2 1 1 1 1l1.5-.5 1.5-.5 1.5-1 1.5-1h1 1l1.5-.5 1.5-.5h1.5 1.5 1 1l1.5-.5 1.5-.5 1.5-1 1.5-1" style="fill:#7b2000;stroke:#7b2000" />
        <path d="m433 175l1-3-1-1-1-1h-3-3-.5-.5l-2-.5-2-.5-.5.5-.5.5-8.5 8-8.5 8-4 10.5-4 10.5-7 8.5-7 8.5-17.5 10-17.5 10-.5 2-.5 2-.5 1-.5 1-.5.5-.5.5-.5-1-.5-1v-1-1l-.5-.5-.5-.5v-1-1h-1.5-1.5l.5-.5.5-.5 1-.5 1-.5-2-.5-2-.5-.5-1-.5-1-1.5.5-1.5.5-1 .5-1 .5-1.5 1-1.5 1v10.5 10.5l10.5-5 10.5-5 10-5.5 10-5.5 8-7.5 8-7.5 7.5-9 7.5-9v-3-3l.5-1.5.5-1.5 1-1.5 1-1.5 1-1 1-1 .5-1.5.5-1.5.5-.5.5-.5.5-1 .5-1 1-1 1-1 1-1.5 1-1.5 1-1 1-1 2-1 2-1 1.5-.5 1.5-.5 1-.5 1-.5h1 1 1 1l.5-.5.5-.5.5-1 .5-1 .5-.5.5-.5h1.5 1.5" style="fill:#561804;stroke:#561804" />
        <path d="m431 168l1-1h-1.5-1.5-1.5-1.5l-1-.5-1-.5-1.5-20.5-1.5-20.5-4-13-4-13-1-1-1-1-1.5-1-1.5-1-1-1-1-1-1-1.5-1-1.5-.5 1-.5 1 8 8.5 8 8.5.5 14 .5 14 2.5 15.5 2.5 15.5h3 3" style="fill:#60574b;stroke:#60574b" />
        <path d="m425 170h1l-.5-1-.5-1-2.5-15.5-2.5-15.5-.5-14-.5-14-8-8.5-8-8.5-1.5-1-1.5-1v1.5 1.5l9 8.5 9 8.5v15.5 15.5l1.5 14 1.5 14 2 .5 2 .5" style="fill:#3c3327;stroke:#3c3327" />
        <path d="m423 92l1-3v-1-1l-.5-.5-.5-.5-.5-.5-.5-.5-1-.5-1-.5-.5-.5-.5-.5.5-1.5.5-1.5-1 .5-1 .5-.5.5-.5.5-.5 1-.5 1-.5.5-.5.5v.5.5l.5 1 .5 1 1 1 1 1 .5 1 .5 1 .5.5.5.5 1 .5 1 .5.5-1 .5-1" style="fill:#80776b;stroke:#80776b" />
        <path d="m423 73l1-1h-1.5-1.5l-1-.5-1-.5h-1.5-1.5l-1.5.5-1.5.5h-1-1-1-1-2-2l-1 .5-1 .5-.5.5-.5.5-1 1-1 1-.5 1-.5 1 .5.5.5.5v1 1l-.5 1-.5 1 2 1 2 1 1-.5 1-.5.5-1.5.5-1.5.5-.5.5-.5.5-.5.5-.5.5-1 .5-1h1 1l.5.5.5.5 1 .5 1 .5 1-.5 1-.5 1-1 1-1 1-1 1-1 1.5-.5 1.5-.5" style="fill:#9a3628;stroke:#9a3628" />
        <path d="m422 182h1l-1-.5-1-.5h-1.5-1.5l-2 1-2 1-1 1-1 1-1 1.5-1 1.5-1 1-1 1-.5 1-.5 1-.5.5-.5.5-.5 1.5-.5 1.5-1 1-1 1-1 1.5-1 1.5-.5 1.5-.5 1.5v3 3l1-.5 1-.5.5-2 .5-2v-2-2l1.5-1 1.5-1 .5-1.5.5-1.5 1-1 1-1 1-1.5 1-1.5.5-1.5.5-1.5 1-1.5 1-1.5 1-1 1-1 1.5-.5 1.5-.5h1.5 1.5" style="fill:#793327;stroke:#793327" />
        <path d="m420 170l1-1-1.5-14-1.5-14v-15.5-15.5l-9-8.5-9-8.5h-1.5-1.5l-.5.5-.5.5-1 .5-1 .5-.5-.5-.5-.5-.5-.5-.5-.5-.5-.5-.5-.5-1-.5-1-.5h-1.5-1.5l-4.5 9.5-4.5 9.5 5 7.5 5 7.5-.5 15.5-.5 15.5-6.5 8-6.5 8-8 .5-8 .5-9.5-6-9.5-6 4.5 9 4.5 9 1 8.5 1 8.5-12-3.5-12-3.5-2 3.5-2 3.5 6.5 8 6.5 8 1 13.5 1 13.5.5 1 .5 1 2 .5 2 .5 1.5.5 1.5.5 1 .5 1 .5 17.5-10 17.5-10 7-8.5 7-8.5 4-10.5 4-10.5 8.5-8 8.5-8" style="fill:#27170b;stroke:#27170b" />
        <path d="m415 85l1-1h-2-2-2-2-1.5-1.5l-1 .5-1 .5-2-1-2-1-1.5 1.5-1.5 1.5 1.5 1 1.5 1 .5 1 .5 1 1.5 1 1.5 1 .5-1 .5-1 1 1.5 1 1.5 1 1 1 1 1.5 1 1.5 1 1 1 1 1-1-2-1-2-1-1-1-1-1-.5-1-.5-.5-.5-.5-.5.5-1.5.5-1.5 1-.5 1-.5.5-.5.5-.5h2.5 2.5v-.5-.5" style="fill:#793327;stroke:#793327" />
        <path d="m413 81l1-2-1-.5-1-.5-.5-.5-.5-.5h-1-1l-.5 1-.5 1-.5.5-.5.5-.5.5-.5.5-.5 1.5-.5 1.5h1.5 1.5l1.5-1 1.5-1 1-.5 1-.5" style="fill:#b84e46;stroke:#b84e46" />
        <path d="m413 61l1-1-17 1-17 1-11.5-4-11.5-4-15 1-15 1-14.5-1-14.5-1-15-.5-15-.5-11 .5-11 .5-13.5 2-13.5 2-2-13.5-2-13.5.5-15.5.5-15.5h-17.5-17.5-15.5-15.5-15.5-15.5-15.5-15.5-15.5-15.5-7.5-7.5l-.5 2-.5 2-20.5.5-20.5.5v16.5 16.5 15.5 15.5 15.5 15.5 15.5 15.5 15.5 15.5 15.5 15.5 16 16 15 15l6.5-4.5 6.5-4.5 5.5 2 5.5 2 10-3.5 10-3.5 5.5 6 5.5 6 7.5-3 7.5-3-4.5-7-4.5-7 12.5-1 12.5-1 11-1.5 11-1.5 8 2.5 8 2.5 11.5-4.5 11.5-4.5-2-1-2-1v-1.5-1.5l1.5-.5 1.5-.5 2-.5 2-.5 1 1 1 1 .5 1 .5 1 21.5-9 21.5-9 4.5-8.5 4.5-8.5 11-3.5 11-3.5 10.5 4.5 10.5 4.5 7 8.5 7 8.5 2.5 9 2.5 9-3 12.5-3 12.5 6-.5 6-.5 5-10.5 5-10.5-.5-10-.5-10 12 7 12 7-1-1.5-1-1.5-1-1-1-1-5.5-8.5-5.5-8.5 5-9 5-9 .5-14 .5-14 5-10.5 5-10.5 6-9.5 6-9.5-4-8.5-4-8.5 4.5-7 4.5-7 1.5 8 1.5 8 9-4.5 9-4.5 20 .5 20 .5 3-13 3-13 10.5-2 10.5-2" style="fill:#27170b;stroke:#27170b" />
        <path d="m405 215l1-2-2.5-.5-2.5-.5-5 9.5-5 9.5-12.5 8.5-12.5 8.5h2 2 .5.5l11-6.5 11-6.5 6-10 6-10" style="fill:#9a2d00;stroke:#9a2d00" />
        <path d="m401 212l1-3-1 .5-1 .5-7.5 9-7.5 9-8 7.5-8 7.5-10 5.5-10 5.5-10.5 5-10.5 5v-10.5-10.5l-2-1-2-1-5.5 10.5-5.5 10.5 8.5 3.5 8.5 3.5 18-10.5 18-10.5 12.5-8.5 12.5-8.5 5-9.5 5-9.5" style="fill:#7b2000;stroke:#7b2000" />
        <path d="m393 86h1l-.5-1-.5-1-.5-.5-.5-.5v-1-1l-.5-.5-.5-.5-1-.5-1-.5h-1.5-1.5v2.5 2.5l1.5.5 1.5.5 2 .5 2 .5" style="fill:#793327;stroke:#793327" />
        <path d="m387 125l-10-15 4.5-9.5 4.5-9.5-20-.5-20-.5-9 4.5-9 4.5-1.5-8-1.5-8-4.5 7-4.5 7 4 8.5 4 8.5-6 9.5-6 9.5-5 10.5-5 10.5-.5 14-.5 14-5 9-5 9 5.5 8.5 5.5 8.5-1.5-1.5-1.5-1.5-1-.5-1-.5 16-6 16-6 .5 1 .5 1 .5 1 .5 1v1.5 1.5l.5 2 .5 2 .5 1.5.5 1.5 1 1.5 1 1.5.5 1.5.5 1.5v2.5 2.5 2 2l-.5 1.5-.5 1.5v1 1l-.5 1-.5 1-.5 1.5-.5 1.5 1.5-.5 1.5-.5-1-13.5-1-13.5-6.5-8-6.5-8 2-3.5 2-3.5 12 3.5 12 3.5-1-8.5-1-8.5-4.5-9-4.5-9 9.5 6 9.5 6 8-.5 8-.5 6.5-8 6.5-8 .5-15.5.5-15.5" style="fill:#3c3327;stroke:#3c3327" />
        <g style="fill:#c73926;stroke:#c73926">
            <path d="m380 403l-23 2-6.5 4-6.5 4 12-2.5 12-2.5 6-2.5 6-2.5" />
            <path d="m376 322l-28-28 5.5-8 5.5-8 8-1.5 8-1.5-2-13.5-2-13.5h-.5-.5l-.5.5-.5.5-9.5 6.5-9.5 6.5-11 5.5-11 5.5-1.5 1-1.5 1 7 15 7 15 4.5 11.5 4.5 11.5-6.5 4-6.5 4-7.5-8-7.5-8-7.5-6-7.5-6-1.5 12-1.5 12 9.5 6 9.5 6 10.5 5 10.5 5 11.5-4 11.5-4 5.5-12 5.5-12" />
        </g>
        <path d="m369 249l1-1h-2-2l-18 10.5-18 10.5-.5 1-.5 1-.5 1-.5 1 11-5.5 11-5.5 9.5-6.5 9.5-6.5" style="fill:#9a3628;stroke:#9a3628" />
        <path d="m345 248l1-4-1-.5-1-.5-1.5-.5-1.5-.5-1 .5-1 .5-.5.5-.5.5h1.5 1.5v1 1l.5.5.5.5v1 1l.5 1 .5 1 .5-.5.5-.5.5-1 .5-1" style="fill:#3c3327;stroke:#3c3327" />
        <path d="m335 233l1-3v-2-2-2.5-2.5l-.5-1.5-.5-1.5-1-1.5-1-1.5-.5-1.5-.5-1.5-.5-2-.5-2v-1.5-1.5l-.5-1-.5-1v1.5 1.5 2 2l.5 1.5.5 1.5 1 1.5 1 1.5.5 1.5.5 1.5v2.5 2.5l.5 1.5.5 1.5-.5 2-.5 2 .5 2 .5 2v-1-1" style="fill:#60574b;stroke:#60574b" />
        <path d="m334 237l1-2-.5-2-.5-2 .5-2 .5-2-.5-1.5-.5-1.5v-2.5-2.5l-.5-1.5-.5-1.5-1-1.5-1-1.5-.5-1.5-.5-1.5v-2-2-1.5-1.5l-.5-1-.5-1h-.5-.5l-15.5 6-15.5 6 1 .5 1 .5 1.5 1.5 1.5 1.5 1 1 1 1 1 1.5 1 1.5 1.5 1 1.5 1 1.5.5 1.5.5 1.5 1 1.5 1 1.5.5 1.5.5 1 1.5 1 1.5.5 1 .5 1 1 1.5 1 1.5 1 1 1 1v1 1h-.5-.5v.5.5l2 1 2 1 1.5-1 1.5-1 1-.5 1-.5.5-1.5.5-1.5" style="fill:#938e82;stroke:#938e82" />
        <path d="m332 230l1-3-.5-1.5-.5-1.5v-2.5-2.5h-.5-.5v1.5 1.5 1.5 1.5 1 1 1 1l-.5 1.5-.5 1.5-.5 1-.5 1h-1-1l-.5-.5-.5-.5-.5-1-.5-1v-2-2l-.5-.5-.5-.5-1-.5-1-.5-1-1-1-1h-1-1l-.5-.5-.5-.5h-1-1l-1.5-.5-1.5-.5 1.5 1 1.5 1 2 .5 2 .5 1 1 1 1 1 1 1 1 .5 2 .5 2 .5 1.5.5 1.5 1.5 1 1.5 1 1.5-.5 1.5-.5.5-2 .5-2v-1-1" style="fill:#b8b3a4;stroke:#b8b3a4" />
        <path d="m330 232l1-3v-1-1-1-1-1.5-1.5-1.5-1.5l-4.5-8.5-4.5-8.5-12 3.5-12 3.5 7 6 7 6 1.5.5 1.5.5h1 1l.5.5.5.5h1 1l1 1 1 1 1 .5 1 .5.5.5.5.5v2 2l.5 1 .5 1 .5.5.5.5h1 1l.5-1 .5-1" style="fill:#d8d4c6;stroke:#d8d4c6" />
        <path d="m329 271l1-2-8.5-3.5-8.5-3.5 5.5-10.5 5.5-10.5v-.5-.5l-1-.5-1-.5-.5-.5-.5-.5-.5-.5-.5-.5-1-.5-1-.5-4.5 12-4.5 12-3.5 9-3.5 9 11.5-1.5 11.5-1.5 1.5-1 1.5-1 .5-1 .5-1" style="fill:#9a2d00;stroke:#9a2d00" />
        <path d="m328 201h1l-16 6-16 6 15.5-6 15.5-6" style="fill:#60574b;stroke:#60574b" />
        <path d="m325 240v-2l-1-1-1-1-1-1.5-1-1.5h-.5-.5l-1-.5-1-.5-1-1-1-1h-2-2-.5-.5v1.5 1.5h1.5 1.5l1 1 1 1 1 .5 1 .5 1 .5 1 .5.5.5.5.5.5.5.5.5 1 .5 1 .5h.5.5" style="fill:#9a3628;stroke:#9a3628" />
        <path d="m320 233h1l-.5-1-.5-1-1-1.5-1-1.5-1.5-.5-1.5-.5-1.5-1-1.5-1-1.5-.5-1.5-.5.5 1.5.5 1.5 1 .5 1 .5v.5.5.5.5h2 2l1 1 1 1 1 .5 1 .5" style="fill:#793327;stroke:#793327" />
        <path d="m312 229v-1l-1-.5-1-.5h-.5-.5l-10.5 5.5-10.5 5.5-7 9-7 9-10.5 4-10.5 4 1.5-9 1.5-9 3.5-12 3.5-12-5-10.5-5-10.5-9-6.5-9-6.5-16.5 8.5-16.5 8.5 1 .5 1 .5 10-6 10-6 11 1.5 11 1.5 6 9.5 6 9.5-1 12.5-1 12.5-7.5 8-7.5 8 8 6.5 8 6.5 10-5.5 10-5.5 7-8.5 7-8.5 10-6 10-6h.5.5v-.5-.5" style="fill:#7b2000;stroke:#7b2000" />
        <path d="m310 233h1v-1.5-1.5l-10 6-10 6-7 8.5-7 8.5-10 5.5-10 5.5-8-6.5-8-6.5 7.5-8 7.5-8 1-12.5 1-12.5-6-9.5-6-9.5-11-1.5-11-1.5-10 6-10 6 .5 1 .5 1-.5 1.5-.5 1.5v2.5 2.5 1 1l1-.5 1-.5v1.5 1.5 2.5 2.5l.5 1.5.5 1.5-.5 2-.5 2 1 1 1 1-.5 1.5-.5 1.5-.5 2-.5 2 .5 1.5.5 1.5v2 2l-.5 1.5-.5 1.5v2.5 2.5l2 14 2 14 3 12.5 3 12.5 3 12.5 3 12.5 4 11.5 4 11.5 4 12.5 4 12.5-4-18-4-18-3.5-12-3.5-12-2.5-13-2.5-13-.5-12-.5-12-1.5-13-1.5-13-2.5-13-2.5-13 5-10.5 5-10.5 11-1.5 11-1.5 6 9.5 6 9.5v11.5 11.5l-8 8-8 8 3.5 10 3.5 10 4.5 10 4.5 10 3 12.5 3 12.5 5.5 10 5.5 10 5.5 10 5.5 10 6 9.5 6 9.5 7.5 1 7.5 1-6.5-9-6.5-9-4.5-11-4.5-11-4-11.5-4-11.5-5-10.5-5-10.5-4.5-10-4.5-10 9.5-6 9.5-6 6.5-9 6.5-9 9.5-6.5 9.5-6.5" style="fill:#9a2d00;stroke:#9a2d00" />
        <path d="m309 227h1l-.5-1.5-.5-1.5-1.5-1-1.5-1-12-7-12-7 .5 10 .5 10-5 10.5-5 10.5-6 .5-6 .5 3-12.5 3-12.5-2.5-9-2.5-9-7-8.5-7-8.5-10.5-4.5-10.5-4.5-11 3.5-11 3.5-4.5 8.5-4.5 8.5 1 .5 1 .5 2-.5 2-.5 16.5-8.5 16.5-8.5 9 6.5 9 6.5 5 10.5 5 10.5-3.5 12-3.5 12-1.5 9-1.5 9 10.5-4 10.5-4 7-9 7-9 10.5-5.5 10.5-5.5" style="fill:#561804;stroke:#561804" />
        <g style="fill:#3c3327;stroke:#3c3327">
            <path d="m286 103l-17 8 6-1.5 6-1.5 2.5-2.5 2.5-2.5" />
            <path d="m266 137l-10 11 2 6.5 2 6.5 3-12 3-12" />
        </g>
        <path d="m262 424h1l-11.5-18.5-11.5-18.5 9.5 18.5 9.5 18.5h1.5 1.5" style="fill:#9a2d00;stroke:#9a2d00" />
        <path d="m258 424h1l-9.5-18.5-9.5-18.5-1-2.5-1-2.5-4-12.5-4-12.5-4-11.5-4-11.5-3-12.5-3-12.5-3-12.5-3-12.5-2-14-2-14-.5 1-.5 1-1 .5-1 .5 1.5 14.5 1.5 14.5 3 12.5 3 12.5 3.5 12 3.5 12 3.5 12 3.5 12 4.5 11 4.5 11 10 20.5 10 20.5h1.5 1.5" style="fill:#7b2000;stroke:#7b2000" />
        <path d="m254 424h1l-10-20.5-10-20.5-4.5-11-4.5-11-3.5-12-3.5-12-3.5-12-3.5-12-3-12.5-3-12.5-1.5-14.5-1.5-14.5-1-.5-1-.5-1.5 2-1.5 2-.5 1-.5 1-.5 1-.5 1h-1-1l-1.5.5-1.5.5-.5.5-.5.5h-1.5-1.5l1.5 1.5 1.5 1.5 1-1 1-1 .5 1.5.5 1.5-1 10-1 10-2.5 2-2.5 2 .5 9 .5 9 3 .5 3 .5 7 6.5 7 6.5 4.5 11 4.5 11 3.5 14.5 3.5 14.5 1 .5 1 .5.5 2 .5 2 .5 1.5.5 1.5 1 1 1 1 1 1.5 1 1.5 1 1 1 1 1 1.5 1 1.5.5 1.5.5 1.5 1 1.5 1 1.5v2 2l-.5 1.5-.5 1.5-1 1.5-1 1.5-1 1.5-1 1.5.5 1.5.5 1.5v2.5 2.5h1.5 1.5 2 2 2.5 2.5 2 2 2 2" style="fill:#561804;stroke:#561804" />
        <path d="m237 410l1-3v-2-2l-1-1.5-1-1.5-.5-1.5-.5-1.5-1-1.5-1-1.5-1-1-1-1-1-1.5-1-1.5-1-1-1-1-.5-1.5-.5-1.5-.5-2-.5-2-1-.5-1-.5-.5.5-.5.5-2.5-7.5-2.5-7.5-5 3.5-5 3.5-12-1-12-1-10-2.5-10-2.5-10.5 3-10.5 3-8 3.5-8 3.5-7 4.5-7 4.5-7.5 2-7.5 2-11 2.5-11 2.5-9-1.5-9-1.5-11 2.5-11 2.5-7.5 3-7.5 3-10-10.5-10-10.5v3.5 3.5 2 2l1.5 1 1.5 1h1 1l.5.5.5.5.5.5.5.5.5.5.5.5.5 1 .5 1v1 1 1 1l-.5 1.5-.5 1.5-1 .5-1 .5-1 .5-1 .5h-2-2v7 7h9.5 9.5 15.5 15.5 15.5 15.5 15.5 15.5 15.5 15.5 15.5 15.5 15.5 15.5 14.5 14.5v-2.5-2.5l-.5-1.5-.5-1.5 1-1.5 1-1.5 1-1.5 1-1.5" style="fill:#27170b;stroke:#27170b" />
        <path d="m222 380l1-1-3.5-14.5-3.5-14.5-4.5-11-4.5-11-7-6.5-7-6.5-3-.5-3-.5-.5-9-.5-9 2.5-2 2.5-2 1-10 1-10h-.5-.5l-.5 1.5-.5 1.5-.5.5-.5.5-1 .5-1 .5-1.5.5-1.5.5h-1-1-2-2-.5-.5l-2.5.5-2.5.5h-2-2l.5-2 .5-2v-1.5-1.5h2 2l1.5-1 1.5-1 1.5-.5 1.5-.5h2.5 2.5l1-.5 1-.5.5-1.5.5-1.5v-1-1l1-.5 1-.5h2 2l-.5.5-.5.5 1 .5 1 .5 1.5-1 1.5-1 1.5-2 1.5-2-1-.5-1-.5-13 3.5-13 3.5-13 2.5-13 2.5-12.5 3-12.5 3-12 2.5-12 2.5-6.5 9-6.5 9-5.5 7-5.5 7 1.5-.5 1.5-.5h1 1l1 .5 1 .5 1 1 1 1-.5 1.5-.5 1.5-.5 1.5-.5 1.5-1 1-1 1 6-8 6-8 10.5-5.5 10.5-5.5-7.5 9.5-7.5 9.5-9 4-9 4h-2.5-2.5l-2.5 1-2.5 1-9.5 5.5-9.5 5.5-5-7-5-7-2.5-8-2.5-8 5.5-10 5.5-10 9-6.5 9-6.5 10.5-5 10.5-5 10-5.5 10-5.5 11-4.5 11-4.5 10.5-5 10.5-5 9-6.5 9-6.5 15.5-6 15.5-6 .5-.5.5-.5-1-.5-1-.5-21.5 9-21.5 9h-.5-.5l-1 .5-1 .5-.5.5-.5.5-1 .5-1 .5-11.5 4.5-11.5 4.5-8-2.5-8-2.5-11 1.5-11 1.5-12.5 1-12.5 1 4.5 7 4.5 7-7.5 3-7.5 3-5.5-6-5.5-6-10 3.5-10 3.5-5.5-2-5.5-2-6.5 4.5-6.5 4.5v16 16 15.5 15.5 15.5 15.5 12 12l1-.5 1-.5.5.5.5.5.5.5.5.5h1.5 1.5 1 1 1 1v1 1l-.5 1-.5 1-1.5.5-1.5.5h-2-2l-1.5.5-1.5.5v1.5 1.5l10 10.5 10 10.5 7.5-3 7.5-3 11-2.5 11-2.5 9 1.5 9 1.5 11-2.5 11-2.5 7.5-2 7.5-2 7-4.5 7-4.5 8-3.5 8-3.5 10.5-3 10.5-3 10 2.5 10 2.5 12 1 12 1 5-3.5 5-3.5 2.5 7.5 2.5 7.5" style="fill:#3c3327;stroke:#3c3327" />
        <path d="m207 237l1-3-1-1-1-1 .5-2 .5-2-.5-1.5-.5-1.5v-2.5-2.5-1.5-1.5l-1 .5-1 .5-.5 1-.5 1 .5 1.5.5 1.5v2 2 1 1 1.5 1.5l.5 1.5.5 1.5v1 1l.5 2 .5 2 .5-2 .5-2" style="fill:#7b2000;stroke:#7b2000" />
        <path d="m206 251l1-3v-2-2l-.5-1.5-.5-1.5-.5-2-.5-2v-1-1l-.5-1.5-.5-1.5v-1.5-1.5-1-1-2-2l-.5-1.5-.5-1.5.5-1 .5-1v-1-1h-1-1l-.5 2-.5 2v2 2l.5 2 .5 2v2 2l.5 2 .5 2v2 2l.5 2 .5 2v2 2l-.5 1.5-.5 1.5-.5 1-.5 1-.5.5-.5.5-1 1.5-1 1.5 1 .5 1 .5 1 .5 1 .5 1-.5 1-.5.5-1 .5-1v-2.5-2.5" style="fill:#793327;stroke:#793327" />
        <path d="m204 211l1-3-.5-1-.5-1-1-.5-1-.5-2 .5-2 .5-.5.5-.5.5.5.5.5.5 1 .5 1 .5 1 1 1 1v2.5 2.5h1 1v-2.5-2.5" style="fill:#9a3628;stroke:#9a3628" />
        <path d="m203 251l1-3v-2-2l-.5-2-.5-2v-2-2l-.5-2-.5-2v-2-2l-.5-2-.5-2v-2-2l.5-2 .5-2v-2.5-2.5l-1-1-1-1-1-.5-1-.5v.5.5.5.5l1 .5 1 .5v1.5 1.5 1 1 1 1 1 1l-.5.5-.5.5.5 1 .5 1v1 1 1 1 1 1 1 1l.5 1 .5 1v1 1 1 1 1 1 1.5 1.5l.5.5.5.5v1 1 1 1l-.5.5-.5.5-.5 1.5-.5 1.5v.5.5l1 .5 1 .5.5-1 .5-1" style="fill:#9d5b54;stroke:#9d5b54" />
        <path d="m202 247v-2-1-1l-.5-.5-.5-.5v-1.5-1.5-1-1-1-1-1-1l-.5-1-.5-1v-1-1-1-1-1-1-1-1l-.5-1-.5-1 .5-.5.5-.5v-1-1-1-1-1-1-1.5-1.5l-1-.5-1-.5h-.5-.5l-2 .5-2 .5-.5.5-.5.5-1 .5-1 .5-1.5.5-1.5.5h-1-1l-1 .5-1 .5-1.5.5-1.5.5-.5.5-.5.5-1 .5-1 .5-1.5.5-1.5.5-1.5.5-1.5.5-.5.5-.5.5-10 7-10 7-10.5 5-10.5 5-10.5 5-10.5 5-12 5-12 5-.5.5-.5.5v.5.5l1.5-.5 1.5-.5 2-.5 2-.5 1.5-.5 1.5-.5 2-.5 2-.5 1.5.5 1.5.5-.5 1.5-.5 1.5-10 15.5-10 15.5h1 1l.5-.5.5-.5 6.5-10 6.5-10 7.5-8 7.5-8 6.5 3 6.5 3 13-2 13-2 11-4.5 11-4.5 15-3 15-3 .5-.5.5-.5" style="fill:#938e82;stroke:#938e82" />
        <path d="m201 254l1-1-1-.5-1-.5-12 4-12 4-12.5 3-12.5 3-13 2.5-13 2.5-11.5 2-11.5 2-10 11-10 11-.5.5-.5.5-.5.5-.5.5-1.5 1.5-1.5 1.5-1.5.5-1.5.5-1.5.5-1.5.5-2 1.5-2 1.5-.5 1-.5 1-9.5 9-9.5 9v-.5-.5l4-13 4-13-4 2.5-4 2.5-3-4.5-3-4.5 1-1.5 1-1.5v-1-1l1-.5 1-.5 1-1 1-1v-1-1l.5-1 .5-1 1-1 1-1 .5-.5.5-.5.5-1 .5-1 1-.5 1-.5 1.5-1.5 1.5-1.5 1.5-.5 1.5-.5 1.5-.5 1.5-.5 2-.5 2-.5 1.5-.5 1.5-.5 1.5-1 1.5-1 1.5-.5 1.5-.5 2-.5 2-.5 2-1 2-1 10.5-5.5 10.5-5.5 10.5-5 10.5-5 11-5 11-5 11.5-7 11.5-7 1-1 1-1 1.5-.5 1.5-.5 1.5-1 1.5-1 1.5-.5 1.5-.5 2-.5 2-.5 1.5-.5 1.5-.5 1-1 1-1h1 1l1-.5 1-.5h1.5 1.5v-.5-.5l-.5-.5-.5-.5-15.5 6-15.5 6-9 6.5-9 6.5-10.5 5-10.5 5-11 4.5-11 4.5-10 5.5-10 5.5-10.5 5-10.5 5-9 6.5-9 6.5-5.5 10-5.5 10 2.5 8 2.5 8 5 7 5 7 9.5-5.5 9.5-5.5v-1.5-1.5l.5-.5.5-.5 1.5-.5 1.5-.5h2 2l1-1.5 1-1.5-1-1-1-1-1.5-1-1.5-1 5.5-7 5.5-7 6.5-9 6.5-9 12-2.5 12-2.5 12.5-3 12.5-3 13-2.5 13-2.5 13-3.5 13-3.5 1-1.5 1-1.5" style="fill:#60574b;stroke:#60574b" />
        <path d="m200 251l1-3-15 3-15 3-11 4.5-11 4.5-13 2-13 2-6.5-3-6.5-3-7.5 8-7.5 8-6.5 10-6.5 10 10-11 10-11 11.5-2 11.5-2 13-2.5 13-2.5 12.5-3 12.5-3 12-4 12-4v-.5-.5" style="fill:#80776b;stroke:#80776b" />
        <path d="m197 264l1-2-1.5 1-1.5 1-1-.5-1-.5.5-.5.5-.5h-2-2l-1 .5-1 .5v1 1l-.5 1.5-.5 1.5h1.5 1.5l.5-.5.5-.5 1.5-.5 1.5-.5h1 1l.5-1 .5-1" style="fill:#27170b;stroke:#27170b" />
        <path d="m197 239l-5-26-10 5.5-10 5.5 9-.5 9-.5 3.5 8 3.5 8" style="fill:#b8b3a4;stroke:#b8b3a4" />
        <path d="m197 210h1v-.5-.5h-1.5-1.5l-1 .5-1 .5h-1-1l-1 1-1 1-1.5.5-1.5.5-2 .5-2 .5-1.5.5-1.5.5-1.5 1-1.5 1-1.5.5-1.5.5-1 1-1 1 1.5-.5 1.5-.5 1.5-.5 1.5-.5 1-.5 1-.5.5-.5.5-.5 1.5-.5 1.5-.5 1-.5 1-.5h1 1l1.5-.5 1.5-.5 1-.5 1-.5.5-.5.5-.5 2-.5 2-.5" style="fill:#80776b;stroke:#80776b" />
        <path d="m192 272h1l-.5-1.5-.5-1.5-1 1-1 1-1.5-1.5-1.5-1.5-1 .5-1 .5h-2.5-2.5l-1.5.5-1.5.5-1.5 1-1.5 1h-2-2v1.5 1.5l2-.5 2-.5.5.5.5.5h1 1l.5.5.5.5.5 1 .5 1h2 2 1 1l1.5-.5 1.5-.5 1-.5 1-.5.5-.5.5-.5.5-1.5.5-1.5" style="fill:#27170b;stroke:#27170b" />
        <path d="m183 235l1-3-1-1-1-1-2-.5-2-.5-1.5.5-1.5.5v2.5 2.5l1.5.5 1.5.5 2 .5 2 .5.5-1 .5-1" style="fill:#b8b3a4;stroke:#b8b3a4" />
        <path d="m178 278h1l-.5-1-.5-1-.5-.5-.5-.5h-1-1l-.5-.5-.5-.5-2 .5-2 .5-.5 2-.5 2h2 2l2.5-.5 2.5-.5" style="fill:#561804;stroke:#561804" />
        <path d="m170 221l1-1-11.5 7-11.5 7-11 5-11 5-10.5 5-10.5 5-10.5 5.5-10.5 5.5 12-5 12-5 10.5-5 10.5-5 10.5-5 10.5-5 10-7 10-7" style="fill:#80776b;stroke:#80776b" />
        <path d="m152 223h1l-.5-1-.5-1-1-1-1-1-2 .5-2 .5-1.5.5-1.5.5v1.5 1.5l2 1 2 1 1-.5 1-.5.5-.5.5-.5 1-.5 1-.5" style="fill:#561804;stroke:#561804" />
        <g style="fill:#27170b;stroke:#27170b">
            <path d="m150 278l-22 1 .5 1 .5 1 10.5-1.5 10.5-1.5" />
            <path d="m146 339l-14-17 4.5 6 4.5 6 2.5 2.5 2.5 2.5" />
        </g>
        <path d="m125 59h-25l-14.5 1-14.5 1-14 1.5-14 1.5-10.5 1-10.5 1-8.5 7-8.5 7 8.5 2 8.5 2 11-3.5 11-3.5 13-2.5 13-2.5 13-2 13-2 12.5-3 12.5-3 2-1.5 2-1.5" style="fill:#3c3327;stroke:#3c3327" />
        <path d="m112 295l-21 11-6 8-6 8 9-4 9-4 7.5-9.5 7.5-9.5" style="fill:#561804;stroke:#561804" />
        <path d="m99 267l1-3-1.5-.5-1.5-.5-2 .5-2 .5-1.5.5-1.5.5-2 .5-2 .5-1.5.5-1.5.5-.5.5-.5.5-11 4.5-11 4.5-7.5 8-7.5 8-1 5.5-1 5.5 6.5-9 6.5-9 2.5 6 2.5 6-6.5 14-6.5 14h-.5-.5v.5.5l.5.5.5.5 9.5-11.5 9.5-11.5 1-1 1-1 .5-.5.5-.5.5-.5.5-.5h1 1l.5-.5.5-.5 1-.5 1-.5 1.5-.5 1.5-.5 10-15.5 10-15.5" style="fill:#b8b3a4;stroke:#b8b3a4" />
        <path d="m91 274l-17 8-6 9.5-6 9.5 4-.5 4-.5 7.5-8 7.5-8 3-5 3-5" style="fill:#d8d4c6;stroke:#d8d4c6" />
        <path d="m83 266l1-1-2 1-2 1-2 .5-2 .5-1.5.5-1.5.5-1.5 1-1.5 1-1.5.5-1.5.5-2 .5-2 .5-1.5.5-1.5.5-1.5.5-1.5.5-1.5 1.5-1.5 1.5 1-.5 1-.5 1.5-.5 1.5-.5 1.5-.5 1.5-.5 2-.5 2-.5 1.5-.5 1.5-.5 2-.5 2-.5 1-1 1-1 2-.5 2-.5 2-1 2-1v-.5-.5" style="fill:#80776b;stroke:#80776b" />
        <path d="m82 317l1-3-1-1-1-1-1-.5-1-.5h-1-1l-1.5.5-1.5.5 1.5 1 1.5 1 1 1 1 1-1 1.5-1 1.5h-2-2l-1.5.5-1.5.5-.5.5-.5.5v1.5 1.5l2.5-1 2.5-1h2.5 2.5l1-1 1-1 .5-1.5.5-1.5" style="fill:#793327;stroke:#793327" />
        <path d="m82 268l1-1-2 1-2 1-2 .5-2 .5-1 1-1 1-2 .5-2 .5-1.5.5-1.5.5-2 .5-2 .5-1.5.5-1.5.5-1.5.5-1.5.5-1 .5-1 .5-1 .5-1 .5-.5 1-.5 1-.5.5-.5.5-1 1-1 1-.5 1-.5 1v1 1l-1 1-1 1-1 .5-1 .5v1 1l-1 1.5-1 1.5v8.5 8.5l9-7.5 9-7.5-.5 1.5-.5 1.5-1 1.5-1 1.5-.5 1.5-.5 1.5-1 1.5-1 1.5-.5 1.5-.5 1.5-1 1.5-1 1.5-.5 1.5-.5 1.5-.5 1.5-.5 1.5v2 2l6.5-14 6.5-14-2.5-6-2.5-6-6.5 9-6.5 9 1-5.5 1-5.5 7.5-8 7.5-8 11-4.5 11-4.5" style="fill:#938e82;stroke:#938e82" />
        <g style="fill:#80776b;stroke:#80776b">
            <path d="m80 299l1-1h-1-1l-1.5.5-1.5.5-1 .5-1 .5-.5.5-.5.5h-1-1l-.5.5-.5.5-.5.5-.5.5-1 1-1 1v1 1l2-1.5 2-1.5 1.5-.5 1.5-.5 1.5-.5 1.5-.5 1.5-1.5 1.5-1.5" />
            <path d="m66 309l1-2h-.5-.5l-.5 1-.5 1-1 1-1 1-.5.5-.5.5-.5 1-.5 1-1 1-1 1-.5.5-.5.5-.5 1-.5 1-1 1-1 1v1 1 1 1 1 1l-.5 1-.5 1-1 1-1 1-.5.5-.5.5-1-.5-1-.5-.5-1.5-.5-1.5-.5-.5-.5-.5 9.5-9 9.5-9" />
        </g>
        <path d="m66 307h1v-1-1l-9.5 11.5-9.5 11.5.5 1.5.5 1.5 1 .5 1 .5.5-.5.5-.5 1-1 1-1 .5-1 .5-1v-1-1-1-1-1-1l1-1 1-1 .5-1 .5-1 .5-.5.5-.5 1-1 1-1 .5-1 .5-1 .5-.5.5-.5 1-1 1-1 .5-1 .5-1" style="fill:#938e82;stroke:#938e82" />
        <path d="m59 298l-18 15v-8.5-8.5l3 4.5 3 4.5 4-2.5 4-2.5-4 13-4 13h.5.5v-2-2l.5-1.5.5-1.5.5-1.5.5-1.5 1-1.5 1-1.5.5-1.5.5-1.5 1-1.5 1-1.5.5-1.5.5-1.5 1-1.5 1-1.5.5-1.5.5-1.5" style="fill:#80776b;stroke:#80776b" />
        <g style="fill:#3c3327;stroke:#3c3327">
            <path d="m47 143l-16-7-5.5 5-5.5 5h12.5 12.5l1-1.5 1-1.5" />
            <path d="m41 4l1-4h-1.5-1.5-2.5-2.5-2-2-2.5-2.5-2-2-2.5-2.5-2-2-2-2-2.5-2.5-1.5-1.5v.5.5 2 2l20.5-.5 20.5-.5" />
        </g>
        <g style="fill:#27170b;stroke:#27170b">
            <path d="m14 286l1-3-.5-1.5-.5-1.5h-1.5-1.5l-1 1-1 1v1.5 1.5l1.5.5 1.5.5h1 1" />
            <path d="m11 376v-2h-1-1-1-1-1.5-1.5l-.5-.5-.5-.5-.5-.5-.5-.5-1 .5-1 .5v2 2 1.5 1.5l1.5-.5 1.5-.5h2 2l1.5-.5 1.5-.5.5-1 .5-1" />
        </g>
        <path d="m8 408l1-3v-1-1-1-1l-.5-1-.5-1-.5-.5-.5-.5-.5-.5-.5-.5-.5-.5-.5-.5h-1-1l-1.5-1-1.5-1v3.5 3.5 2 2 2 2 .5.5h2 2l1-.5 1-.5 1-.5 1-.5" style="fill:#3c3327;stroke:#3c3327" />
    </g>
</svg>
