<svg xmlns="http://www.w3.org/2000/svg" viewBox="0 0 352 960">
    <path d="m0 0h352v960h-352z" style="fill:#3d3529" />
    <g style="stroke-linejoin:round;stroke-width:.7">
        <path d="m0 959v1h1.5 1.5 2 2 2.5 2.5.5.5v-.5-.5l4-7 4-7 8.5 5 8.5 5 16 1.5 16 1.5h18 18l15 .5 15 .5h-18-18l-31 .5-31 .5h17.5 17.5 17.5 17.5 18 18 11 11v-.5-.5h1.5 1.5 2 2v-1-1l-2-.5-2-.5-1.5-.5-1.5-.5-1.5-1-1.5-1-1.5-.5-1.5-.5-1.5-.5-1.5-.5-.5-1-.5-1-1.5-.5-1.5-.5-2.5-8.5-2.5-8.5-13.5-10-13.5-10-5.5-5.5-5.5-5.5-11 5.5-11 5.5h-11.5-11.5l.5-1 .5-1 1-1 1-1h-3-3l-12 3.5-12 3.5-6-3.5-6-3.5-2 13-2 13-2-.5-2-.5-.5-1.5-.5-1.5-1.5-1-1.5-1-1-1-1-1-1-1-1-1-1-1.5-1-1.5-.5-1.5-.5-1.5.5-2 .5-2 .5-1 .5-1 8-8.5 8-8.5 1-9.5 1-9.5 4 8 4 8 3.5-2 3.5-2 2.5 3 2.5 3 8-3 8-3 7.5 1.5 7.5 1.5 11.5 2.5 11.5 2.5 13.5-1.5 13.5-1.5h12 12l-4 5.5-4 5.5 7.5 10.5 7.5 10.5 14 13.5 14 13.5 1.5.5 1.5.5 1.5.5 1.5.5 1 1 1 1h1 1l1 .5 1 .5 1 1 1 1-.5 1-.5 1h18.5 18.5 10.5 10.5v-.5-.5h-2.5-2.5l-.5-.5-.5-.5h2.5 2.5v-2-2l-.5-2-.5-2h2 2l1 1.5 1 1.5 1 1 1 1 1 1 1 1 1.5 1 1.5 1-1 .5-1 .5h18.5 18.5 8 8v-.5-.5l1-1 1-1-1.5-1-1.5-1-1-1-1-1-1.5-1-1.5-1-.5-1.5-.5-1.5-.5-1.5-.5-1.5 2-.5 2-.5 1.5-.5 1.5-.5 2-.5 2-.5 2-1 2-1 1-.5 1-.5 2-.5 2-.5 1.5-.5 1.5-.5h2.5 2.5l1.5-.5 1.5-.5 2 .5 2 .5 2 1 2 1v-1.5-1.5-2-2-2-2-2.5-2.5-2-2-2.5-2.5-2-2-2.5-2.5-2-2-2.5-2.5-1.5-1.5h-1.5-1.5l-.5.5-.5.5h-1.5-1.5l-2-.5-2-.5-.5-1-.5-1 1.5-.5 1.5-.5h2.5 2.5 1 1l1 .5 1 .5v-2.5-2.5-2-2-2.5-2.5-2-2-2.5-2.5-2-2-2.5-2.5-2-2-1.5-1.5l-1-.5-1-.5v-1.5-1.5-1-1l-.5-.5-.5-.5-.5-.5-.5-.5h-1.5-1.5l-.5-.5-.5-.5v-1-1l.5-.5.5-.5h1.5 1.5l.5.5.5.5.5.5.5.5.5.5.5.5.5 2 .5 2v-3-3-2.5-2.5l-1 .5-1 .5-1.5-.5-1.5-.5-1.5-1-1.5-1-1.5-.5-1.5-.5-.5-.5-.5-.5-1-.5-1-.5h-2-2v2.5 2.5l-.5 1.5-.5 1.5h-1-1l-2-1-2-1-1-1.5-1-1.5-1.5-.5-1.5-.5h-2.5-2.5l-1.5-.5-1.5-.5-1-1-1-1-.5-1-.5-1-1-1.5-1-1.5-1-1-1-1 .5 1 .5 1 .5 1 .5 1-1.5 1-1.5 1-1 1-1 1h-.5-.5l-1-1-1-1-1 1-1 1-1.5 1-1.5 1-1 1-1 1h-1.5-1.5-1-1l1 1.5 1 1.5 1 .5 1 .5 1 .5 1 .5v1 1h1 1l.5-.5.5-.5h1.5 1.5l1.5.5 1.5.5h1 1l1.5.5 1.5.5h1.5 1.5l.5 1.5.5 1.5-.5 2-.5 2-1.5.5-1.5.5-1.5-.5-1.5-.5h-2.5-2.5-2-2l-1.5-1-1.5-1-1.5-.5-1.5-.5-1.5-.5-1.5-.5-2-.5-2-.5-1.5-.5-1.5-.5-.5-2-.5-2v-2.5-2.5l-.5-.5-.5-.5-.5-1-.5-1-.5-1.5-.5-1.5-.5-1.5-.5-1.5-1-1.5-1-1.5h-2-2-2.5-2.5l-2 .5-2 .5-1 .5-1 .5-1.5.5-1.5.5 2 4.5 2 4.5 4.5 5.5 4.5 5.5-1.5-.5-1.5-.5h-1-1l-1-.5-1-.5h-1-1l-1.5-.5-1.5-.5-10.5-7-10.5-7-11.5-1-11.5-1-17.5-2.5-17.5-2.5-2-.5-2-.5-1.5-.5-1.5-.5-1.5-.5-1.5-.5-1.5-1-1.5-1-1.5-.5-1.5-.5-3-11-3-11 11-1.5 11-1.5 16-10.5 16-10.5h-3.5-3.5l-11 2-11 2h-13.5-13.5l-16 11-16 11-1.5-.5-1.5-.5 1 1 1 1 1 1 1 1v1 1l.5.5.5.5.5.5.5.5 1 .5 1 .5 1.5.5 1.5.5v1 1l.5 1 .5 1-.5 1.5-.5 1.5-.5 1-.5 1 1 2 1 2 1-1 1-1 1-1.5 1-1.5 1 1 1 1-.5 1.5-.5 1.5.5 2 .5 2 .5 1.5.5 1.5.5 2 .5 2v2.5 2.5l-.5 1.5-.5 1.5.5 1.5.5 1.5.5-2 .5-2v-2-2l.5-1.5.5-1.5.5-1 .5-1 1 1 1 1v1.5 1.5 2 2l.5 2 .5 2-1 1-1 1h-1-1l-1-1-1-1v2 2l2 1 2 1 2 .5 2 .5 2-.5 2-.5.5-1 .5-1v-1-1l.5-1 .5-1 .5-.5.5-.5.5-.5.5-.5.5-.5.5-.5 1-.5 1-.5 1-1 1-1 .5-1 .5-1 9.5 7 9.5 7-2-1-2-1-1-1-1-1-2 .5-2 .5-1.5.5-1.5.5-1 1-1 1-1 1.5-1 1.5-1 1-1 1-1.5 1-1.5 1-2 .5-2 .5-1 .5-1 .5h-1-1l-2.5-.5-2.5-.5-1-1-1-1-1.5-.5-1.5-.5-.5 1.5-.5 1.5v1.5 1.5 1 1l-.5 1-.5 1-.5.5-.5.5v1 1h-1-1l-1-.5-1-.5v-1-1-1-1l-.5-.5-.5-.5v-1.5-1.5-1-1l-.5-.5-.5-.5v-2-2l-1-1.5-1-1.5-.5-1.5-.5-1.5v-2.5-2.5-2-2l-.5-1.5-.5-1.5 1-1.5 1-1.5v-.5-.5-1.5-1.5l-.5-.5-.5-.5-1-.5-1-.5-2-1-2-1-10-10.5-10-10.5-3.5 4.5-3.5 4.5-7 5.5-7 5.5-18 5-18 5 6.5-8.5 6.5-8.5-13.5 4-13.5 4-15.5 4.5-15.5 4.5v17.5 17.5 18 18 17.5 17.5 12.5 12.5" style="fill:#d8d4c8;stroke:#d8d4c8" />
        <path d="m13 959v1h1.5 1.5 2 2 2.5 2.5 2 2 2.5 2.5 2 2l31-.5 31-.5h18 18l-15-.5-15-.5h-18-18l-16-1.5-16-1.5-8.5-5-8.5-5-4 7-4 7" style="fill:#bbb7ab;stroke:#bbb7ab" />
        <path d="m166 959v1h1.5 1.5 2 2 2.5 2.5 1.5 1.5v-.5-.5l-1-1.5-1-1.5-1-.5-1-.5-2-1-2-1-1-1-1-1-1.5-.5-1.5-.5-1-1-1-1 7 1.5 7 1.5 1.5.5 1.5.5.5 1 .5 1 1 1 1 1 2 .5 2 .5 1 1.5 1 1.5h2.5 2.5 1.5 1.5l.5-1 .5-1-1-1-1-1-1-.5-1-.5h-1-1l-1-1-1-1-1.5-.5-1.5-.5-1.5-.5-1.5-.5-.5-.5-.5-.5-13.5-11.5-13.5-11.5.5 1 .5 1 1 1 1 1 1.5.5 1.5.5 2 .5 2 .5h-2-2l-2-.5-2-.5-1-1-1-1 1 1.5 1 1.5v2 2h-1-1l-1-1-1-1-1-1-1-1-.5.5-.5.5h-.5-.5l.5 1 .5 1 .5 1 .5 1 .5.5.5.5-.5.5-.5.5h-1-1l-1 .5-1 .5-.5.5-.5.5v1 1l.5.5.5.5.5 1 .5 1h1 1l1 1 1 1 .5 1 .5 1 1.5.5 1.5.5 1.5.5 1.5.5 1.5 1 1.5 1 1.5.5 1.5.5 2 .5 2 .5v1 1h-2-2-1.5-1.5" style="fill:#979384;stroke:#979384" />
        <path d="m181 959v1h1.5 1.5 2 2 2 2l-1-1.5-1-1.5-2-.5-2-.5-1-1-1-1-.5-1-.5-1-1.5-.5-1.5-.5 1.5 1.5 1.5 1.5 1 1.5 1 1.5h-1-1l-1.5-1-1.5-1h-1.5-1.5l1 .5 1 .5 1 1.5 1 1.5" style="fill:#3d3529;stroke:#3d3529" />
        <path d="m258 959v1h1.5 1.5 2 2 1 1l1-.5 1-.5-1.5-1-1.5-1-1-1-1-1-1-1-1-1-1-1.5-1-1.5h-2-2l.5 2 .5 2v2 2h-2.5-2.5l.5.5.5.5h2.5 2.5" style="fill:#bbb7ab;stroke:#bbb7ab" />
        <path d="m320 959v1h1.5 1.5 2 2 1.5 1.5v-.5-.5l-1.5-1-1.5-1 1-1 1-1 1-1 1-1 2-.5 2-.5 1.5-.5 1.5-.5 2-1.5 2-1.5v-.5-.5l1.5-.5 1.5-.5.5-.5.5-.5.5-.5.5-.5.5-1 .5-1 .5-.5.5-.5-.5-.5-.5-.5-.5-.5-.5-.5-1-.5-1-.5h-2-2-1-1-1.5-1.5l-1.5.5-1.5.5-.5.5-.5.5h-1-1-1.5-1.5l-2 1-2 1-2 .5-2 .5-1.5.5-1.5.5-2 .5-2 .5.5 1.5.5 1.5.5 1.5.5 1.5 1.5 1 1.5 1 1 1 1 1 1.5 1 1.5 1-1 1-1 1" style="fill:#979384;stroke:#979384" />
        <path d="m330 959v1h1.5 1.5 2 2 2.5 2.5 2 2 2.5 2.5.5.5v-1.5-1.5-2.5-2.5-2-2-2-2-.5-.5l-1 .5-1 .5-1.5 1-1.5 1-1.5.5-1.5.5-1 .5-1 .5-2 1.5-2 1.5-1.5.5-1.5.5-2 .5-2 .5-1 1-1 1-1 1-1 1 1.5 1 1.5 1" style="fill:#d8d4c8;stroke:#d8d4c8" />
        <path d="m183 957h2l-1-1.5-1-1.5-1.5-1.5-1.5-1.5-1-.5-1-.5-1.5-.5-1.5-.5h-1-1-1-1-1-1l-1.5-.5-1.5-.5 1 1 1 1 1.5.5 1.5.5 1 1 1 1 2 1 2 1h1.5 1.5l1.5 1 1.5 1" style="fill:#391d12;stroke:#391d12" />
        <path d="m324 954l21-12-5.5 1.5-5.5 1.5-6.5 3.5-6.5 3.5-1-1.5-1-1.5.5-1 .5-1h2 2l1 1.5 1 1.5v1 1h-1.5-1.5-1-1l1.5 1 1.5 1" style="fill:#585347;stroke:#585347" />
        <path d="m323 952h3v-1-1l-1-1.5-1-1.5h-2-2l-.5 1-.5 1 1 1.5 1 1.5h1 1" style="fill:#3d3529;stroke:#3d3529" />
        <path d="m178 950l2 1-7-1.5-7-1.5 1.5.5 1.5.5h1 1 1 1 1 1l1.5.5 1.5.5" style="fill:#641b07;stroke:#641b07" />
        <g style="fill:#bbb7ab;stroke:#bbb7ab">
            <path d="m186 950l1 1-14-13.5-14-13.5-7.5-10.5-7.5-10.5 4-5.5 4-5.5h-12-12l-13.5 1.5-13.5 1.5-11.5-2.5-11.5-2.5.5 1 .5 1 .5 1.5.5 1.5v2.5 2.5h3 3l1-.5 1-.5h2 2l1.5-.5 1.5-.5h2.5 2.5l1-1 1-1 2-.5 2-.5 1.5-.5 1.5-.5 2-.5 2-.5h2 2l2 .5 2 .5v1 1l-1 1-1 1-2 .5-2 .5h-2-2l-2 .5-2 .5-1.5.5-1.5.5-1.5 1-1.5 1-1 .5-1 .5-2 .5-2 .5-.5.5-.5.5h-1.5-1.5l-1 1-1 1-2 .5-2 .5-1 1-1 1-2 .5-2 .5-1 1-1 1v2.5 2.5l-1 1-1 1h-1.5-1.5l-1.5-.5-1.5-.5h-1-1l-.5-.5-.5-.5-.5-.5-.5-.5-1-.5-1-.5v-1-1l.5-.5.5-.5.5-1.5.5-1.5h11.5 11.5l11-5.5 11-5.5 5.5 5.5 5.5 5.5 6.5-5.5 6.5-5.5 12.5 13.5 12.5 13.5 13.5 11.5 13.5 11.5" />
            <path d="m153 948l3 1-1-1-1-1h-1-1l-.5-1-.5-1-.5-.5-.5-.5v-1-1l.5-.5.5-.5 1-.5 1-.5h1 1l.5-.5.5-.5-.5-.5-.5-.5-.5-1-.5-1-.5-1-.5-1-.5-2-.5-2-1-1-1-1-1.5-1-1.5-1-1.5-.5-1.5-.5-1-2-1-2-1-1-1-1-.5-1.5-.5-1.5-1.5-1-1.5-1-1.5.5-1.5.5-1.5-.5-1.5-.5-2-.5-2-.5-1.5-.5-1.5-.5-1-.5-1-.5 13.5 10 13.5 10 2.5 8.5 2.5 8.5" />
            <path d="m342 947v1l1-.5 1-.5 1.5-.5 1.5-.5 1.5-1 1.5-1 1-.5 1-.5v-2-2l-2-1-2-1-2-.5-2-.5-1.5.5-1.5.5h-2.5-2.5l-1.5.5-1.5.5-2 .5-2 .5-1 .5-1 .5h1.5 1.5 1 1l.5-.5.5-.5 1.5-.5 1.5-.5h1.5 1.5 1 1 2 2l1 .5 1 .5.5.5.5.5.5.5.5.5-.5.5-.5.5-.5 1-.5 1-.5.5-.5.5-.5.5-.5.5-1.5.5-1.5.5" />
            <path d="m237 946l3 1-.5-.5-.5-.5-1-1.5-1-1.5-.5-1.5-.5-1.5-1.5-1-1.5-1-1-1-1-1-.5-2-.5-2 1.5-.5 1.5-.5-.5-1-.5-1-2 1-2 1-.5 1.5-.5 1.5-1 1.5-1 1.5h-2-2l-1.5-.5-1.5-.5-11-7-11-7-10.5-7.5-10.5-7.5 11.5 4 11.5 4 18 2 18 2 1.5 1 1.5 1 1.5.5 1.5.5 1 1 1 1-10.5-1.5-10.5-1.5-12-5-12-5-12-5.5-12-5.5 3 7 3 7 11 6.5 11 6.5 11.5 6.5 11.5 6.5 6.5 3 6.5 3" />
            <path d="m246 945l3 1 1.5-.5 1.5-.5v-1.5-1.5l-.5-1.5-.5-1.5-1-1.5-1-1.5-.5-1.5-.5-1.5h-.5-.5l.5 1.5.5 1.5.5 1.5.5 1.5.5.5.5.5v1 1l-.5.5-.5.5-1.5-.5-1.5-.5-1-.5-1-.5-1-.5-1-.5 1 2 1 2 1 .5 1 .5" />
        </g>
        <g style="fill:#585347;stroke:#585347">
            <path d="m246 942l3 1 .5-.5.5-.5v-1-1l-.5-.5-.5-.5-.5-1.5-.5-1.5-.5-1.5-.5-1.5-.5-1.5-.5-1.5-.5-1.5-.5-1.5-1-1.5-1-1.5h-.5-.5l-1-1-1-1-1.5-.5-1.5-.5-1.5-1-1.5-1h-1.5-1.5-1.5-1.5l-.5 1.5-.5 1.5.5 1.5.5 1.5 1.5 1 1.5 1 .5 1 .5 1 .5 1 .5 1 .5 1 .5 1 1 1 1 1 1.5 1 1.5 1 1 1 1 1 .5.5.5.5 1 .5 1 .5 1 .5 1 .5" />
            <path d="m159 937h2v-2-2l-1-1.5-1-1.5-1.5-.5-1.5-.5-.5 2-.5 2 1 1 1 1 1 1 1 1" />
        </g>
        <g style="fill:#979384;stroke:#979384">
            <path d="m218 936l3 1h2 2l1-1.5 1-1.5.5-1.5.5-1.5 2-1 2-1-.5-1-.5-1-1.5-1-1.5-1-.5-1.5-.5-1.5.5-1.5.5-1.5h1.5 1.5 1.5 1.5l-18-2-18-2 .5 1 .5 1 1.5.5 1.5.5 1.5 1 1.5 1 1.5.5 1.5.5 1.5 1 1.5 1 1 1 1 1h2.5 2.5l1.5-.5 1.5-.5 2 1 2 1 1 .5 1 .5v2 2l-1 1.5-1 1.5-1.5.5-1.5.5h-1.5-1.5l-10-7-10-7-.5-3-.5-3-11.5-4-11.5-4 10.5 7.5 10.5 7.5 11 7 11 7" />
            <path d="m34 935l3 1 1-1 1-1v-2.5-2.5l-.5-1.5-.5-1.5h-.5-.5v2 2l.5.5.5.5v1 1l-.5.5-.5.5-1.5-.5-1.5-.5-.5-1-.5-1v-1.5-1.5l1-1.5 1-1.5 1 .5 1 .5-1.5-2-1.5-2-1 1-1 1v2.5 2.5 2 2l1 1 1 1" />
        </g>
        <path d="m219 935h3l1.5-.5 1.5-.5 1-1.5 1-1.5v-2-2l-1-.5-1-.5.5 2 .5 2-1.5 1-1.5 1-1 1-1 1-1.5-.5-1.5-.5-1-1.5-1-1.5-.5-1.5-.5-1.5 2-.5 2-.5 1.5-.5 1.5-.5 1.5.5 1.5.5-2-1-2-1-1.5.5-1.5.5h-2.5-2.5l-1-1-1-1-1.5-1-1.5-1-1.5-.5-1.5-.5-1.5-1-1.5-1-1.5-.5-1.5-.5-.5-1-.5-1 .5 3 .5 3 10 7 10 7" style="fill:#84766a;stroke:#84766a" />
        <path d="m331 935l12-9-9-4-9-4-.5 2-.5 2 1.5 1 1.5 1 1 1 1 1-.5.5-.5.5-1.5 1-1.5 1 1.5.5 1.5.5 1.5 1 1.5 1v1 1 .5.5" style="fill:#efebde;stroke:#efebde" />
        <path d="m154 934l1-1 .5-2 .5-2 1.5.5 1.5.5 1 1 1 1 2 .5 2 .5h2 2l-2-.5-2-.5-1.5-.5-1.5-.5-1-1-1-1-.5-1-.5-1-1-.5-1-.5-1-.5-1-.5-1-1-1-1-1-1-1-1-1-1.5-1-1.5-1-1-1-1-1.5-.5-1.5-.5-.5-.5-.5-.5-1-.5-1-.5-.5.5-.5.5.5 2 .5 2 .5 1.5.5 1.5 1 2 1 2 1.5.5 1.5.5 1.5 1 1.5 1 1 1 1 1 .5 2 .5 2h.5.5" style="fill:#84766a;stroke:#84766a" />
        <path d="m22 933l4-26 6 3.5 6 3.5 12-3.5 12-3.5h-1-1l-1 .5-1 .5-1 .5-1 .5-1.5-.5-1.5-.5-1-2-1-2-.5-1.5-.5-1.5-.5-2-.5-2 .5-2 .5-2 1-1 1-1 1.5-.5 1.5-.5h2.5 2.5l1.5.5 1.5.5 1.5.5 1.5.5 1.5-1 1.5-1 .5-1.5.5-1.5 1.5-1 1.5-1 1 1 1 1 1.5 1.5 1.5 1.5-7.5-1.5-7.5-1.5-8 3-8 3-2.5-3-2.5-3-3.5 2-3.5 2-4-8-4-8-1 9.5-1 9.5-8 8.5-8 8.5 1.5-1 1.5-1 1-1 1-1 1-1 1-1 2 .5 2 .5.5 1.5.5 1.5-.5 2-.5 2v2 2l-1 1.5-1 1.5-1 1-1 1h-1-1l-1-.5-1-.5-.5-.5-.5-.5-.5-.5-.5-.5-.5-1-.5-1v-1-1-2-2l-.5 1-.5 1-.5 2-.5 2 .5 1.5.5 1.5 1 1.5 1 1.5 1 1 1 1 1 1 1 1 1.5 1 1.5 1 .5 1.5.5 1.5 2 .5 2 .5" style="fill:#bbb7ab;stroke:#bbb7ab" />
        <path d="m34 933l3 1 .5-.5.5-.5v-1-1l-.5-.5-.5-.5v-2-2l-1-.5-1-.5-1 1.5-1 1.5v1.5 1.5l.5 1 .5 1" style="fill:#84766a;stroke:#84766a" />
        <path d="m218 933l3 1 1-1 1-1 1.5-1 1.5-1-.5-2-.5-2-1.5-.5-1.5-.5-1.5.5-1.5.5-2 .5-2 .5.5 1.5.5 1.5 1 1.5 1 1.5" style="fill:#7c574d;stroke:#7c574d" />
        <path d="m275 932l-8-13-6.5 1.5-6.5 1.5 10.5 5 10.5 5" style="fill:#efebde;stroke:#efebde" />
        <path d="m157 926l2 1-12.5-13.5-12.5-13.5-6.5 5.5-6.5 5.5 1 .5 1 .5 1.5.5 1.5.5 2 .5 2 .5 1.5.5 1.5.5 1.5-.5 1.5-.5 1.5 1 1.5 1 .5 1.5.5 1.5 1 1 1 1-.5-1.5-.5-1.5-.5-2-.5-2 .5-.5.5-.5 1 .5 1 .5.5.5.5.5 1.5.5 1.5.5 1 1 1 1 1 1.5 1 1.5 1 1 1 1 1 1 1 1 1 .5 1 .5" style="fill:#979384;stroke:#979384" />
        <g style="fill:#84766a;stroke:#84766a">
            <path d="m14 922h2l1-1 1-1 1-1.5 1-1.5v-2-2l.5-2 .5-2-.5-1.5-.5-1.5-2-.5-2-.5-1 1-1 1-1 1-1 1-1.5 1-1.5 1v2 2 1 1l.5 1 .5 1 .5.5.5.5.5.5.5.5 1 .5 1 .5" />
            <path d="m72 921h3l1-1 1-1v-2.5-2.5l1-1 1-1 2-.5 2-.5 1-1 1-1 2-.5 2-.5 1-1 1-1h1.5 1.5l.5-.5.5-.5 2-.5 2-.5v-.5-.5l1-.5 1-.5v-1.5-1.5l-1.5.5-1.5.5h-1-1-1.5-1.5-2-2-1.5-1.5-3-3v-2.5-2.5l-.5-1.5-.5-1.5-.5-1-.5-1-1.5-1.5-1.5-1.5-1-1-1-1-1.5 1-1.5 1-.5 1.5-.5 1.5-1.5 1-1.5 1-1.5-.5-1.5-.5-1.5-.5-1.5-.5h-2.5-2.5l-1.5.5-1.5.5-1 1-1 1v1.5 1.5 1 1l.5 1 .5 1 .5.5.5.5.5.5.5.5.5.5.5.5.5 1 .5 1 1 1 1 1h1.5 1.5 1 1 3 3l-1 1-1 1-.5 1-.5 1-.5 1.5-.5 1.5-.5.5-.5.5v1 1l1 .5 1 .5.5.5.5.5.5.5.5.5h1 1l1.5.5 1.5.5" />
        </g>
        <path d="m295 920l3 1 1.5-.5 1.5-.5 2-.5 2-.5 1-1 1-1 1-1 1-1-1.5.5-1.5.5-1.5 1-1.5 1-1.5.5-1.5.5h-1-1l-1.5-.5-1.5-.5-.5-.5-.5-.5v-1-1l.5-.5.5-.5.5-1 .5-1h1 1l.5-.5.5-.5.5-.5.5-.5 1-.5 1-.5h1 1l.5-.5.5-.5.5-.5.5-.5 1 .5 1 .5h1 1 1 1l.5.5.5.5h1 1l.5.5.5.5-1 1.5-1 1.5-6.5-2-6.5-2-3 5.5-3 5.5" style="fill:#bbb7ab;stroke:#bbb7ab" />
        <path d="m344 920l3 1 1.5-.5 1.5-.5v-2.5-2.5l-1.5-.5-1.5-.5h-2.5-2.5l.5 1.5.5 1.5.5 1.5.5 1.5" style="fill:#efebde;stroke:#efebde" />
        <path d="m298 919h2l1.5-.5 1.5-.5 1.5-1 1.5-1 1.5-.5 1.5-.5 2-.5 2-.5.5-.5.5-.5 1-1.5 1-1.5-.5-.5-.5-.5h-1-1l-.5-.5-.5-.5h-1-1-1-1l-1-.5-1-.5-.5.5-.5.5-.5.5-.5.5h-1-1l-1 .5-1 .5-.5.5-.5.5-.5.5-.5.5h-1-1l-.5 1-.5 1-.5.5-.5.5v1 1l.5.5.5.5 1.5.5 1.5.5" style="fill:#979384;stroke:#979384" />
        <path d="m70 918l20-13-6.5 1.5-6.5 1.5-3.5 5-3.5 5" style="fill:#585347;stroke:#585347" />
        <path d="m314 918l3 1h2 2l2-.5 2-.5-1-1-1-1-2-.5-2-.5h-2-2l-1.5 1-1.5 1 .5.5.5.5h.5.5" style="fill:#efebde;stroke:#efebde" />
        <path d="m331 918l3 1 1-1 1-1-1-1.5-1-1.5-1-1-1-1-2-.5-2-.5v2 2l1 1.5 1 1.5h.5.5" style="fill:#bbb7ab;stroke:#bbb7ab" />
        <g style="fill:#585347;stroke:#585347">
            <path d="m12 916l3 1 .5-1.5.5-1.5 1-1.5 1-1.5v-1-1h-1.5-1.5l-1 1-1 1-1 1.5-1 1.5.5 1 .5 1" />
            <path d="m298 916l3 1 1-1 1-1 1.5-1 1.5-1 1.5-.5 1.5-.5-1.5-1-1.5-1-1.5.5-1.5.5-1.5 1-1.5 1-1 1-1 1v.5.5" />
        </g>
        <path d="m204 911h2l.5-1.5.5-1.5-1-1.5-1-1.5-1.5-.5-1.5-.5h-2.5-2.5-1-1l-1 .5-1 .5 1 1 1 1 1.5.5 1.5.5 1.5 1 1.5 1 1.5.5 1.5.5" style="fill:#efebde;stroke:#efebde" />
        <path d="m128 910l3 1h2 2l1.5-1 1.5-1 .5-1.5.5-1.5-1.5-1-1.5-1-1.5-.5-1.5-.5-1.5-1-1.5-1-1.5.5-1.5.5 1 .5 1 .5 2 .5 2 .5 1.5 1 1.5 1-.5 1.5-.5 1.5h-1-1l-1.5-1-1.5-1h-2-2l.5 1.5.5 1.5h.5.5" style="fill:#772f27;stroke:#772f27" />
        <path d="m133 909h2l.5-1.5.5-1.5-1.5-1-1.5-1-2-.5-2-.5-1 1-1 1-.5 1-.5 1h2 2l1.5 1 1.5 1" style="fill:#641b07;stroke:#641b07" />
        <path d="m294 909l-14-11-10.5-7.5-10.5-7.5-8.5 3-8.5 3 14.5 3.5 14.5 3.5 11 6.5 11 6.5h.5.5" style="fill:#efebde;stroke:#efebde" />
        <path d="m53 908l3 1 1-.5 1-.5 1-.5 1-.5h-1.5-1.5l-1-1-1-1-.5-1-.5-1-.5-.5-.5-.5-.5-.5-.5-.5-.5-.5-.5-.5-.5-1-.5-1v-1-1-1.5-1.5l-.5 2-.5 2 .5 2 .5 2 .5 1.5.5 1.5 1 2 1 2" style="fill:#979384;stroke:#979384" />
        <path d="m299 904l3 1-.5-1.5-.5-1.5-1.5-1-1.5-1-1-1-1-1-1-1.5-1-1.5-1.5-.5-1.5-.5-1-1.5-1-1.5-1-1-1-1h-1-1l1.5 1 1.5 1v1 1l.5.5.5.5-.5.5-.5.5-1 .5-1 .5h-1.5-1.5l1 .5 1 .5 2 .5 2 .5 1.5.5 1.5.5 2 .5 2 .5 1 1 1 1 .5 1 .5 1" style="fill:#bbb7ab;stroke:#bbb7ab" />
        <path d="m99 903v1l1-.5 1-.5 1.5-1 1.5-1 1.5-.5 1.5-.5 2-.5 2-.5h2 2l2-.5 2-.5 1-1 1-1v-1-1l-2-.5-2-.5h-2-2l-2 .5-2 .5h2 2 2 2l1 1.5 1 1.5h-2-2-2.5-2.5l-1.5.5-1.5.5h-1.5-1.5l1-1 1-1 1.5-1 1.5-1-1.5.5-1.5.5-2 .5-2 .5-1 1-1 1h-2.5-2.5l-1.5.5-1.5.5h-2-2l-1 .5-1 .5h1.5 1.5 2 2 1.5 1.5 1 1l1.5-.5 1.5-.5v1.5 1.5l-1 .5-1 .5" style="fill:#979384;stroke:#979384" />
        <path d="m59 902l15-10-8 5-8 5h.5.5" style="fill:#772f27;stroke:#772f27" />
        <path d="m319 902l5-16 7.5-4.5 7.5-4.5h-11.5-11.5l13 3.5 13 3.5-15.5 7-15.5 7-1.5-2-1.5-2 1 2.5 1 2.5 1.5.5 1.5.5 2 .5 2 .5 1 .5 1 .5" style="fill:#bbb7ab;stroke:#bbb7ab" />
        <path d="m104 898h3l1.5-.5 1.5-.5h2.5 2.5 2 2l-1-1.5-1-1.5h-2-2-2-2l-1.5 1-1.5 1-1 1-1 1" style="fill:#84766a;stroke:#84766a" />
        <path d="m311 898l31-14-13-3.5-13-3.5h-12-12l8 8.5 8 8.5 1.5 2 1.5 2" style="fill:#979384;stroke:#979384" />
        <path d="m312 896l14-13-3-2-3-2-1 .5-1 .5v1 1l-1 1-1 1-.5.5-.5.5-1 .5-1 .5v1 1l.5.5.5.5.5 1 .5 1-.5 1.5-.5 1.5h-1-1-.5-.5l.5 1 .5 1" style="fill:#585347;stroke:#585347" />
        <path d="m279 895l3 1h.5.5 1.5 1.5l1-.5 1-.5.5-.5.5-.5-.5-.5-.5-.5v-1-1l-1.5-1-1.5-1-1-1-1-1-1-1.5-1-1.5-.5-.5-.5-.5-1-1.5-1-1.5-2-.5-2-.5-1 1-1 1-.5 2-.5 2 .5 2 .5 2 1 1.5 1 1.5 1 1 1 1 1.5.5 1.5.5" style="fill:#979384;stroke:#979384" />
        <path d="m312 894h2l.5-1.5.5-1.5-.5-1-.5-1-.5-.5-.5-.5v-1-1l1-.5 1-.5.5-.5.5-.5 1-1 1-1v-1-1h-2.5-2.5-.5-.5l-1 .5-1 .5-1.5 1-1.5 1h-2-2l-1-1.5-1-1.5-1 1-1 1 .5 2 .5 2 1.5.5 1.5.5 1.5 1 1.5 1 1 .5 1 .5 1.5 1 1.5 1v1 1h.5.5" style="fill:#3d3529;stroke:#3d3529" />
        <path d="m135 893l3 1h2 2 2.5 2.5l.5-1.5.5-1.5-2-.5-2-.5-1.5.5-1.5.5-2 .5-2 .5-1 .5-1 .5" style="fill:#84766a;stroke:#84766a" />
        <path d="m281 893l3 1-.5-1.5-.5-1.5-1.5-1-1.5-1-.5-1.5-.5-1.5-1-1.5-1-1.5-1.5.5-1.5.5.5 2 .5 2 1 1 1 1 1 1 1 1 1 .5 1 .5" style="fill:#585347;stroke:#585347" />
        <g style="fill:#bbb7ab;stroke:#bbb7ab">
            <path d="m341 893l4 1h1.5 1.5l.5-.5.5-.5h1.5 1.5v-1-1l-1-.5-1-.5h-1-1-2.5-2.5l-1.5.5-1.5.5.5 1 .5 1" />
            <path d="m199 892l-13-12-15.5.5-15.5.5 6.5 4.5 6.5 4.5v-.5-.5l-1.5-.5-1.5-.5-1-.5-1-.5 7-2.5 7-2.5 1 3 1 3-1.5.5-1.5.5-.5.5-.5.5h-1-1-2-2l2 .5 2 .5h2 2l1.5-1 1.5-1 1.5-.5 1.5-.5 2-.5 2-.5 1.5.5 1.5.5 2 .5 2 .5 1 1 1 1 1.5.5 1.5.5" />
            <path d="m222 890h2l1.5-.5 1.5-.5 1.5-1 1.5-1 .5-1 .5-1-2 .5-2 .5-1 1-1 1-1.5-.5-1.5-.5.5-1 .5-1 .5-1 .5-1 .5-1 .5-1-2 1-2 1-1 1-1 1v1.5 1.5l1 1 1 1h.5.5" />
        </g>
        <path d="m80 889l3 1 1.5-.5 1.5-.5 2-.5 2-.5 1.5.5 1.5.5 1-1.5 1-1.5-1.5-.5-1.5-.5-2-.5-2-.5-1.5.5-1.5.5h-2-2l-1 1.5-1 1.5.5.5.5.5" style="fill:#efebde;stroke:#efebde" />
        <path d="m168 889v1h.5.5 2 2 1 1l.5-.5.5-.5 1.5-.5 1.5-.5.5-1 .5-1 1-.5 1-.5.5-.5.5-.5-.5-.5-.5-.5h-1-1-1.5-1.5-1-1-1-1-1-1-1.5-1.5-2-2-1-1l.5 1 .5 1 1 1.5 1 1.5 1.5.5 1.5.5" style="fill:#84766a;stroke:#84766a" />
        <path d="m304 889l3 1h.5.5l-1-.5-1-.5-1.5-1-1.5-1-1.5-.5-1.5-.5-.5-2-.5-2 1-1 1-1 1 1.5 1 1.5h2 2l1.5-1 1.5-1 1-.5 1-.5h-2.5-2.5l-1-1.5-1-1.5-1-1-1-1-2 .5-2 .5-1 1-1 1 .5 2 .5 2 .5 1.5.5 1.5.5 1.5.5 1.5 2 .5 2 .5" style="fill:#585347;stroke:#585347" />
        <g style="fill:#bbb7ab;stroke:#bbb7ab">
            <path d="m103 888v-17l5.5.5 5.5.5-9.5 3-9.5 3-.5-1.5-.5-1.5.5-.5.5-.5.5-.5.5-.5.5-.5.5-.5-.5-1-.5-1-.5-.5-.5-.5v-1-1l-.5-.5-.5-.5-.5-1-.5-1v-1-1l.5-.5.5-.5.5-1.5.5-1.5v-1.5-1.5-2.5-2.5l-3.5-11.5-3.5-11.5 7.5 12 7.5 12-3.5-14-3.5-14-4.5 10.5-4.5 10.5 2.5 12 2.5 12 4 10 4 10h1.5 1.5" />
            <path d="m270 888l2 1-.5-2-.5-2 .5-2 .5-2 1-1 1-1 2 .5 2 .5 1 1.5 1 1.5-.5-1.5-.5-1.5-1-1-1-1h-1-1l-2 .5-2 .5-1.5.5-1.5.5-1.5 1-1.5 1 .5 1.5.5 1.5 1.5 1 1.5 1 .5.5.5.5" />
        </g>
        <path d="m163 887l2 1-1-1.5-1-1.5-.5-1-.5-1h1 1 2 2 1.5 1.5 1 1 1 1 1 1 1.5 1.5 1 1l.5.5.5.5-.5.5-.5.5-1 .5-1 .5-.5 1-.5 1-1-3-1-3-7 2.5-7 2.5" style="fill:#979384;stroke:#979384" />
        <path d="m168 887l3 1h2 2l1.5-1 1.5-1-.5-.5-.5-.5-2-.5-2-.5h-2-2l-2 .5-2 .5 1 1 1 1h.5.5" style="fill:#585347;stroke:#585347" />
        <path d="m222 887l3 1 1-1 1-1 2-.5 2-.5h2 2l2-.5 2-.5 1.5-.5 1.5-.5 2-.5 2-.5v-.5-.5l1-.5 1-.5.5-1 .5-1-1-1-1-1-.5-.5-.5-.5-1-.5-1-.5h-2-2l-.5.5-.5.5-1 .5-1 .5h-2-2l-.5.5-.5.5h-1.5-1.5l-2 1-2 1v1 1l-.5 1-.5 1-.5 1-.5 1-.5 1-.5 1" style="fill:#979384;stroke:#979384" />
        <path d="m287 887h2l-.5-1.5-.5-1.5-.5-2-.5-2-1.5-.5-1.5-.5-.5 1-.5 1v2 2l1.5 1 1.5 1h.5.5" style="fill:#efebde;stroke:#efebde" />
        <path d="m64 883h2l1.5-.5 1.5-.5 1.5-1 1.5-1-.5-1.5-.5-1.5-2-.5-2-.5-1 1-1 1-1 1.5-1 1.5.5 1 .5 1" style="fill:#979384;stroke:#979384" />
        <path d="m228 882l9-4-3.5.5-3.5.5-1 1.5-1 1.5" style="fill:#585347;stroke:#585347" />
        <path d="m246 881v1h1.5 1.5l.5-1.5.5-1.5-.5-2-.5-2v-.5-.5l-1-.5-1-.5h-2.5-2.5l-1.5.5-1.5.5-2 .5-2 .5h-2-2l-1 1-1 1h1.5 1.5l.5-.5.5-.5h2 2l1-.5 1-.5.5-.5.5-.5h2 2l1 .5 1 .5.5.5.5.5 1 1 1 1-.5 1-.5 1-1 .5-1 .5" style="fill:#bbb7ab;stroke:#bbb7ab" />
        <path d="m95 878l19-6v-.5-.5-1.5-1.5-1.5-1.5l-.5 2.5-.5 2.5-.5 1.5-.5 1.5-1.5-.5-1.5-.5-.5-1.5-.5-1.5-.5-2-.5-2v-2-2h-2-2l-.5.5-.5.5-.5 1-.5 1v2 2l-.5.5-.5.5h-1.5-1.5l-.5-1.5-.5-1.5-.5-.5-.5-.5-.5-1-.5-1 .5-2.5.5-2.5-.5 1.5-.5 1.5-.5.5-.5.5v1 1l.5 1 .5 1 .5.5.5.5v1 1l.5.5.5.5.5 1 .5 1-.5.5-.5.5-.5.5-.5.5-.5.5-.5.5.5 1.5.5 1.5" style="fill:#979384;stroke:#979384" />
        <g style="fill:#bbb7ab;stroke:#bbb7ab">
            <path d="m255 878h2l1.5-.5 1.5-.5 2-.5 2-.5 1.5-.5 1.5-.5 2-.5 2-.5 1-1 1-1 1-1 1-1-2 .5-2 .5-1 1-1 1-2 .5-2 .5-1.5.5-1.5.5-2 .5-2 .5-1.5-.5-1.5-.5-1-.5-1-.5-.5-.5-.5-.5h-1-1l-.5-.5-.5-.5-.5-1-.5-1v-1-1l.5-.5.5-.5 1-1 1-1-2.5 1-2.5 1 .5 1.5.5 1.5 1 1.5 1 1.5v.5.5h1.5 1.5l1 1.5 1 1.5.5.5.5.5" />
            <path d="m145 876l25-4-12-3-12-3-.5 5-.5 5" />
        </g>
        <g style="fill:#979384;stroke:#979384">
            <path d="m255 875l3 1 2-.5 2-.5 1.5-.5 1.5-.5 2-.5 2-.5 1-1 1-1 2-.5 2-.5 1.5-.5 1.5-.5 1-1 1-1 .5-.5.5-.5-.5-2.5-.5-2.5h-2.5-2.5-2-2l-2-.5-2-.5-1.5-.5-1.5-.5-2 .5-2 .5-1 1-1 1-1.5.5-1.5.5-2 1-2 1-1 1-1 1-.5.5-.5.5v1 1l.5 1 .5 1 .5.5.5.5h1 1l.5.5.5.5 1 .5 1 .5" />
            <path d="m146 874l3 1 1.5-.5 1.5-.5-.5-2-.5-2-1-1-1-1h-2.5-2.5l-1 1-1 1 1 1.5 1 1.5 1 .5 1 .5" />
        </g>
        <path d="m227 874l-1-12-3.5 3.5-3.5 3.5 4 2.5 4 2.5" style="fill:#efebde;stroke:#efebde" />
        <path d="m159 873l3 1h2 2l.5-2 .5-2-1.5-.5-1.5-.5-2 .5-2 .5-1 1-1 1 .5.5.5.5" style="fill:#979384;stroke:#979384" />
        <path d="m109 872l3 1 .5-1.5.5-1.5.5-2.5.5-2.5.5-1 .5-1-.5-1.5-.5-1.5-1-1-1-1-2-.5-2-.5h-1-1l-.5 1-.5 1-2.5 1-2.5 1-.5 1.5-.5 1.5h-1-1v-2.5-2.5-1-1l.5-1 .5-1-.5-1.5-.5-1.5-1-2-1-2v1 1 2.5 2.5 1.5 1.5l-.5 2.5-.5 2.5.5 1 .5 1 .5.5.5.5.5 1.5.5 1.5h1.5 1.5l.5-.5.5-.5v-2-2l.5-1 .5-1 .5-.5.5-.5h2 2v2 2l.5 2 .5 2 .5 1.5.5 1.5" style="fill:#84766a;stroke:#84766a" />
        <path d="m260 872l1-10v4 4l-.5 1-.5 1" style="fill:#772f27;stroke:#772f27" />
        <g style="fill:#bbb7ab;stroke:#bbb7ab">
            <path d="m114 871v1l.5-1 .5-1 .5-1.5.5-1.5v-2.5-2.5-2-2l-1-1.5-1-1.5-1.5-.5-1.5-.5-2-.5-2-.5-1.5-.5-1.5-.5-.5-.5-.5-.5 1.5 1.5 1.5 1.5 1 1.5 1 1.5 2 .5 2 .5 1 1 1 1 .5 1.5.5 1.5-.5 1-.5 1v1.5 1.5 1.5 1.5" />
            <path d="m187 871l3 1 1.5-.5 1.5-.5 1-1.5 1-1.5v-1-1l-1.5 1-1.5 1-.5.5-.5.5-.5.5-.5.5-1.5-.5-1.5-.5-1-.5-1-.5v-1.5-1.5l1.5-1 1.5-1 .5-1 .5-1-2 1-2 1-1.5 1-1.5 1 .5 1.5.5 1.5 1 1.5 1 1.5h1 1" />
        </g>
        <path d="m187 869l3 1 .5-.5.5-.5.5-.5.5-.5 1.5-1 1.5-1 1.5-.5 1.5-.5 2-.5 2-.5 1.5-.5 1.5-.5v-.5-.5-.5-.5l.5-1 .5-1 .5-1.5.5-1.5-.5-1.5-.5-1.5-.5-2-.5-2-1-1-1-1-2 .5-2 .5-1 1-1 1v2.5 2.5l-1 1-1 1-1 .5-1 .5-2 1-2 1v.5.5l-.5 1-.5 1-1.5 1-1.5 1v1.5 1.5l1 .5 1 .5" style="fill:#979384;stroke:#979384" />
        <path d="m199 869h2l1.5-.5 1.5-.5 1-.5 1-.5 1.5-.5 1.5-.5-.5-1-.5-1-1.5.5-1.5.5-2 .5-2 .5-1.5.5-1.5.5v1 1h.5.5" style="fill:#efebde;stroke:#efebde" />
        <path d="m301 868l1-10-13 1-13 1-12.5 2.5-12.5 2.5 2-1 2-1 1.5-.5 1.5-.5 1-1 1-1 2-.5 2-.5 1.5.5 1.5.5 2 .5 2 .5h2 2 2.5 2.5l.5 2.5.5 2.5 1.5-2 1.5-2 1 1 1 1 2 .5 2 .5 1.5.5 1.5.5 2 .5 2 .5 1.5.5 1.5.5h.5.5" style="fill:#bbb7ab;stroke:#bbb7ab" />
        <path d="m303 867h2 2 2l1-1.5 1-1.5-.5-1.5-.5-1.5-2-.5-2-.5h-2-2-.5-.5-2-2l-.5-.5-.5-.5h-1-1-1.5-1.5l-1.5-.5-1.5-.5-.5.5-.5.5.5 1 .5 1 1.5.5 1.5.5h1 1l1 .5 1 .5 1.5 1 1.5 1 1.5 1 1.5 1h1 1" style="fill:#84766a;stroke:#84766a" />
        <g style="fill:#bbb7ab;stroke:#bbb7ab">
            <path d="m12 866l3 1 1.5-.5 1.5-.5 1.5-1 1.5-1 .5-1.5.5-1.5-1.5-1-1.5-1-1.5-.5-1.5-.5-1.5 1-1.5 1-.5 1.5-.5 1.5-.5 1.5-.5 1.5h.5.5" />
            <path d="m338 865l-8-11v5 5h2 2v-.5-.5.5.5l1.5.5 1.5.5h.5.5" />
        </g>
        <path d="m97 864h2l.5-1.5.5-1.5 2.5-1 2.5-1v-.5-.5l-.5-1-.5-1-1-.5-1-.5-.5-.5-.5-.5v-1-1l-.5-.5-.5-.5v-1.5-1.5l-.5-1.5-.5-1.5-1 .5-1 .5-1-.5-1-.5-1.5-1-1.5-1-.5-1.5-.5-1.5-1-1.5-1-1.5v-2-2l.5-1.5.5-1.5h1.5 1.5v-1.5-1.5h-1-1l-.5 1-.5 1-1 1-1 1v1 1 1.5 1.5l.5 1.5.5 1.5v1 1l.5.5.5.5.5.5.5.5.5 1 .5 1 .5.5.5.5 1 1 1 1 1 2 1 2 .5 1.5.5 1.5-.5 1-.5 1v1 1 2.5 2.5" style="fill:#585347;stroke:#585347" />
        <path d="m135 864h2v-1-1l.5-.5.5-.5.5-1 .5-1v-1-1-1.5-1.5l-.5 1-.5 1-.5 1-.5 1-1 .5-1 .5-1-1-1-1v-1-1-1-1l-.5-1-.5-1-.5-1.5-.5-1.5v2 2l.5.5.5.5v1 1 1.5 1.5l.5.5.5.5v1 1 1 1l1 .5 1 .5" style="fill:#bbb7ab;stroke:#bbb7ab" />
        <path d="m296 864l2 1-1.5-1-1.5-1-1-.5-1-.5h-1-1l-1.5-.5-1.5-.5-.5-1-.5-1 .5-.5.5-.5 1.5.5 1.5.5h1.5 1.5 1 1l.5.5.5.5h2 2l-2.5-1-2.5-1-1.5-.5-1.5-.5-2-.5-2-.5-1.5.5-1.5.5-1 1.5-1 1.5 1 1 1 1 2 .5 2 .5 1.5.5 1.5.5h1.5 1.5" style="fill:#979384;stroke:#979384" />
        <path d="m153 862l3 1 1-1 1-1 .5-2 .5-2-1.5-.5-1.5-.5-1.5 1-1.5 1-1.5.5-1.5.5 1 1.5 1 1.5h.5.5" style="fill:#efebde;stroke:#efebde" />
        <path d="m193 862l6-5-2 1-2 1-1 1.5-1 1.5" style="fill:#585347;stroke:#585347" />
        <path d="m205 861v1l-.5-8.5-.5-8.5-4.5 4.5-4.5 4.5-1 2-1 2 1-.5 1-.5 1-1 1-1v-2.5-2.5l1-1 1-1 2-.5 2-.5 1 1 1 1 .5 2 .5 2 .5 1.5.5 1.5-.5 1.5-.5 1.5-.5 1-.5 1" style="fill:#bbb7ab;stroke:#bbb7ab" />
        <path d="m332 861l3 1 1-1 1-1-2-.5-2-.5-1.5-.5-1.5-.5-2-.5-2-.5h-1-1l1.5 1 1.5 1 1.5.5 1.5.5 1 .5 1 .5" style="fill:#84766a;stroke:#84766a" />
        <path d="m348 861h2v-2-2l-.5-2-.5-2-1-1-1-1-1.5-1-1.5-1h-2-2l-.5 2-.5 2 1 1 1 1 1 1 1 1 1 1.5 1 1.5 1.5.5 1.5.5" style="fill:#efebde;stroke:#efebde" />
        <path d="m221 860l27-6-1.5-3.5-1.5-3.5h-1.5-1.5-2.5-2.5-2-2-2-2-1-1l-1 .5-1 .5-1 1-1 1-.5.5-.5.5-.5 1-.5 1-1 1-1 1v1.5 1.5l1 1 1 1" style="fill:#979384;stroke:#979384" />
        <path d="m129 859l1-1v-2-2-2.5-2.5l-1-1-1-1-.5-2-.5-2-1 1-1 1 1 1.5 1 1.5v2 2l.5 1.5.5 1.5.5 2 .5 2" style="fill:#efebde;stroke:#efebde" />
        <g style="fill:#979384;stroke:#979384">
            <path d="m135 859l2-1 .5-1 .5-1 .5-1 .5-1 .5-1.5.5-1.5v-2.5-2.5l-.5-1-.5-1v-2-2l-.5-1.5-.5-1.5.5-1.5.5-1.5v-2.5-2.5l-.5-2-.5-2-1-.5-1-.5v-1-1l-1-.5-1-.5-1.5-.5-1.5-.5-.5.5-.5.5v1.5 1.5l-.5 1.5-.5 1.5-1 1.5-1 1.5.5 1.5.5 1.5v2 2 2.5 2.5l.5 1.5.5 1.5 1 1.5 1 1.5.5 1.5.5 1.5.5 1 .5 1v1 1 1 1l1 1 1 1" />
            <path d="m105 858v1l.5-1 .5-1h1 1l-1-1.5-1-1.5-1.5-1.5-1.5-1.5-7.5-12-7.5-12 3.5 11.5 3.5 11.5v-1-1l-1-1-1-1-.5-.5-.5-.5-.5-1-.5-1-.5-.5-.5-.5-.5-.5-.5-.5v-1-1l-.5-1.5-.5-1.5v-1.5-1.5-1-1l1-1 1-1 .5-1 .5-1h1 1v1.5 1.5 2 2l.5.5.5.5.5 1 .5 1v2 2l1 1.5 1 1.5 1 .5 1 .5.5 1.5.5 1.5v1.5 1.5l.5.5.5.5v1 1l.5.5.5.5 1 .5 1 .5.5 1 .5 1" />
        </g>
        <path d="m268 857l-2-9-15-3-15-3-4 .5-4 .5 15.5 2.5 15.5 2.5 4 4.5 4 4.5h.5.5" style="fill:#efebde;stroke:#efebde" />
        <path d="m223 856l3 1 1.5-.5 1.5-.5 2-.5 2-.5 1.5-.5 1.5-.5 1.5-1 1.5-1-1-1-1-1h-2.5-2.5-2-2l-1 1-1 1-1.5 1-1.5 1v1 1" style="fill:#3d3529;stroke:#3d3529" />
        <g style="fill:#bbb7ab;stroke:#bbb7ab">
            <path d="m150 855h2l1-.5 1-.5h-2-2l-1.5-.5-1.5-.5-1.5-1.5-1.5-1.5.5-1 .5-1h2 2l1-1 1-1-2 .5-2 .5-2-.5-2-.5-2-1-2-1 .5 1 .5 1v2.5 2.5l1.5.5 1.5.5 1 1 1 1 2.5.5 2.5.5" />
            <path d="m219 854v1l1-1 1-1 .5-1 .5-1 .5-.5.5-.5 1-1 1-1 1-.5 1-.5h1 1 2 2 2 2 2.5 2.5 1.5 1.5l-1.5-.5-1.5-.5h-2.5-2.5-2-2-2.5-2.5l-1.5.5-1.5.5-1.5 1-1.5 1-1 1-1 1-.5 1.5-.5 1.5" />
        </g>
        <path d="m147 853l3 1h2 2l2-.5 2-.5 1.5-1 1.5-1 1-1 1-1 1-1.5 1-1.5 1-1 1-1 1.5-.5 1.5-.5 2-.5 2-.5 1 1 1 1 2 1 2 1-9.5-7-9.5-7-.5 1-.5 1-1 1-1 1-1 .5-1 .5-.5.5-.5.5-.5.5-.5.5-.5.5-.5.5-.5 1-.5 1v1 1l-.5 1-.5 1-1 1-1 1h-2-2l-.5 1-.5 1 1.5 1.5 1.5 1.5" style="fill:#979384;stroke:#979384" />
        <g style="fill:#bbb7ab;stroke:#bbb7ab">
            <path d="m350 851l2 1v-2.5-2.5l-.5-2-.5-2-.5-.5-.5-.5-.5-.5-.5-.5-.5-.5-.5-.5h-1.5-1.5l-.5.5-.5.5v1 1l.5.5.5.5h1.5 1.5l.5.5.5.5.5.5.5.5v1 1 1.5 1.5" />
            <path d="m306 850l3 1 1.5-.5 1.5-.5.5-2 .5-2-.5-1.5-.5-1.5h-1.5-1.5l1 1 1 1v1 1l-.5.5-.5.5-1 .5-1 .5h-1-1-1-1-1-1l-1.5-.5-1.5-.5-1-.5-1-.5v-1-1l1-1 1-1h2.5 2.5 2.5 2.5l-1.5-.5-1.5-.5h-1-1l-1.5-.5-1.5-.5h-1.5-1.5l-.5.5-.5.5h-1-1v-1-1l-1-.5-1-.5-1-.5-1-.5 1 1 1 1v1 1l.5 1 .5 1-1 1-1 1-1.5-.5-1.5-.5-1-.5-1-.5-1.5-.5-1.5-.5-1-1-1-1-.5-1.5-.5-1.5-.5-1.5-.5-1.5v2.5 2.5l.5 2 .5 2 1.5.5 1.5.5 2 .5 2 .5 1.5.5 1.5.5 1.5.5 1.5.5 1.5 1 1.5 1h2 2 2.5 2.5" />
        </g>
        <path d="m176 849l3 1v-1-1l-1.5-1-1.5-1-1-1-1-1h-1.5-1.5l-1.5.5-1.5.5v1.5 1.5h1 1 2 2l1 .5 1 .5" style="fill:#efebde;stroke:#efebde" />
        <path d="m157 848l21-6-6.5-6.5-6.5-6.5-3 6.5-3 6.5-1 3-1 3" style="fill:#585347;stroke:#585347" />
        <path d="m299 848l3 1h1 1 1 1 1 1l1-.5 1-.5.5-.5.5-.5v-1-1l-1-1-1-1h-2.5-2.5-2.5-2.5l-1 1-1 1v1 1l1 .5 1 .5" style="fill:#979384;stroke:#979384" />
        <path d="m300 847l3 1h2 2l1.5-1 1.5-1-1-1-1-1h-2.5-2.5-2-2v1.5 1.5h.5.5" style="fill:#84766a;stroke:#84766a" />
        <path d="m97 846l2-1-1-.5-1-.5-1-1.5-1-1.5v-2-2l-.5-1-.5-1-.5-.5-.5-.5v-2-2h-1.5-1.5l-.5 1.5-.5 1.5v2 2l1 1.5 1 1.5.5 1.5.5 1.5 1.5 1 1.5 1 1 .5 1 .5" style="fill:#3d3529;stroke:#3d3529" />
        <path d="m269 846l-9-11-2-4.5-2-4.5-23-2-23-2-1-.5-1-.5-.5-.5-.5-.5h-1-1l-.5 1-.5 1-.5.5-.5.5-.5.5-.5.5-.5.5-.5.5h-1.5-1.5-1-1-1-1l-1.5-.5-1.5-.5-2-.5-2-.5-2-.5-2-.5h-2.5-2.5l17.5 2.5 17.5 2.5 11.5 1 11.5 1 10.5 7 10.5 7 6 .5 6 .5h-2-2-1-1l-.5-.5-.5-.5h-1-1-1.5-1.5l1.5.5 1.5.5h1 1l1 .5 1 .5h1 1l1.5.5 1.5.5" style="fill:#bbb7ab;stroke:#bbb7ab" />
        <g style="fill:#979384;stroke:#979384">
            <path d="m289 845l3 1 1-1 1-1-.5-1-.5-1v-1-1l-1-1-1-1-1-1.5-1-1.5-1-2-1-2-.5 1-.5 1-.5-1.5-.5-1.5-1-1-1-1-1.5-1-1.5-1h-1-1l.5 2 .5 2 .5 2.5.5 2.5.5 1.5.5 1.5.5 1.5.5 1.5 1 1 1 1 1.5.5 1.5.5 1 .5 1 .5" />
            <path d="m269 844l-12-1h1.5 1.5 1 1l.5.5.5.5h1 1 2 2" />
        </g>
        <path d="m141 842h2l1-1 1-1-.5-2-.5-2v-2-2-1.5-1.5l-1-1-1-1-.5 1-.5 1-.5 1.5-.5 1.5v2 2l-.5 2-.5 2 1 1 1 1" style="fill:#efebde;stroke:#efebde" />
        <path d="m259 841l3 1 1.5-.5 1.5-.5-1.5-1-1.5-1-1.5-.5-1.5-.5-2-.5-2-.5h-2-2l1 1.5 1 1.5 1.5.5 1.5.5h1.5 1.5" style="fill:#84766a;stroke:#84766a" />
        <g style="fill:#bbb7ab;stroke:#bbb7ab">
            <path d="m331 839h2l.5-1.5.5-1.5v-2.5-2.5h2 2l1 .5 1 .5.5.5.5.5 1.5.5 1.5.5-.5-1-.5-1-.5-.5-.5-.5h-1-1l-.5-.5-.5-.5-1-.5-1-.5-1.5-.5-1.5-.5h-1-1l-.5 1-.5 1-1 1-1 1h-1-1-1-1-1-1-1.5-1.5-1-1l-.5-.5-.5-.5h-1-1l-1-.5-1-.5-1-1-1-1 .5 1 .5 1 1 1 1 1 1.5.5 1.5.5h2.5 2.5l1.5.5 1.5.5 1 1.5 1 1.5 2 1 2 1" />
            <path d="m28 837l3 1 1-1 1-1 1.5-1 1.5-1 1.5-.5 1.5-.5-.5-2-.5-2-1.5.5-1.5.5-1.5 1-1.5 1-1 1-1 1-.5 1.5-.5 1.5h-.5-.5" />
        </g>
        <path d="m347 836l3 1 1-.5 1-.5v-3-3-.5-.5h-1-1-1.5-1.5l-.5.5-.5.5-1-.5-1-.5-.5-.5-.5-.5-1-.5-1-.5h-1-1l-.5-.5-.5-.5-.5-.5-.5-.5h-1-1-1.5-1.5l-.5.5-.5.5-.5.5-.5.5-.5.5-.5.5-1 .5-1 .5h-1-1l-1-.5-1-.5-2-.5-2-.5-1-.5-1-.5-.5-.5-.5-.5-.5-.5-.5-.5-1-.5-1-.5-.5-.5-.5-.5-.5-.5-.5-.5v-1-1h-1-1l-.5-1-.5-1h-1-1-2-2l-1-.5-1-.5h-3-3-2.5-2.5-2-2l-2-.5-2-.5h-2-2l-1.5.5-1.5.5-1 1-1 1-1.5.5-1.5.5-2 .5-2 .5-18.5 3-18.5 3h-1.5-1.5l-1.5-.5-1.5-.5h-1.5-1.5l-.5-.5-.5-.5-.5-.5-.5-.5-.5-.5-.5-.5-.5-.5-.5-.5-1-1.5-1-1.5h-1-1l-.5-1-.5-1v-1-1l-.5-1.5-.5-1.5v-1.5-1.5l1-1 1-1v-2.5-2.5l1-1 1-1 .5-1.5.5-1.5v-.5-.5l1-.5 1-.5 1.5-1.5 1.5-1.5-1.5.5-1.5.5-1 1-1 1-1.5 1-1.5 1-1 1-1 1-1 1.5-1 1.5v2 2l-.5 1-.5 1-1 1-1 1-2 .5-2 .5h-1.5-1.5l1 .5 1 .5.5.5.5.5.5-.5.5-.5 1 .5 1 .5-.5.5-.5.5h-1-1-1-1l-1-.5-1-.5-.5-.5-.5-.5h-1-1l-.5.5-.5.5.5 1 .5 1v1 1l-.5.5-.5.5h-1.5-1.5-.5-.5l-1 .5-1 .5 1.5.5 1.5.5 1.5.5 1.5.5-.5.5-.5.5h-1.5-1.5-2-2l-.5.5-.5.5 2 .5 2 .5h3 3 2.5 2.5l1.5-.5 1.5-.5 1-1.5 1-1.5 1.5-.5 1.5-.5 1 1 1 1 1 1 1 1 23 2 23 2 1.5-.5 1.5-.5 1-.5 1-.5 1.5-.5 1.5-.5.5-.5.5-.5h1.5 1.5 2 2 1 1 1 1l.5-.5.5-.5.5-1 .5-1 1.5-.5 1.5-.5 1 .5 1 .5 1 .5 1 .5 1 .5 1 .5h1 1l.5-.5.5-.5h1 1 1.5 1.5 1 1 1 1 1 1l1 .5 1 .5 1 .5 1 .5 1 .5 1 .5 1 1 1 1 1 1.5 1 1.5 1 1 1 1 1 .5 1 .5h1 1l.5.5.5.5h1 1 1.5 1.5 1 1 1 1 1 1l1-1 1-1 .5-1 .5-1h1 1l1.5.5 1.5.5 1 .5 1 .5.5.5.5.5h1 1l.5.5.5.5.5 1 .5 1 1.5 1 1.5 1" style="fill:#84766a;stroke:#84766a" />
        <path d="m291 835h3l1-1 1-1 1.5-1 1.5-1 1-1 1-1 1 1 1 1h.5.5l1-1 1-1 1.5-1 1.5-1-.5-1-.5-1-.5-1-.5-1-1-.5-1-.5h-1.5-1.5-1.5-1.5l-.5-.5-.5-.5h-1-1-1-1l-.5.5-.5.5h-1.5-1.5-1-1-1-1-1-1l-1-.5-1-.5-.5.5-.5.5.5.5.5.5.5.5.5.5.5.5.5.5.5 1 .5 1 .5.5.5.5.5 1.5.5 1.5 1 2 1 2h1 1" style="fill:#efebde;stroke:#efebde" />
        <path d="m279 834l1 1-.5-2.5-.5-2.5-.5-2-.5-2h1 1l1.5 1 1.5 1 1 1 1 1 .5 1.5.5 1.5.5-1 .5-1-.5-.5-.5-.5-.5-1-.5-1-1.5-1-1.5-1-1-1-1-1-1-1.5-1-1.5 1-1 1-1h1.5 1.5l-1-.5-1-.5-1.5.5-1.5.5-.5 1-.5 1-.5.5-.5.5h-1-1-1-1-2-2-1.5-1.5l-.5.5-.5.5-1.5.5-1.5.5 2-.5 2-.5h2.5 2.5 2 2l1 1.5 1 1.5.5 1.5.5 1.5.5 1.5.5 1.5.5 1 .5 1" style="fill:#bbb7ab;stroke:#bbb7ab" />
        <path d="m275 832l1-1-.5-1.5-.5-1.5-1-1.5-1-1.5-1.5-.5-1.5-.5-2 .5-2 .5-1.5.5-1.5.5.5 1 .5 1 1.5.5 1.5.5h2 2l1.5 1 1.5 1 .5.5.5.5" style="fill:#efebde;stroke:#efebde" />
        <path d="m286 830l1 1-.5-1.5-.5-1.5-.5-.5-.5-.5-.5-1-.5-1-.5-.5-.5-.5-.5-.5-.5-.5-.5-.5-.5-.5.5-.5.5-.5 1 .5 1 .5h1 1 1 1 1 1 1.5 1.5l.5-.5.5-.5h1 1 1 1l.5.5.5.5h1.5 1.5 1.5 1.5l-1-.5-1-.5-1-.5-1-.5h-1-1-1-1-1-1-1.5-1.5-1-1l-.5.5-.5.5h-1-1l-1-.5-1-.5-1-.5-1-.5h-1.5-1.5l-1 1-1 1 1 1.5 1 1.5 1 1 1 1 1.5 1 1.5 1 .5 1 .5 1" style="fill:#d8d4c8;stroke:#d8d4c8" />
        <path d="m346 830l1-1h1.5 1.5v-.5-.5h-1.5-1.5l-.5-.5-.5-.5-1-.5-1-.5-1-1-1-1h-1-1-1.5-1.5-2.5-2.5l-1.5 1-1.5 1h-1.5-1.5l-1.5 1-1.5 1 1 .5 1 .5h1 1l1-.5 1-.5.5-.5.5-.5.5-.5.5-.5.5-.5.5-.5h1.5 1.5 1 1l.5.5.5.5.5.5.5.5h1 1l1 .5 1 .5.5.5.5.5 1 .5 1 .5" style="fill:#772f27;stroke:#772f27" />
        <path d="m45 828l36-10 7-5.5 7-5.5 3.5-4.5 3.5-4.5-22 6.5-22 6.5-6.5 8.5-6.5 8.5" style="fill:#bbb7ab;stroke:#bbb7ab" />
        <path d="m350 828v1h1 1v-1-1l-1-.5-1-.5-1.5-1-1.5-1-1-1-1-1-2-.5-2-.5h-3-3-1-1l-.5 1.5-.5 1.5h2.5 2.5 1.5 1.5 1 1l1 1 1 1 1 .5 1 .5.5.5.5.5h1.5 1.5" style="fill:#9d3629;stroke:#9d3629" />
        <path d="m0 827v1l15.5-4.5 15.5-4.5 13.5-4 13.5-4 22-6.5 22-6.5 10 10.5 10 10.5 1.5.5 1.5.5 1.5-.5 1.5-.5v-1.5-1.5l.5-1 .5-1 .5-1 .5-1 .5-1.5.5-1.5-.5-1-.5-1v-1-1l-1.5-.5-1.5-.5-1-.5-1-.5-.5-.5-.5-.5-.5-.5-.5-.5v-1-1l-1-1-1-1-1-1-1-1h-1-1l-1-1-1-1-1-1.5-1-1.5.5-1.5.5-1.5 2-.5 2-.5 1-1 1-1 1-1 1-1 1-.5 1-.5.5-.5.5-.5.5-.5.5-.5.5-.5.5-.5 1-.5 1-.5.5-.5.5-.5.5-.5.5-.5.5-.5.5-.5 1-.5 1-.5.5-.5.5-.5h1 1l1-1 1-1 13.5 1.5 13.5 1.5 15.5-3.5 15.5-3.5-14-.5-14-.5-11.5 2-11.5 2-1-.5-1-.5-1.5-.5-1.5-.5h-1-1l-1 .5-1 .5-10.5 7-10.5 7-9.5 7.5-9.5 7.5-23 6.5-23 6.5-25.5 8-25.5 8v.5.5" style="fill:#979384;stroke:#979384" />
        <path d="m319 827l4 1 1.5-1 1.5-1h-1.5-1.5l-1-.5-1-.5-2-1-2-1-.5-1.5-.5-1.5-1-1.5-1-1.5-1.5-.5-1.5-.5-1.5-.5-1.5-.5-3-.5-3-.5h-.5-.5l.5 1.5.5 1.5h2 2 1 1l.5 1 .5 1h1 1v1 1l.5.5.5.5.5.5.5.5 1 .5 1 .5.5.5.5.5.5.5.5.5 1 .5 1 .5" style="fill:#641b07;stroke:#641b07" />
        <path d="m129 826v1l.5-1.5.5-1.5v-1.5-1.5l.5-.5.5-.5 1.5.5 1.5.5 1 .5 1 .5v1 1l1 .5 1 .5-.5-1.5-.5-1.5-.5-2-.5-2 .5-1.5.5-1.5-1-1-1-1-1 1.5-1 1.5-1 1-1 1-1-2-1-2-.5 1-.5 1v1.5 1.5l-1.5.5-1.5.5-1.5-.5-1.5-.5 2 1 2 1 1 .5 1 .5.5.5.5.5v1.5 1.5" style="fill:#bbb7ab;stroke:#bbb7ab" />
        <path d="m225 826h3l1-.5 1-.5h2.5 2.5 2 2 2.5 2.5l1.5-.5 1.5-.5h2.5 2.5l1.5-.5 1.5-.5 1-1 1-1 2-.5 2-.5h2 2l2-.5 2-.5 1.5-.5 1.5-.5 1-1 1-1-25.5 3.5-25.5 3.5 1 1.5 1 1.5" style="fill:#772f27;stroke:#772f27" />
        <path d="m228 826l37-6h-2-2l-2 .5-2 .5-1 1-1 1-1.5.5-1.5.5h-2.5-2.5l-1.5.5-1.5.5h-2.5-2.5-2-2-2.5-2.5l-1 .5-1 .5" style="fill:#7c574d;stroke:#7c574d" />
        <path d="m350 826l2 1v-18-18-18-18-2.5-2.5l-1-1-1-1-.5.5-.5.5-.5.5-.5.5v1 1l-.5 1-.5 1v1 1 1 1l-.5.5-.5.5.5 1 .5 1v1 1l-.5.5-.5.5v1 1l-.5.5-.5.5v1.5 1.5l-.5.5-.5.5-.5.5-.5.5-1.5-.5-1.5-.5-.5-14.5-.5-14.5.5-15.5.5-15.5 1.5-16.5 1.5-16.5.5-16 .5-16v-13.5-13.5l-2-14-2-14-3-12.5-3-12.5 2-10.5 2-10.5-.5-17-.5-17v2.5 2.5 2.5 2.5 2 2 2.5 2.5l.5 1.5.5 1.5-1 .5-1 .5-.5-1.5-.5-1.5-1-1.5-1-1.5v-2-2l-.5-1.5-.5-1.5v-2-2-.5-.5l-1-1.5-1-1.5-4 10-4 10-5.5-8-5.5-8-3-4-3-4 1 11.5 1 11.5-3 11.5-3 11.5.5 2 .5 2-.5 2-.5 2-.5 1.5-.5 1.5v2.5 2.5 2 2l-.5 2-.5 2v2 2 2 2l5 8.5 5 8.5 7.5 10 7.5 10 7 10 7 10 .5 16 .5 16-1.5 16.5-1.5 16.5-1 16.5-1 16.5-6.5 22.5-6.5 22.5-1.5-1-1.5-1-.5-1.5-.5-1.5-1-1.5-1-1.5v-2-2l-1-1-1-1-.5 1.5-.5 1.5-.5 2-.5 2-1 1-1 1-.5 2-.5 2-1 1-1 1-.5 2-.5 2-.5 1.5-.5 1.5-1 .5-1 .5-.5 1-.5 1-.5 1.5-.5 1.5-1 1-1 1-2-.5-2-.5-24.5-2.5-24.5-2.5-11.5 1.5-11.5 1.5-.5 9-.5 9h14 14l13.5-3 13.5-3h17 17l1.5-.5 1.5-.5 1-.5 1-.5h1 1 1 1l.5-.5.5-.5h1 1 1.5 1.5l.5.5.5.5h1 1l.5.5.5.5.5.5.5.5.5 1 .5 1 .5.5.5.5v1 1 1 1l1.5 1 1.5 1h3 3l2 .5 2 .5 1 1 1 1 1.5 1 1.5 1" style="fill:#c23a29;stroke:#c23a29" />
        <path d="m0 825v1l25.5-8 25.5-8v-.5-.5l23-6 23-6 9.5-7.5 9.5-7.5 10.5-7 10.5-7 11.5-3.5 11.5-3.5 10.5-6.5 10.5-6.5 10-6.5 10-6.5 10-6.5 10-6.5 14.5-9.5 14.5-9.5v-1-1h-.5-.5l-10.5 6.5-10.5 6.5-10 6.5-10 6.5-10.5 6-10.5 6-9.5 6.5-9.5 6.5-7 1.5-7 1.5-9-.5-9-.5-1.5 5.5-1.5 5.5-12.5-.5-12.5-.5-12.5-2-12.5-2-12.5-4.5-12.5-4.5-9.5-7-9.5-7-19.5-7-19.5-7v17.5 17.5 17.5 17.5 16 16" style="fill:#3d3529;stroke:#3d3529" />
        <path d="m222 825l3 1-1-1.5-1-1.5v-.5-.5l-1-.5-1-.5-.5-.5-.5-.5h-1-1l-.5-.5-.5-.5-1-1-1-1-1 .5-1 .5 1 1.5 1 1.5.5.5.5.5.5.5.5.5.5.5.5.5.5.5.5.5h1.5 1.5" style="fill:#641b07;stroke:#641b07" />
        <path d="m321 825l2 1h1.5 1.5 1.5 1.5l1.5-1 1.5-1 .5-1.5.5-1.5-1.5.5-1.5.5-1 .5-1 .5h-2-2l-1.5-.5-1.5-.5-1-.5-1-.5v-1.5-1.5l-1-1.5-1-1.5-1-1-1-1-2.5-.5-2.5-.5-1 .5-1 .5-3 .5-3 .5 3 .5 3 .5 1.5.5 1.5.5 1.5.5 1.5.5 1 1.5 1 1.5.5 1.5.5 1.5 2 1 2 1" style="fill:#9a2900;stroke:#9a2900" />
        <path d="m191 824l3 1h1 1 1 1 1.5 1.5l.5-.5.5-.5.5-.5.5-.5.5-.5.5-.5.5-1 .5-1h1 1l.5.5.5.5 1 .5 1 .5-1-1-1-1-1-1-1-1-1.5.5-1.5.5-1 1.5-1 1.5-1.5.5-1.5.5h-2.5-2.5-3-3l2 .5 2 .5" style="fill:#979384;stroke:#979384" />
        <path d="m223 822v1l25.5-3.5 25.5-3.5 1.5-.5 1.5-.5h2 2l1.5-.5 1.5-.5h2 2 1 1 2.5 2.5 3 3 .5.5l3-.5 3-.5 1-.5 1-.5h-17-17l-13.5 3-13.5 3h-14-14l.5-9 .5-9 11.5-1.5 11.5-1.5h1.5 1.5l-1.5-.5-1.5-.5-1.5-.5-1.5-.5h-1-1l-1-.5-1-.5.5-1.5.5-1.5-12 13-12 13 1 1 1 1 .5.5.5.5h1 1l.5.5.5.5 1 .5 1 .5" style="fill:#9d3629;stroke:#9d3629" />
        <path d="m321 822l3 1h2 2l1-.5 1-.5 1.5-.5 1.5-.5h1 1l-1.5-1-1.5-1v-1-1-1-1l-.5-.5-.5-.5-.5-1-.5-1-.5-.5-.5-.5-.5-.5-.5-.5h-1-1l-.5-.5-.5-.5h-1.5-1.5-1-1l-.5.5-.5.5h-1-1-1-1l-1 .5-1 .5-1.5.5-1.5.5 2.5.5 2.5.5 1 1 1 1 1 1.5 1 1.5v1.5 1.5l1 .5 1 .5" style="fill:#c83403;stroke:#c83403" />
        <path d="m110 821h2l1-1 1-1 1.5-1 1.5-1-1-1-1-1-1-1.5-1-1.5-1 1-1 1-.5 2-.5 2v1.5 1.5" style="fill:#efebde;stroke:#efebde" />
        <path d="m174 821l4 1h2.5 2.5l.5-.5.5-.5v-.5-.5l1-1 1-1 1-.5 1-.5h-11.5-11.5l1.5 1 1.5 1 1.5.5 1.5.5 1.5.5 1.5.5" style="fill:#979384;stroke:#979384" />
        <path d="m184 820v1h2 2 1.5 1.5l.5-.5.5-.5-1.5-.5-1.5-.5-1.5-.5-1.5-.5-1 1-1 1" style="fill:#585347;stroke:#585347" />
        <path d="m211 818h2l1-.5 1-.5 12-13 12-13 2.5-.5 2.5-.5 1-1.5 1-1.5.5-1.5.5-1.5v-.5-.5h-.5-.5l-1.5.5-1.5.5h-1-1-1.5-1.5-2-2-1-1l-1 .5-1 .5-1.5.5-1.5.5-.5 1.5-.5 1.5-1 .5-1 .5-.5.5-.5.5-.5.5-.5.5-.5.5-.5.5-1 .5-1 .5-.5.5-.5.5h-1-1l-1 .5-1 .5-.5 1.5-.5 1.5-1 1-1 1v2.5 2.5l-1 1-1 1v1.5 1.5l.5 1.5.5 1.5v1 1l.5 1 .5 1" style="fill:#772f27;stroke:#772f27" />
        <path d="m162 816l3 1h11.5 11.5.5.5v-.5-.5l1-.5 1-.5-.5-1-.5-1-.5-.5-.5-.5v-1-1l.5-.5.5-.5h1.5 1.5l.5.5.5.5h1.5 1.5v-.5-.5l1-2 1-2 2.5 2 2.5 2 1-1 1-1v-.5-.5-2-2-1-1l.5-.5.5-.5.5-1 .5-1 .5-.5.5-.5.5-.5.5-.5.5-.5.5-.5.5-1 .5-1 .5-.5.5-.5.5-.5.5-.5h1 1l1-.5 1-.5 1.5-.5 1.5-.5.5-.5.5-.5.5-1 .5-1-1.5.5-1.5.5h-2-2l-2-.5-2-.5h-2-2l.5-2 .5-2 1.5-.5 1.5-.5 2-.5 2-.5h2.5 2.5l-1-.5-1-.5h-2-2-2-2l-.5-1-.5-1 1-1 1-1 .5-1.5.5-1.5-1.5-.5-1.5-.5-16 10.5-16 10.5-11 1.5-11 1.5 3 11 3 11" style="fill:#bbb7ab;stroke:#bbb7ab" />
        <path d="m189 816v1h1.5 1.5l.5-.5.5-.5v-1-1l-.5-1-.5-1 .5-.5.5-.5h1 1l.5.5.5.5 1 .5 1 .5h1 1 1 1l.5-.5.5-.5-1-.5-1-.5-.5.5-.5.5-.5-.5-.5-.5-1-.5-1-.5h-1.5-1.5l-.5-.5-.5-.5h-1.5-1.5l-.5.5-.5.5v1 1l.5.5.5.5.5 1 .5 1-1 .5-1 .5" style="fill:#979384;stroke:#979384" />
        <path d="m300 816l2 1-.5-1.5-.5-1.5h-3-3-2.5-2.5-1-1-2-2l-1.5.5-1.5.5 2 .5 2 .5h2 2 2.5 2.5 3 3" style="fill:#772f27;stroke:#772f27" />
        <path d="m51 809v1l23-6.5 23-6.5-23 6-23 6" style="fill:#585347;stroke:#585347" />
        <path d="m197 809v1h1.5 1.5l2-.5 2-.5-2.5-2-2.5-2-1 2-1 2" style="fill:#d8d4c8;stroke:#d8d4c8" />
        <path d="m206 806v1l.5-1 .5-1v-2-2l1-1.5 1-1.5 1-1 1-1 1.5-1 1.5-1 1-1 1-1 1.5-.5 1.5-.5 1-.5 1-.5.5-.5.5-.5 1-.5 1-.5.5-1.5.5-1.5v-2-2l-.5-1.5-.5-1.5-.5-1-.5-1h-2-2l-2-.5-2-.5v-2-2l-1-1.5-1-1.5h-2-2-2-2-2-2-1-1l.5 1 .5 1h1.5 1.5 3.5 3.5l1.5.5 1.5.5-.5 1.5-.5 1.5-1 1-1 1 .5 1 .5 1h2 2 2 2l1 .5 1 .5 1 1 1 1v2 2l-.5 1-.5 1-.5.5-.5.5-1.5.5-1.5.5-1 .5-1 .5h-1-1l-.5.5-.5.5-.5.5-.5.5-.5 1-.5 1-.5.5-.5.5-.5.5-.5.5-.5.5-.5.5-.5 1-.5 1-.5.5-.5.5v1 1 2 2" style="fill:#979384;stroke:#979384" />
        <path d="m312 804h2l1-1 1-1 1.5-1 1.5-1 1-1 1-1-1-1.5-1-1.5-1-1-1-1-1.5 1-1.5 1-1 1-1 1v1 1l-.5 2-.5 2 .5.5.5.5" style="fill:#ab524b;stroke:#ab524b" />
        <path d="m195 802l3 1 1-1 1-1 1-1.5 1-1.5-1-1-1-1-1.5-1-1.5-1h-2-2l-1 1.5-1 1.5.5 1.5.5 1.5 1 1 1 1h.5.5" style="fill:#979384;stroke:#979384" />
        <path d="m294 802l4 1 1-1 1-1 .5-1.5.5-1.5.5-1 .5-1-1.5 1-1.5 1-1.5.5-1.5.5h-2.5-2.5-2-2l-1.5-.5-1.5-.5h-1.5-1.5l-1-.5-1-.5h-2-2-1-1-1.5-1.5l-1.5.5-1.5.5h-2.5-2.5-2-2-2.5-2.5l-2.5-.5-2.5-.5h-1.5-1.5l24.5 2.5 24.5 2.5" style="fill:#c83403;stroke:#c83403" />
        <path d="m180 799h2l1-1 1-1 1-1.5 1-1.5-1.5-.5-1.5-.5-2 .5-2 .5-1 1-1 1 1 1.5 1 1.5h.5.5" style="fill:#84766a;stroke:#84766a" />
        <path d="m284 798l3 1h2 2 2.5 2.5l1.5-.5 1.5-.5 1.5-1 1.5-1v-.5-.5l.5-1.5.5-1.5-1 1-1 1-1.5.5-1.5.5-1.5.5-1.5.5h-2.5-2.5l-1.5-.5-1.5-.5-21.5-2.5-21.5-2.5-2.5.5-2.5.5-.5 1.5-.5 1.5 1 .5 1 .5h1 1l1.5.5 1.5.5 1.5.5 1.5.5 2.5.5 2.5.5h2.5 2.5 2 2 2.5 2.5l1.5-.5 1.5-.5h1.5 1.5 1 1 2 2l1 .5 1 .5h1.5 1.5" style="fill:#9a2900;stroke:#9a2900" />
        <path d="m122 796l32-22h13.5 13.5l11-2 11-2h-1.5-1.5l-.5-1-.5-1-1-1-1-1-15.5 3.5-15.5 3.5-13.5-1.5-13.5-1.5h2 2l-.5 1.5-.5 1.5-1 1.5-1 1.5-1.5.5-1.5.5-1.5 1-1.5 1-1.5.5-1.5.5-1.5 1-1.5 1-1.5.5-1.5.5h-1.5-1.5v-.5-.5l-1 1-1 1-1 1-1 1-2 .5-2 .5-.5 1.5-.5 1.5 1 1.5 1 1.5 1 1 1 1h1 1l1.5.5 1.5.5" style="fill:#bbb7ab;stroke:#bbb7ab" />
        <path d="m214 795v1l1-.5 1-.5h1 1l.5-.5.5-.5 1-.5 1-.5.5-.5.5-.5.5-.5.5-.5.5-.5.5-.5 1-.5 1-.5.5-1.5.5-1.5v-.5-.5l-1-2-1-2v2 2l-.5 1.5-.5 1.5-1 .5-1 .5-.5.5-.5.5-1 .5-1 .5-1.5 1.5-1.5 1.5-1 .5-1 .5" style="fill:#7c574d;stroke:#7c574d" />
        <path d="m287 795l3 1h2.5 2.5l1.5-.5 1.5-.5 1.5-.5 1.5-.5 1-1 1-1 .5-1 .5-1 .5-1.5.5-1.5v-.5-.5l.5-2.5.5-2.5v-2-2-2.5-2.5l-1-1-1-1-1.5-1-1.5-1-1.5-.5-1.5-.5h-1.5-1.5-2-2-3-3l-.5 1-.5 1h-2-2l-.5.5-.5.5-.5 1-.5 1-.5 1.5-.5 1.5-.5.5-.5.5-1 .5-1 .5-1 .5-1 .5-1 .5-1 .5-1 .5-1 .5h-2-2-1-1l-.5.5-.5.5h-1-1l-1 .5-1 .5-.5.5-.5.5v-1-1h-1-1l-.5 1-.5 1-.5.5-.5.5-.5-.5-.5-.5h-1-1l-1 .5-1 .5-.5 1.5-.5 1.5-1 1.5-1 1.5 21.5 2.5 21.5 2.5" style="fill:#641b07;stroke:#641b07" />
        <path d="m302 795v1l1-.5 1-.5.5-1.5.5-1.5.5-2 .5-2 1-1 1-1 .5-2 .5-2 1-1 1-1 .5-2 .5-2 .5-1.5.5-1.5 1-.5 1-.5-1-1-1-1h-1-1l-.5.5-.5.5h-1-1v1.5 1.5 1 1 1 1 1 1l-.5 1-.5 1v1 1l-.5.5-.5.5-.5 1-.5 1-.5 1.5-.5 1.5-.5 1-.5 1-.5 1.5-.5 1.5" style="fill:#9d3629;stroke:#9d3629" />
        <path d="m122 794h2l.5-1.5.5-1.5v-2.5-2.5h-2-2l-1 1.5-1 1.5.5 1.5.5 1.5 1 1 1 1" style="fill:#979384;stroke:#979384" />
        <path d="m321 787l13-45 1-16.5 1-16.5 1.5-16.5 1.5-16.5-.5-16-.5-16-7-10-7-10-7.5-10-7.5-10-5-8.5-5-8.5v1.5 1.5 2 2l-2 23-2 23v2 2 1 1 1.5 1.5 2 2 1 1 1 1 1 1 1.5 1.5 1 1l-.5.5-.5.5v1 1l.5 1 .5 1v1 1 1 1l-.5 1.5-.5 1.5 1 1.5 1 1.5.5 1.5.5 1.5v2 2l1 1.5 1 1.5.5 1.5.5 1.5 5.5 11.5 5.5 11.5 6 1.5 6 1.5-3.5 12.5-3.5 12.5-.5 14.5-.5 14.5-1 .5-1 .5 1 1 1 1v2 2l1 1.5 1 1.5.5 1.5.5 1.5 1.5 1 1.5 1" style="fill:#c83403;stroke:#c83403" />
        <path d="m305 786v1l.5-1 .5-1 .5-.5.5-.5v-1-1l.5-1 .5-1v-1-1-1-1-1-1-1.5-1.5h1 1l.5-.5.5-.5h1 1l1 1 1 1 .5-14.5.5-14.5 3.5-12.5 3.5-12.5-6-1.5-6-1.5-5.5-11.5-5.5-11.5-2 14-2 14-5.5 23-5.5 23v.5.5h3 3 2 2 1.5 1.5l1.5.5 1.5.5 1.5 1 1.5 1 1 1 1 1v2.5 2.5 2 2l-.5 2.5-.5 2.5" style="fill:#9a2900;stroke:#9a2900" />
        <path d="m212 785l4 1h2 2l1.5-.5 1.5-.5v-2-2l-1-1-1-1h-2.5-2.5l-2 .5-2 .5-1.5.5-1.5.5-.5 2-.5 2h2 2" style="fill:#d8d4c8;stroke:#d8d4c8" />
        <path d="m227 785v1l1.5-.5 1.5-.5 1-.5 1-.5h1 1 2 2 1.5 1.5 1 1l1.5-.5 1.5-.5.5-1 .5-1h1.5 1.5l1.5-.5 1.5-.5 1.5-.5 1.5-.5h1 1 1.5 1.5l1.5-.5 1.5-.5h1 1 1.5 1.5l1-1 1-1-1.5-12.5-1.5-12.5-7.5-20.5-7.5-20.5-10 7-10 7-11.5 6.5-11.5 6.5-12.5 6-12.5 6 10-7 10-7 17-11 17-11 1-1 1-1 .5-.5.5-.5 1-.5 1-.5 1-.5 1-.5 1.5-.5 1.5-.5.5-.5.5-.5.5-1 .5-1-.5-.5-.5-.5-14.5 9.5-14.5 9.5-10 6.5-10 6.5-10 6.5-10 6.5-10.5 6.5-10.5 6.5-11.5 3.5-11.5 3.5 1-.5 1-.5h1 1l1.5.5 1.5.5 1 .5 1 .5 11.5-6 11.5-6 16 5.5 16 5.5h2 2 2 2 2 2l1 1.5 1 1.5v2 2l2 .5 2 .5 9-4.5 9-4.5-5 6.5-5 6.5-1.5-1-1.5-1 .5 1.5.5 1.5 1 2 1 2" style="fill:#585347;stroke:#585347" />
        <path d="m122 783h3l1.5-.5 1.5-.5 1.5-1 1.5-1 1.5-.5 1.5-.5 1.5-1 1.5-1 1.5-.5 1.5-.5 1-1.5 1-1.5.5-1.5.5-1.5h-2-2l-1 1-1 1h-1-1l-.5.5-.5.5-1 .5-1 .5-.5.5-.5.5-.5.5-.5.5-.5.5-.5.5-1 .5-1 .5-.5.5-.5.5-.5.5-.5.5-.5.5-.5.5-1 .5-1 .5v.5.5" style="fill:#d8d4c8;stroke:#d8d4c8" />
        <g style="fill:#3d3529;stroke:#3d3529">
            <path d="m247 783v1l1-.5 1-.5h1 1l.5.5.5.5.5-.5.5-.5.5-1 .5-1h1 1v1 1l.5-.5.5-.5 1-.5 1-.5h1 1l.5-.5.5-.5h1 1 2 2l1-.5 1-.5 1-.5 1-.5-.5-.5-.5-.5v-.5-.5l-1 1-1 1h-1.5-1.5-1-1l-1.5.5-1.5.5h-1.5-1.5-1-1l-1.5.5-1.5.5-1.5.5-1.5.5h-1.5-1.5l-.5 1-.5 1h.5.5" />
            <path d="m227 780l10-13-9 4.5-9 4.5h2 2v-.5-.5h-1.5-1.5l-.5-.5-.5-.5-.5-.5-.5-.5.5-.5.5-.5 1-.5 1-.5.5.5.5.5h1 1l.5-.5.5-.5h1.5 1.5 1 1l.5.5.5.5.5.5.5.5-1 .5-1 .5-.5.5-.5.5-.5.5-.5.5h-1-1-1.5-1.5l.5 1 .5 1 1.5 1 1.5 1" />
        </g>
        <path d="m271 777l1 1 1-.5 1-.5 1-.5 1-.5.5-.5.5-.5.5-1.5.5-1.5.5-1 .5-1 .5-.5.5-.5h2 2l.5-1 .5-1v-.5-.5l-2-.5-2-.5-1-.5-1-.5-.5-.5-.5-.5-.5-.5-.5-.5v-1-1l-.5-1-.5-1v-1-1l-.5-1.5-.5-1.5-.5-.5-.5-.5-5.5-11.5-5.5-11.5-4.5-14-4.5-14h-2-2v1 1l.5.5.5.5h1 1v3 3l7.5 20.5 7.5 20.5 1.5 12.5 1.5 12.5v.5.5" style="fill:#772f27;stroke:#772f27" />
        <path d="m223 775v1h1.5 1.5 1 1l.5-.5.5-.5.5-.5.5-.5 1-.5 1-.5-.5-.5-.5-.5-.5-.5-.5-.5h-1-1-1.5-1.5l-.5.5-.5.5h-1-1l-.5-.5-.5-.5-1 .5-1 .5-.5.5-.5.5.5.5.5.5.5.5.5.5h1.5 1.5" style="fill:#391d12;stroke:#391d12" />
        <path d="m340 771l3 1 .5-.5.5-.5.5-.5.5-.5v-1.5-1.5l.5-.5.5-.5v-1-1l.5-.5.5-.5v-1-1l-.5-1-.5-1 .5-.5.5-.5v-1-1-1-1l.5-1 .5-1v-1-1l.5-.5.5-.5.5-.5.5-.5 1 1 1 1v-17-17-17.5-17.5-18-18-18-18-13.5-13.5h-1.5-1.5v-20-20l-5.5-19-5.5-19-2 .5-2 .5h-2-2l-1.5-.5-1.5-.5-1-.5-1-.5h-1-1l-.5-.5-.5-.5-.5-.5-.5-.5-1-.5-1-.5-.5-.5-.5-.5h-1-1l-.5-.5-.5-.5-.5-.5-.5-.5-1-.5-1-.5h-1-1l-.5-1-.5-1-1-.5-1-.5h-1.5-1.5l-.5-.5-.5-.5-1-.5-1-.5-1.5-.5-1.5-.5-.5-.5-.5-.5-1-.5-1-.5-1-1-1-1-.5-.5-.5-.5-1-.5-1-.5-.5-1.5-.5-1.5-.5-.5-.5-.5.5-1 .5-1-.5-.5-.5-.5-.5-.5-.5-.5v-1.5-1.5l-.5-1-.5-1v-1-1-1.5-1.5-.5-.5l-.5-1-.5-1v-2-2l1-1.5 1-1.5 1-.5 1-.5 1-1.5 1-1.5.5-2 .5-2 .5-1.5.5-1.5 1.5-.5 1.5-.5 1.5-1 1.5-1 .5-1.5.5-1.5 1-1 1-1 .5-1.5.5-1.5v-1-1-1-1l-.5-.5-.5-.5v-1.5-1.5l-.5-.5-.5-.5-.5-.5-.5-.5v-1-1l-.5-.5-.5-.5v-1-1l-.5-1-.5-1-.5-.5-.5-.5-.5-.5-.5-.5-.5-.5-.5-.5-.5-1-.5-1v-1-1l-.5-.5-.5-.5-.5-.5-.5-.5-.5-1-.5-1-1-.5-1-.5v1.5 1.5.5.5l-1 1-1 1-.5.5-.5.5.5 1 .5 1-.5 1.5-.5 1.5-1 .5-1 .5v1.5 1.5l-.5 2-.5 2-1 1-1 1h-1.5-1.5-2-2-2.5-2.5l-1 1-1 1-1.5-.5-1.5-.5v-2.5-2.5l-.5-1.5-.5-1.5v-2.5-2.5l-.5-1.5-.5-1.5v-2.5-2.5-2-2-2-2l-.5-2-.5-2 .5-2.5.5-2.5-1-16-1-16-1-14.5-1-14.5.5-16 .5-16 2.5-14 2.5-14-14.5-11.5-14.5-11.5-7 18-7 18v1.5 1.5 1 1l-.5 1-.5 1-.5.5-.5.5v1 1 1 1 1.5 1.5l-.5.5-.5.5v1 1 1 1l-.5 1-.5 1-.5.5-.5.5v1 1l-.5.5-.5.5-.5 2-.5 2v1.5 1.5 2 2l-.5 2-.5 2-.5 1.5-.5 1.5-.5 2-.5 2-1 1-1 1-1 .5-1 .5-.5 1-.5 1-.5.5-.5.5-1-16-1-16v-14.5-14.5l.5-18 .5-18-1-.5-1-.5h-2-2l-1 .5-1 .5-1 .5-1 .5-1 1-1 1-.5 1-.5 1-.5.5-.5.5-.5.5-.5.5h-1.5-1.5l-.5-.5-.5-.5-.5-.5-.5-.5h-1-1l-.5.5-.5.5-1-.5-1-.5-1.5-.5-1.5-.5-1-.5-1-.5-.5.5-.5.5.5 2 .5 2v2.5 2.5 1.5 1.5l1.5 1 1.5 1 1-1 1-1 1.5-1 1.5-1h1 1 1.5 1.5l1 1 1 1 .5 1 .5 1 1 2.5 1 2.5 3 4 3 4v16 16 20 20l5.5 8 5.5 8v-.5-.5l2.5-13.5 2.5-13.5 3-14.5 3-14.5 4.5-15.5 4.5-15.5 1-1.5 1-1.5v-.5-.5l1-1.5 1-1.5.5-1.5.5-1.5v-1.5-1.5h1 1l1.5 1.5 1.5 1.5h1 1l1.5-.5 1.5-.5 2.5-1 2.5-1 2 1.5 2 1.5 1.5 13.5 1.5 13.5-1 16.5-1 16.5-.5 16-.5 16 .5 16.5.5 16.5 1 15.5 1 15.5 1.5 15.5 1.5 15.5-1 16.5-1 16.5.5 15 .5 15 .5 16.5.5 16.5.5 15 .5 15 .5 14 .5 14v15 15l5-17.5 5-17.5v-3-3l.5-1.5.5-1.5 1.5 1 1.5 1 2.5 13.5 2.5 13.5 2 14.5 2 14.5 1 14.5 1 14.5 2 20.5 2 20.5.5-17.5.5-17.5-.5-.5-.5-.5v-1.5-1.5-1-1l.5-2 .5-2v-2-2-2.5-2.5l.5-1.5.5-1.5v-2.5-2.5-1.5-1.5-.5-.5l1-30 1-30-.5 1-.5 1-.5 1.5-.5 1.5-.5 1.5-.5 1.5-.5 2-.5 2-.5.5-.5.5h-1-1l-3-14.5-3-14.5-4-11.5-4-11.5 4.5-7 4.5-7 6.5 10.5 6.5 10.5-.5 16-.5 16 .5-2 .5-2 .5-1.5.5-1.5v-1-1-1.5-1.5l.5-1.5.5-1.5v-1-1-1-1l.5-.5.5-.5v-1.5-1.5-1-1l.5-.5.5-.5v-1-1l.5-1 .5-1 .5-2 .5-2 3-11.5 3-11.5-1-11.5-1-11.5 3 4 3 4 5.5 8 5.5 8 4-10 4-10v-2-2l.5-.5.5-.5h1 1l1 .5 1 .5 1 1 1 1 .5 17 .5 17-2 10.5-2 10.5 3 12.5 3 12.5 2 14 2 14v13.5 13.5l-.5 16-.5 16-1.5 16.5-1.5 16.5-.5 15.5-.5 15.5.5 14.5.5 14.5" style="fill:#ab524b;stroke:#ab524b" />
        <path d="m146 769l23-4 14 .5 14 .5 1 1 1 1h1 1l-16-5.5-16-5.5-11.5 6-11.5 6" style="fill:#84766a;stroke:#84766a" />
        <path d="m133 765l3-11 9 .5 9 .5 7-1.5 7-1.5 9.5-6.5 9.5-6.5 10.5-6 10.5-6 10-6.5 10-6.5 10.5-6.5 10.5-6.5v-.5-.5h-12.5-12.5l-14.5-2-14.5-2-11-7-11-7-5-12.5-5-12.5-2-16-2-16v-15.5-15.5l-2-12-2-12 1.5-14 1.5-14 1-17 1-17v-16.5-16.5l1.5-16.5 1.5-16.5-1-20.5-1-20.5-.5 1.5-.5 1.5-.5.5-.5.5v1 1l-.5.5-.5.5-1 .5-1 .5h-1-1-1-1l-1.5-.5-1.5-.5v-15-15l1-16.5 1-16.5-13-3-13-3-3.5-13-3.5-13 .5-25 .5-25-1 15-1 15v18 18l9 8.5 9 8.5 5.5 6.5 5.5 6.5-.5 15-.5 15 5.5 11.5 5.5 11.5 2.5 11 2.5 11-3 14-3 14-3 10.5-3 10.5-5.5 10.5-5.5 10.5-17 10.5-17 10.5-10-3-10-3-14 2.5-14 2.5-13-1-13-1-15-4.5-15-4.5v3 3 2 2 2.5 2.5 2 2 2 2 2.5 2.5 2 2 2.5 2.5 1.5 1.5l11-3.5 11-3.5 9 3.5 9 3.5 6-2 6-2 7-3.5 7-3.5-1.5 4.5-1.5 4.5 14.5 1 14.5 1-1.5 10.5-1.5 10.5 11 2.5 11 2.5 11.5-4.5 11.5-4.5 5 3.5 5 3.5v10 10l1 17.5 1 17.5-9.5-6-9.5-6-11.5-6.5-11.5-6.5 7-9.5 7-9.5-10.5-1.5-10.5-1.5-3 9.5-3 9.5-6.5-6.5-6.5-6.5-10-3.5-10-3.5-13-1-13-1-16-11.5-16-11.5v19 19 17.5 17.5 3 3l1-.5 1-.5 2-.5 2-.5 1.5-.5 1.5-.5 1 .5 1 .5.5 1.5.5 1.5h-1-1l-1 .5-1 .5-.5 1.5-.5 1.5 1 1.5 1 1.5v1 1l-2-.5-2-.5-1.5-.5-1.5-.5-1-.5-1-.5v18.5 18.5 18 18 2.5 2.5l19.5 7 19.5 7 9.5 7 9.5 7 12.5 4.5 12.5 4.5 12.5 2 12.5 2 12.5.5 12.5.5" style="fill:#391d12;stroke:#391d12" />
        <path d="m281 765l4 1 5.5-23 5.5-23 2-14 2-14-.5-1.5-.5-1.5-1-1.5-1-1.5v-2-2l-.5-1.5-.5-1.5-1-1.5-1-1.5-1-.5-1-.5-.5 2.5-.5 2.5-.5 17.5-.5 17.5-4 22.5-4 22.5-1-1.5-1-1.5-.5-1.5-.5-1.5-.5-1-.5-1v-.5-.5l-1.5 1-1.5 1 .5 1.5.5 1.5v1 1l.5 1 .5 1v1 1l.5.5.5.5.5.5.5.5 1 .5 1 .5" style="fill:#9d3629;stroke:#9d3629" />
        <path d="m282 760l8-45-2-20.5-2-20.5-1-14.5-1-14.5-2-14.5-2-14.5-2.5-13.5-2.5-13.5-.5 1-.5 1v2 2l-.5.5-.5.5v1.5 1.5 2 2h-1-1v-3.5-3.5l-5 17.5-5 17.5v-15-15l-.5-14-.5-14-.5-15-.5-15-.5-16.5-.5-16.5-.5-15-.5-15 1-16.5 1-16.5-1.5-15.5-1.5-15.5-1-15.5-1-15.5-.5-16.5-.5-16.5.5-16 .5-16 1-16.5 1-16.5-1.5-13.5-1.5-13.5v1.5 1.5 1.5 1.5l-.5 1-.5 1-.5 16-.5 16-1 15.5-1 15.5-.5 15.5-.5 15.5v16.5 16.5l1 7.5 1 7.5 2.5 14 2.5 14-1 26-1 26v1.5 1.5 17 17l.5 17.5.5 17.5v16.5 16.5l-1.5 14.5-1.5 14.5 2.5 15 2.5 15 6.5 7.5 6.5 7.5 1.5-16 1.5-16 2.5-8.5 2.5-8.5.5 16 .5 16v17 17l.5 16.5.5 16.5-.5 16.5-.5 16.5.5 1 .5 1 .5 1.5.5 1.5 1 1.5 1 1.5" style="fill:#c23a29;stroke:#c23a29" />
        <path d="m274 752l1 1 1.5-1 1.5-1-4-13-4-13-5-12-5-12-4.5-13.5-4.5-13.5-3-14.5-3-14.5-3-13.5-3-13.5v-15-15l3.5-14 3.5-14 2-14.5 2-14.5 1.5-19 1.5-19v-1.5-1.5l-4-10-4-10-5 5.5-5 5.5 4 7 4 7-2 15.5-2 15.5-2 14.5-2 14.5-2 15-2 15v16 16l1.5 16 1.5 16 1 15.5 1 15.5-12 7-12 7 13-3 13-3 8 6.5 8 6.5 4.5 14 4.5 14 5.5 11.5 5.5 11.5" style="fill:#9a2900;stroke:#9a2900" />
        <path d="m278 751v1l.5-16.5.5-16.5-.5-16.5-.5-16.5v-17-17l-.5-16-.5-16-2.5 8.5-2.5 8.5-1.5 16-1.5 16-6.5-7.5-6.5-7.5-2.5-15-2.5-15 1.5-14.5 1.5-14.5v-16.5-16.5l-.5-17.5-.5-17.5v-17-17l-1.5 19-1.5 19-2 14.5-2 14.5-3.5 14-3.5 14v15 15l3 13.5 3 13.5 3 14.5 3 14.5 4.5 13.5 4.5 13.5 5 12 5 12 4 13 4 13" style="fill:#c83403;stroke:#c83403" />
        <path d="m185 749l25-12 11.5-6.5 11.5-6.5 10-7 10-7v-3-3h-1-1l-.5 1-.5 1-.5.5-.5.5-1.5.5-1.5.5 1 .5 1 .5-.5.5-.5.5-.5.5-.5.5-.5.5-.5.5-1 .5-1 .5-.5.5-.5.5h-1-1l-.5.5-.5.5v-1-1l-17 11-17 11-10 7-10 7" style="fill:#7c574d;stroke:#7c574d" />
        <path d="m239 715l1-1h1 1l.5-.5.5-.5 1-.5 1-.5.5-.5.5-.5.5-.5.5-.5.5-.5.5-.5-1-.5-1-.5-1 .5-1 .5-1 .5-1 .5-.5.5-.5.5-1 1-1 1v1 1" style="fill:#84766a;stroke:#84766a" />
        <path d="m249 700v1h.5.5 2 2l-8-6.5-8-6.5-13 3-13 3h-2-2-1-1-1-1l-1.5-.5-1.5-.5h-1.5-1.5l-.5-.5-.5-.5h-1-1l-.5-.5-.5-.5-1-.5-1-.5-.5-.5-.5-.5-.5-.5-.5-.5-1-.5-1-.5-9.5-7.5-9.5-7.5-2-17.5-2-17.5-.5-.5-.5-.5-.5-1-.5-1v-2.5-2.5-2-2l.5-2 .5-2v-2-2-2-2-1-1-1.5-1.5-2-2l-.5-2-.5-2v-2-2l.5-2 .5-2v-.5-.5l-.5-.5-.5-.5-1.5-14.5-1.5-14.5 1.5-16 1.5-16v-17.5-17.5l1.5-25 1.5-25v-1.5-1.5-2-2-2.5-2.5l.5-1.5.5-1.5v-2.5-2.5l-.5-1.5-.5-1.5.5-1.5.5-1.5v-3.5-3.5l-.5-.5-.5-.5v-2.5-2.5-1-1-1.5-1.5l-.5-1.5-.5-1.5v-1-1l-.5-.5-.5-.5v-1-1-1.5-1.5-2-2-1-1l.5-1 .5-1v-2-2-1-1l-1-.5-1-.5v2 2l-.5 1.5-.5 1.5-.5 1.5-.5 1.5v1.5 1.5 1 1 1 1 1.5 1.5 1 1 1 1 1.5 1.5l1 20.5 1 20.5-1.5 16.5-1.5 16.5v16.5 16.5l-1 17-1 17-1.5 14-1.5 14 2 12 2 12v15.5 15.5l2 16 2 16 5 12.5 5 12.5 11 7 11 7 14.5 2 14.5 2h12.5 12.5" style="fill:#641b07;stroke:#641b07" />
        <path d="m201 693l3 1h1 1 1 1 2 2v-.5-.5l-1.5-.5-1.5-.5-2-.5-2-.5-1.5-.5-1.5-.5-2-.5-2-.5-2-.5-2-.5-1.5-.5-1.5-.5h-1.5-1.5l1 .5 1 .5.5.5.5.5.5.5.5.5 1 .5 1 .5.5.5.5.5h1 1l.5.5.5.5h1.5 1.5" style="fill:#9a2900;stroke:#9a2900" />
        <path d="m212 693v1l12-7 12-7-1-15.5-1-15.5-1.5-16-1.5-16v-16-16l2-15 2-15 2-14.5 2-14.5 2-15.5 2-15.5-4-7-4-7 5-5.5 5-5.5 4 10 4 10 1-26 1-26-2.5-14-2.5-14-1-7.5-1-7.5v-16.5-16.5l.5-15.5.5-15.5 1-15.5 1-15.5.5-16 .5-16-1.5 15.5-1.5 15.5-.5 16-.5 16-1.5 15.5-1.5 15.5-1 15.5-1 15.5-1 16-1 16-3 20-3 20 .5-31 .5-31-2 16.5-2 16.5-4.5-2.5-4.5-2.5-1.5-16-1.5-16 1-14 1-14-2-11.5-2-11.5-3 15-3 15-4.5 13-4.5 13-2.5 15.5-2.5 15.5-1 16.5-1 16.5.5 17.5.5 17.5 1.5 14 1.5 14-1 15-1 15 2 12.5 2 12.5-1.5 12.5-1.5 12.5.5 16 .5 16-1 7-1 7 4 9 4 9-6 6-6 6v.5.5l2 .5 2 .5 2 .5 2 .5 1.5.5 1.5.5 2 .5 2 .5 1.5.5 1.5.5" style="fill:#c83403;stroke:#c83403" />
        <path d="m191 687l3 1v-.5-.5-.5-.5l-9.5-7-9.5-7-3.5-14.5-3.5-14.5-1-27-1-27v-.5-.5-1.5-1.5l-.5 1-.5 1-.5 2-.5 2v.5.5l.5 1 .5 1v2 2 1 1 1 1 1 1 1.5 1.5 2 2 1 1 1.5 1.5 2 2 1 1 1.5 1.5 2 2 1 1 1 1 2 2l2 17.5 2 17.5 9.5 7.5 9.5 7.5h1.5 1.5" style="fill:#9d3629;stroke:#9d3629" />
        <g style="fill:#c23a29;stroke:#c23a29">
            <path d="m194 686v1l6-6 6-6-4-9-4-9 1-7 1-7-.5-16-.5-16 1.5-12.5 1.5-12.5-2-12.5-2-12.5 1-15 1-15-1.5-14-1.5-14-.5-17.5-.5-17.5 1-16.5 1-16.5 2.5-15.5 2.5-15.5 4.5-13 4.5-13 3-15 3-15 2 11.5 2 11.5-1 14-1 14 1.5 16 1.5 16 4.5 2.5 4.5 2.5 2-16.5 2-16.5v-1.5-1.5-2-2-.5-.5-1.5-1.5-2-2-2.5-2.5-1.5-1.5l-.5 1.5-.5 1.5v1.5 1.5 1 1l-.5.5-.5.5v1 1 1 1l-.5 1-.5 1v1 1 1 1l-.5.5-.5.5-.5 1-.5 1v1 1 1 1h-1-1l-1-14-1-14 .5-15.5.5-15.5 2-16 2-16 5-15.5 5-15.5.5-2 .5-2v-2.5-2.5l.5-2 .5-2v-1.5-1.5l1-1 1-1 .5-2 .5-2 .5-1.5.5-1.5.5-1 .5-1-2.5 1-2.5 1-1.5.5-1.5.5h-1-1l-.5 1-.5 1-.5.5-.5.5-.5 1-.5 1-1.5.5-1.5.5-1 .5-1 .5-1 1.5-1 1.5-3 14-3 14-2 15.5-2 15.5-5 14.5-5 14.5-5.5-8-5.5-8h-1-1l-1-1-1-1-.5-1.5-.5-1.5v-1-1-1.5-1.5l-.5-1.5-.5-1.5-1.5.5-1.5.5-1 27-1 27 .5 27 .5 27-.5 16-.5 16-.5 16-.5 16-3 20-3 20v-15.5-15.5l-2-15.5-2-15.5-1-16-1-16-2.5-12-2.5-12v2 2 2 2 1 1 1.5 1.5 2 2l-.5.5-.5.5v1.5 1.5 2 2 1 1 1.5 1.5 3 3l1.5 16 1.5 16 .5 16.5.5 16.5.5 15 .5 15-3.5 17-3.5 17 1 27 1 27 3.5 14.5 3.5 14.5 9.5 7 9.5 7" />
            <path d="m290 679l1 1 .5-2.5.5-2.5 1 .5 1 .5.5-1.5.5-1.5v-1-1-1-1l-.5-1-.5-1v-1-1l.5-.5.5-.5v-1-1-1.5-1.5-1-1-1-1-1-1-2-2l-1.5.5-1.5.5v1.5 1.5 2.5 2.5l-.5 1.5-.5 1.5v2.5 2.5 2 2l-.5 2-.5 2v1 1 1.5 1.5" />
        </g>
        <path d="m292 649v1l1.5-.5 1.5-.5v-1.5-1.5-1-1-2-2-.5-.5l1-16 1-16 1-6.5 1-6.5v-2-2-1.5-1.5-2-2-2-2l.5-2 .5-2v-2-2-2.5-2.5l.5-1.5.5-1.5.5-2 .5-2-.5-2-.5-2-.5 2-.5 2-.5 1-.5 1v1 1l-.5.5-.5.5v1 1 1.5 1.5l-.5.5-.5.5v1 1 1 1l-.5 1.5-.5 1.5v1.5 1.5 1 1l-.5 1.5-.5 1.5-.5 2-.5 2-1 30-1 30" style="fill:#9d3629;stroke:#9d3629" />
        <path d="m5 647l4 1v-1-1l-1-1.5-1-1.5.5-1.5.5-1.5 1-.5 1-.5h1 1l-.5-1.5-.5-1.5-1-.5-1-.5-1.5.5-1.5.5-2 .5-2 .5-1 .5-1 .5v2.5 2.5 1 1l1 .5 1 .5 1.5.5 1.5.5" style="fill:#1b1307;stroke:#1b1307" />
        <path d="m295 639v1l2-23 2-23-1 6.5-1 6.5-1 16-1 16" style="fill:#9a2900;stroke:#9a2900" />
        <path d="m164 636l1 1v-2-2-1-1-1-1-2-2-1.5-1.5-1-1-2-2-1.5-1.5-1-1-2-2-1.5-1.5-1-1-1-1-1-1-2-2l-.5-1-.5-1-.5 2-.5 2v2 2l.5 2 .5 2v2 2 1.5 1.5 1 1 2 2 2 2l-.5 2-.5 2v2 2 2.5 2.5l.5 1 .5 1" style="fill:#772f27;stroke:#772f27" />
        <g style="fill:#3d3529;stroke:#3d3529">
            <path d="m146 632l-2-35v-10-10l-5-3.5-5-3.5-11.5 4.5-11.5 4.5-11-2.5-11-2.5 1.5-10.5 1.5-10.5-14.5-1-14.5-1 1.5-4.5 1.5-4.5-7 3.5-7 3.5-6 2-6 2-9-3.5-9-3.5-11 3.5-11 3.5v3 3l16 11.5 16 11.5 13 1 13 1 10 3.5 10 3.5 6.5 6.5 6.5 6.5 3-9.5 3-9.5 10.5 1.5 10.5 1.5-7 9.5-7 9.5 11.5 6.5 11.5 6.5 9.5 6 9.5 6" />
            <path d="m77 603l3 1 1-1 1-1 .5-2 .5-2 .5-1.5.5-1.5h-1.5-1.5l-.5 1.5-.5 1.5-1.5 1-1.5 1-.5 1.5-.5 1.5h.5.5" />
        </g>
        <path d="m271 603h2v-2-2-1.5-1.5l.5-.5.5-.5v-2-2l.5-1 .5-1-1.5-1-1.5-1-.5 1.5-.5 1.5v3 3 3.5 3.5" style="fill:#9d3629;stroke:#9d3629" />
        <path d="m287 602h2l.5-.5.5-.5.5-2 .5-2 .5-1.5.5-1.5.5-1.5.5-1.5.5-1 .5-1 .5-16 .5-16-6.5-10.5-6.5-10.5-4.5 7-4.5 7 4 11.5 4 11.5 3 14.5 3 14.5" style="fill:#84766a;stroke:#84766a" />
        <path d="m163 590l1 1 .5-2 .5-2 .5-1 .5-1-1-14-1-14 1-16.5 1-16.5.5-32 .5-32v-.5-.5-1.5-1.5l-.5-1-.5-1 .5-1.5.5-1.5v-1-1-1-1l-.5-1.5-.5-1.5-1.5 25-1.5 25v17.5 17.5l-1.5 16-1.5 16 1.5 14.5 1.5 14.5" style="fill:#9a2900;stroke:#9a2900" />
        <path d="m166 588v1l3.5-17 3.5-17-.5-15-.5-15-.5-16.5-.5-16.5-1.5-16-1.5-16h-.5-.5l-.5 32-.5 32-1 16.5-1 16.5 1 14 1 14v1.5 1.5" style="fill:#c83403;stroke:#c83403" />
        <path d="m349 582h3v-1.5-1.5-2.5-2.5-2-2-2.5-2.5-2-2-2.5-2.5-2-2-.5-.5l-.5-.5-.5-.5v-1.5-1.5l-1-1-1-1v-1.5-1.5 20 20" style="fill:#84766a;stroke:#84766a" />
        <path d="m351 550l1 1v-18.5-18.5-18-18-10.5-10.5l-1.5 10.5-1.5 10.5-3.5-9.5-3.5-9.5-1 1-1 1-.5 2-.5 2-1 1-1 1-1.5-.5-1.5-.5-.5-14-.5-14-.5-23-.5-23 .5 1 .5 1 .5 1.5.5 1.5.5 1.5.5 1.5-.5 2-.5 2v2 2l.5 1.5.5 1.5 1 .5 1 .5-1-16.5-1-16.5-2.5-14.5-2.5-14.5-2 11.5-2 11.5v15.5 15.5l-.5 14.5-.5 14.5v14.5 14.5l2.5 7 2.5 7 4 14 4 14 5.5 19 5.5 19v1.5 1.5l1 1 1 1v1.5 1.5" style="fill:#7c574d;stroke:#7c574d" />
        <path d="m180 542l6-40 .5-16 .5-16 .5-16 .5-16-.5-.5-.5-.5v-26.5-26.5l1-27 1-27 1-16 1-16 .5-17 .5-17-1 2-1 2v2 2l-.5 2-.5 2v2 2l-.5 2-.5 2-.5 1.5-.5 1.5v2.5 2.5l-.5 1.5-.5 1.5-.5 1-.5 1-.5 2.5-.5 2.5-.5 1.5-.5 1.5h-1-1l-.5-1.5-.5-1.5-2.5 22-2.5 22-.5-1-.5-1v-1.5-1.5-2.5-2.5l-.5-1.5-.5-1.5-.5-2.5-.5-2.5-.5-.5-.5-.5-.5-2.5-.5-2.5v-2.5-2.5-2-2l.5-1.5.5-1.5.5-2 .5-2v2 2l1-1.5 1-1.5v-2-2l-.5-2-.5-2v-2-2l-.5-2-.5-2v-2-2-1.5-1.5l-.5-1-.5-1-.5-.5-.5-.5-1-.5-1-.5h-1.5-1.5l-.5 1.5-.5 1.5v26 26 1.5 1.5 2 2 1 1 1 1l.5.5.5.5v1.5 1.5l.5.5.5.5v1 1 2 2l.5 2 .5 2v2.5 2.5 2 2 2.5 2.5l.5 1.5.5 1.5-.5 1.5-.5 1.5v2.5 2.5l.5 1.5.5 1.5v2 2 2.5 2.5l.5 1.5.5 1.5v2.5 2.5 2 2 2.5 2.5 2 2 2.5 2.5l2.5 12 2.5 12 1 16 1 16 2 15.5 2 15.5v15.5 15.5" style="fill:#ab524b;stroke:#ab524b" />
        <path d="m336 534l2-1-.5-1.5-.5-1.5v-2.5-2.5-2-2-2.5-2.5-2.5-2.5l-1-1-1-1-1-.5-1-.5h-1-1l-.5.5-.5.5v2 2l1 1.5 1 1.5.5-1.5.5-1.5h1.5 1.5v2 2 2.5 2.5 2 2h-1-1v-1.5-1.5l-.5-.5-.5-.5v-1-1l-.5-1.5-.5-1.5v2 2l.5 1.5.5 1.5v2 2l1 1.5 1 1.5.5 1.5.5 1.5" style="fill:#9d3629;stroke:#9d3629" />
        <path d="m334 526h2v-2-2-2.5-2.5-2-2h-1.5-1.5l-.5 1.5-.5 1.5v.5.5l.5 1.5.5 1.5v1 1l.5.5.5.5v1.5 1.5" style="fill:#9a2900;stroke:#9a2900" />
        <path d="m104 525l34-21 5.5-10.5 5.5-10.5 3-10.5 3-10.5 3-14 3-14-2.5-11-2.5-11-5.5-11.5-5.5-11.5.5-15 .5-15-5.5-6.5-5.5-6.5-9-8.5-9-8.5v-18-18l1-15 1-15-1.5-.5-1.5-.5-.5-.5-.5-.5-1-.5-1-.5-1.5-.5-1.5-.5-.5-.5-.5-.5-1-.5-1-.5-1-1-1-1h-1-1l-1-1-1-1 1 6 1 6-3.5 12-3.5 12 .5 16 .5 16-9.5 8.5-9.5 8.5-15-1-15-1-24-1.5-24-1.5v2.5 2.5 1.5 1.5l9.5 9 9.5 9-9.5 8.5-9.5 8.5v2.5 2.5 2.5 2.5 2 2 2.5 2.5 2 2 2.5 2.5 2 2 2 2l12.5-4.5 12.5-4.5 14.5 2 14.5 2 14.5-2 14.5-2-4 7-4 7-15 3-15 3-22.5 6-22.5 6v2.5 2.5 2 2 2.5 2.5 2 2 2.5 2.5 2 2 2 2 2.5 2.5l11.5-5.5 11.5-5.5 14-1.5 14-1.5 13.5-.5 13.5-.5.5 4 .5 4-12 3.5-12 3.5-12.5 3.5-12.5 3.5-15 9-15 9v1.5 1.5 2 2 2.5 2.5 2 2 .5.5l15 4.5 15 4.5 13 1 13 1 14-2.5 14-2.5 10 3 10 3" style="fill:#1b1307;stroke:#1b1307" />
        <path d="m265 504l7-24-3.5-10-3.5-10v20.5 20.5h-.5-.5l.5 1.5.5 1.5" style="fill:#7c574d;stroke:#7c574d" />
        <g style="fill:#84766a;stroke:#84766a">
            <path d="m327 504l3 1h2 2l2-.5 2-.5-4-14-4-14-2.5-7-2.5-7v-14.5-14.5l.5-14.5.5-14.5v-15.5-15.5l2-11.5 2-11.5 2.5 14.5 2.5 14.5 1 16.5 1 16.5 2.5 23.5 2.5 23.5 3.5 9.5 3.5 9.5 1.5-10.5 1.5-10.5v-18.5-18.5-17.5-17.5-9.5-9.5l-3-7.5-3-7.5 1 13 1 13-3 11.5-3 11.5-3-12.5-3-12.5-1.5-14.5-1.5-14.5-4-6-4-6-5 10.5-5 10.5-7.5-3.5-7.5-3.5 1.5-15 1.5-15-1-17-1-17-3-13.5-3-13.5-1.5 14-1.5 14 .5 14.5.5 14.5-5-2.5-5-2.5v15.5 15.5l-1 16-1 16-1.5 14-1.5 14-1.5-15-1.5-15 1-16 1-16-1.5-15-1.5-15 .5-16.5.5-16.5v-12.5-12.5l6-19.5 6-19.5 1-1.5 1-1.5h-1-1l-1 1-1 1-.5 1-.5 1-2 .5-2 .5-.5.5-.5.5-1 .5-1 .5-1.5-.5-1.5-.5h-1-1-1-1l-1.5.5-1.5.5-1.5.5-1.5.5h-1.5-1.5l-1.5.5-1.5.5-2 1.5-2 1.5.5 1 .5 1-1 1-1 1-1 1.5-1 1.5-1 1-1 1-1 1.5-1 1.5-1 1-1 1-1 1.5-1 1.5-1.5.5-1.5.5-1.5.5-1.5.5-1.5 1-1.5 1v1 1l.5 1.5.5 1.5 14.5 11.5 14.5 11.5-2.5 14-2.5 14-.5 16-.5 16 1 14.5 1 14.5 1 16 1 16 .5 1.5.5 1.5v2 2 2.5 2.5 2 2 2 2l.5 2 .5 2 .5 1.5.5 1.5v2.5 2.5l.5 1.5.5 1.5 1.5 1 1.5 1h2.5 2.5 2 2 1.5 1.5l1-1 1-1 .5-2 .5-2v-1.5-1.5-.5-.5l-.5-1.5-.5-1.5v-1.5-1.5-1-1-1-1-1-1l-.5-1-.5-1v-1-1-1-1l.5-.5.5-.5.5-1 .5-1 .5-.5.5-.5.5.5.5.5.5.5.5.5v1 1l.5.5.5.5.5 1 .5 1v1.5 1.5l1 .5 1 .5.5 1 .5 1 .5.5.5.5.5.5.5.5v1 1l.5 1 .5 1 .5.5.5.5.5.5.5.5.5.5.5.5.5 1 .5 1v1 1l.5.5.5.5v1 1l.5.5.5.5.5.5.5.5v1.5 1.5l.5.5.5.5v1 1 1 1l-.5 1.5-.5 1.5v1.5 1.5l-.5 2-.5 2-.5 1-.5 1 1-.5 1-.5 1-.5 1-.5 1 1 1 1v2 2l.5 2 .5 2 .5 1.5.5 1.5.5 2 .5 2v2 2l.5 1.5.5 1.5.5 1 .5 1v1 1 1.5 1.5 2 2 1 1 1.5 1.5l.5 1.5.5 1.5.5.5.5.5v1.5 1.5l-.5 1.5-.5 1.5h-1.5-1.5l.5 1 .5 1h1 1l1 .5 1 .5.5.5.5.5.5.5.5.5h1 1l.5.5.5.5 1 .5 1 .5.5.5.5.5.5.5.5.5h1 1l1 .5 1 .5" />
            <path d="m265 501v-41l-2 14-2 14 1.5 6.5 1.5 6.5h.5.5" />
        </g>
        <path d="m0 495v1l15-9 15-9 12.5-3.5 12.5-3.5 12-3.5 12-3.5-.5-4-.5-4-13.5.5-13.5.5-14 1.5-14 1.5-11.5 5.5-11.5 5.5v3 3 2 2 2.5 2.5 2 2 2.5 2.5" style="fill:#391d12;stroke:#391d12" />
        <path d="m307 493l2 1v-.5-.5l-.5-1-.5-1-1.5-.5-1.5-.5-.5-.5-.5-.5-1-.5-1-.5-1-1-1-1-.5-.5-.5-.5h-1.5-1.5l-1-1-1-1-.5-.5-.5-.5-1-.5-1-.5-1-1.5-1-1.5-.5 1-.5 1 .5.5.5.5.5 1.5.5 1.5 1 .5 1 .5.5.5.5.5 1 1 1 1 1 .5 1 .5.5.5.5.5 1.5.5 1.5.5 1 .5 1 .5.5.5.5.5h1.5 1.5" style="fill:#7c574d;stroke:#7c574d" />
        <path d="m309 493v1h1.5 1.5l.5-1.5.5-1.5v-1.5-1.5l-.5-.5-.5-.5-.5-1.5-.5-1.5v-1.5-1.5-1-1-2-2-1.5-1.5-1-1l-.5-1-.5-1v2.5 2.5 2.5 2.5 2 2 2.5 2.5l.5 1.5.5 1.5h-1-1l-9.5-7.5-9.5-7.5 6-15 6-15-1 .5-1 .5-1.5 1.5-1.5 1.5-1 1-1 1-1 1-1 1-1 1.5-1 1.5v2 2l-.5 2-.5 2-.5 1.5-.5 1.5v2.5 2.5l-.5 2.5-.5 2.5.5.5.5.5 1 1.5 1 1.5 1 .5 1 .5.5.5.5.5 1 1 1 1h1.5 1.5l.5.5.5.5 1 1 1 1 1 .5 1 .5.5.5.5.5 1.5.5 1.5.5.5 1 .5 1" style="fill:#979384;stroke:#979384" />
        <path d="m309 490h2l-.5-1.5-.5-1.5v-2.5-2.5-2-2-2.5-2.5-2.5-2.5l-.5-1.5-.5-1.5v-2-2l-.5-2-.5-2-.5-1.5-.5-1.5-.5-2-.5-2v-2-2l-1-1-1-1-1 .5-1 .5-6 15-6 15 9.5 7.5 9.5 7.5" style="fill:#bbb7ab;stroke:#bbb7ab" />
        <path d="m315 488l-1-24-2.5-8.5-2.5-8.5 1.5 12 1.5 12 1.5 8.5 1.5 8.5" style="fill:#7c574d;stroke:#7c574d" />
        <path d="m304 485l2-25-5.5-.5-5.5-.5 3 11.5 3 11.5 1.5 1.5 1.5 1.5" style="fill:#d8d4c8;stroke:#d8d4c8" />
        <path d="m287 476l1 1 .5-2.5.5-2.5v-2.5-2.5l.5-1.5.5-1.5.5-2 .5-2v-2-2l1-1.5 1-1.5 1-1 1-1 1-1 1-1 1.5-1.5 1.5-1.5.5-1 .5-1 .5-2 .5-2v-1.5-1.5l-1 1-1 1-.5 1.5-.5 1.5-1.5 1-1.5 1-1.5.5-1.5.5-.5 1.5-.5 1.5-.5 2-.5 2-1 1.5-1 1.5v2 2 1.5 1.5l-1 1-1 1-.5 1-.5 1v1.5 1.5 1 1l.5 1 .5 1v1.5 1.5" style="fill:#7c574d;stroke:#7c574d" />
        <path d="m334 466l3 1 1-1 1-1 .5-2 .5-2 1-1 1-1-2.5-23.5-2.5-23.5-1-.5-1-.5-.5-1.5-.5-1.5v-2-2l.5-2 .5-2-.5-1.5-.5-1.5-.5-1.5-.5-1.5-.5-.5-.5-.5v-.5-.5l.5 23 .5 23 .5 14 .5 14" style="fill:#ab524b;stroke:#ab524b" />
        <path d="m235 465l6-40 1-16 1-16 1-15.5 1-15.5 1.5-15.5 1.5-15.5.5-16 .5-16 1.5-15.5 1.5-15.5.5-1 .5-1v-1.5-1.5-1.5-1.5l-2-1.5-2-1.5-.5 1-.5 1-.5 1.5-.5 1.5-.5 2-.5 2-1 1-1 1v1.5 1.5 17.5 17.5l-2 24-2 24v1.5 1.5l-.5 1.5-.5 1.5v2.5 2.5 2 2l-.5 2-.5 2v2 2 2.5 2.5l-.5 1.5-.5 1.5v2.5 2.5 2 2l-.5 1-.5 1v2 2 1.5 1.5l-.5 31-.5 31" style="fill:#9a2900;stroke:#9a2900" />
        <g style="fill:#9d3629;stroke:#9d3629">
            <path d="m286 465v1l.5-1 .5-1 1-1 1-1v-1.5-1.5-2-2l-1 .5-1 .5-1 1.5-1 1.5v2 2l.5 1 .5 1" />
            <path d="m167 459v1h.5.5v-3-3-1.5-1.5-1-1-2-2-1.5-1.5l.5-.5.5-.5v-2-2-1.5-1.5-1-1-2-2-2-2-2.5-2.5-2-2-2.5-2.5-2-2-2.5-2.5l-.5-1.5-.5-1.5v-2.5-2.5-2-2l-.5-1.5-.5-1.5v2.5 2.5 2 2 2.5 2.5 2 2 3.5 3.5 3.5 3.5l-.5 1.5-.5 1.5.5 1.5.5 1.5v2.5 2.5l-.5 1.5-.5 1.5v2.5 2.5 2 2 1.5 1.5l.5 1.5.5 1.5v1 1 1 1l-.5 1.5-.5 1.5.5 1 .5 1v1.5 1.5" />
            <path d="m187 437l1 1-.5-27-.5-27v26.5 26.5" />
        </g>
        <path d="m0 434v1l22.5-6 22.5-6 15-3 15-3 4-7 4-7-14.5 2-14.5 2-14.5-2-14.5-2-12.5 4.5-12.5 4.5v1.5 1.5 2 2 2.5 2.5l13-3.5 13-3.5 14-2 14-2 13.5-3 13.5-3-8.5 4.5-8.5 4.5-15 2.5-15 2.5-17 5-17 5v1.5 1.5" style="fill:#391d12;stroke:#391d12" />
        <path d="m0 430v1l17-5 17-5 15-2.5 15-2.5 8.5-4.5 8.5-4.5-13.5 3-13.5 3-14 2-14 2-13 3.5-13 3.5v2 2 1 1" style="fill:#3d3529;stroke:#3d3529" />
        <g style="fill:#7c574d;stroke:#7c574d">
            <path d="m264 428l3 1 1-1 1-1-1.5-1-1.5-1-.5-1.5-.5-1.5v-2.5-2.5l-.5-1.5-.5-1.5-.5-2-.5-2v-2-2-2-2-2.5-2.5-2-2l-.5-1.5-.5-1.5-.5 2.5-.5 2.5.5 2 .5 2v2 2 2 2 2.5 2.5l.5 1.5.5 1.5v2.5 2.5l.5 1.5.5 1.5v2.5 2.5" />
            <path d="m284 417v1l1-.5 1-.5.5-1.5.5-1.5-.5-1-.5-1 .5-.5.5-.5 1-1 1-1v-.5-.5-1.5-1.5-1.5-1.5l-.5-1-.5-1-.5-.5-.5-.5v-1-1l-.5-.5-.5-.5-.5-.5-.5-.5-.5.5-.5.5-.5 1-.5 1-.5.5-.5.5v1 1 1 1l.5 1 .5 1v1 1 1 1 1 1 1.5 1.5l.5 1.5.5 1.5" />
        </g>
        <path d="m166 410l1 1v-3.5-3.5-2-2-2.5-2.5-2-2-2.5-2.5-2.5-2.5l.5-1.5.5-1.5-.5-1.5-.5-1.5v-2.5-2.5-2-2-2.5-2.5l-.5-2-.5-2-.5-.5-.5-.5-3-14-3-14-2-26.5-2-26.5-1.5-.5-1.5-.5-.5 1.5-.5 1.5-.5 1-.5 1-.5.5-.5.5v1 1 1 1l.5 1 .5 1v1 1 1 1 1 1 1 1 1 1l.5 2 .5 2 1 .5 1 .5v2 2 1 1l.5 1 .5 1v2 2l.5.5.5.5v1.5 1.5 2 2l-.5 1-.5 1 4.5 21.5 4.5 21.5v2 2 2 2l1 .5 1 .5v1 1 2 2l-.5 1-.5 1v1 1 2 2 1.5 1.5 1 1l.5.5.5.5v1 1l.5 1.5.5 1.5v1.5 1.5 1 1 2.5 2.5" style="fill:#772f27;stroke:#772f27" />
        <path d="m149 408l3 1h1 1 1 1l1-.5 1-.5.5-.5.5-.5v-1-1l.5-.5.5-.5.5-1.5.5-1.5v-1.5-1.5-1-1-1-1-1.5-1.5-1-1-1-1-1.5-1.5-.5-.5-2.5-2.5l-.5-1.5-.5-1.5v-2-2-2.5-2.5h1.5 1.5l-4.5-21.5-4.5-21.5v-.5-.5l-.5-1-.5-1-.5-1.5-.5-1.5-.5-1.5-.5-1.5v-2.5-2.5l.5-1.5.5-1.5-.5-3-.5-3-.5-2-.5-2v-1-1-1-1-1-1-1-1-1-1l-.5-1-.5-1v-1-1-1-1l.5-.5.5-.5.5-1 .5-1 .5-1.5.5-1.5-16.5-5.5-16.5-5.5-.5 25-.5 25 3.5 13 3.5 13 13 3 13 3-1 16.5-1 16.5v15 15" style="fill:#3d3529;stroke:#3d3529" />
        <path d="m229 406h2v-1-1-1-1l.5-1 .5-1 .5-.5.5-.5v-1-1-1-1l.5-1 .5-1v-1-1-1-1l.5-.5.5-.5v-1-1-1.5-1.5l.5-1.5.5-1.5v-2-2-1-1l.5-1 .5-1v-2-2-1-1l.5-1 .5-1 .5-2 .5-2 .5-1.5.5-1.5v-1.5-1.5-.5-.5l.5-16.5.5-16.5.5-18 .5-18-5 15.5-5 15.5-2 16-2 16-.5 15.5-.5 15.5 1 14 1 14" style="fill:#ab524b;stroke:#ab524b" />
        <path d="m278 400l3-28 1-16 1-16v-15.5-15.5l5 2.5 5 2.5-.5-14.5-.5-14.5 1.5-14 1.5-14 3 13.5 3 13.5 1 17 1 17-1.5 15-1.5 15 7.5 3.5 7.5 3.5 5-10.5 5-10.5 4 6 4 6 1.5 14.5 1.5 14.5 3 12.5 3 12.5 3-11.5 3-11.5-1-13-1-13 3 7.5 3 7.5v-19-19-17.5-17.5-18-18-10.5-10.5l-1.5-.5-1.5-.5 1.5-12.5 1.5-12.5v-1-1h-.5-.5l-13.5 3.5-13.5 3.5-16.5 9-16.5 9-2-.5-2-.5-.5-1.5-.5-1.5-.5-2-.5-2-.5-1.5-.5-1.5.5-2 .5-2 .5-1.5.5-1.5.5-2 .5-2-6 19.5-6 19.5v12.5 12.5l-.5 16.5-.5 16.5 1.5 15 1.5 15-1 16-1 16 1.5 15 1.5 15" style="fill:#979384;stroke:#979384" />
        <g style="fill:#9d3629;stroke:#9d3629">
            <path d="m236 395v1l.5-1 .5-1v-2-2-2.5-2.5l.5-1.5.5-1.5v-2.5-2.5-2-2l.5-2 .5-2v-2-2-2.5-2.5l-.5 2-.5 2-.5 1-.5 1v1 1 2 2l-.5 1-.5 1v1 1 2 2 1.5 1.5 2.5 2.5 2 2 1.5 1.5" />
            <path d="m332 393l1 1-.5-1-.5-1v.5.5" />
        </g>
        <g style="fill:#391d12;stroke:#391d12">
            <path d="m29 385l3 1 1-1 1-1-.5-2-.5-2-1-1-1-1-2-.5-2-.5-1 1-1 1v1.5 1.5l1 1 1 1 1 .5 1 .5" />
            <path d="m161 383v1l.5-1.5.5-1.5.5-1.5.5-1.5v-2-2-2-2-2-2h-1.5-1.5v2.5 2.5 2 2l.5 1.5.5 1.5v2.5 2.5" />
            <path d="m0 375v1l9.5-8.5 9.5-8.5-9.5-9-9.5-9v1.5 1.5 2 2 2.5 2.5 2 2 2.5 2.5 2 2 2 2 2.5 2.5" />
        </g>
        <path d="m7 371l11-8-8 2-8 2 2.5 2 2.5 2" style="fill:#3d3529;stroke:#3d3529" />
        <g style="fill:#9d3629;stroke:#9d3629">
            <path d="m209 357v1l5-14.5 5-14.5 2-15.5 2-15.5 3-14 3-14-4.5 15.5-4.5 15.5-3 14.5-3 14.5-2.5 13.5-2.5 13.5" />
            <path d="m165 356l1 1v-2-2-1-1l-.5-.5-.5-.5v-1.5-1.5l-.5-.5-.5-.5v-1-1-1-1-2-2-1.5-1.5l-.5-.5-.5-.5-2.5-14.5-2.5-14.5 3-11 3-11 .5-1.5.5-1.5v-.5-.5h-1.5-1.5l-1-.5-1-.5.5-.5.5-.5.5-.5.5-.5h-1-1-1-1l-1.5-.5-1.5-.5 2 26.5 2 26.5 3 14 3 14" />
            <path d="m240 353v1l2-24 2-24v-17.5-17.5l-.5 2-.5 2v2.5 2.5l-.5 2-.5 2-.5 18-.5 18-.5 16.5-.5 16.5" />
        </g>
        <path d="m175 346l5-44v-2-2l-.5-1.5-.5-1.5v-1-1l-.5-1-.5-1-.5-1.5-.5-1.5v-2-2-1-1-1.5-1.5-2-2-1-1-1.5-1.5-2-2-1-1-1.5-1.5-2-2l-1.5-1-1.5-1v-1.5-1.5l-.5-1.5-.5-1.5h-.5-.5v1 1 1 1l-.5-.5-.5-.5h-1-1l-.5-1.5-.5-1.5v1.5 1.5l.5 1.5.5 1.5v2.5 2.5 2 2l.5 2 .5 2v2 2 2.5 2.5l.5 2.5.5 2.5.5 1 .5 1v1.5 1.5 2 2l.5 2 .5 2v2 2l.5 2 .5 2v2 2l-1 1.5-1 1.5v2 2l.5 1.5.5 1.5-.5 2-.5 2v2 2 1.5 1.5l.5 2.5.5 2.5.5 1.5.5 1.5v2.5 2.5 1.5 1.5l.5 1 .5 1" style="fill:#7c574d;stroke:#7c574d" />
        <path d="m196 342h2v-20-20-16-16l-3-4-3-4v1 1l-.5 17-.5 17-1 16-1 16 1.5-.5 1.5-.5.5 1.5.5 1.5v1.5 1.5 1 1l.5 1.5.5 1.5 1 1 1 1" style="fill:#9d3629;stroke:#9d3629" />
        <path d="m78 338l19-17-.5-16-.5-16 3.5-12 3.5-12-1-6-1-6-1-.5-1-.5-1-1-1-1-2-1-2-1 .5 12.5.5 12.5v16.5 16.5l-9 14.5-9 14.5-16.5-1-16.5-1-21.5-1-21.5-1v1 1l24 1.5 24 1.5 15 1 15 1" style="fill:#391d12;stroke:#391d12" />
        <path d="m205 336l1-1 .5-1 .5-1v-.5-.5-1.5-1.5l1-1 1-1 .5-2 .5-2 .5-1.5.5-1.5.5-2 .5-2 1-2 1-2 .5-2 .5-2 .5-.5.5-.5v-1-1l.5-.5.5-.5.5-1 .5-1v-1-1-1-1l.5-.5.5-.5v-1.5-1.5-1-1-1-1l.5-.5.5-.5.5-1 .5-1v-1-1-1.5-1.5-.5-.5l5.5-23.5 5.5-23.5-.5-2-.5-2-1.5.5-1.5.5-1 1-1 1-1.5 1-1.5 1h-2-2l-2 .5-2 .5-1.5.5-1.5.5-2 .5-2 .5-2 .5-2 .5-.5 18-.5 18v14.5 14.5l1 16 1 16" style="fill:#84766a;stroke:#84766a" />
        <path d="m76 335l18-29v-16.5-16.5l-.5-12.5-.5-12.5-23-1-23-1 10.5 3 10.5 3-1-.5-1-.5-1.5-.5-1.5-.5h-2.5-2.5-2-2-2.5-2.5-1-1v-2-2l-.5 1-.5 1-.5.5-.5.5v1 1l-.5 1-.5 1-1.5.5-1.5.5-.5-.5-.5-.5h-1-1l-.5-1-.5-1-18.5 5-18.5 5v18.5 18.5 16.5 16.5l21.5 1 21.5 1 16.5 1 16.5 1" style="fill:#3d3529;stroke:#3d3529" />
        <path d="m163 334l1 1v-26-26l-3 11-3 11 2.5 14.5 2.5 14.5" style="fill:#c23a29;stroke:#c23a29" />
        <path d="m316 334l5-28-3 12-3 12 .5 2 .5 2" style="fill:#84766a;stroke:#84766a" />
        <path d="m207 332v1l1-.5 1-.5 1-1 1-1 .5-2 .5-2 .5-1.5.5-1.5.5-2 .5-2v-2-2-1.5-1.5l-1 2-1 2-.5 2-.5 2-.5 1.5-.5 1.5-.5 2-.5 2-1 1-1 1v1.5 1.5" style="fill:#7c574d;stroke:#7c574d" />
        <path d="m171 327l1 1v-1.5-1.5-2-2l.5-2 .5-2-.5-1.5-.5-1.5v-2-2-2-2l-.5 2-.5 2-.5 1.5-.5 1.5v2 2 2.5 2.5l.5 2.5.5 2.5" style="fill:#84766a;stroke:#84766a" />
        <path d="m154 322v1l.5-1 .5-1v-2-2-1.5-1.5l-.5-.5-.5-.5v-2-2l-.5-1-.5-1v-1-1-2-2l-1-.5-1-.5.5 3 .5 3-.5 1.5-.5 1.5v2.5 2.5l.5 1.5.5 1.5.5 1.5.5 1.5.5 1 .5 1" style="fill:#641b07;stroke:#641b07" />
        <path d="m325 310h2l.5-1.5.5-1.5 1-1.5 1-1.5.5-1.5.5-1.5.5-2 .5-2-1-1-1-1-1 1.5-1 1.5-.5 1.5-.5 1.5-.5 1.5-.5 1.5-.5 2-.5 2v1 1" style="fill:#bbb7ab;stroke:#bbb7ab" />
        <path d="m181 305h2l.5-1.5.5-1.5.5-2.5.5-2.5v-.5-.5l.5-2.5.5-2.5v-2-2l.5-2 .5-2v-2-2-2-2l.5-2 .5-2v-2-2l.5-2 .5-2v-2-2l.5-1 .5-1-.5-1-.5-1-1-1-1-1h-1.5-1.5-1-1l-1.5 1-1.5 1-1 1-1 1v2 2 1.5 1.5 1 1 2 2 1.5 1.5 1 1 2 2 1.5 1.5 1 1 2 2l.5 1.5.5 1.5.5 1 .5 1v1 1l.5 1.5.5 1.5v2 2l.5 1.5.5 1.5" style="fill:#84766a;stroke:#84766a" />
        <path d="m185 296v1l.5-1 .5-1 .5-1.5.5-1.5v-2.5-2.5l.5-1.5.5-1.5.5-2 .5-2v-2-2l.5-2 .5-2v-2-2l1-2 1-2v-1-1l-1-2.5-1-2.5-.5 1-.5 1v2 2l-.5 2-.5 2v2 2l-.5 2-.5 2v2 2 2 2l-.5 2-.5 2v2 2l-.5 2.5-.5 2.5" style="fill:#7c574d;stroke:#7c574d" />
        <path d="m310 290l14-9 5-8 5-8-7-5.5-7-5.5-4 14-4 14-1 4-1 4" style="fill:#bbb7ab;stroke:#bbb7ab" />
        <path d="m170 281l1 1-.5-2.5-.5-2.5v-2.5-2.5-2-2l-.5-2-.5-2v-2-2-2.5-2.5l-.5-1.5-.5-1.5v-1.5-1.5l-.5-.5-.5-.5-.5-1.5-.5-1.5v-2-2l-.5-1-.5-1v-.5-.5h-.5-.5l-.5 1-.5 1 2.5 20 2.5 20 1 .5 1 .5" style="fill:#84766a;stroke:#84766a" />
        <path d="m221 281v1l7-18 7-18-.5-1.5-.5-1.5v-1-1l1.5-1 1.5-1v-.5-.5l-1-1-1-1-.5-.5-.5-.5v-1-1l-1 .5-1 .5-5.5 23.5-5.5 23.5" style="fill:#7c574d;stroke:#7c574d" />
        <path d="m165 279v1h1.5 1.5l-2.5-20-2.5-20v1.5 1.5l.5 1.5.5 1.5.5 2 .5 2v2 2 2 2l.5 2 .5 2v2 2l-.5 2-.5 2-.5 1.5-.5 1.5h-1.5-1.5l-1.5-.5-1.5-.5h-1.5-1.5l-.5-.5-.5-.5h-1-1l-.5-.5-.5-.5h-1.5-1.5l-1.5-.5-1.5-.5-.5-.5-.5-.5h-1-1l-.5-.5-.5-.5-1-.5-1-.5-1-1-1-1h-1-1l-1-.5-1-.5h-1-1l-.5-.5-.5-.5h-1-1l-.5-.5-.5-.5-1-.5-1-.5h-1-1l-.5-.5-.5-.5-.5-.5-.5-.5-1-.5-1-.5-.5-1-.5-1-2-.5-2-.5-1.5-.5-1.5-.5-1.5-1-1.5-1-1-1-1-1-2-.5-2-.5-1-.5-1-.5-2-1-2-1-1.5-.5-1.5-.5-3-.5-3-.5-1.5.5-1.5.5-1 .5-1 .5h-1-1-1-1-1-1l-1.5-.5-1.5-.5h-1.5-1.5l-1.5-.5-1.5-.5h-2-2-3-3-2-2-1-1-1-1-1.5-1.5l-.5.5-.5.5-.5.5-.5.5-.5.5-.5.5-.5-1-.5-1v-1-1l1-1 1-1 1-1.5 1-1.5-1-1-1-1h-1.5-1.5l-1 1-1 1-2 1.5-2 1.5-1.5 2-1.5 2-.5 1.5-.5 1.5-1.5-.5-1.5-.5.5-2 .5-2 .5-.5.5-.5.5-.5.5-.5v-1-1l1-.5 1-.5-1-1-1-1-.5-.5-.5-.5-2 .5-2 .5 2.5-7 2.5-7 19.5-2 19.5-2 23.5 6.5 23.5 6.5 23 5 23 5 .5-1 .5-1-22.5-5-22.5-5-.5-1-.5-1v-.5-.5l-2-.5-2-.5-1-1-1-1h-2-2l-1.5-1-1.5-1h-1-1l-2-.5-2-.5h-2-2l-2.5-.5-2.5-.5h-1.5-1.5l-2-.5-2-.5h-2-2l-1.5-.5-1.5-.5-1.5-1-1.5-1-2-.5-2-.5h-2-2l-.5-.5-.5-.5h-1-1l-1-.5-1-.5-.5.5-.5.5h-1-1-1-1l-1 .5-1 .5h-2-2l-.5.5-.5.5h-1.5-1.5l-1.5.5-1.5.5h-1.5-1.5l-10.5 5.5-10.5 5.5v1.5 1.5l-1 1-1 1-.5 1.5-.5 1.5v2.5 2.5l.5 1.5.5 1.5 2 .5 2 .5 1.5-.5 1.5-.5.5 1.5.5 1.5v1.5 1.5l1 1.5 1 1.5 1.5.5 1.5.5 1.5-.5 1.5-.5 1-1.5 1-1.5h1 1l.5 1.5.5 1.5.5 1 .5 1h1 1l.5.5.5.5 1.5-.5 1.5-.5.5-1 .5-1v-1-1l.5-.5.5-.5.5-1 .5-1 23 1 23 1 2 1 2 1 1 1 1 1 1 .5 1 .5 1 1 1 1h1 1l1 1 1 1 1 .5 1 .5.5.5.5.5 1.5.5 1.5.5 1 .5 1 .5.5.5.5.5 1.5.5 1.5.5 16.5 5.5 16.5 5.5 1.5.5 1.5.5 1.5.5 1.5.5h1 1 1 1l-.5.5-.5.5-.5.5-.5.5 1 .5 1 .5h1.5 1.5" style="fill:#979384;stroke:#979384" />
        <path d="m161 273h3l.5-1.5.5-1.5.5-2 .5-2v-2-2l-.5-2-.5-2v-2-2-2-2l-.5-2-.5-2-.5-1.5-.5-1.5v-1.5-1.5l-23-5-23-5 13.5 3.5 13.5 3.5 8 17 8 17h-1.5-1.5l-2-.5-2-.5-1.5-.5-1.5-.5-2-.5-2-.5-1-1-1-1h-2.5-2.5l1 .5 1 .5.5.5.5.5h1 1l.5.5.5.5 1.5.5 1.5.5h1.5 1.5l.5.5.5.5h1 1l.5.5.5.5h1.5 1.5l1.5.5 1.5.5" style="fill:#bbb7ab;stroke:#bbb7ab" />
        <path d="m160 271l-16-34-13.5-3.5-13.5-3.5-23.5-6.5-23.5-6.5 8.5 13 8.5 13 3 .5 3 .5 1.5.5 1.5.5 2 1 2 1 8 1.5 8 1.5 9.5 6 9.5 6-2.5-.5-2.5-.5-1-1-1-1-2-.5-2-.5-2.5-.5-2.5-.5 1 .5 1 .5.5.5.5.5.5.5.5.5h1 1l1 .5 1 .5.5.5.5.5h1 1l.5.5.5.5h1 1l1 .5 1 .5h1 1l1 1 1 1h2.5 2.5l1 1 1 1 2 .5 2 .5 1.5.5 1.5.5 2 .5 2 .5h1.5 1.5" style="fill:#d8d4c8;stroke:#d8d4c8" />
        <path d="m310 267l9-24-4.5 7.5-4.5 7.5v4.5 4.5" style="fill:#84766a;stroke:#84766a" />
        <path d="m231 266v1l1-.5 1-.5 1.5-.5 1.5-.5.5-1 .5-1 .5-.5.5-.5.5-1 .5-1-1.5-1.5-1.5-1.5h-1-1v1.5 1.5l-.5 1.5-.5 1.5-1 1.5-1 1.5" style="fill:#9d3629;stroke:#9d3629" />
        <path d="m135 262l-19-12-8-1.5-8-1.5 1 .5 1 .5 2 .5 2 .5 1 1 1 1 1.5 1 1.5 1 1.5.5 1.5.5 2 .5 2 .5.5 1 .5 1 2.5.5 2.5.5 2 .5 2 .5 1 1 1 1 2.5.5 2.5.5" style="fill:#efebde;stroke:#efebde" />
        <path d="m0 260v1l18.5-5 18.5-5-.5-1.5-.5-1.5h-1-1l-1 1.5-1 1.5-1.5.5-1.5.5-1.5-.5-1.5-.5-1-1.5-1-1.5v-1.5-1.5l-.5 1.5-.5 1.5-1.5 1-1.5 1h-1-1l-1-1-1-1-1.5-1-1.5-1-1.5-.5-1.5-.5-1.5 1-1.5 1-.5 1.5-.5 1.5-1 1.5-1 1.5-1 1-1 1-1 .5-1 .5v2 2" style="fill:#391d12;stroke:#391d12" />
        <path d="m0 255v1l1-.5 1-.5 1-1 1-1 1-1.5 1-1.5.5-1.5.5-1.5 1.5-1 1.5-1 1.5.5 1.5.5 1.5 1 1.5 1 1 1 1 1h1 1l1.5-1 1.5-1 .5-1.5.5-1.5-.5-1.5-.5-1.5-1.5.5-1.5.5-2-.5-2-.5-.5-1.5-.5-1.5v-2.5-2.5l.5-1.5.5-1.5 1-1 1-1v-1.5-1.5l-1-.5-1-.5-1.5 1-1.5 1-1.5.5-1.5.5h-2.5-2.5l-1.5.5-1.5.5-1 .5-1 .5v3 3 2 2 2.5 2.5 2 2 2.5 2.5.5.5" style="fill:#1b1307;stroke:#1b1307" />
        <path d="m68 252l-21-6v2 2h1 1 2.5 2.5 2 2 2.5 2.5l1.5.5 1.5.5 1 .5 1 .5" style="fill:#391d12;stroke:#391d12" />
        <path d="m169 252h2l.5.5.5.5v-1-1-1-1h.5.5l.5 1.5.5 1.5v-2.5-2.5l-.5-2-.5-2 .5-.5.5-.5 2-1 2-1 2 .5 2 .5 1 1 1 1 2 .5 2 .5 2-1 2-1 1-1 1-1 1-.5 1-.5 1-.5 1-.5v-.5-.5h-2.5-2.5l-1.5.5-1.5.5h-2.5-2.5-2-2l-2-.5-2-.5h-2-2l-1.5 1-1.5 1 .5 1.5.5 1.5.5 2 .5 2h-1-1-1-1v1.5 1.5l.5 1.5.5 1.5" style="fill:#9d3629;stroke:#9d3629" />
        <path d="m167 248l1 1v-1.5-1.5h1 1 1 1l-.5-2-.5-2-.5-1.5-.5-1.5-1.5-.5-1.5-.5-1 .5-1 .5.5 1 .5 1v2 2l.5 1.5.5 1.5" style="fill:#7c574d;stroke:#7c574d" />
        <path d="m28 246l3 1 .5-1.5.5-1.5 1.5-2 1.5-2 1.5-2 1.5-2-.5-1.5-.5-1.5 2-.5 2-.5 1.5.5 1.5.5 1 1 1 1 1 1.5 1 1.5-.5 1.5-.5 1.5 2 .5 2 .5h2 2l1 .5 1 .5h3 3l-8.5-7.5-8.5-7.5-10 3.5-10 3.5 2-.5 2-.5.5.5.5.5 1 1 1 1-1 .5-1 .5v1 1l-.5.5-.5.5-.5.5-.5.5-.5 2-.5 2" style="fill:#d8d4c8;stroke:#d8d4c8" />
        <path d="m43 246l1-1 .5-.5.5-.5.5-.5.5-.5h1.5 1.5 1 1 1 1 2 2l-1-.5-1-.5h-2-2l-2-.5-2-.5.5-1.5.5-1.5-1-1.5-1-1.5-1-1-1-1-1.5-.5-1.5-.5-2 .5-2 .5.5 1.5.5 1.5-1.5 2-1.5 2 2-1.5 2-1.5 1-1 1-1h1.5 1.5l1 1 1 1-1 1.5-1 1.5-1 1-1 1v1 1l.5 1 .5 1" style="fill:#bbb7ab;stroke:#bbb7ab" />
        <path d="m181 245l1-1h1 1l.5.5.5.5.5.5.5.5h1.5 1.5l.5-.5.5-.5.5-.5.5-.5.5-1 .5-1-2 1-2 1-2-.5-2-.5-1-1-1-1-2-.5-2-.5-2 1-2 1 1 .5 1 .5 1.5.5 1.5.5 1 .5 1 .5" style="fill:#c23a29;stroke:#c23a29" />
        <path d="m73 244l3 1h1 1 1 1 1 1l1-.5 1-.5 1.5-.5 1.5-.5-8.5-13-8.5-13-19.5 2-19.5 2-2.5 7-2.5 7 10-3.5 10-3.5 8.5 7.5 8.5 7.5h2 2l1.5.5 1.5.5h1.5 1.5" style="fill:#efebde;stroke:#efebde" />
        <path d="m165 238v1l1-.5 1-.5v-.5-.5l-1-.5-1-.5-23-4-23-4 22.5 5 22.5 5h.5.5" style="fill:#585347;stroke:#585347" />
        <path d="m167 238l3 1 1.5-1 1.5-1h2 2l2 .5 2 .5h2 2 2.5 2.5l1.5-.5 1.5-.5h2.5 2.5l24.5-7.5 24.5-7.5 2-1 2-1v-.5-.5l1-1 1-1 1-.5 1-.5 1.5-.5 1.5-.5 1.5-1 1.5-1 1.5-.5 1.5-.5 2-.5 2-.5h2 2l2-1 2-1 1-1 1-1 2-.5 2-.5 1 1 1 1 1.5-.5 1.5-.5.5-1 .5-1-1.5-.5-1.5-.5.5-.5.5-.5.5-.5.5-.5v-1.5-1.5l-.5.5-.5.5-.5.5-.5.5-.5-.5-.5-.5-1.5-.5-1.5-.5-11.5 5.5-11.5 5.5-12 6-12 6-26 5.5-26 5.5v1.5 1.5l-1.5-.5-1.5-.5h-2-2-1.5-1.5-2-2l-.5 1-.5 1v.5.5" style="fill:#772f27;stroke:#772f27" />
        <path d="m202 238l2 1 2-.5 2-.5 2-.5 2-.5 1.5-.5 1.5-.5 2-.5 2-.5h2 2l1.5-1 1.5-1 1-1 1-1 1.5-.5 1.5-.5 1.5-1 1.5-1 1.5.5 1.5.5 2-.5 2-.5 1.5-.5 1.5-.5 1-1.5 1-1.5.5-1 .5-1-24.5 7.5-24.5 7.5v.5.5h2 2" style="fill:#7c574d;stroke:#7c574d" />
        <path d="m237 238v1l1.5-.5 1.5-.5 1.5-.5 1.5-.5 1-1.5 1-1.5 1-1 1-1 1-1.5 1-1.5 1-1 1-1 1-1.5 1-1.5 1-1 1-1-.5-1-.5-1h-1.5-1.5l-2 1-2 1-.5 1-.5 1-1 1.5-1 1.5-1.5.5-1.5.5-2 .5-2 .5-1.5-.5-1.5-.5-1.5 1-1.5 1 .5 2 .5 2 1-.5 1-.5v1 1l.5.5.5.5 1 1 1 1" style="fill:#ab524b;stroke:#ab524b" />
        <path d="m165 236l2 1 .5-1 .5-1-1-1-1-1 .5-1 .5-1h1 1l.5-.5.5-.5.5-.5.5-.5h1.5 1.5l.5.5.5.5h1 1l.5.5.5.5 1 .5 1 .5 1 .5 1 .5 26-5.5 26-5.5 12-6 12-6 11.5-5.5 11.5-5.5-.5-.5-.5-.5.5.5.5.5 1.5.5 1.5.5.5.5.5.5.5-.5.5-.5.5-.5.5-.5v1.5 1.5l-.5.5-.5.5-.5.5-.5.5 1.5.5 1.5.5-3.5-13.5-3.5-13.5-12-4.5-12-4.5-4-18-4-18-.5-.5-.5-.5 5.5-22.5 5.5-22.5.5-2 .5-2 2-1 2-1 1-.5 1-.5h2 2l1-.5 1-.5-2.5-7.5-2.5-7.5 13-5 13-5h16.5 16.5l13 17 13 17v-18-18-17.5-17.5-8.5-8.5h-9.5-9.5-17.5-17.5-18-18-17.5-17.5-18-18-18-18-17.5-17.5-18-18-17.5-17.5-18-18-6.5-6.5v11 11 18 18 17.5 17.5 18 18 17.5 17.5 18 18 13.5 13.5l1.5-.5 1.5-.5h1 1 1 1 1.5 1.5l.5-.5.5-.5h1 1l.5-.5.5-.5.5-.5.5-.5 1 .5 1 .5.5 1 .5 1 10.5-5.5 10.5-5.5v-.5-.5h1.5 1.5l1-.5 1-.5h1 1l.5-.5.5-.5h1 1 1.5 1.5l.5-.5.5-.5h1 1 1 1l1-.5 1-.5h1 1 1 1l.5.5.5.5 1 .5 1 .5 1.5.5 1.5.5 2 .5 2 .5 1.5 1 1.5 1 1.5.5 1.5.5h2 2l2 .5 2 .5 7.5-3 7.5-3 9 7 9 7h-1-1l.5 1 .5 1 23 4 23 4" style="fill:#3d3529;stroke:#3d3529" />
        <path d="m179 235l3 1v-1.5-1.5l-1-.5-1-.5-1-.5-1-.5-.5-.5-.5-.5h-1-1l-.5-.5-.5-.5h-1.5-1.5l-.5.5-.5.5-.5.5-.5.5h-1-1l-.5 1-.5 1 1 1 1 1h2 2 1.5 1.5 2 2" style="fill:#641b07;stroke:#641b07" />
        <path d="m349 235l3 1v-2-2-2.5-2.5-2-2-2.5-2.5-2-2-2-2l-1.5 12.5-1.5 12.5" style="fill:#84766a;stroke:#84766a" />
        <path d="m291 233l33-18 13.5-3.5 13.5-3.5-13.5 2-13.5 2-17 6-17 6-1.5-1-1.5-1v-2.5-2.5l.5-1.5.5-1.5.5-1.5.5-1.5 1-1 1-1 .5-1 .5-1 .5-.5.5-.5v-1.5-1.5-1-1-1-1-1-1-1.5-1.5l-.5-.5-.5-.5-.5-.5-.5-.5v-1-1-1-1l-.5-1-.5-1v-1-1l-.5-.5-.5-.5v-1-1-1-1l-1-1-1-1-.5-.5-.5-.5-1-.5-1-.5-1-.5-1-.5-.5-.5-.5-.5h-1-1l-.5-.5-.5-.5h-1.5-1.5l-.5-.5-.5-.5h-1-1-1-1-1.5-1.5l-.5-.5-.5-.5h-1-1l-.5-.5-.5-.5-1-1-1-1-2-11-2-11-2-10.5-2-10.5 3-11.5 3-11.5 8-9 8-9 7 9.5 7 9.5 4 12.5 4 12.5-8.5 14.5-8.5 14.5v1.5 1.5l.5 1 .5 1 .5 1.5.5 1.5.5.5.5.5.5.5.5.5h1 1 1.5 1.5 2 2 1 1 1.5 1.5 2 2 1.5 1.5 3 3 2.5 2.5l2.5.5 2.5.5 13.5 12.5 13.5 12.5.5 1.5.5 1.5.5.5.5.5v1.5 1.5 1 1l.5-.5.5-.5v-1-1l.5-1.5.5-1.5v-2.5-2.5-2-2-.5-.5l-.5 1-.5 1-1 .5-1 .5-.5-.5-.5-.5-2-.5-2-.5-1-.5-1-.5-18.5-11-18.5-11-3-8.5-3-8.5v-.5-.5-13.5-13.5l-5-12.5-5-12.5-12.5-6-12.5-6-2 1-2 1-.5 2-.5 2-5 23-5 23 4 18 4 18 12 4.5 12 4.5 3.5 13.5 3.5 13.5-.5 1-.5 1-1.5.5-1.5.5-.5 1-.5 1 .5 1 .5 1 .5-1 .5-1 1-1 1-1h1 1l-1 1.5-1 1.5-.5 2-.5 2-.5 1.5-.5 1.5-.5 2-.5 2 .5 1.5.5 1.5.5 2 .5 2 .5 1.5.5 1.5 2 .5 2 .5" style="fill:#bbb7ab;stroke:#bbb7ab" />
        <g style="fill:#391d12;stroke:#391d12">
            <path d="m0 229v1l1-.5 1-.5 1.5-.5 1.5-.5h2.5 2.5l1.5-.5 1.5-.5 1.5-1 1.5-1 1 .5 1 .5-.5-1-.5-1-1-.5-1-.5-.5.5-.5.5-.5.5-.5.5h-1-1l-.5.5-.5.5h-1.5-1.5-1-1-1-1l-1.5.5-1.5.5v1 1" />
            <path d="m120 226l-18-14-7.5 3-7.5 3h1.5 1.5l15 4 15 4" />
        </g>
        <path d="m118 225v1h1 1l-15-4-15-4 2.5.5 2.5.5h2 2l2 .5 2 .5h1 1l1.5 1 1.5 1h2 2l1 1 1 1 2 .5 2 .5" style="fill:#1b1307;stroke:#1b1307" />
        <path d="m290 224l34-12 13.5-2 13.5-2h.5.5v-1.5-1.5h-3.5-3.5l-13 4.5-13 4.5-13.5 3.5-13.5 3.5-1-1-1-1v-2.5-2.5l.5-2.5.5-2.5-1 1-1 1-.5 1.5-.5 1.5-.5 1.5-.5 1.5v2.5 2.5l1.5 1 1.5 1" style="fill:#d8d4c8;stroke:#d8d4c8" />
        <path d="m292 221l27-7 13-4.5 13-4.5h3.5 3.5v-1.5-1.5-2-2-1.5-1.5l-.5 1.5-.5 1.5v1 1l-.5.5-.5.5v-1-1-1.5-1.5l-.5-.5-.5-.5-.5-1.5-.5-1.5-1-.5-1-.5-10-7.5-10-7.5-2.5-4.5-2.5-4.5-2.5-.5-2.5-.5h-2.5-2.5-3-3l-1 .5-1 .5h-2-2-2-2-1.5-1.5-2-2-2-2-1-1l-.5-1-.5-1-.5-1.5-.5-1.5-.5-.5-.5-.5v-1.5-1.5l.5-1 .5-1 8.5-14.5 8.5-14.5-4-12.5-4-12.5-7-9.5-7-9.5-8 9-8 9-3 11.5-3 11.5 2 10.5 2 10.5 2 11 2 11 1 .5 1 .5 1 .5 1 .5h2.5 2.5l1.5.5 1.5.5 2 .5 2 .5 1.5.5 1.5.5 1.5.5 1.5.5h1 1l.5 1 .5 1 .5 1 .5 1 1 1 1 1v1 1 1 1l.5.5.5.5v1 1l.5 1 .5 1v1 1 1 1l.5.5.5.5.5.5.5.5v1.5 1.5 1 1 1 1 1 1 1.5 1.5l-.5.5-.5.5-.5 1-.5 1-.5 2.5-.5 2.5v2.5 2.5l1 1 1 1" style="fill:#efebde;stroke:#efebde" />
        <path d="m251 219v1h1.5 1.5l2-1.5 2-1.5 1.5-.5 1.5-.5h1.5 1.5l1.5-.5 1.5-.5 1.5-.5 1.5-.5 1-1.5 1-1.5h-2-2l-2 .5-2 .5-1.5.5-1.5.5-1.5 1-1.5 1-1.5.5-1.5.5-1 .5-1 .5-1 1-1 1" style="fill:#7c574d;stroke:#7c574d" />
        <path d="m39 214v1h1.5 1.5l1.5-.5 1.5-.5h1.5 1.5l.5-.5.5-.5h2 2l1-.5 1-.5h1 1 1 1l.5-.5.5-.5 1 .5 1 .5h1 1l.5.5.5.5h2 2l-1.5-.5-1.5-.5-1-.5-1-.5-.5-.5-.5-.5h-1-1-1-1l-1 .5-1 .5h-1-1-1-1l-.5.5-.5.5h-1.5-1.5-1-1l-.5.5-.5.5h-1-1l-1 .5-1 .5h-1.5-1.5" style="fill:#585347;stroke:#585347" />
        <path d="m272 214h2l1.5.5 1.5.5 1-.5 1-.5.5-.5.5-.5 2-.5 2-.5-.5-1-.5-1-1.5 1-1.5 1-2-.5-2-.5h-2-2l-1 1.5-1 1.5h1 1" style="fill:#ab524b;stroke:#ab524b" />
        <path d="m276 211l4 1 1.5-1 1.5-1 .5-1 .5-1-1-1-1-1-2 .5-2 .5-1 1-1 1-2 1-2 1h2 2" style="fill:#9d3629;stroke:#9d3629" />
        <path d="m346 191l2 1-13.5-12.5-13.5-12.5 2.5 4.5 2.5 4.5 10 7.5 10 7.5" style="fill:#d8d4c8;stroke:#d8d4c8" />
        <path d="m348 187l1 1v-.5-.5l1.5-18 1.5-18v-1.5-1.5-2.5-2.5-2-2-2.5-2.5-2-2-2-2-2.5-2.5-2-2-2.5-2.5-2-2-.5-.5l-1-.5-1-.5-11-6.5-11-6.5-14-3-14-3-12.5-5-12.5-5-1.5.5-1.5.5v.5.5l11 3 11 3-1.5 5.5-1.5 5.5 7 1.5 7 1.5 6 11 6 11-9 12.5-9 12.5 3 8.5 3 8.5 13.5-1 13.5-1 6 12.5 6 12.5 2 .5 2 .5" style="fill:#3d3529;stroke:#3d3529" />
        <path d="m349 187v1l1-.5 1-.5.5-1 .5-1v-3-3-2-2-2.5-2.5-2-2-2.5-2.5-2-2-2-2-1-1l-1.5 18-1.5 18" style="fill:#391d12;stroke:#391d12" />
        <path d="m342 185l2 1-6-12.5-6-12.5-13.5 1-13.5 1 18.5 11 18.5 11" style="fill:#585347;stroke:#585347" />
        <g style="fill:#d8d4c8;stroke:#d8d4c8">
            <path d="m286 176l1 1-.5-1-.5-1-.5-1-.5-1h-1-1l-1.5-.5-1.5-.5-1.5-.5-1.5-.5-2-.5-2-.5-1.5-.5-1.5-.5h-2.5-2.5l-1-.5-1-.5-1-.5-1-.5 1 1 1 1 .5.5.5.5h1 1l.5.5.5.5h1.5 1.5 1 1 1 1l.5.5.5.5h1.5 1.5l.5.5.5.5h1 1l.5.5.5.5 1 .5 1 .5 1 .5 1 .5" />
            <path d="m292 167h3 2 2 2 2l1-.5 1-.5h-1.5-1.5-2-2-1.5-1.5-1-1-2-2-1.5-1.5-1-1l-.5-.5-.5-.5-.5-.5-.5-.5-.5-1.5-.5-1.5-.5-1-.5-1v-1.5-1.5l-.5 1-.5 1v1.5 1.5l.5.5.5.5.5 1.5.5 1.5.5 1 .5 1h1 1 2 2 2 2" />
        </g>
        <g style="fill:#585347;stroke:#585347">
            <path d="m299 145v1l9-12.5 9-12.5-6-11-6-11-7-1.5-7-1.5 1.5-5.5 1.5-5.5-11-3-11-3-1 .5-1 .5h-2-2l-1 .5-1 .5 12.5 6 12.5 6 5 12.5 5 12.5v13.5 13.5" />
            <path d="m331 138h2v-2-2-2.5-2.5l.5-1.5.5-1.5-.5-2-.5-2-1 1-1 1-.5 2-.5 2-.5 1.5-.5 1.5v2 2l1 1.5 1 1.5" />
            <path d="m248 132l1 1 5-23 5-23-5.5 22.5-5.5 22.5" />
            <path d="m246 111h2l.5-1.5.5-1.5-.5-2-.5-2 .5-1.5.5-1.5-1-.5-1-.5-.5 1.5-.5 1.5-.5 2-.5 2 .5 1.5.5 1.5v.5.5" />
        </g>
        <path d="m350 106l2 1v-2.5-2.5-2.5-2.5-2-2-2.5-2.5l-13-17-13-17h-16.5-16.5l-13 5-13 5 2.5 7.5 2.5 7.5v-.5-.5-8-8l14.5-2 14.5-2h16 16v15.5 15.5l-12.5-3-12.5-3-16.5-3-16.5-3 12.5 5 12.5 5 14 3 14 3 11 6.5 11 6.5" style="fill:#391d12;stroke:#391d12" />
        <path d="m251 93h2v-2-2l.5-2 .5-2v-1-1l-2 .5-2 .5v2 2 2.5 2.5h.5.5" style="fill:#585347;stroke:#585347" />
        <path d="m333 89v-31h-16-16l-14.5 2-14.5 2v8 8l1.5-.5 1.5-.5 16.5 3 16.5 3 12.5 3 12.5 3" style="fill:#1b1307;stroke:#1b1307" />
    </g>
</svg>
