<svg xmlns="http://www.w3.org/2000/svg" viewBox="0 0 304 960">
    <path d="m0 0h304v960h-304z" style="fill:#3d372b" />
    <g style="stroke-linejoin:round;stroke-width:.7">
        <path d="m0 959v1h15 15 15.5 15.5 15.5 15.5 15.5 15.5 1 1v-.5-.5l-1.5-.5-1.5-.5-.5-.5-.5-.5-1.5-.5-1.5-.5-2-.5-2-.5h-1-1-1-1l-.5-.5-.5-.5-.5-.5-.5-.5-.5-.5-.5-.5-1.5-1-1.5-1-1-.5-1-.5-1-1-1-1-1.5-.5-1.5-.5-.5-.5-.5-.5-1-.5-1-.5-.5-1.5-.5-1.5.5-.5.5-.5 1-.5 1-.5 1-1 1-1 .5-.5.5-.5h1 1 1 1 1.5 1.5 1 1l.5.5.5.5.5 1.5.5 1.5 1 2 1 2 1.5.5 1.5.5 1 1 1 1 1.5 1 1.5 1 1 1 1 1 1.5.5 1.5.5 1 1.5 1 1.5 1.5.5 1.5.5 1 2 1 2h1.5 1.5 2.5 2.5 1.5 1.5v-.5-.5h-1.5-1.5l-.5-.5-.5-.5v-1-1-1.5-1.5l-1-1-1-1h-1-1l-.5-.5-.5-.5-.5-.5-.5-.5-1-.5-1-.5-.5-.5-.5-.5-1-.5-1-.5-1-.5-1-.5 4-8 4-8 12 1.5 12 1.5 1.5 6 1.5 6h-.5-.5l5 6.5 5 6.5 14 .5 14 .5 11 1 11 1h3 3 2.5 2.5 2 2 2.5 2.5 2 2 2.5 2.5 2 2 2.5 2.5 2 2 .5.5v-.5-.5l.5.5.5.5h2.5 2.5 2 2 2 2 2.5 2.5 1.5 1.5v-.5-.5h-2-2-2-2l1-.5 1-.5h2 2l1.5-.5 1.5-.5h1 1 1.5 1.5l1.5.5 1.5.5h2.5 2.5l-1.5.5-1.5.5-2.5.5-2.5.5h2 2 2.5 2.5 2 2v-2-2-1.5-1.5l-2.5-.5-2.5-.5h-2-2l-1.5.5-1.5.5h-2.5-2.5l-1.5-.5-1.5-.5-2-.5-2-.5-1.5.5-1.5.5-2 .5-2 .5h-2-2l-1.5-.5-1.5-.5 14.5-4 14.5-4-1-1-1-1-.5 1.5-.5 1.5-1.5-.5-1.5-.5-13.5-.5-13.5-.5-9-3.5-9-3.5 11-.5 11-.5 3-8.5 3-8.5 9.5 9.5 9.5 9.5-1-1.5-1-1.5-1-1.5-1-1.5-.5-1.5-.5-1.5-1-1-1-1-.5-.5-.5-.5-.5-1-.5-1-1-1-1-1-1-1.5-1-1.5-1.5-.5-1.5-.5-2-.5-2-.5-2-1-2-1h-.5-.5l-1 .5-1 .5-.5 1.5-.5 1.5-.5 1.5-.5 1.5-.5 2-.5 2 .5 1.5.5 1.5v2.5 2.5l-1 1-1 1-1.5-.5-1.5-.5-2.5-9-2.5-9-5 2-5 2-4 4.5-4 4.5-6.5-2-6.5-2-7 .5-7 .5-13.5-11-13.5-11-5-2.5-5-2.5-3.5-2-3.5-2-5-7-5-7h-1.5-1.5l-2-.5-2-.5-1.5-.5-1.5-.5h-2-2l1 .5 1 .5 1 .5 1 .5 1.5.5 1.5.5-.5.5-.5.5-1 .5-1 .5-1.5.5-1.5.5h-1-1l-1 .5-1 .5-1.5.5-1.5.5-.5.5-.5.5-.5.5-.5.5-.5.5-.5.5h-1-1l-1-.5-1-.5-.5-.5-.5-.5-.5-1-.5-1-1-1-1-1-1-1.5-1-1.5 1-1 1-1 1.5-.5 1.5-.5.5-.5.5-.5.5-1 .5-1h2 2l-1.5-1-1.5-1-1.5-.5-1.5-.5-.5-.5-.5-.5-1-.5-1-.5-1-1-1-1-2-.5-2-.5-1.5-.5-1.5-.5h-2-2l-.5-.5-.5-.5-1-.5-1-.5h-2-2l-1.5.5-1.5.5-1.5 1-1.5 1 .5 1.5.5 1.5 1.5.5 1.5.5-1 1.5-1 1.5-.5 1.5-.5 1.5h-1.5-1.5l-.5 1.5-.5 1.5-1.5 1-1.5 1h-2-2l-1.5-.5-1.5-.5-1-.5-1-.5-1-.5-1-.5h-1-1-1-1l-1-.5-1-.5 1 4 1 4 11 4.5 11 4.5 9 1.5 9 1.5-5.5-10-5.5-10 8.5 4 8.5 4 7 6.5 7 6.5 10.5 5 10.5 5 11.5 10 11.5 10-1-.5-1-.5-.5-1-.5-1-1.5-.5-1.5-.5-.5-.5-.5-.5-1-.5-1-.5-1.5-.5-1.5-.5-9-6.5-9-6.5-12-1.5-12-1.5-15-1.5-15-1.5h-2.5-2.5l-2-.5-2-.5-1.5-.5-1.5-.5-2.5-1-2.5-1-9-5-9-5-16-2-16-2-14-1-14-1v1 1l1.5.5 1.5.5 1.5.5 1.5.5 1 1 1 1 .5.5.5.5.5 1 .5 1 1 1 1 1 .5.5.5.5v1.5 1.5 2 2l.5.5.5.5-.5 1-.5 1-1.5.5-1.5.5-1.5-.5-1.5-.5-1.5-1-1.5-1-1.5-.5-1.5-.5-.5 1.5-.5 1.5v3.5 3.5 2 2 2.5 2.5 2 2 2 2 2.5 2.5 2 2 1 1l13.5 2 13.5 2 .5 5 .5 5-1.5-1-1.5-1-1.5-1-1.5-1-1-1-1-1h-2.5-2.5l-2.5-.5-2.5-.5-1 .5-1 .5-1 .5-1 .5-1.5.5-1.5.5h-1.5-1.5v1.5 1.5 2 2 1 1" style="fill:#d5d1c3;stroke:#d5d1c3" />
        <g style="fill:#bcb8ac;stroke:#bcb8ac">
            <path d="m125 959v1h1.5 1.5 2 2l-1-2-1-2-1.5-.5-1.5-.5-1-1.5-1-1.5-1.5-.5-1.5-.5-1-1-1-1-1.5-1-1.5-1-1-1-1-1-1.5-.5-1.5-.5 1 1 1 1 1 1 1 1 1.5 1 1.5 1 1 1 1 1 1.5 1 1.5 1v1 1h-1-1-2-2l1.5.5 1.5.5.5.5.5.5 1.5.5 1.5.5" />
            <path d="m143 959v1h1.5 1.5 2 2 2.5 2.5 2 2 2.5 2.5v-.5-.5h1.5 1.5 2 2 2 2 2 2 2.5 2.5 2 2 2.5 2.5 2 2 2.5 2.5l2 .5 2 .5h2.5 2.5 2 2 2 2 .5.5l-11-1-11-1-14-.5-14-.5-5-6.5-5-6.5-8 7-8 7-2-.5-2-.5-.5-2-.5-2v1.5 1.5 1 1l.5.5.5.5h1.5 1.5" />
        </g>
        <path d="m164 959v1h1.5 1.5 2 2 2.5 2.5 2 2 2.5 2.5 2 2 2.5 2.5 2 2 2 2 2 2l-2-.5-2-.5h-2.5-2.5-2-2-2.5-2.5-2-2-2.5-2.5-2-2-2-2-2-2-1.5-1.5" style="fill:#d5d1c3;stroke:#d5d1c3" />
        <g style="fill:#bcb8ac;stroke:#bcb8ac">
            <path d="m263 959v1h.5.5l-.5-.5-.5-.5" />
            <path d="m285 959v1h1.5 1.5 1.5 1.5l2.5-.5 2.5-.5 1.5-.5 1.5-.5h-2.5-2.5l-1.5-.5-1.5-.5h-1.5-1.5-1-1l-1.5.5-1.5.5h-2-2l-1 .5-1 .5h2 2 2 2" />
            <path d="m71 958h2l1-1 1-1-1-1.5-1-1.5-1.5-.5-1.5-.5-1.5 1-1.5 1-1.5-.5-1.5-.5.5 1 .5 1 1 1 1 1 1.5.5 1.5.5h.5.5" />
            <path d="m75 958l3 1h2 2 2.5 2.5 2 2l2-.5 2-.5h-2-2l-2-.5-2-.5h-2-2-2-2l-2 .5-2 .5" />
        </g>
        <path d="m144 958l16-14h.5.5 2 2 1.5 1.5 1 1 1 1 1 1l.5-1 .5-1-1-.5-1-.5.5-1 .5-1-.5-.5-.5-.5h-1-1l-1-.5-1-.5-.5-.5-.5-.5h-1-1-1-1-1.5-1.5l-.5-.5-.5-.5h-1-1l-1-.5-1-.5-14 6-14 6 1 .5 1 .5.5.5.5.5 1 .5 1 .5.5.5.5.5.5.5.5.5h1 1l1 1 1 1 .5 2 .5 2 2 .5 2 .5" style="fill:#7e766a;stroke:#7e766a" />
        <path d="m122 956h2v-1-1l-1.5-1-1.5-1-1-1-1-1-1.5-1-1.5-1-1-1-1-1-1-1-1-1-1-2-1-2-1-.5-1-.5-1.5-.5-1.5-.5-1.5.5-1.5.5-1.5 1-1.5 1 .5 1.5.5 1.5 1 1.5 1 1.5 1 1.5 1 1.5 1.5 1 1.5 1 .5.5.5.5.5.5.5.5.5.5.5.5h1 1 1 1l2 .5 2 .5h2 2" style="fill:#a099a1;stroke:#a099a1" />
        <path d="m28 954l-1-10-13.5-2-13.5-2v.5.5h.5.5 2.5 2.5 2 2 2 2 1.5 1.5l2.5.5 2.5.5 1.5 1 1.5 1 1 1 1 1v1.5 1.5l-1.5-.5-1.5-.5-1-.5-1-.5-2-.5-2-.5h-2-2-2-2v.5.5l2.5.5 2.5.5h2.5 2.5l1 1 1 1 1.5 1 1.5 1 1.5 1 1.5 1" style="fill:#bcb8ac;stroke:#bcb8ac" />
        <path d="m144 954l8-13 6.5-2 6.5-2-9 .5-9 .5h1.5 1.5v1 1l-1.5 1-1.5 1-1.5.5-1.5.5-.5 1-.5 1 1 1 1 1 1 1 1 1 .5.5.5.5-.5 1-.5 1h-1.5-1.5l-.5-1-.5-1-2-1-2-1 1 1 1 1 .5 1.5.5 1.5 1 .5 1 .5" style="fill:#544f42;stroke:#544f42" />
        <path d="m144 952h3l.5-1 .5-1-.5-.5-.5-.5-1-1-1-1-1-1-1-1 .5-1 .5-1 1.5-.5 1.5-.5 1.5-1 1.5-1v-1-1h-1.5-1.5-2-2l-1 .5-1 .5-.5.5-.5.5v1 1l-1-.5-1-.5-.5.5-.5.5h-1-1l-.5-.5-.5-.5-.5-1-.5-1-.5-.5-.5-.5-.5-.5-.5-.5-.5.5-.5.5v1.5 1.5l.5.5.5.5.5.5.5.5.5 1 .5 1 2 1 2 1 1 .5 1 .5 2 1 2 1 .5 1 .5 1" style="fill:#3d372b;stroke:#3d372b" />
        <path d="m266 952l3 1h2 2l2-.5 2-.5 1.5-.5 1.5-.5 2 .5 2 .5 1.5.5 1.5.5h2.5 2.5l1.5-.5 1.5-.5h2 2l2.5.5 2.5.5v-.5-.5l-1-.5-1-.5-1-.5-1-.5-1-1.5-1-1.5-1.5-1.5-1.5-1.5-14.5 4-14.5 4" style="fill:#bcb8ac;stroke:#bcb8ac" />
        <path d="m112 951h2v-1-1l-1.5-1-1.5-1-1-1-1-1-1-1.5-1-1.5-1.5.5-1.5.5 1 1.5 1 1.5 1 1 1 1 1 1 1 1 1 .5 1 .5" style="fill:#544f42;stroke:#544f42" />
        <path d="m302 951l2 1v-2.5-2.5-2.5-2.5-2-2-1-1l-.5-.5-.5-.5-1-.5-1-.5v-1-1l-.5-.5-.5-.5-.5-1-.5-1-.5-.5-.5-.5-.5-.5-.5-.5-1-.5-1-.5-9-7.5-9-7.5-11.5-9-11.5-9-.5 1-.5 1v1 1l.5 1 .5 1 .5 1.5.5 1.5.5.5.5.5.5 1 .5 1v1 1l-.5.5-.5.5v1.5 1.5l1 1 1 1 .5.5.5.5h1 1l.5-.5.5-.5h1.5 1.5l1-.5 1-.5v-.5-.5.5.5l1 .5 1 .5.5.5.5.5h-1.5-1.5l2 1 2 1 2 .5 2 .5 1.5.5 1.5.5 1 1.5 1 1.5 1 1 1 1 .5 1 .5 1 .5.5.5.5 1 1 1 1 .5 1.5.5 1.5 1 1.5 1 1.5 1 1.5 1 1.5.5 1.5.5 1.5.5 1 .5 1 1 1 1 1 1.5 1.5 1.5 1.5 1 1.5 1 1.5 1 .5 1 .5" style="fill:#928e81;stroke:#928e81" />
        <path d="m50 950l3 1 1-1 1-1 1.5-1 1.5-1 1.5-.5 1.5-.5 1.5-1 1.5-1 1.5-.5 1.5-.5h-2.5-2.5l-1.5.5-1.5.5-1 1-1 1-1.5 1-1.5 1-1.5-.5-1.5-.5-.5-1.5-.5-1.5 1-1 1-1 1-1.5 1-1.5-1.5 1-1.5 1-1.5 1-1.5 1-1 1-1 1 .5 1.5.5 1.5 1.5 1 1.5 1" style="fill:#bcb8ac;stroke:#bcb8ac" />
        <path d="m0 949v1h1.5 1.5l1.5-.5 1.5-.5 1-.5 1-.5 1-.5 1-.5v-.5-.5l2-1 2-1v-.5-.5l-1-.5-1-.5h-2-2-1-1-1-1l-1.5-.5-1.5-.5h-.5-.5v3 3 1 1" style="fill:#7e766a;stroke:#7e766a" />
        <path d="m102 949l2 1-1-1.5-1-1.5-1-1.5-1-1.5-.5-1.5-.5-1.5 1.5-1 1.5-1 1.5-.5 1.5-.5 1.5.5 1.5.5 1 .5 1 .5-.5-1.5-.5-1.5-.5-.5-.5-.5h-1-1-1.5-1.5-1-1-1-1l-.5.5-.5.5-1 1-1 1-1 .5-1 .5-.5.5-.5.5.5 1.5.5 1.5 1 .5 1 .5.5.5.5.5 1.5.5 1.5.5 1 1 1 1" style="fill:#bcb8ac;stroke:#bcb8ac" />
        <path d="m24 948l3 1v-1.5-1.5l-1-1-1-1-1.5-1-1.5-1-2.5-.5-2.5-.5 1 .5 1 .5-1 1-1 1h-1.5-1.5l-2 1-2 1h2 2 2 2l2 .5 2 .5 1 .5 1 .5" style="fill:#a099a1;stroke:#a099a1" />
        <path d="m90 948l-12-5 4 2.5 4 2.5h2 2" style="fill:#ebe8db;stroke:#ebe8db" />
        <path d="m51 947l3 1 1.5-1 1.5-1 1-1 1-1 1.5-.5 1.5-.5h2.5 2.5 2 2l2-.5 2-.5 1.5-.5 1.5-.5.5-.5.5-.5v-.5-.5-1.5-1.5l-1.5-1-1.5-1-1-1-1-1-2 .5-2 .5-1.5.5-1.5.5h-2-2l-2 .5-2 .5-1.5 1-1.5 1-1 1-1 1-1 1.5-1 1.5-1 1-1 1 .5 1.5.5 1.5" style="fill:#a099a1;stroke:#a099a1" />
        <path d="m126 945l2 1 14-6 14-6h1.5 1.5l1 .5 1 .5 1.5-.5 1.5-.5h1 1l1 .5 1 .5 1.5.5 1.5.5 1.5 1 1.5 1 .5 2 .5 2-.5 1-.5 1h-1-1-1-1-1-1-1.5-1.5-2-2l-1.5-6-1.5-6-12-1.5-12-1.5-4 8-4 8" style="fill:#bcb8ac;stroke:#bcb8ac" />
        <path d="m131 944l2 1-.5-1-.5-1-.5-.5-.5-.5-.5-.5-.5-.5v-1.5-1.5l.5-.5.5-.5.5.5.5.5.5.5.5.5.5 1 .5 1 .5.5.5.5h1 1l.5-.5.5-.5 1 .5 1 .5v-1-1l.5-.5.5-.5 1-.5 1-.5-2.5-.5-2.5-.5-1-1-1-1-2-.5-2-.5-1.5.5-1.5.5-.5 2-.5 2 .5 1.5.5 1.5 1 1 1 1" style="fill:#544f42;stroke:#544f42" />
        <path d="m289 944l3 1 .5-1.5.5-1.5-.5-1-.5-1-.5-1.5-.5-1.5-9.5-9.5-9.5-9.5-3 8.5-3 8.5-11 .5-11 .5 9 3.5 9 3.5 13.5.5 13.5.5" style="fill:#ebe8db;stroke:#ebe8db" />
        <path d="m14 943v1h1.5 1.5l1-1 1-1-1-.5-1-.5h-1.5-1.5-2-2-2-2-2.5-2.5l1.5.5 1.5.5h1 1 1 1 2 2l1 .5 1 .5" style="fill:#928e81;stroke:#928e81" />
        <path d="m300 943l1-1-.5-1.5-.5-1.5-.5-2-.5-2-1-1-1-1-1-1.5-1-1.5-1-.5-1-.5-1.5.5-1.5.5 1 1 1 1 1 1 1 1 .5 2 .5 2 1 1 1 1 1 1.5 1 1.5h.5.5" style="fill:#3d372b;stroke:#3d372b" />
        <path d="m173 941l2 1-.5-2-.5-2-1.5-1-1.5-1-1.5-.5-1.5-.5-1-.5-1-.5h-1-1l-1.5.5-1.5.5-1-.5-1-.5h-1.5-1.5l1 .5 1 .5h1 1l.5.5.5.5h1.5 1.5 1 1 1 1l.5.5.5.5 1 .5 1 .5h1 1l.5.5.5.5-.5 1-.5 1" style="fill:#928e81;stroke:#928e81" />
        <path d="m59 939l3 1h2 2l2-.5 2-.5 1.5-.5 1.5-.5-.5-1-.5-1h-2-2l-2 .5-2 .5-1.5.5-1.5.5-1 .5-1 .5" style="fill:#3d372b;stroke:#3d372b" />
        <path d="m79 939v1l1-.5 1-.5h2 2l2-.5 2-.5 1-1 1-1 2-.5 2-.5 1.5-.5 1.5-.5 2-.5 2-.5.5-1.5.5-1.5-1 1-1 1-1 .5-1 .5h-1-1l-.5.5-.5.5h-1-1l-1 .5-1 .5h-1-1l-.5.5-.5.5-1.5-.5-1.5-.5 6-8.5 6-8.5-12.5-1.5-12.5-1.5 4.5-5 4.5-5-14-.5-14-.5.5 8 .5 8 9 3.5 9 3.5-7 4-7 4 2-.5 2-.5h2 2l1.5-.5 1.5-.5 2-.5 2-.5 1 1 1 1 1.5 1 1.5 1v1.5 1.5" style="fill:#bcb8ac;stroke:#bcb8ac" />
        <path d="m86 935l3 1 .5-.5.5-.5h1 1l1-.5 1-.5h1 1l.5-.5.5-.5h1 1l1-.5 1-.5 1-1 1-1 2.5-1 2.5-1 1-1 1-1 1-.5 1-.5.5-2 .5-2-1.5-1-1.5-1h-2-2-2.5-2.5l-1.5-.5-1.5-.5-6 8.5-6 8.5" style="fill:#928e81;stroke:#928e81" />
        <path d="m303 935l1 1v-3-3-.5-.5l-.5-.5-.5-.5v-1.5-1.5l-.5 1-.5 1-1.5-1-1.5-1-1-1-1-1 1-1.5 1-1.5 1-1 1-1 1.5-.5 1.5-.5v-2.5-2.5-1.5-1.5l-4.5 8.5-4.5 8.5 1 .5 1 .5.5.5.5.5.5.5.5.5.5 1 .5 1 .5.5.5.5v1 1l1 .5 1 .5" style="fill:#d5d1c3;stroke:#d5d1c3" />
        <path d="m257 934l3 1 1-1 1-1v-2.5-2.5l-.5-1.5-.5-1.5.5-2 .5-2 .5-1.5.5-1.5.5-1.5.5-1.5 1-.5 1-.5h-1.5-1.5l-.5 1-.5 1-1 1.5-1 1.5v2 2 2.5 2.5 2 2h-1.5-1.5l-.5-9-.5-9-1-10.5-1-10.5 11.5 9 11.5 9 9 7.5 9 7.5 4.5-8.5 4.5-8.5v-1-1l-10-2.5-10-2.5-5.5 3-5.5 3-7-8.5-7-8.5 4.5-4 4.5-4 2-10.5 2-10.5 7.5 18.5 7.5 18.5-1-1-1-1-.5-2-.5-2v-.5-.5-1.5-1.5-1-1-1-1-1-1l1-.5 1-.5.5-.5.5-.5h1 1l.5.5.5.5 1 .5 1 .5.5.5.5.5.5.5.5.5.5.5.5.5 1.5.5 1.5.5 1 .5 1 .5 2 .5 2 .5v-.5-.5l-.5-.5-.5-.5-1-.5-1-.5h-1-1l-.5-.5-.5-.5-1-.5-1-.5-1-1-1-1-.5-.5-.5-.5 1-.5 1-.5h2 2l.5-.5.5-.5h1 1l1-.5 1-.5v-3-3-.5-.5l-1 .5-1 .5-1 1-1 1-1 .5-1 .5-1.5-.5-1.5-.5-1.5 1-1.5 1-1 1-1 1h-1-1l1.5-12 1.5-12h-1.5-1.5l-.5.5-.5.5h-1-1l-1 .5-1 .5-1.5.5-1.5.5h-1-1l-1-1-1-1-.5-1-.5-1-.5-1.5-.5-1.5-.5-.5-.5-.5v-1.5-1.5l-.5-1.5-.5-1.5h-1-1l-1 .5-1 .5h-1.5-1.5l-.5.5-.5.5-4.5 8.5-4.5 8.5-1.5 12.5-1.5 12.5-3 8-3 8-13 .5-13 .5-10.5 5.5-10.5 5.5-6.5-9-6.5-9-10.5-9.5-10.5-9.5-1 1-1 1-.5 1-.5 1-.5.5-.5.5h-1-1l-.5-.5-.5-.5-1-.5-1-.5h-1.5-1.5l5 7 5 7 3.5 2 3.5 2 5 2.5 5 2.5-1-.5-1-.5-1-1-1-1-1-1-1-1 .5-2 .5-2 1.5-.5 1.5-.5 2 .5 2 .5 1 2 1 2 1 .5 1 .5v1 1l.5.5.5.5v1 1l.5 1 .5 1h1 1l.5.5.5.5.5.5.5.5 1 1.5 1 1.5.5 1 .5 1 .5 1 .5 1v1 1 1.5 1.5l-2-.5-2-.5v-.5-.5l-.5-1-.5-1-.5-1-.5-1-1-1.5-1-1.5h-.5-.5l-.5-.5-.5-.5-1-2.5-1-2.5-2-1-2-1 13.5 11 13.5 11 7-.5 7-.5 6.5 2 6.5 2 4-4.5 4-4.5 5-2 5-2 2.5 9 2.5 9" style="fill:#bcb8ac;stroke:#bcb8ac" />
        <path d="m257 932h3v-2-2-2.5-2.5-2-2l1-1.5 1-1.5.5-1 .5-1h1.5 1.5.5.5 1.5 1.5l-.5-.5-.5-.5-1-.5-1-.5-1 .5-1 .5h-1.5-1.5l-.5.5-.5.5h-1-1l-.5-.5-.5-.5-1-1-1-1v-1.5-1.5l.5-.5.5-.5v-1-1l-.5-1-.5-1-.5-.5-.5-.5-.5-1.5-.5-1.5-.5-1-.5-1v-1-1l.5-1 .5-1 1 10.5 1 10.5.5 9 .5 9" style="fill:#a099a1;stroke:#a099a1" />
        <path d="m275 931l3 1 1-1 1-1-.5-2-.5-2-1-1-1-1-1.5-1-1.5-1-1.5-.5-1.5-.5-1.5 1-1.5 1v2 2l1 1 1 1 1.5 1 1.5 1h1 1" style="fill:#d5d1c3;stroke:#d5d1c3" />
        <path d="m12 930l3 1h2 2l1.5-1 1.5-1 1-1 1-1v-1-1l-1 .5-1 .5-1 1-1 1-1.5.5-1.5.5-1.5-.5-1.5-.5-1.5-1-1.5-1 1-1.5 1-1.5 1-1 1-1 2-1.5 2-1.5-2.5 1-2.5 1-1.5.5-1.5.5h-1.5-1.5l-1.5.5-1.5.5 1 1 1 1 1 .5 1 .5v2 2l1.5.5 1.5.5" style="fill:#bcb8ac;stroke:#bcb8ac" />
        <path d="m90 930l3 1 1.5-.5 1.5-.5 1.5-1 1.5-1 1-1 1-1 .5-2 .5-2h-1-1l-2-.5-2-.5-1.5-.5-1.5-.5-1 .5-1 .5h1.5 1.5l.5 1 .5 1v1 1l-.5.5-.5.5h1 1l.5 1 .5 1-.5.5-.5.5h-1-1l-.5.5-.5.5h-1.5-1.5" style="fill:#7a3328;stroke:#7a3328" />
        <path d="m257 930h2v-1-1l-.5-2-.5-2v-2-2l-1.5 1-1.5 1 .5 1.5.5 1.5.5 2 .5 2v.5.5" style="fill:#928e81;stroke:#928e81" />
        <path d="m90 929v1h1.5 1.5l.5-.5.5-.5h1 1l.5-.5.5-.5-.5-1-.5-1h-1-1l.5-.5.5-.5v-1-1l-.5-1-.5-1h-1.5-1.5l-1 2-1 2-1.5.5-1.5.5 1 1 1 1 1 .5 1 .5" style="fill:#78200c;stroke:#78200c" />
        <path d="m179 929l-23-20-10.5-5-10.5-5-7-6.5-7-6.5-8.5-4-8.5-4 5.5 10 5.5 10-9-1.5-9-1.5-11-4.5-11-4.5-1-4-1-4-1.5-.5-1.5-.5-1.5-.5-1.5-.5-2 .5-2 .5-1.5.5-1.5.5v2.5 2.5l-1 1-1 1-1 1-1 1-1 1.5-1 1.5-1.5-.5-1.5-.5-1.5-1-1.5-1 1-1 1-1-2-.5-2-.5-1.5-.5-1.5-.5h-2-2-1.5-1.5-2-2l-2 1-2 1 16 2 16 2 9 5 9 5-.5-1-.5-1-1-.5-1-.5-1.5-1.5-1.5-1.5-1-1.5-1-1.5 1.5-.5 1.5-.5 2 .5 2 .5 1.5.5 1.5.5 1.5 1 1.5 1 1.5.5 1.5.5h1 1l1 .5 1 .5h1 1l.5.5.5.5h1 1l.5.5.5.5 1 .5 1 .5h1 1l1 .5 1 .5 1.5.5 1.5.5.5.5.5.5 1 .5 1 .5-1 1-1 1h-1-1l-3-.5-3-.5h-1.5-1.5l15 1.5 15 1.5 12 1.5 12 1.5 9 6.5 9 6.5v-.5-.5l-1.5-.5-1.5-.5-.5-.5-.5-.5-.5-.5-.5-.5h-1-1l-1-.5-1-.5-1-.5-1-.5-.5-1-.5-1 .5-1.5.5-1.5h2 2l1.5.5 1.5.5 1.5 1 1.5 1 1.5.5 1.5.5 2 .5 2 .5 1 1 1 1 1 1.5 1 1.5-1.5.5-1.5.5h-1.5-1.5-2-2l1.5.5 1.5.5 1 .5 1 .5.5.5.5.5 1.5.5 1.5.5.5 1 .5 1 1 .5 1 .5" style="fill:#bcb8ac;stroke:#bcb8ac" />
        <path d="m289 929l1 1 1.5-.5 1.5-.5 1 .5 1 .5-1.5-1.5-1.5-1.5-1-1.5-1-1.5-.5-1.5-.5-1.5-1.5-1-1.5-1-.5 1.5-.5 1.5 1 1 1 1 1 1.5 1 1.5v1 1" style="fill:#544f42;stroke:#544f42" />
        <path d="m14 928l3 1 1.5-.5 1.5-.5 1-1 1-1 1-.5 1-.5 2.5-1 2.5-1 1-.5 1-.5v-.5-.5l2-.5 2-.5.5-1.5.5-1.5-.5-1.5-.5-1.5-.5-3-.5-3-2-1.5-2-1.5h-1-1l-1.5.5-1.5.5-2-.5-2-.5-1 1-1 1 2 .5 2 .5.5 1.5.5 1.5-.5 2-.5 2-1 1-1 1-1 .5-1 .5-2 1.5-2 1.5-1 1-1 1-1 1.5-1 1.5 1.5 1 1.5 1" style="fill:#a099a1;stroke:#a099a1" />
        <path d="m303 928l1 1v-3-3-2.5-2.5-.5-.5l-1.5.5-1.5.5-1 1-1 1-1 1.5-1 1.5 1 1 1 1 1.5 1 1.5 1 .5-1 .5-1v1.5 1.5" style="fill:#ebe8db;stroke:#ebe8db" />
        <path d="m133 927h2l1.5-.5 1.5-.5h-1.5-1.5l-1.5-.5-1.5-.5-1.5-.5-1.5-.5h-1.5-1.5-2-2l-.5-.5-.5-.5-1.5-1-1.5-1 10.5 2 10.5 2v.5.5l-4.5-6-4.5-6-11.5 2-11.5 2h-4.5-4.5l1.5.5 1.5.5h2.5 2.5 2 2l1.5 1 1.5 1-.5 2-.5 2 1-.5 1-.5 1-.5 1-.5 1.5.5 1.5.5 1.5 1 1.5 1h2 2l2 .5 2 .5h1.5 1.5" style="fill:#bcb8ac;stroke:#bcb8ac" />
        <g style="fill:#a099a1;stroke:#a099a1">
            <path d="m238 927l-3-18 1 7.5 1 7.5.5 1.5.5 1.5" />
            <path d="m132 925l3 1h1.5 1.5.5.5v-.5-.5h-1.5-1.5l-1.5-.5-1.5-.5-2-.5-2-.5-1-.5-1-.5v-.5-.5h-4-4-.5-.5l1.5 1 1.5 1 .5.5.5.5h2 2 1.5 1.5l1.5.5 1.5.5" />
        </g>
        <path d="m133 924l3 1h1.5 1.5l-10.5-2-10.5-2h.5.5l5-1 5-1 1 .5 1 .5h1 1 1 1l.5.5.5.5 1 .5 1 .5.5-.5.5-.5.5-.5.5-.5.5.5.5.5-.5 1-.5 1h-1-1l-.5.5-.5.5-1.5-.5-1.5-.5h-1.5-1.5l-1-.5-1-.5h-1-1l1 .5 1 .5 2 .5 2 .5" style="fill:#928e81;stroke:#928e81" />
        <path d="m18 923h2l1.5-.5 1.5-.5 1.5-1 1.5-1 1-.5 1-.5-1-.5-1-.5.5-1 .5-1v-1.5-1.5l.5-1.5.5-1.5.5-.5.5-.5 1 .5 1 .5.5 1.5.5 1.5-.5-2.5-.5-2.5-1.5-.5-1.5-.5-1 1.5-1 1.5v2 2l-.5 2-.5 2-1.5.5-1.5.5-1.5 1-1.5 1-.5 1-.5 1" style="fill:#544f42;stroke:#544f42" />
        <path d="m134 923l3 1 .5-.5.5-.5h1 1l.5-1 .5-1-.5-.5-.5-.5-.5.5-.5.5-.5.5-.5.5-1-.5-1-.5-.5-.5-.5-.5h-1-1-1-1l-1-.5-1-.5v1.5 1.5l1 .5 1 .5h1.5 1.5" style="fill:#625a63;stroke:#625a63" />
        <path d="m31 921v1h1.5 1.5l1.5-.5 1.5-.5h1.5 1.5l1.5-.5 1.5-.5v-1.5-1.5l-.5-1.5-.5-1.5-2-.5-2-.5v-1-1l-1-1-1-1-1-.5-1-.5.5 3 .5 3 .5 1.5.5 1.5-.5 1.5-.5 1.5-2 .5-2 .5" style="fill:#bcb8ac;stroke:#bcb8ac" />
        <path d="m127 921v1h1 1v-1.5-1.5l-5 1-5 1h4 4" style="fill:#7e766a;stroke:#7e766a" />
        <path d="m167 921v1h2 2v-.5-.5l-1-.5-1-.5 1.5-.5 1.5-.5-1.5-.5-1.5-.5-1.5-1-1.5-1-1 1-1 1-1.5-1-1.5-1h-1.5-1.5-1-1l1 .5 1 .5 1 .5 1 .5h1 1l.5.5.5.5.5.5.5.5 1.5.5 1.5.5" style="fill:#a099a1;stroke:#a099a1" />
        <path d="m171 921v1h1.5 1.5l1.5-.5 1.5-.5-1-1.5-1-1.5-1-1-1-1-2-.5-2-.5-1.5-.5-1.5-.5-1.5-1-1.5-1-1.5-.5-1.5-.5h-2-2l-.5 1.5-.5 1.5.5 1 .5 1h1 1v-1.5-1.5l1.5.5 1.5.5h1 1l1 .5 1 .5 1.5.5 1.5.5h1 1l1 .5 1 .5 1 1 1 1 .5.5.5.5-.5.5-.5.5h-1.5-1.5" style="fill:#928e81;stroke:#928e81" />
        <path d="m169 920l2 1h1.5 1.5l.5-.5.5-.5-.5-.5-.5-.5-1-1-1-1-1-.5-1-.5h-1-1l-1.5-.5-1.5-.5-1-.5-1-.5h-1-1l-1.5-.5-1.5-.5v1.5 1.5h1.5 1.5l1.5 1 1.5 1 1-1 1-1 1.5 1 1.5 1 1.5.5 1.5.5-1.5.5-1.5.5" style="fill:#7e766a;stroke:#7e766a" />
        <path d="m192 920l4 1v-1.5-1.5-1-1l-.5-1-.5-1-.5-1-.5-1-1-1-1-1-.5-.5-.5-.5-1-.5-1-.5-1 2-1 2h.5.5l1-.5 1-.5 1 1 1 1 1 1.5 1 1.5.5 1.5.5 1.5-1.5.5-1.5.5" style="fill:#928e81;stroke:#928e81" />
        <path d="m192 919v1l1.5-.5 1.5-.5-.5-1.5-.5-1.5-1-1.5-1-1.5-1-1-1-1-1 .5-1 .5 1 1.5 1 1.5.5 1 .5 1 .5 1 .5 1" style="fill:#7e766a;stroke:#7e766a" />
        <path d="m26 918l2 1 1.5-1 1.5-1 .5-2 .5-2-.5-1.5-.5-1.5-1-.5-1-.5-.5.5-.5.5-.5 1.5-.5 1.5v1.5 1.5l-.5 1-.5 1" style="fill:#3d372b;stroke:#3d372b" />
        <path d="m50 918l23-6-1-3.5-1-3.5-11.5 4-11.5 4 1 2.5 1 2.5" style="fill:#a099a1;stroke:#a099a1" />
        <path d="m19 917v1l1-.5 1-.5 1-1 1-1 .5-2 .5-2-.5-1.5-.5-1.5-2-.5-2-.5 1-1 1-1 2 .5 2 .5 1.5-.5 1.5-.5h1 1l2 1.5 2 1.5-9-.5-9-.5 1.5 5 1.5 5" style="fill:#bcb8ac;stroke:#bcb8ac" />
        <path d="m183 916l1-1-.5-1.5-.5-1.5-1-1.5-1-1.5-1-1-1-1h-1.5-1.5v1 1l1.5 1 1.5 1 1 1 1 1v1 1l1 .5 1 .5" style="fill:#ebe8db;stroke:#ebe8db" />
        <path d="m52 915l6-5-1-.5-1-.5-2 3-2 3" style="fill:#3d372b;stroke:#3d372b" />
        <path d="m199 915l21-11 13-.5 13-.5 3-8 3-8-11.5-2.5-11.5-2.5-13.5-1-13.5-1-14-.5-14-.5 1 .5 1 .5 1 1 1 1-.5.5-.5.5h-1.5-1.5-2-2l-1.5-.5-1.5-.5-.5-1-.5-1 1-.5 1-.5 1.5-.5 1.5-.5-1-.5-1-.5h-1-1l-1 .5-1 .5 10.5 9.5 10.5 9.5 6.5 9 6.5 9" style="fill:#d5d1c3;stroke:#d5d1c3" />
        <path d="m186 911l1 1 1-2 1-2 1 .5 1 .5.5.5.5.5 1 1 1 1-1-1.5-1-1.5-.5-.5-.5-.5-.5-.5-.5-.5h-1-1l-.5-1-.5-1v-1-1l-.5-.5-.5-.5v-1-1l-1-.5-1-.5v2 2l-1.5-.5-1.5-.5.5-1 .5-1-.5-.5-.5-.5-.5-.5-.5-.5h-1-1v1 1 .5.5l-.5-.5-.5-.5-.5-.5-.5-.5v-1-1l1-.5 1-.5.5-.5.5-.5.5.5.5.5.5.5.5.5.5.5.5.5 1 .5 1 .5-1-2-1-2-2-.5-2-.5-1.5.5-1.5.5-.5 2-.5 2 1 1 1 1 1 1 1 1 1 .5 1 .5 2 1 2 1 1 2.5 1 2.5" style="fill:#a099a1;stroke:#a099a1" />
        <path d="m273 908l11-6 10 2.5 10 2.5v-2-2-1.5-1.5l-.5-1.5-.5-1.5-1.5-.5-1.5-.5-1.5 1-1.5 1-1.5.5-1.5.5-2 .5-2 .5-1.5-.5-1.5-.5-7.5-18.5-7.5-18.5-2 10.5-2 10.5-4.5 4-4.5 4 7 8.5 7 8.5" style="fill:#d5d1c3;stroke:#d5d1c3" />
        <path d="m135 907l3 1h2 2 2.5 2.5l1.5-.5 1.5-.5-.5-2-.5-2-.5 1.5-.5 1.5h-2-2-2-2-1.5-1.5l-1-.5-1-.5v-1.5-1.5l-8.5.5-8.5.5 8.5 2 8.5 2" style="fill:#a099a1;stroke:#a099a1" />
        <path d="m7 905l3 1 1.5-.5 1.5-.5.5-1 .5-1-.5-.5-.5-.5v-2-2-1.5-1.5l-.5-.5-.5-.5-1-1-1-1-.5-1-.5-1-.5-.5-.5-.5-1-1-1-1-1.5-.5-1.5-.5-1.5-.5-1.5-.5v2.5 2.5 2 2h1.5 1.5 1 1l.5.5.5.5 1 .5 1 .5v1 1l.5.5.5.5-.5.5-.5.5h-1-1l-1-.5-1-.5-1-.5-1-.5-1-.5-1-.5v1.5 1.5 2 2 .5.5l.5-1.5.5-1.5 1.5.5 1.5.5 1.5 1 1.5 1" style="fill:#bcb8ac;stroke:#bcb8ac" />
        <path d="m135 905l2 1v-.5-.5l-.5-1-.5-1 2-.5 2-.5h1 1l2 .5 2 .5 1 1.5 1 1.5.5-1.5.5-1.5-1.5-1-1.5-1h-2-2l-2-.5-2-.5-1.5.5-1.5.5v.5.5 1.5 1.5" style="fill:#928e81;stroke:#928e81" />
        <path d="m137 905v1h1.5 1.5 2 2 2 2l-1-1.5-1-1.5-2-.5-2-.5h-1-1l-2 .5-2 .5.5 1 .5 1" style="fill:#7e766a;stroke:#7e766a" />
        <path d="m104 904h2l1-1 1-1-1-.5-1-.5-.5-.5-.5-.5-1.5-.5-1.5-.5.5 1.5.5 1.5h-2-2l-1.5-.5-1.5-.5-1.5-.5-1.5-.5-2.5-.5-2.5-.5-1.5-.5-1.5-.5-3-.5-3-.5h-1-1l.5 1 .5 1 2.5 1 2.5 1 1.5.5 1.5.5 2 .5 2 .5h2.5 2.5 1.5 1.5l3 .5 3 .5" style="fill:#a099a1;stroke:#a099a1" />
        <g style="fill:#928e81;stroke:#928e81">
            <path d="m181 902l3 1v-2-2l-1-.5-1-.5-.5-.5-.5-.5-.5-.5-.5-.5-.5-.5-.5-.5-.5.5-.5.5-1 .5-1 .5v1 1l.5.5.5.5.5.5.5.5v-.5-.5-1-1h1 1l.5.5.5.5.5.5.5.5-.5 1-.5 1" />
            <path d="m96 901l3 1h2 2l-.5-1.5-.5-1.5-1-.5-1-.5h-1-1l-1-.5-1-.5-.5-.5-.5-.5h-1-1l-.5-.5-.5-.5h-1-1l-1-.5-1-.5h-1-1l-1.5-.5-1.5-.5-1.5-.5-1.5-.5h-1.5-1.5l-.5.5-.5.5v1 1l.5 1 .5 1h1 1l1-1 1-1h1 1 1.5 1.5l.5.5.5.5h1 1l.5.5.5.5h1.5 1.5l.5.5.5.5h1 1l.5.5.5.5.5.5.5.5 1 .5 1 .5h-2-2" />
        </g>
        <path d="m6 900h2l.5-.5.5-.5-.5-.5-.5-.5v-1-1l-1-.5-1-.5-.5-.5-.5-.5h-1-1-1.5-1.5v1.5 1.5l1 .5 1 .5 1 .5 1 .5 1 .5 1 .5" style="fill:#3d372b;stroke:#3d372b" />
        <path d="m93 900l3 1h2 2l-1-.5-1-.5-.5-.5-.5-.5-.5-.5-.5-.5h-1-1l-.5-.5-.5-.5h-1.5-1.5l-.5-.5-.5-.5h-1-1l-.5-.5-.5-.5h-1.5-1.5-1-1l-1 1-1 1 3 .5 3 .5 1.5.5 1.5.5 2.5.5 2.5.5" style="fill:#7e766a;stroke:#7e766a" />
        <g style="fill:#544f42;stroke:#544f42">
            <path d="m287 899l3 1 2-.5 2-.5 1.5-.5 1.5-.5 1.5-1 1.5-1 1.5.5 1.5.5.5 1.5.5 1.5v-1.5-1.5-2-2-2-2l-2-.5-2-.5-1-.5-1-.5-2 .5-2 .5-1-1-1-1-1.5-1-1.5-1-1.5-.5-1.5-.5-.5 2-.5 2v2 2l-.5 1-.5 1 .5 2 .5 2 1 1 1 1" />
            <path d="m120 897h2v-1-1l-.5-2-.5-2-.5-1.5-.5-1.5-1-.5-1-.5.5 1.5.5 1.5-.5.5-.5.5-1.5-1-1.5-1 1 2 1 2 1.5 1 1.5 1v1 1" />
        </g>
        <path d="m75 896l2 1-.5-1-.5-1v-1-1l.5-.5.5-.5h1.5 1.5l1.5.5 1.5.5-1.5-1-1.5-1-1.5-.5-1.5-.5-2-.5-2-.5-1.5.5-1.5.5 1 1.5 1 1.5 1.5 1.5 1.5 1.5" style="fill:#a099a1;stroke:#a099a1" />
        <path d="m111 895l1-1-1-1-1-1-1-1.5-1-1.5-.5-1.5-.5-1.5-1.5-1-1.5-1-1-1-1-1 .5 2 .5 2 1 1 1 1 1 1 1 1 1 1.5 1 1.5 1 1 1 1" style="fill:#ebe8db;stroke:#ebe8db" />
        <path d="m289 895l3 1 1-1 1-1 2-.5 2-.5-1-1-1-1-2-.5-2-.5-1-1-1-1h-1.5-1.5l.5 1.5.5 1.5v2 2h.5.5" style="fill:#3d372b;stroke:#3d372b" />
        <path d="m284 892v1l.5-1 .5-1v-2-2l.5-2 .5-2 1.5.5 1.5.5 1.5 1 1.5 1 1 1 1 1 2-.5 2-.5-1.5-.5-1.5-.5-.5-.5-.5-.5-.5-.5-.5-.5-.5-.5-.5-.5-1-.5-1-.5-.5-.5-.5-.5h-1-1l-.5.5-.5.5-1 .5-1 .5v1 1 1 1 1 1 1.5 1.5" style="fill:#928e81;stroke:#928e81" />
        <path d="m118 891l1-1-.5-1.5-.5-1.5-1.5-1-1.5-1-1-1-1-1-1.5-1-1.5-1 .5 1.5.5 1.5 1 1.5 1 1.5 1 1 1 1 1.5 1 1.5 1" style="fill:#3d372b;stroke:#3d372b" />
        <path d="m128 890h2l.5-.5.5-.5.5-.5.5-.5.5-.5.5-.5 1.5-.5 1.5-.5 1-.5 1-.5h1 1l1.5-.5 1.5-.5 1-.5 1-.5.5-.5.5-.5-1.5-.5-1.5-.5-1-.5-1-.5-1-.5-1-.5-2-.5-2-.5-1-1-1-1-1-.5-1-.5h-2-2l-.5 1-.5 1-.5.5-.5.5-1.5.5-1.5.5-1 1-1 1 1 1.5 1 1.5 1 1 1 1 .5 1 .5 1 .5.5.5.5 1 .5 1 .5" style="fill:#ebe8db;stroke:#ebe8db" />
        <path d="m51 889l3 1 1-1.5 1-1.5 1-1 1-1 1-1 1-1v-2.5-2.5l1.5-.5 1.5-.5 2-.5 2-.5 1.5.5 1.5.5 1.5.5 1.5.5 1 .5 1 .5h1 1 1 1l1 .5 1 .5 1.5.5 1.5.5 1.5-.5 1.5-.5.5-.5.5-.5 1-.5 1-.5-.5-1.5-.5-1.5.5-2 .5-2 1-1 1-1 1-1 1-1v-1-1l1-.5 1-.5h3 3 2 2l1 .5 1 .5.5.5.5.5h2 2l1.5.5 1.5.5 2 .5 2 .5 1 1 1 1 1 .5 1 .5.5.5.5.5 1.5.5 1.5.5 1.5 1 1.5 1 1 .5 1 .5 1 1 1 1 2 .5 2 .5h2 2l1.5.5 1.5.5 2 .5 2 .5h1.5 1.5 1.5 1.5l1 .5 1 .5.5.5.5.5h1 1l.5-.5.5-.5.5-1 .5-1 1-1 1-1 1-.5 1-.5h1 1l1 .5 1 .5 1.5.5 1.5.5 14 .5 14 .5 13.5 1 13.5 1 11.5 2.5 11.5 2.5 1.5-12.5 1.5-12.5 4.5-8.5 4.5-8.5-1 .5-1 .5-1.5 1.5-1.5 1.5-1.5.5-1.5.5-1.5 1-1.5 1-1 2-1 2v1.5 1.5 1.5 1.5l-.5.5-.5.5v1 1l-.5.5-.5.5.5.5.5.5 1 .5 1 .5h1 1l.5.5.5.5.5.5.5.5.5.5.5.5.5 1 .5 1 .5.5.5.5.5.5.5.5.5.5.5.5.5 1 .5 1v1 1l.5.5.5.5-.5 1-.5 1-1 1-1 1h-1-1-1-1-1-1l-1.5-.5-1.5-.5h-2-2l-.5-.5-.5-.5-2-.5-2-.5-1.5-.5-1.5-.5-1.5-.5-1.5-.5 1.5-4.5 1.5-4.5.5-.5.5-.5-1-1.5-1-1.5-2-.5-2-.5-1 1-1 1-1 .5-1 .5v.5.5l-.5 1-.5 1-1 1.5-1 1.5-1 1-1 1-2-.5-2-.5-1.5-.5-1.5-.5h-2-2l-2.5-.5-2.5-.5-13 1-13 1h-15.5-15.5-1-1-2-2l-1.5-.5-1.5-.5h-2-2l-1-.5-1-.5-1-1-1-1-.5-.5-.5-.5-1.5-1-1.5-1-1.5-.5-1.5-.5-1-1.5-1-1.5h-2-2l-1.5-1-1.5-1-1.5-.5-1.5-.5h-1.5-1.5l-2-.5-2-.5h-3-3-2-2-2.5-2.5l-1 1-1 1-1 1-1 1-1 1.5-1 1.5-1.5.5-1.5.5-.5.5-.5.5.5-1.5.5-1.5-1-.5-1-.5-1 1.5-1 1.5v1 1l.5 1 .5 1h-1-1-1.5-1.5-2-2l-22 4-22 4h-1.5-1.5l-1.5.5-1.5.5-1 .5-1 .5-2 .5-2 .5-1.5-.5-1.5-.5-.5-.5-.5-.5-.5-.5-.5-.5-.5-1-.5-1-1-.5-1-.5-1.5-.5-1.5-.5h-1-1l-2-.5-2-.5v1.5 1.5 2 2l14 1 14 1 2-1 2-1h2 2 1.5 1.5 2 2l1.5.5 1.5.5 2 .5 2 .5-1 1-1 1 1.5 1 1.5 1" style="fill:#a099a1;stroke:#a099a1" />
        <path d="m303 887l1 1v-3-3-2-2l-1 .5-1 .5h-1-1l-.5.5-.5.5h-2-2l-1 .5-1 .5.5.5.5.5 1 1 1 1 1 .5 1 .5.5.5.5.5h1 1l1 .5 1 .5" style="fill:#d5d1c3;stroke:#d5d1c3" />
        <path d="m251 884l3 1h1 1 1 1 1 1l1-1 1-1v-.5-.5l-.5-1.5-.5-1.5-1-.5-1-.5-.5-.5-.5-.5v-1-1l-.5-.5-.5-.5-1-.5-1-.5-1-1-1-1h-1-1l-.5-.5-.5-.5-1-.5-1-.5v1 1l1 1 1 1 1 1.5 1 1.5 1.5.5 1.5.5 1.5 1 1.5 1 1 1 1 1-1 1.5-1 1.5h-2-2-1.5-1.5" style="fill:#7e766a;stroke:#7e766a" />
        <g style="fill:#3d372b;stroke:#3d372b">
            <path d="m14 883l3 1 2-.5 2-.5-2-.5-2-.5-.5-1-.5-1-.5-1-.5-1-.5-1.5-.5-1.5v-.5-.5h-.5-.5l-1 1.5-1 1.5.5 1.5.5 1.5.5 1 .5 1 .5.5.5.5" />
            <path d="m246 883l1 1v-.5-.5l1-.5 1-.5-1-1-1-1-1-1.5-1-1.5.5-1.5.5-1.5v-2-2h-.5-.5l-.5 1-.5 1-.5.5-.5.5-1-.5-1-.5-.5-1-.5-1-.5.5-.5.5-.5 2-.5 2-.5 1.5-.5 1.5 1 1.5 1 1.5 1.5.5 1.5.5 2 .5 2 .5" />
        </g>
        <path d="m247 883v1h2 2v-.5-.5l2-.5 2-.5.5-.5.5-.5.5-.5.5-.5h-1-1l-1-.5-1-.5h-1-1l-.5-.5-.5-.5-.5-.5-.5-.5v-1.5-1.5l-.5-1.5-.5-1.5-.5-.5-.5-.5h-.5-.5v2 2l-.5 1.5-.5 1.5 1 1.5 1 1.5 1 1 1 1-1 .5-1 .5" style="fill:#544f42;stroke:#544f42" />
        <path d="m251 883v1h1.5 1.5 2 2l1-1.5 1-1.5-1-1-1-1-1.5-1-1.5-1-1.5-.5-1.5-.5-1-1.5-1-1.5-1-1-1-1 .5 1.5.5 1.5v1.5 1.5l.5.5.5.5.5.5.5.5h1 1l1 .5 1 .5h1 1l-.5.5-.5.5-.5.5-.5.5-2 .5-2 .5" style="fill:#625a63;stroke:#625a63" />
        <path d="m17 882l4 1 1-.5 1-.5 1.5-.5 1.5-.5h1.5 1.5v-.5-.5l2-.5 2-.5 2-.5 2-.5h2 2l2 .5 2 .5h2 2l2-.5 2-.5.5-1.5.5-1.5-2 .5-2 .5-1.5.5-1.5.5h-2.5-2.5-2-2-2.5-2.5l-1.5.5-1.5.5-1.5.5-1.5.5h-2.5-2.5l-1.5-.5-1.5-.5-.5-3-.5-3-1.5.5-1.5.5-.5 1-.5 1 .5 1.5.5 1.5.5 1 .5 1 .5 1 .5 1" style="fill:#78200c;stroke:#78200c" />
        <path d="m167 882l3 1h2 2 1.5 1.5l.5-.5.5-.5-1-1-1-1-1-.5-1-.5-1.5-.5-1.5-.5-1.5.5-1.5.5-1 .5-1 .5.5 1 .5 1" style="fill:#ebe8db;stroke:#ebe8db" />
        <path d="m262 882v1l.5-1 .5-1-.5-.5-.5-.5v-1-1l-.5-1-.5-1-.5-.5-.5-.5-.5-.5-.5-.5-.5-.5-.5-.5-.5-1-.5-1-.5-.5-.5-.5-.5-.5-.5-.5-.5-.5-.5-.5h-1-1l-1-.5-1-.5-.5-.5-.5-.5.5-.5.5-.5v-1-1l.5-.5.5-.5v-1.5-1.5-1.5-1.5l-.5 1-.5 1v2 2l-1 1.5-1 1.5v2 2l1 .5 1 .5.5.5.5.5h1 1l1 1 1 1 1 .5 1 .5.5.5.5.5v1 1l.5.5.5.5 1 .5 1 .5.5 1.5.5 1.5" style="fill:#928e81;stroke:#928e81" />
        <path d="m12 881l1 1-.5-1-.5-1-.5-1.5-.5-1.5 1-1.5 1-1.5v-.5-.5l-1 .5-1 .5h-1-1l-1.5-.5-1.5-.5-3-.5-3-.5v2 2l2 .5 2 .5h1 1l1.5.5 1.5.5 1 .5 1 .5.5 1 .5 1" style="fill:#544f42;stroke:#544f42" />
        <path d="m83 881l3 1h2 2l1.5-1 1.5-1 .5-1.5.5-1.5h1.5 1.5l.5-1.5.5-1.5 1-1.5 1-1.5-1.5-.5-1.5-.5-.5-1.5-.5-1.5 1.5-1 1.5-1 1.5-.5 1.5-.5h-3-3l-1 .5-1 .5v1 1l-1 1-1 1-1 1-1 1-.5 2-.5 2 .5 1.5.5 1.5-1 .5-1 .5-.5.5-.5.5-1.5.5-1.5.5-1.5-.5-1.5-.5 1 .5 1 .5" style="fill:#bcb8ac;stroke:#bcb8ac" />
        <path d="m29 880v1l22-4 22-4-1.5-.5-1.5-.5-1-.5-1-.5h-3-3-1-1-.5-.5l-1.5 1-1.5 1-1 1-1 1-.5 1.5-.5 1.5-2 .5-2 .5h-2-2l-2-.5-2-.5h-2-2l-2 .5-2 .5-2 .5-2 .5" style="fill:#7a3328;stroke:#7a3328" />
        <path d="m236 880l3 1-1-1.5-1-1.5.5-1.5.5-1.5.5-2 .5-2-1.5 4.5-1.5 4.5" style="fill:#544f42;stroke:#544f42" />
        <path d="m19 878l3 1h2.5 2.5l1.5-.5 1.5-.5 1.5-.5 1.5-.5h2.5 2.5 2 2 2.5 2.5l1.5-.5 1.5-.5 2-.5 2-.5 1-1 1-1h-1-1-2-2l-1 .5-1 .5h-1-1l-1 .5-1 .5h-1-1-1-1-1-1-1.5-1.5-1-1-1-1-1-1l-1 .5-1 .5-1.5.5-1.5.5-1.5-.5-1.5-.5 7-7.5 7-7.5 12.5-4.5 12.5-4.5 1-1 1-1 2-.5 2-.5.5-1 .5-1-2.5.5-2.5.5h-2-2l-2 .5-2 .5h-2-2-1.5-1.5l-1.5.5-1.5.5h-1-1l-.5.5-.5.5-.5.5-.5.5-1 .5-1 .5-.5.5-.5.5-.5.5-.5.5-1 .5-1 .5-1 .5-1 .5-1 1-1 1h-2-2-1-1l-1 .5-1 .5-1 1-1 1 .5 2 .5 2-.5 1.5-.5 1.5-1 1.5-1 1.5.5 3 .5 3" style="fill:#9c290b;stroke:#9c290b" />
        <path d="m288 878h2l1-1 1-1 1.5-1 1.5-1 1.5.5 1.5.5 1-.5 1-.5 1-1 1-1 1-.5 1-.5v-3-3-2-2-2.5-2.5-1.5-1.5h-3-3l-1.5.5-1.5.5h-2-2l-1.5 12-1.5 12" style="fill:#d5d1c3;stroke:#d5d1c3" />
        <path d="m21 876l3 1 1.5-.5 1.5-.5 1-.5 1-.5h1 1 1 1 1 1 1.5 1.5 1 1 1 1 1 1l1-.5 1-.5h1 1l1-.5 1-.5-1.5-.5-1.5-.5 1-1 1-1 .5-.5.5-.5h1 1 1 1l.5-.5.5-.5 1-.5 1-.5.5-.5.5-.5.5-.5.5-.5.5-.5.5-.5.5-1 .5-1v-1-1-1-1-1-1l-.5-2-.5-2-12.5 4.5-12.5 4.5-7 7.5-7 7.5" style="fill:#bf3005;stroke:#bf3005" />
        <path d="m152 876h31l13-1 13-1 1.5-.5 1.5-.5 1-1 1-1h2.5 2.5l1.5-.5 1.5-.5 2-.5 2-.5h2 2l1-.5 1-.5 1-1 1-1 2 .5 2 .5 1 1.5 1 1.5.5 1 .5 1 1 .5 1 .5.5-.5.5-.5.5-1 .5-1v-2.5-2.5l1-2 1-2v-.5-.5-1.5-1.5l-.5-1-.5-1-1.5-1-1.5-1-1-1-1-1-1 1.5-1 1.5-1 .5-1 .5-.5.5-.5.5h-1-1l-.5.5-.5.5h-1.5-1.5l-.5.5-.5.5-.5.5-.5.5-.5.5-.5.5h-1.5-1.5l-.5.5-.5.5h-1-1l-.5.5-.5.5-1 .5-1 .5-1.5.5-1.5.5-.5.5-.5.5-1.5.5-1.5.5-1 1.5-1 1.5v1 1h-1-1l-.5.5-.5.5-1.5-.5-1.5-.5h-1.5-1.5-22.5-22.5l-13-3-13-3-16-3.5-16-3.5 1.5 1 1.5 1h1 1 1.5 1.5 1 1 1 1l1 .5 1 .5 1 .5 1 .5h1.5 1.5l1.5.5 1.5.5 1.5 1 1.5 1h2 2l1 1.5 1 1.5 1.5.5 1.5.5 1 .5 1 .5 1.5.5 1.5.5 1.5.5 1.5.5 2 .5 2 .5 1.5.5 1.5.5 2 1 2 1h1 1" style="fill:#78200c;stroke:#78200c" />
        <g style="fill:#331b10;stroke:#331b10">
            <path d="m221 876l4 1 1-1 1-1 1-1.5 1-1.5.5-1 .5-1v-.5-.5h-2-2l-2 .5-2 .5-1.5.5-1.5.5h-2.5-2.5l-1 1-1 1-1.5.5-1.5.5 2.5.5 2.5.5h2 2l1.5.5 1.5.5" />
            <path d="m143 875l3 1h2 2l-2-1-2-1-1.5-.5-1.5-.5-2-.5-2-.5-1.5-.5-1.5-.5-1.5-.5-1.5-.5-1-.5-1-.5 1.5 1 1.5 1 .5.5.5.5 1 1 1 1 1 .5 1 .5h2 2" />
        </g>
        <path d="m9 874h2l1-.5 1-.5.5-1 .5-1 .5-1 .5-1v-1-1l.5-1 .5-1-.5-.5-.5-.5-1.5 1-1.5 1-.5 1.5-.5 1.5-.5 1-.5 1-2-.5-2-.5-1-.5-1-.5h-1-1l-1-.5-1-.5v2 2l3 .5 3 .5 1.5.5 1.5.5" style="fill:#7e766a;stroke:#7e766a" />
        <path d="m14 874v1l.5-1 .5-1 1.5-.5 1.5-.5 1-1.5 1-1.5.5-1.5.5-1.5-.5-2-.5-2 1-1 1-1 1-.5 1-.5h1 1 2 2l1-1 1-1 1-.5 1-.5-2 .5-2 .5h-1.5-1.5-1.5-1.5l-1.5.5-1.5.5-1 1.5-1 1.5-1 1-1 1-.5 1-.5 1-.5 1-.5 1v1 1l-.5 1-.5 1-.5 1-.5 1v.5.5h.5.5" style="fill:#7a3328;stroke:#7a3328" />
        <path d="m47 872l3 1h2 2 1 1l1.5-1 1.5-1 1.5-1 1.5-1 1.5-.5 1.5-.5h2.5 2.5 2 2l1.5.5 1.5.5h2 2l1-1.5 1-1.5 1 .5 1 .5 1-.5 1-.5 1-1 1-1 .5-.5.5-.5.5-1 .5-1 1-.5 1-.5v-.5-.5l1-1.5 1-1.5 1-.5 1-.5.5-1 .5-1v-2-2l1-1 1-1v-2.5-2.5l-1-1-1-1 .5-2 .5-2 .5-1.5.5-1.5.5-2 .5-2 .5-1.5.5-1.5v-1.5-1.5-.5-.5l-.5-1.5-.5-1.5-7 8.5-7 8.5-10 5.5-10 5.5-.5 1-.5 1-2 .5-2 .5-1 1-1 1 .5 2 .5 2v1 1 1 1 1 1l-.5 1-.5 1-.5.5-.5.5-.5.5-.5.5-.5.5-.5.5-1 .5-1 .5-.5.5-.5.5h-1-1-1-1l-.5.5-.5.5-1 1-1 1" style="fill:#b2382b;stroke:#b2382b" />
        <path d="m70 872l3 1h2 2 1.5 1.5 1 1l-.5-1-.5-1h-1.5-1.5l-2-.5-2-.5h-2-2l-1 .5-1 .5 1 .5 1 .5" style="fill:#78200c;stroke:#78200c" />
        <g style="fill:#9c290b;stroke:#9c290b">
            <path d="m60 871h2 3 3l1-.5 1-.5h2 2l2 .5 2 .5h1.5 1.5v-1-1h-2-2l-1.5-.5-1.5-.5h-2-2-2.5-2.5l-1.5.5-1.5.5-1.5 1-1.5 1h.5.5" />
            <path d="m155 871h45l1.5-1.5 1.5-1.5 2-.5 2-.5 1-1 1-1 1 .5 1 .5 1.5-.5 1.5-.5.5-.5.5-.5 1.5-.5 1.5-.5 1-.5 1-.5.5-.5.5-.5h1 1l.5-.5.5-.5h1.5 1.5l.5-.5.5-.5.5-.5.5-.5.5-.5.5-.5h1.5 1.5l.5-.5.5-.5h1 1l.5-.5.5-.5 1-.5 1-.5v-2-2-1-1l.5-1 .5-1 1.5-.5 1.5-.5 1-.5 1-.5 1-.5 1-.5 1.5-1 1.5-1 1-1 1-1 2-1 2-1 1-1 1-1-16.5 9-16.5 9 1 1 1 1-.5.5-.5.5-.5.5-.5.5-1-.5-1-.5h-1-1l-.5.5-.5.5h-1-1l-1 .5-1 .5h-1-1l-.5.5-.5.5-.5.5-.5.5h-1-1l-1-.5-1-.5v1 1l-1 .5-1 .5-1 2-1 2-1.5.5-1.5.5-2 .5-2 .5h-1.5-1.5l-2 .5-2 .5-.5.5-.5.5h-1.5-1.5l-2-.5-2-.5-13.5-1.5-13.5-1.5-13-2-13-2-16-3.5-16-3.5-1 .5-1 .5-1 1.5-1 1.5 2-.5 2-.5 16 3.5 16 3.5 13 3 13 3" />
        </g>
        <path d="m203 871l3 1 .5-.5.5-.5h1 1v-1-1l1-1.5 1-1.5-1-.5-1-.5-1 1-1 1-2 .5-2 .5-1.5 1.5-1.5 1.5h1.5 1.5" style="fill:#7a3328;stroke:#7a3328" />
        <path d="m6 870l4 1v-.5-.5-1.5-1.5l-.5-1.5-.5-1.5-1.5.5-1.5.5h-3-3v1.5 1.5l1 .5 1 .5h1 1l1 .5 1 .5" style="fill:#bcb8ac;stroke:#bcb8ac" />
        <path d="m10 870v1l.5-1 .5-1 .5-1.5.5-1.5v-.5-.5l.5-1 .5-1-1-.5-1-.5.5-2 .5-2 .5-1.5.5-1.5-1 1-1 1-1 1-1 1-1.5-.5-1.5-.5-1-1.5-1-1.5-1-1-1-1 1.5-1 1.5-1 1-.5 1-.5h-1.5-1.5l-2-.5-2-.5v1.5 1.5 2.5 2.5 2 2 2 2h3 3l1.5-.5 1.5-.5.5 1.5.5 1.5v1.5 1.5" style="fill:#a099a1;stroke:#a099a1" />
        <path d="m84 870l1-1 1.5-.5 1.5-.5 1-1.5 1-1.5 1-1 1-1 1-1 1-1-.5-.5-.5-.5-1 .5-1 .5-.5 1-.5 1-.5.5-.5.5-1 1-1 1-1 .5-1 .5-.5 1.5-.5 1.5" style="fill:#a34d46;stroke:#a34d46" />
        <path d="m247 870l1 1v-1-1-2-2l1-1.5 1-1.5v-2-2l.5-1 .5-1 1-2 1-2 1.5-1 1.5-1 1.5-.5 1.5-.5 1.5-1.5 1.5-1.5v-1-1l1-1.5 1-1.5.5-1.5.5-1.5 1.5-.5 1.5-.5 1-.5 1-.5v-1.5-1.5l1-1 1-1 1-1.5 1-1.5h-1-1-1-1l-1 1.5-1 1.5-1.5.5-1.5.5-.5.5-.5.5-.5 1-.5 1-1 .5-1 .5-.5-.5-.5-.5h-1-1l-1 1-1 1 1 .5 1 .5.5.5.5.5.5 1 .5 1-1 1-1 1-1.5 1-1.5 1-1.5.5-1.5.5-1.5 1.5-1.5 1.5-.5.5-.5.5v2.5 2.5 2 2l-.5 1-.5 1-1 2-1 2v2.5 2.5h.5.5.5.5" style="fill:#7e5d55;stroke:#7e5d55" />
        <path d="m182 869l4 1h1.5 1.5l.5-.5.5-.5 2-.5 2-.5v-.5-.5l-1-2-1-2 1-1 1-1 1.5-1 1.5-1h2 2l1.5.5 1.5.5 1 1 1 1 1-.5 1-.5v-1-1l1 .5 1 .5h1 1l.5-.5.5-.5.5-.5.5-.5h1 1l1-.5 1-.5h1 1l.5-.5.5-.5h1 1l1 .5 1 .5.5-.5.5-.5.5-.5.5-.5-1-1-1-1h-1.5-1.5-1-1l-1-.5-1-.5-1-1-1-1h-1-1l-1-.5-1-.5h-2-2l-1.5-.5-1.5-.5-1 .5-1 .5-1 1-1 1-.5 1.5-.5 1.5-1 1-1 1h-1.5-1.5l-.5-1-.5-1v-1-1l.5-1 .5-1h-1.5-1.5l-1 .5-1 .5-.5.5-.5.5-1 .5-1 .5h-2-2l-1.5-.5-1.5-.5-6-6-6-6 5-10 5-10 3-12.5 3-12.5-6 4.5-6 4.5-4-6.5-4-6.5 2-13.5 2-13.5 1-13.5 1-13.5v-12.5-12.5l-2.5 7-2.5 7-3.5 11-3.5 11h-4.5-4.5l-3.5-2-3.5-2-3 12.5-3 12.5-3.5 11-3.5 11-6 5-6 5-.5 1-.5 1-1 1-1 1-.5 2-.5 2-.5 1.5-.5 1.5-1 1.5-1 1.5-.5 1.5-.5 1.5-1.5 1-1.5 1-1.5.5-1.5.5-.5 1-.5 1v1.5 1.5l-.5 1.5-.5 1.5-.5 2-.5 2-.5 1.5-.5 1.5-.5 2-.5 2 1 1 1 1v2.5 2.5l-1 1-1 1v2 2l-.5 1-.5 1 16 3.5 16 3.5 13 2 13 2 13.5 1.5 13.5 1.5" style="fill:#bf3005;stroke:#bf3005" />
        <path d="m194 867v1h1.5 1.5l2-.5 2-.5 1.5-.5 1.5-.5 1-2 1-2-1-1-1-1-1.5-.5-1.5-.5h-2-2l-1.5 1-1.5 1-1 1-1 1 1 2 1 2" style="fill:#b2382b;stroke:#b2382b" />
        <path d="m12 865v1l1.5-1 1.5-1 1-2 1-2 1-1.5 1-1.5 1-1 1-1 1.5-.5 1.5-.5 2.5.5 2.5.5-5.5-.5-5.5-.5-.5 1.5-.5 1.5-.5.5-.5.5-.5 1-.5 1-1 1.5-1 1.5-.5 1-.5 1" style="fill:#928e81;stroke:#928e81" />
        <path d="m15 864l1 1 .5-1 .5-1 1-1 1-1 1-1.5 1-1.5 1.5-.5 1.5-.5h1.5 1.5v-.5-.5l1-.5 1-.5-2.5-.5-2.5-.5-1.5.5-1.5.5-1 1-1 1-1 1.5-1 1.5-1 2-1 2" style="fill:#7e5d55;stroke:#7e5d55" />
        <path d="m11 862l2 1 1-1.5 1-1.5.5-1 .5-1 .5-.5.5-.5.5-1.5.5-1.5 1-1.5 1-1.5 1.5-.5 1.5-.5.5-.5.5-.5v-2.5-2.5l-.5 1-.5 1-.5 1-.5 1-.5.5-.5.5h-1.5-1.5l-2-.5-2-.5-1.5-.5-1.5-.5h-1.5-1.5-1-1l-.5-.5-.5-.5-.5-.5-.5-.5-.5-.5-.5-.5-1.5.5-1.5.5v2 2l2 .5 2 .5h1.5 1.5l2.5.5 2.5.5.5 2 .5 2-.5 1.5-.5 1.5-.5 2-.5 2" style="fill:#bcb8ac;stroke:#bcb8ac" />
        <path d="m109 861l4 1-1-.5-1-.5-1-.5-1-.5h-1-1-1-1-1.5-1.5-1-1l-1.5-1-1.5-1-2 .5-2 .5v.5.5l.5.5.5.5h2.5 2.5 2 2 3 3" style="fill:#7a3328;stroke:#7a3328" />
        <path d="m287 861l3 1 1.5-.5 1.5-.5 2-.5 2-.5 1-1 1-1 1.5-1 1.5-1-1-1-1-1-2 .5-2 .5-1.5.5-1.5.5-1.5.5-1.5.5-1.5 1-1.5 1v1 1" style="fill:#ebe8db;stroke:#ebe8db" />
        <path d="m247 860v1l.5-1 .5-1v-2-2-2.5-2.5l.5-.5.5-.5-1-.5-1-.5h-1-1l-1-.5-1-.5 1-1.5 1-1.5-1 .5-1 .5-1.5.5-1.5.5-.5 1-.5 1v1 1 2 2l1-1.5 1-1.5 1 1 1 1 1.5 1 1.5 1 .5 1 .5 1v1.5 1.5" style="fill:#7a3328;stroke:#7a3328" />
        <path d="m6 858l3 1 1-1 1-1 1-1 1-1-.5-2-.5-2-2.5-.5-2.5-.5-1 .5-1 .5-1.5 1-1.5 1 1 1 1 1 1 1.5 1 1.5" style="fill:#928e81;stroke:#928e81" />
        <path d="m72 857h2l1-1 1-1v-1.5-1.5l-1.5-.5-1.5-.5-1.5 1-1.5 1v1 1l1 1 1 1" style="fill:#bf3005;stroke:#bf3005" />
        <g style="fill:#a099a1;stroke:#a099a1">
            <path d="m278 857h2l1.5-.5 1.5-.5 1-.5 1-.5h1 1l.5-.5.5-.5h1.5 1.5 2 2l1.5-.5 1.5-.5h3 3v-1.5-1.5-2-2l-1 1.5-1 1.5-1.5.5-1.5.5-2.5.5-2.5.5-1 .5-1 .5h-1-1-1.5-1.5-1-1l-1 1-1 1-1 .5-1 .5-1.5-.5-1.5-.5-.5-1.5-.5-1.5-.5-2-.5-2-.5-1.5-.5-1.5-1-1.5-1-1.5h-2-2l-2 1.5-2 1.5h1.5 1.5l1-.5 1-.5h1 1l.5 1.5.5 1.5v1.5 1.5l.5.5.5.5.5 1.5.5 1.5.5 1 .5 1 1 1 1 1" />
            <path d="m27 856v1h1.5 1.5l2-.5 2-.5v-.5-.5l.5-2 .5-2-.5-.5-.5-.5-1.5-1-1.5-1-1-1-1-1-.5-.5-.5-.5v-1.5-1.5l-.5-1.5-.5-1.5v-1-1l-.5-1.5-.5-1.5-.5-1-.5-1-.5-1-.5-1-1.5-.5-1.5-.5-.5-.5-.5-.5h-1.5-1.5l-1.5-.5-1.5-.5h-1-1-1.5-1.5l-1.5.5-1.5.5h-1-1l-.5.5-.5.5-.5-.5-.5-.5-1 .5-1 .5v2 2 .5.5h1.5 1.5l1-.5 1-.5.5-.5.5-.5h1 1 1 1 1.5 1.5 1 1 1 1l.5.5.5.5.5.5.5.5h1 1l.5 1 .5 1 .5.5.5.5.5.5.5.5v1 1 2 2 2.5 2.5l-.5.5-.5.5-1.5.5-1.5.5-1 1.5-1 1.5 5.5.5 5.5.5-1 .5-1 .5" />
        </g>
        <path d="m195 856h3l1-1 1-1 .5-1.5.5-1.5 1-1 1-1 1-.5 1-.5h-2.5-2.5l-1.5.5-1.5.5-1 .5-1 .5-.5 1-.5 1v1 1l.5 1 .5 1" style="fill:#9c290b;stroke:#9c290b" />
        <path d="m34 855v1l1-.5 1-.5.5-.5.5-.5.5-.5.5-.5 1-.5 1-.5.5-.5.5-.5.5-.5.5-.5h1 1l1.5-.5 1.5-.5v-.5-.5l.5-1.5.5-1.5 1.5-1 1.5-1h2 2l1 1 1 1 .5.5.5.5v1 1h2 2l2.5-.5 2.5-.5 10-5.5 10-5.5 7-8.5 7-8.5 9.5-15.5 9.5-15.5 1-1.5 1-1.5.5-.5.5-.5-.5-1-.5-1 .5-1.5.5-1.5v-1.5-1.5l-.5-.5-.5-.5h-1-1l-5 10.5-5 10.5-6.5 9.5-6.5 9.5-.5 1.5-.5 1.5-1 1.5-1 1.5-.5 1.5-.5 1.5-1 1-1 1-1.5 1-1.5 1-1 1-1 1-1.5 1-1.5 1-1 1-1 1-1.5 1-1.5 1-21.5 7.5-21.5 7.5-.5 2-.5 2" style="fill:#7a3328;stroke:#7a3328" />
        <path d="m278 854l3 1 1-.5 1-.5-1.5-.5-1.5-.5-1-2-1-2-1-1.5-1-1.5.5-1.5.5-1.5-1-1.5-1-1.5h-2-2-2-2l-1.5 1-1.5 1-1 1-1 1v1 1l1-.5 1-.5.5-.5.5-.5 2-1.5 2-1.5h2 2l1 1.5 1 1.5.5 1.5.5 1.5.5 2 .5 2 .5 1.5.5 1.5" style="fill:#928e81;stroke:#928e81" />
        <path d="m280 853l3 1 1-1 1-1h1 1 1.5 1.5 1 1l1-.5 1-.5h-1.5-1.5l-1.5-.5-1.5-.5h-2.5-2.5l-1.5-1-1.5-1-1-1-1-1v-2.5-2.5l-1-1-1-1-1.5-.5-1.5-.5-2.5-.5-2.5-.5-1.5.5-1.5.5-.5 1.5-.5 1.5-1 1.5-1 1.5 1-1 1-1 1.5-1 1.5-1h2 2 2 2l1 1.5 1 1.5-.5 1.5-.5 1.5 1 1.5 1 1.5 1 2 1 2" style="fill:#7e766a;stroke:#7e766a" />
        <path d="m180 852l3 1h2 2l1-.5 1-.5.5-.5.5-.5 1-.5 1-.5h1.5 1.5l1-.5 1-.5 1.5-.5 1.5-.5h2.5 2.5l1.5.5 1.5.5h2 2l1 .5 1 .5h1 1l1 1 1 1 1 .5 1 .5h1 1 1.5 1.5l16.5-9 16.5-9h1 1l.5-1 .5-1 .5-1 .5-1 2-1.5 2-1.5v-.5-.5l.5-1 .5-1 .5-1 .5-1 1-1 1-1 1-1.5 1-1.5 1-1 1-1 1.5-.5 1.5-.5 1 .5 1 .5h.5.5l-13 2.5-13 2.5-2-10.5-2-10.5 3.5-9 3.5-9 .5-5 .5-5-7 1.5-7 1.5-4-8.5-4-8.5-5.5-7-5.5-7-3 11.5-3 11.5-6 .5-6 .5 1-12.5 1-12.5.5-14 .5-14-.5-12-.5-12-5.5 7-5.5 7-3.5 10-3.5 10-6-2.5-6-2.5 1.5-12 1.5-12-5-5.5-5-5.5-4.5 2-4.5 2 1-11.5 1-11.5 4-10.5 4-10.5 4.5-7 4.5-7v-25-25l-.5 1-.5 1-1 12-1 12-2.5 13-2.5 13-.5-1-.5-1-.5-1-.5-1v-2.5-2.5-2-2l.5-1.5.5-1.5.5-2 .5-2v-2-2l.5-2 .5-2 .5-1.5.5-1.5v-2-2l-3 11.5-3 11.5-1.5-9-1.5-9 1.5-14.5 1.5-14.5-.5 1.5-.5 1.5-.5.5-.5.5-.5.5-.5.5-.5-1-.5-1v-2-2-1.5-1.5l-2 13.5-2 13.5-1.5 13-1.5 13-2.5 12-2.5 12-2 12.5-2 12.5-1.5 12-1.5 12-1.5 14-1.5 14-4.5 4-4.5 4-2-14.5-2-14.5v1.5 1.5l-.5 1.5-.5 1.5v1.5 1.5l-.5 1.5-.5 1.5-.5 2-.5 2v2 2 2 2l-.5 2-.5 2-.5 1.5-.5 1.5v1.5 1.5 2 2l-.5 1.5-.5 1.5v1.5 1.5l-.5 1-.5 1 .5.5.5.5 1 .5 1 .5v2 2 2.5 2.5l-.5 2.5-.5 2.5v1.5 1.5l-1 1-1 1-.5 3-.5 3v1.5 1.5l-.5 1.5-.5 1.5.5 1 .5 1-.5.5-.5.5-1 1.5-1 1.5.5 1 .5 1-1 1.5-1 1.5-.5 1.5-.5 1.5-.5 2.5-.5 2.5 6-5 6-5 3.5-11 3.5-11 3-12.5 3-12.5 3.5 2 3.5 2h4.5 4.5l3.5-11 3.5-11 2.5-7 2.5-7v12.5 12.5l-1 13.5-1 13.5-2 13.5-2 13.5 4 6.5 4 6.5 6-4.5 6-4.5-3 12.5-3 12.5-5 10-5 10 6 6 6 6" style="fill:#b2382b;stroke:#b2382b" />
        <path d="m34 850l1 1 21.5-7.5 21.5-7.5-11-.5-11-.5-11 6-11 6-1-1.5-1-1.5h-1-1l-.5-.5-.5-.5v-1-1-1.5-1.5-1-1l-.5-.5-.5-.5-1-.5-1-.5.5 1.5.5 1.5v1 1l.5 1.5.5 1.5v1.5 1.5l.5.5.5.5 1 1 1 1 1.5 1 1.5 1" style="fill:#544f42;stroke:#544f42" />
        <path d="m288 850l3 1h1.5 1.5l2.5-.5 2.5-.5h-2-2l-2-.5-2-.5-1.5-.5-1.5-.5-.5-1-.5-1-.5-.5-.5-.5-.5-.5-.5-.5-.5.5-.5.5-1 .5-1 .5-1-1-1-1-.5-.5-.5-.5.5-.5.5-.5v-1-1l-1-.5-1-.5-.5-.5-.5-.5-.5-.5-.5-.5-.5-.5-.5-.5h-2.5-2.5l-1 .5-1 .5 2.5.5 2.5.5 1.5.5 1.5.5 1 1 1 1v2.5 2.5l1 1 1 1 1.5 1 1.5 1h2.5 2.5" style="fill:#625a63;stroke:#625a63" />
        <path d="m291 849l4 1h2 2l1.5-.5 1.5-.5 1-1.5 1-1.5v-2-2-1.5-1.5l-.5 1-.5 1-.5.5-.5.5 1-2.5 1-2.5v-1.5-1.5-2.5-2.5-1.5-1.5l-2-1-2-1-1.5-.5-1.5-.5-1.5.5-1.5.5-.5.5-.5.5-1 .5-1 .5h-2-2l-1.5 1-1.5 1h-1.5-1.5l-.5-1.5-.5-1.5v-1-1l.5-.5.5-.5-.5-1-.5-1-1 2-1 2-1 1-1 1-1 1-1 1-1 1.5-1 1.5-1 1-1 1v1.5 1.5h2.5 2.5l.5.5.5.5.5.5.5.5.5.5.5.5 1 .5 1 .5v1 1l-.5.5-.5.5.5.5.5.5 1 1 1 1 1-.5 1-.5.5-.5.5-.5.5.5.5.5.5.5.5.5.5 1 .5 1 1.5.5 1.5.5" style="fill:#544f42;stroke:#544f42" />
        <path d="m14 848l4 1h1.5 1.5l.5-.5.5-.5.5-1 .5-1 .5-1 .5-1v-2-2-1-1l-.5-.5-.5-.5-.5-.5-.5-.5-.5-1-.5-1h-1-1l-.5-.5-.5-.5-.5-.5-.5-.5h-1-1-1-1-1.5-1.5-1-1-1-1l-.5.5-.5.5-1 .5-1 .5h-1.5-1.5v1.5 1.5 2.5 2.5 1.5 1.5l1.5-.5 1.5-.5.5.5.5.5.5.5.5.5.5.5.5.5h1 1 1.5 1.5l1.5.5 1.5.5" style="fill:#d5d1c3;stroke:#d5d1c3" />
        <g style="fill:#78200c;stroke:#78200c">
            <path d="m47 848v1h1.5 1.5 2 2l2-.5 2-.5v-1-1l-.5-.5-.5-.5-1-1-1-1h-2-2l-1.5 1-1.5 1-.5 1.5-.5 1.5" />
            <path d="m245 848h2l1 .5 1 .5 1.5-1.5 1.5-1.5 1.5-.5 1.5-.5 1.5-1 1.5-1 1-1 1-1-.5-1-.5-1-.5-.5-.5-.5-1-.5-1-.5-2 1-2 1-1 1-1 1-1.5 1-1.5 1-1 .5-1 .5-1 1.5-1 1.5 1 .5 1 .5" />
        </g>
        <path d="m34 847l22-12 11 .5 11 .5 1.5-1 1.5-1 1-1 1-1 1.5-1 1.5-1 1-1 1-1 1.5-1 1.5-1 1-1 1-1 .5-1.5.5-1.5 1-1.5 1-1.5.5-1.5.5-1.5-5.5 3-5.5 3-12.5 1-12.5 1-13 2.5-13 2.5h-14.5-14.5l1.5-.5 1.5-.5h1.5 1.5 1 1l1.5.5 1.5.5h1.5 1.5l.5.5.5.5 1.5.5 1.5.5.5 1 .5 1 .5 1 .5 1 1 .5 1 .5.5.5.5.5v1 1 1.5 1.5 1 1l.5.5.5.5h1 1l1 1.5 1 1.5" style="fill:#3d372b;stroke:#3d372b" />
        <path d="m194 843l25-4-5.5-10-5.5-10-9 4.5-9 4.5 2 7.5 2 7.5" style="fill:#a34d46;stroke:#a34d46" />
        <path d="m302 842l1-1 .5-1 .5-1v-1-1l-1 2.5-1 2.5" style="fill:#625a63;stroke:#625a63" />
        <path d="m206 838h2l1-1 1-1-.5-1-.5-1-1.5-.5-1.5-.5h-1.5-1.5v1 1l1.5 1 1.5 1v.5.5" style="fill:#7e5d55;stroke:#7e5d55" />
        <path d="m261 836l2-1 .5-1 .5-1 .5-.5.5-.5 1.5-.5 1.5-.5 1-1.5 1-1.5-.5-.5-.5-.5h-1-1l-.5.5-.5.5-2 1.5-2 1.5-.5 1-.5 1-.5 1-.5 1 .5.5.5.5" style="fill:#a34d46;stroke:#a34d46" />
        <path d="m0 828v1l1-.5 1-.5.5.5.5.5.5-.5.5-.5h1 1 14.5 14.5l13-2.5 13-2.5 12.5-1 12.5-1 5.5-3 5.5-3 6.5-9.5 6.5-9.5 5-10.5 5-10.5-.5-1.5-.5-1.5v-1.5-1.5-2-2-1-1-1-1-1-1l1-1 1-1v-1.5-1.5l-.5-.5-.5-.5-.5-1.5-.5-1.5v-2.5-2.5l-1-.5-1-.5-7.5 8.5-7.5 8.5h-7-7l-5.5 3-5.5 3-14.5 9.5-14.5 9.5-1.5 1-1.5 1-1 1-1 1-1.5 1-1.5 1-1.5.5-1.5.5-1.5 1-1.5 1-1.5.5-1.5.5-1 .5-1 .5h-.5-.5-1-1l.5.5.5.5-1 .5-1 .5-1 1-1 1-.5.5-.5.5-1-.5-1-.5v1 1l-1.5-.5-1.5-.5 8.5-6.5 8.5-6.5 9-6 9-6 9.5-6 9.5-6 10-5.5 10-5.5 13.5-6.5 13.5-6.5 1.5-1 1.5-1-.5-.5-.5-.5-11 4.5-11 4.5-9 5.5-9 5.5-9 5.5-9 5.5-9 6.5-9 6.5-9.5 6-9.5 6-12.5 9-12.5 9v1.5 1.5 2.5 2.5 2 2 2 2" style="fill:#544f42;stroke:#544f42" />
        <path d="m281 828h3l1.5-1 1.5-1-1 .5-1 .5-1.5-.5-1.5-.5v-2.5-2.5-1-1-1-1-2-2l-1 2-1 2v1.5 1.5l.5 1 .5 1-.5.5-.5.5v1 1l.5 1.5.5 1.5" style="fill:#7e5d55;stroke:#7e5d55" />
        <path d="m266 827v1l.5-.5.5-.5 1.5-1 1.5-1 1.5-1 1.5-1 1.5-.5 1.5-.5 1.5-1 1.5-1v-2-2l-1-.5-1-.5-1.5.5-1.5.5-1 1-1 1-1 1.5-1 1.5-1 1-1 1-.5 1-.5 1-.5 1-.5 1" style="fill:#9c290b;stroke:#9c290b" />
        <path d="m269 827l1 1h1 1 1 1l1-1 1-1 1-1 1-1 1-2 1-2v-1.5-1.5-.5-.5h-.5-.5v2 2l-1.5 1-1.5 1-1.5.5-1.5.5-1.5 1-1.5 1-1.5 1-1.5 1h1 1" style="fill:#7a3328;stroke:#7a3328" />
        <path d="m282 826l3 1 1-.5 1-.5v-.5-.5l2-.5 2-.5h-2-2l-1.5-.5-1.5-.5-.5-2-.5-2v-2.5-2.5l1-1 1-1 1.5-.5 1.5-.5 1.5-1 1.5-1 1.5-.5 1.5-.5h2 2l1-1.5 1-1.5v-.5-.5-1.5-1.5l-1 1.5-1 1.5-.5.5-.5.5-1 .5-1 .5h-2-2l-.5.5-.5.5h-1-1l-.5.5-.5.5-1 .5-1 .5-.5 1-.5 1-1 1-1 1v2 2 1 1 1 1 2.5 2.5" style="fill:#7e766a;stroke:#7e766a" />
        <path d="m287 825v1h2 2l1-.5 1-.5.5-.5.5-.5 1.5-.5 1.5-.5 1.5.5 1.5.5 2 1 2 1v-1.5-1.5l-1-.5-1-.5h-1.5-1.5-2.5-2.5l-1.5 1-1.5 1-2 .5-2 .5" style="fill:#7e5d55;stroke:#7e5d55" />
        <path d="m284 823l3 1h2 2l1.5-1 1.5-1h2.5 2.5l-1.5-.5-1.5-.5-1.5.5-1.5.5h-2.5-2.5l-1.5-.5-1.5-.5-.5-1.5-.5-1.5 1-2 1-2v-.5-.5l1.5-.5 1.5-.5 1-.5 1-.5.5-.5.5-.5.5-.5.5-.5h1 1l1.5-.5 1.5-.5h-2-2l-1.5.5-1.5.5-1.5 1-1.5 1-1.5.5-1.5.5-1 1-1 1v2.5 2.5l.5 2 .5 2" style="fill:#928e81;stroke:#928e81" />
        <path d="m102 822v1l.5-1 .5-1 1.5-.5 1.5-.5 1.5-1 1.5-1 .5-1.5.5-1.5 1-1.5 1-1.5.5-1.5.5-1.5.5-2 .5-2 1-1 1-1 .5-1 .5-1 .5-2.5.5-2.5.5-1.5.5-1.5 1-1.5 1-1.5-.5-1-.5-1-9.5 15.5-9.5 15.5.5 1.5.5 1.5" style="fill:#9c290b;stroke:#9c290b" />
        <path d="m302 822l2 1v-.5-.5l-.5-.5-.5-.5-3-2.5-3-2.5 3.5-3.5 3.5-3.5v-3.5-3.5-1-1l-1.5 2.5-1.5 2.5v1.5 1.5l-1 1-1 1-2 .5-2 .5-1.5.5-1.5.5-2 .5-2 .5-1 .5-1 .5-1 2-1 2 .5 1.5.5 1.5 1.5.5 1.5.5h2.5 2.5l1.5-.5 1.5-.5 1.5.5 1.5.5h1.5 1.5" style="fill:#bcb8ac;stroke:#bcb8ac" />
        <path d="m254 821l26-5v.5.5l1-2 1-2 1-1 1-1 .5-1 .5-1v-.5-.5l1-1.5 1-1.5 1.5-.5 1.5-.5 2-.5 2-.5 1-1 1-1 1.5-1 1.5-1 .5-1 .5-1 2-1.5 2-1.5v-1.5-1.5-2-2-2.5-2.5-2-2-2.5-2.5-2-2-2-2l-1.5-.5-1.5-.5h-2.5-2.5-2-2-2.5-2.5-2-2-2.5-2.5l-1.5.5-1.5.5-1.5-.5-1.5-.5-12.5-2.5-12.5-2.5-3-9.5-3-9.5.5-13 .5-13-5.5-9-5.5-9-3.5-4-3.5-4-2-11.5-2-11.5-1-13.5-1-13.5-3-.5-3-.5-4 10.5-4 10.5-6 9.5-6 9.5-2.5-12-2.5-12 1-11.5 1-11.5v-13.5-13.5l.5-14 .5-14-3.5-8-3.5-8-.5-9-.5-9v-14.5-14.5l-2-12.5-2-12.5-2-3.5-2-3.5-2 13.5-2 13.5-2 13.5-2 13.5-1.5 14-1.5 14-2.5 13-2.5 13-1.5 13-1.5 13-4 9.5-4 9.5.5-26.5.5-26.5-.5-.5-.5-.5v-1.5-1.5-1.5-1.5l.5-2.5.5-2.5.5-2 .5-2v-1.5-1.5-2-2-.5-.5-2-2-2-2l-.5-2-.5-2v-2-2-2-2l.5-1 .5-1 2-12 2-12 1-25.5 1-25.5-.5-2-.5-2v-2-2l-.5-.5-.5-.5-.5-1-.5-1-1 1-1 1-1 2-1 2h1 1l.5.5.5.5v1.5 1.5 2 2 2 2 1.5 1.5 14 14l-2 12-2 12-2.5 23.5-2.5 23.5v3 3 2 2l-.5 1.5-.5 1.5 1 12.5 1 12.5-2 14-2 14-2 14.5-2 14.5-2 20-2 20 2 14.5 2 14.5 4.5-4 4.5-4 1.5-14 1.5-14 1.5-12 1.5-12 2-12.5 2-12.5 2.5-12 2.5-12 1.5-13 1.5-13 2-13.5 2-13.5v-1.5-1.5l1-13 1-13 1.5-13 1.5-13 3.5 2 3.5 2-.5 13-.5 13-3.5 14.5-3.5 14.5-1.5 14.5-1.5 14.5 1.5 9 1.5 9 3-11.5 3-11.5v-1.5-1.5l.5-2 .5-2v-2.5-2.5l.5-1.5.5-1.5v-2-2-2.5-2.5l.5-1.5.5-1.5.5-2 .5-2 .5-1.5.5-1.5.5.5.5.5v1.5 1.5 2 2 2.5 2.5 2 2 25 25l-4.5 7-4.5 7-4 10.5-4 10.5-1 11.5-1 11.5 4.5-2 4.5-2 5 5.5 5 5.5-1.5 12-1.5 12 6 2.5 6 2.5 3.5-10 3.5-10 5.5-7 5.5-7 .5 12 .5 12-.5 14-.5 14-1 12.5-1 12.5 6-.5 6-.5 3-11.5 3-11.5 5.5 7 5.5 7 4 8.5 4 8.5 7-1.5 7-1.5-.5 5-.5 5-3.5 9-3.5 9 2 10.5 2 10.5" style="fill:#a34d46;stroke:#a34d46" />
        <path d="m303 821l1 1v-3-3-2.5-2.5-1-1l-3.5 3.5-3.5 3.5 3 2.5 3 2.5" style="fill:#d5d1c3;stroke:#d5d1c3" />
        <path d="m286 813v1l1-.5 1-.5 2-.5 2-.5 1.5-.5 1.5-.5 2-.5 2-.5 1-1 1-1v-1.5-1.5h-.5-.5l-1 1.5-1 1.5-1.5.5-1.5.5h-1-1l-.5.5-.5.5-.5.5-.5.5-1 .5-1 .5-1.5.5-1.5.5" style="fill:#a099a1;stroke:#a099a1" />
        <path d="m0 811v1l12.5-9 12.5-9 9.5-6 9.5-6 9-6.5 9-6.5 9-5.5 9-5.5 9-5.5 9-5.5 11-4.5 11-4.5.5-1 .5-1h-.5-.5l-11.5 4-11.5 4-9.5 6-9.5 6-10.5 5.5-10.5 5.5-8.5 7-8.5 7-9 6.5-9 6.5-11 6.5-11 6.5v2 2" style="fill:#3d372b;stroke:#3d372b" />
        <path d="m285 808v1l1-.5 1-.5.5-.5.5-.5h1 1l.5-.5.5-.5h2 2l1-.5 1-.5.5-.5.5-.5 1-1.5 1-1.5v-2-2l-.5 1-.5 1-1.5 1-1.5 1-1 1-1 1-2 .5-2 .5-1.5.5-1.5.5-1 1.5-1 1.5" style="fill:#7e5d55;stroke:#7e5d55" />
        <path d="m0 806v1l11-6.5 11-6.5 9-6.5 9-6.5 8.5-7 8.5-7 10.5-5.5 10.5-5.5 9.5-6 9.5-6 11.5-4 11.5-4v-.5-.5l2.5-13 2.5-13 2-13.5 2-13.5-1-12.5-1-12.5 1-13.5 1-13.5 1-14.5 1-14.5 3.5-12 3.5-12-2-13.5-2-13.5-2-19.5-2-19.5-6 9-6 9-11.5 11.5-11.5 11.5-11.5-3.5-11.5-3.5 2.5-12 2.5-12 6-9.5 6-9.5 9.5-6 9.5-6 7.5-8 7.5-8-3-8.5-3-8.5-14.5-1-14.5-1-15.5-.5-15.5-.5-14-.5-14-.5-14.5-1-14.5-1v15 15 15.5 15.5 15.5 15.5 15.5 15.5 15.5 15.5 15.5 15.5 15.5 15.5 15.5 15.5 15.5 15.5 15.5 15.5 15.5 15.5 7.5 7.5" style="fill:#331b10;stroke:#331b10" />
        <path d="m300 804v1h.5.5l1.5-2.5 1.5-2.5v-1.5-1.5-1.5-1.5l-2 1.5-2 1.5v2 2 1.5 1.5" style="fill:#928e81;stroke:#928e81" />
        <path d="m17 802l3 1v-1-1l1 .5 1 .5.5-.5.5-.5 1-1 1-1 1-.5 1-.5-.5-.5-.5-.5h1 1 .5.5v-.5-.5l1-.5 1-.5 1.5-.5 1.5-.5.5-.5.5-.5.5-.5.5-.5h1 1l.5-1 .5-1h1 1l-.5-.5-.5-.5.5-.5.5-.5h.5.5l.5-.5.5-.5.5-.5.5-.5h1 1 1 1l14.5-9.5 14.5-9.5 5.5-3 5.5-3h7 7l7.5-8.5 7.5-8.5.5-1.5.5-1.5-13.5 6.5-13.5 6.5-10 5.5-10 5.5-9.5 6-9.5 6-9 6-9 6-8.5 6.5-8.5 6.5" style="fill:#625a63;stroke:#625a63" />
        <path d="m29 796v1l1-.5 1-.5 1.5-.5 1.5-.5 1.5-1 1.5-1 1.5-.5 1.5-.5 1.5-1 1.5-1 1-1 1-1 1.5-1 1.5-1h-1-1-1-1l-.5.5-.5.5-.5.5-.5.5h-.5-.5l-.5.5-.5.5.5.5.5.5h-1-1l-.5 1-.5 1h-1-1l-.5.5-.5.5-.5.5-.5.5-1.5.5-1.5.5-1 .5-1 .5" style="fill:#7e5d55;stroke:#7e5d55" />
        <path d="m93 775l3 1 1.5-.5 1.5-.5 1.5-1 1.5-1-1.5-.5-1.5-.5-2-.5-2-.5-1 1-1 1v1 1" style="fill:#625a63;stroke:#625a63" />
        <path d="m122 775l1 1 .5-3 .5-3-.5-.5-.5-.5-.5-1-.5-1v-1.5-1.5-1-1-1.5-1.5l-.5-1-.5-1-1 1-1 1v1 1 1 1 1 1 2 2 1.5 1.5l.5 1.5.5 1.5h1 1" style="fill:#7e5d55;stroke:#7e5d55" />
        <path d="m123 769l1 1 1-1 1-1v-1.5-1.5l-.5-.5-.5-.5-.5-1-.5-1v-1.5-1.5l.5-2 .5-2-.5-1.5-.5-1.5.5-1 .5-1-.5-.5-.5-.5-1 1-1 1-.5 1.5-.5 1.5v1.5 1.5l.5 1 .5 1v1.5 1.5 1 1 1.5 1.5l.5 1 .5 1" style="fill:#7a3328;stroke:#7a3328" />
        <path d="m125 764l1 1 .5-2.5.5-2.5v-2.5-2.5-2-2l-1-.5-1-.5-.5 1-.5 1 .5 1.5.5 1.5-.5 2-.5 2v1.5 1.5l.5 1 .5 1" style="fill:#9c290b;stroke:#9c290b" />
        <path d="m272 764l3 1 1.5-.5 1.5-.5h2.5 2.5 2 2 2.5 2.5 2 2 2.5 2.5l1.5.5 1.5.5v-1-1l-.5-.5-.5-.5h-13-13l-13.5-2-13.5-2-3.5-11-3.5-11 3.5-12.5 3.5-12.5-3.5-10-3.5-10v-13.5-13.5l-7.5-5-7.5-5-1.5-11-1.5-11 1.5-14 1.5-14h-1.5-1.5l-1.5-.5-1.5-.5-1-.5-1-.5-.5-.5-.5-.5-1-1-1-1-6-2-6-2-6.5-5-6.5-5 1.5-13 1.5-13-.5-14-.5-14 .5-21 .5-21-1.5.5-1.5.5-1-1.5-1-1.5-4.5 4.5-4.5 4.5v-13-13l1-13.5 1-13.5 2.5-13 2.5-13 1.5-14 1.5-14 .5-15.5.5-15.5-3 22.5-3 22.5v3.5 3.5l-.5 1.5-.5 1.5v2.5 2.5l-.5 1.5-.5 1.5-.5 1.5-.5 1.5-.5 2-.5 2-.5.5-.5.5v-2-2-1.5-1.5l.5-1.5.5-1.5.5-2 .5-2v-2-2l.5-2.5.5-2.5-1-.5-1-.5.5-1.5.5-1.5.5-2 .5-2v-2-2l.5-2 .5-2v-2-2-2.5-2.5l.5-1.5.5-1.5v-2-2-2.5-2.5-1.5-1.5l-2 13.5-2 13.5-3 11.5-3 11.5-2.5 19.5-2.5 19.5.5 2 .5 2v1 1 1 1 1 1l-.5 1-.5 1v1 1l-.5.5-.5.5-1 .5-1 .5-1.5 12.5-1.5 12.5-3.5 22.5-3.5 22.5 1 1 1 1v1 1 1 1 1.5 1.5 1 1l-.5.5-.5.5-1 .5-1 .5v2 2l-1 1-1 1-1 1.5-1 1.5-1 1-1 1-1-.5-1-.5-.5 2-.5 2 1 .5 1 .5.5.5.5.5v1 1l-.5 1-.5 1-.5.5-.5.5v1 1l-.5 1.5-.5 1.5-.5 26.5-.5 26.5 4-9.5 4-9.5 1.5-13 1.5-13 2.5-13 2.5-13 1.5-14 1.5-14 2-13.5 2-13.5 2-13.5 2-13.5 2 3.5 2 3.5 2 12.5 2 12.5v14.5 14.5l.5 9 .5 9 3.5 8 3.5 8-.5 14-.5 14v13.5 13.5l-1 11.5-1 11.5 2.5 12 2.5 12 6-9.5 6-9.5 4-10.5 4-10.5 3 .5 3 .5 1 13.5 1 13.5 2 11.5 2 11.5 3.5 4 3.5 4 5.5 9 5.5 9-.5 13-.5 13 3 9.5 3 9.5 12.5 2.5 12.5 2.5" style="fill:#7e5d55;stroke:#7e5d55" />
        <path d="m303 762l1 1v-16.5-16.5-15.5-15.5-13.5-13.5l-1-1-1-1-1 .5-1 .5-.5-.5-.5-.5h-1-1l-.5.5-.5.5-.5.5-.5.5h-1-1l-1 .5-1 .5-.5.5-.5.5-.5.5-.5.5-.5.5-.5.5h-1.5-1.5-1-1l-.5.5-.5.5h-1-1l-.5 1-.5 1-.5.5-.5.5v1 1h-1-1l.5-1 .5-1v-1-1l.5-.5.5-.5.5-.5.5-.5.5-.5.5-.5 1-.5 1-.5.5-.5.5-.5.5-.5.5-.5h1 1l1-.5 1-.5.5-.5.5-.5h1 1l.5-.5.5-.5h1 1l1-.5 1-.5.5-.5.5-.5.5-.5.5-.5.5-.5.5-.5 1 .5 1 .5h1 1l.5-1 .5-1v-15-15-15.5-15.5-15.5-15.5-15.5-15.5-15.5-15.5-12-12l-1 .5-1 .5-.5 1.5-.5 1.5h-1.5-1.5l.5-1.5.5-1.5v-2.5-2.5l-.5-1.5-.5-1.5-.5-2-.5-2v-2-2l.5-1.5.5-1.5.5 2 .5 2 .5 1.5.5 1.5 1 1.5 1 1.5 1 2 1 2v-17-17-15.5-15.5-15.5-15.5-12.5-12.5h-2-2l-1.5.5-1.5.5-1 .5-1 .5-5.5-8.5-5.5-8.5-4.5-11-4.5-11-2.5-13-2.5-13v-11-11l9-6 9-6h-1.5-1.5l-8.5 5.5-8.5 5.5-10.5 3-10.5 3-10-2.5-10-2.5-1.5 4-1.5 4 6 8.5 6 8.5 3.5 10 3.5 10 5.5 7 5.5 7 1.5 11 1.5 11 5-5 5-5-3.5 11-3.5 11 2.5 11 2.5 11-1 12.5-1 12.5 1.5 12 1.5 12 6.5 9 6.5 9 6 9.5 6 9.5-4.5 5-4.5 5-1.5 7-1.5 7 4.5 6 4.5 6-8.5-2-8.5-2 3 6.5 3 6.5.5 10 .5 10-8.5 7.5-8.5 7.5-6-.5-6-.5-4-9.5-4-9.5-7.5 14.5-7.5 14.5-1.5-12-1.5-12 5-7.5 5-7.5-5-5.5-5-5.5-4 .5-4 .5-2.5-13-2.5-13v-14.5-14.5l1.5-13 1.5-13 1-13.5 1-13.5v-14.5-14.5l-2-9.5-2-9.5-2 13.5-2 13.5-1 13.5-1 13.5-2.5 12-2.5 12-1 11.5-1 11.5-6.5-5-6.5-5 4.5-11 4.5-11 2-12.5 2-12.5-2-13.5-2-13.5v-13.5-13.5l-3-12.5-3-12.5-2 14.5-2 14.5.5 1 .5 1-.5 1-.5 1-2.5 13.5-2.5 13.5-4 3.5-4 3.5-3 9.5-3 9.5-.5-13-.5-13v-11.5-11.5l-2.5-12-2.5-12-8.5 20-8.5 20-3 13-3 13-3.5 12-3.5 12-.5 15-.5 15 5.5 7 5.5 7 1-11.5 1-11.5 7 4.5 7 4.5-1 25.5-1 25.5-2 12-2 12 .5 2.5.5 2.5v2 2 2 2 2.5 2.5l.5 1.5.5 1.5-1 1-1 1v2 2 1.5 1.5l1 .5 1 .5 1-1 1-1 1-1.5 1-1.5 1-1 1-1v-2-2-.5-.5l-.5-1.5-.5-1.5-.5-1.5-.5-1.5v-1-1l1-.5 1-.5.5-1.5.5-1.5 3.5-22.5 3.5-22.5 1.5-12.5 1.5-12.5v-.5-.5l.5-1.5.5-1.5v-2-2-2.5-2.5l1-1.5 1-1.5 2.5-19.5 2.5-19.5 3-11.5 3-11.5 2-13.5 2-13.5v-2-2-.5-.5-1.5-1.5-2-2l.5-2 .5-2v-2-2l.5-2 .5-2 .5-1.5.5-1.5 1 1.5 1 1.5v2 2l.5 2 .5 2v3 3 1 1l-.5 15.5-.5 15.5-1.5 14-1.5 14-2.5 13-2.5 13-1 13.5-1 13.5v13 13l4.5-4.5 4.5-4.5-.5-2-.5-2v-2-2-1.5-1.5-2-2h1 1l1 1.5 1 1.5-.5 1.5-.5 1.5 1 1.5 1 1.5 1 1 1 1-.5 3-.5 3-.5 21-.5 21 .5 14 .5 14-1.5 13-1.5 13 6.5 5 6.5 5 6 2 6 2 .5-1 .5-1v-1.5-1.5l.5-2 .5-2 .5-1.5.5-1.5 1.5 1 1.5 1 .5 1.5.5 1.5v2.5 2.5l1.5.5 1.5.5h1 1l-.5 3-.5 3-1.5 14-1.5 14 1.5 11 1.5 11 7.5 5 7.5 5v13.5 13.5l3.5 10 3.5 10-3.5 12.5-3.5 12.5 3.5 11 3.5 11 13.5 2 13.5 2h13 13" style="fill:#7e766a;stroke:#7e766a" />
        <path d="m120 753l1 1 .5-1.5.5-1.5 1-1 1-1 .5-1 .5-1v-1.5-1.5h-1-1v-1.5-1.5l-1-1-1-1-1.5 1-1.5 1-.5 1.5-.5 1.5 1 .5 1 .5v2.5 2.5l.5 1.5.5 1.5" style="fill:#7e5d55;stroke:#7e5d55" />
        <path d="m123 744h2l.5-1.5.5-1.5v-2-2l-.5-.5-.5-.5-.5-1-.5-1-1.5 1-1.5 1-.5 1-.5 1 .5.5.5.5 1 1 1 1v1.5 1.5" style="fill:#7a3328;stroke:#7a3328" />
        <path d="m125 736l1 1v-1.5-1.5l.5-1.5.5-1.5.5-2 .5-2v-2-2-2-2l.5-2 .5-2 .5-1.5.5-1.5v-1.5-1.5l-1 1.5-1 1.5-.5 2-.5 2v1 1 1 1l-.5.5-.5.5v1.5 1.5l-.5.5-.5.5v1 1 1 1l-.5 1-.5 1v1.5 1.5l.5 1 .5 1" style="fill:#9c290b;stroke:#9c290b" />
        <path d="m120 735v1h.5.5l1.5-1 1.5-1v-1.5-1.5l.5-1 .5-1v-1-1-1-1l.5-.5.5-.5v-1.5-1.5l.5-.5.5-.5v-1-1-1-1l.5-2 .5-2v-.5-.5l1.5-14 1.5-14-1-19-1-19 1.5-14 1.5-14 3.5-16 3.5-16v-.5-.5l-.5-14-.5-14-4-23-4-23v.5.5l2 19.5 2 19.5 2 13.5 2 13.5-3.5 12-3.5 12-1 14.5-1 14.5-1 13.5-1 13.5 1 12.5 1 12.5-2 13.5-2 13.5-2.5 13-2.5 13" style="fill:#78200c;stroke:#78200c" />
        <path d="m128 711v1l1-1.5 1-1.5.5-1.5.5-1.5v-1.5-1.5l2-20 2-20-.5-.5-.5-.5-.5-1.5-.5-1.5v-1.5-1.5l-.5-.5-.5-.5-1-2-1-2v-2-2l-.5-1-.5-1 1 19 1 19-1.5 14-1.5 14" style="fill:#7a3328;stroke:#7a3328" />
        <g style="fill:#625a63;stroke:#625a63">
            <path d="m253 708h2l1-1 1-1 1.5-1 1.5-1 .5-1.5.5-1.5-.5-1-.5-1-1 1-1 1-1.5 1-1.5 1-1 1-1 1-.5 1.5-.5 1.5h.5.5" />
            <path d="m276 682h2v-1-1l.5-.5.5-.5.5-1 .5-1h1 1l.5-.5.5-.5h1 1 1.5 1.5l.5-.5.5-.5.5-.5.5-.5.5-.5.5-.5 1-.5 1-.5h1 1l.5-.5.5-.5.5-.5.5-.5h1 1l.5.5.5.5 1-.5 1-.5 1 1 1 1v-3.5-3.5-.5-.5l-.5 1-.5 1h-1-1l-1-.5-1-.5-.5.5-.5.5-.5.5-.5.5-.5.5-.5.5-1 .5-1 .5h-1-1l-.5.5-.5.5h-1-1l-.5.5-.5.5-1 .5-1 .5h-1-1l-.5.5-.5.5-.5.5-.5.5-1 .5-1 .5-.5.5-.5.5-.5.5-.5.5-.5.5-.5.5v1 1l-.5 1-.5 1" />
        </g>
        <path d="m93 671l22-5 2-7.5 2-7.5-4-4.5-4-4.5-8-2.5-8-2.5-5-.5-5-.5-9.5-4-9.5-4-3.5 3-3.5 3 3 8.5 3 8.5 9 6.5 9 6.5 5 3.5 5 3.5" style="fill:#3d372b;stroke:#3d372b" />
        <path d="m134 662l1 1 2-14.5 2-14.5 2-14 2-14-1-12.5-1-12.5v1 1l-.5 1-.5 1-2 13.5-2 13.5-1.5 22-1.5 22v1.5 1.5l.5 1.5.5 1.5" style="fill:#b2382b;stroke:#b2382b" />
        <g style="fill:#9c290b;stroke:#9c290b">
            <path d="m132 655l1 1 1.5-22 1.5-22 2-13.5 2-13.5h-.5-.5l-3.5 16-3.5 16-1.5 14-1.5 14 .5 1 .5 1v2 2l1 2 1 2" />
            <path d="m174 633l5-26 1-12 1-12h-.5-.5l-.5 1-.5 1-.5.5-.5.5h-.5-.5v2.5 2.5l-.5 2-.5 2v1.5 1.5 2 2l-.5 1.5-.5 1.5-.5 2-.5 2v2 2l-.5 2-.5 2-.5 1.5-.5 1.5v2 2 2.5 2.5l.5 1 .5 1 .5 1 .5 1" />
        </g>
        <g style="fill:#928e81;stroke:#928e81">
            <path d="m261 632l12-17-4.5-3-4.5-3-2 10.5-2 10.5.5 1 .5 1" />
            <path d="m240 627l6-23-.5-8-.5-8-3 12.5-3 12.5.5 7 .5 7" />
        </g>
        <path d="m24 624l20-9-2-5.5-2-5.5-9-3.5-9-3.5-5.5-4-5.5-4 5 5.5 5 5.5h-7.5-7.5l4 7.5 4 7.5 5 4.5 5 4.5" style="fill:#3d372b;stroke:#3d372b" />
        <path d="m25 623h2l1.5.5 1.5.5 2-.5 2-.5.5-1.5.5-1.5.5-2 .5-2-1-1-1-1-1.5 1-1.5 1-1 1-1 1-1.5.5-1.5.5-1 1.5-1 1.5.5.5.5.5" style="fill:#331b10;stroke:#331b10" />
        <path d="m222 603l3 1h1.5 1.5l.5-3 .5-3h-1-1l-1.5-.5-1.5-.5v-2.5-2.5l-.5-1.5-.5-1.5-1.5-1-1.5-1-.5 1.5-.5 1.5-.5 2-.5 2v1.5 1.5l-.5 1-.5 1 1 1 1 1 .5.5.5.5 1 .5 1 .5" style="fill:#625a63;stroke:#625a63" />
        <path d="m265 595h2l1-1 1-1v-2.5-2.5l-.5-1.5-.5-1.5-1.5 1-1.5 1-.5 1.5-.5 1.5v1.5 1.5l.5 1 .5 1" style="fill:#928e81;stroke:#928e81" />
        <path d="m199 589l1-1 1-1 1-1 .5-2 .5-2-1.5-.5-1.5-.5-1 1.5-1 1.5v2 2l.5.5.5.5" style="fill:#625a63;stroke:#625a63" />
        <g style="fill:#7a3328;stroke:#7a3328">
            <path d="m178 586l1-1 .5-1 .5-1h.5.5l.5-1 .5-1v-2-2-2.5-2.5-2-2-1.5-1.5l-.5-.5-.5-.5-.5 1.5-.5 1.5-.5 2-.5 2-.5 1.5-.5 1.5v2.5 2.5 2 2l-.5 1.5-.5 1.5h.5.5" />
            <path d="m139 584v1h.5.5l.5-1 .5-1v-1-1l.5-1.5.5-1.5v-2-2-3-3l-.5-.5-.5-.5-3.5-20.5-3.5-20.5v-.5-.5-1.5-1.5l-.5-2-.5-2 .5-1.5.5-1.5v-2.5-2.5-1-1h-2-2v1 1l4 23 4 23 .5 14 .5 14" />
        </g>
        <path d="m147 579l1 1 .5-1.5.5-1.5v-1-1l.5-.5.5-.5.5-1 .5-1v-1-1l-.5-.5-.5-.5-1-.5-1-.5-.5 2.5-.5 2.5v1.5 1.5 1.5 1.5" style="fill:#7e766a;stroke:#7e766a" />
        <path d="m167 579l1-1 .5-.5.5-.5.5-1.5.5-1.5v-.5-.5l2.5-13 2.5-13-2.5-3-2.5-3-2 13-2 13v1.5 1.5 1.5 1.5 2 2l.5 1 .5 1" style="fill:#9c290b;stroke:#9c290b" />
        <path d="m209 577h2v-2-2-2.5-2.5l-.5-1.5-.5-1.5h-1.5-1.5l-1.5.5-1.5.5.5 2 .5 2-.5 1.5-.5 1.5.5 1.5.5 1.5 2 .5 2 .5" style="fill:#625a63;stroke:#625a63" />
        <g style="fill:#b2382b;stroke:#b2382b">
            <path d="m170 573v1l3.5-14.5 3.5-14.5.5-13 .5-13-3.5-2-3.5-2-1.5 13-1.5 13-1 13-1 13 2-13 2-13 2.5 3 2.5 3-2.5 13-2.5 13" />
            <path d="m141 567l1 1 2.5-23.5 2.5-23.5 2-12 2-12v-14-14l-3 20.5-3 20.5-.5-2-.5-2-.5-2-.5-2v-3-3l-.5 1-.5 1-.5 1.5-.5 1.5v2 2l-1 1-1 1-1 1.5-1 1.5-1 1-1 1 1 1.5 1 1.5-.5 1.5-.5 1.5.5 2 .5 2-1 1-1 1-.5 1-.5 1 3.5 20.5 3.5 20.5" />
        </g>
        <path d="m226 566l15-29 4 9.5 4 9.5 6 .5 6 .5 8.5-7.5 8.5-7.5-.5-10-.5-10-3-6.5-3-6.5 8.5 2 8.5 2-4.5-6-4.5-6 1.5-7 1.5-7 4.5-5 4.5-5-6-9.5-6-9.5-6.5-9-6.5-9-1.5-12-1.5-12 1-12.5 1-12.5-2.5-11-2.5-11 3.5-11 3.5-11-5 5-5 5-1.5-11-1.5-11-5.5-7-5.5-7-3.5-10-3.5-10-6-8.5-6-8.5 1.5-4 1.5-4 10 2.5 10 2.5 10.5-3 10.5-3 8.5-5.5 8.5-5.5-2-.5-2-.5v1 1l-1 .5-1 .5-1 1-1 1-1.5 1-1.5 1-1 1-1 1-1.5.5-1.5.5-1.5 1-1.5 1-1 1-1 1h-2-2l-1.5.5-1.5.5-1.5.5-1.5.5-1.5-.5-1.5-.5h-2.5-2.5l-.5-.5-.5-.5h-1-1-1-1l-1-.5-1-.5-2-1-2-1-1.5-.5-1.5-.5-.5-.5-.5-.5-1-.5-1-.5h-2-2-2.5-2.5l-1.5-.5-1.5-.5-1-.5-1-.5-.5-.5-.5-.5-1-.5-1-.5-1-.5-1-.5h-1-1-1-1l-1-.5-1-.5-1-1-1-1 .5 2 .5 2 1.5.5 1.5.5h1 1l1 .5 1 .5-.5 1.5-.5 1.5h-1-1l-.5 1-.5 1-2-.5-2-.5-1-.5-1-.5-1.5-1-1.5-1-1-1-1-1-.5-1-.5-1-1.5-1-1.5-1 .5 1.5.5 1.5-.5.5-.5.5-1-.5-1-.5h-1-1l-.5 1.5-.5 1.5-.5.5-.5.5-1 .5-1 .5-1.5 1-1.5 1 5 2 5 2 7 6.5 7 6.5 3.5 11 3.5 11 6 9.5 6 9.5v14.5 14.5 12.5 12.5l-2.5 23.5-2.5 23.5-.5-13-.5-13v-13-13-14.5-14.5l-5.5-10-5.5-10-3.5-12-3.5-12-7-5.5-7-5.5-4.5-9.5-4.5-9.5-1 1.5-1 1.5-.5 1.5-.5 1.5v1 1 1.5 1.5l-.5 1.5-.5 1.5-.5 1.5-.5 1.5 1.5-.5 1.5-.5.5 1 .5 1v1 1 1 1l-.5.5-.5.5v1.5 1.5l-1 1-1 1-.5.5-.5.5-.5.5-.5.5v1 1 1.5 1.5 1 1l-.5.5-.5.5v1 1 1.5 1.5l-.5.5-.5.5-.5.5-.5.5v1 1h-1-1l-.5-1-.5-1 .5-2.5.5-2.5-.5 1-.5 1-.5 1.5-.5 1.5-.5 1.5-.5 1.5-.5 2-.5 2-.5 1.5-.5 1.5-.5 2-.5 2v1 1l2.5 12 2.5 12v11.5 11.5l.5 13 .5 13 3-9.5 3-9.5 4-3.5 4-3.5 2.5-13.5 2.5-13.5-.5 1-.5 1-.5 2-.5 2v2 2l-1 .5-1 .5 2-7.5 2-7.5 2-14.5 2-14.5 3 12.5 3 12.5v13.5 13.5l2 13.5 2 13.5-2 12.5-2 12.5-4.5 11-4.5 11 6.5 5 6.5 5 1-11.5 1-11.5 2.5-12 2.5-12 1-13.5 1-13.5 2-13.5 2-13.5 2 9.5 2 9.5v14.5 14.5l-1 13.5-1 13.5-1.5 13-1.5 13v14.5 14.5l2.5 13 2.5 13 4-.5 4-.5 5 5.5 5 5.5-5 7.5-5 7.5 1.5 12 1.5 12" style="fill:#928e81;stroke:#928e81" />
        <path d="m149 556v1l1-1 1-1-.5-1.5-.5-1.5v-2.5-2.5-2-2-2-2l-.5-2.5-.5-2.5-.5 1-.5 1v2 2 2 2l.5 2 .5 2v2 2 2 2" style="fill:#7e5d55;stroke:#7e5d55" />
        <path d="m157 553v1l1-.5 1-.5.5-.5.5-.5v-1-1-1.5-1.5-1-1-1-1l-1-1-1-1-.5 1.5-.5 1.5-1 .5-1 .5v1 1l.5 1.5.5 1.5.5 1.5.5 1.5" style="fill:#625a63;stroke:#625a63" />
        <path d="m95 552l23-23 6-9 6-9v-.5-.5-1-1h-1-1l.5-1 .5-1h1 1l.5-1 .5-1v-.5-.5l.5-1 .5-1v-1-1-1.5-1.5-2-2-2.5-2.5l-.5-1.5-.5-1.5v-2-2l.5-2 .5-2 .5-1.5.5-1.5v2.5 2.5l.5.5.5.5.5-3 .5-3-6.5-16-6.5-16v-.5-.5l-.5-1.5-.5-1.5v-1-1-1-1l.5-.5.5-.5.5-1 .5-1v-1-1-1-1l.5-.5.5-.5v-1.5-1.5l.5-1.5.5-1.5v-.5-.5-1.5-1.5-1-1-1.5-1.5l.5-1.5.5-1.5 1-1.5 1-1.5v-1-1l.5-2 .5-2 .5-1.5.5-1.5 1.5-1 1.5-1 .5-.5.5-.5 3.5-11.5 3.5-11.5 7.5-16 7.5-16v-.5-.5l3-12.5 3-12.5 3-12.5 3-12.5 7.5-10 7.5-10-1.5 1-1.5 1-2 .5-2 .5-1.5-.5-1.5-.5.5-1 .5-1 1-1 1-1v-1-1l.5-.5.5-.5.5-.5.5-.5.5-1 .5-1h1 1l.5.5.5.5v1 1l.5 1 .5 1v1.5 1.5l.5-1 .5-1v-1.5-1.5l-.5-2-.5-2-1-1-1-1v-2.5-2.5l-.5-1.5-.5-1.5-.5-2-.5-2-1-2-1-2v2 2l.5.5.5.5h-1-1l.5-13 .5-13 6-2.5 6-2.5 1 13 1 13 1-2 1-2 1-1 1-1 1 1.5 1 1.5 1 1 1 1v2 2l-1.5 1-1.5 1-1 1-1 1-1.5 1-1.5 1-1.5-.5-1.5-.5.5-2 .5-2 9.5 7.5 9.5 7.5h-1.5-1.5-1.5-1.5-1-1l-.5.5-.5.5h-1-1l11-2.5 11-2.5 1-.5 1-.5h2 2l.5 2 .5 2 .5-2 .5-2 1-1 1-1 2-.5 2-.5-.5 1.5-.5 1.5-.5 2-.5 2-.5 1-.5 1 10-5.5 10-5.5 11.5 4 11.5 4-6.5-5.5-6.5-5.5 4.5-10 4.5-10-4.5-8-4.5-8-8.5-1-8.5-1-9-3.5-9-3.5-6 3-6 3-9.5 3-9.5 3-4.5-4-4.5-4-5.5-10-5.5-10 2-13.5 2-13.5-.5-15-.5-15 .5-12 .5-12 .5-13 .5-13-.5-14-.5-14-1-12.5-1-12.5-.5-12-.5-12h-15-15-15.5-15.5-15.5-15.5-15.5-15.5-15.5-15.5-11-11v4.5 4.5 15.5 15.5 15.5 15.5 15.5 15.5 16 16 15.5 15.5 15.5 15.5 15.5 15.5 15.5 15.5 15.5 15.5 15.5 15.5 15.5 15.5 15.5 15.5 15.5 15.5 15.5 15.5 3.5 3.5l14.5 1 14.5 1 14 .5 14 .5 15.5.5 15.5.5 14.5 1 14.5 1 3 8.5 3 8.5-7.5 8-7.5 8-9.5 6-9.5 6-6 9.5-6 9.5-2.5 12-2.5 12 11.5 3.5 11.5 3.5" style="fill:#3d372b;stroke:#3d372b" />
        <path d="m95 548l3 1 1.5-.5 1.5-.5v-.5-.5h-2-2l-1.5-1.5-1.5-1.5-1 1-1 1-2-.5-2-.5.5-1.5.5-1.5v-2-2l-1-1.5-1-1.5-.5-1.5-.5-1.5-1.5 1-1.5 1-1 1-1 1-.5 2-.5 2 1-1.5 1-1.5h1.5 1.5l1 1 1 1-.5 1.5-.5 1.5.5 2 .5 2 1 1 1 1h2.5 2.5.5.5" style="fill:#bcb8ac;stroke:#bcb8ac" />
        <path d="m97 547h4l1-2 1-2h-1-1v-10-10l-10 1-10 1-1 1-1 1v2 2l-1 1.5-1 1.5-.5 1.5-.5 1.5-.5 1.5-.5 1.5 1.5 1 1.5 1 1-1 1-1 .5-2 .5-2 1-1 1-1 1.5-1 1.5-1 .5 1.5.5 1.5 1 1.5 1 1.5v2 2l-.5 1.5-.5 1.5 2 .5 2 .5 1-1 1-1 1.5 1.5 1.5 1.5" style="fill:#d5d1c3;stroke:#d5d1c3" />
        <path d="m101 543h2l.5-1.5.5-1.5 1-1.5 1-1.5 1-1 1-1 .5-2 .5-2 1-1 1-1 .5-1 .5-1v-.5-.5l-4.5-10.5-4.5-10.5-1-2.5-1-2.5-1.5 1-1.5 1-1 1-1 1-1.5 1-1.5 1-1 1-1 1-1 1.5-1 1.5-.5 1.5-.5 1.5-.5 2-.5 2-1 1-1 1-1 1-1 1-1 1.5-1 1.5 10-1 10-1v10 10" style="fill:#ebe8db;stroke:#ebe8db" />
        <path d="m112 528l8-11 5.5-10 5.5-10-.5-9-.5-9-3.5 11.5-3.5 11.5-5.5 12.5-5.5 12.5v.5.5" style="fill:#bcb8ac;stroke:#bcb8ac" />
        <path d="m112 526v1l5.5-12.5 5.5-12.5 3.5-11.5 3.5-11.5-6.5 5-6.5 5-8 5.5-8 5.5 1 2.5 1 2.5 4.5 10.5 4.5 10.5" style="fill:#d5d1c3;stroke:#d5d1c3" />
        <path d="m134 525v1l.5-1 .5-1 1-1 1-1-.5-2-.5-2 .5-1.5.5-1.5-1-1.5-1-1.5 1-1 1-1 1-1.5 1-1.5 1-1 1-1v-2-2l.5-1.5.5-1.5.5-1 .5-1v-1-1-.5-.5-2-2-2-2l-.5 1-.5 1-.5 1-.5 1-.5 2-.5 2v1.5 1.5l-.5.5-.5.5v1 1 1 1l-.5.5-.5.5-.5 1-.5 1-.5.5-.5.5-.5.5-.5.5-.5 1-.5 1v1 1 2.5 2.5l-.5 1.5-.5 1.5.5 2 .5 2v1.5 1.5" style="fill:#a34d46;stroke:#a34d46" />
        <path d="m145 510l6-41v-1.5-1.5h-2-2v-.5-.5l-.5 1-.5 1-.5 1-.5 1v2.5 2.5 1.5 1.5 2.5 2.5 2 2l.5.5.5.5-.5 1-.5 1-.5 1.5-.5 1.5-.5 1-.5 1v1 1 3 3l.5 2 .5 2 .5 2 .5 2" style="fill:#9c290b;stroke:#9c290b" />
        <path d="m249 509l1-1 .5-1.5.5-1.5 1-1.5 1-1.5.5-1.5.5-1.5-1-1.5-1-1.5-1 1-1 1-1 1.5-1 1.5v2 2 2 2h.5.5" style="fill:#7e766a;stroke:#7e766a" />
        <path d="m128 508h2 2 2l.5-1 .5-1 .5-.5.5-.5.5-.5.5-.5.5-1 .5-1 .5-.5.5-.5v-1-1-1-1l.5-.5.5-.5v-1.5-1.5h-1-1l-1-.5-1-.5-.5 1.5-.5 1.5v1 1l-.5 1-.5 1v2 2l-1 .5-1 .5-.5 1-.5 1h-1-1l-.5 1-.5 1" style="fill:#7e5d55;stroke:#7e5d55" />
        <path d="m132 503v1l1-.5 1-.5v-2-2l.5-1 .5-1v-1-1l.5-1.5.5-1.5 1 .5 1 .5h1 1l.5-2 .5-2v-.5-.5l-.5-2-.5-2-1-2-1-2-.5 1-.5 1-.5 1.5-.5 1.5h-1-1l-.5-1.5-.5-1.5-.5-1-.5-1v2 2l.5 1.5.5 1.5v2.5 2.5 2 2 1.5 1.5 1 1l-.5 1-.5 1" style="fill:#7e766a;stroke:#7e766a" />
        <path d="m143 493v1l.5-1 .5-1 .5-1.5.5-1.5.5-1 .5-1-.5-.5-.5-.5v-2-2-2.5-2.5l-1 1-1 1v3 3 2 2 2 2" style="fill:#7a3328;stroke:#7a3328" />
        <g style="fill:#625a63;stroke:#625a63">
            <path d="m192 490l3-1 .5-3 .5-3-1-1-1-1-1-1.5-1-1.5.5-1.5.5-1.5-1-1.5-1-1.5h-1-1v2 2 1.5 1.5 2 2l.5 2 .5 2 1 1.5 1 1.5" />
            <path d="m298 490h3l.5-1.5.5-1.5 1-.5 1-.5v-2-2l-1-2-1-2-1-1.5-1-1.5-.5-1.5-.5-1.5-.5-2-.5-2-.5 1.5-.5 1.5v2 2l.5 2 .5 2 .5 1.5.5 1.5v2.5 2.5l-.5 1.5-.5 1.5" />
        </g>
        <path d="m141 488v1l.5-1 .5-1 .5-1 .5-1v-3-3-.5-.5l-.5-1-.5-1v-1-1l.5-1 .5-1-.5-.5-.5-.5.5-.5.5-.5v-1-1l.5-1 .5-1v-1-1-1-1l.5-.5.5-.5.5-.5.5-.5.5-1.5.5-1.5.5-1.5.5-1.5 1-2 1-2 1-1 1-1 .5 1 .5 1 .5.5.5.5v2 2l.5 2 .5 2-7-4.5-7-4.5-1 11.5-1 11.5-5.5-7-5.5-7 .5-15 .5-15 3.5-12 3.5-12 3-13 3-13-.5 1.5-.5 1.5-1 1-1 1-1 1.5-1 1.5-.5 1.5-.5 1.5-.5 1.5-.5 1.5-.5 2-.5 2-.5 1.5-.5 1.5-.5 1.5-.5 1.5-1 1.5-1 1.5v1 1 1.5 1.5l-.5.5-.5.5-1 1.5-1 1.5v2 2 1.5 1.5 1 1l-.5.5-.5.5v1.5 1.5 1 1l-.5.5-.5.5v1 1l-.5 1-.5 1v1 1 1 1l-.5 1-.5 1 6.5 16 6.5 16 .5 1 .5 1 .5 1 .5 1v1.5 1.5l1 2 1 2 .5 2 .5 2" style="fill:#7e5d55;stroke:#7e5d55" />
        <path d="m134 485h2l.5-1.5.5-1.5.5-1 .5-1v-1.5-1.5l-.5-1-.5-1-.5-1-.5-1-.5 3-.5 3-.5-.5-.5-.5v-2.5-2.5l-.5 1.5-.5 1.5-.5 2-.5 2 .5 1 .5 1 .5 1.5.5 1.5" style="fill:#625a63;stroke:#625a63" />
        <path d="m143 478v1l1-1 1-1v-1.5-1.5-2.5-2.5l.5-1 .5-1 .5-1 .5-1v-1.5-1.5l.5-1 .5-1-.5-1.5-.5-1.5-.5 1.5-.5 1.5-.5.5-.5.5-.5.5-.5.5v1 1 1 1l-.5 1-.5 1v1 1l-.5.5-.5.5.5.5.5.5-.5 1-.5 1v1 1l.5 1 .5 1" style="fill:#a34d46;stroke:#a34d46" />
        <path d="m168 470v1l1-.5 1-.5.5-.5.5-.5v-1-1l.5-1 .5-1v-1-1-1-1-1-1l-.5-2-.5-2-1 1.5-1 1.5v2.5 2.5 2 2l-.5 1.5-.5 1.5" style="fill:#625a63;stroke:#625a63" />
        <path d="m147 466h4v-2-2-2-2-1.5-1.5l-.5-.5-.5-.5h-1-1l-.5 1.5-.5 1.5.5 1.5.5 1.5-.5 1-.5 1v1.5 1.5.5.5" style="fill:#7a3328;stroke:#7a3328" />
        <path d="m257 454h2l.5-1.5.5-1.5.5-2 .5-2-1-1-1-1-1 1.5-1 1.5v2 2 1 1" style="fill:#7e766a;stroke:#7e766a" />
        <path d="m123 440v1l.5-1 .5-1v-1-1-1-1l.5-1 .5-1v-1-1l.5-.5.5-.5v-1-1-1.5-1.5l.5-.5.5-.5v-1-1-1.5-1.5h-.5-.5l-.5 1.5-.5 1.5v1.5 1.5l-.5.5-.5.5v1 1 1 1l-.5 1-.5 1-.5.5-.5.5v1 1 1 1l.5 1.5.5 1.5" style="fill:#544f42;stroke:#544f42" />
        <path d="m218 433l5-47v-12.5-12.5-14.5-14.5l-6-9.5-6-9.5-3.5-11-3.5-11-7-6.5-7-6.5-5-2-5-2-.5 1-.5 1-1.5 1-1.5 1 4.5 9.5 4.5 9.5 7 5.5 7 5.5 3.5 12 3.5 12 5.5 10 5.5 10v14.5 14.5 13 13l.5 13 .5 13" style="fill:#a099a1;stroke:#a099a1" />
        <g style="fill:#7a3328;stroke:#7a3328">
            <path d="m181 429l1-1 .5-2 .5-2 .5-1.5.5-1.5.5-1.5.5-1.5v-2.5-2.5l.5-1.5.5-1.5v-3.5-3.5l-1 1.5-1 1.5-.5 2.5-.5 2.5v2 2l-.5 2-.5 2-.5 1.5-.5 1.5v1.5 1.5 2 2" />
            <path d="m126 418v1h.5.5v-2-2l1-1.5 1-1.5.5-.5.5-.5v-1.5-1.5-1-1l1-1.5 1-1.5.5-1.5.5-1.5.5-1.5.5-1.5.5-2 .5-2v-.5-.5l-.5.5-.5.5-1.5 1-1.5 1-.5 1.5-.5 1.5-.5 2-.5 2v1 1l-1 1.5-1 1.5-.5 1.5-.5 1.5v1.5 1.5 1 1 1.5 1.5" />
        </g>
        <path d="m152 416l9-20-2 5.5-2 5.5-1.5 1-1.5 1-1 3.5-1 3.5" style="fill:#625a63;stroke:#625a63" />
        <path d="m182 405l2 1 1-1.5 1-1.5 3-22.5 3-22.5v-1-1l-.5-1.5-.5-1.5v-1.5-1.5l-.5-1.5-.5-1.5-1 .5-1 .5-.5 1.5-.5 1.5v2.5 2.5 2 2l-.5 1-.5 1v2 2 1.5 1.5 2.5 2.5 2 2l-.5 1.5-.5 1.5v2.5 2.5 2 2l-.5 2-.5 2v2 2l-.5 2-.5 2-.5 1.5-.5 1.5" style="fill:#544f42;stroke:#544f42" />
        <path d="m149 403l4-21-1.5-10-1.5-10-2.5 12-2.5 12 2 8.5 2 8.5" style="fill:#928e81;stroke:#928e81" />
        <path d="m135 392v1l.5-1.5.5-1.5.5-1.5.5-1.5 1-1.5 1-1.5 1-1 1-1 .5-1.5.5-1.5v-.5-.5l7.5-20.5 7.5-20.5-7.5 16-7.5 16-3.5 11.5-3.5 11.5" style="fill:#544f42;stroke:#544f42" />
        <path d="m268 381l3 1 .5-1.5.5-1.5-.5-2-.5-2-1.5-.5-1.5-.5-1.5-1-1.5-1-.5 1.5-.5 1.5 1 1.5 1 1.5.5 1.5.5 1.5h.5.5" style="fill:#928e81;stroke:#928e81" />
        <path d="m142 378v1l8.5-20 8.5-20v-1-1-2-2-1-1h-.5-.5v1 1 1 1l-.5 1-.5 1-7.5 20.5-7.5 20.5" style="fill:#7e5d55;stroke:#7e5d55" />
        <path d="m180 370l2-1v-2-2l.5-2 .5-2 .5-1 .5-1 .5-1 .5-1-.5-1-.5-1-2 7.5-2 7.5" style="fill:#a099a1;stroke:#a099a1" />
        <g style="fill:#625a63;stroke:#625a63">
            <path d="m295 363l2-1 1.5-.5 1.5-.5h2 2v-1-1h-2-2-1-1l-.5-1-.5-1-1-1-1-1 1-1.5 1-1.5-2-1-2-1-1-.5-1-.5v-11-11l-10.5-14.5-10.5-14.5 2.5 13 2.5 13 4.5 11 4.5 11 5.5 8.5 5.5 8.5" />
            <path d="m186 361v1l.5-1 .5-1v-2-2-2.5-2.5l.5-1.5.5-1.5 1-.5 1-.5.5 1.5.5 1.5v1.5 1.5l.5 1.5.5 1.5v-3-3l-.5-2-.5-2v-2-2l-1-1.5-1-1.5-.5 1.5-.5 1.5-.5 2-.5 2v2 2l-.5 2-.5 2v2 2 1.5 1.5" />
        </g>
        <path d="m298 359h2 2 2v-2.5-2.5-2-2-1.5-1.5l-1 .5-1 .5-1-.5-1-.5h-1-1l-1-.5-1-.5-1.5-.5-1.5-.5-.5.5-.5.5v1 1l.5 1 .5 1 2 1 2 1-1 1.5-1 1.5 1 1 1 1 .5 1 .5 1" style="fill:#7e766a;stroke:#7e766a" />
        <path d="m291 349l2 1-.5-1-.5-1v-1-1l.5-.5.5-.5 1.5.5 1.5.5 1 .5 1 .5h1 1l1 .5 1 .5 1-.5 1-.5v-16-16-15.5-15.5-6.5-6.5l-1-.5-1-.5-1.5-.5-1.5-.5-.5-1-.5-1-1-1-1-1h-1-1l-1.5-.5-1.5-.5h-1.5-1.5l-9 6-9 6v11 11l10.5 14.5 10.5 14.5v11 11" style="fill:#7e5d55;stroke:#7e5d55" />
        <path d="m157 336v1l.5-1 .5-1v-1-1-1-1h.5.5v1 1 2 2l.5-2 .5-2 .5-1.5.5-1.5.5-2 .5-2 .5-1.5.5-1.5.5-1.5.5-1.5.5-1 .5-1 1-2 1-2 .5-2 .5-2 .5-1.5.5-1.5.5-2 .5-2v-2-2l.5-2 .5-2 .5-1.5.5-1.5.5-1.5.5-1.5v-1.5-1.5-1-1l.5-1.5.5-1.5 1-1.5 1-1.5 1.5-1 1.5-1 .5-1 .5-1 1.5-1 1.5-1 1-.5 1-.5.5-.5.5-.5.5-1.5.5-1.5h1 1l1 .5 1 .5.5-.5.5-.5-.5-1.5-.5-1.5 1.5 1 1.5 1 1.5.5 1.5.5.5-.5.5-.5 1-.5 1-.5 1-1 1-1 1 1 1 1 1-1.5 1-1.5h1.5 1.5 1.5 1.5l1-.5 1-.5 1.5-.5 1.5-.5.5-.5.5-.5 1-.5 1-.5 1.5 1 1.5 1v1.5 1.5l2.5 1 2.5 1 1-.5 1-.5 1.5-.5 1.5-.5 1.5-.5 1.5-.5 1-1.5 1-1.5 1-1 1-1 2-1 2-1 1-.5 1-.5 1-.5 1-.5h1 1l.5-.5.5-.5h1 1l1.5.5 1.5.5 2 .5 2 .5 1.5.5 1.5.5 2 .5 2 .5 1 1 1 1 1.5 1 1.5 1 1 1 1 1 2 .5 2 .5.5 1.5.5 1.5 1-.5 1-.5v-1-1l2 .5 2 .5h1.5 1.5 1.5 1.5l-1.5-.5-1.5-.5.5-1 .5-1-1.5-.5-1.5-.5-.5-.5-.5-.5h-1.5-1.5-2-2l-.5-.5-.5-.5-.5-.5-.5-.5-1-.5-1-.5-11.5-4-11.5-4-10 5.5-10 5.5h-2-2v-1-1l-.5-2-.5-2h-2-2l-1 .5-1 .5-1 .5-1 .5-1.5.5-1.5.5-1.5.5-1.5.5-1.5.5-1.5.5-9.5-7.5-9.5-7.5 1-.5 1-.5v-1.5-1.5l-1-13-1-13-6 2.5-6 2.5v2 2l-.5 2-.5 2-.5 1.5-.5 1.5.5 2 .5 2v2 2l.5 1 .5 1 1 2 1 2 .5 2 .5 2 .5 1.5.5 1.5v2.5 2.5l1 1 1 1 .5 2 .5 2v1.5 1.5l-.5 1-.5 1-7.5 10-7.5 10-3 12.5-3 12.5-3 12.5-3 12.5" style="fill:#544f42;stroke:#544f42" />
        <path d="m165 325h2v-1-1l.5-.5.5-.5.5-.5.5-.5v-1.5-1.5-1-1l.5-.5.5-.5v-1-1-1.5-1.5-1-1l.5-.5.5-.5.5-.5.5-.5 1-1 1-1v-1.5-1.5l.5-.5.5-.5v-1-1-1-1l-.5-1-.5-1-1.5.5-1.5.5-.5 2-.5 2v2 2l-.5 2-.5 2-.5 1.5-.5 1.5-.5 2-.5 2-1 2-1 2-.5 2.5-.5 2.5.5 1 .5 1" style="fill:#a099a1;stroke:#a099a1" />
        <path d="m166 282h2l1-1 1-1 .5-2 .5-2 1-1 1-1-1-1.5-1-1.5-1 1-1 1-1 1.5-1 1.5-.5 1.5-.5 1.5v1.5 1.5" style="fill:#331b10;stroke:#331b10" />
        <path d="m251 278l3 1 1.5-.5 1.5-.5 1.5-.5 1.5-.5-2 .5-2 .5-2-.5-2-.5h-2-2l-1.5-.5-1.5-.5-2-.5-2-.5-1.5-.5-1.5-.5h-1.5-1.5l2 1 2 1 1 .5 1 .5h1 1 1 1l.5.5.5.5h2.5 2.5" style="fill:#a099a1;stroke:#a099a1" />
        <path d="m252 277l4 1 2-.5 2-.5h2 2l1-1 1-1 1.5-1 1.5-1 1.5-.5 1.5-.5 1-1 1-1 1.5-1 1.5-1 1-1 1-1-.5-1.5-.5-1.5-2-.5-2-.5 1 1 1 1-1 1-1 1-1 1.5-1 1.5-1 1-1 1-1.5.5-1.5.5-1.5 1-1.5 1-1.5.5-1.5.5h-2.5-2.5-2-2l-2-.5-2-.5h-2-2l-2-.5-2-.5-1.5-.5-1.5-.5-2-.5-2-.5-1-1-1-1-1.5-.5-1.5-.5v-1.5-1.5l-2.5-1-2.5-1v-1.5-1.5l-1 1.5-1 1.5-1.5 1-1.5 1h-2-2l-1.5-.5-1.5-.5-2-.5-2-.5 1-.5 1-.5h-1.5-1.5l-1 1.5-1 1.5 1 .5 1 .5h1 1 1 1l1 .5 1 .5h1.5 1.5l1 .5 1 .5h1 1 1 1 1 1l1 .5 1 .5.5.5.5.5 1.5.5 1.5.5 1 .5 1 .5.5.5.5.5 1.5.5 1.5.5h1.5 1.5l1.5.5 1.5.5 2 .5 2 .5 1.5.5 1.5.5h2 2" style="fill:#bcb8ac;stroke:#bcb8ac" />
        <path d="m248 274l4 1h2 2 2.5 2.5l1.5-.5 1.5-.5 1.5-1 1.5-1-1 .5-1 .5h-2-2l-1.5-.5-1.5-.5h-2.5-2.5l-1.5.5-1.5.5-1.5-.5-1.5-.5-2.5-.5-2.5-.5-1.5-.5-1.5-.5.5-2 .5-2 .5-1.5.5-1.5-.5-2-.5-2 1-1 1-1 1-1 1-1-2 1-2 1-1 1-1 1-1 1.5-1 1.5-1.5.5-1.5.5-1.5.5-1.5.5-1 .5-1 .5v1.5 1.5l1.5.5 1.5.5 1 1 1 1 2 .5 2 .5 1.5.5 1.5.5 2 .5 2 .5h2 2" style="fill:#d5d1c3;stroke:#d5d1c3" />
        <path d="m202 273l4 1 .5-1 .5-1h1 1l.5-1.5.5-1.5-1-.5-1-.5h-1-1l-1.5-.5-1.5-.5-.5-2-.5-2-1 1-1 1-1 .5-1 .5-.5.5-.5.5-1.5-.5-1.5-.5.5 1 .5 1 1 1 1 1 1.5 1 1.5 1 1 .5 1 .5" style="fill:#7e766a;stroke:#7e766a" />
        <path d="m247 272l3 1 1.5-.5 1.5-.5h2.5 2.5l1.5.5 1.5.5h2 2l1-.5 1-.5v-.5-.5l-.5-1-.5-1-1-1-1-1-1-1.5-1-1.5-1-1-1-1-1-1.5-1-1.5v-2-2l-1-1-1-1-1.5-.5-1.5-.5h-1-1l-.5.5-.5.5h-1-1l-1 .5-1 .5-1 .5-1 .5-1 1-1 1-1 1-1 1 .5 2 .5 2-.5 1.5-.5 1.5-.5 2-.5 2 1.5.5 1.5.5 2.5.5 2.5.5" style="fill:#ebe8db;stroke:#ebe8db" />
        <path d="m267 271v1l1.5-.5 1.5-.5 1-1 1-1 1-1.5 1-1.5 1-1 1-1-1-1-1-1-1-1-1-1-1.5-1-1.5-1-1-1-1-1-2-.5-2-.5-1.5-.5-1.5-.5-2-.5-2-.5 1 1 1 1v2 2l1 1.5 1 1.5 1 1 1 1 1 1.5 1 1.5 1 1 1 1 .5 1 .5 1" style="fill:#d5d1c3;stroke:#d5d1c3" />
        <path d="m217 270l3 1h2.5 2.5 2 2l-1.5-.5-1.5-.5-.5-.5-.5-.5-1-.5-1-.5h-1-1-1-1-1-1l-1-.5-1-.5h-1.5-1.5l1 .5 1 .5.5.5.5.5 1 .5 1 .5" style="fill:#a099a1;stroke:#a099a1" />
        <path d="m302 270l2 1v-1-1l-.5-.5-.5-.5-2-1-2-1-1-1-1-1-1.5-1-1.5-1-2.5-.5-2.5-.5-.5 1-.5 1 1.5.5 1.5.5 1.5.5 1.5.5h1 1l1 1 1 1 .5 1 .5 1 1.5.5 1.5.5" style="fill:#7a3328;stroke:#7a3328" />
        <path d="m174 268l3 1 2-.5 2-.5 1.5-1 1.5-1v-1.5-1.5l-.5-1-.5-1v-1-1l-.5-.5-.5-.5h-1-1l-.5 1-.5 1-.5.5-.5.5-.5.5-.5.5v1 1l-1 1-1 1-.5 1-.5 1" style="fill:#331b10;stroke:#331b10" />
        <path d="m303 268l1 1v-3-3-.5-.5l-1.5-.5-1.5-.5h-2-2l-1-1-1-1-2 .5-2 .5-1 .5-1 .5 2.5.5 2.5.5 1.5 1 1.5 1 1 1 1 1 2 1 2 1" style="fill:#78200c;stroke:#78200c" />
        <path d="m211 264l3 1h2 2l1.5-1 1.5-1 1-1.5 1-1.5-1.5-1-1.5-1-1 .5-1 .5-.5.5-.5.5-1.5.5-1.5.5-1 .5-1 .5h-1.5-1.5l-1 .5-1 .5 2 .5 2 .5" style="fill:#d5d1c3;stroke:#d5d1c3" />
        <g style="fill:#331b10;stroke:#331b10">
            <path d="m301 261l3 1v-2-2-2.5-2.5-1.5-1.5l-2-.5-2-.5-.5-1-.5-1-.5-.5-.5-.5-.5-.5-.5-.5-.5-1-.5-1v-1-1l-.5-.5-.5-.5.5-.5.5-.5.5-.5.5-.5v-1.5-1.5h1 1l.5-.5.5-.5.5-.5.5-.5.5-.5.5-.5v-.5-.5l1-.5 1-.5v-16-16-15.5-15.5-.5-.5l-11 2-11 2-8-7.5-8-7.5-12-2.5-12-2.5-13 2-13 2-12.5 2-12.5 2 .5-15 .5-15 8-4.5 8-4.5-8-6.5-8-6.5v-15.5-15.5l1.5-14 1.5-14-.5-23.5-.5-23.5h-3-3-2.5-2.5-2-2-1.5-1.5l.5 12 .5 12 1 12.5 1 12.5.5 14 .5 14-.5 13-.5 13-.5 12-.5 12 .5 15 .5 15-2 13.5-2 13.5 5.5 10 5.5 10 4.5 4 4.5 4 9.5-3 9.5-3 6-3 6-3 9 3.5 9 3.5 8.5 1 8.5 1 4.5 8 4.5 8-4.5 10-4.5 10 6.5 5.5 6.5 5.5 1 .5 1 .5.5.5.5.5.5.5.5.5h2 2 1.5 1.5l.5.5.5.5 1.5.5 1.5.5 1-.5 1-.5 2-.5 2-.5 1 1 1 1h2 2" />
            <path d="m198 259h2l.5-.5.5-.5h1 1 1.5 1.5 1.5 1.5l1.5-.5 1.5-.5 1.5-.5 1.5-.5 1.5-.5 1.5-.5 1-.5 1-.5-11 2.5-11 2.5" />
            <path d="m227 259h4l.5-1 .5-1 .5-2 .5-2 .5-1.5.5-1.5-2 .5-2 .5-1 1-1 1-.5 2-.5 2v1 1" />
        </g>
        <g style="fill:#3d372b;stroke:#3d372b">
            <path d="m285 249h2l-.5-1.5-.5-1.5-1.5-1-1.5-1-1.5-.5-1.5-.5-1.5 1-1.5 1 .5 1.5.5 1.5h1.5 1.5l1.5.5 1.5.5h.5.5" />
            <path d="m300 249l4 1v-1.5-1.5-2.5-2.5-2-2-2.5-2.5-1.5-1.5l-1 .5-1 .5v.5.5l-.5.5-.5.5-.5.5-.5.5-.5.5-.5.5h-1-1v1.5 1.5l-.5.5-.5.5-.5.5-.5.5.5.5.5.5v1 1l.5 1 .5 1 .5.5.5.5.5.5.5.5.5 1 .5 1" />
        </g>
        <g style="fill:#331b10;stroke:#331b10">
            <path d="m189 247l3 1 1.5-1 1.5-1 1-1 1-1 1.5-1 1.5-1v-2-2l-1-1-1-1-1-1.5-1-1.5-1 1-1 1-1 2-1 2v1.5 1.5l-1 .5-1 .5-.5 2-.5 2" />
            <path d="m177 244h2l-.5-.5-.5-.5v-2-2l-.5-1-.5-1v-2-2l-.5-2-.5-2 .5-1.5.5-1.5.5-2 .5-2v-2-2l-.5 13-.5 13" />
        </g>
        <path d="m184 240l4-21-2.5 4-2.5 4 .5 6.5.5 6.5" style="fill:#ebe8db;stroke:#ebe8db" />
        <path d="m224 232l22-5-6-3.5-6-3.5-9.5-1-9.5-1-1.5 4-1.5 4 6 3 6 3" style="fill:#544f42;stroke:#544f42" />
        <g style="fill:#3d372b;stroke:#3d372b">
            <path d="m276 213l3 1 .5-1.5.5-1.5v-2.5-2.5l-1.5.5-1.5.5-.5 2-.5 2v1 1" />
            <path d="m282 170l22-4v-1.5-1.5-2-2-2.5-2.5-2-2-2.5-2.5-2-2-2-2-1-1l-.5-1-.5-1-.5-1-.5-1v2 2l-1.5-.5-1.5-.5-1-1-1-1-.5-1-.5-1-.5-.5-.5-.5-.5-.5-.5-.5-.5-.5-.5-.5-.5-1-.5-1v-1-1l.5-.5.5-.5v-1-1l.5-.5.5-.5 1-.5 1-.5h1 1 1 1 1 1l1 .5 1 .5v-16.5-16.5-15.5-15.5-2.5-2.5l-1.5.5-1.5.5h-2-2l-2-.5-2-.5-1-1-1-1 1.5-1 1.5-1h2 2l1.5.5 1.5.5h1.5 1.5v-16.5-16.5-7-7h-8.5-8.5-11-11l-.5 1-.5 1-.5.5-.5.5-.5.5-.5.5-.5.5-.5.5v1 1l.5 1 .5 1v1 1l-.5.5-.5.5-.5.5-.5.5-.5.5-.5.5h-1.5-1.5l-.5-.5-.5-.5-.5-.5-.5-.5-.5-.5-.5-.5-.5 1-.5 1h-1-1l-1 1-1 1 1 1 1 1 1 1 1 1 2 .5 2 .5 1 1 1 1 1 1.5 1 1.5v1 1h-1-1l-.5-1-.5-1-1-.5-1-.5-.5-.5-.5-.5h-1-1-1-1-1.5-1.5l-.5-.5-.5-.5v-1-1-1-1l1-1.5 1-1.5-.5-.5-.5-.5-1.5-.5-1.5-.5-.5-.5-.5-.5-1-.5-1-.5-1.5-.5-1.5-.5-.5-.5-.5-.5.5-1 .5-1 1.5-.5 1.5-.5 1-1.5 1-1.5 1-1.5 1-1.5h-15-15-10.5-10.5l.5 23.5.5 23.5-1.5 14-1.5 14v15.5 15.5l8 6.5 8 6.5-8 4.5-8 4.5-.5 15-.5 15 12.5-2 12.5-2 13-2 13-2 12 2.5 12 2.5 8 7.5 8 7.5" />
        </g>
        <path d="m299 134l3 1v-2-2l.5 1 .5 1 .5 1 .5 1v-1.5-1.5-2.5-2.5-2-2-2-2l-1-.5-1-.5h-1-1-1-1-1-1l-1 .5-1 .5-.5.5-.5.5v1 1l-.5.5-.5.5v1 1l.5 1 .5 1 .5.5.5.5.5.5.5.5.5.5.5.5.5 1 .5 1 1 1 1 1" style="fill:#331b10;stroke:#331b10" />
        <path d="m254 130l3 1 1-1 1-1 1-1 1-1h-1.5-1.5-1-1-1.5-1.5l-1.5-.5-1.5-.5-2-.5-2-.5-1.5-.5-1.5-.5.5-1.5.5-1.5h2.5 2.5 2 2l1-.5 1-.5-10.5 4-10.5 4 10 1 10 1" style="fill:#544f42;stroke:#544f42" />
        <path d="m256 127h2 1.5 1.5l2-1 2-1 1-1 1-1 .5-2 .5-2-.5-1.5-.5-1.5-1.5-1-1.5-1-1.5.5-1.5.5-1 1-1 1-1.5 1-1.5 1-.5.5-.5.5-1 .5-1 .5h-2-2-2.5-2.5l-.5 1.5-.5 1.5 1.5.5 1.5.5 2 .5 2 .5 1.5.5 1.5.5h1.5 1.5" style="fill:#7e766a;stroke:#7e766a" />
        <path d="m258 124h2l1.5-.5 1.5-.5 1-1.5 1-1.5-1-1-1-1-1.5 1-1.5 1-1 1-1 1v1 1" style="fill:#bcb8ac;stroke:#bcb8ac" />
        <g style="fill:#544f42;stroke:#544f42">
            <path d="m249 104l-4-11-3 4.5-3 4.5 5 1 5 1" />
            <path d="m276 99l11-14 4.5-7 4.5-7-5-9.5-5-9.5 1.5-8 1.5-8-4-10.5-4-10.5-5.5 1-5.5 1-1.5 11-1.5 11-10.5 1-10.5 1 7 3.5 7 3.5-1.5 3-1.5 3-2.5 8-2.5 8 2.5-3.5 2.5-3.5 8 5.5 8 5.5 1 11.5 1 11.5.5 1 .5 1" />
            <path d="m235 88l12-13-5.5-1-5.5-1-.5 7.5-.5 7.5" />
            <path d="m255 88l3 1 1-1 1-1v-1.5-1.5-2-2l-2-.5-2-.5-1 1-1 1 1 1.5 1 1.5-1 1-1 1 .5 1 .5 1" />
            <path d="m293 50l4 1h2 2l1.5-.5 1.5-.5v-1.5-1.5h-1.5-1.5l-1.5-.5-1.5-.5h-2-2l-1.5 1-1.5 1 1 1 1 1" />
        </g>
        <path d="m270 36l3 1 .5-1 .5-1-.5-.5-.5-.5v-2-2-1-1l-.5.5-.5.5-1 .5-1 .5-.5.5-.5.5-.5 1-.5 1 1 1.5 1 1.5" style="fill:#7e766a;stroke:#7e766a" />
        <path d="m273 34l1 1 .5-2.5.5-2.5v-1.5-1.5l-1-1-1-1h-1.5-1.5l-.5 1.5-.5 1.5-1 1.5-1 1.5.5 1 .5 1 .5-1 .5-1 .5-.5.5-.5 1-.5 1-.5.5-.5.5-.5v1 1 2 2" style="fill:#625a63;stroke:#625a63" />
        <g style="fill:#544f42;stroke:#544f42">
            <path d="m258 27h2v-1-1l-1-1.5-1-1.5-1-1-1-1-2-.5-2-.5-1-1-1-1-1-1-1-1-1 1.5-1 1.5v1 1 1 1l.5.5.5.5h1.5 1.5 1 1 1 1l.5.5.5.5 1 .5 1 .5.5 1 .5 1" />
            <path d="m247 14l1 1 1-1 1-1h1 1l.5-1 .5-1 .5.5.5.5.5.5.5.5.5.5.5.5h1.5 1.5l.5-.5.5-.5.5-.5.5-.5.5-.5.5-.5v-1-1l-.5-1-.5-1v-1-1l.5-.5.5-.5.5-.5.5-.5.5-.5.5-.5.5-1 .5-1h-3-3-2.5-2.5-2-2-2.5-2.5l-1 1.5-1 1.5-1 1.5-1 1.5-1.5.5-1.5.5-.5 1-.5 1 .5.5.5.5 1.5.5 1.5.5 1 .5 1 .5.5.5.5.5 1.5.5 1.5.5" />
        </g>
    </g>
</svg>
