<svg xmlns="http://www.w3.org/2000/svg" viewBox="0 0 464 960">
    <path d="m0 0h464v960h-464z" style="fill:#371c11" />
    <g style="stroke-linejoin:round;stroke-width:.7">
        <path d="m0 959v1h8 8 9 9 9 9 9 9 8.5 8.5.5.5v-.5-.5h-8-8-7.5-7.5-8-8-7.5-7.5-8-8l-2.5-1-2.5-1 7.5.5 7.5.5h7.5 7.5l7.5-.5 7.5-.5 7.5.5 7.5.5h7.5 7.5l7-1 7-1 7 1 7 1 3-2.5 3-2.5v-7-7l2-5.5 2-5.5 5-3 5-3 2.5 5 2.5 5 1.5 6.5 1.5 6.5 2.5 5 2.5 5 6.5 1.5 6.5 1.5h7.5 7.5l2.5.5 2.5.5h-7.5-7.5l-7.5.5-7.5.5h2 2 2.5 2.5 2 2 2.5 2.5 2 2 2.5 2.5 2 2 2.5 2.5 2 2 1.5 1.5v-.5-.5l-1.5-.5-1.5-.5 1.5-.5 1.5-.5v-.5-.5l-.5-2-.5-2-.5-1.5-.5-1.5v-2.5-2.5l-.5-1.5-.5-1.5.5-2 .5-2 1-1 1-1-1-6-1-6-5.5-1-5.5-1-5.5-7.5-5.5-7.5-1-.5-1-.5-.5-1-.5-1-1.5-.5-1.5-.5-.5-1.5-.5-1.5v-2.5-2.5l.5-1.5.5-1.5v-2.5-2.5-2-2l-3-.5-3-.5-5 3-5 3-7.5 1-7.5 1 1 4 1 4-2 6-2 6-5 3.5-5 3.5-5 3-5 3 2.5-4.5 2.5-4.5h-7-7l-5.5 3-5.5 3-6 3-6 3-6 3-6 3-8.5 1.5-8.5 1.5 1.5-5 1.5-5 5.5-3.5 5.5-3.5 6.5-2.5 6.5-2.5 6.5-2.5 6.5-2.5-1.5-2-1.5-2-7.5 1.5-7.5 1.5-7.5 1.5-7.5 1.5-7 2-7 2-7 1.5-7 1.5-11 3-11 3v2 2 2.5 2.5 2 2 2 2 2.5 2.5 2 2 2.5 2.5 2 2 1 1" style="fill:#d7d3c5;stroke:#d7d3c5" />
        <path d="m88 959v1h1.5 1.5 2 2 2.5 2.5v-.5-.5h8.5 8.5l-1-5.5-1-5.5 1-6.5 1-6.5 3.5-4.5 3.5-4.5 3.5 3 3.5 3 1.5 6.5 1.5 6.5 3 7.5 3 7.5h2 2l7.5-.5 7.5-.5h7.5 7.5l-2.5-.5-2.5-.5h-7.5-7.5l-6.5-1.5-6.5-1.5-2.5-5-2.5-5-1.5-6.5-1.5-6.5-2.5-5-2.5-5-5 3-5 3-2 5.5-2 5.5v7 7l-3 2.5-3 2.5-7-1-7-1-7 1-7 1h-7.5-7.5l-7.5-.5-7.5-.5-7.5.5-7.5.5h-7.5-7.5l-7.5-.5-7.5-.5 2.5 1 2.5 1h8 8 7.5 7.5 8 8 7.5 7.5 8 8" style="fill:#bbb7ab;stroke:#bbb7ab" />
        <path d="m100 959v1h1.5 1.5 2 2 2.5 2.5 2 2 2.5 2.5.5.5v-.5-.5-.5-.5l-3-4-3-4 1.5-6.5 1.5-6.5 3-4.5 3-4.5 2.5 4.5 2.5 4.5 1 6.5 1 6.5 3 5 3 5h1 1l-3-7.5-3-7.5-1.5-6.5-1.5-6.5-3.5-3-3.5-3-3.5 4.5-3.5 4.5-1 6.5-1 6.5 1 5.5 1 5.5h-8.5-8.5" style="fill:#9a9488;stroke:#9a9488" />
        <path d="m122 959v1h1.5 1.5v-.5-.5l-2.5-6-2.5-6 1.5-6 1.5-6 2 4 2 4 2 8.5 2 8.5h2 2v-.5-.5l-2.5-4.5-2.5-4.5-1-7-1-7-3-1.5-3-1.5-2 6-2 6 2 6.5 2 6.5v.5.5" style="fill:#595448;stroke:#595448" />
        <path d="m125 959v1h1.5 1.5 1.5 1.5l-2-8.5-2-8.5-2-4-2-4-1.5 6-1.5 6 2.5 6 2.5 6" style="fill:#3f3428;stroke:#3f3428" />
        <g style="fill:#7f7569;stroke:#7f7569">
            <path d="m135 959v1h1.5 1.5l-3-5-3-5-1-6.5-1-6.5-2.5-4.5-2.5-4.5-3 4.5-3 4.5-1.5 6.5-1.5 6.5 3 4 3 4-2-6.5-2-6.5 2-6 2-6 3 1.5 3 1.5 1 7 1 7 2.5 4.5 2.5 4.5" />
            <path d="m187 959v1h1.5 1.5.5.5v-.5-.5l-1-7-1-7 1.5-6.5 1.5-6.5 3.5 1 3.5 1v13 13h1.5 1.5v-.5-.5l2.5-.5 2.5-.5h-2-2l-.5-2-.5-2-.5-1.5-.5-1.5v-.5-.5-1.5-1.5-2.5-2.5l-1.5-7-1.5-7-4 .5-4 .5-1 12.5-1 12.5-.5 1.5-.5 1.5-1.5.5-1.5.5 1.5.5 1.5.5" />
        </g>
        <path d="m191 959v1h1.5 1.5 1.5 1.5v-.5-.5l.5-7.5.5-7.5-2.5-4.5-2.5-4.5-1 12-1 12" style="fill:#3f3428;stroke:#3f3428" />
        <path d="m197 959v1h1 1v-13-13l-3.5-1-3.5-1-1.5 6.5-1.5 6.5 1 7 1 7 1-12 1-12 2.5 4.5 2.5 4.5-.5 7.5-.5 7.5" style="fill:#595448;stroke:#595448" />
        <path d="m202 959v1h1.5 1.5 2 2 2.5 2.5 2 2 2.5 2.5 2 2v-.5-.5-.5-.5l5-4 5-4-.5-6-.5-6 4-4 4-4 6.5 2.5 6.5 2.5 6.5 2.5 6.5 2.5 5 9 5 9v1 1h9.5 9.5 8.5 8.5 9 9 9 9 9 9 4 4v-.5-.5h-8.5-8.5-8-8-7.5-7.5-8-8-7.5-7.5l5.5-.5 5.5-.5h7.5 7.5 8 8 8 8 7.5 7.5l-.5-3.5-.5-3.5 3.5-4 3.5-4 6 2 6 2 5.5 2 5.5 2 6 2 6 2 6 1.5 6 1.5 4.5.5 4.5.5-8 .5-8 .5h2.5 2.5 2 2 2.5 2.5 2 2 2.5 2.5.5.5v-.5-.5l-1.5-4.5-1.5-4.5-3-4.5-3-4.5-2.5-5.5-2.5-5.5 4.5-1 4.5-1 3.5 4.5 3.5 4.5 3.5 4 3.5 4 5 7.5 5 7.5h1.5 1.5v-2-2-2-2-2.5-2.5-2-2-2.5-2.5-2-2-2.5-2.5-2-2-2.5-2.5-1.5-1.5l-5.5-1.5-5.5-1.5-6-2-6-2-6-1.5-6-1.5-6-2-6-2h-6.5-6.5l-6.5-1.5-6.5-1.5-6-.5-6-.5-7 1-7 1 1 2.5 1 2.5 5 3 5 3 5 2.5 5 2.5 6.5 1.5 6.5 1.5v4.5 4.5l-7-.5-7-.5-6-1.5-6-1.5-6.5-1.5-6.5-1.5-3.5 2-3.5 2 2 5 2 5-2.5 5-2.5 5-6 1-6 1-6-1.5-6-1.5-4-4-4-4-6-.5-6-.5-6.5 1.5-6.5 1.5-4.5-3-4.5-3-6-2-6-2-5.5-2-5.5-2-6-2-6-2-5.5-2-5.5-2-2.5-5.5-2.5-5.5.5-6 .5-6 7.5-.5 7.5-.5 7-.5 7-.5 5.5-2.5 5.5-2.5 5.5-2 5.5-2h8 8l7 .5 7 .5h7 7l6-2 6-2-4-1-4-1h-6.5-6.5l-7-1-7-1-6.5-1-6.5-1h-8-8-7.5-7.5l-6.5-1.5-6.5-1.5-4-3.5-4-3.5 6-1 6-1 7 .5 7 .5 6.5-.5 6.5-.5-4.5-2-4.5-2-6-2-6-2-7-.5-7-.5-7.5-.5-7.5-.5-5.5-2-5.5-2-3.5 4.5-3.5 4.5-4 3.5-4 3.5-4.5 3.5-4.5 3.5-4.5 2-4.5 2-2 5-2 5-2 3.5-2 3.5 4.5 3.5 4.5 3.5-.5 6-.5 6 2.5 1 2.5 1 3 4.5 3 4.5 2 6 2 6-1.5 8.5-1.5 8.5.5 1.5.5 1.5.5 2 .5 2h2 2l-2.5.5-2.5.5" style="fill:#d7d3c5;stroke:#d7d3c5" />
        <path d="m227 959v1h1 1v-.5-.5l4-3.5 4-3.5 1.5-5.5 1.5-5.5 4-4 4-4 6 3 6 3 6 2.5 6 2.5 4 7 4 7-5-9-5-9-6.5-2.5-6.5-2.5-6.5-2.5-6.5-2.5-4 4-4 4 .5 6 .5 6-5 4-5 4v.5.5" style="fill:#bbb7ab;stroke:#bbb7ab" />
        <path d="m229 959v1h1.5 1.5v-.5-.5l3.5-3 3.5-3 2-4.5 2-4.5 1.5-4.5 1.5-4.5 5 2.5 5 2.5 6 2 6 2 3.5 6.5 3.5 6.5v1.5 1.5h2.5 2.5v-1-1l-4-7-4-7-6-2.5-6-2.5-6-3-6-3-4 4-4 4-1.5 5.5-1.5 5.5-4 3.5-4 3.5" style="fill:#9a9488;stroke:#9a9488" />
        <path d="m232 959v1h.5.5v-.5-.5l1.5-1 1.5-1 2-.5 2-.5 1.5-.5 1.5-.5 1.5-1 1.5-1 .5-1.5.5-1.5v-2.5-2.5l-1-1-1-1v-2-2h2.5 2.5l1 .5 1 .5 1 1 1 1 .5 1.5.5 1.5 1.5 1 1.5 1 1.5-.5 1.5-.5h2.5 2.5l1.5.5 1.5.5 1 1 1 1 .5 1 .5 1 .5 1.5.5 1.5.5.5.5.5.5 1 .5 1-3.5-6.5-3.5-6.5-6-2-6-2-5-2.5-5-2.5-1.5 4.5-1.5 4.5-2 4.5-2 4.5-3.5 3-3.5 3" style="fill:#7f7569;stroke:#7f7569" />
        <path d="m233 959v1h1.5 1.5 2 2 2.5 2.5 1 1v-.5-.5l1.5-1 1.5-1 1.5-.5 1.5-.5 1.5-.5 1.5-.5h1 1l1 .5 1 .5 1.5.5 1.5.5.5 1.5.5 1.5h1.5 1.5v-.5-.5l-.5-1-.5-1-.5-.5-.5-.5-.5-.5-.5-.5-.5-.5-.5-.5-.5-.5-.5-.5v-.5-.5l.5-.5.5-.5h1 1 1 1l1 .5 1 .5.5.5.5.5.5.5.5.5.5.5.5.5v1 1l.5 1.5.5 1.5h1 1v-1.5-1.5l-.5-1-.5-1-.5-.5-.5-.5-.5-1.5-.5-1.5-.5-.5-.5-.5-1-.5-1-.5-1.5-.5-1.5-.5h-1-1l-2 .5-2 .5h-2-2l-1.5-1-1.5-1v-2-2l-1.5-2-1.5-2h-2.5-2.5v2 2l1 1 1 1v2.5 2.5l-.5 1.5-.5 1.5-1.5 1-1.5 1-1.5.5-1.5.5-2 .5-2 .5-1.5 1-1.5 1" style="fill:#595448;stroke:#595448" />
        <path d="m247 959v1h1.5 1.5 2 2 2.5 2.5 2 2 .5.5l-.5-1.5-.5-1.5-1.5-.5-1.5-.5-1-.5-1-.5h-1-1l-1.5.5-1.5.5-1.5.5-1.5.5-1.5 1-1.5 1" style="fill:#7f7569;stroke:#7f7569" />
        <path d="m267 959v1h1.5 1.5 1.5 1.5l-.5-1.5-.5-1.5v-1-1l-.5-.5-.5-.5-.5-.5-.5-.5-.5-.5-.5-.5-1-.5-1-.5h-1-1-1-1l-.5.5-.5.5v.5.5l.5.5.5.5.5.5.5.5.5.5.5.5.5.5.5.5.5 1 .5 1" style="fill:#3f3428;stroke:#3f3428" />
        <path d="m378 959v1h1.5 1.5 1.5 1.5v-.5-.5l-3-3-3-3 5.5-.5 5.5-.5 7 2 7 2 4.5 2 4.5 2h1.5 1.5 1.5 1.5l8-.5 8-.5-4.5-.5-4.5-.5-6-1.5-6-1.5-6-2-6-2-5.5-2-5.5-2-6-2-6-2-3.5 4-3.5 4 .5 3.5.5 3.5h-7.5-7.5-8-8-8-8-7.5-7.5l-5.5.5-5.5.5h7.5 7.5 8 8 7.5 7.5 8 8 8.5 8.5" style="fill:#bbb7ab;stroke:#bbb7ab" />
        <path d="m384 959v1h1.5 1.5 2 2 .5.5v-.5-.5h-1.5-1.5l-.5-.5-.5-.5 1.5-.5 1.5-.5h2 2 2.5 2.5l1.5.5 1.5.5 2 .5 2 .5h-2-2l-1 .5-1 .5h3.5 3.5 2 2l-4.5-2-4.5-2-7-2-7-2-5.5.5-5.5.5 3 3 3 3" style="fill:#9a9488;stroke:#9a9488" />
        <path d="m392 959v1h1.5 1.5 2 2 1 1l1-.5 1-.5h2 2l-2-.5-2-.5-1.5-.5-1.5-.5h-2.5-2.5-2-2l-1.5.5-1.5.5.5.5.5.5h1.5 1.5" style="fill:#7f7569;stroke:#7f7569" />
        <path d="m442 959v1h1.5 1.5 1 1v-.5-.5l-.5-.5-.5-.5h-1-1l-2-6.5-2-6.5-2.5-5-2.5-5 3.5 2 3.5 2 4.5 5.5 4.5 5.5-3.5-5.5-3.5-5.5-3.5-4-3.5-4-1.5 3.5-1.5 3.5 2.5 5 2.5 5 1.5 5.5 1.5 5.5" style="fill:#9a9488;stroke:#9a9488" />
        <path d="m447 959v1h1.5 1.5 2 2v-.5-.5l-.5-1-.5-1-1-1.5-1-1.5-1-1-1-1-1.5-.5-1.5-.5v2.5 2.5 1 1l.5.5.5.5" style="fill:#595448;stroke:#595448" />
        <path d="m454 959v1h1.5 1.5.5.5v-.5-.5l-.5-1-.5-1-.5-.5-.5-.5-.5-.5-.5-.5-.5-.5-.5-.5-.5-.5-.5-.5-1-1.5-1-1.5v2 2l1 1.5 1 1.5.5 1 .5 1" style="fill:#9a9488;stroke:#9a9488" />
        <path d="m458 959v1h1.5 1.5l-5-7.5-5-7.5-3.5-4-3.5-4-3.5-4.5-3.5-4.5-4.5 1-4.5 1 2.5 5.5 2.5 5.5 3 4.5 3 4.5 1.5 4.5 1.5 4.5-1.5-5.5-1.5-5.5-2.5-5-2.5-5 1.5-3.5 1.5-3.5 3.5 4 3.5 4 3.5 5.5 3.5 5.5 1 1.5 1 1.5.5.5.5.5.5.5.5.5.5.5.5.5.5.5.5.5.5 1 .5 1" style="fill:#bbb7ab;stroke:#bbb7ab" />
        <path d="m444 958h2v-1-1-2.5-2.5l1.5.5 1.5.5 1 1 1 1v-2-2l-4.5-5.5-4.5-5.5-3.5-2-3.5-2 2.5 5 2.5 5 2 6.5 2 6.5" style="fill:#7f7569;stroke:#7f7569" />
        <path d="m187 956v1l.5-1.5.5-1.5-.5-.5-.5-.5v-1.5-1.5l-.5-1-.5-1v-2-2-1-1-1.5-1.5l.5-2 .5-2-1 1-1 1-.5 2-.5 2 .5 1.5.5 1.5v2.5 2.5l.5 1.5.5 1.5.5 2 .5 2" style="fill:#bbb7ab;stroke:#bbb7ab" />
        <path d="m187 953l1 1 1-12.5 1-12.5 4-.5 4-.5 1.5 7 1.5 7-.5-7-.5-7-4.5-3.5-4.5-3.5-2 7-2 7-.5 2-.5 2v1.5 1.5 1 1 2 2l.5 1 .5 1v1.5 1.5" style="fill:#9a9488;stroke:#9a9488" />
        <path d="m201 950v1l1.5-8.5 1.5-8.5-2-6-2-6-3-4.5-3-4.5-2.5-1-2.5-1 .5-6 .5-6-4.5-3.5-4.5-3.5 2-3.5 2-3.5 2-5 2-5 4.5-2 4.5-2 4.5-3.5 4.5-3.5 4-3.5 4-3.5 3.5-4.5 3.5-4.5 5.5 2 5.5 2 7.5.5 7.5.5 7 .5 7 .5 6 2 6 2 4.5 2 4.5 2-6.5.5-6.5.5-7-.5-7-.5-6 1-6 1 4 3.5 4 3.5 6.5 1.5 6.5 1.5h7.5 7.5 8 8l6.5 1 6.5 1 7 1 7 1h6.5 6.5l4 1 4 1-6 2-6 2h-7-7l-7-.5-7-.5h-8-8l-5.5 2-5.5 2-5.5 2.5-5.5 2.5-7 .5-7 .5-7.5.5-7.5.5-.5 6-.5 6 2.5 5.5 2.5 5.5 5.5 2 5.5 2 6 2 6 2 5.5 2 5.5 2 6 2 6 2 4.5 3 4.5 3 6.5-1.5 6.5-1.5 6 .5 6 .5 4 4 4 4 6 1.5 6 1.5 6-1 6-1 2.5-5 2.5-5-2-5-2-5 3.5-2 3.5-2 6.5 1.5 6.5 1.5 6 1.5 6 1.5 7 .5 7 .5v-4.5-4.5l-6.5-1.5-6.5-1.5-5-2.5-5-2.5-5-3-5-3-1-2.5-1-2.5 7-1 7-1 6 .5 6 .5 6.5 1.5 6.5 1.5h6.5 6.5l6 2 6 2 6 1.5 6 1.5 6 2 6 2 5.5 1.5 5.5 1.5v-.5-.5l-1-.5-1-.5-1-.5-1-.5-1.5-.5-1.5-.5-1.5-.5-1.5-.5-2-.5-2-.5-1.5-.5-1.5-.5-2-.5-2-.5-1.5-.5-1.5-.5-1.5-.5-1.5-.5h-1-1-1.5-1.5l-1.5-.5-1.5-.5h-1-1l-1-.5-1-.5-1.5-.5-1.5-.5-1-1-1-1-1-.5-1-.5-7.5-.5-7.5-.5-6.5-1-6.5-1h-7-7-6.5-6.5l-7.5-.5-7.5-.5-4.5-2-4.5-2-2-4-2-4 6-1.5 6-1.5 1.5-3.5 1.5-3.5h-7.5-7.5l-8-.5-8-.5-4.5-4-4.5-4-3.5-4-3.5-4-7-1-7-1-6.5-1-6.5-1-7.5-1-7.5-1h-8.5-8.5l-6-1.5-6-1.5-8-4.5-8-4.5-7.5 2-7.5 2-6 2.5-6 2.5-7 5-7 5-1 1-1 1-.5.5-.5.5-.5.5-.5.5h-1-1l-1 .5-1 .5-1.5.5-1.5.5-.5.5-.5.5v1.5 1.5 2 2l.5.5.5.5.5 1 .5 1 1 1 1 1 .5.5.5.5.5.5.5.5.5 1.5.5 1.5 4 5 4 5 5 4 5 4-1 7-1 7-4.5 3-4.5 3-1-1-1-1-1-1.5-1-1.5-.5-1.5-.5-1.5-1-1-1-1-1.5-.5-1.5-.5-.5-.5-.5-.5-.5-1-.5-1-1-.5-1-.5 5.5 7.5 5.5 7.5 5.5 1 5.5 1 1 6 1 6 2-7 2-7 4.5 3.5 4.5 3.5.5 7 .5 7v2.5 2.5 1.5 1.5" style="fill:#bbb7ab;stroke:#bbb7ab" />
        <path d="m271 950l1 1-.5-1-.5-1-1-1-1-1-1.5-.5-1.5-.5h-2.5-2.5l-1.5.5-1.5.5-1.5-1-1.5-1-.5-1.5-.5-1.5-1-1-1-1-1-.5-1-.5 1.5 2 1.5 2v2 2l1.5 1 1.5 1h2 2l2-.5 2-.5h1 1l1.5.5 1.5.5 1 .5 1 .5" style="fill:#735e4f;stroke:#735e4f" />
        <g style="fill:#bbb7ab;stroke:#bbb7ab">
            <path d="m29 943l3 1 1.5-.5 1.5-.5 1-1.5 1-1.5v-2-2l-2-.5-2-.5-1.5.5-1.5.5-1 1.5-1 1.5v2 2h.5.5" />
            <path d="m43 934l17-3 6-3 6-3 6-3 6-3 5.5-3 5.5-3h7 7l-2.5 4.5-2.5 4.5 5-3 5-3 5-3.5 5-3.5 2-6 2-6-1-4-1-4 7.5-1 7.5-1 5-3 5-3h-1.5-1.5l-1 1-1 1-1.5.5-1.5.5h-1.5-1.5l-6.5 2-6.5 2-6 1.5-6 1.5-6 2-6 2-10 2.5-10 2.5-6.5 1.5-6.5 1.5-6 1.5-6 1.5-8 1.5-8 1.5-1 .5-1 .5h-1-1l-.5.5-.5.5h-1-1l-1 .5-1 .5h-1-1-1-1l-.5.5-.5.5h-1-1l-1 .5-1 .5-.5.5-.5.5h-1-1-1.5-1.5l-1.5.5-1.5.5-1 .5-1 .5-1.5.5-1.5.5h-1-1l-1 .5-1 .5h-2-2l-1 .5-1 .5v1 1l11-3 11-3 7-1.5 7-1.5 7-2 7-2 7.5-1.5 7.5-1.5 7.5-1.5 7.5-1.5 1.5 2 1.5 2-6.5 2.5-6.5 2.5-6.5 2.5-6.5 2.5-5.5 3.5-5.5 3.5-1.5 5-1.5 5" />
        </g>
        <path d="m297 933l14-1 3.5-4.5 3.5-4.5-4.5-4.5-4.5-4.5-5.5-3.5-5.5-3.5-3 2.5-3 2.5-2.5 3.5-2.5 3.5-6.5-2.5-6.5-2.5-6.5-2.5-6.5-2.5-6.5-2-6.5-2-3.5 3.5-3.5 3.5 5.5 3.5 5.5 3.5 6.5 2.5 6.5 2.5 6.5 2 6.5 2 7 2 7 2 2.5.5 2.5.5" style="fill:#9a9488;stroke:#9a9488" />
        <path d="m331 933l5-10-4-5-4-5-3-5-3-5-7.5-1.5-7.5-1.5-7-1.5-7-1.5-2.5 2.5-2.5 2.5 6.5 2.5 6.5 2.5 6 3 6 3 5 3.5 5 3.5 2 6 2 6 2 .5 2 .5" style="fill:#d7d3c5;stroke:#d7d3c5" />
        <path d="m296 930l14-1-.5-4.5-.5-4.5-4-5-4-5-1.5 3.5-1.5 3.5-2.5 2-2.5 2-7.5-1.5-7.5-1.5-6-3-6-3-7-2-7-2-3.5 3-3.5 3 6 3 6 3 6.5 2.5 6.5 2.5 7.5 1.5 7.5 1.5 5.5 1 5.5 1" style="fill:#7f7569;stroke:#7f7569" />
        <path d="m291 927l3 1 1.5-.5 1.5-.5-1-1.5-1-1.5-1.5-.5-1.5-.5-2-.5-2-.5h-2-2l-1.5-1-1.5-1h-1-1l1 1.5 1 1.5 1.5.5 1.5.5h-1-1-2.5-2.5l1.5.5 1.5.5 1.5.5 1.5.5 2 .5 2 .5h2 2" style="fill:#735e4f;stroke:#735e4f" />
        <path d="m389 926l5-6-7-2-7-2-6.5-2.5-6.5-2.5h-5-5l4.5 4 4.5 4 6.5 2.5 6.5 2.5 5 1 5 1" style="fill:#9a9488;stroke:#9a9488" />
        <path d="m421 925h2v-2-2l1-1.5 1-1.5-1-1-1-1-2 .5-2 .5v1 1l1 1.5 1 1.5v1.5 1.5" style="fill:#bbb7ab;stroke:#bbb7ab" />
        <path d="m57 924l12-3 5.5-3.5 5.5-3.5-8 1-8 1-3.5 4-3.5 4" style="fill:#9a9488;stroke:#9a9488" />
        <path d="m272 923l3 1h1 1 2.5 2.5 1 1l-1.5-.5-1.5-.5-1-1.5-1-1.5-6.5-2-6.5-2-6.5-2.5-6.5-2.5v3 3l6.5 2.5 6.5 2.5 3 .5 3 .5" style="fill:#595448;stroke:#595448" />
        <path d="m177 921l9-6 1-7 1-7-5-4-5-4-4-5-4-5 3.5 5 3.5 5 4 3.5 4 3.5v6 6h-6-6l-.5-.5-.5-.5h-1-1l1 1 1 1 .5 1.5.5 1.5 1 1.5 1 1.5 1 1 1 1" style="fill:#9a9488;stroke:#9a9488" />
        <g style="fill:#7f7569;stroke:#7f7569">
            <path d="m379 921l3 1h2 2l-.5-1-.5-1-1.5-.5-1.5-.5-2-.5-2-.5-1.5-.5-1.5-.5-1.5 1-1.5 1 1 1 1 1h2 2 .5.5" />
            <path d="m0 919v1l1-.5 1-.5h2 2l1-.5 1-.5h1 1l1.5-.5 1.5-.5 1-.5 1-.5 1.5-.5 1.5-.5v-.5-.5h1.5 1.5l1-.5 1-.5 1.5-.5 1.5-.5h1 1l.5-.5.5-.5h1 1l1-.5 1-.5h1 1 1 1l.5-.5.5-.5h2 2l8-1.5 8-1.5 6-1.5 6-1.5 6.5-1.5 6.5-1.5v-.5-.5l7-2 7-2 7-2 7-2 6.5-2 6.5-2 8-1.5 8-1.5 5.5-2.5 5.5-2.5 4.5 2 4.5 2 .5 9.5.5 9.5 1 2 1 2 1 .5 1 .5.5 1 .5 1 .5.5.5.5 1.5.5 1.5.5h1 1l-4-4-4-4-1.5-6.5-1.5-6.5 4.5-1 4.5-1 3.5 5 3.5 5 3.5 4.5 3.5 4.5-2.5 5-2.5 5-1.5-1-1.5-1-.5-.5-.5-.5-1-1-1-1h6 6v-6-6l-4-3.5-4-3.5-3.5-5-3.5-5-.5-.5-.5-.5-1.5-1.5-1.5-1.5-1.5-1-1.5-1-.5-1.5-.5-1.5-.5-1.5-.5-1.5v-2.5-2.5l1-1 1-1 2-.5 2-.5 1.5-.5 1.5-.5 1.5-1 1.5-1 1-.5 1-.5 7-5 7-5 6-2.5 6-2.5 7.5-2 7.5-2 6 2.5 6 2.5 6.5 2.5 6.5 2.5 8 .5 8 .5 7-.5 7-.5 7 1 7 1 6.5 1 6.5 1 6 2.5 6 2.5 3.5 5 3.5 5 5.5 2 5.5 2 7.5.5 7.5.5 6 .5 6 .5-3 4-3 4-5 2.5-5 2.5 5 2.5 5 2.5 7 1.5 7 1.5h6.5 6.5l7.5.5 7.5.5 6.5 1 6.5 1 8 1.5 8 1.5 1 1 1 1 1.5.5 1.5.5 1 .5 1 .5h1 1l1.5.5 1.5.5h1.5 1.5 1 1l1.5.5 1.5.5 1.5.5 1.5.5h1.5 1.5 1 1l1 .5 1 .5 1.5.5 1.5.5h1 1l1 .5 1 .5 1.5.5 1.5.5.5.5.5.5h1.5 1.5v-1-1l-.5-.5-.5-.5-1.5-.5-1.5-.5h-2-2l-2-.5-2-.5-1.5-.5-1.5-.5-1.5-.5-1.5-.5v-.5-.5-.5-.5l-1.5-.5-1.5-.5-2-.5-2-.5-1.5-.5-1.5-.5h-2.5-2.5l-1.5-.5-1.5-.5-1-.5-1-.5-1 .5-1 .5-1.5-.5-1.5-.5-1-1-1-1-1.5-.5-1.5-.5h-1.5-1.5l-1.5.5-1.5.5h-2-2l-2-.5-2-.5h-1.5-1.5l-1.5-.5-1.5-.5h-2.5-2.5l-1.5-.5-1.5-.5-3-.5-3-.5h-1.5-1.5l-2 .5-2 .5-1.5.5-1.5.5-1.5-.5-1.5-.5-2-.5-2-.5h-2-2l-1.5-1-1.5-1h-2-2l-2-.5-2-.5h-2-2l-1.5-1-1.5-1 1-1 1-1 1.5-.5 1.5-.5 2-1 2-1v-.5-.5l2-1 2-1 1.5-.5 1.5-.5 1.5-.5 1.5-.5h1 1 1.5 1.5l1.5-.5 1.5-.5 1.5-1 1.5-1 1.5-.5 1.5-.5h2.5 2.5l1.5-.5 1.5-.5h2 2 1.5 1.5 1.5 1.5l-.5-1-.5-1h-2-2l-1.5-.5-1.5-.5-.5-1-.5-1 1.5-.5 1.5-.5h2 2l2 .5 2 .5 1.5.5 1.5.5h1.5 1.5 1.5 1.5 2 2 2 2 2 2l2.5.5 2.5.5.5-1 .5-1h1.5 1.5 1 1 1.5 1.5 2 2 1 1 1.5 1.5 2 2 2 2 1 1l1 .5 1 .5h2 2l.5.5.5.5 1.5 1 1.5 1 1 1 1 1-1.5.5-1.5.5-1.5 1-1.5 1h1.5 1.5 2.5 2.5v-2.5-2.5-2-2-2.5-2.5-1-1l-1.5-1.5-1.5-1.5-.5-6-.5-6-6 1.5-6 1.5 1 4 1 4-4.5 3-4.5 3-7.5.5-7.5.5-12 1-12 1-8-.5-8-.5-7.5.5-7.5.5-5-2.5-5-2.5 2.5-5.5 2.5-5.5 3-4.5 3-4.5h6 6l-1.5-5-1.5-5h-6-6l-.5-5-.5-5-2.5-3.5-2.5-3.5-6.5 1-6.5 1-6.5 1.5-6.5 1.5-6 1.5-6 1.5-6 2-6 2-5 2.5-5 2.5-5.5 2.5-5.5 2.5-4.5 3.5-4.5 3.5-7 2-7 2-7.5.5-7.5.5-8.5-.5-8.5-.5-5.5-3.5-5.5-3.5-7.5-1.5-7.5-1.5-7 2-7 2-1 .5-1 .5h-1-1l-.5.5-.5.5-.5.5-.5.5h-1-1l-.5.5-.5.5-1 .5-1 .5-.5.5-.5.5-.5.5-.5.5h-1-1l-.5 1-.5 1-.5.5-.5.5-.5.5-.5.5-.5.5-.5.5-1 .5-1 .5-.5.5-.5.5-.5.5-.5.5-1 .5-1 .5-5.5 3-5.5 3-1.5 6.5-1.5 6.5-7 1.5-7 1.5-7 2-7 2-7 2-7 2-7 2-7 2-6.5 2-6.5 2-7.5 1.5-7.5 1.5-7.5 1.5-7.5 1.5-7 2-7 2-7 1.5-7 1.5-7 2-7 2-8.5 2-8.5 2v1 1" />
        </g>
        <path d="m179 917l5-10-3.5-4.5-3.5-4.5-3.5-5-3.5-5 .5 1 .5 1 .5 1.5.5 1.5.5 1.5.5 1.5 1 1.5 1 1.5 1 1 1 1 1.5 1 1.5 1 1 1 1 1v2.5 2.5l-.5 1.5-.5 1.5-1.5-.5-1.5-.5-5.5-4-5.5-4-2.5-6-2.5-6 4-2 4-2-4.5 1-4.5 1 1.5 6.5 1.5 6.5 4 4 4 4 .5.5.5.5 1 1 1 1 .5.5.5.5 1.5 1 1.5 1" style="fill:#595448;stroke:#595448" />
        <path d="m290 917l1-1-1-1-1-1-1.5-1-1.5-1-1-1-1-1-1.5 1-1.5 1 1 1 1 1 1.5 1 1.5 1 1.5.5 1.5.5h.5.5" style="fill:#d7d3c5;stroke:#d7d3c5" />
        <path d="m0 916v1l8.5-2 8.5-2 7-2 7-2 7-1.5 7-1.5 7-2 7-2 7.5-1.5 7.5-1.5 7.5-1.5 7.5-1.5 6.5-2 6.5-2 7-2 7-2 7-2 7-2 7-2 7-2 7-1.5 7-1.5 1.5-6.5 1.5-6.5 5.5-3 5.5-3-6.5 2.5-6.5 2.5-3 6-3 6-6.5 2.5-6.5 2.5-7.5 1.5-7.5 1.5-6.5 2-6.5 2-7 2-7 2-7 2-7 2-7 2-7 2-7 1.5-7 1.5-7 2-7 2-7.5 1.5-7.5 1.5-7 2-7 2-6.5 1.5-6.5 1.5" style="fill:#595448;stroke:#595448" />
        <path d="m0 915v1l6.5-1.5 6.5-1.5 7-2 7-2 7.5-1.5 7.5-1.5 7-2 7-2 7-1.5 7-1.5 7-2 7-2 7-2 7-2 7-2 7-2 6.5-2 6.5-2 7.5-1.5 7.5-1.5 6.5-2.5 6.5-2.5 3-6 3-6 6.5-2.5 6.5-2.5v-.5-.5l1-.5 1-.5 1-1 1-1 1-1 1-1 1-1.5 1-1.5 1.5-.5 1.5-.5 1.5-1 1.5-1 1-1 1-1 1.5-1 1.5-1h3 3l5.5-2.5 5.5-2.5 7 1 7 1 6.5 2.5 6.5 2.5v-2.5-2.5l2-4.5 2-4.5 4-4 4-4 4.5-3 4.5-3 5.5-3 5.5-3 5-3.5 5-3.5 4.5-3 4.5-3 5.5-2.5 5.5-2.5 5-2.5 5-2.5 5.5-3 5.5-3 4.5-4 4.5-4 6-3 6-3 5-4 5-4 5.5-3.5 5.5-3.5 5.5-3 5.5-3 5.5-3.5 5.5-3.5 5.5-3.5 5.5-3.5 6.5-2.5 6.5-2.5 5-3 5-3-1-2-1-2-5 2.5-5 2.5-5.5 3.5-5.5 3.5-6 1.5-6 1.5-4 5-4 5-6.5 2.5-6.5 2.5-5 4-5 4-6 2.5-6 2.5-5.5 3.5-5.5 3.5-5.5 3.5-5.5 3.5-4.5 4.5-4.5 4.5-5.5 3-5.5 3-5.5 2-5.5 2-5 3.5-5 3.5-5.5 2-5.5 2-6.5 1.5-6.5 1.5-4 5-4 5-4 5-4 5-4 4.5-4 4.5-7.5-1.5-7.5-1.5-6 3-6 3-9.5 2.5-9.5 2.5-4.5-4-4.5-4-6-.5-6-.5-6-2-6-2-5.5-2-5.5-2-6.5-1.5-6.5-1.5-5.5-2-5.5-2h-8-8l-6.5-1.5-6.5-1.5-6-1.5-6-1.5h-8-8l-4.5-3-4.5-3-6-2-6-2-7-1-7-1-10.5-1.5-10.5-1.5v8.5 8.5 9 9 9 9 9 9 9 9 8.5 8.5 2 2l1.5-.5 1.5-.5h1 1 1 1 1 1l.5-.5.5-.5h1.5 1.5l1.5.5 1.5.5-.5.5-.5.5-1 .5-1 .5-1.5.5-1.5.5h-1-1l-1 .5-1 .5-1.5.5-1.5.5h-1.5-1.5v1 1" style="fill:#3f3428;stroke:#3f3428" />
        <g style="fill:#9a9488;stroke:#9a9488">
            <path d="m462 915l2 1v-1-1h-1.5-1.5l-.5-.5-.5-.5-1.5-.5-1.5-.5-1-.5-1-.5h-1-1l-1.5-.5-1.5-.5-1-.5-1-.5h-1-1-1.5-1.5l2 .5 2 .5 1.5.5 1.5.5 2 .5 2 .5 1.5.5 1.5.5 1.5.5 1.5.5 1 .5 1 .5" />
            <path d="m18 914v1h1.5 1.5 1 1l.5-.5.5-.5 1-.5 1-.5h1 1l.5-.5.5-.5h1 1 1 1l1-.5 1-.5h1 1l.5-.5.5-.5h1 1l1-.5 1-.5h-2-2l-.5.5-.5.5h-1-1-1-1l-1 .5-1 .5h-1-1l-.5.5-.5.5h-1-1l-1.5.5-1.5.5-1 .5-1 .5h-1.5-1.5" />
        </g>
        <path d="m0 912v1h1.5 1.5l1.5-.5 1.5-.5 1-.5 1-.5h1 1l1.5-.5 1.5-.5 1-.5 1-.5.5-.5.5-.5-1.5-.5-1.5-.5h-1.5-1.5l-.5.5-.5.5h-1-1-1-1-1-1l-1.5.5-1.5.5v1.5 1.5" style="fill:#371c11;stroke:#371c11" />
        <path d="m178 912l3 1 .5-1.5.5-1.5v-2.5-2.5l-1-1-1-1-1.5-1-1.5-1-1-1-1-1-1-1.5-1-1.5-.5-1.5-.5-1.5-.5-1.5-.5-1.5-.5-1-.5-1-4 2-4 2 2.5 6 2.5 6 5.5 4 5.5 4" style="fill:#3f3428;stroke:#3f3428" />
        <path d="m463 911l1 1v-2.5-2.5h-2-2-1-1-1-1l-1.5-.5-1.5-.5h-.5-.5-1.5-1.5-1.5-1.5v.5.5l1.5.5 1.5.5 1.5.5 1.5.5 2 .5 2 .5h2 2l1.5.5 1.5.5" style="fill:#76342a;stroke:#76342a" />
        <path d="m267 908l3-4-8-1-8-1 4.5 2.5 4.5 2.5 2 .5 2 .5" style="fill:#d7d3c5;stroke:#d7d3c5" />
        <path d="m336 908l10-5-6.5-2.5-6.5-2.5-4 1-4 1 5 4 5 4h.5.5" style="fill:#9a9488;stroke:#9a9488" />
        <path d="m453 906l3 1h1 1 1 1 2 2v-2-2l-2-.5-2-.5-7-2-7-2-6.5-2.5-6.5-2.5-6.5-2.5-6.5-2.5-3.5-4.5-3.5-4.5h-2-2-1-1-1-1-1.5-1.5l-1-.5-1-.5-3 4-3 4 5 4 5 4 8.5 1.5 8.5 1.5h1.5 1.5 1 1l1 .5 1 .5h1 1 1 1l.5.5.5.5h1 1l1 .5 1 .5h1 1 1 1l.5.5.5.5h1 1l1 .5 1 .5h1 1l.5.5.5.5.5.5.5.5 1 1 1 1h.5.5" style="fill:#7c2100;stroke:#7c2100" />
        <path d="m161 905l2 1-1-2-1-2-.5-.5-.5-.5-1-2-1-2v-2.5-2.5l.5-1.5.5-1.5v-2.5-2.5l-.5-1.5-.5-1.5-1-1-1-1-2.5 1-2.5 1 3 .5 3 .5v2 2 2.5 2.5l-.5 1.5-.5 1.5v2.5 2.5l.5 1.5.5 1.5 1.5.5 1.5.5.5 1 .5 1" style="fill:#bbb7ab;stroke:#bbb7ab" />
        <path d="m446 905v1h1.5 1.5 1.5 1.5l-1-1-1-1-.5-.5-.5-.5-.5-.5-.5-.5h-1-1l-1-.5-1-.5h-1-1l-.5-.5-.5-.5h-1-1-1-1l-1-.5-1-.5h-1-1l-.5-.5-.5-.5h-1-1-1-1l-1-.5-1-.5h-1-1-1.5-1.5l1.5 1 1.5 1 1 .5 1 .5 1 .5 1 .5 1.5.5 1.5.5h2.5 2.5l1.5.5 1.5.5 2 .5 2 .5 1.5.5 1.5.5" style="fill:#571701;stroke:#571701" />
        <g style="fill:#371c11;stroke:#371c11">
            <path d="m27 904h15l.5-2.5.5-2.5-6.5 2.5-6.5 2.5h-1.5-1.5" />
            <path d="m170 903h2l-.5-1.5-.5-1.5-1-1.5-1-1.5-.5-1.5-.5-1.5v-2.5-2.5l-1.5-.5-1.5-.5v2.5 2.5l.5 1.5.5 1.5.5 1.5.5 1.5 1 1.5 1 1.5.5.5.5.5" />
        </g>
        <path d="m460 902l4 1v-1.5-1.5-2.5-2.5-2-2-2.5-2.5-2-2l-1-.5-1-.5h-1-1l-1 .5-1 .5h-2-2l-1.5-.5-1.5-.5h-2-2l-1-.5-1-.5-1.5-.5-1.5-.5h-1-1l.5 2 .5 2-1.5.5-1.5.5-2-.5-2-.5-1.5-.5-1.5-.5h-2-2l-.5.5-.5.5h-1.5-1.5l-1 .5-1 .5v-1-1-1.5-1.5h-1.5-1.5-2.5-2.5l3.5 4.5 3.5 4.5 6.5 2.5 6.5 2.5 6.5 2.5 6.5 2.5 7 2 7 2" style="fill:#ad3100;stroke:#ad3100" />
        <g style="fill:#9a9488;stroke:#9a9488">
            <path d="m160 901l1 1-.5-9.5-.5-9.5-4.5-2-4.5-2-5.5 2.5-5.5 2.5h1.5 1.5l1.5-.5 1.5-.5 1-1 1-1h1.5 1.5l2.5-1 2.5-1 1 1 1 1 .5 1.5.5 1.5v2.5 2.5l-.5 1.5-.5 1.5v2.5 2.5l1 2 1 2" />
            <path d="m418 901l2 1-8-1.5-8-1.5-6.5-1-6.5-1-7.5-.5-7.5-.5h-6.5-6.5l-7-1.5-7-1.5-5-2.5-5-2.5 5-2.5 5-2.5 3-4 3-4-6-.5-6-.5-7.5-.5-7.5-.5-5.5-2-5.5-2-3.5-5-3.5-5-6-2.5-6-2.5-6.5-1-6.5-1-7-1-7-1-7 .5-7 .5-8-.5-8-.5-6.5-2.5-6.5-2.5-6-2.5-6-2.5 8 4.5 8 4.5 6 1.5 6 1.5h8.5 8.5l7.5 1 7.5 1 6.5 1 6.5 1 7 1 7 1 3.5 4 3.5 4 4.5 4 4.5 4 8 .5 8 .5h7.5 7.5l-1.5 3.5-1.5 3.5-6 1.5-6 1.5 2 4 2 4 4.5 2 4.5 2 7.5.5 7.5.5h6.5 6.5 7 7l6.5 1 6.5 1 7.5.5 7.5.5" />
        </g>
        <path d="m424 901l2-1-1-.5-1-.5-1.5-1-1.5-1-8.5-1.5-8.5-1.5-5-4-5-4 3-4 3-4-1-1-1-1h-1.5-1.5-2.5-2.5l-1.5.5-1.5.5-1.5 1-1.5 1 .5 1 .5 1 1 1 1 1 1 .5 1 .5.5.5.5.5v1 1l-.5.5-.5.5-1.5-.5-1.5-.5h-1.5-1.5l-1-.5-1-.5v-2-2l-1.5-1-1.5-1-1.5-.5-1.5-.5h-1-1l-.5 1-.5 1-1 .5-1 .5-1 .5-1 .5-1 1-1 1h3 3l1-.5 1-.5 1 1 1 1 1 1.5 1 1.5 1 1 1 1 1 .5 1 .5-2 .5-2 .5h2 2 2 2l1.5.5 1.5.5h2 2l2 .5 2 .5 1.5.5 1.5.5h2 2l2 .5 2 .5 1.5-.5 1.5-.5 2.5.5 2.5.5 1.5.5 1.5.5 1 1 1 1 1.5.5 1.5.5" style="fill:#76342a;stroke:#76342a" />
        <g style="fill:#9a9488;stroke:#9a9488">
            <path d="m83 899v1l10-2.5 10-2.5 6-2 6-2 6-1.5 6-1.5 6.5-2 6.5-2-8 1.5-8 1.5-6.5 2-6.5 2-7 2-7 2-7 2-7 2" />
            <path d="m307 897l12-3-4.5-4.5-4.5-4.5h-9-9l-3.5 3.5-3.5 3.5 6.5 2 6.5 2 4.5.5 4.5.5" />
        </g>
        <path d="m402 897l4 1h2 2l1.5-.5 1.5-.5h1.5 1.5l-2.5-.5-2.5-.5-1.5.5-1.5.5-2-.5-2-.5h-2-2l-1.5-.5-1.5-.5-2-.5-2-.5h-2-2-3.5-3.5l3 .5 3 .5 1.5.5 1.5.5h2.5 2.5l1.5.5 1.5.5h1.5 1.5" style="fill:#735e4f;stroke:#735e4f" />
        <path d="m307 895l7-6-8-1-8-1-2.5 2.5-2.5 2.5 7 1.5 7 1.5" style="fill:#7f7569;stroke:#7f7569" />
        <path d="m369 895l3 1 1.5-.5 1.5-.5 2-.5 2-.5h1.5 1.5 3.5 3.5l-1.5-.5-1.5-.5h-2-2-2-2-2-2-2.5-2.5l-1.5-.5-1.5-.5-2-.5-2-.5h-1-1l-.5-.5-.5-.5-.5-.5-.5-.5h-1.5-1.5l-1.5-.5-1.5-.5.5-.5.5-.5 1-.5 1-.5 1.5-.5 1.5-.5h1 1l.5.5.5.5h1 1l1.5-.5 1.5-.5 1-1 1-1 1-.5 1-.5-2-.5-2-.5-2 .5-2 .5h-2-2l-1.5.5-1.5.5-1.5.5-1.5.5-2 1-2 1-1.5.5-1.5.5-1 1-1 1 1.5 1 1.5 1h2 2l2 .5 2 .5h2 2l1.5 1 1.5 1h2 2l2 .5 2 .5" style="fill:#595448;stroke:#595448" />
        <path d="m366 892l3 1h2.5 2.5 2 2l2-.5 2-.5-1-.5-1-.5-1-1-1-1-1.5.5-1.5.5-2-.5-2-.5-.5-1-.5-1 1-1 1-1h-3-3l-1.5.5-1.5.5h-1-1l-.5-.5-.5-.5h-1-1l-1.5.5-1.5.5-1 .5-1 .5-.5.5-.5.5 1.5.5 1.5.5h1.5 1.5l.5.5.5.5.5.5.5.5h1 1l2 .5 2 .5" style="fill:#3f3428;stroke:#3f3428" />
        <path d="m371 889l4 1 1.5-.5 1.5-.5-1-1.5-1-1.5-1-1-1-1-1 .5-1 .5-1 1-1 1 .5 1 .5 1" style="fill:#571701;stroke:#571701" />
        <path d="m94 888l13-2 2.5-2.5 2.5-2.5-6.5 2.5-6.5 2.5-2.5 1-2.5 1" style="fill:#371c11;stroke:#371c11" />
        <path d="m386 887l3 1 .5-.5.5-.5v-1-1l-.5-.5-.5-.5-1-.5-1-.5-1-1-1-1-2 .5-2 .5v2 2l1 .5 1 .5h1.5 1.5" style="fill:#9c5951;stroke:#9c5951" />
        <path d="m421 884l2-1h1.5 1.5l.5-.5.5-.5h2 2l1.5.5 1.5.5 2 .5 2 .5 1.5-.5 1.5-.5-.5-2-.5-2-.5-1-.5-1h-1.5-1.5-2-2-1-1l-1 .5-1 .5-1.5.5-1.5.5-.5.5-.5.5-1.5-.5-1.5-.5v1.5 1.5 1 1" style="fill:#7c2100;stroke:#7c2100" />
        <path d="m352 883v1l1.5-.5 1.5-.5 1.5-.5 1.5-.5h2 2l2-.5 2-.5 2 .5 2 .5 1-.5 1-.5.5-1 .5-1h1 1l1.5.5 1.5.5 1.5 1 1.5 1 2-.5 2-.5-.5-1-.5-1 1.5-1 1.5-1 1.5-.5 1.5-.5h2.5 2.5l-2-1-2-1h-1.5-1.5-2-2l-1.5.5-1.5.5h-2.5-2.5l-1.5.5-1.5.5-1.5 1-1.5 1-1.5.5-1.5.5h-1.5-1.5-1-1l-1.5.5-1.5.5-1.5.5-1.5.5-2 1-2 1" style="fill:#735e4f;stroke:#735e4f" />
        <path d="m169 882l1 1-.5-1.5-.5-1.5-.5-.5-.5-.5-.5-.5-.5-.5-1-1-1-1-.5-1-.5-1-.5-.5-.5-.5v-2-2-1.5-1.5l.5-.5.5-.5 1.5-.5 1.5-.5 1-.5 1-.5h1 1l.5-.5.5-.5.5-.5.5-.5 1-1 1-1-1 .5-1 .5-1.5 1-1.5 1-1.5.5-1.5.5-2 .5-2 .5-1 1-1 1v2.5 2.5l.5 1.5.5 1.5.5 1.5.5 1.5 1.5 1 1.5 1 1.5 1.5 1.5 1.5" style="fill:#9a9488;stroke:#9a9488" />
        <path d="m451 881l3 1h2 2l1-.5 1-.5h1 1l1 .5 1 .5v-2-2h-2.5-2.5l-.5 1-.5 1h-1.5-1.5l-.5.5-.5.5h-1.5-1.5" style="fill:#9b3726;stroke:#9b3726" />
        <path d="m179 880l4-11-5.5 1.5-5.5 1.5 3.5 4 3.5 4" style="fill:#9a9488;stroke:#9a9488" />
        <path d="m445 880l2 1v-.5-.5l-.5-1-.5-1-1-.5-1-.5-1-.5-1-.5-1.5-.5-1.5-.5h-1.5-1.5l-.5-.5-.5-.5h-1-1l-.5.5-.5.5h-1.5-1.5l-.5.5-.5.5h-1-1-1-1-1-1-1-1-1.5-1.5-1-1-1-1-1-1-1.5-1.5-1-1-1-1-1-1-2-2l1 1 1 1 1 .5 1 .5h1.5 1.5 1 1 1 1 2 2 2.5 2.5 1.5 1.5l1.5.5 1.5.5.5-.5.5-.5 1.5-.5 1.5-.5 1-.5 1-.5h1 1 2 2 1.5 1.5l.5 1 .5 1h1 1l1.5.5 1.5.5" style="fill:#9b3726;stroke:#9b3726" />
        <path d="m447 880v1h2 2 1.5 1.5l.5-.5.5-.5h1.5 1.5l.5-1 .5-1h-1.5-1.5-1.5-1.5-1-1l-1.5-.5-1.5-.5h-1-1-1-1l1 .5 1 .5.5 1 .5 1" style="fill:#bf3e32;stroke:#bf3e32" />
        <path d="m448 877l3 1h1 1 1.5 1.5l1.5-1 1.5-1 1.5-.5 1.5-.5-1-1-1-1-1.5.5-1.5.5h-1.5-1.5-1-1-1-1l-1.5-.5-1.5-.5-1.5-.5-1.5-.5-1-.5-1-.5-.5.5-.5.5-.5-.5-.5-.5h-1-1-1.5-1.5-2-2-1-1-1.5-1.5-2-2l-2.5-.5-2.5-.5h-2-2-2-2-2-2-1.5-1.5l-2 1-2 1h-2.5-2.5l.5 1 .5 1h9 9 7.5 7.5l9.5 1.5 9.5 1.5h1 1" style="fill:#b47269;stroke:#b47269" />
        <path d="m132 876l3 1h2 2 2.5 2.5v-1-1l-2-.5-2-.5-1.5.5-1.5.5-2 .5-2 .5h-.5-.5" style="fill:#371c11;stroke:#371c11" />
        <path d="m168 876h2v-2-2l.5-2 .5-2 .5-1.5.5-1.5-2 .5-2 .5-1.5.5-1.5.5-.5 2-.5 2 1 1 1 1 .5 1.5.5 1.5h.5.5" style="fill:#d7d3c5;stroke:#d7d3c5" />
        <path d="m177 876h2l1-1 1-1-.5-2-.5-2-1.5-.5-1.5-.5-1.5 1-1.5 1v2 2l1.5.5 1.5.5" style="fill:#7f7569;stroke:#7f7569" />
        <path d="m442 876l2 1h1 1l-9.5-1.5-9.5-1.5h-7.5-7.5-9-9-1.5-1.5l2 1 2 1h1.5 1.5 2 2 1 1 1 1 1 1 1.5 1.5 1 1 1 1 1 1 1.5 1.5 1 1 1 1 1 1 1 1l.5-.5.5-.5h1.5 1.5l.5-.5.5-.5h1 1l.5.5.5.5h1.5 1.5l1.5.5 1.5.5" style="fill:#9c5951;stroke:#9c5951" />
        <path d="m150 873h2l1.5-.5 1.5-.5v-1.5-1.5l-1-1-1-1-1 1.5-1 1.5-1 1-1 1 .5.5.5.5" style="fill:#371c11;stroke:#371c11" />
        <g style="fill:#9a9488;stroke:#9a9488">
            <path d="m447 873l3 1h1 1 1 1 1.5 1.5l1.5-.5 1.5-.5-1.5-1-1.5-1-.5-.5-.5-.5h-2-2l-1-.5-1-.5h-1-1-2-2-2-2-1.5-1.5-1-1-2-2-1.5-1.5-1-1-1.5-1.5l-.5 1-.5 1h2 2 1.5 1.5 1 1 2 2 1.5 1.5 1 1l.5.5.5.5.5-.5.5-.5 1 .5 1 .5 1.5.5 1.5.5" />
            <path d="m386 871l3 1h2 2 2.5 2.5l2-1 2-1h-1.5-1.5l-1.5-.5-1.5-.5-2-.5-2-.5h-2-2l-1.5.5-1.5.5.5 1 .5 1" />
        </g>
        <path d="m330 870l3 1h2 2 2.5 2.5 2 2 .5.5v-.5-.5l1-.5 1-.5-1.5-.5-1.5-.5-1-1-1-1h-2-2-2.5-2.5l-1.5.5-1.5.5-2 1.5-2 1.5h1 1" style="fill:#595448;stroke:#595448" />
        <g style="fill:#735e4f;stroke:#735e4f">
            <path d="m347 870v1l2-3 2-3-7.5-.5-7.5-.5-5 3-5 3h1 1l2-1.5 2-1.5 1.5-.5 1.5-.5h2.5 2.5 2 2l1 1 1 1 1.5.5 1.5.5-1 .5-1 .5" />
            <path d="m402 867l24-2 7.5-.5 7.5-.5 4.5-3 4.5-3-1-4-1-4 6-1.5 6-1.5.5 6 .5 6 1.5 1.5 1.5 1.5v-2.5-2.5-2.5-2.5-2-2-2-2l-6.5.5-6.5.5-5 3.5-5 3.5-9 5.5-9 5.5 1.5-5.5 1.5-5.5 3.5-4.5 3.5-4.5 3-4.5 3-4.5 4.5-3.5 4.5-3.5 8-4 8-4v-1-1l-5 1.5-5 1.5-5 3.5-5 3.5-4 3.5-4 3.5-4 4.5-4 4.5-4 4-4 4v-3-3l2.5-5 2.5-5-.5-7-.5-7 1-7.5 1-7.5-.5-7-.5-7 1-6.5 1-6.5 1-7 1-7 3.5-9 3.5-9-.5-2.5-.5-2.5-.5-1.5-.5-1.5-1-1.5-1-1.5-.5-1.5-.5-1.5-1-1-1-1-1-1.5-1-1.5-.5-1.5-.5-1.5-1-1.5-1-1.5-1-1-1-1-1-.5-1-.5-.5 1-.5 1v1.5 1.5l-.5 1-.5 1-.5.5-.5.5-.5 1-.5 1h-2-2-1-1-1-1-1-1-1.5-1.5l-1 1-1 1h-1-1l-.5 1-.5 1 1.5-.5 1.5-.5.5-.5.5-.5h1 1l.5-.5.5-.5h1 1 1.5 1.5l.5.5.5.5.5.5.5.5v1 1l-.5.5-.5.5-1 .5-1 .5h-1-1l-.5.5-.5.5h-1-1l-1 .5-1 .5-.5.5-.5.5-.5.5-.5.5-1.5-.5-1.5-.5-1-1.5-1-1.5-3.5 4.5-3.5 4.5 6-1.5 6-1.5 6-3 6-3 4.5.5 4.5.5 1.5 7 1.5 7 .5 7.5.5 7.5-1 8-1 8-.5 7.5-.5 7.5.5 8 .5 8-1.5 7.5-1.5 7.5-1 7-1 7-5.5 3.5-5.5 3.5-7 1-7 1-4.5 1-4.5 1 7 2 7 2h2 2l1.5.5 1.5.5 7.5 1.5 7.5 1.5-6 2-6 2h-9-9l-7-.5-7-.5-6-3.5-6-3.5 4-4.5 4-4.5 5.5-.5 5.5-.5 2-5 2-5-5-4-5-4-3-3.5-3-3.5-3.5-4.5-3.5-4.5h-7-7l-5.5-.5-5.5-.5-6.5 2.5-6.5 2.5-7.5-1-7.5-1-5.5 3.5-5.5 3.5 2 3 2 3-6.5 2.5-6.5 2.5-5 3.5-5 3.5-6 4-6 4 7-2 7-2 4.5-3.5 4.5-3.5 5.5-2.5 5.5-2.5 5-2.5 5-2.5 6-2 6-2 6-1.5 6-1.5 6.5-1.5 6.5-1.5 6.5-1 6.5-1 2.5 3.5 2.5 3.5.5 5 .5 5h6 6l1.5 5 1.5 5h-6-6l-3 4.5-3 4.5-2.5 5.5-2.5 5.5 5 2.5 5 2.5 7.5-.5 7.5-.5 8 .5 8 .5" />
        </g>
        <g style="fill:#d7d3c5;stroke:#d7d3c5">
            <path d="m292 865l3 1h2 2l1.5-1 1.5-1-.5-1.5-.5-1.5-2-.5-2-.5h-2-2l-1.5 1-1.5 1 .5 1.5.5 1.5h.5.5" />
            <path d="m173 864l14 1 4.5-4.5 4.5-4.5 6-3 6-3 3.5-4.5 3.5-4.5-6 2.5-6 2.5-7 2-7 2-5 4-5 4-3 3-3 3" />
        </g>
        <path d="m376 864l14 1h9 9l6-2 6-2-7.5-1.5-7.5-1.5 1.5.5 1.5.5.5 1 .5 1-1 1-1 1-.5.5-.5.5h-1.5-1.5-2-2l-1.5-.5-1.5-.5-1.5-.5-1.5-.5-.5-1-.5-1 .5-.5.5-.5h1 1l.5-.5.5-.5 1-.5 1-.5-7-2-7-2 4.5-1 4.5-1 7-1 7-1 5.5-3.5 5.5-3.5 1-7 1-7 1.5-7.5 1.5-7.5-.5-8-.5-8 .5-7.5.5-7.5 1-8 1-8-.5-7.5-.5-7.5-1.5-7-1.5-7-4.5-.5-4.5-.5-6 3-6 3-6 1.5-6 1.5 3.5-4.5 3.5-4.5 1.5-1.5 1.5-1.5.5-1 .5-1h1 1l1-1 1-1h1.5 1.5 1 1 1 1 1 1 2 2l.5-1 .5-1 .5-.5.5-.5.5-1 .5-1v-1.5-1.5h-1-1-.5-.5l-5 3-5 3-6.5 2.5-6.5 2.5-5.5 3.5-5.5 3.5-5.5 3.5-5.5 3.5-5.5 3-5.5 3-5.5 3.5-5.5 3.5-5 4-5 4-6 3-6 3-4.5 4-4.5 4-5.5 3-5.5 3-5 2.5-5 2.5-5.5 2.5-5.5 2.5-4.5 3-4.5 3-5 3.5-5 3.5-5.5 3-5.5 3-4.5 3-4.5 3-4 4-4 4-2 4.5-2 4.5v2.5 2.5l-6.5-2.5-6.5-2.5-7-1-7-1-5.5 2.5-5.5 2.5 7-2 7-2 7.5 1.5 7.5 1.5 5.5 3.5 5.5 3.5 8.5.5 8.5.5 7.5-.5 7.5-.5 6-4 6-4 5-3.5 5-3.5 6.5-2.5 6.5-2.5-2-3-2-3 5.5-3.5 5.5-3.5 7.5 1 7.5 1 6.5-2.5 6.5-2.5 5.5.5 5.5.5h7 7l3.5 4.5 3.5 4.5 3 3.5 3 3.5 5 4 5 4-2 5-2 5-5.5.5-5.5.5-4 4.5-4 4.5 6 3.5 6 3.5" style="fill:#595448;stroke:#595448" />
        <path d="m396 863l3 1h2 2 1.5 1.5l.5-.5.5-.5 1-1 1-1-.5-1-.5-1-1.5-.5-1.5-.5-1.5-.5-1.5-.5h-2-2l-1 .5-1 .5-.5.5-.5.5h-1-1l-.5.5-.5.5.5 1 .5 1 1.5.5 1.5.5" style="fill:#76342a;stroke:#76342a" />
        <path d="m423 863l18-11 5-3.5 5-3.5 6.5-.5 6.5-.5v-2-2l-1-.5-1-.5h-1-1-1-1-1-1-1.5-1.5-1-1l-.5.5-.5.5h-1-1l-1 .5-1 .5-.5.5-.5.5h-1-1-1-1l-.5-1-.5-1 1-1 1-1 1-1 1-1 1.5-1 1.5-1 1-1 1-1 1.5-1 1.5-1 1-1.5 1-1.5.5-1 .5-1 1-.5 1-.5h2 2 1.5 1.5v-2.5-2.5l-8 4-8 4-4.5 3.5-4.5 3.5-3 4.5-3 4.5-3.5 4.5-3.5 4.5-1.5 5.5-1.5 5.5" style="fill:#595448;stroke:#595448" />
        <path d="m316 858l10-5 1.5-2.5 1.5-2.5-7.5.5-7.5.5-5.5 1.5-5.5 1.5 2.5 1.5 2.5 1.5-.5-1-.5-1 .5-.5.5-.5h1.5 1.5 2 2 1 1l1 .5 1 .5 1.5.5 1.5.5-.5.5-.5.5-1 .5-1 .5-1.5.5-1.5.5h-1.5-1.5l1 .5 1 .5h.5.5" style="fill:#735e4f;stroke:#735e4f" />
        <path d="m172 857v1l1-.5 1-.5.5-.5.5-.5.5-.5.5-.5 1-.5 1-.5.5-.5.5-.5.5-.5.5-.5.5-.5.5-.5.5-1 .5-1h1 1l.5-.5.5-.5.5-.5.5-.5 1-.5 1-.5.5-.5.5-.5h1 1l.5-.5.5-.5.5-.5.5-.5h1 1l1-.5 1-.5h-3-3l-1.5 1-1.5 1-1 1-1 1-1.5 1-1.5 1-1.5.5-1.5.5-1 1.5-1 1.5-1 1-1 1-1 1-1 1-1 .5-1 .5" style="fill:#595448;stroke:#595448" />
        <path d="m166 856l3 1 1-1 1-1 1.5-1 1.5-1-.5-1.5-.5-1.5-2 .5-2 .5-1 1-1 1-.5 1.5-.5 1.5" style="fill:#371c11;stroke:#371c11" />
        <path d="m313 856v1h1.5 1.5l1.5-.5 1.5-.5 1-.5 1-.5.5-.5.5-.5-1.5-.5-1.5-.5-1-.5-1-.5h-1-1-2-2-1.5-1.5l-.5.5-.5.5.5 1 .5 1 2 .5 2 .5h.5.5" style="fill:#595448;stroke:#595448" />
        <path d="m420 851l8-8 4-4.5 4-4.5 4-3.5 4-3.5 5-3.5 5-3.5 5-1.5 5-1.5v-2-2-2.5-2.5-2-2-2.5-2.5-2-2-2-2-2-2l-1 .5-1 .5-4-5-4-5-2.5-5-2.5-5-3.5-4.5-3.5-4.5-3-6-3-6-3.5 9-3.5 9-1 7-1 7-1 6.5-1 6.5.5 7 .5 7-1 7.5-1 7.5.5 7 .5 7-2.5 5-2.5 5v3 3" style="fill:#7f7569;stroke:#7f7569" />
        <path d="m340 848l3 1 1.5-.5 1.5-.5 1.5-1 1.5-1 1.5-.5 1.5-.5-.5-1-.5-1h-2-2l-2 .5-2 .5-1 1-1 1-.5 1-.5 1" style="fill:#735e4f;stroke:#735e4f" />
        <path d="m404 846l3 1 1.5-.5 1.5-.5v-1.5-1.5l1-1 1-1 1.5-1 1.5-1-.5-1.5-.5-1.5-1-1.5-1-1.5-.5-.5-.5-.5-2 1-2 1-1.5 1-1.5 1-1 1-1 1-1 1.5-1 1.5-1 .5-1 .5 1 1 1 1h1 1l1 1 1 1" style="fill:#76342a;stroke:#76342a" />
        <path d="m181 844l19-5 6-3 6-3 7.5 1.5 7.5 1.5 4-4.5 4-4.5 4-5 4-5 4-5 4-5 6.5-1.5 6.5-1.5 5.5-2 5.5-2 5-3.5 5-3.5 5.5-2 5.5-2 5.5-3 5.5-3 4.5-4.5 4.5-4.5 5.5-3.5 5.5-3.5 5.5-3.5 5.5-3.5 6-2.5 6-2.5 5-4 5-4 6.5-2.5 6.5-2.5 4-5 4-5 6-1.5 6-1.5 5.5-3.5 5.5-3.5 5-2.5 5-2.5-4-3-4-3-3.5-4.5-3.5-4.5-6 1.5-6 1.5-3.5 3.5-3.5 3.5-3.5 4-3.5 4-3 5-3 5-6-.5-6-.5-3.5 4.5-3.5 4.5-5 2.5-5 2.5-5.5 2.5-5.5 2.5-4.5 3-4.5 3-5 3-5 3-4.5 3.5-4.5 3.5-5 2.5-5 2.5-8.5 2.5-8.5 2.5-6-2-6-2-4-4-4-4-2.5-5-2.5-5-3.5-4.5-3.5-4.5-3.5-4-3.5-4-2.5-5.5-2.5-5.5-4-4-4-4-4.5-3-4.5-3-1.5-5.5-1.5-5.5-4.5-3.5-4.5-3.5-2-5.5-2-5.5-2.5-5.5-2.5-5.5-1.5-6-1.5-6-1.5-6.5-1.5-6.5-2-5.5-2-5.5-1.5-6.5-1.5-6.5-2-5.5-2-5.5-3-5-3-5-2.5-5-2.5-5-2-6-2-6v-6.5-6.5l-1.5-6.5-1.5-6.5-.5-7-.5-7-1.5-6.5-1.5-6.5-1-6.5-1-6.5-1-7-1-7v-7.5-7.5l-1-7-1-7-1.5-5-1.5-5 4.5-6.5 4.5-6.5-7.5 1.5-7.5 1.5-6 1.5-6 1.5h-6-6l-5 1.5-5 1.5 3.5 5 3.5 5 .5 4 .5 4-3.5 5-3.5 5-6-2.5-6-2.5-4.5-3.5-4.5-3.5-4.5-3-4.5-3 .5-4.5.5-4.5 3.5-4 3.5-4 5.5.5 5.5.5 1-3.5 1-3.5-2-8-2-8v1.5 1.5l-.5 1-.5 1v2 2h-1-1l-2-6-2-6-.5-6-.5-6-4.5-.5-4.5-.5-4.5-3-4.5-3-4.5 2.5-4.5 2.5-5 2.5-5 2.5-5 3-5 3-5 1.5-5 1.5-6-1-6-1-6.5-2-6.5-2v8 8 9 9 9 9 8.5 8.5 8 8l4-4 4-4 2-5.5 2-5.5 4-3.5 4-3.5 5.5-2.5 5.5-2.5 6 1.5 6 1.5 6.5 1.5 6.5 1.5 6.5 1 6.5 1 7.5.5 7.5.5 1.5 4 1.5 4 2.5 5 2.5 5 6.5 1 6.5 1 4 3.5 4 3.5-3.5 2.5-3.5 2.5-2.5 5-2.5 5-2 3-2 3-2.5 5-2.5 5-5 1.5-5 1.5-2.5 6-2.5 6-.5 4-.5 4-5.5-2.5-5.5-2.5-.5-5-.5-5-4-4-4-4-5.5-2-5.5-2-1.5-4.5-1.5-4.5-1.5-5-1.5-5-6 2.5-6 2.5 2 4.5 2 4.5 2.5 4 2.5 4 6.5 1.5 6.5 1.5-3 3.5-3 3.5v4 4l3.5 3 3.5 3h-6.5-6.5l-5 3-5 3-1-1-1-1-.5-.5-.5-.5-.5-.5-.5-.5-1-.5-1-.5-.5-.5-.5-.5-.5-.5-.5-.5-.5-.5-.5-.5h-1.5-1.5l-.5-.5-.5-.5h-1-1l-.5-.5-.5-.5h-1.5-1.5-2-2-1-1l-.5 1-.5 1v2 2l-.5 1.5-.5 1.5v10 10 9 9 8.5 8.5 7 7l4.5.5 4.5.5 6-1.5 6-1.5 5.5 1.5 5.5 1.5-4 4-4 4-6.5 1.5-6.5 1.5h-1.5-1.5l-2-.5-2-.5-2 .5-2 .5v9 9 9 9 9 9 8.5 8.5 9 9 9 9 9 9 8.5 8.5 3.5 3.5l10.5 1.5 10.5 1.5 7 1 7 1 6 2 6 2 4.5 3 4.5 3h8 8l6 1.5 6 1.5 6.5 1.5 6.5 1.5h8 8l5.5 2 5.5 2 6.5 1.5 6.5 1.5 5.5 2 5.5 2 6 2 6 2 6 .5 6 .5 4.5 4 4.5 4" style="fill:#371c11;stroke:#371c11" />
        <g style="fill:#3f3428;stroke:#3f3428">
            <path d="m441 842h2 1 1l.5-.5.5-.5 1-.5 1-.5h1 1l.5-.5.5-.5h1 1 1.5 1.5 1 1 1 1 1 1l1 .5 1 .5v-1.5-1.5l-.5-.5-.5-.5-1-1-1-1v-2-2l-.5-.5-.5-.5-.5-1-.5-1h-2.5-2.5l-1 1.5-1 1.5-1.5 1-1.5 1-1 1-1 1-1.5 1-1.5 1-1 1-1 1-1 1-1 1 .5 1 .5 1" />
            <path d="m394 841l3 1h.5.5l1-.5 1-.5 1-1.5 1-1.5 1-1 1-1 1.5-1 1.5-1 2-1 2-1-.5-1-.5-1-1.5-.5-1.5-.5-1.5-.5-1.5-.5h-2.5-2.5-2-2l-1.5 1-1.5 1-1 1-1 1-.5 2-.5 2 .5 1.5.5 1.5 1.5 1 1.5 1h.5.5" />
        </g>
        <path d="m463 836l1 1v-3-3-2.5-2.5-1-1h-1.5-1.5-2-2l-1 .5-1 .5-.5 1-.5 1h2.5 2.5l.5 1 .5 1 .5.5.5.5v2 2l1 1 1 1" style="fill:#76342a;stroke:#76342a" />
        <path d="m258 822l12-3 6-3 6-3 6-3 6-3 6-3 6-3 4-4.5 4-4.5-3.5-1-3.5-1 1 4 1 4-6.5 2.5-6.5 2.5-5.5 3-5.5 3-5.5 2.5-5.5 2.5-.5-1-.5-1 1-1.5 1-1.5-1.5.5-1.5.5-1 1-1 1-.5 1.5-.5 1.5h-2.5-2.5l-1 1-1 1-1.5 1-1.5 1-.5 1.5-.5 1.5" style="fill:#735e4f;stroke:#735e4f" />
        <path d="m274 814l11-5 5.5-3 5.5-3 6.5-2.5 6.5-2.5-1-4-1-4-1 .5-1 .5-1 .5-1 .5-1 1-1 1-.5.5-.5.5-1 .5-1 .5-1.5.5-1.5.5-.5.5-.5.5-1 .5-1 .5h-2-2l-1.5 1-1.5 1-1 1-1 1-1.5.5-1.5.5-1 1.5-1 1.5-1.5.5-1.5.5v.5.5l-1 1.5-1 1.5.5 1 .5 1" style="fill:#7f7569;stroke:#7f7569" />
        <path d="m444 813l14-1v-5-5l-5.5-2.5-5.5-2.5-1 5-1 5-.5 3-.5 3" style="fill:#9a9488;stroke:#9a9488" />
        <path d="m288 798v1h2 2l1-.5 1-.5.5-.5.5-.5 1.5-.5 1.5-.5 1-.5 1-.5.5-.5.5-.5 1-1 1-1 1-.5 1-.5 1-.5 1-.5-2.5.5-2.5.5-1 1-1 1-1.5 1-1.5 1-1.5.5-1.5.5-1.5 1-1.5 1h-1.5-1.5" style="fill:#735e4f;stroke:#735e4f" />
        <path d="m462 788l2-1v-1.5-1.5-2.5-2.5-2-2-2.5-2.5-2-2-2.5-2.5l-.5 1-.5 1v2 2l-.5.5-.5.5-2.5-5.5-2.5-5.5-3-5.5-3-5.5-.5-7.5-.5-7.5-.5-5-.5-5-5.5-3.5-5.5-3.5-8.5-.5-8.5-.5-.5 2-.5 2v1 1l1 .5 1 .5 1 1 1 1 1 1.5 1 1.5.5 1.5.5 1.5 1 1.5 1 1.5 1 1 1 1 .5 1.5.5 1.5 1 1.5 1 1.5.5 1.5.5 1.5.5 2.5.5 2.5 3 6 3 6 3.5 4.5 3.5 4.5 2.5 5 2.5 5 4 5 4 5" style="fill:#9c5951;stroke:#9c5951" />
        <path d="m272 777l17-5 5-2.5 5-2.5 4.5-3.5 4.5-3.5 5-3 5-3 4.5-3 4.5-3 5.5-2.5 5.5-2.5 5-2.5 5-2.5 3.5-4.5 3.5-4.5 6 .5 6 .5 3-5 3-5 3.5-4 3.5-4 3.5-3.5 3.5-3.5 6-1.5 6-1.5 3.5 4.5 3.5 4.5 4 3 4 3-.5-2-.5-2-1-1-1-1-.5-1.5-.5-1.5-3-5-3-5-6-2.5-6-2.5-7.5-.5-7.5-.5-3 6-3 6-4 4.5-4 4.5-5.5 3.5-5.5 3.5-5.5 3.5-5.5 3.5-5 4-5 4-5 3.5-5 3.5-5.5 3.5-5.5 3.5-5.5 3.5-5.5 3.5-6 3-6 3-9.5 2.5-9.5 2.5-4.5-3.5-4.5-3.5-3.5-4-3.5-4-3.5-4.5-3.5-4.5-3-4.5-3-4.5-3-5-3-5-3.5-4.5-3.5-4.5-3.5-4-3.5-4-3.5-4.5-3.5-4.5-3.5-4-3.5-4-2.5-5.5-2.5-5.5-2-5.5-2-5.5-2-6-2-6-2-6-2-6-2.5-5-2.5-5-1.5-6.5-1.5-6.5-1.5-6-1.5-6-3-5-3-5-2-5.5-2-5.5-1-7-1-7-1-6.5-1-6.5-1-7-1-7-1-6.5-1-6.5-1.5-6.5-1.5-6.5-1-6.5-1-6.5-.5-7.5-.5-7.5-1-6.5-1-6.5-1-7-1-7 2-7.5 2-7.5-.5-1-.5-1h-.5-.5l-4.5 6.5-4.5 6.5 1.5 5 1.5 5 1 7 1 7v7.5 7.5l1 7 1 7 1 6.5 1 6.5 1.5 6.5 1.5 6.5.5 7 .5 7 1.5 6.5 1.5 6.5v6.5 6.5l2 6 2 6 2.5 5 2.5 5 3 5 3 5 2 5.5 2 5.5 1.5 6.5 1.5 6.5 2 5.5 2 5.5 1.5 6.5 1.5 6.5 1.5 6 1.5 6 2.5 5.5 2.5 5.5 2 5.5 2 5.5 4.5 3.5 4.5 3.5 1.5 5.5 1.5 5.5 4.5 3 4.5 3 4 4 4 4 2.5 5.5 2.5 5.5 3.5 4 3.5 4 3.5 4.5 3.5 4.5 2.5 5 2.5 5 4 4 4 4 6 2 6 2" style="fill:#571701;stroke:#571701" />
        <path d="m343 771l12-3 6-3 6-3 4-5 4-5-7 2-7 2-5 3.5-5 3.5-4 4-4 4" style="fill:#735e4f;stroke:#735e4f" />
        <path d="m462 768l1-1v-2-2l.5-1 .5-1v-10-10-8.5-8.5-9-9-9-9-9-9-8.5-8.5-9-9-9-9-9-9-8.5-8.5-9-9-9-9-9-9-8.5-8.5-9-9-9-9-9-9-8.5-8.5-9-9-9-9-9-9-8.5-8.5-3-3l-5 2-5 2-6 3-6 3-5 4-5 4-3.5 5.5-3.5 5.5-5 3.5-5 3.5-7 2-7 2-8 1-8 1-8.5-.5-8.5-.5-7.5-1-7.5-1-7.5.5-7.5.5-3 6-3 6-7 2-7 2-8-1-8-1-8-.5-8-.5-7.5-.5-7.5-.5-7 2-7 2-3.5 8.5-3.5 8.5v1.5 1.5l.5 1 .5 1 1 2.5 1 2.5 5 3 5 3 4.5 3.5 4.5 3.5 2.5 5 2.5 5 3.5 4.5 3.5 4.5 3.5 4 3.5 4 3.5 4.5 3.5 4.5 2.5 5.5 2.5 5.5 3 4.5 3 4.5 4 4 4 4 3 4.5 3 4.5 2 6 2 6 3.5 4 3.5 4 3 5 3 5 3.5 4 3.5 4 3.5 4.5 3.5 4.5 3 4.5 3 4.5 3 5 3 5 2.5 5 2.5 5 2 6 2 6 3.5 4.5 3.5 4.5 2 5.5 2 5.5 2 6 2 6 2 5.5 2 5.5 4 10 4 10 4 4 4 4 3.5 5 3.5 5 2 6 2 6 8.5.5 8.5.5 5.5 3.5 5.5 3.5.5 5 .5 5 .5 7.5.5 7.5 3 5.5 3 5.5 2.5 5.5 2.5 5.5" style="fill:#bf3e32;stroke:#bf3e32" />
        <path d="m268 767l19-5 6-3 6-3 5.5-3.5 5.5-3.5 5.5-3.5 5.5-3.5 5-3.5 5-3.5 5-4 5-4 5.5-3.5 5.5-3.5 5.5-3.5 5.5-3.5 4-4.5 4-4.5 3-6 3-6 7.5.5 7.5.5 6 2.5 6 2.5 3 5 3 5v-3-3l-1-1.5-1-1.5-.5-1.5-.5-1.5-1-1-1-1-1.5-1-1.5-1-.5-1.5-.5-1.5-5-3-5-3-5-3-5-3-2.5-5-2.5-5-.5-7.5-.5-7.5-2-5.5-2-5.5-3.5-4.5-3.5-4.5-1 5.5-1 5.5v8 8 6.5 6.5l-1 7-1 7-2.5 5.5-2.5 5.5-2 5.5-2 5.5-4.5 3.5-4.5 3.5-4.5 3-4.5 3-4.5 3.5-4.5 3.5-3.5 4-3.5 4-5 3-5 3-5.5 2.5-5.5 2.5-4.5 3-4.5 3-8.5 3.5-8.5 3.5-5-3-5-3-3-5-3-5-3-4.5-3-4.5-3.5-4.5-3.5-4.5-3-4.5-3-4.5-4-4-4-4-3-4.5-3-4.5-4-4-4-4-3-5-3-5-2-5.5-2-5.5-2.5-5.5-2.5-5.5-2-5.5-2-5.5-2.5-5.5-2.5-5.5-1.5-6-1.5-6-2-6-2-6-1.5-6-1.5-6-2-6-2-6-1.5-6-1.5-6-1.5-6.5-1.5-6.5-1-6.5-1-6.5-1-7-1-7-1.5-6.5-1.5-6.5-1-6.5-1-6.5-.5-7.5-.5-7.5-1-6.5-1-6.5-1.5-7.5-1.5-7.5v-.5-.5l-.5-1-.5-1v-2-2-2.5-2.5l.5-1 .5-1v-.5-.5l-.5-1.5-.5-1.5-2 7.5-2 7.5 1 7 1 7 1 6.5 1 6.5.5 7.5.5 7.5 1 6.5 1 6.5 1.5 6.5 1.5 6.5 1 6.5 1 6.5 1 7 1 7 1 6.5 1 6.5 1 7 1 7 2 5.5 2 5.5 3 5 3 5 1.5 6 1.5 6 1.5 6.5 1.5 6.5 2.5 5 2.5 5 2 6 2 6 2 6 2 6 2 5.5 2 5.5 2.5 5.5 2.5 5.5 3.5 4 3.5 4 3.5 4.5 3.5 4.5 3.5 4 3.5 4 3.5 4.5 3.5 4.5 3 5 3 5 3 4.5 3 4.5 3.5 4.5 3.5 4.5 3.5 4 3.5 4 4.5 3.5 4.5 3.5" style="fill:#7c2100;stroke:#7c2100" />
        <path d="m270 760l17-7 4.5-3 4.5-3 5.5-2.5 5.5-2.5 5-3 5-3 3.5-4 3.5-4 4.5-3.5 4.5-3.5 4.5-3 4.5-3 4.5-3.5 4.5-3.5 2-5.5 2-5.5 2.5-5.5 2.5-5.5 1-7 1-7v-6.5-6.5-8-8l1-5.5 1-5.5 3.5 4.5 3.5 4.5 2 5.5 2 5.5.5 7.5.5 7.5 2.5 5 2.5 5 5 3 5 3 5 3 5 3 .5-3 .5-3-4-10-4-10-2-5.5-2-5.5-2-6-2-6-2-5.5-2-5.5-3.5-4.5-3.5-4.5-2-6-2-6-2.5-5-2.5-5-3-5-3-5-3-4.5-3-4.5-3.5-4.5-3.5-4.5-3.5-4-3.5-4-3-5-3-5-3.5-4-3.5-4-2-6-2-6-3-4.5-3-4.5-4-4-4-4-3-4.5-3-4.5-2.5-5.5-2.5-5.5-3.5-4.5-3.5-4.5-3.5-4-3.5-4-3.5-4.5-3.5-4.5-2.5-5-2.5-5-4.5-3.5-4.5-3.5-5-3-5-3-2 .5-2 .5 1.5 6.5 1.5 6.5 4.5 4 4.5 4 3 4.5 3 4.5 3.5 4.5 3.5 4.5 3 4.5 3 4.5 3.5 4.5 3.5 4.5 3 4.5 3 4.5 3.5 4.5 3.5 4.5 2.5 5 2.5 5-3 5-3 5h-7.5-7.5l-8.5.5-8.5.5-6.5-2-6.5-2-4.5-3.5-4.5-3.5-.5-5-.5-5 1-7 1-7-3-4.5-3-4.5-2-6-2-6-2.5-5-2.5-5-1-5.5-1-5.5h-2-2l-.5.5-.5.5h-1.5-1.5-1-1l-.5-.5-.5-.5h-1.5-1.5v2 2h-2-2l-2-.5-2-.5-1.5-.5-1.5-.5-.5-.5-.5-.5-1-.5-1-.5v-1-1l-.5-.5-.5-.5-.5-.5-.5-.5-1-.5-1-.5v-1-1l-.5-1.5-.5-1.5-1.5-1.5-1.5-1.5-1-1-1-1-1.5-1-1.5-1-1.5-.5-1.5-.5-1.5-1-1.5-1 .5 1.5.5 1.5h-1-1l-1-.5-1-.5-.5-1-.5-1-1-.5-1-.5-1.5 1-1.5 1-1.5 1-1.5 1-1 1-1 1-1.5.5-1.5.5-1 1.5-1 1.5-1 1-1 1-1 1.5-1 1.5-.5 1.5-.5 1.5-.5 2-.5 2v1 1h-1.5-1.5l1.5 7.5 1.5 7.5 1 6.5 1 6.5.5 7.5.5 7.5 1 6.5 1 6.5 1.5 6.5 1.5 6.5 1 7 1 7 1 6.5 1 6.5 1.5 6.5 1.5 6.5 1.5 6 1.5 6 2 6 2 6 1.5 6 1.5 6 2 6 2 6 1.5 6 1.5 6 2.5 5.5 2.5 5.5 2 5.5 2 5.5 2.5 5.5 2.5 5.5 2 5.5 2 5.5 3 5 3 5 4 4 4 4 3 4.5 3 4.5 4 4 4 4 3 4.5 3 4.5 3.5 4.5 3.5 4.5 3 4.5 3 4.5 3 5 3 5 5 3 5 3" style="fill:#ad3100;stroke:#ad3100" />
        <path d="m397 739l3 1 .5-.5.5-.5.5-.5.5-.5 1-.5 1-.5h1 1l.5-.5.5-.5h1 1l1-.5 1-.5.5-.5.5-.5v-1-1l-.5-.5-.5-.5-.5-.5-.5-.5h-1.5-1.5-1-1l-.5.5-.5.5h-1-1l-.5.5-.5.5-1.5.5-1.5.5-1.5 1.5-1.5 1.5 1 1.5 1 1.5" style="fill:#7f7569;stroke:#7f7569" />
        <path d="m417 721h2l.5-1 .5-1v-1-1-.5-.5l-.5-1-.5-1-1-.5-1-.5-1-1.5-1-1.5-1-1-1-1-.5-2-.5-2-1-1-1-1v3 3l.5 1.5.5 1.5 1 1 1 1 .5 2 .5 2 1 2 1 2h.5.5" style="fill:#76342a;stroke:#76342a" />
        <path d="m420 716v1l.5-2 .5-2-2-6-2-6-3.5-5-3.5-5-4-4-4-4-.5 3-.5 3 .5 1.5.5 1.5 1.5 1 1.5 1 1 1 1 1 .5 1.5.5 1.5 1 1.5 1 1.5 1 1 1 1 .5 2 .5 2 1 1 1 1 1 1.5 1 1.5 1 .5 1 .5.5 1 .5 1" style="fill:#9b3726;stroke:#9b3726" />
        <g style="fill:#1b1307;stroke:#1b1307">
            <path d="m11 650l13-3 4-4 4-4-5.5-1.5-5.5-1.5-6 1.5-6 1.5-4.5-.5-4.5-.5v2 2 2.5 2.5 1.5 1.5l2-.5 2-.5 2 .5 2 .5h1.5 1.5" />
            <path d="m38 650l8-1 5-3 5-3 3-3 3-3v-.5-.5l-5.5-3-5.5-3h-2.5-2.5l-5.5 3.5-5.5 3.5 1 5 1 5 .5 1.5.5 1.5" />
            <path d="m65 638l14 1 4.5-2.5 4.5-2.5-1-7-1-7-4.5-3.5-4.5-3.5-3-2.5-3-2.5-6.5 2.5-6.5 2.5-1 6-1 6 3 5.5 3 5.5 1.5 1 1.5 1" />
            <path d="m96 628l3 1 1-1 1-1-.5-2-.5-2-.5-1.5-.5-1.5-.5 2-.5 2-1 1-1 1v1 1" />
        </g>
        <path d="m299 590l3 1 1.5-.5 1.5-.5 1.5-1 1.5-1v-2-2l-1-1.5-1-1.5h-2-2l-2 .5-2 .5-.5 1.5-.5 1.5v2 2l1 .5 1 .5" style="fill:#7c2100;stroke:#7c2100" />
        <g style="fill:#3f3428;stroke:#3f3428">
            <path d="m100 585l11-4 3-4 3-4-2-4-2-4-6-3-6-3-4.5-2-4.5-2-4 4-4 4 2 7 2 7 5 1 5 1 1 3 1 3" />
            <path d="m27 570l10-6h6.5 6.5l-3.5-3-3.5-3v-4-4l3-3.5 3-3.5-6.5-1.5-6.5-1.5-2.5-4-2.5-4-2-4.5-2-4.5 6-2.5 6-2.5 1.5 5 1.5 5 1.5 4.5 1.5 4.5 5.5 2 5.5 2 4 4 4 4 .5 5 .5 5 5.5 2.5 5.5 2.5.5-4 .5-4 2.5-6 2.5-6 5-1.5 5-1.5 2.5-5 2.5-5 2-3 2-3 2.5-5 2.5-5 3.5-2.5 3.5-2.5-4-3.5-4-3.5-6.5-1-6.5-1-2.5-5-2.5-5-1.5-4-1.5-4-7.5-.5-7.5-.5-6.5-1-6.5-1-6.5-1.5-6.5-1.5-6-1.5-6-1.5-5.5 2.5-5.5 2.5-4 3.5-4 3.5-2 5.5-2 5.5-4 4-4 4v9.5 9.5 9 9 9 9 4.5 4.5l.5-1.5.5-1.5v-2-2l.5-1 .5-1h1 1 2 2 1.5 1.5l.5.5.5.5h1 1l.5.5.5.5h1.5 1.5l.5.5.5.5.5.5.5.5.5.5.5.5 1 .5 1 .5.5.5.5.5.5.5.5.5 1 1 1 1" />
            <path d="m141 570l9-2 1-5 1-5h-6-6v6 6h.5.5" />
        </g>
        <path d="m267 543l17-1h7.5 7.5l3-5 3-5-2.5-5-2.5-5-3.5-4.5-3.5-4.5-3-4.5-3-4.5-3.5-4.5-3.5-4.5-3-4.5-3-4.5-3.5-4.5-3.5-4.5-3-4.5-3-4.5-4.5-4-4.5-4-1.5-6.5-1.5-6.5v-.5-.5l-.5-1-.5-1-.5-1-.5-1-1 .5-1 .5v1.5 1.5 2.5 2.5 1.5 1.5l.5 1 .5 1 .5 1.5.5 1.5-.5.5-.5.5-1 .5-1 .5-1 1-1 1-1.5.5-1.5.5-.5.5-.5.5h-1.5-1.5-2-2l-1 .5-1 .5 1 5.5 1 5.5 2.5 5 2.5 5 2 6 2 6 3 4.5 3 4.5-1 7-1 7 .5 5 .5 5 4.5 3.5 4.5 3.5 6.5 2 6.5 2" style="fill:#7c2100;stroke:#7c2100" />
        <g style="fill:#3f3428;stroke:#3f3428">
            <path d="m126 500l1-1v-2-2-2.5-2.5-2-2-2.5-2.5l-1.5-.5-1.5-.5.5 2 .5 2 .5 1.5.5 1.5v2 2 2.5 2.5 2 2" />
            <path d="m103 486l7-10-.5-4-.5-4-3.5-5-3.5-5 5-1.5 5-1.5h6 6l6-1.5 6-1.5 7.5-1.5 7.5-1.5h.5.5l-.5-1-.5-1-1-.5-1-.5-.5.5-.5.5h-1.5-1.5l-1.5.5-1.5.5-1 .5-1 .5h-1.5-1.5-1.5-1.5l-2 .5-2 .5-1 1-1 1h-2-2l-2-.5-2-.5h-2-2l-2 .5-2 .5h-2-2l-2-.5-2-.5h-1.5-1.5l-.5-1-.5-1-1.5-1.5-1.5-1.5-1-1-1-1-.5-1.5-.5-1.5-.5-.5-.5-.5v-2.5-2.5l-.5-.5-.5-.5-1-7.5-1-7.5v-8-8l-1.5-9.5-1.5-9.5-2-6-2-6 .5-7 .5-7 3.5-7.5 3.5-7.5v-.5-.5l2.5-6 2.5-6 2.5-5.5 2.5-5.5 3-4.5 3-4.5 7-5.5 7-5.5v-.5-.5l1.5-1 1.5-1 2-.5 2-.5 1.5-.5 1.5-.5 1.5-1 1.5-1 2-.5 2-.5v-1-1l-1.5.5-1.5.5-.5.5-.5.5h-1-1l-.5.5-.5.5h-1.5-1.5l-.5.5-.5.5h-1-1l-.5.5-.5.5-.5.5-.5.5-1 .5-1 .5-.5.5-.5.5-1 .5-1 .5-1.5.5-1.5.5-.5 1-.5 1-1.5.5-1.5.5-1.5 1-1.5 1-1.5.5-1.5.5-1 2.5-1 2.5-2.5 5.5-2.5 5.5-2.5 5.5-2.5 5.5-2.5 5.5-2.5 5.5-3 8-3 8-.5 1.5-.5 1.5v2.5 2.5 2 2 2.5 2.5l.5 1.5.5 1.5.5 1.5.5 1.5.5 1.5.5 1.5 1 7 1 7 1 7 1 7 1 7.5 1 7.5v.5.5l2 8 2 8-1 3.5-1 3.5-5.5-.5-5.5-.5-3.5 4-3.5 4-.5 4.5-.5 4.5 4.5 3 4.5 3 4.5 3.5 4.5 3.5 6 2.5 6 2.5" />
            <path d="m120 485l6-9 .5-4.5.5-4.5-3.5-1.5-3.5-1.5-2.5 6.5-2.5 6.5 2.5 4 2.5 4" />
        </g>
        <path d="m207 469l4 1h2 2v-2-2l-1-1-1-1-1-.5-1-.5-1.5-.5-1.5-.5-1.5-1-1.5-1-1.5-.5-1.5-.5-1-1-1-1-.5-.5-.5-.5h-1.5-1.5l.5 1.5.5 1.5v1 1l1 .5 1 .5.5.5.5.5.5.5.5.5v1 1l1 .5 1 .5.5.5.5.5 1.5.5 1.5.5" style="fill:#7c2100;stroke:#7c2100" />
        <path d="m154 468v1h1.5 1.5v-1-1l.5-2 .5-2 .5-1.5.5-1.5 1-1.5 1-1.5 1-1 1-1 1-1.5 1-1.5 1.5-.5 1.5-.5 1-1 1-1 1.5-1 1.5-1 1.5-1 1.5-1 .5-1 .5-1-.5-1.5-.5-1.5h1.5 1.5l1 1 1 1 .5 2 .5 2 1.5 1 1.5 1 1.5.5 1.5.5 1.5 1 1.5 1 1 1 1 1 1.5 1.5 1.5 1.5h1.5 1.5l.5.5.5.5 1 1 1 1 1.5.5 1.5.5 1.5 1 1.5 1 1.5.5 1.5.5 1 .5 1 .5 1 1 1 1h1.5 1.5l.5.5.5.5h1 1 1.5 1.5l.5-.5.5-.5h2 2l1-.5 1-.5h2 2 1.5 1.5l.5-.5.5-.5 1.5-.5 1.5-.5 1-1 1-1 1-.5 1-.5.5-.5.5-.5-.5-1.5-.5-1.5h-1.5-1.5l.5 1 .5 1-.5 1-.5 1-1.5 1-1.5 1-1.5.5-1.5.5h-2-2-1-1-1.5-1.5l-1.5.5-1.5.5h-1-1l-1 .5-1 .5-2-.5-2-.5-1.5-.5-1.5-.5-1-1-1-1-1-1-1-1-1.5-.5-1.5-.5-1.5-.5-1.5-.5-1.5-1-1.5-1-1-.5-1-.5-1-.5-1-.5-4.5-4-4.5-4-3-6-3-6 1.5-6.5 1.5-6.5 3-5.5 3-5.5 4-5 4-5-.5-.5-.5-.5h-1-1l-1 1.5-1 1.5-1 1-1 1-.5.5-.5.5-.5 1-.5 1-1 1-1 1-.5.5-.5.5-.5 1-.5 1-1.5.5-1.5.5-1 1.5-1 1.5-.5 1.5-.5 1.5-2-.5-2-.5h-1-1v-2-2l-.5-2-.5-2-1-1-1-1-.5-2-.5-2-.5-1.5-.5-1.5-1-1.5-1-1.5-.5-1.5-.5-1.5-.5-2-.5-2v-1-1l-.5-1-.5-1-1.5-1.5-1.5-1.5-.5-1.5-.5-1.5-1-.5-1-.5.5 2.5.5 2.5.5 1.5.5 1.5.5 2 .5 2 .5 1.5.5 1.5.5 1.5.5 1.5 1 1.5 1 1.5.5 1.5.5 1.5.5 2 .5 2 1 1 1 1 .5 2 .5 2v2 2 2.5 2.5l1 1.5 1 1.5v1 1l.5 1 .5 1-.5 1.5-.5 1.5v1 1l-.5 1-.5 1v2 2l-1 .5-1 .5v1.5 1.5l-1 1.5-1 1.5-1 1-1 1-1.5.5-1.5.5-2-.5-2-.5h-.5-.5v1.5 1.5l-.5 1-.5 1-1 .5-1 .5-.5 1-.5 1v2.5 2.5 2 2l.5 1 .5 1" style="fill:#9b3726;stroke:#9b3726" />
        <path d="m348 467l14 1 3-4 3-4 5.5 1.5 5.5 1.5 4.5-4.5 4.5-4.5-4.5-4-4.5-4-8-1-8-1-7.5-1.5-7.5-1.5-6-3-6-3-7.5-1-7.5-1-7-2-7-2-6-3-6-3h-2-2l-1.5.5-1.5.5-4.5 2-4.5 2-1 3.5-1 3.5 4.5 4.5 4.5 4.5 6 3 6 3 6 2 6 2 6.5 2 6.5 2 5 4 5 4 7.5.5 7.5.5" style="fill:#ad3100;stroke:#ad3100" />
        <path d="m217 464l4 1 1-.5 1-.5h1 1l1.5-.5 1.5-.5h1.5 1.5 1 1 2 2l1.5-.5 1.5-.5 1.5-1 1.5-1 .5-1 .5-1-.5-1-.5-1v-.5-.5h-1-1v.5.5 1.5 1.5l-1 .5-1 .5-.5.5-.5.5h-1.5-1.5l-1.5.5-1.5.5-.5-.5-.5-.5h-1.5-1.5l-1.5.5-1.5.5-.5.5-.5.5h-1.5-1.5l-2-.5-2-.5-1-.5-1-.5h-1.5-1.5l1 1 1 1 1.5.5 1.5.5" style="fill:#9c5951;stroke:#9c5951" />
        <path d="m217 462l4 1h1.5 1.5l.5-.5.5-.5 1.5-.5 1.5-.5h1.5 1.5l.5.5.5.5 1.5-.5 1.5-.5h1.5 1.5l.5-.5.5-.5 1-.5 1-.5v-1.5-1.5h-.5-.5l-.5 1.5-.5 1.5-2 .5-2 .5h-2-2l-2-.5-2-.5-1.5.5-1.5.5h-2-2l-2-.5-2-.5-5.5-2.5-5.5-2.5-4.5-3-4.5-3-4-6.5-4-6.5-.5-.5-.5-.5-.5-1.5-.5-1.5-.5-1-.5-1v-1.5-1.5l-.5 1-.5 1v2 2l1 1.5 1 1.5.5 1.5.5 1.5.5 2 .5 2 1 1 1 1 1 1 1 1 1 1.5 1 1.5 1 1 1 1 1.5 1.5 1.5 1.5 1 .5 1 .5 1.5 1 1.5 1 1.5.5 1.5.5 1.5.5 1.5.5 1 1 1 1h1.5 1.5l1 .5 1 .5" style="fill:#b47269;stroke:#b47269" />
        <path d="m216 459l4 1v-.5-.5h6 6l1.5-4 1.5-4v-8-8l-1.5-6-1.5-6-2-6-2-6-1-6.5-1-6.5.5-6.5.5-6.5-5-1.5-5-1.5v1 1l4 1 4 1v8 8l2 7 2 7 1.5 7.5 1.5 7.5.5 7 .5 7-8.5 5-8.5 5-6-2-6-2-4-4-4-4-2.5-5-2.5-5 1.5-6.5 1.5-6.5 2.5-5 2.5-5 5.5-9 5.5-9-1 1-1 1-1 1-1 1-1 .5-1 .5-.5 1-.5 1-1 1-1 1-.5 2-.5 2-1 .5-1 .5-.5 1.5-.5 1.5-.5.5-.5.5-.5.5-.5.5v1 1l-.5.5-.5.5-.5 1-.5 1-.5.5-.5.5v1 1l-.5.5-.5.5-.5 1-.5 1-.5.5-.5.5-.5.5-.5.5v1 1l-.5.5-.5.5v1.5 1.5 1 1l.5 1.5.5 1.5 4 6.5 4 6.5 4.5 3 4.5 3 5.5 2.5 5.5 2.5" style="fill:#bbb7ab;stroke:#bbb7ab" />
        <path d="m220 459v1h2 2l1.5-.5 1.5-.5 2 .5 2 .5h2 2l2-.5 2-.5.5-1.5.5-1.5v-.5-.5l-2-6-2-6v-7-7l-2-5.5-2-5.5-1.5-6.5-1.5-6.5-1-6.5-1-6.5-3.5-6.5-3.5-6.5-1.5 1.5-1.5 1.5 5 1.5 5 1.5-.5 6.5-.5 6.5 1 6.5 1 6.5 2 6 2 6 1.5 6 1.5 6v8 8l-1.5 4-1.5 4h-6-6" style="fill:#9a9488;stroke:#9a9488" />
        <path d="m216 455l17-10-.5-7-.5-7-1.5-7.5-1.5-7.5-2-7-2-7v-8-8l-4-1-4-1-1 1-1 1-1 1-1 1-.5.5-.5.5-1 1.5-1 1.5-5.5 9-5.5 9-2.5 5-2.5 5-1.5 6.5-1.5 6.5 2.5 5 2.5 5 4 4 4 4 6 2 6 2" style="fill:#d7d3c5;stroke:#d7d3c5" />
        <path d="m240 455v1h.5.5v-.5-.5l-.5-1-.5-1-.5-.5-.5-.5-.5-1-.5-1v-3-3-2.5-2.5-.5-.5-1.5-1.5-2.5-2.5l-.5-1.5-.5-1.5-.5-2.5-.5-2.5v-1-1l-2.5-7-2.5-7-1-7.5-1-7.5 2.5-.5 2.5-.5.5 8.5.5 8.5 7 3.5 7 3.5 1-1 1-1v-1-1l1-.5 1-.5h1 1l.5-.5.5-.5h1 1l.5-.5.5-.5h1 1l1 .5 1 .5h1 1 1 1 1 1 1 1l1.5-.5 1.5-.5-.5-1.5-.5-1.5 1-.5 1-.5-.5-1.5-.5-1.5 1.5-1 1.5-1 1.5.5 1.5.5 1.5.5 1.5.5.5.5.5.5.5 1 .5 1 .5 1.5.5 1.5.5.5.5.5 1 .5 1 .5 1.5.5 1.5.5 1 .5 1 .5h1.5 1.5l1 .5 1 .5 7-1 7-1 5-3.5 5-3.5 2-6.5 2-6.5 6 2 6 2 7 1 7 1 8 1 8 1h7.5 7.5 9 9l6.5-2.5 6.5-2.5 2.5-6.5 2.5-6.5 4.5-4 4.5-4 5-2.5 5-2.5 5-3.5 5-3.5 4-4.5 4-4.5 3.5-.5 3.5-.5v-8-8-9-9-9-9-9-9-8.5-8.5-9-9-9-9-9-9-4.5-4.5l-3 1.5-3 1.5-4 3.5-4 3.5-4.5 3.5-4.5 3.5-4.5 3.5-4.5 3.5-3-1.5-3-1.5-1-6-1-6-3 5-3 5-5 9-5 9 2.5-5.5 2.5-5.5 4.5-4.5 4.5-4.5 2 7 2 7 .5 1 .5 1 1.5 1 1.5 1 .5 2 .5 2 .5 1.5.5 1.5.5 3 .5 3 4.5 4.5 4.5 4.5 5.5 1 5.5 1 2 4 2 4-6 .5-6 .5-1.5 6-1.5 6 1.5.5 1.5.5h1.5 1.5l1.5.5 1.5.5h1 1l1 .5 1 .5 1.5.5 1.5.5.5.5.5.5.5 1 .5 1 1 1 1 1v1 1 1 1 1 1l-.5.5-.5.5-1-.5-1-.5-1-1.5-1-1.5-1.5-.5-1.5-.5-1.5-1-1.5-1-1.5-.5-1.5-.5-1.5-1-1.5-1-1-1-1-1-.5-2-.5-2-1.5.5-1.5.5h-1-1-1-1l-1 .5-1 .5h-1.5-1.5l-1-1-1-1-1.5-.5-1.5-.5h-1-1-.5-.5l-1.5 1-1.5 1-.5 1-.5 1-.5 1-.5 1-.5.5-.5.5-.5 1-.5 1v2 2l-.5.5-.5.5v1.5 1.5l-.5 1.5-.5 1.5v1 1l-.5 1-.5 1-1 1-1 1v1 1l-.5 1-.5 1v2.5 2.5l.5 2 .5 2 1.5.5 1.5.5-.5 2-.5 2-.5 1.5-.5 1.5-1.5 1-1.5 1-1 1-1 1-1.5 1-1.5 1h-1-1-1.5-1.5l-1 2-1 2-.5 1.5-.5 1.5-1 1-1 1-1.5 2-1.5 2 .5 1 .5 1-1 1-1 1 .5.5.5.5 1 .5 1 .5 1 .5 1 .5 1 1.5 1 1.5 1 1 1 1 2 .5 2 .5-1 1-1 1-1.5-.5-1.5-.5-2-.5-2-.5-1.5-.5-1.5-.5-.5-2-.5-2-2-.5-2-.5-1.5.5-1.5.5h-1.5-1.5l-2.5.5-2.5.5-1 .5-1 .5-.5.5-.5.5-.5.5-.5.5-1 .5-1 .5h-1-1l-.5.5-.5.5h-1.5-1.5l-1 .5-1 .5h-1.5-1.5l-.5.5-.5.5h-2-2l-2 .5-2 .5-1.5.5-1.5.5h-1-1l-2-.5-2-.5-.5-1-.5-1-2.5.5-2.5.5-1.5.5-1.5.5-2 .5-2 .5v1.5 1.5l-1.5.5-1.5.5-.5.5-.5.5h-1.5-1.5-2-2l-.5.5-.5.5-1 .5-1 .5-1.5 4-1.5 4-3 2.5-3 2.5-13-.5-13-.5h-1.5-1.5v-1-1h-1.5-1.5-1-1-1.5-1.5l-1 .5-1 .5h-2.5-2.5l-1.5.5-1.5.5-1 .5-1 .5-1 1-1 1 .5.5.5.5v1.5 1.5 1 1l-.5.5-.5.5-1.5-.5-1.5-.5h-1.5-1.5l-1.5-.5-1.5-.5-1-1-1-1-.5-2-.5-2v-1-1l-1-1-1-1h-1.5-1.5-1.5-1.5l-1-.5-1-.5h-1.5-1.5-2-2l-1.5.5-1.5.5 3.5 6.5 3.5 6.5 1 6.5 1 6.5 1.5 6.5 1.5 6.5 2 5.5 2 5.5v7 7l2 6 2 6" style="fill:#7f7569;stroke:#7f7569" />
        <path d="m243 455v1h1.5 1.5l-.5-1-.5-1v-1.5-1.5l-1-.5-1-.5v-1-1l-.5-.5-.5-.5-.5-1-.5-1v-1-1l1-1 1-1h-1.5-1.5v1.5 1.5l-.5 1-.5 1v1 1l.5 1 .5 1v.5.5l-1-.5-1-.5.5 1 .5 1 .5.5.5.5.5 1 .5 1h1 1" style="fill:#3f3428;stroke:#3f3428" />
        <path d="m154 454v1l1-.5 1-.5.5-1 .5-1v-1.5-1.5l-.5-.5-.5-.5-2-.5-2-.5v-1-1h-1.5-1.5l-1.5.5-1.5.5h-1-1l-1 1-1 1 1.5-.5 1.5-.5h1.5 1.5l.5-.5.5-.5 1 .5 1 .5.5 1 .5 1 .5 1 .5 1 .5 1.5.5 1.5" style="fill:#76342a;stroke:#76342a" />
        <path d="m197 453l2 1-1.5-1.5-1.5-1.5-1-1-1-1-1-1.5-1-1.5-1-1-1-1-1-1-1-1-.5-2-.5-2-.5-1.5-.5-1.5-1-1.5-1-1.5v-2-2l.5-1 .5-1 .5-2 .5-2 1-1.5 1-1.5 1-1 1-1 .5-2 .5-2 .5-1.5.5-1.5 1.5-1 1.5-1v-.5-.5l.5-1 .5-1 1-1 1-1 1-1 1-1 1-1.5 1-1.5v-1-1l-1.5 1.5-1.5 1.5-4 5-4 5-3 5.5-3 5.5-1.5 6.5-1.5 6.5 3 6 3 6 4.5 4 4.5 4" style="fill:#9c5951;stroke:#9c5951" />
        <g style="fill:#595448;stroke:#595448">
            <path d="m104 451l4 1h2 2l2-.5 2-.5h2 2l2 .5 2 .5h2 2l1-1 1-1 2-.5 2-.5h1.5 1.5 1.5 1.5v-.5-.5l-2-.5-2-.5h-2-2l-1.5 1-1.5 1-1.5 1-1.5 1h-2-2l-1.5-1-1.5-1h-2-2l-1.5.5-1.5.5-2 .5-2 .5-1.5-.5-1.5-.5h-1.5-1.5l-1-.5-1-.5.5 1 .5 1h1.5 1.5" />
            <path d="m240 451v-1l-.5-1-.5-1v-1-1l.5-1 .5-1v-1.5-1.5l.5-3 .5-3-1 .5-1 .5-.5 1.5-.5 1.5v2.5 2.5 3 3l1 .5 1 .5" />
        </g>
        <path d="m105 450l3 1 2-.5 2-.5 1.5-.5 1.5-.5h2 2l1.5 1 1.5 1h2 2l1.5-1 1.5-1 1.5-1 1.5-1 1-.5 1-.5h2 2l-2-.5-2-.5h-2-2l-1 1.5-1 1.5-1.5.5-1.5.5-1.5-.5-1.5-.5h-1.5-1.5l-.5-1-.5-1-1-1-1-1-1-1-1-1-.5-.5-.5-.5-.5-1-.5-1-.5 1.5-.5 1.5.5.5.5.5.5 1 .5 1-.5 1.5-.5 1.5-.5.5-.5.5h-1.5-1.5l-2-.5-2-.5-1.5-1-1.5-1-.5-.5-.5-.5-1-.5-1-.5-2-6-2-6-.5-7.5-.5-7.5-1-11.5-1-11.5v-1.5-1.5-2-2-2-2l-1-1.5-1-1.5-.5-1.5-.5-1.5v-2-2l-.5-2.5-.5-2.5v-2-2l.5-2 .5-2 .5-1.5.5-1.5.5-2 .5-2 .5-2.5.5-2.5 2.5-5.5 2.5-5.5 2.5-5 2.5-5 2.5-5.5 2.5-5.5 6-6.5 6-6.5-5.5 4-5.5 4-3 6-3 6-5 10-5 10-3.5 7.5-3.5 7.5-.5 7-.5 7 2 6 2 6 1.5 8 1.5 8 .5 8.5.5 8.5 1 9 1 9v2.5 2.5l.5.5.5.5.5 1.5.5 1.5 1 1 1 1 1.5 1.5 1.5 1.5 1 .5 1 .5h1.5 1.5" style="fill:#7f7569;stroke:#7f7569" />
        <path d="m243 450l2 1v-2.5-2.5-1.5-1.5-.5-.5l-1-.5-1-.5-1 1-1 1v1 1l.5 1 .5 1 .5.5.5.5v1 1" style="fill:#571701;stroke:#571701" />
        <path d="m158 449l4 1 1.5-.5 1.5-.5 1-1 1-1 1-1.5 1-1.5v-1.5-1.5-.5-.5l-.5-1-.5-1-1-1.5-1-1.5-.5-.5-.5-.5-1-.5-1-.5.5 1.5.5 1.5 1 2.5 1 2.5v1.5 1.5l-1 1-1 1-1 1-1 1-2-.5-2-.5-1-1-1-1h-1-1l1 1.5 1 1.5.5.5.5.5h.5.5" style="fill:#9c5951;stroke:#9c5951" />
        <path d="m181 449h2l-.5-1.5-.5-1.5-.5-2-.5-2-1-1-1-1h-1.5-1.5l.5 1.5.5 1.5-.5 1-.5 1 1 .5 1 .5.5 1 .5 1 1 .5 1 .5" style="fill:#bf3e32;stroke:#bf3e32" />
        <g style="fill:#9a9488;stroke:#9a9488">
            <path d="m104 448l4 1h1.5 1.5l.5-.5.5-.5.5-1.5.5-1.5-.5-1-.5-1-.5-.5-.5-.5.5-1.5.5-1.5.5 1 .5 1 .5.5.5.5 1 1 1 1 1 1 1 1 .5 1 .5 1h1.5 1.5l-3.5-5.5-3.5-5.5-4-2.5-4-2.5-1 7.5-1 7.5-2-.5-2-.5 1.5 1 1.5 1" />
            <path d="m122 448l3 1 1.5-.5 1.5-.5 1-1.5 1-1.5h2 2l2 .5 2 .5h1 1l1.5-.5 1.5-.5 2-.5 2-.5 1.5-.5 1.5-.5 2 1 2 1h1 1 2 2l1.5-.5 1.5-.5 1-1.5 1-1.5v-.5-.5l-3.5-4.5-3.5-4.5-4.5-4.5-4.5-4.5-3.5-5.5-3.5-5.5-1.5-7.5-1.5-7.5 4 4 4 4 2.5 6 2.5 6 7 2 7 2v-1-1l-3.5-4.5-3.5-4.5-2.5-5.5-2.5-5.5-2.5-7.5-2.5-7.5-1.5-1-1.5-1v-1-1l-1-.5-1-.5 2 6 2 6 3 5 3 5 2 5.5 2 5.5 2.5 4.5 2.5 4.5-4.5-2-4.5-2-2-6-2-6-2.5-5-2.5-5-4.5-1.5-4.5-1.5 1 5.5 1 5.5 2.5 6 2.5 6 3.5 5 3.5 5 3.5 4 3.5 4 2.5 5.5 2.5 5.5-5-1.5-5-1.5-4.5 1.5-4.5 1.5-10.5 2.5-10.5 2.5" />
        </g>
        <path d="m140 448v1l1-.5 1-.5 1-1 1-1h1 1l1.5-.5 1.5-.5h1.5 1.5v1 1l2 .5 2 .5-1-1.5-1-1.5-2-1-2-1-1.5.5-1.5.5-2 .5-2 .5-1.5.5-1.5.5h-1-1-2-2l-1 .5-1 .5h2 2l2 .5 2 .5" style="fill:#735e4f;stroke:#735e4f" />
        <path d="m105 447l2-15 4 2.5 4 2.5 3.5 5.5 3.5 5.5 10.5-2.5 10.5-2.5 4.5-1.5 4.5-1.5 5 1.5 5 1.5-2.5-5.5-2.5-5.5-3.5-4-3.5-4-3.5-5-3.5-5-2.5-6-2.5-6-1-5.5-1-5.5 4.5 1.5 4.5 1.5 2.5 5 2.5 5 2 6 2 6 4.5 2 4.5 2-2.5-4.5-2.5-4.5-2-5.5-2-5.5-3-5-3-5-2-6-2-6-1-1-1-1-.5-1-.5-1-1-1-1-1-.5-.5-.5-.5-.5-.5-.5-.5-1-1-1-1-1-.5-1-.5-4.5-3.5-4.5-3.5-3-5-3-5-3.5-4-3.5-4 .5-5.5.5-5.5 2-5.5 2-5.5 4-4 4-4 4.5-3 4.5-3 3.5 4.5 3.5 4.5 1 6.5 1 6.5 2.5-1.5 2.5-1.5-1.5-6-1.5-6-3-5-3-5-5.5-1-5.5-1-5 3-5 3-4 3.5-4 3.5-2.5 5.5-2.5 5.5-2.5 5-2.5 5-4 6.5-4 6.5-.5 2.5-.5 2.5-.5 2-.5 2-.5 1.5-.5 1.5-.5 2-.5 2v2 2l.5 2.5.5 2.5.5-7.5.5-7.5 3-6 3-6 4-4.5 4-4.5 2 6 2 6 5 4 5 4 5 4 5 4 5 3.5 5 3.5 3.5 5.5 3.5 5.5-4.5-.5-4.5-.5-2 5-2 5 2 6.5 2 6.5 3 6 3 6 4 5 4 5 4.5 4.5 4.5 4.5-3-.5-3-.5-6 1-6 1h-4-4l-5-4-5-4-6.5-2.5-6.5-2.5-2.5 5-2.5 5 1 6 1 6-2-.5-2-.5-1-1-1-1-1-1-1-1 1 2 1 2 .5.5.5.5 2 .5 2 .5" style="fill:#bbb7ab;stroke:#bbb7ab" />
        <path d="m158 447l4 1 1-1 1-1 1-1 1-1v-1.5-1.5h-.5-.5l-1 1.5-1 1.5-1.5.5-1.5.5h-2-2l1 1 1 1" style="fill:#b47269;stroke:#b47269" />
        <path d="m106 446l-2-12 2.5-5 2.5-5 6.5 2.5 6.5 2.5 5 4 5 4h4 4l6-1 6-1 3 .5 3 .5-4.5-4.5-4.5-4.5-4-5-4-5-3-6-3-6-2-6.5-2-6.5 2-5 2-5 4.5.5 4.5.5-3.5-5.5-3.5-5.5-5-3.5-5-3.5-5-4-5-4-5-4-5-4-2-6-2-6-4 4.5-4 4.5-3 6-3 6-.5 7.5-.5 7.5 2 7 2 7 1 6.5 1 6.5 1 7 1 7 1 13.5 1 13.5 1 1 1 1 1 1 1 1 2 .5 2 .5" style="fill:#d7d3c5;stroke:#d7d3c5" />
        <path d="m249 446v1l2-.5 2-.5-1-2.5-1-2.5-.5-1-.5-1v-1.5-1.5l-.5-.5-.5-.5h-1.5-1.5v2 2l.5 1.5.5 1.5.5 1 .5 1 .5 1 .5 1" style="fill:#9b3726;stroke:#9b3726" />
        <path d="m98 444l2 1-1-2-1-2-.5-.5-.5-.5-1-8.5-1-8.5-2-14.5-2-14.5 1 11.5 1 11.5.5 7.5.5 7.5 2 6 2 6" style="fill:#9a9488;stroke:#9a9488" />
        <path d="m245 442v1l1-.5 1-.5-.5-1.5-.5-1.5v-2-2l-.5-.5-.5-.5-1-.5-1-.5-1 1-1 1-.5 3-.5 3h1.5 1.5l1 .5 1 .5" style="fill:#76342a;stroke:#76342a" />
        <path d="m97 440l1 1-1-13.5-1-13.5-1-7-1-7-1-6.5-1-6.5-2-7-2-7v2 2l.5 1.5.5 1.5 1 1.5 1 1.5v2 2 2 2 1.5 1.5l2 14.5 2 14.5 1 8.5 1 8.5" style="fill:#bbb7ab;stroke:#bbb7ab" />
        <path d="m165 440v1h.5.5l-1-2.5-1-2.5-.5-1.5-.5-1.5-1-1-1-1-1-1-1-1-1-1-1-1-1-.5-1-.5-.5-.5-.5-.5-.5-1-.5-1-.5-.5-.5-.5.5-1 .5-1 1 1 1 1 .5.5.5.5 1 .5 1 .5 1.5.5 1.5.5.5-.5.5-.5h1 1l.5-.5.5-.5 1.5-.5 1.5-.5v-.5-.5l-1-.5-1-.5-7-2-7-2-2.5-6-2.5-6-4-4-4-4 1.5 7.5 1.5 7.5 3.5 5.5 3.5 5.5 4.5 4.5 4.5 4.5 3.5 4.5 3.5 4.5" style="fill:#7f7569;stroke:#7f7569" />
        <path d="m169 440v1l1-.5 1-.5v-2-2l.5-1 .5-1v-1-1l.5-1.5.5-1.5-.5-1-.5-1v-1-1l-1-1.5-1-1.5h-.5-.5l-.5 1-.5 1-1.5 1-1.5 1-.5 1-.5 1 .5 1 .5 1v1 1l.5 1.5.5 1.5 1 1.5 1 1.5.5 1 .5 1" style="fill:#76342a;stroke:#76342a" />
        <path d="m87 438h2v-2-2l.5-1 .5-1v-1.5-1.5-.5-.5l-.5-.5-.5-.5-2.5-6.5-2.5-6.5v-14.5-14.5l-.5-1.5-.5-1.5-.5-1.5-.5-1.5-.5-1.5-.5-1.5v-2.5-2.5-2-2-2.5-2.5l.5-1.5.5-1.5 1-7 1-7-4 1.5-4 1.5-7 .5-7 .5-6 2-6 2-6 .5-6 .5h-6.5-6.5l-7 1.5-7 1.5-5.5 5-5.5 5v8 8 9 9 9 9 .5.5l6.5 2 6.5 2 6 1 6 1 5-1.5 5-1.5 5-3 5-3 5-2.5 5-2.5 4.5-2.5 4.5-2.5 4.5 3 4.5 3 4.5.5 4.5.5.5 6 .5 6 2 6 2 6" style="fill:#1b1307;stroke:#1b1307" />
        <path d="m238 438v1l.5-1.5.5-1.5 1-.5 1-.5 1-1 1-1 1 .5 1 .5v-2-2l.5-1 .5-1v-2-2l.5-2 .5-2 1-1 1-1v-2-2l-7-3.5-7-3.5-.5-8.5-.5-8.5-2.5.5-2.5.5 1 7.5 1 7.5 2.5 7 2.5 7 1-1 1-1 .5 1.5.5 1.5h1 1l.5 1 .5 1v2 2l.5.5.5.5v1 1l-.5-.5-.5-.5h-1-1l-.5-1-.5-1-.5-.5-.5-.5-.5-1-.5-1-.5-1-.5-1 .5 2.5.5 2.5.5 1.5.5 1.5v2.5 2.5 1.5 1.5" style="fill:#735e4f;stroke:#735e4f" />
        <path d="m249 435l1 1 3.5-8.5 3.5-8.5 7-2 7-2 7.5.5 7.5.5 8 .5 8 .5 8 1 8 1 7-2 7-2 3-6 3-6 7.5-.5 7.5-.5 7.5 1 7.5 1 8.5.5 8.5.5 8-1 8-1 7-2 7-2 5-3.5 5-3.5 3.5-5.5 3.5-5.5 5-4 5-4 6-3 6-3 5-2 5-2v-3-3-2-2-2-2l-3.5.5-3.5.5-4 4.5-4 4.5-5 3.5-5 3.5-5 2.5-5 2.5-4.5 4-4.5 4-2.5 6.5-2.5 6.5-6.5 2.5-6.5 2.5h-9-9-7.5-7.5l-8-1-8-1-7-1-7-1-6-2-6-2-2 6.5-2 6.5-5 3.5-5 3.5-7 1-7 1-1 .5-1 .5 1.5.5 1.5.5h-2-2l-2 .5-2 .5h-2-2l-2-.5-2-.5h-1.5-1.5l-1.5-.5-1.5-.5-2-.5-2-.5-1.5-1.5-1.5-1.5h-1-1-1-1-1-1-1-1l-1-.5-1-.5h-1-1l-.5.5-.5.5h-1-1l-.5.5-.5.5h-1-1l-1 .5-1 .5v1 1l-1 1-1 1v2 2l-1 1-1 1-.5 2-.5 2v2 2l-.5 1-.5 1v2 2l.5.5.5.5h1.5 1.5" style="fill:#9c5951;stroke:#9c5951" />
        <g style="fill:#595448;stroke:#595448">
            <path d="m92 434l1 1-1-9-1-9-.5-8.5-.5-8.5-1.5-8-1.5-8 1.5 9.5 1.5 9.5v8 8l1 7.5 1 7.5" />
            <path d="m165 434l1 1-.5-1.5-.5-1.5v-1-1l-.5-1-.5-1 .5-1 .5-1h-1.5-1.5-2.5-2.5-1-1l1 .5 1 .5 1 1 1 1 1 1 1 1 1 1 1 1 1 .5 1 .5" />
        </g>
        <path d="m187 434l1 1-.5-1.5-.5-1.5v-1-1-1.5-1.5l.5-.5.5-.5v-1-1l.5-.5.5-.5.5-.5.5-.5.5-1 .5-1 .5-.5.5-.5v-1-1l.5-.5.5-.5.5-1 .5-1 .5-.5.5-.5v-1-1l.5-.5.5-.5.5-.5.5-.5.5-1.5.5-1.5-1.5 1-1.5 1-1.5 1-1.5 1-.5 1.5-.5 1.5-.5 2-.5 2-1 1-1 1-1 1.5-1 1.5-.5 2-.5 2v1.5 1.5l.5 1 .5 1 .5 1.5.5 1.5" style="fill:#9a9488;stroke:#9a9488" />
        <path d="m377 430l16 1 7.5-1.5 7.5-1.5 2.5-4.5 2.5-4.5-7.5-.5-7.5-.5h-8.5-8.5l-8-1-8-1-6 2-6 2 5 4 5 4 7 1 7 1" style="fill:#ad3100;stroke:#ad3100" />
        <path d="m240 429h2l.5.5.5.5v-1-1l-.5-.5-.5-.5v-2-2l-.5-1-.5-1h-1-1l-.5-1.5-.5-1.5-1 1-1 1v1 1l.5 1 .5 1 .5 1 .5 1 .5.5.5.5.5 1 .5 1" style="fill:#595448;stroke:#595448" />
        <path d="m89 427l1 1-1-7.5-1-7.5-1-7-1-7-1-7-1-7v14.5 14.5l2.5 6.5 2.5 6.5" style="fill:#371c11;stroke:#371c11" />
        <path d="m154 425l1 1h1 1 2.5 2.5 1.5 1.5l1.5-1 1.5-1 .5-1 .5-1h-.5-.5l-1.5.5-1.5.5-.5.5-.5.5h-1-1l-.5.5-.5.5-1.5-.5-1.5-.5-1-.5-1-.5-.5-.5-.5-.5-1-1-1-1-.5 1-.5 1 .5.5.5.5.5 1 .5 1" style="fill:#735e4f;stroke:#735e4f" />
        <g style="fill:#9b3726;stroke:#9b3726">
            <path d="m260 425l3 1 1-1 1-1-.5-2-.5-2h-2-2l-1 1.5-1 1.5 1 1 1 1" />
            <path d="m284 423l3 1h.5.5l1.5-.5 1.5-.5h2 2v-1-1l-2-.5-2-.5-.5-.5-.5-.5h-2.5-2.5-2-2l-1.5.5-1.5.5 2 .5 2 .5 1.5.5 1.5.5-1 .5-1 .5h.5.5" />
        </g>
        <path d="m168 421v1h.5.5.5.5v-2.5-2.5l-.5-.5-.5-.5-3-5-3-5-3-6-3-6-2.5-5.5-2.5-5.5v-.5-.5l-1.5-1.5-1.5-1.5-1-1-1-1-1-1-1-1v-1-1l-1-.5-1-.5-1-1-1-1-.5-.5-.5-.5-1-1.5-1-1.5-1-.5-1-.5-1-1-1-1-.5-1.5-.5-1.5v-1-1l1-.5 1-.5 1-1 1-1h1 1l.5-.5.5-.5.5-.5.5-.5 1-.5 1-.5 1-1 1-1 .5-.5.5-.5.5-1 .5-1 .5-1 .5-1v-.5-.5l-1.5 1-1.5 1-.5 1-.5 1-.5 1.5-.5 1.5h-1-1l-.5.5-.5.5-.5.5-.5.5-1 .5-1 .5-1.5.5-1.5.5-.5.5-.5.5-1 .5-1 .5v1 1 1 1l.5 1 .5 1 1 1.5 1 1.5.5 1 .5 1 1 1 1 1 .5.5.5.5.5.5.5.5 1 1 1 1 .5 1 .5 1 1 1 1 1 1 .5 1 .5v1 1l1.5 1 1.5 1 3 5.5 3 5.5 2.5 6.5 2.5 6.5 3.5 5.5 3.5 5.5h-.5-.5v1 1l1 .5 1 .5" style="fill:#595448;stroke:#595448" />
        <path d="m167 418l-7-11-2.5-6.5-2.5-6.5-3-5.5-3-5.5 2.5 7.5 2.5 7.5 2.5 5.5 2.5 5.5 3.5 4.5 3.5 4.5h.5.5" style="fill:#7f7569;stroke:#7f7569" />
        <path d="m176 417l4 1 .5-1.5.5-1.5 1-1.5 1-1.5v-.5-.5l-1-2-1-2-.5-1.5-.5-1.5-1-1-1-1-.5-.5-.5-.5-.5-1-.5-1-1-1-1-1-1-1.5-1-1.5-.5-1.5-.5-1.5-1.5-1-1.5-1-1-1-1-1-1-.5-1-.5.5 1 .5 1v1 1l.5 2 .5 2 .5 1.5.5 1.5 1 1.5 1 1.5.5 1.5.5 1.5.5 2 .5 2 1 1 1 1 .5 2 .5 2v2 2h1 1" style="fill:#bf3e32;stroke:#bf3e32" />
        <path d="m169 416l1 1v-2-2l-.5-2-.5-2-1-1-1-1-.5-2-.5-2-.5-1.5-.5-1.5-1-1.5-1-1.5-.5-1.5-.5-1.5-.5-1.5-.5-1.5-.5-2-.5-2-.5-1.5-.5-1.5-2-1-2-1-1-.5-1-.5-.5 1-.5 1 2.5 5.5 2.5 5.5 3 6 3 6 3 5 3 5" style="fill:#76342a;stroke:#76342a" />
        <path d="m284 413l4 1h2 2l2-.5 2-.5h2 2l-1.5-.5-1.5-.5 1-.5 1-.5-1-.5-1-.5h-1.5-1.5l-1-.5-1-.5-2 .5-2 .5h-2-2l-1.5-.5-1.5-.5-2.5-.5-2.5-.5-1-.5-1-.5-1.5.5-1.5.5 1.5 1.5 1.5 1.5 2 .5 2 .5 1.5.5 1.5.5h1.5 1.5" style="fill:#b47269;stroke:#b47269" />
        <g style="fill:#ad3100;stroke:#ad3100">
            <path d="m183 411v1l1.5-.5 1.5-.5.5-1 .5-1 .5-.5.5-.5 1-1 1-1 .5-1 .5-1 .5-.5.5-.5 1-1 1-1 1-1.5 1-1.5-.5-.5-.5-.5.5-8 .5-8-3-4.5-3-4.5-2.5-5.5-2.5-5.5-4-3.5-4-3.5-7 1.5-7 1.5-2.5 11-2.5 11 1 .5 1 .5.5 1.5.5 1.5 1.5 1.5 1.5 1.5 1 .5 1 .5 1 1 1 1 1.5 1 1.5 1 .5 1.5.5 1.5 1 1.5 1 1.5 1 1 1 1 .5 1 .5 1 .5.5.5.5 1 1 1 1 .5 1.5.5 1.5 1 2 1 2" />
            <path d="m413 411h15l7-2 7-2 5.5-3.5 5.5-3.5-4-2-4-2-7 1.5-7 1.5-7 2-7 2-2 4-2 4" />
        </g>
        <path d="m281 409l3 1h2 2l2-.5 2-.5-1.5-.5-1.5-.5-1-.5-1-.5-.5-.5-.5-.5-.5-1.5-.5-1.5-.5-1-.5-1-.5-.5-.5-.5-1.5-.5-1.5-.5-1.5-.5-1.5-.5-1.5 1-1.5 1 .5 1.5.5 1.5-1 .5-1 .5.5 1.5.5 1.5 1 .5 1 .5 2.5.5 2.5.5" style="fill:#9a9488;stroke:#9a9488" />
        <path d="m195 407v1l1.5-1 1.5-1 1-.5 1-.5.5-2 .5-2 1-1 1-1 .5-1 .5-1v-.5-.5l.5-1 .5-1 1.5-1 1.5-1 .5-1.5.5-1.5 1.5-1 1.5-1 1-1 1-1 1.5-1.5 1.5-1.5 1.5-1.5 1.5-1.5 1.5-.5 1.5-.5h2 2 1.5 1.5l1 .5 1 .5v-1-1l-2-.5-2-.5h-1.5-1.5l-.5-.5-.5-.5 2-.5 2-.5h-.5-.5-1.5-1.5l-1.5.5-1.5.5h-1.5-1.5l-1 1-1 1h1.5 1.5l-1.5 1-1.5 1-1 1-1 1-1 1-1 1-1 1.5-1 1.5-1 1-1 1-1 1.5-1 1.5-1 1-1 1-1 1.5-1 1.5v1 1l-1 1.5-1 1.5-1 1-1 1-1 1-1 1-.5 1-.5 1" style="fill:#735e4f;stroke:#735e4f" />
        <path d="m242 402h2l.5-1.5.5-1.5 1-1.5 1-1.5-1.5-.5-1.5-.5-1.5 1-1.5 1v2 2l.5.5.5.5" style="fill:#9a9488;stroke:#9a9488" />
        <path d="m198 398l1 1 1.5-1.5 1.5-1.5 1-1.5 1-1.5 1-1 1-1 1-1.5 1-1.5 1-1 1-1 1-1.5 1-1.5 1-1 1-1 1-1 1-1 1.5-1 1.5-1h-1.5-1.5l-1.5 1-1.5 1-1 1.5-1 1.5-1 1-1 1-1 1.5-1 1.5-1.5 1.5-1.5 1.5-.5 1-.5 1-.5.5-.5.5-.5.5-.5.5-1 .5-1 .5-.5 1.5-.5 1.5" style="fill:#76342a;stroke:#76342a" />
        <path d="m195 397l1 1h1 1l.5-1.5.5-1.5 1-.5 1-.5.5-.5.5-.5.5-.5.5-.5.5-1 .5-1-.5-.5-.5-.5-1.5-7-1.5-7-3-6-3-6 1.5-6 1.5-6 .5-5.5.5-5.5-6 1-6 1-6.5 2.5-6.5 2.5-5.5 1-5.5 1-4 5-4 5 .5 11.5.5 11.5 2 1 2 1-.5-2.5-.5-2.5 2.5-11 2.5-11 7-1.5 7-1.5 4 3.5 4 3.5 2.5 5.5 2.5 5.5 3 4.5 3 4.5-.5 8-.5 8" style="fill:#7c2100;stroke:#7c2100" />
        <path d="m204 396v1l1-.5 1-.5 1-1 1-1 1-1 1-1 1-1.5 1-1.5.5-.5.5-.5 1-1 1-1 1-1 1-1v-1-1l-1.5 1.5-1.5 1.5-1 1-1 1-1.5 1-1.5 1-.5 1.5-.5 1.5-1.5 1-1.5 1-.5 1-.5 1" style="fill:#9a9488;stroke:#9a9488" />
        <path d="m77 394l2-11h-5-5l2.5 5.5 2.5 5.5h1.5 1.5" style="fill:#371c11;stroke:#371c11" />
        <path d="m249 390l3 1 .5-.5.5-.5v-1-1-1.5-1.5l-.5-.5-.5-.5 1-1 1-1-.5-.5-.5-.5h-1.5-1.5-1-1-2.5-2.5-1.5-1.5v1 1l.5 2 .5 2 1 1 1 1 1.5.5 1.5.5h1.5 1.5" style="fill:#9a9488;stroke:#9a9488" />
        <path d="m203 389l1 1 1.5-1.5 1.5-1.5 1-1.5 1-1.5 1-1 1-1 1-1.5 1-1.5 1.5-1 1.5-1 1-1 1-1v-.5-.5l-4-2-4-2-4.5-3-4.5-3 2-6 2-6 3-4.5 3-4.5 2.5-6 2.5-6v-6.5-6.5l-2-5.5-2-5.5-4.5-3.5-4.5-3.5-1.5 3-1.5 3-2.5-2.5-2.5-2.5-2-5.5-2-5.5-.5-7-.5-7-2.5-6-2.5-6-4.5-1-4.5-1-5.5 2.5-5.5 2.5-4 3.5-4 3.5-6.5 2-6.5 2-2.5 5-2.5 5 2-1 2-1 4.5-3.5 4.5-3.5 6.5-2.5 6.5-2.5 5.5-3.5 5.5-3.5 4 5 4 5-1 8-1 8-6.5 2-6.5 2-7 1-7 1-2-.5-2-.5-1-1-1-1h-2-2l.5 1.5.5 1.5 1 1.5 1 1.5 4 5 4 5 1.5 6.5 1.5 6.5-2 6-2 6-.5 1.5-.5 1.5-.5-1.5-.5-1.5-.5 1-.5 1v2 2l.5 1 .5 1-.5.5-.5.5v1.5 1.5l-.5 1.5-.5 1.5v1 1l-.5.5-.5.5-.5.5-.5.5v1.5 1.5 1 1 1 1l.5.5.5.5v1.5 1.5l.5 1.5.5 1.5v1 1 1.5 1.5l.5 2.5.5 2.5.5.5.5.5 1 .5 1 .5-.5-11.5-.5-11.5 4-5 4-5 5.5-1 5.5-1 6.5-2.5 6.5-2.5 6-1 6-1-.5 5.5-.5 5.5-1.5 6-1.5 6 3 6 3 6 1.5 7 1.5 7" style="fill:#571701;stroke:#571701" />
        <path d="m152 382v1l.5-1 .5-1-.5-.5-.5-.5-.5-.5-.5-.5-1-1.5-1-1.5-1-1-1-1-1-1.5-1-1.5-1.5-1.5-1.5-1.5-1-.5-1-.5-1-.5-1-.5 1 1.5 1 1.5.5.5.5.5 1 1 1 1 1 .5 1 .5v1 1l1 1 1 1 1 1 1 1 1.5 1.5 1.5 1.5" style="fill:#3f3428;stroke:#3f3428" />
        <path d="m253 381l1 1 1-.5 1-.5 1.5-.5 1.5-.5 1.5-.5 1.5-.5.5-.5.5-.5-.5-.5-.5-.5-1-.5-1-.5h-1-1l-.5.5-.5.5h-1-1-1.5-1.5-1-1l-.5.5-.5.5h-1-1-1.5-1.5l-1.5.5-1.5.5h-1-1-.5-.5l1 1 1 1h1.5 1.5 2.5 2.5 1 1 1.5 1.5" style="fill:#b47269;stroke:#b47269" />
        <path d="m277 381l26 1 3-2.5 3-2.5 1.5-4 1.5-4h-2-2l-1.5.5-1.5.5-1 1-1 1h-2.5-2.5l-1.5.5-1.5.5h-2.5-2.5l-1.5.5-1.5.5-1.5 1-1.5 1h-2-2l-1.5 1-1.5 1-1.5.5-1.5.5v1 1h1.5 1.5" style="fill:#9a9488;stroke:#9a9488" />
        <path d="m151 379l1 1-.5-2.5-.5-2.5v-1.5-1.5-1-1l-.5-1.5-.5-1.5v-1.5-1.5l-.5-.5-.5-.5v-1-1-1-1-1.5-1.5l.5-.5.5-.5.5-.5.5-.5v-1-1l.5-1.5.5-1.5v-1.5-1.5l.5-.5.5-.5-.5-1-.5-1-1 1.5-1 1.5-.5 1.5-.5 1.5-1 1-1 1-.5.5-.5.5-1 .5-1 .5-1 1-1 1-.5.5-.5.5-1 .5-1 .5-1.5.5-1.5.5v1.5 1.5l1-.5 1-.5 1.5-.5 1.5-.5 2 .5 2 .5 1 1 1 1v2.5 2.5l1 1 1 1-.5 1-.5 1h-1-1l-.5-.5-.5-.5v-1-1h-1.5-1.5l1.5 1.5 1.5 1.5 1 1.5 1 1.5 1 1 1 1 1 1.5 1 1.5" style="fill:#371c11;stroke:#371c11" />
        <path d="m239 379h2l1.5-.5 1.5-.5h1.5 1.5 1 1l.5-.5.5-.5h1 1 1.5 1.5 1 1l.5-.5.5-.5h1 1l1 .5 1 .5.5.5.5.5-.5.5-.5.5-1.5.5-1.5.5h2.5 2.5l1-.5 1-.5v-.5-.5l4.5-2.5 4.5-2.5 7-1 7-1 6.5-1 6.5-1 12-3.5 12-3.5 2-.5 2-.5 1.5-.5 1.5-.5 2.5-.5 2.5-.5 1-.5 1-.5h1.5 1.5l1.5-.5 1.5-.5h1 1l1 .5 1 .5 1 1 1 1h2 2l.5-.5.5-.5h1.5 1.5l1-.5 1-.5v-.5-.5l2-.5 2-.5 1-1.5 1-1.5 1.5-.5 1.5-.5 1.5.5 1.5.5 2.5-.5 2.5-.5h1.5 1.5l1.5-.5 1.5-.5 2 .5 2 .5 1.5-1 1.5-1-1-.5-1-.5-.5-.5-.5-.5 1-1 1-1-.5-1-.5-1-1.5-.5-1.5-.5-1 .5-1 .5-.5.5-.5.5-.5-.5-.5-.5h-1-1l-1 .5-1 .5-.5.5-.5.5h-1-1-1-1l.5-.5.5-.5-1.5 1-1.5 1-2 .5-2 .5-1 1-1 1-1 1-1 1h-1-1l-1 .5-1 .5h-1.5-1.5-.5-.5-1.5-1.5l-1 .5-1 .5h-1.5-1.5l-6.5 1.5-6.5 1.5-7.5 1.5-7.5 1.5-11 3.5-11 3.5-1 .5-1 .5h-1.5-1.5l-2 .5-2 .5-1.5.5-1.5.5h-3-3l-1 .5-1 .5-1.5.5-1.5.5-2 .5-2 .5h-2-2l-2 .5-2 .5-1.5.5-1.5.5h-2.5-2.5l-1.5.5-1.5.5h-2.5-2.5-1.5-1.5l-2 .5-2 .5h-1.5-1.5-2.5-2.5v1 1h1.5 1.5 1.5 1.5.5.5" style="fill:#9c5951;stroke:#9c5951" />
        <path d="m266 378v1h1.5 1.5 1 1 1.5 1.5l1.5-.5 1.5-.5 1.5-1 1.5-1h2 2l1.5-1 1.5-1 1.5-.5 1.5-.5h2.5 2.5l1.5-.5 1.5-.5h2.5 2.5l1-1 1-1 1.5-.5 1.5-.5h2 2l1-.5 1-.5.5-.5.5-.5h2 2 1.5 1.5l.5-.5.5-.5 1.5-.5 1.5-.5v-1.5-1.5l-12 3.5-12 3.5-6.5 1-6.5 1-7 1-7 1-4.5 2.5-4.5 2.5" style="fill:#b47269;stroke:#b47269" />
        <path d="m228 376l4 1h2.5 2.5v-.5-.5l1-1 1-1h-2-2-1.5-1.5-2-2l-2 .5-2 .5.5.5.5.5h1.5 1.5" style="fill:#76342a;stroke:#76342a" />
        <path d="m237 376v1h1.5 1.5l2-.5 2-.5v-.5-.5h1.5 1.5l1-.5 1-.5 1.5-1.5 1.5-1.5h-1.5-1.5l-1.5.5-1.5.5h-1.5-1.5l-1 .5-1 .5-1 .5-1 .5-1 1-1 1" style="fill:#9b3726;stroke:#9b3726" />
        <path d="m244 375v1h1.5 1.5 2.5 2.5l1.5-.5 1.5-.5h2.5 2.5l1.5-.5 1.5-.5 2-.5 2-.5h2 2l2-.5 2-.5 1.5-.5 1.5-.5 1-.5 1-.5-1.5-.5-1.5-.5h-1-1l-3-.5-3-.5h-2-2-2-2l-2 .5-2 .5-1.5.5-1.5.5-1 .5-1 .5-1.5 1.5-1.5 1.5-1 .5-1 .5h-1.5-1.5" style="fill:#bf3e32;stroke:#bf3e32" />
        <path d="m218 374v1h1.5 1.5l1.5-.5 1.5-.5h1.5 1.5v-.5-.5l.5-3.5.5-3.5 4-4 4-4 2.5-5 2.5-5 2-6 2-6 2.5-7 2.5-7-1.5-5-1.5-5-1.5-5-1.5-5-4-4.5-4-4.5-1-6.5-1-6.5 2.5-5 2.5-5 2.5-5.5 2.5-5.5 1.5-5 1.5-5 2-6 2-6 1.5-6 1.5-6v-5.5-5.5-6.5-6.5l4-1.5 4-1.5 4.5 3.5 4.5 3.5 2 5.5 2 5.5h5.5 5.5l1.5-7 1.5-7 4.5-3 4.5-3 5.5 1.5 5.5 1.5 6-1.5 6-1.5 3 2 3 2 2-2.5 2-2.5 1 6.5 1 6.5 5 3.5 5 3.5-3 4.5-3 4.5-5-2-5-2-4.5-2-4.5-2 3.5 5 3.5 5 .5 3 .5 3 2.5 3 2.5 3 5 1 5 1-1 4.5-1 4.5-6.5 1.5-6.5 1.5-5.5-2-5.5-2-5-.5-5-.5-6 .5-6 .5-2 5.5-2 5.5-4 4-4 4-1.5 5-1.5 5 1 7 1 7 4 3.5 4 3.5-1 2.5-1 2.5-7-.5-7-.5-4.5 3-4.5 3-.5 3.5-.5 3.5 8.5 4 8.5 4-3-5.5-3-5.5 3.5-1 3.5-1 5.5 2.5 5.5 2.5 7 .5 7 .5 5-2 5-2-1-5.5-1-5.5 4-4 4-4 5-1.5 5-1.5 7-1 7-1 6-1.5 6-1.5 2 5 2 5-1.5 6-1.5 6-.5 6.5-.5 6.5-2 3.5-2 3.5-.5 3-.5 3-4 3.5-4 3.5-6 2-6 2-4.5-1-4.5-1-4.5-1.5-4.5-1.5-5 2.5-5 2.5-3 1.5-3 1.5-.5-1-.5-1-1-1.5-1-1.5-1-1.5-1-1.5.5 1 .5 1 .5 2 .5 2v2 2l6.5 2.5 6.5 2.5 7.5-1.5 7.5-1.5 4-1.5 4-1.5 6.5-2.5 6.5-2.5 5.5-3.5 5.5-3.5 3-6 3-6 3.5-5 3.5-5 1-7 1-7 3.5-5.5 3.5-5.5 5-4 5-4-1.5-6.5-1.5-6.5v-.5-.5l-.5-6.5-.5-6.5-.5-8.5-.5-8.5-.5-7.5-.5-7.5-.5-8-.5-8-3-4.5-3-4.5-4.5-3.5-4.5-3.5-4-6.5-4-6.5-.5-.5-.5-.5-1.5-.5-1.5-.5-1-1-1-1v-2.5-2.5-1-1-1-1l-6-3-6-3-4.5-4-4.5-4-5.5-2-5.5-2-7-1-7-1h-7.5-7.5l-7.5-.5-7.5-.5-5 2.5-5 2.5-5 3-5 3-5 2.5-5 2.5-5-1.5-5-1.5v-7.5-7.5l-1.5-6-1.5-6-6-2-6-2-7 .5-7 .5h-8-8l-2-5.5-2-5.5v-8-8l.5-7 .5-7 .5-8 .5-8v-8.5-8.5-7.5-7.5l.5-7.5.5-7.5-.5-11-.5-11h-.5-.5v9 9 7.5 7.5 9 9l-.5 8.5-.5 8.5-.5 8.5-.5 8.5-.5 8-.5 8v9 9l3 5 3 5 8.5.5 8.5.5 8 1 8 1 4 3.5 4 3.5v9 9l4 5 4 5 5.5-2.5 5.5-2.5 7-1.5 7-1.5 5.5-3.5 5.5-3.5 6-3 6-3 7.5.5 7.5.5 7 1.5 7 1.5 6 3 6 3 3 6 3 6 3 6 3 6 3 5.5 3 5.5-6.5-2.5-6.5-2.5-6.5-2.5-6.5-2.5h-7-7l-5.5-2.5-5.5-2.5-6-.5-6-.5-7.5.5-7.5.5-8.5.5-8.5.5h-5-5l-3.5 5-3.5 5-4 5-4 5-5.5 3.5-5.5 3.5-3.5 5.5-3.5 5.5 1 7.5 1 7.5 5.5.5 5.5.5 5.5-3.5 5.5-3.5 4.5-4.5 4.5-4.5 3.5 4 3.5 4-1 8-1 8-4 5-4 5-2.5 6.5-2.5 6.5-1.5 7.5-1.5 7.5-.5 8-.5 8 4.5 4.5 4.5 4.5-.5 6.5-.5 6.5v7 7l.5 7 .5 7-2 6-2 6-5 4-5 4-8.5 1.5-8.5 1.5v-5.5-5.5l3.5-5.5 3.5-5.5 3-6 3-6 3-4.5 3-4.5-1.5-5-1.5-5-2-6.5-2-6.5-3-5.5-3-5.5-4-5-4-5-1-8-1-8 1-7 1-7-1.5-1-1.5-1-5.5 3.5-5.5 3.5-5.5.5-5.5.5-5 3-5 3-4.5 4-4.5 4-7 2-7 2-5 4-5 4-3.5 3.5-3.5 3.5-6 5-6 5 1-.5 1-.5.5-.5.5-.5 1-.5 1-.5.5-.5.5-.5.5-.5.5-.5h1 1l.5-.5.5-.5h1.5 1.5l.5-.5.5-.5h1 1l.5-.5.5-.5 1.5-.5 1.5-.5.5-.5.5-.5 2.5-5 2.5-5 6.5-2 6.5-2 4-3.5 4-3.5 5.5-2.5 5.5-2.5 4.5 1 4.5 1 2.5 6 2.5 6 .5 7 .5 7 2 5.5 2 5.5 2.5 2.5 2.5 2.5 1.5-3 1.5-3 4.5 3.5 4.5 3.5 2 5.5 2 5.5v6.5 6.5l-2.5 6-2.5 6-3 4.5-3 4.5-2 6-2 6 4.5 3 4.5 3 4 2 4 2" style="fill:#371c11;stroke:#371c11" />
        <path d="m227 373v1h.5.5 2 2v-.5-.5l3.5-5.5 3.5-5.5 4-5 4-5 6-3 6-3 6-3 6-3-.5-1.5-.5-1.5-.5-1.5-.5-1.5-1.5-1-1.5-1-1.5-.5-1.5-.5-1.5-.5-1.5-.5-.5-.5-.5-.5-1-.5-1-.5-1.5-.5-1.5-.5-.5-.5-.5-.5-.5-1.5-.5-1.5-1-.5-1-.5-2.5 7-2.5 7-2 6-2 6-2.5 5-2.5 5-4 4-4 4-.5 3.5-.5 3.5" style="fill:#571701;stroke:#571701" />
        <path d="m232 373v1h1.5 1.5 2 2l1-.5 1-.5 1-.5 1-.5v-.5-.5l2.5-5.5 2.5-5.5 4-4 4-4 6 .5 6 .5 6 6.5 6 6.5 1.5.5 1.5.5h1 1 2 2v-.5-.5h2 2l1.5-.5 1.5-.5h1 1l1-.5 1-.5 1.5-1 1.5-1h-1.5-1.5-1-1l-1.5-.5-1.5-.5-1-.5-1-.5-1-.5-1-.5-.5-.5-.5-.5-.5-.5-.5-.5-.5-.5-.5-.5v-1.5-1.5l-1-.5-1-.5-2-.5-2-.5-1.5-.5-1.5-.5-1-1.5-1-1.5-1-1.5-1-1.5-.5-.5-.5-.5-1.5-1.5-1.5-1.5-6 3-6 3-6 3-6 3-4 5-4 5-3.5 5.5-3.5 5.5" style="fill:#7c2100;stroke:#7c2100" />
        <path d="m148 371l1-2-1-1-1-1v-2.5-2.5l-1-1-1-1-2-.5-2-.5-1.5.5-1.5.5-1 .5-1 .5 1 2.5 1 2.5 1 .5 1 .5 1 .5 1 .5h1.5 1.5v1 1l.5.5.5.5h1 1" style="fill:#1b1307;stroke:#1b1307" />
        <path d="m243 371v1h1.5 1.5l1.5-.5 1.5-.5h1.5 1.5l1-.5 1-.5 1.5-.5 1.5-.5 2-.5 2-.5h2 2 2 2l1.5-.5 1.5-.5 1.5-.5 1.5-.5h2.5 2.5l-6-6.5-6-6.5-6-.5-6-.5-4 4-4 4-2.5 5.5-2.5 5.5" style="fill:#ad3100;stroke:#ad3100" />
        <path d="m275 369h2l1.5.5 1.5.5h3 3l1.5-.5 1.5-.5 2-.5 2-.5h1.5 1.5l1-.5 1-.5h-3-3-1.5-1.5-2-2-1-1l-1.5-.5-1.5-.5h-2.5-2.5l-1.5.5-1.5.5-1.5.5-1.5.5 3 .5 3 .5" style="fill:#9b3726;stroke:#9b3726" />
        <path d="m133 367l2 1-.5-1-.5-1-1-.5-1-.5-3-5.5-3-5.5 5.5-2 5.5-2 4-4 4-4 2-5.5 2-5.5-.5-7.5-.5-7.5-2.5-5-2.5-5-3-5-3-5-9.5 3.5-9.5 3.5-6 6.5-6 6.5-2.5 5.5-2.5 5.5-2.5 5-2.5 5-2.5 5.5-2.5 5.5 4-6.5 4-6.5 2.5-5 2.5-5 2.5-5.5 2.5-5.5 4-3.5 4-3.5 5-3 5-3 5.5 1 5.5 1 3 5 3 5 1.5 6 1.5 6-2.5 1.5-2.5 1.5-1-6.5-1-6.5-3.5-4.5-3.5-4.5-4.5 3-4.5 3-4 4-4 4-2 5.5-2 5.5-.5 5.5-.5 5.5 3.5 4 3.5 4 3 5 3 5 4.5 3.5 4.5 3.5" style="fill:#9a9488;stroke:#9a9488" />
        <path d="m0 366v1l5.5-5 5.5-5 7-1.5 7-1.5h6.5 6.5l6-.5 6-.5 6-2 6-2 7-.5 7-.5 4-1.5 4-1.5-1 7-1 7 3-8 3-8 2.5-5.5 2.5-5.5 2.5-5.5 2.5-5.5 2.5-5.5 2.5-5.5-3.5 5-3.5 5-3-4-3-4h-6.5-6.5l-6 2-6 2-5 2.5-5 2.5-6.5.5-6.5.5-6.5 1-6.5 1-6.5 1.5-6.5 1.5-8 .5-8 .5v2.5 2.5 2 2 2.5 2.5 2 2 2.5 2.5 2 2 2 2 2.5 2.5 1 1" style="fill:#371c11;stroke:#371c11" />
        <path d="m207 366l17-3 5-4 5-4 2-6 2-6-.5-7-.5-7v-7-7l.5-6.5.5-6.5-4.5-4.5-4.5-4.5.5-8 .5-8 1.5-7.5 1.5-7.5 2.5-6.5 2.5-6.5 4-5 4-5 1-8 1-8-3.5-4-3.5-4-4.5 4.5-4.5 4.5-5.5 3.5-5.5 3.5-5.5-.5-5.5-.5-1-7.5-1-7.5 3.5-5.5 3.5-5.5 5.5-3.5 5.5-3.5 4-5 4-5 3.5-5 3.5-5h5 5l8.5-.5 8.5-.5 7.5-.5 7.5-.5 6 .5 6 .5 5.5 2.5 5.5 2.5h7 7l6.5 2.5 6.5 2.5 6.5 2.5 6.5 2.5-3-5.5-3-5.5-3-6-3-6-3-6-3-6-6-3-6-3-7-1.5-7-1.5-7.5-.5-7.5-.5-6 3-6 3-5.5 3.5-5.5 3.5-7 1.5-7 1.5-5.5 2.5-5.5 2.5-4-5-4-5v-9-9l-4-3.5-4-3.5-8-1-8-1-8.5-.5-8.5-.5-3-5-3-5v-9-9l.5-8 .5-8 .5-8.5.5-8.5.5-8.5.5-8.5v-9-9-7.5-7.5-9-9h-2-2-2.5-2.5-2-2-2.5-2.5-2-2-2-2-2.5-2.5-2-2-.5-.5l-1 7.5-1 7.5-.5 6-.5 6v7 7l2 5.5 2 5.5-2 6-2 6-.5 6-.5 6 1 7 1 7v7.5 7.5l-2.5 5.5-2.5 5.5-9.5 3.5-9.5 3.5-7.5-.5-7.5-.5-8.5-.5-8.5-.5-8.5-.5-8.5-.5-7.5-1-7.5-1-8.5-.5-8.5-.5-8.5-.5-8.5-.5-13.5-1-13.5-1v1.5 1.5 2 2 2.5 2.5 2 2 2.5 2.5 1 1l4.5 3.5 4.5 3.5 3 5.5 3 5.5 5 4 5 4 1.5 6.5 1.5 6.5-4 3.5-4 3.5h-9.5-9.5-.5-.5v8 8 9 9 8 8l8.5 1 8.5 1 6.5.5 6.5.5h8 8l6.5 1 6.5 1h7 7l8.5-.5 8.5-.5 6.5-1.5 6.5-1.5h8 8l6 2.5 6 2.5-2.5 5.5-2.5 5.5-7.5 1.5-7.5 1.5-8 1-8 1-7.5 1-7.5 1-7 2-7 2-7.5 1.5-7.5 1.5-8 1-8 1-7 1.5-7 1.5-10.5 4.5-10.5 4.5v10 10 8.5 8.5 6.5 6.5l8-.5 8-.5 6.5-1.5 6.5-1.5 6.5-1 6.5-1 6.5-.5 6.5-.5 5-2.5 5-2.5 6-2 6-2h6.5 6.5l3 4 3 4 3.5-5 3.5-5 1-2.5 1-2.5 1.5-.5 1.5-.5 1.5-1 1.5-1 1.5-.5 1.5-.5.5-1 .5-1 1.5-.5 1.5-.5 6-5 6-5 3.5-3.5 3.5-3.5 5-4 5-4 7-2 7-2 4.5-4 4.5-4 5-3 5-3 5.5-.5 5.5-.5 5.5-3.5 5.5-3.5 1.5 1 1.5 1-1 7-1 7 1 8 1 8 4 5 4 5 3 5.5 3 5.5 2 6.5 2 6.5 1.5 5 1.5 5-3 4.5-3 4.5-3 6-3 6-3.5 5.5-3.5 5.5v5.5 5.5" style="fill:#1b1307;stroke:#1b1307" />
        <path d="m289 366v1h1.5 1.5 3 3l11-3.5 11-3.5 7.5-1.5 7.5-1.5 6.5-1.5 6.5-1.5v-.5-.5l1.5-1 1.5-1-2 .5-2 .5h-2-2l-8 1-8 1-5.5 2-5.5 2-6.5 2-6.5 2-1.5 1-1.5 1-1 .5-1 .5h-1-1l-1.5.5-1.5.5h-2-2" style="fill:#76342a;stroke:#76342a" />
        <path d="m132 365l2 1-1-1.5-1-1.5-.5-1-.5-1v-1-1-1-1l1-.5 1-.5.5-.5.5-.5 1.5-.5 1.5-.5 1-.5 1-.5.5-.5.5-.5.5-.5.5-.5h1 1l.5-1.5.5-1.5.5-1 .5-1v-.5-.5l1-1.5 1-1.5.5-1.5.5-1.5.5-1.5.5-1.5.5-2 .5-2v-2-2-2.5-2.5-2-2l-.5-2-.5-2v-1.5-1.5l-1-2-1-2-1-1.5-1-1.5-1-1.5-1-1.5-.5-.5-.5-.5-.5-2-.5-2-1-1.5-1-1.5h-1.5-1.5l-1.5.5-1.5.5h-1-1l-.5.5-.5.5-1 .5-1 .5h-1-1l-.5.5-.5.5-.5.5-.5.5h-1.5-1.5l-1 1-1 1-.5 1-.5 1 9.5-3.5 9.5-3.5 3 5 3 5 2.5 5 2.5 5 .5 7.5.5 7.5-2 5.5-2 5.5-4 4-4 4-5.5 2-5.5 2 3 5.5 3 5.5" style="fill:#7f7569;stroke:#7f7569" />
        <path d="m136 365l2 1-1-2.5-1-2.5v-1.5-1.5l1.5-.5 1.5-.5 1-.5 1-.5.5-.5.5-.5 1-1 1-1 1-.5 1-.5.5-.5.5-.5 1-1 1-1 .5-1.5.5-1.5 1-1.5 1-1.5v-2-2l-.5 1-.5 1-1 1-1 1-.5 1-.5 1-.5 1-.5 1-.5 1-.5 1-.5.5-.5.5-1 1-1 1-1 .5-1 .5-.5.5-.5.5-.5.5-.5.5h-1-1l-1 1-1 1-1 .5-1 .5v1 1l.5 1.5.5 1.5 1 1 1 1" style="fill:#3f3428;stroke:#3f3428" />
        <path d="m343 362h2l1.5-.5 1.5-.5 2-.5 2-.5-1-1-1-1-1-.5-1-.5h-1-1l-1.5.5-1.5.5h-1.5-1.5l-1 .5-1 .5.5 1 .5 1 2 .5 2 .5" style="fill:#b47269;stroke:#b47269" />
        <path d="m295 361l3 1h1 1 1.5 1.5l6.5-2 6.5-2 5.5-2 5.5-2 8-1 8-1v-.5-.5l5.5-3 5.5-3 3-5 3-5 3.5-4.5 3.5-4.5 3-4.5 3-4.5 3.5-4.5 3.5-4.5 4.5-3 4.5-3 2-6 2-6 2.5-5 2.5-5 3-5 3-5 2.5-5 2.5-5 2.5-5.5 2.5-5.5 3-7.5 3-7.5.5-1 .5-1v-1.5-1.5h-1.5-1.5l-1 .5-1 .5-1 1.5-1 1.5v1 1l-.5.5-.5.5-.5.5-.5.5-.5 1-.5 1-.5.5-.5.5-1 1-1 1 .5 1 .5 1-1 1-1 1-1 1-1 1-1 1.5-1 1.5v1 1l-1 1.5-1 1.5-1 1-1 1-.5 2-.5 2h-1-1l1-2 1-2h-1-1l-.5 1-.5 1v1 1l-.5.5-.5.5-1 .5-1 .5v1 1h-1-1l-.5.5-.5.5h-1.5-1.5l-1 .5-1 .5 1.5 6.5 1.5 6.5-5 4-5 4-3.5 5.5-3.5 5.5-1 7-1 7-3.5 5-3.5 5-3 6-3 6-5.5 3.5-5.5 3.5-6.5 2.5-6.5 2.5-4 1.5-4 1.5-7.5 1.5-7.5 1.5-6.5-2.5-6.5-2.5-1 .5-1 .5-1 .5-1 .5-1.5 1-1.5 1v1.5 1.5l.5.5.5.5.5.5.5.5.5.5.5.5 1 .5 1 .5 1 .5 1 .5" style="fill:#571701;stroke:#571701" />
        <path d="m397 358l3 1 1-1 1-1-2-.5-2-.5-1-1-1-1-1-1.5-1-1.5-1-.5-1-.5-1.5 1-1.5 1 .5 2 .5 2 1.5.5 1.5.5 2 .5 2 .5" style="fill:#735e4f;stroke:#735e4f" />
        <path d="m362 357v1h1.5 1.5l.5-.5.5-.5h1 1l1-.5 1-.5.5-.5.5-.5.5-.5.5-.5 1-.5 1-.5-1.5-.5-1.5-.5-1.5.5-1.5.5-1 1.5-1 1.5-2 .5-2 .5" style="fill:#b47269;stroke:#b47269" />
        <path d="m348 353v1h1.5 1.5l1-.5 1-.5h1.5 1.5l1-.5 1-.5.5-.5.5-.5.5-.5.5-.5.5-.5.5-.5.5-1 .5-1 .5-.5.5-.5.5-.5.5-.5h1 1l.5-1 .5-1 .5-.5.5-.5.5-.5.5-.5.5-.5.5-.5 1-1 1-1-1-.5-1-.5-.5.5-.5.5-.5.5-.5.5h-1-1l-1 .5-1 .5-1 .5-1 .5-1.5 1-1.5 1-1 1-1 1-1 1.5-1 1.5-1 1-1 1-1 .5-1 .5-1.5 1-1.5 1" style="fill:#9b3726;stroke:#9b3726" />
        <path d="m357 353h3l1-.5 1-.5h1 1l1-1 1-1 1-1 1-1 2-.5 2-.5 1.5-1 1.5-1 4-4 4-4 4.5-3.5 4.5-3.5 3-5.5 3-5.5 2-7 2-7 1.5-7.5 1.5-7.5 3-6 3-6 3.5-5.5 3.5-5.5 2.5-6 2.5-6 .5-6.5.5-6.5-.5-.5-.5-.5-.5-1.5-.5-1.5-1 7-1 7-2 7-2 7-4 5-4 5-3 6-3 6-1 7.5-1 7.5-1.5 6-1.5 6-3 5-3 5-6.5 4.5-6.5 4.5-1.5 1-1.5 1-1.5 1-1.5 1-1 1-1 1-.5.5-.5.5-.5.5-.5.5-.5.5-.5.5-.5 1-.5 1h-1-1l-.5.5-.5.5-.5.5-.5.5-.5 1-.5 1-.5.5-.5.5-.5.5-.5.5-.5.5-.5.5-1 .5-1 .5h.5.5" style="fill:#bf3e32;stroke:#bf3e32" />
        <path d="m286 352l2 1 1.5-1 1.5-1 1-.5 1-.5v-.5-.5-.5-.5l-.5-.5-.5-.5-.5-1.5-.5-1.5-.5 1.5-.5 1.5h-.5-.5l-1 1.5-1 1.5-1.5-.5-1.5-.5-1.5-.5-1.5-.5-.5-.5-.5-.5-.5-1-.5-1-.5-.5-.5-.5-.5-.5-.5-.5-.5-.5-.5-.5.5-1 .5-1-1-1.5-1-1.5-1-2-1-2-.5-.5-.5-.5-1-.5-1-.5-1-1-1-1-1-1-1-1-2-1-2-1-1.5-.5-1.5-.5.5 1 .5 1 1 1 1 1 1.5 1 1.5 1 .5.5.5.5 1 .5 1 .5 1 1 1 1 .5.5.5.5.5 1 .5 1 1 1 1 1v1 1l.5.5.5.5v1 1l1 1.5 1 1.5 1 1.5 1 1.5 1.5.5 1.5.5 2 .5 2 .5" style="fill:#9c5951;stroke:#9c5951" />
        <path d="m343 351v1h2 2l2-.5 2-.5 1-.5 1-.5 1-1 1-1 1-1.5 1-1.5 1-1 1-1 1.5-1 1.5-1 1-.5 1-.5v-.5-.5l1-1 1-1 1-1.5 1-1.5 1.5-.5 1.5-.5 1.5-1 1.5-1 1-1 1-1 1.5-1 1.5-1 1.5-.5 1.5-.5 1.5-1 1.5-1 1.5-.5 1.5-.5 3.5-5 3.5-5 1.5-7.5 1.5-7.5 2-7 2-7 3-6 3-6 3.5-5 3.5-5 2-12 2-12v-.5-.5l.5-1.5.5-1.5-3 7.5-3 7.5-2.5 5.5-2.5 5.5-2.5 5-2.5 5-3 5-3 5-2.5 5-2.5 5-2 6-2 6-4.5 3-4.5 3-3.5 4.5-3.5 4.5-3 4.5-3 4.5-3.5 4.5-3.5 4.5-3 5-3 5-5.5 3-5.5 3" style="fill:#7c2100;stroke:#7c2100" />
        <path d="m284 349l3 1 1-1.5 1-1.5h-.5-.5-1-1-1.5-1.5l-1-1.5-1-1.5-1-1-1-1-1-1-1-1-.5 1-.5 1 .5.5.5.5.5.5.5.5.5.5.5.5.5 1 .5 1 .5.5.5.5 1.5.5 1.5.5" style="fill:#b47269;stroke:#b47269" />
        <path d="m293 349v1l1-.5 1-.5v-2-2l-.5-2-.5-2-.5-1-.5-1-1-1-1-1-.5-.5-.5-.5-1-.5-1-.5-1-1-1-1-.5-.5-.5-.5-.5-1-.5-1-1-1-1-1-.5-1.5-.5-1.5-1-1-1-1-8.5-4-8.5-4 .5-3.5.5-3.5 4.5-3 4.5-3 7 .5 7 .5 1-2.5 1-2.5-4-3.5-4-3.5-1-7-1-7 1.5-5 1.5-5 4-4 4-4 2-5.5 2-5.5 6-.5 6-.5 5 .5 5 .5 5.5 2 5.5 2 6.5-1.5 6.5-1.5 1-4.5 1-4.5-5-1-5-1-2.5-3-2.5-3-.5-3-.5-3-3.5-5-3.5-5 4.5 2 4.5 2 5 2 5 2 3-4.5 3-4.5-5-3.5-5-3.5-1-6.5-1-6.5-2 2.5-2 2.5-3-2-3-2-6 1.5-6 1.5-5.5-1.5-5.5-1.5-4.5 3-4.5 3-1.5 7-1.5 7h-5.5-5.5l-2-5.5-2-5.5-4.5-3.5-4.5-3.5-4 1.5-4 1.5v6.5 6.5 5.5 5.5l-1.5 6-1.5 6-2 6-2 6-1.5 5-1.5 5-2.5 5.5-2.5 5.5-2.5 5-2.5 5 1 6.5 1 6.5 4 4.5 4 4.5 1.5 5 1.5 5 1.5 5 1.5 5 1 .5 1 .5.5-1 .5-1 1.5-1 1.5-1h1.5 1.5 1.5 1.5 2.5 2.5 2 2l1.5 1 1.5 1 1 1 1 1 1 1.5 1 1.5 1 2 1 2 1 1.5 1 1.5 1 .5 1 .5.5 1 .5 1 1.5 1 1.5 1 1 1 1 1 1 1.5 1 1.5.5 2.5.5 2.5v.5.5" style="fill:#3f3428;stroke:#3f3428" />
        <path d="m286 347h2v-.5-.5l-.5-1-.5-1-1-1-1-1-1-1-1-1-1-1.5-1-1.5-1-1-1-1-1-1.5-1-1.5-.5-1.5-.5-1.5-1.5-1-1.5-1-.5-.5-.5-.5-1-.5-1-.5-1.5-.5-1.5-.5-.5.5-.5.5.5 1 .5 1 1.5.5 1.5.5.5.5.5.5.5 1 .5 1 .5 1 .5 1 1 2 1 2 1 1.5 1 1.5 1 1 1 1 1 1 1 1 1 1.5 1 1.5h1.5 1.5" style="fill:#bbb7ab;stroke:#bbb7ab" />
        <path d="m292 347l1 1-.5-2.5-.5-2.5-1-1.5-1-1.5-1-1-1-1-1.5-1-1.5-1-.5-1-.5-1-1-.5-1-.5.5 1 .5 1 1 1 1 1 1 1 1 1 1.5 1 1.5 1 .5 1.5.5 1.5.5 1.5.5 1.5" style="fill:#595448;stroke:#595448" />
        <path d="m298 347l6-3 5-2.5 5-2.5 4.5 1.5 4.5 1.5 4.5 1 4.5 1 6-2 6-2 4-3.5 4-3.5.5-3 .5-3 2-3.5 2-3.5.5-6.5.5-6.5 1.5-6 1.5-6-2-5-2-5-6 1.5-6 1.5-7 1-7 1-5 1.5-5 1.5-4 4-4 4 1 5.5 1 5.5-5 2-5 2-7-.5-7-.5-5.5-2.5-5.5-2.5-3.5 1-3.5 1 3 5.5 3 5.5 1 1 1 1 .5 1.5.5 1.5 1 1 1 1 .5 1 .5 1 .5.5.5.5 1 1 1 1 1 .5 1 .5.5.5.5.5 1 1 1 1 1 1.5 1 1.5 1 1.5 1 1.5.5 1 .5 1" style="fill:#1b1307;stroke:#1b1307" />
        <path d="m288 346v1h.5.5.5.5v-.5-.5l-.5-1-.5-1-.5-1.5-.5-1.5-.5-.5-.5-.5h-1-1l-.5-.5-.5-.5-.5-1-.5-1-.5-.5-.5-.5-.5-.5-.5-.5-.5-.5-.5-.5-.5-1-.5-1-.5-.5-.5-.5-1-1-1-1 .5 1.5.5 1.5 1 1.5 1 1.5 1 1 1 1 1 1.5 1 1.5 1 1 1 1 1 1 1 1 .5 1 .5 1" style="fill:#9a9488;stroke:#9a9488" />
        <path d="m290 346v1l.5-1.5.5-1.5-.5-1.5-.5-1.5-1.5-1-1.5-1-1-1-1-1-1-1-1-1-.5-1-.5-1-1-1.5-1-1.5-.5-.5-.5-.5-1-.5-1-.5-.5-1.5-.5-1.5-1.5-1-1.5-1-1-1-1-1h-1.5-1.5-2.5-2.5l-1.5.5-1.5.5-.5 1-.5 1 1.5.5 1.5.5.5-1.5.5-1.5h2 2l1.5.5 1.5.5 1.5 1 1.5 1 1 1 1 1 .5 1 .5 1 1 1 1 1 .5.5.5.5.5 1 .5 1 .5.5.5.5.5.5.5.5.5.5.5.5.5 1 .5 1 .5.5.5.5h1 1l.5.5.5.5.5 1.5.5 1.5.5 1 .5 1" style="fill:#7f7569;stroke:#7f7569" />
        <path d="m374 346h2 1 1l.5-.5.5-.5 1-.5 1-.5h1 1l.5.5.5.5.5-.5.5-.5 1-.5 1-.5 1.5.5 1.5.5 1.5-2 1.5-2 1-1 1-1 .5-1.5.5-1.5 1-2 1-2v-1.5-1.5l1.5-1 1.5-1 .5-1.5.5-1.5 1-1.5 1-1.5.5-1.5.5-1.5 1-1.5 1-1.5 1-.5 1-.5v-2.5-2.5l.5-1 .5-1v-1-1l1-1 1-1 .5-1 .5-1v-1-1l.5-1.5.5-1.5v-1.5-1.5l.5-.5.5-.5v-2-2l.5-1 .5-1 .5-.5.5-.5.5-1 .5-1 .5-1 .5-1 1-6 1-6 3-5 3-5 3-5.5 3-5.5-.5-3-.5-3-.5-1.5-.5-1.5-.5-2-.5-2-1.5-1-1.5-1v1.5 1.5l-1 1-1 1-.5 2.5-.5 2.5-.5 6.5-.5 6.5-2.5 6-2.5 6-3.5 5.5-3.5 5.5-3 6-3 6-1.5 7.5-1.5 7.5-2 7-2 7-3 5.5-3 5.5-4.5 3.5-4.5 3.5-4 4-4 4-.5.5-.5.5" style="fill:#b47269;stroke:#b47269" />
        <path d="m145 345v1l1.5-1 1.5-1 .5-2 .5-2 .5-.5.5-.5.5-.5.5-.5v-1-1-1-1l.5-1 .5-1v-1-1-1-1-1-1l-.5-1-.5-1v-1-1-1-1-2-2l-.5-.5-.5-.5-.5-1.5-.5-1.5v1.5 1.5l.5 2 .5 2v2 2 2.5 2.5 2 2l-.5 2-.5 2-.5 1.5-.5 1.5-.5 1.5-.5 1.5-1 1.5-1 1.5" style="fill:#735e4f;stroke:#735e4f" />
        <g style="fill:#76342a;stroke:#76342a">
            <path d="m148 344v1l.5-1 .5-1 1-1 1-1 .5-1 .5-1 .5-1 .5-1 .5 1.5.5 1.5.5-1.5.5-1.5v-.5-.5l-.5-1-.5-1-.5-.5-.5-.5v-2-2-2.5-2.5l-.5-1.5-.5-1.5v-2-2l-.5-1-.5-1v.5.5 2 2 1 1 1 1l.5 1 .5 1v1 1 1 1 1 1l-.5 1-.5 1v1 1 1 1l-.5.5-.5.5-.5.5-.5.5-.5 2-.5 2" />
            <path d="m274 343l1 1v-1-1l-.5-.5-.5-.5v-1-1l-1-1-1-1-.5-1-.5-1-.5-.5-.5-.5-1-1-1-1-1-.5-1-.5-.5-.5-.5-.5-1.5-1-1.5-1-1-.5-1-.5-1-.5-1-.5-1-2-1-2v-1.5-1.5l-1.5 1-1.5 1-.5 1-.5 1 .5 1.5.5 1.5.5.5.5.5 1.5.5 1.5.5 1 .5 1 .5.5.5.5.5 1.5.5 1.5.5 1.5.5 1.5.5 1.5 1 1.5 1 .5 1.5.5 1.5.5 1.5.5 1.5 1.5 1.5 1.5 1.5" />
        </g>
        <path d="m91 342v1l5-10 5-10 3-6 3-6 5.5-4 5.5-4 .5-1 .5-1 1-1 1-1-7 5.5-7 5.5-3 4.5-3 4.5-2.5 5.5-2.5 5.5-2.5 6-2.5 6" style="fill:#595448;stroke:#595448" />
        <path d="m364 339v1l1-.5 1-.5h1 1l.5-.5.5-.5.5-.5.5-.5 1 .5 1 .5 1.5-1 1.5-1 1.5-1 1.5-1v-.5-.5l1.5-1.5 1.5-1.5 1-1.5 1-1.5 1.5-.5 1.5-.5 1-1.5 1-1.5-1.5.5-1.5.5-1.5 1-1.5 1-1.5.5-1.5.5-1.5 1-1.5 1-1 1-1 1-1.5 1-1.5 1-1.5.5-1.5.5-1 1.5-1 1.5-1 1-1 1" style="fill:#ad3100;stroke:#ad3100" />
        <path d="m408 339l3 1 1.5-.5 1.5-.5.5-2 .5-2-.5-1.5-.5-1.5h-2.5-2.5-1-1l.5 2 .5 2v1.5 1.5" style="fill:#9a9488;stroke:#9a9488" />
        <path d="m155 336v1l2-6 2-6-1.5-6.5-1.5-6.5-4-5-4-5 .5 1.5.5 1.5 1 1.5 1 1.5.5 1.5.5 1.5.5 2 .5 2v2 2l.5 1.5.5 1.5v2.5 2.5 2 2 1.5 1.5l.5 1 .5 1" style="fill:#371c11;stroke:#371c11" />
        <path d="m153 333l1 1v-1.5-1.5-2-2-2.5-2.5l-.5-1.5-.5-1.5v-2-2l-.5-2-.5-2-.5-1.5-.5-1.5-1-1.5-1-1.5-.5-1.5-.5-1.5-1-1.5-1-1.5-.5 1-.5 1 1 1.5 1 1.5.5 1.5.5 1.5 1 1.5 1 1.5.5 2.5.5 2.5.5 1 .5 1v2 2l.5 1.5.5 1.5v2.5 2.5 2 2" style="fill:#3f3428;stroke:#3f3428" />
        <path d="m378 333v1l6.5-4.5 6.5-4.5 3-5 3-5 1.5-6 1.5-6 1-7.5 1-7.5 3-6 3-6 4-5 4-5 2-7 2-7 1-7 1-7 .5-2 .5-2-1 1.5-1 1.5-1 .5-1 .5-2 12-2 12-3.5 5-3.5 5-3 6-3 6-2 7-2 7-1.5 7.5-1.5 7.5-3.5 5-3.5 5-1 1.5-1 1.5-1.5.5-1.5.5-1 1.5-1 1.5-1.5 1.5-1.5 1.5" style="fill:#9b3726;stroke:#9b3726" />
        <g style="fill:#9a9488;stroke:#9a9488">
            <path d="m272 332l1 1-.5-1-.5-1-.5-1-.5-1-.5-.5-.5-.5-1.5-.5-1.5-.5-.5-1-.5-1 .5-.5.5-.5 1.5.5 1.5.5 1 .5 1 .5.5.5.5.5 1.5 1 1.5 1-.5-1-.5-1-1-1-1-1-1.5-1-1.5-1-1.5-.5-1.5-.5h-2-2l-.5 1.5-.5 1.5 2 1 2 1 1 1 1 1 1 1 1 1 1 .5 1 .5" />
            <path d="m401 331h2l1.5-1 1.5-1 1-1 1-1 1.5-1 1.5-1 .5-1.5.5-1.5.5-2 .5-2-1.5-.5-1.5-.5-.5-2-.5-2-1 .5-1 .5-1 1.5-1 1.5-.5 1.5-.5 1.5-1 1.5-1 1.5-.5 1.5-.5 1.5-1.5 1-1.5 1v1.5 1.5h1.5 1.5" />
        </g>
        <path d="m279 329l1 1-1-2-1-2-1-1.5-1-1.5-1-1-1-1-1.5-1-1.5-1h-2-2-2.5-2.5-1.5-1.5-1.5-1.5v1.5 1.5l1.5-.5 1.5-.5.5-.5.5-.5h1 1 1.5 1.5l1.5.5 1.5.5h1.5 1.5l1 1 1 1 1.5 1 1.5 1 .5 1.5.5 1.5 1 .5 1 .5" style="fill:#595448;stroke:#595448" />
        <path d="m260 327l2 1-1-1-1-1-.5-1-.5-1 .5-1 .5-1 1.5-.5 1.5-.5h2.5 2.5l-1.5-.5-1.5-.5h-1.5-1.5-1-1l-.5.5-.5.5-1.5.5-1.5.5 1 2 1 2 1 .5 1 .5" style="fill:#735e4f;stroke:#735e4f" />
        <path d="m432 316l12-3-6-3-6-3-6 1-6 1 5 3 5 3 1 .5 1 .5" style="fill:#9a9488;stroke:#9a9488" />
        <path d="m150 315l1 1v-.5-.5l-.5-2.5-.5-2.5-1-1.5-1-1.5-.5-1.5-.5-1.5-1-1.5-1-1.5-.5-.5-.5-.5-.5-.5-.5-.5v1.5 1.5l1 1.5 1 1.5 1 1.5 1 1.5 1 2 1 2 .5 1.5.5 1.5" style="fill:#595448;stroke:#595448" />
        <path d="m142 301l1 1v-1.5-1.5-1.5-1.5l-.5-1-.5-1v-1-1l-1-.5-1-.5-1 .5-1 .5-1 1-1 1h1.5 1.5l1 1.5 1 1.5.5 2 .5 2" style="fill:#735e4f;stroke:#735e4f" />
        <path d="m144 300l1 1 .5-1 .5-1-.5-1.5-.5-1.5.5-1.5.5-1.5-.5-.5-.5-.5.5-.5.5-.5.5-.5.5-.5h1.5 1.5v-2.5-2.5l-1 1-1 1-.5-.5-.5-.5-.5 1-.5 1-1.5-1-1.5-1-2 1-2 1-.5.5-.5.5v1 1 .5.5l1-.5 1-.5 1 .5 1 .5v1 1l.5 1 .5 1v1.5 1.5l.5.5.5.5" style="fill:#76342a;stroke:#76342a" />
        <path d="m155 299l14-2 6.5-2 6.5-2 1-8 1-8-4-5-4-5-5.5 3.5-5.5 3.5-6.5 2.5-6.5 2.5-4.5 3.5-4.5 3.5 1.5 1 1.5 1 .5-1 .5-1 .5.5.5.5 1-1 1-1 6.5-2.5 6.5-2.5 4.5-3 4.5-3 4 3 4 3-3.5 4-3.5 4-10.5 1.5-10.5 1.5-1-.5-1-.5h-1.5-1.5l-.5.5-.5.5-.5.5-.5.5.5.5.5.5-.5 1.5-.5 1.5h2 2l1 1 1 1 2 .5 2 .5" style="fill:#7c2100;stroke:#7c2100" />
        <path d="m121 298v1h1.5 1.5l.5-.5.5-.5.5-.5.5-.5h1 1l1-.5 1-.5.5-.5.5-.5h1 1l1.5-.5 1.5-.5 1-1 1-1v-.5-.5l-2 .5-2 .5-1.5 1-1.5 1-1.5.5-1.5.5-2 .5-2 .5-1.5 1-1.5 1" style="fill:#595448;stroke:#595448" />
        <path d="m461 295l1-1v-1-1-1-1-1-1l-1-1-1-1-.5-1-.5-1-.5-.5-.5-.5-1.5-.5-1.5-.5-1-.5-1-.5h-1-1l-1.5-.5-1.5-.5h-1.5-1.5l-1.5-.5-1.5-.5.5 2 .5 2 1 1 1 1 1.5 1 1.5 1 1.5.5 1.5.5 1.5 1 1.5 1 1.5.5 1.5.5 1 1.5 1 1.5 1 .5 1 .5" style="fill:#9a9488;stroke:#9a9488" />
        <path d="m152 291l21-3 3.5-4 3.5-4-4-3-4-3-4.5 3-4.5 3-6.5 2.5-6.5 2.5v2.5 2.5l1 .5 1 .5" style="fill:#ad3100;stroke:#ad3100" />
        <g style="fill:#1b1307;stroke:#1b1307">
            <path d="m291 291l11-4 2-7 2-7-.5-6.5-.5-6.5-5 1-5 1-4.5 4-4.5 4-.5 6.5-.5 6.5 3 4 3 4" />
            <path d="m196 282l3 1 1.5-.5 1.5-.5-1-1.5-1-1.5-1-1-1-1v-2.5-2.5l-.5-1.5-.5-1.5-.5-1-.5-1-.5 1.5-.5 1.5v2 2 2.5 2.5l.5 1.5.5 1.5" />
        </g>
        <path d="m430 281h3l1-.5 1-.5h1 1 1 1l1.5-.5 1.5-.5 1.5-6 1.5-6 6-.5 6-.5-2-4-2-4-5.5-1-5.5-1-4.5-4.5-4.5-4.5-3 5.5-3 5.5-3 5-3 5-1 6-1 6 1.5-1 1.5-1h.5.5 1 1l1.5.5 1.5.5 1 1 1 1" style="fill:#9a9488;stroke:#9a9488" />
        <path d="m0 277v1l10.5-4.5 10.5-4.5 7-1.5 7-1.5 8-1 8-1 7.5-1.5 7.5-1.5 7-2 7-2 7.5-1 7.5-1 8-1 8-1 7.5-1.5 7.5-1.5 2.5-5.5 2.5-5.5-6-2.5-6-2.5h-8-8l-6.5 1.5-6.5 1.5-8.5.5-8.5.5h-7-7l-6.5-1-6.5-1h-8-8l-6.5-.5-6.5-.5-8.5-1-8.5-1v1.5 1.5 2 2 2.5 2.5 2 2 2.5 2.5 2 2 2.5 2.5 2 2 2.5 2.5 2 2 .5.5" style="fill:#371c11;stroke:#371c11" />
        <path d="m362 273l11-4 3-5 3-5 .5-7.5.5-7.5-5.5 3.5-5.5 3.5-1.5-5-1.5-5 1-7 1-7-4.5-2.5-4.5-2.5-4.5 4.5-4.5 4.5 2 4.5 2 4.5 3.5 5.5 3.5 5.5-3.5 5.5-3.5 5.5 2.5 5.5 2.5 5.5h1.5 1.5" style="fill:#1b1307;stroke:#1b1307" />
        <g style="fill:#3f3428;stroke:#3f3428">
            <path d="m322 271l6-5-5-3-5-3 2 5.5 2 5.5" />
            <path d="m384 267v1l1-.5 1-.5v-.5-.5l-.5-1-.5-1-.5-1.5-.5-1.5v-2-2-.5-.5-7-7l-.5-8.5-.5-8.5-.5-9.5-.5-9.5-1-1-1-1-.5-1.5-.5-1.5-.5-.5-.5-.5-1-.5-1-.5v-1-1l-.5-1-.5-1-1-1-1-1-1.5-1-1.5-1-1-1-1-1-1.5-1-1.5-1-1-1-1-1-1-1-1-1v-1.5-1.5l-.5-.5-.5-.5-1.5-1.5-1.5-1.5v.5.5l4 6.5 4 6.5 4.5 3.5 4.5 3.5 3 4.5 3 4.5.5 8 .5 8 .5 7.5.5 7.5.5 8.5.5 8.5.5 6.5.5 6.5" />
        </g>
        <path d="m386 266v1h1.5 1.5l.5-.5.5-.5h1 1v-1-1l1-.5 1-.5.5-.5.5-.5v-1-1l.5-1 .5-1-1 .5-1 .5-1 1.5-1 1.5-1 1-1 1-1.5-.5-1.5-.5-1.5-1.5-1.5-1.5v-1.5-1.5 2 2l.5 1.5.5 1.5.5 1 .5 1" style="fill:#76342a;stroke:#76342a" />
        <path d="m7 263h15l7-2 7-2 7.5-1.5 7.5-1.5 8.5-.5 8.5-.5 7-1.5 7-1.5 7-2 7-2 8-1 8-1 3-4 3-4-5.5 2-5.5 2-5.5.5-5.5.5h-7-7l-6 3-6 3-6-.5-6-.5-8.5-.5-8.5-.5-7.5 1.5-7.5 1.5-7 2-7 2-2.5 4.5-2.5 4.5" style="fill:#3f3428;stroke:#3f3428" />
        <path d="m387 263l3 1 1-1 1-1 1-1.5 1-1.5 1-.5 1-.5h1 1l.5-2 .5-2 1-1 1-1 .5-.5.5-.5.5-.5.5-.5 1-1 1-1 1-1 1-1 1-1 1-1-.5-1-.5-1-.5-.5-.5-.5 1-1.5 1-1.5 1-1.5 1-1.5 1-1 1-1v-2.5-2.5l1-.5 1-.5 1-1 1-1 1-1 1-1 .5-.5.5-.5.5-.5.5-.5.5.5.5.5.5 1 .5 1v1.5 1.5l.5 2 .5 2 1-.5 1-.5-2-7-2-7-4.5 4.5-4.5 4.5-2.5 5.5-2.5 5.5-1 1.5-1 1.5-1.5.5-1.5.5-1 1-1 1-1 1.5-1 1.5-1 1-1 1-.5 2-.5 2-1 1-1 1-.5 2-.5 2-1 1-1 1h-1.5-1.5l.5 1 .5 1-1.5-.5-1.5-.5v-2-2-1-1-1.5-1.5-1.5-1.5l-.5 1.5-.5 1.5v1 1 1 1l-.5 1-.5 1v1.5 1.5l1.5 1.5 1.5 1.5" style="fill:#735e4f;stroke:#735e4f" />
        <path d="m396 262h2l.5-2 .5-2 1-1 1-1 1-1.5 1-1.5v-1-1l1-1.5 1-1.5-1 1-1 1-.5.5-.5.5-.5.5-.5.5-1 1-1 1-.5 2-.5 2-1 2-1 2" style="fill:#371c11;stroke:#371c11" />
        <path d="m386 260l3 1-.5-1-.5-1v-.5-.5l-.5-1.5-.5-1.5v-2-2l.5-1.5.5-1.5v-1-1-1.5-1.5l.5-1.5.5-1.5v-1-1l-.5-1-.5-1-.5-1.5-.5-1.5-.5-2-.5-2v-2.5-2.5l-.5-.5-.5-.5v-7-7l-2.5-6-2.5-6-3.5-5-3.5-5-1.5-6.5-1.5-6.5h-2-2l-1 1-1 1 .5 1 .5 1 .5 1.5.5 1.5 1 1.5 1 1.5 1 1 1 1 1 1.5 1 1.5 1 1 1 1 .5 1 .5 1 1 2 1 2 1 2 1 2 .5 1.5.5 1.5 1 1 1 1 .5 1.5.5 1.5.5 1.5.5 1.5v1 1 1 1 1 1 1.5 1.5 1 1 1 1 1 1 1.5 1.5l.5 1.5.5 1.5v1 1l.5 1 .5 1v2 2 1 1 2.5 2.5 1.5 1.5 1.5 1.5 1 1 2 2" style="fill:#7f7569;stroke:#7f7569" />
        <path d="m388 258v1h1.5 1.5l1-1 1-1 .5-2 .5-2 1-1 1-1 .5-2 .5-2 1-1 1-1 1-1.5 1-1.5 1-1 1-1 1.5-.5 1.5-.5 1-1.5 1-1.5 5-9 5-9 3-5 3-5 1 6 1 6 3 1.5 3 1.5 4.5-3.5 4.5-3.5 4.5-3.5 4.5-3.5 4-3.5 4-3.5 3-1.5 3-1.5v-1.5-1.5-2-2-2.5-2.5-2-2l-3 4-3 4-3.5 5-3.5 5-4 5-4 5-6.5 2.5-6.5 2.5-3-6-3-6-3.5 5-3.5 5h-4-4l-4.5-4.5-4.5-4.5-1 6-1 6-2 7-2 7 1 5.5 1 5.5-3 7-3 7-.5-1.5-.5-1.5v-2-2-1-1l.5-1 .5-1v-2-2l.5-.5.5-.5-.5-1-.5-1v-2-2l-.5-.5-.5-.5v-1-1l-.5-.5-.5-.5-.5-1-.5-1v-1-1l-.5-1-.5-1v2.5 2.5l.5 2 .5 2 .5 1.5.5 1.5.5 1 .5 1v1 1l-.5 1.5-.5 1.5v1.5 1.5 1 1l-.5 1.5-.5 1.5v2 2l.5 1.5.5 1.5" style="fill:#9a9488;stroke:#9a9488" />
        <path d="m384 256v1l.5-1 .5-1v-1-1-1-1l.5-1.5.5-1.5v-2.5-2.5-1-1-2-2l-.5-1-.5-1v-1-1l-.5-1.5-.5-1.5v-1.5-1.5-1-1-1-1-1-1-1.5-1.5-1-1-1-1-1-1l-.5-1.5-.5-1.5-.5-1.5-.5-1.5.5 9.5.5 9.5.5 8.5.5 8.5v7 7" style="fill:#595448;stroke:#595448" />
        <path d="m390 256l6-14-1-5.5-1-5.5 2-7 2-7 1-6 1-6 4.5 4.5 4.5 4.5h4 4l3.5-5 3.5-5 3 6 3 6 6.5-2.5 6.5-2.5 4-5 4-5 3.5-5 3.5-5 3-4 3-4v-2.5-2.5-.5-.5l-4 4-4 4-2.5 5-2.5 5-3.5 4.5-3.5 4.5-5 3.5-5 3.5-2-6.5-2-6.5-3.5-3.5-3.5-3.5-5 2.5-5 2.5-5-1-5-1-1-6.5-1-6.5 4.5-1.5 4.5-1.5 6-.5 6-.5 5.5-2.5 5.5-2.5.5-4 .5-4 4 4 4 4 11-.5 11-.5v-1-1h-8.5-8.5l-5-3-5-3-4.5 1-4.5 1-4 4-4 4h-6.5-6.5-5-5l1 6.5 1 6.5-.5 6.5-.5 6.5-4.5-3-4.5-3-3-5-3-5-4 1.5-4 1.5 3 5 3 5 2.5 5 2.5 5v9 9l.5 1 .5 1v1 1l.5 1 .5 1 .5.5.5.5v1 1l.5.5.5.5v2 2l.5 1 .5 1-.5.5-.5.5v2 2l-.5 1-.5 1v1 1 2 2l.5 1.5.5 1.5" style="fill:#bbb7ab;stroke:#bbb7ab" />
        <path d="m407 241l1 1 1-1 1-1 .5-.5.5-.5.5-1 .5-1 .5-.5.5-.5.5-.5.5-.5v-1-1l1-1.5 1-1.5v-.5-.5l-.5-1-.5-1-1 .5-1 .5v2.5 2.5l-1 1-1 1-1 1.5-1 1.5-1 1.5-1 1.5" style="fill:#76342a;stroke:#76342a" />
        <path d="m423 241l1 1 .5-2.5.5-2.5 1-1 1-1v-1.5-1.5l-.5-1-.5-1-1 .5-1 .5-.5 1.5-.5 1.5-.5 2-.5 2 .5 1.5.5 1.5" style="fill:#9c5951;stroke:#9c5951" />
        <path d="m419 237v1l1-.5 1-.5 1-1.5 1-1.5.5-1.5.5-1.5-.5-2-.5-2-1-1-1-1h-1-1l-.5.5-.5.5h1 1l.5 1.5.5 1.5v1.5 1.5l-.5 1-.5 1-.5 1.5-.5 1.5" style="fill:#76342a;stroke:#76342a" />
        <path d="m402 235l3 1 1-1 1-1v-2.5-2.5l-1-1-1-1-1.5 1-1.5 1v2 2 1 1" style="fill:#bbb7ab;stroke:#bbb7ab" />
        <path d="m416 229v1l1-.5 1-.5h1.5 1.5l-.5-1.5-.5-1.5h-1-1l.5-.5.5-.5h1 1l1 1 1 1v-1.5-1.5l-.5-1-.5-1-.5-.5-.5-.5-.5.5-.5.5-.5.5-.5.5-1 1-1 1-1 1-1 1 .5 1 .5 1" style="fill:#595448;stroke:#595448" />
        <path d="m385 223l1 1v-9-9l-2.5-5-2.5-5-3-5-3-5 4-1.5 4-1.5 3 5 3 5 4.5 3 4.5 3 .5-6.5.5-6.5-1-6.5-1-6.5h5 5 6.5 6.5l4-4 4-4 4.5-1 4.5-1 5 3 5 3h8.5 8.5v-.5-.5h-8.5-8.5l-5-4-5-4-5.5 1.5-5.5 1.5-3.5 3-3.5 3-7.5-.5-7.5-.5-5 4-5 4-.5 8.5-.5 8.5-1-1-1-1-1-1-1-1v-1-1-1.5-1.5l-.5-1.5-.5-1.5v-1-1l-1-.5-1-.5-1-1-1-1h-1-1-1-1l-.5.5-.5.5h-1.5-1.5l-1.5-.5-1.5-.5h-1-1l-.5-1-.5-1 1.5 6.5 1.5 6.5 3.5 5 3.5 5 2.5 6 2.5 6v7 7" style="fill:#9a9488;stroke:#9a9488" />
        <path d="m226 219l4-11-4.5-.5-4.5-.5-2 5-2 5 4.5 1 4.5 1" style="fill:#3f3428;stroke:#3f3428" />
        <path d="m242 211l6-9-2.5-6.5-2.5-6.5-3.5 5.5-3.5 5.5 2.5 5.5 2.5 5.5h.5.5" style="fill:#1b1307;stroke:#1b1307" />
        <path d="m434 211l10-7 3.5-4.5 3.5-4.5 2.5-5 2.5-5 4-4 4-4v-2.5-2.5-.5-.5l-11 .5-11 .5-4-4-4-4-.5 4-.5 4-5.5 2.5-5.5 2.5-6 .5-6 .5-4.5 1.5-4.5 1.5 1 6.5 1 6.5 5 1 5 1 5-2.5 5-2.5 3.5 3.5 3.5 3.5 2 6.5 2 6.5" style="fill:#d7d3c5;stroke:#d7d3c5" />
        <path d="m36 202l5-8-4-5-4-5-3.5 5.5-3.5 5.5 4.5 3.5 4.5 3.5h.5.5" style="fill:#371c11;stroke:#371c11" />
        <path d="m378 200l1 1-1-2-1-2-1-2-1-2-.5-.5-.5-.5-1.5-1.5-1.5-1.5-1-1-1-1-1.5-1-1.5-1-.5-1.5-.5-1.5-1-1-1-1-1-1.5-1-1.5v1.5 1.5 1.5 1.5l1 1 1 1 1 1 1 1 1.5 1 1.5 1 1 1 1 1 1.5 1 1.5 1 1 1 1 1 .5 1 .5 1v1 1l1 .5 1 .5" style="fill:#595448;stroke:#595448" />
        <path d="m351 194l3 1 1.5-.5 1.5-.5 1.5-1 1.5-1-.5-1.5-.5-1.5-2-.5-2-.5-1.5.5-1.5.5-1 1.5-1 1.5.5 1 .5 1" style="fill:#1b1307;stroke:#1b1307" />
        <path d="m393 193l1-17 5-4 5-4 7.5.5 7.5.5 3.5-3 3.5-3 5.5-1.5 5.5-1.5 5 4 5 4h8.5 8.5v-1-1h-8-8l-4.5-3-4.5-3-8.5 1-8.5 1-4 2-4 2h-6.5-6.5l-6 1.5-6 1.5-.5-1-.5-1h-2-2-2.5-2.5-1.5-1.5l-.5.5-.5.5-1 .5-1 .5-1.5 2.5-1.5 2.5.5 1 .5 1h1 1l1.5.5 1.5.5h1.5 1.5l.5-.5.5-.5h1 1 1 1l1 1 1 1 1 .5 1 .5v1 1l.5 1.5.5 1.5v1.5 1.5 1 1l1 1 1 1 1 1 1 1" style="fill:#7f7569;stroke:#7f7569" />
        <g style="fill:#735e4f;stroke:#735e4f">
            <path d="m374 192l1 1-.5-1-.5-1-1-1-1-1-1-1.5-1-1.5-1-1-1-1-1-1.5-1-1.5-.5-1.5-.5-1.5-.5-1-.5-1-.5-.5-.5-.5-1-1-1-1v2 2l1 1.5 1 1.5 1 1 1 1 .5 1.5.5 1.5 1.5 1 1.5 1 1 1 1 1 1.5 1.5 1.5 1.5" />
            <path d="m392 187h2v-2-2l-.5-2-.5-2-1-1-1-1-.5 1-.5 1v2 2l.5 2 .5 2h.5.5" />
        </g>
        <path d="m1 183h19l4-3.5 4-3.5-1.5-6.5-1.5-6.5-5-4-5-4-3-5.5-3-5.5-4.5-3.5-4.5-3.5v3 3 2 2 2 2l5 3.5 5 3.5 4 3.5 4 3.5 3 4 3 4-12 3-12 3v1.5 1.5.5.5h.5.5" style="fill:#371c11;stroke:#371c11" />
        <path d="m360 179l1 1v-1.5-1.5-2-2l-.5-1.5-.5-1.5-.5-1.5-.5-1.5.5-2 .5-2 1-1 1-1 2-.5 2-.5h2 2l1.5.5 1.5.5 1.5 1 1.5 1h3 3 1.5 1.5l1.5.5 1.5.5 1.5 1 1.5 1 1-1 1-1 2-.5 2-.5 1.5-.5 1.5-.5-3.5-4-3.5-4-7-1-7-1-8.5.5-8.5.5-5 5-5 5 1 1 1 1 1 .5 1 .5.5 1.5.5 1.5v1 1 2.5 2.5l1.5 1.5 1.5 1.5" style="fill:#76342a;stroke:#76342a" />
        <path d="m0 178v1l12-3 12-3-3-4-3-4-4-3.5-4-3.5-5-3.5-5-3.5v2.5 2.5 2 2 2.5 2.5 2 2 2.5 2.5 2 2" style="fill:#3f3428;stroke:#3f3428" />
        <path d="m356 176l1 1v-.5-.5-2.5-2.5-1-1l-.5-1.5-.5-1.5-1-.5-1-.5-1-1-1-1-.5.5-.5.5v1 1 1 1 2.5 2.5l1 1 1 1 1.5.5 1.5.5" style="fill:#571701;stroke:#571701" />
        <path d="m363 175l1 1 1-1 1-1-.5-.5-.5-.5v-2.5-2.5h1 1 1.5 1.5l1.5.5 1.5.5 1-.5 1-.5.5-.5.5-.5h1.5 1.5l-.5-1.5-.5-1.5 2-.5 2-.5h-3-3l-1.5-1-1.5-1-1.5-.5-1.5-.5h-2-2l-2 .5-2 .5-1 1-1 1-.5 2-.5 2 .5 1.5.5 1.5.5 1.5.5 1.5 1 1 1 1" style="fill:#9c5951;stroke:#9c5951" />
        <path d="m365 173l1 1h2 2l1.5-2.5 1.5-2.5-1.5-.5-1.5-.5h-1.5-1.5-1-1v2.5 2.5" style="fill:#b47269;stroke:#b47269" />
        <path d="m389 169l12-3h6.5 6.5l4-2 4-2-1 .5-1 .5h-1.5-1.5l-2 .5-2 .5-1.5.5-1.5.5h-1-1-2.5-2.5l-1.5-.5-1.5-.5h-2-2-1.5-1.5l-1 1-1 1-1.5-1-1.5-1-1.5-.5-1.5-.5h-1.5-1.5l-2 .5-2 .5.5 1.5.5 1.5h2.5 2.5 2 2l.5 1 .5 1" style="fill:#735e4f;stroke:#735e4f" />
        <path d="m408 165h2l1.5-.5 1.5-.5 2-.5 2-.5h1.5 1.5l1-.5 1-.5 8.5-1 8.5-1 4.5 3 4.5 3h8 8v-1-1h-.5-.5-2.5-2.5l-1.5.5-1.5.5-1.5-.5-1.5-.5-5-3-5-3-6.5-1-6.5-1-7 2-7 2-7.5 1-7.5 1-1.5.5-1.5.5-2 .5-2 .5h1.5 1.5 2 2l1.5.5 1.5.5h2.5 2.5" style="fill:#595448;stroke:#595448" />
        <path d="m452 164l3 1 1.5-.5 1.5-.5h2.5 2.5v-.5-.5h-1.5-1.5-1-1-1.5-1.5-2-2l-.5-.5-.5-.5v-1.5-1.5l1.5-.5 1.5-.5h1 1 1 1 1 1 2 2v-.5-.5h-8-8l2.5-3 2.5-3 4.5-.5 4.5-.5 1.5-2.5 1.5-2.5v-9-9-8.5-8.5-9-9-9-9-9-9-8.5-8.5-9-9-9-9-1.5-1.5h-7.5-7.5-8.5-8.5-9-9-9-9-9-9-8.5-8.5-9-9-9-9-9-9-8.5-8.5-9-9-9-9-9-9-8.5-8.5-9-9-6.5-6.5l.5 11 .5 11-.5 7.5-.5 7.5v7.5 7.5 8.5 8.5l-.5 8-.5 8-.5 7-.5 7v8 8l2 5.5 2 5.5h8 8l7-.5 7-.5 6 2 6 2 1.5 6 1.5 6v7.5 7.5l5 1.5 5 1.5 5-2.5 5-2.5 5-3 5-3 5-2.5 5-2.5 7.5.5 7.5.5h7.5 7.5l7 1 7 1 5.5 2 5.5 2 4.5 4 4.5 4 6 3 6 3 .5-.5.5-.5 5-5 5-5 8.5-.5 8.5-.5 7 1 7 1 3.5 4 3.5 4 7.5-1 7.5-1 7-2 7-2 6.5 1 6.5 1 5 3 5 3" style="fill:#3f3428;stroke:#3f3428" />
        <path d="m463 163v1h.5.5v-3-3h-.5-.5-2-2-1-1-1-1-1-1l-1.5.5-1.5.5v1.5 1.5l.5.5.5.5h2 2 1.5 1.5 1 1 1.5 1.5" style="fill:#371c11;stroke:#371c11" />
        <path d="m463 157v1h.5.5v-3-3-2.5-2.5-1-1l-1.5 2.5-1.5 2.5-4.5.5-4.5.5-2.5 3-2.5 3h8 8" style="fill:#76342a;stroke:#76342a" />
        <path d="m125 123l19-7 2.5-5.5 2.5-5.5v-7.5-7.5l-1-7-1-7 .5-6 .5-6 2-6 2-6-2-5.5-2-5.5v-7-7l.5-6 .5-6 1-7.5 1-7.5h-2-2-.5-.5l-.5 7.5-.5 7.5-.5 8-.5 8v8.5 8.5 7.5 7.5l-.5 7.5-.5 7.5v7.5 7.5 7 7l-2.5 5-2.5 5-6 1-6 1h-10-10l-8-.5-8-.5-8-1-8-1-8.5-.5-8.5-.5-8.5-.5-8.5-.5-7.5-1-7.5-1-12.5-.5-12.5-.5v1.5 1.5l13.5 1 13.5 1 8.5.5 8.5.5 8.5.5 8.5.5 7.5 1 7.5 1 8.5.5 8.5.5 8.5.5 8.5.5 7.5.5 7.5.5" style="fill:#371c11;stroke:#371c11" />
        <path d="m126 119l12-2 2.5-5 2.5-5v-7-7-7.5-7.5l.5-7.5.5-7.5v-7.5-7.5-8.5-8.5l.5-8 .5-8 .5-7.5.5-7.5h-8-8-9-9-9-9-9-9-8.5-8.5-9-9-9-9-9-9-2.5-2.5v6 6 9 9 9 9 9 9 8.5 8.5 9 9 5 5l12.5.5 12.5.5 7.5 1 7.5 1 8.5.5 8.5.5 8.5.5 8.5.5 8 1 8 1 8 .5 8 .5h10 10" style="fill:#3f3428;stroke:#3f3428" />
    </g>
</svg>
