<svg xmlns="http://www.w3.org/2000/svg" viewBox="0 0 960 248">
    <path d="m0 0h960v248h-960z" style="fill:#3a3327" />
    <g style="stroke-linejoin:round;stroke-width:.7">
        <path d="m959 248h1v-12.5-12.5-13.5-13.5-13-13-13.5-13.5-13.5-13.5-4.5-4.5h-.5-.5l-2 .5-2 .5-1.5-9-1.5-9 .5-11.5.5-11.5.5-13.5.5-13.5v-1.5-1.5-1.5-1.5-2-2-1-1-1-1-1-1-1.5-1.5-1-1-1-1-1-1-1.5-1.5-2-2l.5-.5.5-.5v-1.5-1.5l-.5-2-.5-2h-2-2-2-2-2-2-.5-.5v1 1l-1 1-1 1-.5.5-.5.5-1 .5-1 .5v-1-1l-.5-.5-.5-.5.5-.5.5-.5-.5-1-.5-1h-2-2-2.5-2.5-2-2-2-2-2.5-2.5-2-2-2-2v1.5 1.5l-.5 2-.5 2 1 1 1 1-.5 2-.5 2-3.5 9-3.5 9-.5 12-.5 12-1 18-1 18 3.5-9 3.5-9 8.5-1 8.5-1-2.5 7.5-2.5 7.5-2.5 2.5-2.5 2.5 3 9.5 3 9.5-2 9-2 9 3 6 3 6 4-6.5 4-6.5.5 5.5.5 5.5 4.5 8 4.5 8 2.5 10.5 2.5 10.5-1.5 10-1.5 10-.5 10.5-.5 10.5v16 16h1.5 1.5 2 2 2.5 2.5 2 2 2.5 2.5 1 1" style="fill:#331a0e;stroke:#331a0e" />
        <path d="m959 107h1v-1.5-1.5-2-2-1-1h-.5-.5l-2-3-2-3v-11.5-11.5-14.5-14.5h-.5-.5l-.5 13.5-.5 13.5-.5 11.5-.5 11.5 1.5 9 1.5 9 2-.5 2-.5" style="fill:#342419;stroke:#342419" />
        <path d="m959 98h1v-1.5-1.5-2-2-2.5-2.5-2-2-2.5-2.5-2-2-2.5-2.5-2-2-1-1h-.5-.5l-1-12-1-12v-13-13h-.5-.5v2 2 1 1l-.5 1-.5 1v1 1 1 1 1 1 1 1 1 1 1.5 1.5 1 1 1 1 1.5 1.5 14.5 14.5 11.5 11.5l2 3 2 3" style="fill:#3a3327;stroke:#3a3327" />
        <path d="m959 62h1v-1.5-1.5-2-2-2.5-2.5-2-2-2.5-2.5-2-2-2.5-2.5-2-2-1.5-1.5h-.5-.5v-2.5-2.5-2-2l-.5-2-.5-2v-2-2-2.5-2.5-1.5-1.5h-.5-.5v1.5 1.5 1 1 1 1 1 1 1.5 1.5 13 13l1 12 1 12" style="fill:#4d483b;stroke:#4d483b" />
        <path d="m959 25h1v-1.5-1.5-2-2-2.5-2.5-2-2-2.5-2.5-2-2h-1-1v1.5 1.5 2.5 2.5 2 2l.5 2 .5 2v2 2 2.5 2.5" style="fill:#7b756b;stroke:#7b756b" />
        <path d="m958 246l1-3v-2-2-2.5-2.5-2-2-2.5-2.5-1.5-1.5h-.5-.5v2.5 2.5 2 2 2 2 2.5 2.5 2 2 1 1" style="fill:#3a3327;stroke:#3a3327" />
        <path d="m958 222h1v-1.5-1.5-2-2-2.5-2.5-2-2h-.5-.5v-.5-.5l-.5 1-.5 1v2 2 2.5 2.5l.5 1.5.5 1.5v1.5 1.5" style="fill:#241f1d;stroke:#241f1d" />
        <path d="m958 206h1v-12.5-12.5-13.5-13.5l-.5 1.5-.5 1.5v13.5 13.5 10.5 10.5.5.5" style="fill:#3a3327;stroke:#3a3327" />
        <path d="m956 12h1v-1.5-1.5-1-1-1-1-1-1-1.5-1.5h-1.5-1.5l.5 2 .5 2v1.5 1.5l-.5.5-.5.5v2 2 1.5 1.5 1 1 1 1 1 1 1.5 1.5 1 1 1 1 1 1 2 2 1.5 1.5 1.5 1.5h.5.5v-1.5-1.5-1-1-1-1-1.5-1.5-1-1-1-1-1-1-1-1-1-1l.5-1 .5-1v-1-1-2-2" style="fill:#241f1d;stroke:#241f1d" />
        <path d="m941 2v-2h-2-2-1-1l.5 1 .5 1-.5.5-.5.5.5.5.5.5v1 1l1-.5 1-.5.5-.5.5-.5 1-1 1-1" style="fill:#342419;stroke:#342419" />
        <g style="fill:#1d1206;stroke:#1d1206">
            <path d="m940 175l-5-21-4.5-8-4.5-8-.5-5.5-.5-5.5-4 6.5-4 6.5-3-6-3-6 2-9 2-9-3-9.5-3-9.5 2.5-2.5 2.5-2.5 2.5-7.5 2.5-7.5-8.5 1-8.5 1-3.5 9-3.5 9-.5 1.5-.5 1.5v1 1 1.5 1.5 1 1l-.5.5-.5.5v1 1 1.5 1.5 1 1 1.5 1.5 2 2l-.5 2-.5 2v2 2l.5 2 .5 2v2 2l-.5 1.5-.5 1.5v2.5 2.5 2.5 2.5l-.5 1.5-.5 1.5v2.5 2.5l-.5 1-.5 1v.5.5l4 9.5 4 9.5 8 1.5 8 1.5 7.5 9 7.5 9-10 1-10 1-3.5 4.5-3.5 4.5-2 5.5-2 5.5-4.5 6-4.5 6-1 1.5-1 1.5-.5 1.5-.5 1.5-.5 2-.5 2-.5 1.5-.5 1.5v2.5 2.5h12.5 12.5 13.5 13.5v-16-16l.5-10.5.5-10.5 1.5-10 1.5-10" />
            <path d="m939 79l-3-19-3 6.5-3 6.5 4.5 3 4.5 3" />
        </g>
        <path d="m929 196l-15-18-8-1.5-8-1.5-4-9.5-4-9.5.5 12.5.5 12.5.5 11.5.5 11.5-1.5 13-1.5 13 4.5-6 4.5-6 2-5.5 2-5.5 3.5-4.5 3.5-4.5 10-1 10-1" style="fill:#331a0e;stroke:#331a0e" />
        <path d="m929 95l1-3-.5-1.5-.5-1.5-2-.5-2-.5-1.5.5-1.5.5-.5 2-.5 2 1 1 1 1 .5 2 .5 2 1.5.5 1.5.5 1-1 1-1v-1.5-1.5" style="fill:#1d1206;stroke:#1d1206" />
        <path d="m905 13l1-4-1-1-1-1 .5-2 .5-2v-1.5-1.5h-1.5-1.5-2-2l-.5.5-.5.5-.5 10-.5 10-.5 11-.5 11v11 11l-2 18.5-2 18.5.5 1 .5 1v1.5 1.5l-.5 1.5-.5 1.5-.5 1.5-.5 1.5v1 1 1 1l-.5 1-.5 1v2 2 1 1l.5 1 .5 1v2 2 1 1h-.5-.5l-1 10-1 10 .5 9.5.5 9.5v11.5 11.5 13 13 1.5 1.5l-.5.5-.5.5v1.5 1.5l-.5 1.5-.5 1.5-.5.5-.5.5v1 1 1 1l-.5 1-.5 1-.5 1.5-.5 1.5v1 1l-.5 1-.5 1h-2-2v1.5 1.5h2 2 1 1v-2.5-2.5l.5-1.5.5-1.5.5-2 .5-2 .5-1.5.5-1.5 1-1.5 1-1.5 1.5-13 1.5-13-.5-11.5-.5-11.5-.5-12.5-.5-12.5v-.5-.5l1.5-21.5 1.5-21.5v-1.5-1.5-1-1-1.5-1.5-1-1l.5-.5.5-.5v-1-1-1.5-1.5-1-1l.5-1.5.5-1.5 1-18 1-18 .5-12 .5-12 3.5-9 3.5-9" style="fill:#342419;stroke:#342419" />
        <path d="m897 1l1-1h-3-3-.5-.5v2 2l-.5 1.5-.5 1.5-1.5-1-1.5-1v-1-1l-.5-.5-.5-.5.5-1 .5-1h-3-3-2-2-2.5-2.5-2-2-1.5-1.5l-.5 9-.5 9v11 11l-.5 2.5-.5 2.5.5 2 .5 2v1 1 1 1 1 1 1.5 1.5l-.5.5-.5.5v1 1 1 1l-1 .5-1 .5v1 1l.5.5.5.5.5.5.5.5v1 1 1 1l.5 2 .5 2 1 1.5 1 1.5.5 1.5.5 1.5v2 2l1 .5 1 .5h1.5 1.5l.5.5.5.5.5.5.5.5.5.5.5.5.5 1 .5 1 .5 1.5.5 1.5 1 1.5 1 1.5 1.5 1 1.5 1 1 1 1 1 .5 1.5.5 1.5.5.5.5.5.5 1 .5 1 .5 1.5.5 1.5h1 1v-1.5-1.5l.5-1.5.5-1.5v-1.5-1.5l2-18.5 2-18.5v-11-11l.5-11 .5-11 .5-10 .5-10" style="fill:#3a3327;stroke:#3a3327" />
        <g style="fill:#241f1d;stroke:#241f1d">
            <path d="m892 135l1-3v-2-2l-.5-2-.5-2v-2-2l.5-2 .5-2v-2-2l-1.5 21.5-1.5 21.5.5-1 .5-1v-2.5-2.5l.5-1.5.5-1.5v-2.5-2.5-2.5-2.5" />
            <path d="m891 110l1-3v-1.5-1.5l-.5-1-.5-1v1.5 1.5l-.5 1.5-.5 1.5v1.5 1.5h-1-1l-.5-1.5-.5-1.5-.5-1-.5-1-.5-.5-.5-.5-.5-1.5-.5-1.5-1-1-1-1-1.5-1-1.5-1-1-1.5-1-1.5h-1-1l1 1 1 1 1 1.5 1 1.5.5 1.5.5 1.5 1 1.5 1 1.5.5 1.5.5 1.5v2 2l-.5 2-.5 2-4.5 6-4.5 6 1-3 1-3 1-9.5 1-9.5-4.5-2.5-4.5-2.5-.5 12.5-.5 12.5v1.5 1.5 1 1l-5 2-5 2 5-4.5 5-4.5-1.5-11-1.5-11 1.5-8 1.5-8v-2-2l-.5-1.5-.5-1.5-1-1.5-1-1.5-.5-2-.5-2-1-1-1-1h-.5-.5l-.5 1.5-.5 1.5-.5.5-.5.5h-.5-.5l-1-1-1-1-.5-.5-.5-.5-.5-1-.5-1 .5-1.5.5-1.5.5-1.5.5-1.5-.5-.5-.5-.5-.5-1-.5-1-.5-1-.5-1-1 11.5-1 11.5-2 9-2 9v10.5 10.5l.5 9.5.5 9.5-5 .5-5 .5-1-9-1-9 2.5-7.5 2.5-7.5h-5-5l-4.5 7-4.5 7-1.5-9.5-1.5-9.5.5-10 .5-10-1.5-15-1.5-15-.5-1-.5-1-2-.5-2-.5-1-1-1-1 1-1.5 1-1.5 1-1.5 1-1.5 1.5-.5 1.5-.5.5-.5.5-.5h1 1l1-1 1-1 1.5-.5 1.5-.5h.5.5l-3.5-3-3.5-3-12.5 2.5-12.5 2.5.5 1.5.5 1.5-1.5 1-1.5 1 1 1 1 1 .5.5.5.5-1 1-1 1 2 .5 2 .5 1.5.5 1.5.5 1.5 1 1.5 1 1 1 1 1 .5 2 .5 2-.5 1.5-.5 1.5 1.5.5 1.5.5 2 .5 2 .5 1.5 1 1.5 1 .5-1 .5-1-1.5-.5-1.5-.5-1.5-1-1.5-1h2 2l1.5 1 1.5 1 1 1 1 1-.5 1.5-.5 1.5-.5 2.5-.5 2.5-.5 1.5-.5 1.5-.5 2-.5 2 .5 1.5.5 1.5v2.5 2.5l-.5 1.5-.5 1.5v-1.5-1.5l-.5-2-.5-2-.5 1-.5 1-.5 2-.5 2v2 2l-.5 2-.5 2v2 2l.5 2 .5 2v2 2l-.5 1.5-.5 1.5-.5 2.5-.5 2.5.5 1 .5 1 1 1.5 1 1.5v2 2l-.5 2-.5 2-.5.5-.5.5.5 2 .5 2v1 1 1 1 1 1l-.5 1-.5 1-.5 1.5-.5 1.5v2 2l.5-1.5.5-1.5h.5.5l-.5 2-.5 2v2 2l-.5 1.5-.5 1.5-.5.5-.5.5-.5 1-.5 1 1-.5 1-.5h1.5 1.5v2 2l.5 1.5.5 1.5-.5 2-.5 2 .5 1.5.5 1.5.5 2 .5 2v2 2l.5 2 .5 2 .5 1.5.5 1.5-.5 1.5-.5 1.5-1 .5-1 .5-1 .5-1 .5-1 1-1 1h-1-1l-1 .5-1 .5h-1-1l1.5 1 1.5 1-.5.5-.5.5-.5-.5-.5-.5h-1-1l-.5-.5-.5-.5h-.5-.5l1 1.5 1 1.5 1 1 1 1h1 1l1-.5 1-.5h1 1l1 1 1 1 5-1.5 5-1.5 6 4.5 6 4.5-.5 2-.5 2v1 1l-.5.5-.5.5v1 1l-.5.5-.5.5-.5 1-.5 1-.5-.5-.5-.5v-1-1l-.5.5-.5.5-.5.5-.5.5v1.5 1.5l.5.5.5.5 1 .5 1 .5 1-1.5 1-1.5 1 1 1 1v1 1 2.5 2.5 2.5 2.5l-1 1-1 1-.5 2-.5 2-.5 1.5-.5 1.5 1-1.5 1-1.5 1-.5 1-.5 3-10.5 3-10.5 3.5-8.5 3.5-8.5 1-5 1-5-8-2-8-2-1-10.5-1-10.5-6 3-6 3-.5-11-.5-11 2.5-4.5 2.5-4.5 6.5 6 6.5 6 3 3 3 3 3-.5 3-.5 4.5-6.5 4.5-6.5 6.5-2 6.5-2 9.5-4 9.5-4h.5.5v-1-1-2-2l-.5-1-.5-1v-1-1-2-2l.5-1 .5-1v-1-1-1-1l.5-1.5.5-1.5" />
        </g>
        <path d="m891 82l1-25-.5-12-.5-12-1.5-9.5-1.5-9.5 1 11.5 1 11.5v10.5 10.5l-.5 12-.5 12-1 1-1 1-1-1-1-1 .5 2 .5 2 1 1 1 1 1-1.5 1-1.5.5-1.5.5-1.5" style="fill:#4f382a;stroke:#4f382a" />
        <g style="fill:#4d483b;stroke:#4d483b">
            <path d="m890 7l1-3v-2-2h-2-2l-.5 1-.5 1 .5.5.5.5v1 1l1.5 1 1.5 1" />
            <path d="m889 82l1-24v-10.5-10.5l-1-11.5-1-11.5-3.5 4-3.5 4 1.5 8 1.5 8v.5.5 1.5 1.5l-.5 1-.5 1-2 1-2 1-1 1-1 1 1 1.5 1 1.5v1 1l-.5.5-.5.5.5.5.5.5.5 1 .5 1 .5.5.5.5v1 1 1 1 1 1l-1 .5-1 .5-1 2-1 2 1 .5 1 .5v2 2l1.5 1 1.5 1 1 1 1 1 .5 2 .5 2 1 1 1 1 1-1 1-1" />
        </g>
        <path d="m888 221v-26-11.5-11.5l-.5-9.5-.5-9.5 1-10 1-10-9.5 4-9.5 4-6.5 2-6.5 2-4.5 6.5-4.5 6.5-3 .5-3 .5-3-3-3-3-6.5-6-6.5-6-2.5 4.5-2.5 4.5.5 11 .5 11 6-3 6-3 1 10.5 1 10.5 8 2 8 2-1 5-1 5-3.5 8.5-3.5 8.5-3 10.5-3 10.5-.5 2-.5 2-1 1-1 1-.5 1.5-.5 1.5h2.5 2.5 1.5 1.5l-.5-2-.5-2 .5-1.5.5-1.5 1-1.5 1-1.5 1-1.5 1-1.5 1-1.5 1-1.5 1.5-.5 1.5-.5 1.5-.5 1.5-.5 1.5-1 1.5-1h1.5 1.5l1.5.5 1.5.5 1.5.5 1.5.5 1.5.5 1.5.5 1.5 1 1.5 1 1 1 1 1 1.5 1 1.5 1 .5 1.5.5 1.5 1.5 1 1.5 1 .5 1.5.5 1.5h2 2l.5-1 .5-1v-1-1l.5-1.5.5-1.5.5-1 .5-1v-1-1-1-1l.5-.5.5-.5.5-1.5.5-1.5v-1.5-1.5l.5-.5.5-.5v-1.5-1.5" style="fill:#3a3327;stroke:#3a3327" />
        <g style="fill:#4f382a;stroke:#4f382a">
            <path d="m883 44l1-2v-1.5-1.5l-2.5 1-2.5 1v1 1 1.5 1.5l2-1 2-1" />
            <path d="m882 235l1-3-1-1-1-1v-.5-.5l-.5 1.5-.5 1.5v2 2l-1 .5-1 .5 1.5 1.5 1.5 1.5.5-2 .5-2v-.5-.5" />
        </g>
        <path d="m882 117l1-4v-2-2l-.5-1.5-.5-1.5-1-1.5-1-1.5-.5-1.5-.5-1.5-1-1.5-1-1.5-1-1-1-1h1 1l-.5-1.5-.5-1.5-.5-1-.5-1-.5-.5-.5-.5-.5-.5-.5-.5-.5-.5-.5-.5h-1.5-1.5l-1-.5-1-.5-1.5 8-1.5 8 1.5 11 1.5 11 .5-12.5.5-12.5 4.5 2.5 4.5 2.5-1 9.5-1 9.5-1 3-1 3 4.5-6 4.5-6" style="fill:#342419;stroke:#342419" />
        <path d="m881 225v-2l-.5-1.5-.5-1.5-1-1.5-1-1.5-.5-1.5-.5-1.5-1-1.5-1-1.5-.5-1.5-.5-1.5v-.5-.5h-.5-.5l-.5-1-.5-1-.5-1-.5-1v-2-2l-.5-2-.5-2-.5-1.5-.5-1.5.5-1.5.5-1.5v-2-2l-7 5.5-7 5.5-5 8-5 8 2.5 5 2.5 5 10.5 3 10.5 3 3 4.5 3 4.5 1-.5 1-.5v-2-2l.5-1.5.5-1.5v-2-2" style="fill:#4d483b;stroke:#4d483b" />
        <path d="m881 64v-2-1-1-1-1l-.5-.5-.5-.5-.5-1-.5-1-.5-.5-.5-.5.5-.5.5-.5v-1-1l-1-1.5-1-1.5v3.5 3.5l.5 1.5.5 1.5-1 1-1 1-2 .5-2 .5.5 1.5.5 1.5 1 1.5 1 1.5 1 1 1 1 1-2 1-2 1-.5 1-.5" style="fill:#4f382a;stroke:#4f382a" />
        <path d="m877 248h1v-1.5-1.5l-.5-1.5-.5-1.5-1.5-1-1.5-1-.5-1.5-.5-1.5-1.5-1-1.5-1-1-1-1-1-1.5-1-1.5-1-1.5-.5-1.5-.5-1.5-.5-1.5-.5-1.5-.5-1.5-.5-.5.5-.5.5.5.5.5.5-2 1.5-2 1.5 1.5-.5 1.5-.5 1.5.5 1.5.5h2.5 2.5l1 1 1 1 1 1 1 1 .5.5.5.5.5 1 .5 1 1 1 1 1 .5.5.5.5.5 1 .5 1 .5 1.5.5 1.5h1.5 1.5" style="fill:#241f1d;stroke:#241f1d" />
        <path d="m873 248h1l-.5-1.5-.5-1.5-.5-1-.5-1-.5-.5-.5-.5-1-1-1-1-.5-1-.5-1-.5-.5-.5-.5-1-1-1-1-1-1-1-1h-2.5-2.5l-1.5-.5-1.5-.5-1.5.5-1.5.5-2 .5-2 .5-.5 1-.5 1-.5 1.5-.5 1.5-1 1-1 1-.5 2-.5 2-.5 1.5-.5 1.5h3 3 2 2 2 2 2.5 2.5 2 2 2.5 2.5 1.5 1.5" style="fill:#1d1206;stroke:#1d1206" />
        <path d="m873 207h1l-.5-1-.5-1v-2-2l-.5-2-.5-2-.5-1.5-.5-1.5v-2.5-2.5-2-2h-.5-.5v2 2l-.5 1.5-.5 1.5.5 1.5.5 1.5.5 2 .5 2v2 2l.5 1 .5 1 .5 1 .5 1" style="fill:#4f382a;stroke:#4f382a" />
        <path d="m873 49l1-3-1.5-.5-1.5-.5-.5 2-.5 2 .5 1.5.5 1.5 1-.5 1-.5v-1-1" style="fill:#4d483b;stroke:#4d483b" />
        <path d="m867 129v-2-1.5-1.5l-5 4.5-5 4.5 5-2 5-2" style="fill:#342419;stroke:#342419" />
        <path d="m864 40v-22l.5-9 .5-9h-2-2-2.5-2.5-2-2-2.5-2.5-2-2-2-2-2.5-2.5l1.5 2.5 1.5 2.5 2.5 4 2.5 4 8 4 8 4v1.5 1.5 1 1 1 1 1.5 1.5l-.5 1.5-.5 1.5v1 1l.5.5.5.5v1 1 1.5 1.5l-.5.5-.5.5v1 1h-1-1l-.5 1-.5 1v1 1 2 2l1-.5 1-.5.5-2 .5-2 1-1 1-1 1-.5 1-.5h1 1l.5-2.5.5-2.5" style="fill:#241f1d;stroke:#241f1d" />
        <g style="fill:#342419;stroke:#342419">
            <path d="m863 70v-2l-.5-.5-.5-.5-.5-.5-.5-.5v-1-1l1-.5 1-.5v-1-1-1-1l.5-.5.5-.5v-1.5-1.5-1-1-1-1-1-1l-.5-2-.5-2h-1-1l-1 .5-1 .5-1 1-1 1-.5 2-.5 2-1 .5-1 .5-.5 1-.5 1-.5 1.5-.5 1.5.5 1 .5 1 .5 1 .5 1 .5.5.5.5-.5 1.5-.5 1.5-.5 1.5-.5 1.5.5 1 .5 1 .5.5.5.5 1 1 1 1h.5.5l.5-.5.5-.5.5-1.5.5-1.5h.5.5l1 1 1 1v-1-1" />
            <path d="m860 7l1-3h-1-1l-1-.5-1-.5h-2-2l-1.5 1-1.5 1 1.5.5 1.5.5.5 2 .5 2 1.5-.5 1.5-.5 1-1 1-1h.5.5" />
        </g>
        <path d="m858 21l-16-8-2.5-4-2.5-4-1.5-2.5-1.5-2.5h-14.5-14.5-13-13-3.5-3.5l1 1 1 1-1 1-1 1-.5 2-.5 2v2 2 2 2l.5 3 .5 3 .5 1 .5 1 .5.5.5.5.5 1 .5 1 .5 1 .5 1-1 1-1 1-.5 1-.5 1 1 1 1 1 .5.5.5.5.5 1 .5 1 1 1 1 1h1.5 1.5l1-.5 1-.5h1 1 1 1l.5-.5.5-.5.5-1 .5-1 1.5-.5 1.5-.5 12.5-2.5 12.5-2.5 3.5 3 3.5 3 .5 2.5.5 2.5v1 1l-1 1.5-1 1.5-1 1-1 1-1 1-1 1-2 1-2 1 1.5 15 1.5 15-.5 10-.5 10 1.5 9.5 1.5 9.5 4.5-7 4.5-7h5 5l-2.5 7.5-2.5 7.5 1 9 1 9 5-.5 5-.5-.5-9.5-.5-9.5v-10.5-10.5l2-9 2-9 1-11.5 1-11.5.5-1.5.5-1.5.5-1 .5-1v-2-2-1-1l.5-1 .5-1h1 1v-1-1l.5-.5.5-.5v-1.5-1.5-1-1l-.5-.5-.5-.5v-1-1l.5-1.5.5-1.5v-1.5-1.5-1-1-1-1-1.5-1.5" style="fill:#1d1206;stroke:#1d1206" />
        <path d="m857 163v-2-2-2l-1 .5-1 .5-.5 1.5-.5 1.5-.5 2-.5 2 1.5.5 1.5.5.5-1.5.5-1.5" style="fill:#4d483b;stroke:#4d483b" />
        <path d="m856 230l-1-1 .5-.5.5-.5h-1.5-1.5l-1.5 1-1.5 1-1.5.5-1.5.5-1.5.5-1.5.5-1 1.5-1 1.5-1 1.5-1 1.5 1-.5 1-.5h1.5 1.5l1.5-1.5 1.5-1.5 2-.5 2-.5 2-1.5 2-1.5" style="fill:#342419;stroke:#342419" />
        <path d="m847 236l1-2-1.5 1.5-1.5 1.5h-1.5-1.5l-1 .5-1 .5-1 1.5-1 1.5-.5 1.5-.5 1.5.5 2 .5 2h2 2l.5-1.5.5-1.5.5-2 .5-2 1-1 1-1 .5-1.5.5-1.5" style="fill:#241f1d;stroke:#241f1d" />
        <g style="fill:#342419;stroke:#342419">
            <path d="m839 150l-10-14h-1.5-1.5l6 7 6 7h.5.5" />
            <path d="m834 224v-2l-1-1-1-1-1 1.5-1 1.5-1-.5-1-.5-.5 1-.5 1v1.5 1.5 2 2l-.5 2-.5 2-1 1-1 1-1 1-1 1-2 .5-2 .5 1 1 1 1h1 1l.5.5.5.5-1 .5-1 .5v2 2h1.5 1.5 2.5 2.5.5.5l.5-1.5.5-1.5 1-1 1-1 .5-2 .5-2-1 .5-1 .5-1 1.5-1 1.5.5-1.5.5-1.5.5-2 .5-2 1-1 1-1v-2.5-2.5-2.5-2.5" />
            <path d="m834 207l-12-9-5 1.5-5 1.5.5 1.5.5 1.5v2.5 2.5 2 2l1 1 1 1 2 .5 2 .5 1 1 1 1 2 .5 2 .5 1 1 1 1v-1.5-1.5l.5-.5.5-.5.5-.5.5-.5v1 1l.5.5.5.5.5-1 .5-1 .5-.5.5-.5v-1-1l.5-.5.5-.5v-1-1l.5-2 .5-2" />
        </g>
        <path d="m827 224l1-2-.5-.5-.5-.5-1-1-1-1-2-.5-2-.5-1-1-1-1-2-.5-2-.5-1-1-1-1v-2-2-2.5-2.5l-.5-1.5-.5-1.5-1-1-1-1h-1-1l-1 .5-1 .5h-1-1l-1-1-1-1-1-1.5-1-1.5-2.5-10.5-2.5-10.5 7-13.5 7-13.5v-2-2l.5-1.5.5-1.5.5-1 .5-1v-1-1-1-1-1-1l-.5-2-.5-2-.5-1-.5-1-.5-1.5-.5-1.5.5-2 .5-2-1-1-1-1 1-1.5 1-1.5.5-2.5.5-2.5.5-1.5.5-1.5v-2-2l-.5-2-.5-2v-2-2l.5-2 .5-2v-2-2l.5-2 .5-2 .5-1 .5-1-.5-1.5-.5-1.5.5-1.5.5-1.5v-1-1-1.5-1.5l.5-1.5.5-1.5v-2-2l-1.5-1-1.5-1-2-.5-2-.5-1.5-.5-1.5-.5.5-1.5.5-1.5-.5-2-.5-2-1-1-1-1-1.5-1-1.5-1-1.5-.5-1.5-.5-2-.5-2-.5-9-3.5-9-3.5-2-18-2-18-.5-1-.5-1h-2.5-2.5-1-1l1 .5 1 .5.5.5.5.5-1.5.5-1.5.5-.5.5-.5.5v1.5 1.5l.5 1.5.5 1.5.5 2.5.5 2.5.5 1 .5 1 .5 2 .5 2v2 2l.5 2 .5 2v2 2l.5 1.5.5 1.5 6.5 7 6.5 7 4 7.5 4 7.5 4 7.5 4 7.5-.5 1-.5 1-1 1.5-1 1.5-1.5.5-1.5.5-2.5 1-2.5 1-.5 1-.5 1h-2-2l-.5-1-.5-1-.5-1.5-.5-1.5h-1-1-1-1-1-1l-1.5.5-1.5.5-4.5 8-4.5 8-2 9.5-2 9.5-1.5 10.5-1.5 10.5 1.5 8.5 1.5 8.5-12-.5-12-.5h-.5-.5-2-2-1-1l-.5-.5-.5-.5-.5-.5-.5-.5-.5-1-.5-1-.5-.5-.5-.5-.5-.5-.5-.5-.5-.5-.5-.5-1-.5-1-.5-.5-1-.5-1-9-.5-9-.5-.5 10-.5 10 7.5 6 7.5 6 2 6 2 6 12.5-2.5 12.5-2.5 9-3.5 9-3.5 2.5-2.5 2.5-2.5v17.5 17.5l-.5 1.5-.5 1.5-.5.5-.5.5v1 1 1 1 1 1 1 1l-.5 1-.5 1 .5.5.5.5.5.5.5.5.5.5.5.5v1.5 1.5l-.5.5-.5.5v1 1l.5.5.5.5v1.5 1.5 1 1l-.5.5-.5.5-.5-.5-.5-.5-1 .5-1 .5v1.5 1.5 1.5 1.5l.5 1.5.5 1.5h1.5 1.5 2 2 2.5 2.5.5.5l-3.5-9-3.5-9 4.5-1.5 4.5-1.5 1 .5 1 .5 1 1.5 1 1.5 1 1 1 1 .5 2 .5 2v2 2 2 2l.5 1.5.5 1.5h2.5 2.5 2.5 2.5 2 2l-.5-1.5-.5-1.5-1-.5-1-.5-1 1-1 1-.5-.5-.5-.5.5-.5.5-.5.5-1 .5-1-.5-1.5-.5-1.5v-1-1l.5-1 .5-1h1 1l.5.5.5.5 1 1 1 1 .5 1 .5 1 .5 2 .5 2-.5 1.5-.5 1.5v.5.5h1.5 1.5 2.5 2.5 1 1v-2.5-2.5-1-1-1-1l.5-.5.5-.5v-1-1l.5-1 .5-1v-1-1l.5-.5.5-.5.5.5.5.5 1 .5 1 .5v1 1 1 1l.5.5.5.5.5 1 .5 1 2-.5 2-.5 1-1 1-1 1-1 1-1 .5-2 .5-2v-2-2-1.5-1.5" style="fill:#3a3327;stroke:#3a3327" />
        <path d="m826 43v-2l-.5-2.5-.5-2.5h-.5-.5l.5 2.5.5 2.5-.5 1.5-.5 1.5h-1-1l-.5-2-.5-2v-1.5-1.5l-1 1-1 1h-1-1l-.5.5-.5.5-1.5.5-1.5.5.5 1 .5 1 .5.5.5.5.5 1 .5 1 .5 1 .5 1-1 1-1 1 .5 1 .5 1 2-1 2-1 1-1 1-1 1-1 1-1 1-1.5 1-1.5" style="fill:#331a0e;stroke:#331a0e" />
        <path d="m824 44l1-3-.5-2.5-.5-2.5-1.5.5-1.5.5v1.5 1.5l.5 2 .5 2h1 1" style="fill:#342419;stroke:#342419" />
        <path d="m823 243l-1-1h-1-1l-1-1-1-1-.5-1-.5-1-.5-.5-.5-.5v-1-1-1-1l-1-.5-1-.5-.5-.5-.5-.5-.5.5-.5.5v1 1l-.5 1-.5 1v1 1l-.5.5-.5.5v1 1 1 1 2.5 2.5h2 2 2.5 2.5 1 1v-2-2l1-.5 1-.5" style="fill:#241f1d;stroke:#241f1d" />
        <g style="fill:#342419;stroke:#342419">
            <path d="m817 64l1-3-1-1-1-1-1.5-1-1.5-1h-2-2l1.5 1 1.5 1 1.5.5 1.5.5-.5 1-.5 1v2 2l-.5 1.5-.5 1.5v1.5 1.5 1 1l-.5 1.5-.5 1.5.5 1.5.5 1.5.5 2 .5 2v1.5 1.5l.5-1.5.5-1.5v-2.5-2.5l-.5-1.5-.5-1.5.5-2 .5-2 .5-1.5.5-1.5.5-2.5.5-2.5" />
            <path d="m817 48l-1-2-.5-1-.5-1-.5-.5-.5-.5-.5-1-.5-1-1 1.5-1 1.5-1 1.5-1 1.5 1 1 1 1 2 .5 2 .5 1-1 1-1" />
        </g>
        <path d="m815 189l1-3-.5-1.5-.5-1.5-.5-2-.5-2v-2-2l-.5-2-.5-2-.5-1.5-.5-1.5.5-2 .5-2-.5-1.5-.5-1.5v-2-2h-1.5-1.5l-1 .5-1 .5-2 18-2 18h1 1l1-.5 1-.5h1 1l1-1 1-1 1-.5 1-.5 1-.5 1-.5" style="fill:#1d1206;stroke:#1d1206" />
        <g style="fill:#342419;stroke:#342419">
            <path d="m815 130l1-3v-2-2l-.5-2-.5-2v-2-2l-.5-2-.5-2-.5.5-.5.5v1.5 1.5 2 2 2 2l.5 2 .5 2 .5 1.5.5 1.5" />
            <path d="m811 127l1-4v-2-2l-1-1.5-1-1.5-.5-1-.5-1-1 1.5-1 1.5 1 1 1 1-.5 2-.5 2 .5 1.5.5 1.5.5 1 .5 1 .5-.5.5-.5" />
            <path d="m810 148l1-4h-.5-.5l-.5 1.5-.5 1.5-7 13.5-7 13.5 2.5 10.5 2.5 10.5h.5.5l.5.5.5.5h1 1l.5.5.5.5.5-.5.5-.5-1.5-1-1.5-1 2-18 2-18 .5-1 .5-1 .5-.5.5-.5.5-1.5.5-1.5v-2-2" />
        </g>
        <path d="m809 219l1-3-.5-1.5-.5-1.5v-2.5-2.5h-1-1l.5 2 .5 2v2 2l-.5 2-.5 2v1.5 1.5l-1 1.5-1 1.5v2 2l1-1.5 1-1.5 1-1.5 1-1.5v-2-2-.5-.5" style="fill:#4f382a;stroke:#4f382a" />
        <path d="m807 220l1-4v-2-2l-.5-2-.5-2-.5 1-.5 1-.5 2-.5 2-.5 1.5-.5 1.5-.5 2-.5 2v2 2 1 1 .5.5 1 1h1 1v-2-2l1-1.5 1-1.5v-1.5-1.5" style="fill:#4d483b;stroke:#4d483b" />
        <g style="fill:#4f382a;stroke:#4f382a">
            <path d="m804 150v-2-2-2l-.5-2-.5-2-.5-1.5-.5-1.5-1.5 1-1.5 1v1 1l1-.5 1-.5.5.5.5.5v2 2 2 2 1.5 1.5 1 1l1-2 1-2" />
            <path d="m802 231l1-1v-1-1l-1-1-1-1-1-1.5-1-1.5-.5-1.5-.5-1.5-.5 1.5-.5 1.5v2 2h-1.5-1.5l-.5-1.5-.5-1.5-1-.5-1-.5 1 2.5 1 2.5 1 1 1 1 1.5 1 1.5 1 1.5.5 1.5.5.5-1 .5-1" />
        </g>
        <path d="m802 152v-3-2-2-2-2l-.5-.5-.5-.5-1 .5-1 .5-5 9-5 9-8.5 5-8.5 5v11.5 11.5l2.5 8 2.5 8 1.5.5 1.5.5 1 1 1 1 .5.5.5.5.5 1 .5 1 1 1 1 1 .5.5.5.5 1 .5 1 .5.5 1.5.5 1.5.5 1 .5 1 1 .5 1 .5.5 1.5.5 1.5h1.5 1.5v-2-2l.5-1.5.5-1.5-.5-2-.5-2v-2.5-2.5-2-2-1-1h-.5-.5l-2-21.5-2-21.5.5-1.5.5-1.5 1.5-.5 1.5-.5 1-1.5 1-1.5 1.5-.5 1.5-.5h.5.5v-1-1" style="fill:#4d483b;stroke:#4d483b" />
        <path d="m800 247l1-3-.5-2-.5-2-.5-1-.5-1-2 .5-2 .5 1.5.5 1.5.5v1 1l-1.5 1-1.5 1 1 .5 1 .5.5 1.5.5 1.5h1 1v-.5-.5" style="fill:#241f1d;stroke:#241f1d" />
        <path d="m798 242v-2l-1.5-.5-1.5-.5 2-.5 2-.5-1-1-1-1-.5-.5-.5-.5h-1-1l-.5 1-.5 1v1 1l.5 1.5.5 1.5-.5 1-.5 1-.5.5-.5.5.5.5.5.5 1-1 1-1 1.5-1 1.5-1" style="fill:#342419;stroke:#342419" />
        <path d="m796 205h1l-1-11.5-1-11.5-1.5-10-1.5-10 2 21.5 2 21.5" style="fill:#4f382a;stroke:#4f382a" />
        <path d="m796 80l-8-15-4-7.5-4-7.5-6.5-7-6.5-7h-.5-.5l-.5-2.5-.5-2.5-.5-2-.5-2v-2-2-2-2l-.5-2-.5-2-.5-2.5-.5-2.5-.5-1.5-.5-1.5v-1.5-1.5l.5-.5.5-.5 1.5-.5 1.5-.5-.5-.5-.5-.5-1-.5-1-.5h-13.5-13.5-13.5-13.5-13.5-13.5-10-10l1 12.5 1 12.5.5 10.5.5 10.5 1 11.5 1 11.5v12 12l1.5 11 1.5 11 .5 11.5.5 11.5.5 11.5.5 11.5 1.5 11 1.5 11 1 10 1 10 .5 11 .5 11 1 11.5 1 11.5h12.5 12.5 13.5 13.5 3 3l2.5-5 2.5-5-3-8-3-8 .5-9.5.5-9.5h4 4l2 9.5 2 9.5 3.5 12.5 3.5 12.5v.5.5h2.5 2.5l-.5-1.5-.5-1.5v-1.5-1.5-9.5-9.5l1.5-10.5 1.5-10.5-11-8-11-8-12.5 2.5-12.5 2.5-2-6-2-6-7.5-6-7.5-6 .5-10 .5-10 9 .5 9 .5h1.5 1.5l.5 1.5.5 1.5 1.5 1 1.5 1 .5 1.5.5 1.5 2 .5 2 .5h1 1l1 .5 1 .5 12 .5 12 .5-1.5-8.5-1.5-8.5 1.5-10.5 1.5-10.5 2-9.5 2-9.5 4.5-8 4.5-8 1-.5 1-.5 1.5-.5 1.5-.5h2 2l1.5.5 1.5.5v1 1l2 .5 2 .5 2.5-1 2.5-1 1.5-.5 1.5-.5 1-1.5 1-1.5.5-1 .5-1" style="fill:#4d483b;stroke:#4d483b" />
        <path d="m794 43l-1-1-1-1-1-1-2 .5-2 .5h-1-1l-1.5-.5-1.5-.5h-1.5-1.5l-1-1-1-1-.5-1-.5-1-.5-.5-.5-.5-1-1-1-1-.5-1-.5-1v-2.5-2.5-2-2l-.5-3-.5-3-.5-1-.5-1-.5-.5-.5-.5v-1.5-1.5l.5-1.5.5-1.5v-1-1-1.5-1.5l2 18 2 18 9 3.5 9 3.5 1-1 1-1" style="fill:#342419;stroke:#342419" />
        <path d="m794 38l-1-3-1.5.5-1.5.5-.5 1-.5 1-.5.5-.5.5h-1-1-1-1l-1 .5-1 .5 1.5.5 1.5.5h1 1l2-.5 2-.5 1.5-1 1.5-1" style="fill:#331a0e;stroke:#331a0e" />
        <path d="m790 223h1l-.5-1-.5-1-.5-1.5-.5-1.5-1-.5-1-.5-.5-.5-.5-.5-1-1-1-1-.5-1-.5-1-.5-.5-.5-.5-1-1-1-1-1.5-.5-1.5-.5 1 1.5 1 1.5 1 1 1 1 1.5 1 1.5 1 1 1 1 1 1 1.5 1 1.5 1 1 1 1v.5.5" style="fill:#4f382a;stroke:#4f382a" />
        <path d="m787 36l1-3v-2-2l-1.5-1-1.5-1h-2-2l-.5 2-.5 2 .5 1.5.5 1.5 1.5 1 1.5 1h1 1 .5.5" style="fill:#331a0e;stroke:#331a0e" />
        <path d="m785 103v-2l-1-1-1-1-2-.5-2-.5-1-1-1-1-2-.5-2-.5h-1-1v1 1l.5.5.5.5.5 1 .5 1 .5.5.5.5v1 1l.5.5.5.5 1 .5 1 .5 1 1 1 1 1.5-.5 1.5-.5 1.5-1 1.5-1v-.5-.5" style="fill:#241f1d;stroke:#241f1d" />
        <path d="m784 90l1-2-2-.5-2-.5v-1-1l-1.5-.5-1.5-.5h-2-2l-1.5.5-1.5.5-1 .5-1 .5 1.5-.5 1.5-.5h1 1 1 1 1 1l.5 1.5.5 1.5.5 1 .5 1h2 2" style="fill:#4f382a;stroke:#4f382a" />
        <g style="fill:#241f1d;stroke:#241f1d">
            <path d="m783 248h1l-.5-1.5-.5-1.5v-2-2-2-2l-.5-2-.5-2-1-1-1-1-1-1.5-1-1.5-1-.5-1-.5-.5 1-.5 1 .5 1.5.5 1.5.5 2 .5 2v1 1 1.5 1.5h-1-1l-.5-.5-.5-.5v-1-1l-.5-.5-.5-.5-.5-2-.5-2v2 2l.5 1 .5 1v1 1l.5.5.5.5.5.5.5.5.5.5.5.5h.5.5 1 1v1 1l.5 1 .5 1h1.5 1.5" />
            <path d="m782 154l-6-18 1.5-9 1.5-9-7.5-3.5-7.5-3.5-1 2.5-1 2.5.5 5 .5 5 6.5 14 6.5 14-1.5.5-1.5.5-1.5-.5-1.5-.5-1.5-1-1.5-1-.5-1.5-.5-1.5-.5-1.5-.5-1.5-1-1.5-1-1.5v-2-2-2.5-2.5l-.5-2.5-.5-2.5.5 10 .5 10 7.5 5 7.5 5 2-2.5 2-2.5" />
        </g>
        <path d="m779 248h1l-.5-1-.5-1v-1-1h-1-1-.5-.5l-.5-.5-.5-.5-.5-.5-.5-.5-.5-.5-.5-.5v-1-1l-.5-1-.5-1v-2-2l-1-1-1-1-.5-1.5-.5-1.5v-2.5-2.5l.5-1.5.5-1.5 1 1.5 1 1.5 1 1 1 1v1.5 1.5l.5.5.5.5.5-1 .5-1-4.5 1.5-4.5 1.5 3.5 9 3.5 9h2 2 .5.5" style="fill:#342419;stroke:#342419" />
        <path d="m777 238v-2l-.5-2-.5-2-.5-1.5-.5-1.5-.5-.5-.5-.5h-.5-.5l-1 .5-1 .5.5 2 .5 2 .5 2 .5 2 .5.5.5.5v1 1l.5.5.5.5h1 1v-1.5-1.5" style="fill:#1d1206;stroke:#1d1206" />
        <g style="fill:#342419;stroke:#342419">
            <path d="m776 154l-13-28-.5-5-.5-5-.5 1-.5 1 .5 1.5.5 1.5-.5 2-.5 2 .5 1.5.5 1.5v.5.5l.5 2.5.5 2.5v2.5 2.5 2 2l1 1.5 1 1.5.5 1.5.5 1.5.5 1.5.5 1.5 1.5 1 1.5 1 1.5.5 1.5.5 1.5-.5 1.5-.5" />
            <path d="m776 105h1l-1-.5-1-.5-.5-.5-.5-.5v-1-1l-.5-.5-.5-.5-.5-1-.5-1-.5-.5-.5-.5v-1-1h1 1l2 .5 2 .5-2-1.5-2-1.5-1.5.5-1.5.5-.5 1.5-.5 1.5 1 1.5 1 1.5.5 1.5.5 1.5 1.5 1 1.5 1h.5.5" />
        </g>
        <path d="m776 29l-1-2-.5-1-.5-1-.5-.5-.5-.5-.5-1-.5-1v2 2 2.5 2.5l.5 1 .5 1 .5-1 .5-1 1-1 1-1" style="fill:#331a0e;stroke:#331a0e" />
        <path d="m774 2l-2-2h-1.5-1.5l.5 1 .5 1v1.5 1.5 1 1l-.5 1.5-.5 1.5v1.5 1.5l.5.5.5.5.5 1 .5 1v-2-2-2-2l.5-2 .5-2 1-1 1-1" style="fill:#241f1d;stroke:#241f1d" />
        <path d="m773 228h1v-1.5-1.5l-1-1-1-1-1-1.5-1-1.5-.5 1.5-.5 1.5v2.5 2.5l.5 1.5.5 1.5 1 1 1 1-.5-2-.5-2 1-.5 1-.5" style="fill:#331a0e;stroke:#331a0e" />
        <path d="m769 124l1-3-1-1-1-1h-1.5-1.5l-.5 1.5-.5 1.5.5 2 .5 2 .5 1.5.5 1.5 1-1.5 1-1.5.5-1 .5-1" style="fill:#1d1206;stroke:#1d1206" />
        <g style="fill:#4f382a;stroke:#4f382a">
            <path d="m766 36h1l-.5-1.5-.5-1.5v-2-2l-.5-2-.5-2v-2-2l-.5-2-.5-2-.5-1-.5-1 .5 2 .5 2v2 2 2 2l.5 2 .5 2 .5 2.5.5 2.5" />
            <path d="m764 209v-35l-2.5 2.5-2.5 2.5-9 3.5-9 3.5 11 8 11 8-1.5 10.5-1.5 10.5v9.5 9.5-1.5-1.5l1-.5 1-.5.5.5.5.5.5-.5.5-.5v-1-1-1.5-1.5l-.5-.5-.5-.5v-1-1l.5-.5.5-.5v-1.5-1.5l-.5-.5-.5-.5-.5-.5-.5-.5-.5-.5-.5-.5.5-1 .5-1v-1-1-1-1-1-1-1-1l.5-.5.5-.5.5-1.5.5-1.5" />
        </g>
        <path d="m756 247l-7-25-2-9.5-2-9.5h-4-4l-.5 9.5-.5 9.5 3 8 3 8-2.5 5-2.5 5h1.5 1.5 2 2 2.5 2.5 2 2 1.5 1.5v-.5-.5" style="fill:#3a3327;stroke:#3a3327" />
        <path d="m753 177l-9-13-6-1.5-6-1.5-8.5-4.5-8.5-4.5-8 1.5-8 1.5 4.5 7 4.5 7 4 3 4 3-5.5-5.5-5.5-5.5 1-5.5 1-5.5 16 7.5 16 7.5.5 1 .5 1 1 1.5 1 1.5-.5 1.5-.5 1.5-1 .5-1 .5-1.5 1-1.5 1h-2-2l-2-.5-2-.5-1.5-1-1.5-1h-2.5-2.5l.5 1 .5 1 1.5.5 1.5.5 1 1 1 1h2 2l2 .5 2 .5 1.5-.5 1.5-.5 2-.5 2-.5 1-1 1-1 1.5-1 1.5-1 1.5.5 1.5.5h2 2" style="fill:#342419;stroke:#342419" />
        <path d="m741 176l1-3-1-1.5-1-1.5-.5-1-.5-1h-.5-.5l-1.5.5-1.5.5-1.5 1-1.5 1-1 1-1 1-1 1.5-1 1.5h-1.5-1.5l1.5 1 1.5 1 2 .5 2 .5h2 2l1.5-1 1.5-1 1-.5 1-.5" style="fill:#331a0e;stroke:#331a0e" />
        <path d="m738 168h1l-16-7.5-16-7.5-1 5.5-1 5.5 5.5 5.5 5.5 5.5.5 1 .5 1 1.5.5 1.5.5h.5.5l-.5-1-.5-1h2.5 2.5 1.5 1.5l1-1.5 1-1.5 1-1 1-1 1.5-1 1.5-1 1.5-.5 1.5-.5" style="fill:#1d1206;stroke:#1d1206" />
        <path d="m731 158h1l-1-.5-1-.5h-1-1l-2-.5-2-.5-.5-1.5-.5-1.5-1.5-1-1.5-1-.5-1.5-.5-1.5h-1.5-1.5l.5 1 .5 1 1 .5 1 .5.5.5.5.5.5.5.5.5.5.5.5.5.5 1 .5 1 .5.5.5.5.5.5.5.5h1 1 2 2" style="fill:#4f382a;stroke:#4f382a" />
        <path d="m678 248h1l-1-11.5-1-11.5-.5-11-.5-11-1-10-1-10-1.5-11-1.5-11-.5-11.5-.5-11.5-.5-11.5-.5-11.5-1.5-11-1.5-11v-12-12l-1-11.5-1-11.5-.5-10.5-.5-10.5-1-12.5-1-12.5h-1-1l.5 11 .5 11 1 12 1 12 1 12.5 1 12.5.5 12.5.5 12.5 1 12.5 1 12.5 1 12.5 1 12.5.5 12.5.5 12.5 1 12.5 1 12.5 1 10.5 1 10.5 1.5 15.5 1.5 15.5h.5.5" style="fill:#3a3327;stroke:#3a3327" />
        <path d="m676 248h1l-1.5-15.5-1.5-15.5-1-10.5-1-10.5-1-12.5-1-12.5-.5-12.5-.5-12.5-1-12.5-1-12.5-1-12.5-1-12.5-.5-12.5-.5-12.5-1-12.5-1-12.5-1-12-1-12-.5-11-.5-11h-.5-.5l-.5 11-.5 11 1.5 12 1.5 12 .5 12 .5 12 .5 12.5.5 12.5 1 12.5 1 12.5 1 12.5 1 12.5 1 12 1 12 1 12.5 1 12.5.5 12 .5 12 2 15 2 15h.5.5" style="fill:#241f1d;stroke:#241f1d" />
        <path d="m674 248h1l-2-15-2-15-.5-12-.5-12-1-12.5-1-12.5-1-12-1-12-1-12.5-1-12.5-1-12.5-1-12.5-.5-12.5-.5-12.5-.5-12-.5-12-1.5-12-1.5-12 .5-11 .5-11h-12.5-12.5-13.5-13.5-13.5-13.5-7.5-7.5v9.5 9.5l6-5.5 6-5.5 5.5 8 5.5 8 8 4.5 8 4.5 1 .5 1 .5 1 1 1 1 1 1 1 1-1.5-5.5-1.5-5.5 8.5-1 8.5-1 4 9 4 9 1 9 1 9-.5 10-.5 10 .5 12 .5 12v11 11l.5 9.5.5 9.5-1 10.5-1 10.5.5 12 .5 12 .5 10.5.5 10.5-1 12-1 12-6 2.5-6 2.5v-10-10l-4.5 6-4.5 6-1.5 7.5-1.5 7.5h12.5 12.5 13.5 13.5 7 7" style="fill:#1d1206;stroke:#1d1206" />
        <path d="m634 212l-1-21-.5-12-.5-12 1-10.5 1-10.5-.5-9.5-.5-9.5v-11-11l-.5-12-.5-12 .5-10 .5-10-1-9-1-9-4-9-4-9-8.5 1-8.5 1 1.5 5.5 1.5 5.5 1.5 1 1.5 1 1 1 1 1 1.5.5 1.5.5 1.5 1 1.5 1 .5 1.5.5 1.5.5 2 .5 2 .5 1.5.5 1.5.5 2 .5 2 .5 1.5.5 1.5-.5 1.5-.5 1.5v2 2l-1.5 1-1.5 1-1 1-1 1-1 1.5-1 1.5-1 1.5-1 1.5 2 7.5 2 7.5 1 10 1 10 2 18 2 18-1 11.5-1 11.5-4.5 7.5-4.5 7.5-6.5-5.5-6.5-5.5-3.5-5-3.5-5h-7-7l-5 1.5-5 1.5 7 4 7 4-7 5.5-7 5.5v10 10l2.5 9 2.5 9 12.5 10.5 12.5 10.5h2 2 2 2l1.5-7.5 1.5-7.5 4.5-6 4.5-6v10 10l6-2.5 6-2.5 1-12 1-12" style="fill:#331a0e;stroke:#331a0e" />
        <path d="m625 150l-4-36-1-10-1-10-2-7.5-2-7.5-1 .5-1 .5h-1.5-1.5l-.5.5-.5.5-.5-1-.5-1-1-1-1-1-.5-1.5-.5-1.5-1.5 1-1.5 1h-1.5-1.5l-1.5-.5-1.5-.5-1-1-1-1-.5-2.5-.5-2.5h-.5-.5l-2 9.5-2 9.5v11 11l-5 8.5-5 8.5-3 8-3 8-4.5 9-4.5 9-1.5 7-1.5 7 1.5 7.5 1.5 7.5-3 9.5-3 9.5-7-5-7-5-2 5.5-2 5.5-3 19.5-3 19.5h12.5 12.5 13 13 8 8l-12.5-10.5-12.5-10.5-2.5-9-2.5-9v-10-10l7-5.5 7-5.5-7-4-7-4 5-1.5 5-1.5h7 7l3.5 5 3.5 5 6.5 5.5 6.5 5.5 4.5-7.5 4.5-7.5 1-11.5 1-11.5" style="fill:#1d1206;stroke:#1d1206" />
        <path d="m624 65l1-3-.5-1.5-.5-1.5-.5-2-.5-2-.5-1.5-.5-1.5-.5-2-.5-2-.5-1.5-.5-1.5-1.5-1-1.5-1-1.5-.5-1.5-.5-1-1-1-1-1.5-1-1.5-1-1-1-1-1-1-1-1-1-1-.5-1-.5h-.5-.5l-12-1.5-12-1.5-10 2.5-10 2.5-4 9.5-4 9.5-3 10-3 10-4.5 9-4.5 9-5.5 12.5-5.5 12.5-.5 2.5-.5 2.5-.5 1-.5 1-.5 1.5-.5 1.5-5.5 8-5.5 8-8.5 10.5-8.5 10.5v.5.5l-.5 1-.5 1-1 .5-1 .5-1.5 1.5-1.5 1.5 1.5-.5 1.5-.5 1-.5 1-.5 1-.5 1-.5 1-.5 1-.5 1-2 1-2 .5-.5.5-.5.5-1 .5-1 1-.5 1-.5.5-.5.5-.5v-1-1l.5-.5.5-.5 1-.5 1-.5.5-.5.5-.5.5-.5.5-.5v-1-1l1-.5 1-.5.5-.5.5-.5.5-.5.5-.5 1-.5 1-.5 1.5-1.5 1.5-1.5 1-1 1-1 1.5-1 1.5-1 .5-1.5.5-1.5 1-1.5 1-1.5.5-2 .5-2 1.5-7.5 1.5-7.5 5.5-11.5 5.5-11.5-.5 2-.5 2-.5.5-.5.5-.5 1-.5 1-.5 2-.5 2 1-.5 1-.5v-1-1l.5-.5.5-.5.5-.5.5-.5v-1.5-1.5l.5-.5.5-.5.5-.5.5-.5v-1-1l.5-1 .5-1 .5-.5.5-.5v-1-1l.5-.5.5-.5.5-1 .5-1 .5-2.5.5-2.5v-2-2l3.5-10 3.5-10 6-9.5 6-9.5v.5.5h1 1l11.5 1 11.5 1 9 3 9 3 5 10.5 5 10.5-5 .5-5 .5-4.5-1.5-4.5-1.5-2.5-4.5-2.5-4.5h-.5-.5l-2-.5-2-.5h-1-1l-1 .5-1 .5h-2.5-2.5l2 .5 2 .5 1 .5 1 .5h-2-2-1-1l-.5-.5-.5-.5-1 .5-1 .5-.5.5-.5.5-.5.5-.5.5v1 1 1.5 1.5 1 1 1 1l-.5.5-.5.5v1.5 1.5l-.5.5-.5.5v-1-1-2-2l-.5 1-.5 1v1 1l-.5 1-.5 1-.5 1-.5 1v1 1l-.5 1-.5 1v2 2 1 1l-.5 1-.5 1-.5 2.5-.5 2.5v1.5 1.5 1.5 1.5l.5 1 .5 1-.5 1.5-.5 1.5-2.5 10-2.5 10-4 9.5-4 9.5-.5 1-.5 1-5 8.5-5 8.5-5 8-5 8-8 10.5-8 10.5-1.5 1-1.5 1 .5 1 .5 1 1-.5 1-.5 1-.5 1-.5 5.5-7.5 5.5-7.5 5.5-8 5.5-8 4.5-8.5 4.5-8.5 5-8.5 5-8.5 3.5-10 3.5-10 2.5-10.5 2.5-10.5 2-11.5 2-11.5 8-.5 8-.5.5 2.5.5 2.5 1 1 1 1 1.5.5 1.5.5 1.5-.5 1.5-.5 1-1.5 1-1.5v-2-2l1 .5 1 .5.5 1.5.5 1.5v2.5 2.5l1.5 1.5 1.5 1.5h1.5 1.5l1-.5 1-.5 1-1.5 1-1.5 1-1.5 1-1.5 1-1 1-1 1.5-1 1.5-1v-2-2" style="fill:#4d483b;stroke:#4d483b" />
        <path d="m619 64l-10-21-9-3-9-3-11.5-1-11.5-1-.5 1.5-.5 1.5.5.5.5.5-.5 1.5-.5 1.5-3 7.5-3 7.5-2.5 10-2.5 10-4.5 7.5-4.5 7.5-5.5 7-5.5 7 1.5 3.5 1.5 3.5-4.5 4-4.5 4-4 9-4 9 5.5-2 5.5-2 5-7 5-7 6.5-5.5 6.5-5.5 6-10 6-10 .5-2.5.5-2.5.5-1 .5-1v-1-1-2-2l.5-1 .5-1v-1-1l.5-1 .5-1 2-11 2-11 9.5 2 9.5 2 2.5 4.5 2.5 4.5 4.5 1.5 4.5 1.5 5-.5 5-.5" style="fill:#d4d0c4;stroke:#d4d0c4" />
        <path d="m616 64l1-3v-2-2l-1-1.5-1-1.5-1-1-1-1-2-.5-2-.5-.5 1.5-.5 1.5 1 1 1 1 1-1.5 1-1.5 1 1 1 1 .5.5.5.5.5 1 .5 1-.5 2-.5 2-1-1-1-1-1-1-1-1-.5-1-.5-1 .5 2.5.5 2.5 1 1.5 1 1.5h1.5 1.5" style="fill:#bcb7ab;stroke:#bcb7ab" />
        <path d="m615 62l1-4-.5-1-.5-1-.5-.5-.5-.5-1-1-1-1-1 1.5-1 1.5.5 1 .5 1 1 1 1 1 1 1 1 1" style="fill:#9b968a;stroke:#9b968a" />
        <g style="fill:#331a0e;stroke:#331a0e">
            <path d="m614 92l1-3-1-1-1-1h-1.5-1.5l-1 1-1 1 .5 2 .5 2v2 2h1.5 1.5l.5-1.5.5-1.5.5-1 .5-1" />
            <path d="m609 81l1-1-1.5-1.5-1.5-1.5v-2.5-2.5l-.5-1.5-.5-1.5-1-.5-1-.5v2 2l-1 1.5-1 1.5-1.5.5-1.5.5h1.5 1.5l1.5-1 1.5-1 .5 1.5.5 1.5 1 1 1 1 .5 1 .5 1" />
            <path d="m602 33h1l-8-4.5-8-4.5-5.5-8-5.5-8-6 5.5-6 5.5v-9.5-9.5h-12.5-12.5-13.5-13.5-13.5-13.5-2.5-2.5v1.5 1.5l.5.5.5.5 1 .5 1 .5 1 1 1 1 .5.5.5.5.5 1 .5 1-.5 2-.5 2-2.5 9-2.5 9-5.5 7.5-5.5 7.5-5 7-5 7-3.5 8-3.5 8-5 5.5-5 5.5-5.5 9.5-5.5 9.5 1.5-.5 1.5-.5h2.5 2.5l-1-1-1-1 1-1.5 1-1.5.5-1.5.5-1.5 1.5 1 1.5 1 1 1 1 1v1 1 .5.5l6.5-5.5 6.5-5.5 7-2 7-2 4.5-7 4.5-7-1-8-1-8 3-9.5 3-9.5 4-8 4-8 7.5 5 7.5 5 5.5 7.5 5.5 7.5-2 10-2 10-1 9.5-1 9.5 5 14 5 14 5.5-12.5 5.5-12.5 4.5-9 4.5-9 3-10 3-10 4-9.5 4-9.5 10-2.5 10-2.5 12 1.5 12 1.5" />
            <path d="m600 21l1-3-1-1-1-1-2-.5-2-.5-.5 1.5-.5 1.5.5 2 .5 2-.5 1.5-.5 1.5h2.5 2.5l.5-1.5.5-1.5v-.5-.5" />
        </g>
        <path d="m594 53h1l-9.5-2-9.5-2-2 11-2 11 .5-1 .5-1v-1-1l.5-1 .5-1v-2-2-2.5-2.5l.5-1.5.5-1.5 1.5-.5 1.5-.5 1.5.5 1.5.5h2.5 2.5l1-.5 1-.5h1 1l2 .5 2 .5" style="fill:#bcb7ab;stroke:#bcb7ab" />
        <path d="m592 68h1l-8 .5-8 .5-2 11.5-2 11.5-2.5 10.5-2.5 10.5-3.5 10-3.5 10-5 8.5-5 8.5-4.5 8.5-4.5 8.5-5.5 8-5.5 8-5.5 7.5-5.5 7.5 2.5 11 2.5 11 1 13.5 1 13.5v.5.5h1.5 1.5 1.5 1.5l3-19.5 3-19.5 2-5.5 2-5.5 7 5 7 5 3-9.5 3-9.5-1.5-7.5-1.5-7.5 1.5-7 1.5-7 4.5-9 4.5-9 3-8 3-8 5-8.5 5-8.5v-11-11l2-9.5 2-9.5" style="fill:#331a0e;stroke:#331a0e" />
        <path d="m587 55l-2-1-2-.5-2-.5-1.5-.5-1.5-.5-1.5.5-1.5.5-.5 1.5-.5 1.5v2.5 2.5 2 2 2 2 1 1l.5-.5.5-.5v-1.5-1.5l.5-.5.5-.5v-1-1-1-1-1.5-1.5-1-1l.5-.5.5-.5.5-.5.5-.5 1-.5 1-.5.5.5.5.5h1 1 2 2" style="fill:#7b756b;stroke:#7b756b" />
        <g style="fill:#1d1206;stroke:#1d1206">
            <path d="m587 28l-19-3 9 1.5 9 1.5h.5.5" />
            <path d="m568 136v-2l-.5-1.5-.5-1.5v-1.5-1.5h-1-1l-.5 2-.5 2-.5 1.5-.5 1.5-.5 2-.5 2 .5 1.5.5 1.5 1.5-.5 1.5-.5v-1.5-1.5l1-1 1-1" />
        </g>
        <path d="m568 101l1-3-.5-1-.5-1h-.5-.5l-.5 2-.5 2v2 2l-.5 2-.5 2-.5 1.5-.5 1.5-1 1.5-1 1.5v2 2l-.5 1-.5 1-.5 2.5-.5 2.5-.5 1.5-.5 1.5-1 1.5-1 1.5v2 2l-1 2.5-1 2.5 4-9.5 4-9.5 2.5-10 2.5-10" style="fill:#7b756b;stroke:#7b756b" />
        <g style="fill:#bcb7ab;stroke:#bcb7ab">
            <path d="m567 96h1v-1.5-1.5-1.5-1.5l-6 10-6 10-6.5 5.5-6.5 5.5-5 7-5 7-5.5 2-5.5 2-1.5 1-1.5 1-1 1-1 1-1.5 1.5-1.5 1.5-.5 1-.5 1-1 1-1 1-1 1-1 1-1 1-1 1-.5.5-.5.5-.5 1-.5 1-.5 1.5-.5 1.5h-1-1l-1.5 1-1.5 1-.5.5-.5.5 5.5 8 5.5 8 3.5 7.5 3.5 7.5 9-12 9-12 .5-1 .5-1 .5-1 .5-1 .5-1.5.5-1.5.5-.5.5-.5.5-1 .5-1 1.5-1 1.5-1-1.5-9.5-1.5-9.5 7 1 7 1 .5-1.5.5-1.5.5-2 .5-2v-2-2l.5-2 .5-2 1-1 1-1 1-1.5 1-1.5 1-1.5 1-1.5v-2-2l1-1.5 1-1.5.5-1.5.5-1.5.5-2 .5-2v-2-2l.5-2 .5-2" />
            <path d="m567 42l1-3-.5-.5-.5-.5.5-1.5.5-1.5h-1-1l-1 1-1 1-.5 1-.5 1-3.5 9-3.5 9-4.5 10-4.5 10-.5 2.5-.5 2.5-.5 1-.5 1-.5.5-.5.5v1 1l-.5.5-.5.5-.5 1-.5 1v1 1l-.5.5-.5.5-.5.5-.5.5v1.5 1.5l-.5.5-.5.5-.5.5-.5.5v1 1l-1 .5-1 .5-.5 1-.5 1-.5 1-.5 1v1 1l-.5.5-.5.5v1 1l-.5 1-.5 1-.5.5-.5.5v1 1l-.5.5-.5.5-.5 1-.5 1v1 1l-.5.5-.5.5v1 1l-.5 1-.5 1-.5 1.5-.5 1.5-.5 2-.5 2-1 1.5-1 1.5-.5 1.5-.5 1.5 4-9 4-9 4.5-4 4.5-4-1.5-3.5-1.5-3.5 5.5-7 5.5-7 4.5-7.5 4.5-7.5 2.5-10 2.5-10 3-7.5 3-7.5" />
        </g>
        <path d="m566 34l-12 19-3.5 10-3.5 10v2 2l3-9.5 3-9.5 5.5-10.5 5.5-10.5 1-1 1-1v-.5-.5" style="fill:#7b756b;stroke:#7b756b" />
        <g style="fill:#9b968a;stroke:#9b968a">
            <path d="m563 39l1-2-5.5 10.5-5.5 10.5-3 9.5-3 9.5 4.5-10 4.5-10 3.5-9 3.5-9" />
            <path d="m561 120l1-2-1 1.5-1 1.5-1 1.5-1 1.5-1 1-1 1-.5 2-.5 2v2 2l-.5 2-.5 2-.5 1.5-.5 1.5 1-.5 1-.5 1-2.5 1-2.5v-2-2l1-1.5 1-1.5.5-1.5.5-1.5.5-2.5.5-2.5" />
        </g>
        <path d="m554 142l1-2-1 .5-1 .5-.5 1-.5 1-1 1-1 1-.5.5-.5.5-.5.5-.5.5-1 .5-1 .5v1 1l-.5.5-.5.5v1 1l-.5.5-.5.5-.5 1-.5 1-.5 1-.5 1-1.5 1-1.5 1-.5 1-.5 1-.5.5-.5.5-.5 1.5-.5 1.5-.5 1-.5 1-.5 1-.5 1-.5 1-.5 1-.5 1-.5 1-.5.5-.5.5-.5 1-.5 1-.5 1.5-.5 1.5-.5.5-.5.5-.5.5-.5.5-.5.5-.5.5-.5 1-.5 1-1 1-1 1-.5.5-.5.5-.5 1-.5 1-.5 1.5-.5 1.5-.5.5-.5.5-.5 1-.5 1 8-10.5 8-10.5 5-8 5-8 5-8.5 5-8.5" style="fill:#7b756b;stroke:#7b756b" />
        <path d="m552 143l1-2-7-1-7-1 1.5 9.5 1.5 9.5.5-1 .5-1 .5-1 .5-1 .5-.5.5-.5v-1-1l.5-.5.5-.5v-1-1l1-.5 1-.5.5-.5.5-.5.5-.5.5-.5 1-1 1-1" style="fill:#9b968a;stroke:#9b968a" />
        <path d="m540 91l-11 23-1.5 7.5-1.5 7.5.5-1.5.5-1.5.5-1 .5-1v-1-1l.5-.5.5-.5v-1-1l.5-1 .5-1 .5-.5.5-.5v-1-1l.5-.5.5-.5.5-1 .5-1v-1-1l.5-.5.5-.5v-1-1l.5-1 .5-1 .5-1 .5-1 .5-2 .5-2 .5-1 .5-1 .5-.5.5-.5.5-2 .5-2" style="fill:#7b756b;stroke:#7b756b" />
        <path d="m533 172l1-2-9 12-9 12-3.5-7.5-3.5-7.5-5.5-8-5.5-8-1 2-1 2 9.5 15.5 9.5 15.5 1.5-1 1.5-1 .5-1 .5-1 .5-.5.5-.5.5-1.5.5-1.5.5-1 .5-1 .5-.5.5-.5 1-1 1-1 .5-1 .5-1 .5-.5.5-.5.5-.5.5-.5.5-.5.5-.5.5-1.5.5-1.5.5-1 .5-1 .5-.5.5-.5.5-1 .5-1" style="fill:#9b968a;stroke:#9b968a" />
        <path d="m532 203l1-3-1.5.5-1.5.5-1.5 1-1.5 1v2 2l1.5 1 1.5 1 .5-1.5.5-1.5.5-1.5.5-1.5" style="fill:#1d1206;stroke:#1d1206" />
        <path d="m527 247l-2-27-2.5-11-2.5-11-1 .5-1 .5 1.5 11 1.5 11 1.5 13.5 1.5 13.5h1.5 1.5v-.5-.5" style="fill:#571701;stroke:#571701" />
        <path d="m525 154l-11 9 5.5-4 5.5-4v-.5-.5" style="fill:#d4d0c4;stroke:#d4d0c4" />
        <path d="m523 248h1l-1.5-13.5-1.5-13.5-1.5-11-1.5-11-1 .5-1 .5 1.5 11 1.5 11 1.5 13 1.5 13h.5.5" style="fill:#7a1e00;stroke:#7a1e00" />
        <path d="m523 122l1-5-5-14-5-14 1-9.5 1-9.5 2-10 2-10-5.5-7.5-5.5-7.5-7.5-5-7.5-5-4 8-4 8-3 9.5-3 9.5 1 8 1 8-4.5 7-4.5 7-7 2-7 2-6.5 5.5-6.5 5.5h-1.5-1.5l-1.5.5-1.5.5h-2.5-2.5l-1.5.5-1.5.5-1 .5-1 .5-.5.5-.5.5-1 .5-1 .5h-1-1l-.5.5-.5.5h-1-1-1.5-1.5l-2.5-.5-2.5-.5-.5.5-.5.5-2 1.5-2 1.5-1.5.5-1.5.5h-2-2l-2 .5-2 .5-1.5 1-1.5 1-1.5.5-1.5.5-1 1-1 1-1 1.5-1 1.5-1.5.5-1.5.5-.5 1.5-.5 1.5-.5 1-.5 1-.5 1-.5 1-1 1-1 1-1 1-1 1-.5 1.5-.5 1.5-.5.5-.5.5-.5 1-.5 1-1 1-1 1-1.5 1-1.5 1-.5 1.5-.5 1.5-1.5 1-1.5 1-1 2-1 2-.5 1-.5 1-.5 1-.5 1-1 1-1 1-.5 1.5-.5 1.5v1 1l-1 1-1 1v2 2l.5 2 .5 2 .5 2.5.5 2.5 3.5 9 3.5 9 7 6 7 6 .5-.5.5-.5 1-1 1-1v-1-1l.5-.5.5-.5.5-.5.5-.5v-1.5-1.5-1-1-1-1l-.5-.5-.5-.5 1-.5 1-.5v-1-1h1.5 1.5l8-1 8-1 8-4 8-4 5.5 5 5.5 5 8-3 8-3 6.5-5 6.5-5 6.5-4.5 6.5-4.5 4.5-6.5 4.5-6.5 1.5-8 1.5-8 7.5.5 7.5.5 10.5-8 10.5-8 .5-1 .5-1" style="fill:#1d1206;stroke:#1d1206" />
        <path d="m521 248h1l-1.5-13-1.5-13-1.5-11-1.5-11h-.5-.5v.5.5l1 10.5 1 10.5 2 13 2 13" style="fill:#9c2c00;stroke:#9c2c00" />
        <path d="m521 127l1-3-10.5 8-10.5 8-7.5-.5-7.5-.5-1.5 8-1.5 8-4.5 6.5-4.5 6.5-6.5 4.5-6.5 4.5-6.5 5-6.5 5-8 3-8 3-5.5-5-5.5-5-8 4-8 4-8 1-8 1v.5.5l2.5.5 2.5.5 1-.5 1-.5h1.5 1.5 2 2 1 1l1 .5 1 .5 1.5.5 1.5.5 1 .5 1 .5 1 .5 1 .5h2 2l2.5 1 2.5 1 11.5-3 11.5-3 7.5-5.5 7.5-5.5 16-9.5 16-9.5 8.5-10.5 8.5-10.5 5.5-8 5.5-8" style="fill:#331a0e;stroke:#331a0e" />
        <path d="m520 248h1l-2-13-2-13-1-10.5-1-10.5-1 .5-1 .5 1.5 11 1.5 11 1.5 12 1.5 12h.5.5" style="fill:#ba3400;stroke:#ba3400" />
        <path d="m518 248h1l-1.5-12-1.5-12-1.5-11-1.5-11-5-8-5-8-3.5-7-3.5-7h-.5-.5l-9.5 3.5-9.5 3.5-6 6-6 6-8 4.5-8 4.5-4 3-4 3-14.5 5.5-14.5 5.5v2.5 2.5l.5.5.5.5.5.5.5.5v1 1l.5.5.5.5 1 .5 1 .5v1 1l.5.5.5.5-.5 1.5-.5 1.5v1.5 1.5l-.5 1.5-.5 1.5-.5.5-.5.5-.5 1-.5 1v2.5 2.5h2 2 2 2l2.5-10 2.5-10 6-7 6-7 5.5-3 5.5-3 10 1.5 10 1.5-1 1-1 1v2 2l-.5 2-.5 2-.5 1.5-.5 1.5-.5 2-.5 2-.5 1.5-.5 1.5v2.5 2.5l.5 1.5.5 1.5v2 2l.5 2.5.5 2.5h13 13 13.5 13.5" style="fill:#dc3a03;stroke:#dc3a03" />
        <path d="m515 200h1l-.5-1-.5-1-9.5-15.5-9.5-15.5-1 .5-1 .5v1.5 1.5l1 .5 1 .5 3.5 7 3.5 7 5 8 5 8 1-.5 1-.5v-.5-.5" style="fill:#da3d24;stroke:#da3d24" />
        <path d="m513 148l1-2-1 .5-1 .5-.5.5-.5.5-.5.5-.5.5-1 .5-1 .5v1 1l-.5.5-.5.5-.5.5-.5.5-1 .5-1 .5-.5.5-.5.5v1 1l-.5.5-.5.5-1 .5-1 .5-.5 1-.5 1 1.5-1 1.5-1h1 1l.5-1.5.5-1.5.5-1 .5-1 .5-.5.5-.5 1-1 1-1 1-1 1-1 1-1 1-1" style="fill:#9b968a;stroke:#9b968a" />
        <path d="m495 172h1l-1-.5-1-.5v-1.5-1.5l-1 .5-1 .5-1 .5-1 .5-1.5.5-1.5.5-.5 1-.5 1h-1-1l-.5.5-.5.5-.5.5-.5.5-1 .5-1 .5h-1-1-1-1l-1 .5-1 .5-.5.5-.5.5-.5 2-.5 2-1.5 1-1.5 1-1 1-1 1-1.5 1-1.5 1-1 1-1 1-1.5 1-1.5 1-1 1-1 1-1.5.5-1.5.5-.5 1-.5 1-8.5 4-8.5 4-14 6.5-14 6.5 1-.5 1-.5h.5.5l14.5-5.5 14.5-5.5 4-3 4-3 8-4.5 8-4.5 6-6 6-6 9.5-3.5 9.5-3.5" style="fill:#ba3400;stroke:#ba3400" />
        <path d="m492 167l1-2h-.5-.5l-8 4.5-8 4.5-6.5 5.5-6.5 5.5-7.5 5-7.5 5-12.5 4-12.5 4v.5.5l1 .5 1 .5h1.5 1.5 2 2l.5-.5.5-.5h1 1l.5-.5.5-.5 1-.5 1-.5.5-.5.5-.5h1 1l.5-.5.5-.5 1-.5 1-.5.5-.5.5-.5h1 1l.5-.5.5-.5 1-.5 1-.5 2-.5 2-.5 1-1.5 1-1.5 1.5-.5 1.5-.5 1.5-1 1.5-1 1-1 1-1 1-1.5 1-1.5 1-1 1-1 1-1.5 1-1.5 2-1 2-1 1-.5 1-.5h1 1 1 1l1-.5 1-.5.5-.5.5-.5.5-.5.5-.5h1 1l.5-1 .5-1 1.5-1.5 1.5-1.5 1-.5 1-.5" style="fill:#7a1e00;stroke:#7a1e00" />
        <path d="m492 165h1v-.5-.5l-16 9.5-16 9.5-7.5 5.5-7.5 5.5-11.5 3-11.5 3v1.5 1.5l12.5-4 12.5-4 7.5-5 7.5-5 6.5-5.5 6.5-5.5 8-4.5 8-4.5" style="fill:#571701;stroke:#571701" />
        <path d="m492 149l1-3-1.5-.5-1.5-.5-1 1.5-1 1.5.5 1.5.5 1.5 1.5-1 1.5-1" style="fill:#1d1206;stroke:#1d1206" />
        <path d="m486 14l1-4-.5-1-.5-1-.5-.5-.5-.5-1-1-1-1-1-.5-1-.5-.5-.5-.5-.5v-1.5-1.5h-2-2-2.5-2.5-1-1l.5 10.5.5 10.5.5 8.5.5 8.5-6.5 4.5-6.5 4.5-9 4.5-9 4.5-7.5 3.5-7.5 3.5-4 7.5-4 7.5-7-4-7-4-2-8.5-2-8.5v7.5 7.5l-14-3.5-14-3.5-2.5 1.5-2.5 1.5 7 4 7 4-.5.5-.5.5 6.5.5 6.5.5 5.5 5.5 5.5 5.5h1.5 1.5 2 2l1 .5 1 .5v1 1l-1 .5-1 .5h-1-1l-.5.5-.5.5h-1-1l-.5.5-.5.5h-1-1v1.5 1.5l.5 1 .5 1 .5.5.5.5v1.5 1.5l-.5 1.5-.5 1.5-1 1.5-1 1.5 1.5.5 1.5.5v1 1l-8 .5-8 .5-2 5-2 5-13 11-13 11 .5 1 .5 1v1 1l-1-.5-1-.5-.5.5-.5.5.5 1 .5 1-.5.5-.5.5 1.5 1.5 1.5 1.5 1.5-.5 1.5-.5-1 1.5-1 1.5v1 1l-1 1.5-1 1.5-.5 1.5-.5 1.5-.5 2-.5 2 .5 1 .5 1 1-1 1-1v-1-1l.5-1.5.5-1.5 1-1 1-1 .5-1 .5-1 .5-1 .5-1 10-13.5 10-13.5.5-1.5.5-1.5 1.5-.5 1.5-.5 1-1.5 1-1.5 1-1 1-1 1.5-.5 1.5-.5 1.5-1 1.5-1 1-1 1-1 1.5-.5 1.5-.5 2-.5 2-.5 1-1 1-1h2.5 2.5l2.5.5 2.5.5h1.5 1.5 1 1l.5-.5.5-.5h1 1l1-.5 1-.5.5-.5.5-.5 1-.5 1-.5 5.5-9.5 5.5-9.5 5-5.5 5-5.5 3.5-8 3.5-8 5-7 5-7 5.5-7.5 5.5-7.5 2.5-9 2.5-9" style="fill:#342419;stroke:#342419" />
        <path d="m473 178l1-1-2 1-2 1-1 1.5-1 1.5-1 1-1 1-1 1.5-1 1.5-1 1-1 1-1.5 1-1.5 1-1.5.5-1.5.5-1 1.5-1 1.5 1.5-.5 1.5-.5 1-1 1-1 1.5-1 1.5-1 1-1 1-1 1.5-1 1.5-1 1-1 1-1 1.5-1 1.5-1 .5-2 .5-2" style="fill:#9c2c00;stroke:#9c2c00" />
        <path d="m471 38l-1-17-.5-10.5-.5-10.5h-1.5-1.5-2.5-2.5-2-2-2.5-2.5-2-2-2-2-2.5-2.5-.5-.5l-.5 1-.5 1 .5.5.5.5 1-.5 1-.5.5.5.5.5.5.5.5.5v1 1l-.5 1-.5 1-.5.5-.5.5.5.5.5.5.5.5.5.5.5.5.5.5.5 1 .5 1 .5.5.5.5.5.5.5.5-.5 1.5-.5 1.5-1 .5-1 .5h-2-2l-2 1.5-2 1.5-.5 1-.5 1h-1.5-1.5l-1.5.5-1.5.5-1.5 1-1.5 1-1-1-1-1v-1.5-1.5l1.5.5 1.5.5h2 2l-1-1.5-1-1.5-1.5-.5-1.5-.5-2-.5-2-.5-1-1-1-1-1-1.5-1-1.5-1-1-1-1-.5-1.5-.5-1.5-.5-2-.5-2v-2.5-2.5h-13.5-13.5-13-13-10.5-10.5v13 13 17 17h2.5 2.5 2 2 1 1 1.5 1.5l1 .5 1 .5h2.5 2.5 2.5 2.5l1.5-.5 1.5-.5 1.5.5 1.5.5 14 3.5 14 3.5v-7.5-7.5l2 8.5 2 8.5 7 4 7 4 4-7.5 4-7.5 7.5-3.5 7.5-3.5 9-4.5 9-4.5 6.5-4.5 6.5-4.5" style="fill:#3a3327;stroke:#3a3327" />
        <path d="m469 211l-20-3-5.5 3-5.5 3-6 7-6 7-2.5 10-2.5 10h2 2 2.5 2.5 2 2 2.5 2.5 2 2 2.5 2.5v-2-2l.5-1.5.5-1.5 1-1.5 1-1.5.5-1.5.5-1.5.5-2 .5-2 .5-1.5.5-1.5h1.5 1.5l.5 1.5.5 1.5v1 1l-.5 1.5-.5 1.5v1.5 1.5 2 2 2.5 2.5h2.5 2.5 1.5 1.5l-.5-2.5-.5-2.5v-2-2l-.5-1.5-.5-1.5v-2.5-2.5l.5-1.5.5-1.5.5-2 .5-2 .5-1.5.5-1.5.5-2 .5-2v-2-2l1-1 1-1" style="fill:#da3d24;stroke:#da3d24" />
        <path d="m458 233v-2l-.5-1.5-.5-1.5h-1.5-1.5l-.5 1.5-.5 1.5-.5 2-.5 2-.5 1.5-.5 1.5-1 1.5-1 1.5-.5 1.5-.5 1.5v2 2h2.5 2.5 2 2v-2.5-2.5-2-2-1.5-1.5l.5-1.5.5-1.5" style="fill:#dc3a03;stroke:#dc3a03" />
        <path d="m453 197l1-2-2 .5-2 .5-1 .5-1 .5-.5.5-.5.5h-1-1l-.5.5-.5.5-1 .5-1 .5-.5.5-.5.5h-1-1l-.5.5-.5.5-1 .5-1 .5-.5.5-.5.5h-1-1l-.5.5-.5.5h-2-2-1.5-1.5l-1-.5-1-.5h-.5-.5l-.5 1-.5 1-1 1-1 1-.5.5-.5.5-.5.5-.5.5h-1-1l-1 .5-1 .5h-1-1l-.5.5-.5.5-.5.5-.5.5-1 .5-1 .5-.5.5-.5.5-1 .5-1 .5v1 1l-.5 1.5-.5 1.5-.5.5-.5.5-.5.5-.5.5-.5.5-.5.5-.5 1-.5 1-.5.5-.5.5-.5.5-.5.5-.5.5-.5.5-.5 1-.5 1-.5 1.5-.5 1.5-.5.5-.5.5v1 1l-.5.5-.5.5-1 .5-1 .5-.5.5-.5.5-.5.5-.5.5v1 1h-1.5-1.5l-.5 1.5-.5 1.5-.5 1-.5 1h2 2l1-1 1-1 .5-1 .5-1 1-1 1-1 1-1 1-1v-1-1l.5-1 .5-1 1-1 1-1 .5-.5.5-.5v-1.5-1.5l1-1 1-1v-1-1l1.5-1 1.5-1 1.5-1.5 1.5-1.5 1-1.5 1-1.5 14-6.5 14-6.5 8.5-4 8.5-4" style="fill:#9c2c00;stroke:#9c2c00" />
        <path d="m446 104v-2l-1-1-1-1-1.5-1-1.5-1-.5 1.5-.5 1.5-1 1.5-1 1.5 1 1 1 1 1.5-.5 1.5-.5h1.5 1.5v-.5-.5" style="fill:#342419;stroke:#342419" />
        <path d="m445 19l1-3-.5-.5-.5-.5-.5-.5-.5-.5-.5-1-.5-1-.5-.5-.5-.5-.5-.5-.5-.5-.5-.5-.5-.5.5-.5.5-.5.5-1 .5-1v-1-1l-.5-.5-.5-.5-.5-.5-.5-.5-1 .5-1 .5-.5-.5-.5-.5.5-1 .5-1h-1.5-1.5-2.5-2.5-2-2-2.5-2.5-2-2-2-2v2.5 2.5l.5 2 .5 2 .5 1.5.5 1.5 1 1 1 1 1 1.5 1 1.5 1 1 1 1 2 .5 2 .5 1.5.5 1.5.5 1 1.5 1 1.5 2.5-.5 2.5-.5 2-1.5 2-1.5h2 2l1-.5 1-.5" style="fill:#4d483b;stroke:#4d483b" />
        <path d="m434 25l1-2-2.5.5-2.5.5h-2-2l-1.5-.5-1.5-.5v1.5 1.5l1 1 1 1 1.5-1 1.5-1 1.5-.5 1.5-.5h1.5 1.5" style="fill:#4f382a;stroke:#4f382a" />
        <g style="fill:#3a3327;stroke:#3a3327">
            <path d="m428 87v-2l-1-1-1-1-1.5-1-1.5-1-.5 1.5-.5 1.5v2.5 2.5l.5 1.5.5 1.5 1.5 1 1.5 1 .5-1.5.5-1.5.5-1.5.5-1.5v-.5-.5" />
            <path d="m422 204h1v-.5-.5-1.5-1.5l-2.5-1-2.5-1h-2-2l-1-.5-1-.5h-.5-.5l-1.5-.5-1.5-.5-2-.5-2-.5h-2-2l-1.5.5-1.5.5-1.5-.5-1.5-.5-2.5-.5-2.5-.5-.5.5-.5.5-.5 1-.5 1-.5 2-.5 2 .5 1.5.5 1.5 1.5-1.5 1.5-1.5 1-1 1-1 1.5-.5 1.5-.5 2-.5 2-.5h1 1l2 .5 2 .5h2 2l2 .5 2 .5 1 .5 1 .5 2 .5 2 .5 1.5 1.5 1.5 1.5" />
        </g>
        <path d="m421 206l1-2-1.5-1.5-1.5-1.5-2-.5-2-.5h-.5-.5l-11 .5-11 .5-8 7-8 7-1 .5-1 .5-1.5.5-1.5.5-1-1.5-1-1.5-.5-1.5-.5-1.5-.5 1.5-.5 1.5 13.5-6 13.5-6 1-.5 1-.5.5-.5.5-.5h1 1 1 1l1 .5 1 .5.5.5.5.5h1 1 1 1 1.5 1.5 1 1 1 1l.5.5.5.5v1 1l-1 1-1 1-.5.5-.5.5-2 1-2 1-1 1-1 1-1.5 1-1.5 1-1 1-1 1-1.5 1-1.5 1-1.5 1.5-1.5 1.5.5 1 .5 1 1-1 1-1 1-1 1-1 .5-.5.5-.5 1-1 1-1 1-.5 1-.5.5-.5.5-.5 1-.5 1-.5.5-.5.5-.5.5-.5.5-.5h1 1l1-.5 1-.5h1 1l.5-.5.5-.5.5-.5.5-.5 1-1 1-1" style="fill:#7b756b;stroke:#7b756b" />
        <path d="m416 234l1-3-.5-.5-.5-.5v-1-1l-1-.5-1-.5-.5-.5-.5-.5v-1-1l-.5-.5-.5-.5-.5-.5-.5-.5v-2.5-2.5h-.5-.5l-1 .5-1 .5-1 1.5-1 1.5-1.5 1.5-1.5 1.5-.5 1-.5 1-.5 1-.5 1v2 2l-.5.5-.5.5v1 1l-.5.5-.5.5-.5 1-.5 1-.5.5-.5.5v1 1 1 1l-.5 1-.5 1 .5 1.5.5 1.5h3 3 2.5 2.5 2 2 .5.5v-2.5-2.5l.5-1 .5-1 .5-.5.5-.5.5-1.5.5-1.5v-1.5-1.5" style="fill:#da3d24;stroke:#da3d24" />
        <path d="m416 205v-2l-.5-.5-.5-.5h-1-1-1-1-1.5-1.5-1-1-1-1l-.5-.5-.5-.5-1-.5-1-.5h-1-1-1-1l-.5.5-.5.5-1 .5-1 .5v2 2l1.5.5 1.5.5.5 1 .5 1-5.5 7.5-5.5 7.5-10-5-10-5h-.5-.5l-.5 2.5-.5 2.5-1-.5-1-.5-1.5-.5-1.5-.5-1.5-1-1.5-1 .5-1.5.5-1.5 2.5-.5 2.5-.5-1-.5-1-.5h-1-1l-1.5.5-1.5.5-.5 1-.5 1-.5 1.5-.5 1.5v1 1l.5 1 .5 1 .5 1.5.5 1.5.5.5.5.5.5 1 .5 1v2 2l.5.5.5.5v1.5 1.5 2 2l.5 1 .5 1 1 1.5 1 1.5 1.5.5 1.5.5 2 .5 2 .5 1.5.5 1.5.5.5 1 .5 1h1.5 1.5l.5-1 .5-1 1.5-1 1.5-1 1-1 1-1 1-1.5 1-1.5 1-1 1-1 1-2 1-2 .5-1.5.5-1.5.5-1.5.5-1.5 1-1.5 1-1.5 1-1 1-1 1-.5 1-.5.5-1 .5-1 .5-1 .5-1 .5-.5.5-.5.5-.5.5-.5.5-.5.5-.5v-1.5-1.5h1 1l.5-.5.5-.5.5-.5.5-.5h1.5 1.5l.5-.5.5-.5h1 1l1.5-.5 1.5-.5 1-1 1-1" style="fill:#bcb7ab;stroke:#bcb7ab" />
        <path d="m414 200h1l-1-.5-1-.5-2-.5-2-.5h-2-2l-2-.5-2-.5h-1-1l-2 .5-2 .5-1.5.5-1.5.5-1 1-1 1-1.5 1.5-1.5 1.5-.5 1-.5 1v1 1l-.5.5-.5.5-.5.5-.5.5-1 .5-1 .5-.5.5-.5.5-2.5 1.5-2.5 1.5 8-7 8-7 11-.5 11-.5" style="fill:#4d483b;stroke:#4d483b" />
        <path d="m413 208l1-1-1.5.5-1.5.5h-1-1l-.5.5-.5.5h-1.5-1.5l-.5.5-.5.5-.5.5-.5.5h-1-1v1.5 1.5l-.5.5-.5.5-.5.5-.5.5-.5.5-.5.5-.5 1-.5 1-.5 1-.5 1 1.5-1.5 1.5-1.5 1.5-1 1.5-1 1-1 1-1 1.5-1 1.5-1 1-1 1-1 2-1 2-1" style="fill:#9b968a;stroke:#9b968a" />
        <path d="m413 205v-2h-2-2-2.5-2.5l-1.5-.5-1.5-.5h-2.5-2.5l1 1 1 1 2 .5 2 .5h2 2l1 1 1 1 2-.5 2-.5.5-.5.5-.5" style="fill:#d4d0c4;stroke:#d4d0c4" />
        <path d="m413 111l1-1h-2.5-2.5l-1 1-1 1-2 .5-2 .5-1.5.5-1.5.5-1 1-1 1 2-.5 2-.5h2 2l1.5-.5 1.5-.5 2-1.5 2-1.5" style="fill:#331a0e;stroke:#331a0e" />
        <path d="m412 88v-2l-1-.5-1-.5h-2-2-1.5-1.5l-1 1-1 1-.5.5-.5.5.5.5.5.5.5 1 .5 1h1 1l.5-.5.5-.5h1 1l.5-.5.5-.5h1 1l1-.5 1-.5" style="fill:#241f1d;stroke:#241f1d" />
        <path d="m411 197h1l-1-.5-1-.5-1.5-.5-1.5-.5-1-.5-1-.5h-1-1-2-2-1.5-1.5l-1 .5-1 .5 1.5.5 1.5.5 1.5-.5 1.5-.5h2 2l2 .5 2 .5 1.5.5 1.5.5" style="fill:#342419;stroke:#342419" />
        <path d="m404 218v-2l-1 1-1 1-.5.5-.5.5-1 1-1 1-1 1-1 1-.5 1-.5 1-1 1.5-1 1.5-.5.5-.5.5-.5 1-.5 1-1 1.5-1 1.5-.5.5-.5.5-.5 1-.5 1-.5 1-.5 1-1 2-1 2h1.5 1.5v-1-1l.5-.5.5-.5.5-.5.5-.5 1-.5 1-.5.5-.5.5-.5v-1-1l.5-.5.5-.5.5-1.5.5-1.5.5-1 .5-1 .5-.5.5-.5.5-.5.5-.5.5-.5.5-.5.5-1 .5-1 .5-.5.5-.5.5-.5.5-.5.5-.5.5-.5.5-1.5.5-1.5" style="fill:#7a1e00;stroke:#7a1e00" />
        <path d="m404 109v-2l-1.5-.5-1.5-.5 1-1.5 1-1.5.5-1.5.5-1.5v-1.5-1.5l-.5-.5-.5-.5-.5-1-.5-1v-1.5-1.5l-.5-1-.5-1-.5-.5-.5-.5.5-.5.5-.5 1-1 1-1-5.5-5.5-5.5-5.5-6.5-.5-6.5-.5-1-.5-1-.5-1.5-.5-1.5-.5h-2-2l-1.5.5-1.5.5h-2.5-2.5l-1.5-.5-1.5-.5-1-.5-1-.5h-.5-.5-1.5-1.5l-.5.5-.5.5-.5.5-.5.5-1-.5-1-.5-.5-.5-.5-.5-.5-.5-.5-.5h-1-1-1.5-1.5v1 1l-.5.5-.5.5-.5.5-.5.5v1 1l-1 1-1 1v2 2l-.5 11.5-.5 11.5-.5 18.5-.5 18.5 2.5.5 2.5.5h2.5 2.5l1 1 1 1v1 1l-1 .5-1 .5-1 .5-1 .5-1 1-1 1h-2-2v1 1l-1-.5-1-.5h-1-1v1 1 1.5 1.5 1.5 1.5h.5.5l4.5 4 4.5 4 7.5 11.5 7.5 11.5v-2-2l-.5-.5-.5-.5-.5-1-.5-1v-2-2l-.5-.5-.5-.5-.5-1-.5-1 .5-1.5.5-1.5v-1-1l.5-1.5.5-1.5-.5-1-.5-1 .5-2 .5-2 .5-1.5.5-1.5 1-1.5 1-1.5v-1-1l1-1.5 1-1.5-1.5.5-1.5.5-1.5-1.5-1.5-1.5-1-1.5-1-1.5-.5-.5-.5-.5.5-.5.5-.5.5-.5.5-.5 1.5-.5 1.5-.5 13-11 13-11 2-5 2-5 8-.5 8-.5" style="fill:#3a3327;stroke:#3a3327" />
        <path d="m402 226l1-2-1.5 1-1.5 1v1 1l-1 1-1 1v1.5 1.5l-.5.5-.5.5-1 1-1 1-.5 1-.5 1v1 1l-1 1-1 1-1 1-1 1-.5 1-.5 1-1 1-1 1h2.5 2.5 2.5 2.5l-.5-1.5-.5-1.5.5-1 .5-1v-1-1-1-1l.5-.5.5-.5.5-1 .5-1 .5-.5.5-.5v-1-1l.5-.5.5-.5v-2-2l.5-1 .5-1" style="fill:#ba3400;stroke:#ba3400" />
        <g style="fill:#9b968a;stroke:#9b968a">
            <path d="m398 209l-1-2-1.5-.5-1.5-.5v-2-2l-13.5 6-13.5 6 10 5 10 5 5.5-7.5 5.5-7.5" />
            <path d="m396 225l1-2-.5-1-.5-1-1 .5-1 .5-1 1-1 1-1 1.5-1 1.5-.5 1.5-.5 1.5-.5 1.5-.5 1.5 1 .5 1 .5 1-1.5 1-1.5.5-1 .5-1 .5-.5.5-.5 1-1.5 1-1.5" />
        </g>
        <path d="m389 235l1-1-1-.5-1-.5-1 2-1 2-1 1-1 1-1 1.5-1 1.5-1 1-1 1-1.5 1-1.5 1-.5 1-.5 1h2.5 2.5 1 1l.5-1 .5-1 .5-1.5.5-1.5 1-2 1-2 .5-1 .5-1 .5-1 .5-1" style="fill:#7b756b;stroke:#7b756b" />
        <path d="m388 195l1-1v-.5-.5h-1.5-1.5v1 1l-1 .5-1 .5.5.5.5.5v1 1 1 1 1.5 1.5l-.5.5-.5.5-.5.5-.5.5v1 1l-1 1-1 1 .5.5.5.5 1-.5 1-.5.5-.5.5-.5.5-.5.5-.5v-1-1l.5-1 .5-1-.5-1.5-.5-1.5.5-2 .5-2 .5-1 .5-1" style="fill:#241f1d;stroke:#241f1d" />
        <path d="m384 235l-13-1-6-4.5-6-4.5 4 9 4 9 8.5-3 8.5-3v-1-1" style="fill:#d4d0c4;stroke:#d4d0c4" />
        <path d="m383 130l1-2-10 13.5-10 13.5 1-2 1-2 1.5-1 1.5-1 .5-1.5.5-1.5 1.5-1 1.5-1 1-1 1-1 .5-1 .5-1 .5-.5.5-.5.5-1.5.5-1.5 1-1 1-1 1-1 1-1 .5-1 .5-1" style="fill:#331a0e;stroke:#331a0e" />
        <path d="m381 212l1-1-.5-.5-.5-.5-.5.5-.5.5-.5.5-.5.5-2 .5-2 .5h-2-2l-.5-.5-.5-.5-.5-1-.5-1-.5-1.5-.5-1.5-.5-.5-.5-.5-.5-1-.5-1-.5-1-.5-1h-.5-.5l-.5 1-.5 1-.5.5-.5.5-1 .5-1 .5-.5.5-.5.5h-.5-.5l-.5.5-.5.5h-.5-.5l-.5.5-.5.5-.5 1-.5 1h1 1l1.5-.5 1.5-.5h1 1l1 .5 1 .5 1.5 1.5 1.5 1.5h.5.5l.5-1.5.5-1.5.5 1.5.5 1.5 1 1.5 1 1.5 1.5-.5 1.5-.5 1-.5 1-.5 2.5-1.5 2.5-1.5" style="fill:#3a3327;stroke:#3a3327" />
        <path d="m380 72l-14-8 2.5-1.5 2.5-1.5-1.5-.5-1.5-.5-1.5.5-1.5.5h-2.5-2.5-2.5-2.5l-1 .5-1 .5v1 1 1.5 1.5l1 1 1 1 1 .5 1 .5 1 .5 1 .5 1.5.5 1.5.5h2.5 2.5l1.5-.5 1.5-.5h2 2l1.5.5 1.5.5 1 .5 1 .5.5-.5.5-.5" style="fill:#241f1d;stroke:#241f1d" />
        <path d="m379 212l1-1-7-6-7-6-3.5-9-3.5-9v1.5 1.5l.5 1.5.5 1.5.5 1.5.5 1.5.5 2 .5 2v1.5 1.5l1 1.5 1 1.5.5 1 .5 1 .5 1 .5 1 .5 1 .5 1 .5.5.5.5.5 1.5.5 1.5.5 1 .5 1 .5.5.5.5h2 2l2-.5 2-.5" style="fill:#331a0e;stroke:#331a0e" />
        <path d="m372 248h1l-.5-1-.5-1-1.5-.5-1.5-.5-2-.5-2-.5-1.5-.5-1.5-.5-1-1.5-1-1.5-.5-1-.5-1v1.5 1.5l.5 1 .5 1 1 1 1 1 1.5.5 1.5.5 1 1 1 1h2.5 2.5" style="fill:#9b968a;stroke:#9b968a" />
        <path d="m366 248h1l-1-1-1-1-1.5-.5-1.5-.5-1-1-1-1h-.5-.5l-.5-.5-.5-.5v1.5 1.5l.5 1.5.5 1.5h1.5 1.5 2 2" style="fill:#da3d24;stroke:#da3d24" />
        <path d="m365 219l1-5-1.5-1.5-1.5-1.5-2.5.5-2.5.5-.5 1.5-.5 1.5 1.5 1 1.5 1 1.5.5 1.5.5 1 .5 1 .5" style="fill:#d4d0c4;stroke:#d4d0c4" />
        <path d="m364 202h1l-.5-1-.5-1-1-1.5-1-1.5h-.5-.5l-.5-1.5-.5-1.5-.5 2-.5 2-.5-.5-.5-.5.5 2 .5 2 .5 2.5.5 2.5 1-.5 1-.5.5-.5.5-.5.5-1 .5-1" style="fill:#571701;stroke:#571701" />
        <path d="m361 197h1v-1.5-1.5l-.5-2-.5-2-.5-1.5-.5-1.5-.5-1.5-.5-1.5v-1.5-1.5l-.5-2.5-.5-2.5-.5-2-.5-2v-2-2l-.5 1.5-.5 1.5v1 1l-.5 1.5-.5 1.5.5 1 .5 1 .5.5.5.5v2 2l.5 1 .5 1 .5.5.5.5v2 2l.5 2 .5 2 .5 1.5.5 1.5" style="fill:#342419;stroke:#342419" />
        <path d="m359 243h1l-.5-1-.5-1v-1.5-1.5h-.5-.5v-2.5-2.5l-.5-1.5-.5-1.5-.5-2-.5-2-1-1-1-1-1-1.5-1-1.5v1.5 1.5l1 1 1 1 .5 3 .5 3v1.5 1.5l1 1.5 1 1.5.5 2 .5 2 .5.5.5.5" style="fill:#7b756b;stroke:#7b756b" />
        <path d="m359 207l1-1-.5-2.5-.5-2.5-.5-2-.5-2-9-15.5-9-15.5h-.5-.5l-1-.5-1-.5-.5-1-.5-1h-1-1l-1-.5-1-.5-1.5-.5-1.5-.5-1.5-1.5-1.5-1.5h-.5-.5v1 1l7 5.5 7 5.5 5 7.5 5 7.5 4.5 10.5 4.5 10.5h.5.5" style="fill:#7a1e00;stroke:#7a1e00" />
        <path d="m359 198l1-4-.5-2-.5-2-7.5-11.5-7.5-11.5-4.5-4-4.5-4 1 1.5 1 1.5.5.5.5.5.5.5.5.5.5 1 .5 1 9 15.5 9 15.5.5.5.5.5" style="fill:#4f382a;stroke:#4f382a" />
        <path d="m359 146v-2l-.5-1-.5-1-1.5.5-1.5.5-.5.5-.5.5-.5.5-.5.5.5.5.5.5 1 1.5 1 1.5.5-.5.5-.5-.5-1-.5-1 .5-.5.5-.5 1 .5 1 .5" style="fill:#241f1d;stroke:#241f1d" />
        <path d="m358 248h1l-.5-1.5-.5-1.5h-.5-.5l-1-1.5-1-1.5v-1-1l-.5-1-.5-1-.5-1.5-.5-1.5.5-1.5.5-1.5-1 1.5-1 1.5-.5 1-.5 1 .5 1 .5 1v1 1 1 1 1 1 1.5 1.5h2 2 1 1" style="fill:#ba3400;stroke:#ba3400" />
        <path d="m358 238h1v-2-2-1.5-1.5l-.5-.5-.5-.5v-2-2l-.5-1-.5-1-.5-.5-.5-.5-.5-1.5-.5-1.5-.5-1-.5-1v-1-1l.5-1.5.5-1.5.5-1 .5-1h-1-1l-1 2-1 2v3 3l1 1.5 1 1.5 1 1 1 1 .5 2 .5 2 .5 1.5.5 1.5v2.5 2.5" style="fill:#9b968a;stroke:#9b968a" />
        <g style="fill:#9c2c00;stroke:#9c2c00">
            <path d="m357 245h1v-1.5-1.5l-.5-2-.5-2-1-1.5-1-1.5v-1.5-1.5h-.5-.5l-.5 1.5-.5 1.5.5 1.5.5 1.5.5 1 .5 1v1 1l1 1.5 1 1.5" />
            <path d="m357 208l1-1-4.5-10.5-4.5-10.5-5-7.5-5-7.5-7-5.5-7-5.5h-.5-.5v1 1l6.5 6 6.5 6 5 8.5 5 8.5 4 8.5 4 8.5h.5.5.5.5" />
        </g>
        <path d="m356 70h1l-1-.5-1-.5-1-1-1-1v-1.5-1.5-1-1l1-.5 1-.5-1-.5-1-.5h-1.5-1.5-1-1-2-2-2.5-2.5v1 1l-1-.5-1-.5-.5.5-.5.5.5.5.5.5v1 1l-.5 1-.5 1v2 2l1 .5 1 .5-.5 1.5-.5 1.5.5 1 .5 1 1-1 1-1v-1-1l.5-.5.5-.5.5-.5.5-.5v-1-1h1.5 1.5 1 1l.5.5.5.5.5.5.5.5 1 .5 1 .5.5-.5.5-.5.5-.5.5-.5h1.5 1.5" style="fill:#342419;stroke:#342419" />
        <path d="m355 209l1-1h-.5-.5-.5-.5l-1.5.5-1.5.5-3.5 7-3.5 7 3.5 7 3.5 7 .5-1 .5-1 1-1.5 1-1.5h.5.5l-.5-3-.5-3-1-1-1-1v-1.5-1.5-3-3l1-2 1-2 .5-1 .5-1" style="fill:#da3d24;stroke:#da3d24" />
        <path d="m354 208h1l-4-8.5-4-8.5-5-8.5-5-8.5-6.5-6-6.5-6-1.5.5-1.5.5h-.5-.5l-6.5 6.5-6.5 6.5-.5 11.5-.5 11.5 3 9.5 3 9.5-1.5 15-1.5 15h2 2v-2-2l.5-2 .5-2v-2-2l1-1.5 1-1.5 1 1 1 1-.5 1.5-.5 1.5v1.5 1.5 1 1l-.5.5-.5.5v1 1 1 1h2.5 2.5 2.5 2.5 2 2 1 1l3-9.5 3-9.5-3.5 3.5-3.5 3.5-2.5-6-2.5-6-4-8-4-8-3-10.5-3-10.5 2.5-10 2.5-10 8 4 8 4 5.5 8 5.5 8 3.5 9 3.5 9 1.5-.5 1.5-.5" style="fill:#ba3400;stroke:#ba3400" />
        <path d="m351 248h1v-1.5-1.5-1-1-1-1-1-1l-.5-1-.5-1-3.5-7-3.5-7 3.5-7 3.5-7-3.5-9-3.5-9-5.5-8-5.5-8-8-4-8-4-2.5 10-2.5 10 3 10.5 3 10.5 4 8 4 8 2.5 6 2.5 6 3.5-3.5 3.5-3.5-3 9.5-3 9.5h3.5 3.5 2 2 2.5 2.5 1.5 1.5" style="fill:#dc3a03;stroke:#dc3a03" />
        <path d="m348 146v-2l-1-1-1-1h-2.5-2.5l-2.5-.5-2.5-.5.5 1 .5 1 .5.5.5.5v1 1h-1-1l-1 .5-1 .5-.5-.5-.5-.5-.5 1.5-.5 1.5.5 1 .5 1v1 1 1 1 1.5 1.5l.5.5.5.5v-1.5-1.5-1.5-1.5-1-1h1 1l1 .5 1 .5v-1-1h2 2l1-1 1-1 1-.5 1-.5 1-.5 1-.5" style="fill:#342419;stroke:#342419" />
        <path d="m339 166h1l-.5-1-.5-1-.5-.5-.5-.5-.5-.5-.5-.5-1-1.5-1-1.5h-.5-.5l-.5-.5-.5-.5h-.5-.5-1.5-1.5l-.5-.5-.5-.5-1-.5-1-.5v1 1l1.5 1.5 1.5 1.5 1.5.5 1.5.5 1 .5 1 .5h1 1l.5 1 .5 1 1 .5 1 .5" style="fill:#571701;stroke:#571701" />
        <g style="fill:#241f1d;stroke:#241f1d">
            <path d="m339 62v-2-17-17-13-13h-1-1l-.5.5-.5.5-1 12-1 12 1 21 1 21 .5-1 .5-1v-1-1l-.5-.5-.5-.5.5-.5.5-.5 1 .5 1 .5" />
            <path d="m338 81v-4l-.5-1-.5-1 .5-1.5.5-1.5-1-.5-1-.5v-2-2l-1.5 11.5-1.5 11.5-.5 12.5-.5 12.5v15.5 15.5h.5.5l.5.5.5.5 1-.5 1-.5h1 1v-1-1l-.5-.5-.5-.5-.5-1-.5-1 .5-18.5.5-18.5.5-11.5.5-11.5" />
        </g>
        <path d="m336 1l1-1h-3-3-1.5-1.5v3 3l-.5 1.5-.5 1.5-.5 13-.5 13v13.5 13.5l-1 19.5-1 19.5v3 3 2 2l-.5 2-.5 2v2 2 3.5 3.5l.5 3 .5 3v2 2 1 1 2 2 1.5 1.5l.5 1.5.5 1.5 1 .5 1 .5.5 1.5.5 1.5.5-.5.5-.5.5-1 .5-1v-1-1l1-.5 1-.5v-15.5-15.5l.5-12.5.5-12.5 1.5-11.5 1.5-11.5-1-21-1-21 1-12 1-12" style="fill:#1d1206;stroke:#1d1206" />
        <path d="m332 158h1v-1.5-1.5-1-1-1-1l-.5-1-.5-1 .5-1.5.5-1.5h-.5-.5l-1 .5-1 .5v1 1l-.5 1-.5 1-.5.5-.5.5-.5-1.5-.5-1.5-1-.5-1-.5-.5-1.5-.5-1.5h-.5-.5l.5 1.5.5 1.5v2 2l1 2 1 2 1 .5 1 .5.5.5.5.5h1.5 1.5" style="fill:#331a0e;stroke:#331a0e" />
        <path d="m327 9l1-3v-3-3h-1.5-1.5v.5.5l.5 1 .5 1v1.5 1.5 1 1 1.5 1.5 2 2 1 1 1.5 1.5 2 2l-.5 1.5-.5 1.5v3 3 2 2 2.5 2.5l-.5 1.5-.5 1.5.5 2 .5 2-.5.5-.5.5-.5-1-.5-1v1.5 1.5 1.5 1.5 2.5 2.5 1.5 1.5l.5-2.5.5-2.5.5.5.5.5v2.5 2.5 2 2l-.5 2-.5 2v1.5 1.5 2 2 2 2 1 1 1.5 1.5 2 2l-.5.5-.5.5v1.5 1.5l.5 1.5.5 1.5v1.5 1.5l1-19.5 1-19.5v-13.5-13.5l.5-13 .5-13" style="fill:#241f1d;stroke:#241f1d" />
        <g style="fill:#342419;stroke:#342419">
            <path d="m325 158h1v-1-1l-1-2-1-2v-2-2l-.5-1.5-.5-1.5-1-.5-1-.5.5 1 .5 1-.5 1-.5 1 .5 2 .5 2 .5 1.5.5 1.5 1 1.5 1 1.5" />
            <path d="m325 27l1-3v-2-2-1.5-1.5-1-1-2-2-1.5-1.5-1-1-1.5-1.5l-.5-1-.5-1v1.5 1.5 2 2 2 2 2.5 2.5 2 2l-.5 2-.5 2v2 2 2 2 2.5 2.5l-.5 1.5-.5 1.5-.5 2-.5 2 .5 1.5.5 1.5.5 1 .5 1 .5-.5.5-.5-.5-2-.5-2 .5-1.5.5-1.5v-2.5-2.5-2-2-3-3" />
        </g>
        <path d="m324 160h1v-1-1l-1-1.5-1-1.5-.5-1.5-.5-1.5h-.5-.5l-3.5-9.5-3.5-9.5-3-9-3-9-4.5-8-4.5-8-3.5-8.5-3.5-8.5-4.5-8-4.5-8-10-1-10-1-9 3.5-9 3.5-10 6-10 6-.5 1.5-.5 1.5-.5 1.5-.5 1.5-1 2-1 2v1.5 1.5 1 1l.5.5.5.5h1 1l1-.5 1-.5.5-.5.5-.5 1-1 1-1 .5-1 .5-1v-2-2l4-5.5 4-5.5v.5.5l-.5.5-.5.5-.5 1-.5 1 3 8 3 8 5-2 5-2 7-5.5 7-5.5 3.5 4.5 3.5 4.5 4.5 8 4.5 8 3.5 10 3.5 10 5.5 7.5 5.5 7.5 2.5 11 2.5 11 1.5-.5 1.5-.5.5-.5.5-.5.5-.5.5-.5.5-.5.5-.5h1 1 1.5 1.5 1 1 1 1l.5 1 .5 1 1.5-.5 1.5-.5v-1-1" style="fill:#7b756b;stroke:#7b756b" />
        <path d="m324 138v-2-2-2l-.5-3-.5-3-1 2.5-1 2.5v2 2l-.5 2-.5 2 .5 2.5.5 2.5 1 .5 1 .5h.5.5v-1.5-1.5-2-2" style="fill:#241f1d;stroke:#241f1d" />
        <path d="m324 71l1-4v-2-2-2.5-2.5l-.5-.5-.5-.5-.5 2.5-.5 2.5-.5 13-.5 13-.5 21.5-.5 21.5 1-2.5 1-2.5v-3.5-3.5-2-2l.5-2 .5-2v-2-2-3-3-1.5-1.5l-.5-1.5-.5-1.5v-1.5-1.5l.5-.5.5-.5v-2-2-1.5-1.5-1-1-2-2-2-2-1.5-1.5" style="fill:#342419;stroke:#342419" />
        <path d="m324 25l1-4v-2-2-2.5-2.5-2-2-2-2-1.5-1.5h-.5-.5v2.5 2.5 2 2 2 2 1 1 1.5 1.5 3 3" style="fill:#241f1d;stroke:#241f1d" />
        <path d="m324 1h1v-.5-.5h-14.5-14.5-13-13-13.5-13.5-3-3l1 .5 1 .5.5.5.5.5v1 1l-.5 1-.5 1h-1.5-1.5l-1.5-1-1.5-1v-2-2h-14-14-13-13-13.5-13.5-1-1l-.5 11-.5 11 1.5 11.5 1.5 11.5-1 9.5-1 9.5 1 6.5 1 6.5-2.5 15.5-2.5 15.5v2 2 2 2l.5 2 .5 2-.5 1.5-.5 1.5 1 1.5 1 1.5 1 1 1 1h1.5 1.5l1 1 1 1v1 1l-1.5.5-1.5.5-2 1-2 1v1.5 1.5l-2 10-2 10v7 7l.5 10 .5 10v11.5 11.5l.5 2 .5 2v2 2l-.5 2-.5 2 .5 1.5.5 1.5v1.5 1.5l-.5 1-.5 1v1.5 1.5l.5 2 .5 2 .5 1.5.5 1.5-.5 1.5-.5 1.5h14 14 13.5 13.5 13 13 13.5 13.5 11 11l-1.5-1-1.5-1 .5-.5.5-.5.5-.5.5-.5.5-.5.5-.5v-1-1h1.5 1.5l.5-.5.5-.5.5-.5.5-.5v1 1l-.5 1.5-.5 1.5-.5 2-.5 2h1.5 1.5 2 2 .5.5l.5-12 .5-12-3 6-3 6-2-7-2-7-2.5-5-2.5-5 6.5 1 6.5 1 3.5-18 3.5-18v-1.5-1.5l-.5-.5-.5-.5v-1.5-1.5l2-.5 2-.5-.5-1.5-.5-1.5-.5-1.5-.5-1.5-.5-1.5-.5-1.5v-1-1l-.5-1-.5-1-.5-1.5-.5-1.5-.5-1-.5-1-1-1.5-1-1.5-.5-2-.5-2-.5-1.5-.5-1.5-.5-1.5-.5-1.5v-1-1l-.5-1-.5-1v-2-2l-.5-2-.5-2-.5-1.5-.5-1.5-1-1.5-1-1.5h-.5-.5l-.5-1.5-.5-1.5v-1-1l-.5-1-.5-1v-1-1l-.5-.5-.5-.5-.5-.5-.5-.5-.5-.5-.5-.5-.5-.5-.5-.5v-2.5-2.5l-2.5-10-2.5-10-6.5 6-6.5 6-6.5 3-6.5 3-4.5-6.5-4.5-6.5v.5.5l1-.5 1-.5.5.5.5.5.5 1 .5 1v1 1 1 1 1 1l-1-.5-1-.5-1-1-1-1v-2.5-2.5l-1 1.5-1 1.5-.5.5-.5.5-.5.5-.5.5-.5 1.5-.5 1.5-.5.5-.5.5-1 1.5-1 1.5-.5.5-.5.5h-1-1-1-1l-.5-1-.5-1-.5-1.5-.5-1.5.5-.5.5-.5v-1.5-1.5l.5-2.5.5-2.5-1 2-1 2-.5 1.5-.5 1.5-.5 1.5-.5 1.5h-1-1l-.5-1-.5-1-.5-1.5-.5-1.5h1 1l.5-1 .5-1 1-1 1-1v-1-1l1-.5 1-.5 1-1.5 1-1.5 1-1 1-1 1.5-1.5 1.5-1.5 7-5.5 7-5.5 10.5-2.5 10.5-2.5 10.5 1.5 10.5 1.5 5 7.5 5 7.5 4 8 4 8 4 8.5 4 8.5 6 17.5 6 17.5.5-1 .5-1-.5-1-.5-1-.5-2.5-.5-2.5.5-2 .5-2v-2-2l.5-21.5.5-21.5.5-13 .5-13v-1.5-1.5-2.5-2.5-1.5-1.5-1.5-1.5l-.5-1.5-.5-1.5.5-2 .5-2 .5-1.5.5-1.5v-2.5-2.5-2-2-2-2-3-3-1.5-1.5-1-1-2-2-2-2-2.5-2.5" style="fill:#3a3327;stroke:#3a3327" />
        <path d="m322 159l-8-16-3-10.5-3-10.5-4.5-8.5-4.5-8.5-4-9.5-4-9.5-4.5-9-4.5-9-11-1-11-1-7.5 6-7.5 6v10.5 10.5l4-6 4-6 4.5-3 4.5-3 6.5 1 6.5 1 5 7 5 7 4.5 9 4.5 9 4.5 7 4.5 7 1.5 11.5 1.5 11.5 6 3.5 6 3.5h2 2" style="fill:#9b968a;stroke:#9b968a" />
        <path d="m321 152h1l-.5-2-.5-2-6-17.5-6-17.5-4-8.5-4-8.5-4-8-4-8-5-7.5-5-7.5-10.5-1.5-10.5-1.5-10.5 2.5-10.5 2.5-7 5.5-7 5.5-.5.5-.5.5-.5 2-.5 2 10-6 10-6 9-3.5 9-3.5 10 1 10 1 4.5 8 4.5 8 3.5 8.5 3.5 8.5 4.5 8 4.5 8 3 9 3 9 3.5 9.5 3.5 9.5" style="fill:#4d483b;stroke:#4d483b" />
        <path d="m320 163h1l-.5-1-.5-1h-1-1-1-1-1.5-1.5-1-1l-.5.5-.5.5-.5.5-.5.5-.5.5-.5.5-1.5.5-1.5.5v.5.5l-1 11-1 11v11.5 11.5l1 18.5 1 18.5h2 2l1.5-15 1.5-15-3-9.5-3-9.5.5-11.5.5-11.5 6.5-6.5 6.5-6.5" style="fill:#9c2c00;stroke:#9c2c00" />
        <path d="m317 238l1-3-1-1-1-1-1 1.5-1 1.5v2 2l-.5 2-.5 2v2 2h1.5 1.5v-1-1-1-1l.5-.5.5-.5v-1-1-1.5-1.5" style="fill:#dc3a03;stroke:#dc3a03" />
        <path d="m304 248h1l-1-18.5-1-18.5v-11.5-11.5l1-11 1-11h-.5-.5l-.5.5-.5.5-1.5 1.5-1.5 1.5-1 11.5-1 11.5v11.5 11.5l1 16 1 16h1.5 1.5.5.5" style="fill:#7a1e00;stroke:#7a1e00" />
        <path d="m304 166h1v-.5-.5l-2.5-11-2.5-11-5.5-7.5-5.5-7.5-3.5-10-3.5-10-4.5-8-4.5-8-3.5-4.5-3.5-4.5-7 5.5-7 5.5-5 2-5 2-3-8-3-8-1 1.5-1 1.5-.5.5-.5.5.5 1 .5 1 4.5 6.5 4.5 6.5 6.5-3 6.5-3 6.5-6 6.5-6 2.5 10 2.5 10 .5 1 .5 1 1 1.5 1 1.5 1 1 1 1 .5 1.5.5 1.5v1 1 1.5 1.5l.5 1.5.5 1.5 1 1.5 1 1.5.5 1.5.5 1.5.5 2 .5 2v2 2l.5 1 .5 1v1 1l.5 1.5.5 1.5.5 1.5.5 1.5.5 2 .5 2 1 1.5 1 1.5 1 .5 1 .5 1 1 1 1 .5 2 .5 2 1 1 1 1 .5 2 .5 2 2.5.5 2.5.5" style="fill:#4d483b;stroke:#4d483b" />
        <path d="m303 167l1-1-2.5-.5-2.5-.5-.5-2-.5-2-1-1-1-1-.5-2-.5-2-1-1-1-1-1-.5-1-.5.5 1 .5 1 .5 1.5.5 1.5.5 1 .5 1v1 1l.5 1.5.5 1.5.5 1.5.5 1.5.5 1.5.5 1.5h1.5 1.5l1.5-1.5 1.5-1.5" style="fill:#4f382a;stroke:#4f382a" />
        <path d="m299 248h1l-1-16-1-16v-11.5-11.5l1-11.5 1-11.5h-1.5-1.5l-2 .5-2 .5v1.5 1.5l.5.5.5.5v1.5 1.5l.5 2.5.5 2.5-.5 1.5-.5 1.5-.5 1.5-.5 1.5v1 1 1.5 1.5l-.5 1.5-.5 1.5v2 2 2 2 2 2 1 1 1.5 1.5 2 2l-.5 1.5-.5 1.5v.5.5 2.5 2.5l1 .5 1 .5v1 1 2.5 2.5 1 1 1 1 1 1l-1.5 1-1.5 1v2.5 2.5h1.5 1.5 2.5 2.5.5.5" style="fill:#571701;stroke:#571701" />
        <path d="m294 186l1-3-.5-2.5-.5-2.5-3.5 18-3.5 18-6.5-1-6.5-1 2.5 5 2.5 5 2 7 2 7 3-6 3-6-.5 12-.5 12h1 1v-2.5-2.5-2-2-1.5-1.5-2-2-1-1l.5-1.5.5-1.5v-2.5-2.5l-.5-1.5-.5-1.5v-1-1-1.5-1.5-2-2l.5-1.5.5-1.5v-1-1l.5-2 .5-2v-2-2l.5-1.5.5-1.5v-1.5-1.5-1-1l.5-1.5.5-1.5" style="fill:#342419;stroke:#342419" />
        <g style="fill:#331a0e;stroke:#331a0e">
            <path d="m293 230v-2l-1-.5-1-.5-.5 1.5-.5 1.5v1 1 2 2 1.5 1.5 2 2l1.5-1 1.5-1v-1-1-1-1-1-1-2.5-2.5" />
            <path d="m291 221l1-3v-2-2-1.5-1.5-1-1-2-2-2-2l-.5 2-.5 2v1 1l-.5 1.5-.5 1.5v2 2 1.5 1.5 1 1l.5 1.5.5 1.5v-.5-.5" />
        </g>
        <path d="m285 78v-2l-1-1-1-1-1-1.5-1-1.5-1-1-1-1-1 .5-1 .5 1 1 1 1 1 1.5 1 1.5 1 1 1 1 1 .5 1 .5" style="fill:#bcb7ab;stroke:#bcb7ab" />
        <path d="m281 244l1-3v-1-1l-.5.5-.5.5-.5.5-.5.5h-1.5-1.5v1 1l-.5.5-.5.5-.5.5-.5.5-.5.5-.5.5 1.5 1 1.5 1h1.5 1.5l.5-2 .5-2" style="fill:#342419;stroke:#342419" />
        <path d="m280 121h1l-.5-1.5-.5-1.5v-1.5-1.5-1-1l-.5-1.5-.5-1.5-1-1-1-1-1-1.5-1-1.5-.5-1-.5-1v2.5 2.5l.5.5.5.5.5.5.5.5.5.5.5.5.5.5.5.5v1 1l.5 1 .5 1v1 1l.5 1.5.5 1.5" style="fill:#4f382a;stroke:#4f382a" />
        <path d="m263 77l-12-10 1 4.5 1 4.5 5 .5 5 .5" style="fill:#bcb7ab;stroke:#bcb7ab" />
        <path d="m258 84l1-3-1.5-.5-1.5-.5-1.5 1-1.5 1v1 1l2 .5 2 .5.5-.5.5-.5" style="fill:#4d483b;stroke:#4d483b" />
        <g style="fill:#342419;stroke:#342419">
            <path d="m251 205l-1-19-4 7.5-4 7.5 4.5 2 4.5 2" />
            <path d="m240 4v-2l-.5-.5-.5-.5-1-.5-1-.5h-2-2v2 2l1.5 1 1.5 1h1.5 1.5l.5-1 .5-1" />
            <path d="m238 97v-2-1-1-1-1l-.5-1-.5-1-.5-.5-.5-.5-1 .5-1 .5v2.5 2.5l1 1 1 1 1 .5 1 .5" />
        </g>
        <path d="m238 78l-8 11 .5-1 .5-1 .5-1.5.5-1.5 1-1.5 1-1.5 2-1 2-1v-.5-.5" style="fill:#bcb7ab;stroke:#bcb7ab" />
        <path d="m237 80l1-1-2 1-2 1-1 1.5-1 1.5-.5 1.5-.5 1.5-.5 1-.5 1v2 2l-.5 1-.5 1v1 1l.5-1.5.5-1.5.5-.5.5-.5.5-.5.5-.5 1-1.5 1-1.5v-.5-.5l-.5-1-.5-1 .5-.5.5-.5 1-1.5 1-1.5.5-1 .5-1" style="fill:#9b968a;stroke:#9b968a" />
        <path d="m228 98l1-1v-1-1l-1 1-1 1-.5.5-.5.5-1 .5-1 .5h-1-1l-.5-.5-.5-.5v-1-1-1.5-1.5h-.5-.5v1.5 1.5l-.5.5-.5.5.5 1.5.5 1.5.5 1 .5 1h1 1 1 1l.5-.5.5-.5 1-1.5 1-1.5" style="fill:#4d483b;stroke:#4d483b" />
        <g style="fill:#4f382a;stroke:#4f382a">
            <path d="m226 79l1-1-1.5 1.5-1.5 1.5-1 1-1 1-.5 1-.5 1v1.5 1.5l-.5 2.5-.5 2.5h.5.5l1-2 1-2 .5-1.5.5-1.5.5-1.5.5-1.5.5-2 .5-2" />
            <path d="m222 79l1-3-.5-1.5-.5-1.5v-1.5-1.5l-1 1-1 1-1 1.5-1 1.5 1 1 1 1 1 1 1 1" />
        </g>
        <g style="fill:#342419;stroke:#342419">
            <path d="m221 85l1-2-1 1.5-1 1.5-1 .5-1 .5v1 1l-1 1-1 1-.5 1-.5 1h-1-1l.5 1.5.5 1.5.5 1 .5 1h1 1l.5-1.5.5-1.5.5-1.5.5-1.5 1-2 1-2v-1.5-1.5" />
            <path d="m211 45v-2l-1.5-.5-1.5-.5-2-.5-2-.5h-1-1l-1.5 1-1.5 1 1 1 1 1h2.5 2.5 2 2 .5.5" />
            <path d="m156 132v-2l-1-1-1-1h-1.5-1.5l-1-1-1-1-1-1.5-1-1.5.5-1.5.5-1.5-.5-2-.5-2v1.5 1.5l-1 1-1 1 .5 2 .5 2 1 1 1 1 .5 2 .5 2v2 2l2-1 2-1 1.5-.5 1.5-.5" />
            <path d="m152 45l-3-23 .5-11 .5-11h-1.5-1.5-2-2-2.5-2.5-2-2-2-2-2.5-2.5-2-2-2.5-2.5-2-2l.5 1 .5 1-.5 1.5-.5 1.5 1 .5 1 .5v1 1l-1 1-1 1-1 1-1 1 1.5 1 1.5 1v1 1 1.5 1.5l1 .5 1 .5v1.5 1.5l.5 2 .5 2 1 1 1 1v1.5 1.5l-2 7-2 7-2-12.5-2-12.5-2.5 7-2.5 7-5 11-5 11-.5 2-.5 2-.5.5-.5.5v1.5 1.5l-1 1-1 1v1.5 1.5l.5-1 .5-1h1.5 1.5 1 1 .5.5l-1 1-1 1 .5 2 .5 2 1 1 1 1v1 1l-3.5.5-3.5.5.5 1 .5 1v1.5 1.5l-.5 1.5-.5 1.5v2 2l.5.5.5.5v1.5 1.5 2 2l-.5.5-.5.5v1.5 1.5 2 2 1 1l.5 1 .5 1-.5 1.5-.5 1.5v1 1l-.5 2-.5 2 1-.5 1-.5.5.5.5.5v1.5 1.5 1.5 1.5 2 2l-.5.5-.5.5-.5-1-.5-1-2.5 8.5-2.5 8.5-3 .5-3 .5 2 .5 2 .5-.5 2-.5 2h-1.5-1.5l1 1 1 1v2 2h1.5 1.5l1 .5 1 .5v1.5 1.5l-1 1-1 1h-1-1-1-1-1.5-1.5l-.5.5-.5.5-.5.5-.5.5h-1-1l-1-.5-1-.5h-1-1l-1.5-.5-1.5-.5.5 2 .5 2-.5 1.5-.5 1.5-.5 1.5-.5 1.5.5 1 .5 1 5 8.5 5 8.5 1 .5 1 .5 1 .5 1 .5.5.5.5.5 1 .5 1 .5.5 1.5.5 1.5v1 1l.5 1 .5 1-.5 1.5-.5 1.5v1 1 1 1 1 1 1 1l-.5 1-.5 1v2.5 2.5 2 2l-.5 1.5-.5 1.5-.5 1-.5 1v1 1 1 1l-.5 1-.5 1v1 1 1 1 1 1 1 1 1.5 1.5h3 3 2 2l2.5-9.5 2.5-9.5 3.5 9.5 3.5 9.5h3.5 3.5 2 2 2.5 2.5 2 2 2.5 2.5 2 2 2.5 2.5 2 2 2 2 .5.5l.5-1.5.5-1.5-.5-1.5-.5-1.5-.5-2-.5-2v-1.5-1.5l.5-1 .5-1h-.5-.5l-2.5-.5-2.5-.5-2-3.5-2-3.5 4.5-5 4.5-5v-11.5-11.5l-.5-10-.5-10v-7-7l2-10 2-10h-.5-.5l-1-1.5-1-1.5.5-13.5.5-13.5 2.5-15.5 2.5-15.5-1-6.5-1-6.5 1-9.5 1-9.5" />
        </g>
        <g style="fill:#241f1d;stroke:#241f1d">
            <path d="m148 138h1v-1.5-1.5-2-2l-.5-2-.5-2-1-1-1-1-.5-2-.5-2 1-1 1-1v-1.5-1.5-2-2-2-2l-.5 13.5-.5 13.5 1 1.5 1 1.5" />
            <path d="m146 233h1v-1.5-1.5l-.5-1.5-.5-1.5.5-2 .5-2v-2-2l-.5-2-.5-2-4.5 5-4.5 5 2 3.5 2 3.5 2.5.5 2.5.5" />
        </g>
        <g style="fill:#331a0e;stroke:#331a0e">
            <path d="m134 121l-6-8-4.5 4-4.5 4 5 5 5 5 2.5-5 2.5-5" />
            <path d="m132 205l1-3-1.5-.5-1.5-.5-1.5 1-1.5 1 .5 1.5.5 1.5h1.5 1.5l.5-.5.5-.5" />
            <path d="m132 163l-13-9 3.5 4 3.5 4 3 .5 3 .5" />
            <path d="m131 182l-9-11 2.5 6 2.5 6 2-.5 2-.5" />
        </g>
        <g style="fill:#3a3327;stroke:#3a3327">
            <path d="m118 32v-3l-1-1-1-1-.5-2-.5-2v-1.5-1.5l-1-.5-1-.5-1.5 1-1.5 1 2 12.5 2 12.5 2-7 2-7" />
            <path d="m116 87l-8-2-1 7.5-1 7.5 4.5-2.5 4.5-2.5.5-4 .5-4" />
            <path d="m114 145l-7-3v12.5 12.5l3.5-2.5 3.5-2.5v-8.5-8.5" />
            <path d="m114 8v-2l-1-.5-1-.5-1 1.5-1 1.5-1 1-1 1 1 1 1 1 1-1 1-1 1-1 1-1" />
        </g>
        <path d="m113 16v-2l-1.5-1-1.5-1-1-1-1-1 1-1 1-1 1-1.5 1-1.5.5-1.5.5-1.5-.5-1-.5-1h-3-3-2-2-2.5-2.5-.5-.5v1.5 1.5 1 1l-.5 1-.5 1h-1-1-1-1l-.5.5-.5.5.5 1 .5 1h1 1l.5.5.5.5.5.5.5.5v1 1l-1 .5-1 .5-2.5 5-2.5 5 4 10.5 4 10.5-1.5.5-1.5.5v2 2 2.5 2.5l1 .5 1 .5 5-11 5-11 2.5-7 2.5-7 1.5-1 1.5-1v-1.5-1.5" style="fill:#241f1d;stroke:#241f1d" />
        <g style="fill:#3a3327;stroke:#3a3327">
            <path d="m111 126l1-3v-2-2l-1-1.5-1-1.5-.5 1.5-.5 1.5.5 2 .5 2 .5 1.5.5 1.5" />
            <path d="m110 237v-2l-1.5-.5-1.5-.5-.5 2-.5 2 .5 1.5.5 1.5 1 1.5 1 1.5v-2-2l.5-1.5.5-1.5" />
        </g>
        <path d="m103 248h1l-3.5-9.5-3.5-9.5-2.5 9.5-2.5 9.5h2.5 2.5 2 2 1 1" style="fill:#331a0e;stroke:#331a0e" />
        <path d="m99 78v-2l-1-1-1-1-.5-2-.5-2 1-1 1-1h-.5-.5-1-1-1.5-1.5l-.5 1-.5 1-.5 1-.5 1-.5 1-.5 1 .5 2 .5 2 1 .5 1 .5 3.5-.5 3.5-.5" style="fill:#241f1d;stroke:#241f1d" />
        <path d="m96 46l-8-21 2.5-5 2.5-5-.5-1.5-.5-1.5-1.5-1-1.5-1-1-1-1-1-.5-1.5-.5-1.5-.5-.5-.5-.5-1-.5-1-.5v-1-1l1-.5 1-.5h-14-14-13.5-13.5-13.5-13.5-1.5-1.5v11.5 11.5 13.5 13.5 13.5 13.5 13 13 11.5 11.5l.5-1 .5-1 2-.5 2-.5 1 1 1 1v1.5 1.5 1.5 1.5l.5 1.5.5 1.5-.5 1.5-.5 1.5-2-.5-2-.5-1.5-1-1.5-1v1.5 1.5 2.5 2.5 2 2 2.5 2.5 2 2 2.5 2.5 2 2 2.5 2.5 2 2 1.5 1.5h3 3l1 .5 1 .5 4 6.5 4 6.5 9-.5 9-.5 4.5 2.5 4.5 2.5 9.5-2 9.5-2-6.5-4.5-6.5-4.5h1.5 1.5 2.5 2.5 2 2l1.5-1 1.5-1 1-1 1-1 1-.5 1-.5-.5-1-.5-1 .5-1.5.5-1.5.5-1.5.5-1.5-.5-2-.5-2-.5-1-.5-1 1-1 1-1 1-1 1-1 1.5 1 1.5 1 1.5.5 1.5.5 2 .5 2 .5 1-2 1-2v-2-2l-1-1-1-1-1.5-.5-1.5-.5 1-1 1-1 .5-1 .5-1 3-.5 3-.5 2.5-8.5 2.5-8.5v-2-2l-.5-.5-.5-.5v-2-2l.5-2 .5-2v-1-1l.5-1.5.5-1.5-.5-1-.5-1v-1-1-2-2-1.5-1.5l.5-.5.5-.5v-2-2-1.5-1.5l-.5-.5-.5-.5v-2-2l.5-1.5.5-1.5v-1.5-1.5l-.5-1-.5-1-1-.5-1-.5-.5-2-.5-2 .5-1 .5-1 .5-1 .5-1v-1.5-1.5l1-1 1-1v-1.5-1.5l.5-.5.5-.5.5-2 .5-2-1-.5-1-.5v-2.5-2.5-2-2l1.5-.5 1.5-.5" style="fill:#3a3327;stroke:#3a3327" />
        <path d="m95 14v-2l-.5-.5-.5-.5-.5-.5-.5-.5h-1-1l-.5-1-.5-1 .5-.5.5-.5h1 1 1 1l.5-1 .5-1v-1-1-1.5-1.5h-2-2-2-2-1.5-1.5l-1 .5-1 .5v1 1l1 .5 1 .5.5.5.5.5.5 1.5.5 1.5 1 1 1 1 1.5 1 1.5 1 .5 1.5.5 1.5 1-.5 1-.5" style="fill:#342419;stroke:#342419" />
        <g style="fill:#241f1d;stroke:#241f1d">
            <path d="m94 126v-3-1.5-1.5l-.5-.5-.5-.5-1 .5-1 .5v2 2l.5.5.5.5v2 2l.5 1 .5 1 .5-.5.5-.5v-2-2" />
            <path d="m88 162v-3l-1-.5-1-.5h-1.5-1.5l-1 2-1 2-2-.5-2-.5-1.5-.5-1.5-.5-1.5-1-1.5-1-1 1-1 1-1 1-1 1 .5 1 .5 1 1.5.5 1.5.5h1 1l1 .5 1 .5h1 1l.5-.5.5-.5.5-.5.5-.5h1.5 1.5 1 1 1 1l1-1 1-1" />
        </g>
        <path d="m86 215v-2-1-1-1-1-1-1l.5-1.5.5-1.5-.5-1-.5-1v-1-1l-.5-1.5-.5-1.5-1-.5-1-.5-.5-.5-.5-.5-1-.5-1-.5.5 1.5.5 1.5.5.5.5.5.5.5.5.5v1 1l.5 1 .5 1 .5.5.5.5v1 1 1 1 1.5 1.5 1 1 2 2l.5-1 .5-1" style="fill:#331a0e;stroke:#331a0e" />
        <path d="m86 63v-2h-2-2l-.5 1-.5 1 .5 1.5.5 1.5h.5.5l1.5-.5 1.5-.5v-1-1" style="fill:#241f1d;stroke:#241f1d" />
        <path d="m84 229l1-3v-2-2-2.5-2.5-2-2-1-1-1.5-1.5-1-1-1-1l-.5-.5-.5-.5-.5-1-.5-1v-1-1l-.5-.5-.5-.5-.5-.5-.5-.5-.5-1.5-.5-1.5-1-.5-1-.5h-.5-.5-1.5-1.5-1-1-2.5-2.5-2-2l-1 .5-1 .5-1 1-1 1-.5.5-.5.5h-1.5-1.5l-1.5.5-1.5.5-1.5.5-1.5.5-.5.5-.5.5h-1.5-1.5-1-1l-.5.5-.5.5h-1-1l-1 .5-1 .5h-2-2-2-2l-2 .5-2 .5h-1-1-1.5-1.5l-1 .5-1 .5-.5.5-.5.5h-1.5-1.5l-1.5.5-1.5.5h-2-2l-1.5.5-1.5.5h-1-1l-1.5.5-1.5.5v2.5 2.5 2 2 2.5 2.5 2 2 2 2 2.5 2.5 2 2 .5.5l1.5-.5 1.5-.5 9.5-2 9.5-2 13 6.5 13 6.5h1.5 1.5 2.5 2.5 2 2 2.5 2.5 2 2 2 2 2.5 2.5 2 2v-1.5-1.5-1-1-1-1-1-1-1-1l.5-1 .5-1v-1-1-1-1l.5-1 .5-1" style="fill:#1d1206;stroke:#1d1206" />
        <g style="fill:#241f1d;stroke:#241f1d">
            <path d="m84 152l1-4-2-.5-2-.5-.5 1-.5 1-1 1-1 1 1.5.5 1.5.5h1.5 1.5" />
            <path d="m77 193h1l-5-8.5-5-8.5-1 .5-1 .5-1 1-1 1-1.5 1-1.5 1h-2-2-2.5-2.5-1.5-1.5l-.5 2-.5 2h1.5 1.5 2 2l1-1 1-1h2.5 2.5l1.5.5 1.5.5 2 1 2 1v-2-2-2-2l1-1 1-1 1 1.5 1 1.5.5 1.5.5 1.5-.5 2-.5 2-1.5 1-1.5 1-1.5.5-1.5.5v1 1l1 .5 1 .5-1 .5-1 .5h2.5 2.5 1 1 1.5 1.5" />
        </g>
        <path d="m73 186l1-4-.5-1.5-.5-1.5-1-1.5-1-1.5-1 1-1 1v2 2 2 2l.5 1 .5 1 1.5-1 1.5-1" style="fill:#3a3327;stroke:#3a3327" />
        <path d="m69 192l-2-1v-1-1l1.5-.5 1.5-.5-.5-1-.5-1-2-1-2-1-1.5-.5-1.5-.5h-2.5-2.5l-1 1-1 1h-2-2-1.5-1.5l.5-2 .5-2 6.5 4.5 6.5 4.5-9.5 2-9.5 2-4.5-2.5-4.5-2.5-9 .5-9 .5-4-6.5-4-6.5 1 10.5 1 10.5 4.5 3 4.5 3 1-.5 1-.5h1.5 1.5 1 1l2-.5 2-.5 2.5-1 2.5-1 1.5-.5 1.5-.5h2 2 3.5 3.5l1.5-.5 1.5-.5 1.5-.5 1.5-.5h1.5 1.5l.5-.5.5-.5 1-1 1-1 1-.5 1-.5h2 2l1-.5 1-.5" style="fill:#342419;stroke:#342419" />
        <g style="fill:#241f1d;stroke:#241f1d">
            <path d="m68 85v-20l-7 .5-7 .5 1 6 1 6-1 5.5-1 5.5v2.5 2.5l1 1 1 1 .5 1.5.5 1.5-.5 1.5-.5 1.5v2 2l3-2 3-2 3-8.5 3-8.5" />
            <path d="m61 16l1-3-.5-1.5-.5-1.5v-2.5-2.5h-1-1l-.5 2-.5 2-.5 1.5-.5 1.5 1 1.5 1 1.5 1 .5 1 .5" />
        </g>
        <path d="m56 102l1-3-.5-1.5-.5-1.5-1-1-1-1-1 1.5-1 1.5-.5 1-.5 1v2 2l1.5 1 1.5 1 1 .5 1 .5v-2-2" style="fill:#342419;stroke:#342419" />
        <path d="m52 118l1-3-1-1-1-1h-1.5-1.5l-.5 1.5-.5 1.5 1 1.5 1 1.5h1 1l.5-.5.5-.5" style="fill:#241f1d;stroke:#241f1d" />
        <path d="m48 200l1-1h-3.5-3.5-2-2l-1.5.5-1.5.5-2.5 1-2.5 1h2 2 2 2l1-.5 1-.5h1 1l.5-.5.5-.5h1 1 1.5 1.5" style="fill:#331a0e;stroke:#331a0e" />
        <path d="m47 248h1l-13-6.5-13-6.5-9.5 2-9.5 2 2 .5 2 .5 1.5.5 1.5.5h1 1 1.5 1.5l1-1 1-1h1 1l1 .5 1 .5h1 1l.5.5.5.5-1 .5-1 .5-1.5-.5-1.5-.5-1.5.5-1.5.5-1 1-1 1h-2.5-2.5l-1.5-.5-1.5-.5-2 .5-2 .5-.5 2-.5 2h2 2 2 2 2.5 2.5 2 2 2 2 2.5 2.5 2 2 1 1l3.5-4 3.5-4-1-2.5-1-2.5 4.5 6.5 4.5 6.5" style="fill:#241f1d;stroke:#241f1d" />
        <path d="m46 248h1l-4.5-6.5-4.5-6.5 1 2.5 1 2.5-3.5 4-3.5 4h2.5 2.5 2 2 2 2" style="fill:#342419;stroke:#342419" />
        <path d="m43 143v-20l-6.5-1-6.5-1-5.5 5.5-5.5 5.5-3.5 8-3.5 8 7 .5 7 .5 5 3 5 3 2.5-6 2.5-6h1 1" style="fill:#241f1d;stroke:#241f1d" />
        <g style="fill:#342419;stroke:#342419">
            <path d="m24 241l-1-1h-1-1l-1-.5-1-.5h-1-1l-1 1-1 1h-1.5-1.5-1-1l-1.5-.5-1.5-.5-2-.5-2-.5-1.5.5-1.5.5v2 2 2 2h.5.5l.5-2 .5-2 2-.5 2-.5 1.5.5 1.5.5h2.5 2.5l1-1 1-1 1.5-.5 1.5-.5 1.5.5 1.5.5 1-.5 1-.5" />
            <path d="m20 124v-2l-1.5-.5-1.5-.5-2-.5-2-.5-.5 1.5-.5 1.5 1 1.5 1 1.5h2 2l1-1 1-1" />
        </g>
        <g style="fill:#241f1d;stroke:#241f1d">
            <path d="m18 205l1-1-4.5-3-4.5-3-1-10.5-1-10.5-1-.5-1-.5h-3-3v3 3 2.5 2.5 2 2 2.5 2.5 2 2 2.5 2.5 1.5 1.5l1.5-.5 1.5-.5h1 1l1.5-.5 1.5-.5h2 2l1.5-.5 1.5-.5h1.5 1.5" />
            <path d="m7 137l1-3-.5-1.5-.5-1.5v-1.5-1.5h-.5-.5l-3-.5-3-.5v1.5 1.5 2 2l1.5 1 1.5 1 2 .5 2 .5" />
        </g>
        <path d="m6 128h1v-1.5-1.5l-1-1-1-1-2 .5-2 .5-.5 1-.5 1v.5.5l3 .5 3 .5" style="fill:#342419;stroke:#342419" />
    </g>
</svg>
