<svg xmlns="http://www.w3.org/2000/svg" viewBox="0 0 960 616">
    <path d="m0 0h960v616h-960z" style="fill:#454135" />
    <g style="stroke-linejoin:round;stroke-width:.7">
        <path d="m959 616h1v-1.5-1.5-2-2-1-1h-.5-.5v-1.5-1.5-1.5-1.5-1-1-2.5-2.5h-.5-.5v3 3 2 2l-.5 1.5-.5 1.5-4-15.5-4-15.5-4-14-4-14-6.5-11.5-6.5-11.5-4-14-4-14-8.5-13.5-8.5-13.5 6.5 19 6.5 19 1 1.5 1 1.5v2.5 2.5l.5 1.5.5 1.5.5 1.5.5 1.5 1 1.5 1 1.5.5 1 .5 1 7 11.5 7 11.5 4.5 15 4.5 15 3.5 18 3.5 18h3 3" style="fill:#96352d;stroke:#96352d" />
        <path d="m959 607h1v-1.5-1.5-2-2-2.5-2.5-2-2-2.5-2.5-2-2-2.5-2.5-2-2-2-2-2.5-2.5-2-2h-.5-.5v2 2 2 2 2.5 2.5 2 2 2.5 2.5 2 2 2 2 2 2 2.5 2.5 1 1 1.5 1.5 1.5 1.5" style="fill:#78342d;stroke:#78342d" />
        <path d="m959 560h1v-19-19-18-18-18-18-19.5-19.5-18-18-18-18-19.5-19.5-18-18-18-18-19.5-19.5-18-18-18-18-19.5-19.5-18-18-20-20-1-1h-19-19-16-16l-1 17.5-1 17.5-1 17-1 17v18 18l-7 9-7 9-6.5 11.5-6.5 11.5 9 4 9 4 10-1 10-1 4.5 13.5 4.5 13.5 6.5 12 6.5 12 3.5 16.5 3.5 16.5-7 11.5-7 11.5-7 11-7 11-6.5 12.5-6.5 12.5-3 14-3 14-.5 17-.5 17-1 16-1 16-1 9-1 9-8.5-10-8.5-10v-3-3l1.5-15.5 1.5-15.5-1-16.5-1-16.5 3-14 3-14 1.5-15.5 1.5-15.5 3-12.5 3-12.5-2.5-15.5-2.5-15.5-11-7-11-7-13-5.5-13-5.5-9-10-9-10-14.5-1.5-14.5-1.5-13-1.5-13-1.5-8.5-10.5-8.5-10.5-10.5-7.5-10.5-7.5-14 3.5-14 3.5-16 2-16 2-3.5-11.5-3.5-11.5 9.5-9 9.5-9 12.5-6.5 12.5-6.5 15.5-2.5 15.5-2.5h17.5 17.5l17.5-.5 17.5-.5 15 2 15 2 12.5 6 12.5 6 9 10 9 10 3.5-14.5 3.5-14.5.5-18 .5-18v-24-24h-19.5-19.5-20-20-20-20-20-20-20-20-20-20-20-20-19.5-19.5-18-18-18-18-19.5-19.5-18-18-18-18-19.5-19.5-18-18-18-18-19.5-19.5-18-18-18-18-19.5-19.5-18-18-18-18-17-17v2.5 2.5 18 18 18 18 19.5 19.5 18 18 18 18 19.5 19.5 18 18 18 18 19.5 19.5 18 18 20 20 20 20 20 20 .5.5l15.5-1.5 15.5-1.5 8 4 8 4-4 12-4 12 12.5 2 12.5 2-1.5 13.5-1.5 13.5 14.5 4.5 14.5 4.5-15 .5-15 .5-14.5-.5-14.5-.5-15.5 6.5-15.5 6.5v19.5 19.5h.5.5 20 20 20 20 20 20 20 20 20 20 15.5 15.5l3.5-15.5 3.5-15.5 2-8 2-8-10-8-10-8 8.5 1 8.5 1 12.5 5.5 12.5 5.5 14.5 11 14.5 11-1 1-1 1v1 1l-.5.5-.5.5v1 1 1.5 1.5l.5.5.5.5v1 1 1 1 1.5 1.5l-.5.5-.5.5v1 1 1 1 1 1l.5 1.5.5 1.5h20.5 20.5 19.5 19.5l-9.5-7-9.5-7-13.5-4.5-13.5-4.5-13-5-13-5-11.5-6.5-11.5-6.5-11.5-6.5-11.5-6.5-13-6.5-13-6.5-15 2-15 2-16.5-1.5-16.5-1.5-26.5-1.5-26.5-1.5-.5 2.5-.5 2.5v1.5 1.5l-.5 1.5-.5 1.5v1 1l-.5 1-.5 1-1 1-1 1-.5.5-.5.5-1 .5-1 .5-2.5-.5-2.5-.5-1-.5-1-.5-.5-1-.5-1-1-.5-1-.5-1-1-1-1-.5-1-.5-1v-1-1-1-1-1-1-1.5-1.5l.5-1.5.5-1.5v-1-1l.5-1 .5-1-1.5-1.5-1.5-1.5-9.5 9.5-9.5 9.5-2.5-10.5-2.5-10.5-8-13-8-13 .5-1 .5-1v-1-1l-.5-1-.5-1-.5-1.5-.5-1.5-.5-.5-.5-.5-.5-.5-.5-.5v-1-1l-.5-1-.5-1v-1-1-1-1l.5-.5.5-.5 1-.5 1-.5.5-.5.5-.5v-1-1h1 1l1-.5 1-.5.5-.5.5-.5 1-.5 1-.5 14-4.5 14-4.5 14.5-3.5 14.5-3.5 17-2.5 17-2.5 16.5 5 16.5 5 14.5 4 14.5 4 15.5 4.5 15.5 4.5 23 6 23 6 16 3.5 16 3.5 15.5 2.5 15.5 2.5 26.5 4.5 26.5 4.5 8.5-8 8.5-8 17 1.5 17 1.5 16.5.5 16.5.5 14.5-1.5 14.5-1.5 13.5-6 13.5-6 12-5 12-5 14-4 14-4 12-7.5 12-7.5 13-5 13-5 12.5-5.5 12.5-5.5 9-7.5 9-7.5 11 10.5 11 10.5.5-.5.5-.5-1-16.5-1-16.5-9-17-9-17-20.5-4.5-20.5-4.5h-.5-.5l-9-10-9-10-5.5-12.5-5.5-12.5-2-15.5-2-15.5-2.5-11.5-2.5-11.5 2-13 2-13 5-12.5 5-12.5 1-16 1-16 9-20 9-20 22-3 22-3 9.5 10 9.5 10 11 23 11 23 14.5-4.5 14.5-4.5 1 2 1 2 8 16 8 16-3.5 14-3.5 14-13 13-13 13-.5 1.5-.5 1.5-.5 1.5-.5 1.5-.5 1.5-.5 1.5-.5.5-.5.5-.5 1-.5 1-.5 1.5-.5 1.5-.5.5-.5.5-.5 1-.5 1-1 1-1 1-1 1.5-1 1.5-1.5.5-1.5.5-1.5 1-1.5 1-1 .5-1 .5-2.5.5-2.5.5 3.5 14.5 3.5 14.5h1.5 1.5 2 2 2.5 2.5l1.5.5 1.5.5h2 2l2-.5 2-.5 1.5-.5 1.5-.5 2-.5 2-.5h2 2l2-.5 2-.5h2.5 2.5 2 2 1.5 1.5 2 2 1 1 1.5 1.5 2 2 3.5 3.5l11.5 6 11.5 6 6.5 12.5 6.5 12.5 12.5 13.5 12.5 13.5 9.5 9.5 9.5 9.5 11 19 11 19 10 1.5 10 1.5 5.5 12.5 5.5 12.5 6 12 6 12 7.5 23.5 7.5 23.5.5-2 .5-2v-1-1-1-1-1-1l.5-1 .5-1 .5.5.5.5v1 1 1 1 1 1 1.5 1.5 2 2" style="fill:#454135;stroke:#454135" />
        <g style="fill:#5a5567;stroke:#5a5567">
            <path d="m958 594h1v-2-2-2-2-2-2-2.5-2.5-2-2-2.5-2.5-2-2-2-2-2-2-1.5-1.5-1-1-1-1-1-1l-.5-.5-.5-.5-.5 1-.5 1v1 1 1 1 1 1l-.5 2-.5 2v2 2 1.5 1.5l.5 1.5.5 1.5v1 1l.5.5.5.5v1 1 1.5 1.5 2 2 1 1 1.5 1.5 2 2 1 1 1.5 1.5" />
            <path d="m958 543l1-38v-18-18l-1 3-1 3 .5 19 .5 19v15 15" />
            <path d="m958 452l1-38v-18-18-18-18-19.5-19.5l-.5 10.5-.5 10.5-.5 17.5-.5 17.5-.5 19-.5 19 .5 16.5.5 16.5.5 11 .5 11" />
            <path d="m958 288l1-38v-18-18-18-18-19.5-19.5l-.5 15.5-.5 15.5-.5 17.5-.5 17.5.5 17 .5 17v18 18 6.5 6.5" />
            <path d="m958 129l1-38v-18-18-18-18l-10.5-9-10.5-9 9 8 9 8v18 18 18.5 18.5l1 17 1 17v2.5 2.5" />
        </g>
        <path d="m957 607l1-3v-2-2-3-3-1.5-1.5-1-1-2-2-1.5-1.5-1-1-2-2-1.5-1.5-1-1l-.5-.5-.5-.5v-1-1l-.5-1.5-.5-1.5v-1.5-1.5-2-2l-7.5-23.5-7.5-23.5-6-12-6-12-5.5-12.5-5.5-12.5-10-1.5-10-1.5v1.5 1.5l.5 2 .5 2 .5 1 .5 1 1.5 1 1.5 1 8.5 13.5 8.5 13.5 4 14 4 14 6.5 11.5 6.5 11.5 4 14 4 14 4 15.5 4 15.5" style="fill:#78342d;stroke:#78342d" />
        <path d="m952 616h1l-3.5-18-3.5-18-4.5-15-4.5-15-7-11.5-7-11.5 5 14 5 14 4.5 14 4.5 14 4 16.5 4 16.5h1 1" style="fill:#9a524b;stroke:#9a524b" />
        <path d="m949 616h1l-4-16.5-4-16.5-4.5-14-4.5-14-5-14-5-14-.5-1-.5-1-1-1.5-1-1.5-.5-1.5-.5-1.5-.5-1.5-.5-1.5v-2.5-2.5l-1-1.5-1-1.5-.5-1-.5-1-1-1-1-1-.5-1.5-.5-1.5-1-1-1-1-.5-2-.5-2v-2-2l-.5-2-.5-2-.5-1.5-.5-1.5-1-1.5-1-1.5-.5-1.5-.5-1.5-1-.5-1-.5 3 16 3 16 5.5 13.5 5.5 13.5 6 12.5 6 12.5 6.5 27.5 6.5 27.5h1.5 1.5 1 1" style="fill:#c1554d;stroke:#c1554d" />
        <path d="m943 616h1l-6.5-27.5-6.5-27.5-6-12.5-6-12.5-5.5-13.5-5.5-13.5-3-16-3-16-1.5-.5-1.5-.5-.5-1.5-.5-1.5h-.5-.5-1-1v1 1l-.5.5-.5.5-2 .5-2 .5-1.5.5-1.5.5-.5 2.5-.5 2.5 4 14.5 4 14.5 4.5 13.5 4.5 13.5 3.5 14.5 3.5 14.5 8.5 24 8.5 24h2.5 2.5 2 2 2.5 2.5 1 1" style="fill:#ba716b;stroke:#ba716b" />
        <path d="m926 616h1l-8.5-24-8.5-24-3.5-14.5-3.5-14.5-4.5-13.5-4.5-13.5-4-14.5-4-14.5-6-8-6-8-6-4-6-4-15-1.5-15-1.5 11 7 11 7 5 13 5 13 5.5 14 5.5 14 5.5 12.5 5.5 12.5 4.5 13.5 4.5 13.5 5.5 20 5.5 20h3 3l-3.5-15-3.5-15 1 .5 1 .5 5 14.5 5 14.5h1.5 1.5 2.5 2.5.5.5" style="fill:#8b786c;stroke:#8b786c" />
        <path d="m926 236l-7-33-6.5-12-6.5-12-4.5-13.5-4.5-13.5-10 1-10 1-9-4-9-4 6.5-11.5 6.5-11.5 7-9 7-9v-18-18l1-17 1-17 1-17.5 1-17.5h-3.5-3.5-2-2-2.5-2.5-2-2-1-1v24 24l-.5 18-.5 18-3.5 14.5-3.5 14.5-9-10-9-10-12.5-6-12.5-6-15-2-15-2-17.5.5-17.5.5h-17.5-17.5l-15.5 2.5-15.5 2.5-12.5 6.5-12.5 6.5-9.5 9-9.5 9 3.5 11.5 3.5 11.5 16-2 16-2 14-3.5 14-3.5 10.5 7.5 10.5 7.5 8.5 10.5 8.5 10.5 13 1.5 13 1.5 14.5 1.5 14.5 1.5 9 10 9 10 13 5.5 13 5.5 11 7 11 7 2.5 15.5 2.5 15.5-3 12.5-3 12.5-1.5 15.5-1.5 15.5-3 14-3 14 1 16.5 1 16.5-1.5 15.5-1.5 15.5v3 3l8.5 10 8.5 10 1-9 1-9 1-16 1-16 .5-17 .5-17 3-14 3-14 6.5-12.5 6.5-12.5 7-11 7-11 7-11.5 7-11.5" style="fill:#261a0e;stroke:#261a0e" />
        <path d="m916 616h1l-5-14.5-5-14.5-1-.5-1-.5 3.5 15 3.5 15h2 2" style="fill:#765f50;stroke:#765f50" />
        <path d="m916 508l-13-38-1.5-1-1.5-1h-.5-.5l-1.5-1-1.5-1 .5 2.5.5 2.5.5 1 .5 1 .5 1.5.5 1.5 1.5.5 1.5.5 1 .5 1 .5.5 1.5.5 1.5 1 1.5 1 1.5.5 1.5.5 1.5.5 2 .5 2v2 2l.5 2 .5 2 1 1 1 1 .5 1.5.5 1.5 1 1 1 1 .5 1 .5 1" style="fill:#9a524b;stroke:#9a524b" />
        <path d="m905 616h1l-5.5-20-5.5-20-4.5-13.5-4.5-13.5-5.5-12.5-5.5-12.5-5.5-14-5.5-14-5-13-5-13-11-7-11-7 15 1.5 15 1.5 6 4 6 4 6 8 6 8 .5-2.5.5-2.5 1.5-.5 1.5-.5.5-1.5.5-1.5.5-.5.5-.5.5-.5.5-.5v-1.5-1.5l-.5-1.5-.5-1.5v-1-1-1.5-1.5l-.5-1.5-.5-1.5v-1-1l-.5-1-.5-1v-2-2l-.5-.5-.5-.5v-2-2l-16-21.5-16-21.5h-.5-.5l-13.5-14-13.5-14h-.5-.5l-9.5-9-9.5-9-9.5-7-9.5-7h-19-19l-.5.5-.5.5h1.5 1.5 1.5 1.5 2 2 1 1l1-.5 1-.5h1 1 1 1 1 1 1.5 1.5 2 2 1 1l1 .5 1 .5h2 2l8.5 9 8.5 9 13 9.5 13 9.5 9 11.5 9 11.5 11 9 11 9 8 11 8 11-6.5 6-6.5 6-15.5-1.5-15.5-1.5-10 5.5-10 5.5 9.5 9.5 9.5 9.5-.5 14.5-.5 14.5 8 5.5 8 5.5 8.5 9.5 8.5 9.5 6.5 11.5 6.5 11.5 9.5 26 9.5 26h.5.5" style="fill:#9f9489;stroke:#9f9489" />
        <path d="m903 616h1l-9.5-26-9.5-26-6.5-11.5-6.5-11.5-8.5-9.5-8.5-9.5-8-5.5-8-5.5.5-14.5.5-14.5-9.5-9.5-9.5-9.5 10-5.5 10-5.5 15.5 1.5 15.5 1.5 6.5-6 6.5-6v2.5 2.5l-.5 2-.5 2-15-.5-15-.5-16 1-16 1-12 6-12 6-9.5 9-9.5 9-12.5 6.5-12.5 6.5-10.5 7.5-10.5 7.5-12.5-3-12.5-3-3-14-3-14 6.5-25.5 6.5-25.5v1.5 1.5 2.5 2.5 2 2l-.5 2-.5 2-.5 2.5-.5 2.5-.5 1.5-.5 1.5-7 11.5-7 11.5-6 12.5-6 12.5-.5 16.5-.5 16.5 2.5 11.5 2.5 11.5-6.5 12-6.5 12 2 19 2 19h2.5 2.5 2 2 2.5 2.5 2 2 2.5 2.5 2 2 2 2 1 1l1-18 1-18 4.5-13.5 4.5-13.5 7 12.5 7 12.5 1.5 19 1.5 19h3.5 3.5 2 2 2 2l2-15.5 2-15.5 1.5-15.5 1.5-15.5 4.5-15 4.5-15 7 7.5 7 7.5-4.5 14.5-4.5 14.5-7.5 24-7.5 24h2.5 2.5 2 2 1 1l3-16 3-16 5.5-12.5 5.5-12.5 8.5 6.5 8.5 6.5 8.5 18.5 8.5 18.5-.5 2-.5 2v1.5 1.5h2 2 2 2 2.5 2.5 2 2 2.5 2.5 2 2 2 2 2.5 2.5 2 2 2.5 2.5.5.5l-2.5-16.5-2.5-16.5 5.5-5.5 5.5-5.5 8 22 8 22h3.5 3.5 2 2 .5.5" style="fill:#b6b2a6;stroke:#b6b2a6" />
        <path d="m899 468h1l-.5-1-.5-1-.5-2-.5-2v-1.5-1.5l-11-19-11-19-9.5-9.5-9.5-9.5 16 21.5 16 21.5.5 1 .5 1 .5.5.5.5v1 1 1.5 1.5l.5.5.5.5.5.5.5.5.5.5.5.5v1.5 1.5 1 1l.5.5.5.5v1 1l.5 1 .5 1 1.5 1 1.5 1" style="fill:#765f50;stroke:#765f50" />
        <path d="m897 473h1l-.5-1-.5-1-.5-2.5-.5-2.5-.5-1-.5-1v-1-1l-.5-.5-.5-.5v-1-1-1.5-1.5l-.5-.5-.5-.5-.5-.5-.5-.5-.5-.5-.5-.5v-1.5-1.5-1-1l-.5-.5-.5-.5-.5-1-.5-1v2 2l.5.5.5.5v2 2l.5 1 .5 1v1 1l.5 1.5.5 1.5v1.5 1.5 1 1l.5 1.5.5 1.5v1.5 1.5l-.5.5-.5.5-.5.5-.5.5-.5 1.5-.5 1.5 2-.5 2-.5.5-.5.5-.5v-1-1h1 1" style="fill:#8b786c;stroke:#8b786c" />
        <path d="m890 616h1l-8-22-8-22-5.5 5.5-5.5 5.5 2.5 16.5 2.5 16.5h3.5 3.5 5 5 1.5 1.5.5.5" style="fill:#9f9489;stroke:#9f9489" />
        <path d="m885 616h1-5-5 3 3 1.5 1.5" style="fill:#8b786c;stroke:#8b786c" />
        <path d="m884 452l1-4v-2.5-2.5l-8-11-8-11-11-9-11-9-9-11.5-9-11.5h-.5-.5l-8.5-9.5-8.5-9.5-12.5-9-12.5-9h-2-2l-1-.5-1-.5h-1-1-2-2-1.5-1.5-1-1-1-1-1-1l-1 .5-1 .5h-1-1-2-2l-.5.5-.5.5-17.5 1.5-17.5 1.5-13-11.5-13-11.5 10.5-8 10.5-8 10.5-11 10.5-11-2.5-29-2.5-29v-1.5-1.5-2-2l-.5-1.5-.5-1.5-.5-2-.5-2-.5-1.5-.5-1.5-1-1-1-1-1-1.5-1-1.5-1-1.5-1-1.5h-.5-.5l-6.5-12.5-6.5-12.5-6.5-11.5-6.5-11.5-11-5.5-11-5.5 10.5 7 10.5 7 7 12.5 7 12.5 6.5 11.5 6.5 11.5 4 14 4 14 2.5 16 2.5 16-2.5 14.5-2.5 14.5-11 7-11 7-9.5 10-9.5 10 8.5 9.5 8.5 9.5h17 17l17-1.5 17-1.5 9.5 7.5 9.5 7.5 12.5 1.5 12.5 1.5 6 13.5 6 13.5 10.5 7.5 10.5 7.5 8.5 9.5 8.5 9.5 6.5 12 6.5 12h-16.5-16.5l-15 1-15 1-12.5 6.5-12.5 6.5-11.5 6.5-11.5 6.5-12.5 6-12.5 6-16 1-16 1-1.5-14.5-1.5-14.5 2.5-25 2.5-25v3 3 2 2 2.5 2.5l-6.5 25.5-6.5 25.5 3 14 3 14 12.5 3 12.5 3 10.5-7.5 10.5-7.5 12.5-6.5 12.5-6.5 9.5-9 9.5-9 12-6 12-6 16-1 16-1 15 .5 15 .5" style="fill:#cdc8b5;stroke:#cdc8b5" />
        <path d="m881 448l-13-24-8.5-9.5-8.5-9.5-10.5-7.5-10.5-7.5-6-13.5-6-13.5-12.5-1.5-12.5-1.5-9.5-7.5-9.5-7.5-17 1.5-17 1.5h-17-17l-8.5-9.5-8.5-9.5 9.5-10 9.5-10 11-7 11-7 2.5-14.5 2.5-14.5-2.5-16-2.5-16-4-14-4-14-6.5-11.5-6.5-11.5-7-12.5-7-12.5-10.5-7-10.5-7-.5.5-.5.5-13.5 5-13.5 5-5 13.5-5 13.5-1 15-1 15-3.5 12.5-3.5 12.5-4.5 14-4.5 14 2.5 11.5 2.5 11.5 3 12 3 12 6.5 21.5 6.5 21.5 1.5.5 1.5.5 16.5 2.5 16.5 2.5 13 6 13 6 5.5 18 5.5 18v1 1l-2.5 25-2.5 25 1.5 14.5 1.5 14.5 16-1 16-1 12.5-6 12.5-6 11.5-6.5 11.5-6.5 12.5-6.5 12.5-6.5 15-1 15-1h16.5 16.5" style="fill:#eeeadd;stroke:#eeeadd" />
        <path d="m856 402h1l-12.5-13.5-12.5-13.5-6.5-12.5-6.5-12.5-.5.5-.5.5-11-6.5-11-6.5h-3.5-3.5-2-2-1.5-1.5-1-1-2-2-1.5-1.5-2-2v.5.5l16.5 2 16.5 2 13.5 15.5 13.5 15.5 13.5 14 13.5 14" style="fill:#765f50;stroke:#765f50" />
        <path d="m828 380h1l-13-9.5-13-9.5-8.5-9-8.5-9 12.5 9 12.5 9 8.5 9.5 8.5 9.5" style="fill:#b6b2a6;stroke:#b6b2a6" />
        <path d="m828 374h1l-13.5-15.5-13.5-15.5-16.5-2-16.5-2-.5.5-.5.5h-2-2l-2 .5-2 .5h-2-2l-2 .5-2 .5h19 19l9.5 7 9.5 7 9.5 9 9.5 9" style="fill:#8b786c;stroke:#8b786c" />
        <path d="m825 609l-17-37-8.5-6.5-8.5-6.5-5.5 12.5-5.5 12.5-3 16-3 16h18.5 18.5 6.5 6.5v-1.5-1.5l.5-2 .5-2" style="fill:#cdc8b5;stroke:#cdc8b5" />
        <path d="m818 351l1-1-11.5-6-11.5-6 11 6.5 11 6.5" style="fill:#5a5567;stroke:#5a5567" />
        <path d="m787 539l-14-15-4.5 15-4.5 15-1.5 15.5-1.5 15.5-2 15.5-2 15.5h1.5 1.5 1.5 1.5l7.5-24 7.5-24 4.5-14.5 4.5-14.5" style="fill:#9f9489;stroke:#9f9489" />
        <path d="m777 230l-16-32 4.5 23.5 4.5 23.5-7.5-7.5-7.5-7.5-8-8-8-8 1 1.5 1 1.5.5.5.5.5v1.5 1.5l1.5.5 1.5.5.5 2 .5 2 1 1 1 1 .5 1.5.5 1.5.5.5.5.5v1.5 1.5l.5 1.5.5 1.5.5.5.5.5v1.5 1.5 1.5 1.5l-.5 1.5-.5 1.5-1.5-.5-1.5-.5-.5-.5-.5-.5-2-.5-2-.5.5 19.5.5 19.5 13-13 13-13 3.5-14 3.5-14" style="fill:#5a5567;stroke:#5a5567" />
        <path d="m770 332l-29 2 11 1 11 1 3.5-2 3.5-2" style="fill:#261a0e;stroke:#261a0e" />
        <path d="m770 245l-9-47-1-2-1-2-.5.5-.5.5-14 4-14 4-11-23-11-23-9.5-10-9.5-10 7.5 10 7.5 10 9.5 19 9.5 19 7 21 7 21v.5.5l1 2 1 2 .5 1.5.5 1.5 1 1 1 1 .5 2 .5 2 1 1 1 1v2.5 2.5l.5 1.5.5 1.5v2.5 2.5 2 2l-.5 1.5-.5 1.5-1 2-1 2-.5 1.5-.5 1.5v2 2l-1 1.5-1 1.5-1 2-1 2-.5 1.5-.5 1.5v1.5 1.5l-1 1-1 1-1 1-1 1-1 1.5-1 1.5-1 1-1 1-1.5.5-1.5.5-1.5 1-1.5 1 .5 1 .5 1 1-.5 1-.5 1.5-1 1.5-1 1.5-.5 1.5-.5 1-1.5 1-1.5 1-1 1-1 .5-1 .5-1 .5-.5.5-.5.5-1.5.5-1.5.5-1 .5-1 .5-.5.5-.5.5-1.5.5-1.5.5-1.5.5-1.5.5-1.5.5-1.5-.5-19.5-.5-19.5-.5-1.5-.5-1.5v-1-1l-.5-.5-.5-.5-.5-.5-.5-.5-.5-.5-.5-.5v-1.5-1.5-1-1l-.5-.5-.5-.5v-1-1-1.5-1.5-1-1-1-1-1-1-1-1l.5-2 .5-2 8 8 8 8 7.5 7.5 7.5 7.5" style="fill:#765f50;stroke:#765f50" />
        <g style="fill:#5a5567;stroke:#5a5567">
            <path d="m768 340l1-1v-.5-.5h-2.5-2.5l-2 .5-2 .5h-2-2l-2 .5-2 .5-1.5.5-1.5.5-2 .5-2 .5h-2-2l-1.5-.5-1.5-.5h-2.5-2.5-2-2-1.5-1.5v.5.5h2.5 2.5 2.5 2.5l1.5.5 1.5.5h1.5 1.5 1.5 1.5 1.5 1.5 1.5 1.5l.5-.5.5-.5 2-.5 2-.5h2 2l2-.5 2-.5h2 2" />
            <path d="m758 195l1-1-14.5 4.5-14.5 4.5 14-4 14-4" />
        </g>
        <path d="m756 344l1-1h-1.5-1.5-1.5-1.5l-.5.5-.5.5-17 1-17 1-10.5-11-10.5-11 13 11.5 13 11.5 17.5-1.5 17.5-1.5" style="fill:#b6b2a6;stroke:#b6b2a6" />
        <path d="m752 245v-3-1.5-1.5l-.5-.5-.5-.5-.5-1.5-.5-1.5v-1.5-1.5l-.5-.5-.5-.5-.5-1.5-.5-1.5-1-1-1-1-.5-2-.5-2-1.5-.5-1.5-.5v-1.5-1.5l-.5-.5-.5-.5-1-1.5-1-1.5-.5 2-.5 2v1 1 1 1 1 1 1 1 1.5 1.5 1 1l.5.5.5.5v1 1 1.5 1.5l.5.5.5.5.5.5.5.5.5.5.5.5v1 1l.5 1.5.5 1.5 2 .5 2 .5.5.5.5.5 1.5.5 1.5.5.5-1.5.5-1.5" style="fill:#454135;stroke:#454135" />
        <path d="m750 344l1-1h-1.5-1.5-1.5-1.5-1.5-1.5l-.5.5-.5.5-20.5-12-20.5-12-1.5 1.5-1.5 1.5-1 .5-1 .5 10.5 11 10.5 11 17-1 17-1" style="fill:#9f9489;stroke:#9f9489" />
        <path d="m745 273l1-3v-2-2-2.5-2.5l-.5-1.5-.5-1.5v-2.5-2.5l-1-1-1-1-.5-2-.5-2-1-1-1-1-.5-1.5-.5-1.5-1-2-1-2v2 2l.5 1 .5 1 .5 1.5.5 1.5 1 1.5 1 1.5.5 1.5.5 1.5.5 2 .5 2v2 2 2.5 2.5 2 2l-.5 1.5-.5 1.5v1.5 1.5l-.5 1-.5 1v1 1 1 1l-.5.5-.5.5-.5 1-.5 1-.5 1.5-.5 1.5v1.5 1.5l1-2 1-2 1-1.5 1-1.5v-2-2l.5-1.5.5-1.5 1-2 1-2" style="fill:#8b786c;stroke:#8b786c" />
        <g style="fill:#9f9489;stroke:#9f9489">
            <path d="m742 273l1-3v-2-2-2.5-2.5-2-2l-.5-2-.5-2-.5-1.5-.5-1.5-1-1.5-1-1.5-.5-1.5-.5-1.5-.5-1-.5-1v2 2l.5.5.5.5v1 1l.5.5.5.5.5 1 .5 1v1 1l.5.5.5.5v1 1 1.5 1.5 1 1 1 1 1 1 1.5 1.5 1 1 1 1l-.5 1.5-.5 1.5-.5 2-.5 2v1 1l-.5 1-.5 1-.5 1-.5 1v1.5 1.5l.5 1 .5 1v-1.5-1.5l.5-1.5.5-1.5.5-1 .5-1 .5-.5.5-.5v-1-1-1-1l.5-1 .5-1v-1.5-1.5" />
            <path d="m741 616h1l-1.5-19-1.5-19-7-12.5-7-12.5-4.5 13.5-4.5 13.5-1 18-1 18h3.5 3.5 2 2 1.5 1.5v-1.5-1.5-1.5-1.5l.5-2 .5-2 .5-1.5.5-1.5.5-1.5.5-1.5h1.5 1.5l.5 1.5.5 1.5.5 2 .5 2v2 2l-.5 2-.5 2v.5.5h1.5 1.5 1.5 1.5" />
        </g>
        <path d="m741 344l1-1h-1.5-1.5l-1.5-.5-1.5-.5h-2.5-2.5-2.5-2.5-.5-.5l-11.5-11-11.5-11h-1-1l20.5 12 20.5 12" style="fill:#8b786c;stroke:#8b786c" />
        <g style="fill:#b6b2a6;stroke:#b6b2a6">
            <path d="m740 276l1-3v-1-1-1-1-1.5-1.5-1-1-1-1-1-1-1.5-1.5-1-1l-.5-.5-.5-.5v-1-1l-.5-1-.5-1-.5-.5-.5-.5v-1-1l-.5-.5-.5-.5v-2-2h-.5-.5l-.5-1.5-.5-1.5-.5-1.5-.5-1.5-.5-1.5-.5-1.5-.5-2.5-.5-2.5 2.5 29 2.5 29 .5-1 .5-1 .5-1 .5-1v-1-1l.5-2 .5-2" />
            <path d="m737 294l1-3-.5-1-.5-1v-1.5-1.5l-10.5 11-10.5 11-10.5 8-10.5 8 1-.5 1-.5 1.5-1.5 1.5-1.5h1 1l1.5-.5 1.5-.5.5-1.5.5-1.5 1.5-1 1.5-1 1-1 1-1 2-.5 2-.5 2 .5 2 .5 2.5-.5 2.5-.5-.5-1-.5-1 1.5-1 1.5-1 1.5-.5 1.5-.5 1-1 1-1 1-1.5 1-1.5 1-1 1-1 1-1 1-1v-1.5-1.5" />
        </g>
        <path d="m736 242h1v-2-2-.5-.5h-.5-.5l-6.5-19-6.5-19v2 2l1 1.5 1 1.5 1 1.5 1 1.5 1 1 1 1 .5 1.5.5 1.5.5 2 .5 2 .5 1.5.5 1.5v2 2 1.5 1.5l.5 2.5.5 2.5.5 1.5.5 1.5.5 1.5.5 1.5.5 1.5.5 1.5" style="fill:#9f9489;stroke:#9f9489" />
        <g style="fill:#8b786c;stroke:#8b786c">
            <path d="m736 237h1l-7-21-7-21v2 2l6.5 19 6.5 19" />
            <path d="m735 615l1-4v-2-2l-.5-2-.5-2-.5-1.5-.5-1.5h-1.5-1.5l-.5 1.5-.5 1.5-.5 1.5-.5 1.5-.5 2-.5 2v1.5 1.5 1.5 1.5h3 3 .5.5v-.5-.5" />
        </g>
        <path d="m725 342h1v-.5-.5l-3.5-14.5-3.5-14.5-2-.5-2-.5-2 .5-2 .5-1 1-1 1-1.5 1-1.5 1-.5 1.5-.5 1.5-1.5.5-1.5.5 11.5 11 11.5 11" style="fill:#765f50;stroke:#765f50" />
        <path d="m722 203h1v-2-2-2-2l-9.5-19-9.5-19-7.5-10-7.5-10-22 3-22 3-7 18.5-7 18.5 1-1 1-1 1-1 1-1v1.5 1.5l5-13.5 5-13.5 14.5-4 14.5-4 11 5.5 11 5.5 6.5 11.5 6.5 11.5 6.5 12.5 6.5 12.5" style="fill:#b6b2a6;stroke:#b6b2a6" />
        <path d="m722 158l-14-23 5 7 5 7 2 4.5 2 4.5" style="fill:#5a5567;stroke:#5a5567" />
        <g style="fill:#261a0e;stroke:#261a0e">
            <path d="m718 323l1-3-.5-1.5-.5-1.5-2 .5-2 .5-1 1-1 1-.5 2-.5 2 1.5.5 1.5.5 2-.5 2-.5v-.5-.5" />
            <path d="m717 334l1-3-1-1-1-1-2-.5-2-.5-1.5.5-1.5.5.5 2 .5 2 1 1 1 1h1.5 1.5l1-.5 1-.5" />
        </g>
        <path d="m714 442l1-4v-2-2-2.5-2.5-1.5-1.5-2.5-2.5-2-2-3-3-1-1h-.5-.5l-7-18.5-7-18.5h-.5-.5l-1.5-.5-1.5-.5-.5-.5-.5-.5h-1-1-1-1l-.5-.5-.5-.5h-1.5-1.5l-.5-.5-.5-.5-.5-.5-.5-.5h-2-2-.5-.5l-1.5-.5-1.5-.5h-1.5-1.5l-1.5-.5-1.5-.5h-1-1l-1-.5-1-.5h-2-2-1-1-1.5-1.5l-2-1-2-1v-.5-.5l-1-.5-1-.5h-1-1l-.5-.5-.5-.5-1-.5-1-.5-1-1-1-1-1.5-.5-1.5-.5-5.5-13.5-5.5-13.5-2-13-2-13-.5-12.5-.5-12.5.5-22.5.5-22.5.5-1 .5-1 1-1 1-1 .5-.5.5-.5v-1-1l.5-.5.5-.5v-1.5-1.5l.5-.5.5-.5-.5-.5-.5-.5v-1-1l-1-1.5-1-1.5-1-1-1-1-.5-1.5-.5-1.5v-2.5-2.5l.5-1.5.5-1.5.5-2 .5-2v-1.5-1.5l.5 14 .5 14-7 11-7 11 .5 14 .5 14 .5 12.5.5 12.5 2 12 2 12 6 11.5 6 11.5 8 10.5 8 10.5 20.5 4.5 20.5 4.5 7.5 10 7.5 10 3 24.5 3 24.5-.5-1-.5-1-.5.5-.5.5-.5 1-.5 1-1 1-1 1-1 1-1 1v1.5 1.5l-1 1-1 1-.5 1-.5 1h1.5 1.5l.5-1 .5-1 1.5-.5 1.5-.5 1-1.5 1-1.5 1-1 1-1 .5-2.5.5-2.5" style="fill:#8b786c;stroke:#8b786c" />
        <path d="m714 409h1l-5.5-18-5.5-18-13-6-13-6-16.5-2.5-16.5-2.5 1 1 1 1 1 .5 1 .5.5.5.5.5h1 1l1 .5 1 .5 23 5.5 23 5.5 7 18.5 7 18.5" style="fill:#cdc8b5;stroke:#cdc8b5" />
        <path d="m712 450l1-3-1 1-1 1-1 1.5-1 1.5-1.5.5-1.5.5-.5 1-.5 1-.5.5-.5.5-.5 1.5-.5 1.5-.5 1.5-.5 1.5-1.5 1-1.5 1-.5 1.5-.5 1.5-1.5.5-1.5.5-.5 1-.5 1-.5 1-.5 1-1.5.5-1.5.5h-2-2l-2 .5-2 .5h-2-2l-1-1.5-1-1.5 1.5.5 1.5.5.5-1.5.5-1.5-14 1-14 1-11.5 5.5-11.5 5.5-7.5 11-7.5 11-9.5 17.5-9.5 17.5h2 2 1.5 1.5l.5 1.5.5 1.5h1 1l.5.5.5.5.5.5.5.5.5 1 .5 1 11.5 7.5 11.5 7.5 9 8.5 9 8.5v19 19h1.5 1.5 2 2 2.5 2.5 2 2 2 2 2.5 2.5 2 2 1.5 1.5l-2-19-2-19 6.5-12 6.5-12-2.5-11.5-2.5-11.5.5-16.5.5-16.5 6-12.5 6-12.5 7-11.5 7-11.5" style="fill:#9f9489;stroke:#9f9489" />
        <path d="m712 443l-6-49-7.5-10-7.5-10 9 17 9 17 1 16.5 1 16.5.5 1 .5 1" style="fill:#5a5567;stroke:#5a5567" />
        <path d="m709 444l1-2-11-10.5-11-10.5-9 7.5-9 7.5-12.5 5.5-12.5 5.5-13 5-13 5-12 7.5-12 7.5-14 4-14 4-12 5-12 5-13.5 6-13.5 6-14.5 1.5-14.5 1.5-16.5-.5-16.5-.5-17-1.5-17-1.5-8.5 8-8.5 8 .5 1 .5 1 2 .5 2 .5 1.5.5 1.5.5 1 1 1 1h1.5 1.5l13.5-4 13.5-4 28.5.5 28.5.5 14.5-3.5 14.5-3.5 22.5-7 22.5-7 23.5-12 23.5-12 1-1 1-1 2-.5 2-.5 1.5-.5 1.5-.5 1.5-.5 1.5-.5.5-.5.5-.5.5-1 .5-1 1.5-.5 1.5-.5h1 1l.5-1 .5-1 1.5-.5 1.5-.5.5-.5.5-.5 1-.5 1-.5 2-1 2-1 13.5-5.5 13.5-5.5 12 2 12 2h1.5 1.5l1-1 1-1 1-1 1-1" style="fill:#78342d;stroke:#78342d" />
        <path d="m705 451v-3h-1.5-1.5-.5-.5l-1-1-1-1-2-.5-2-.5.5 1 .5 1 .5 1.5.5 1.5.5 2 .5 2-.5 1.5-.5 1.5.5 1 .5 1 1.5-1 1.5-1 .5-1 .5-1 .5-1 .5-1 1-1 1-1" style="fill:#9a524b;stroke:#9a524b" />
        <path d="m704 456l1-1h-1.5-1.5l-.5 1-.5 1-1.5 1-1.5 1h-.5-.5l-19.5 1.5-19.5 1.5-19 8.5-19 8.5-.5 1-.5 1-9 10-9 10-13.5-.5-13.5-.5-19.5 6-19.5 6-.5 1-.5 1-.5.5-.5.5h1.5 1.5l1 .5 1 .5v.5.5l12-5 12-5 4 8.5 4 8.5 1-2 1-2v2 2l.5 1.5.5 1.5 2 .5 2 .5-.5 1.5-.5 1.5v2.5 2.5l.5 1.5.5 1.5-.5 2-.5 2-5.5 9.5-5.5 9.5-7 15-7 15-1 .5-1 .5-.5 2.5-.5 2.5v2 2l-.5 2-.5 2v2 2 3 3h1.5 1.5 1 1l4.5-14.5 4.5-14.5 6.5-11.5 6.5-11.5 12.5-2.5 12.5-2.5 13 5.5 13 5.5 6 13 6 13v2 2l-.5 2-.5 2-.5 1.5-.5 1.5v2.5 2.5l.5 2 .5 2h2 2 2 2 2 2 .5.5v-19-19l-9-8.5-9-8.5-11.5-7.5-11.5-7.5h-.5-.5l-2-.5-2-.5-1.5-.5-1.5-.5-1.5-1-1.5-1-1-1.5-1-1.5 9.5-17.5 9.5-17.5 7.5-11 7.5-11 11.5-5.5 11.5-5.5 14-1 14-1 2.5.5 2.5.5 1.5-.5 1.5-.5h1.5 1.5l2-.5 2-.5 1.5-.5 1.5-.5.5-1.5.5-1.5 1.5-1 1.5-1 .5-1.5.5-1.5.5-1.5.5-1.5" style="fill:#ba716b;stroke:#ba716b" />
        <path d="m701 448h1l-12-2-12-2-13.5 5.5-13.5 5.5h2 2l1 .5 1 .5 1.5.5 1.5.5.5-.5.5-.5h1.5 1.5l1.5-.5 1.5-.5h1 1 2 2l1-.5 1-.5 1-1 1-1 1.5-1 1.5-1 .5-1.5.5-1.5 1.5-1 1.5-1 1.5-.5 1.5-.5h2.5 2.5l1.5.5 1.5.5 2 .5 2 .5 1 1 1 1" style="fill:#96352d;stroke:#96352d" />
        <path d="m699 372h1l-23-5.5-23-5.5v.5.5h1.5 1.5 2 2 2 2 2.5 2.5l1.5.5 1.5.5 1.5 1 1.5 1 1.5.5 1.5.5 1 .5 1 .5h2 2l.5.5.5.5.5.5.5.5h1.5 1.5l.5.5.5.5h1 1 1 1l.5.5.5.5 1.5.5 1.5.5" style="fill:#b6b2a6;stroke:#b6b2a6" />
        <path d="m697 459h1l-.5-1-.5-1 .5-1.5.5-1.5-.5-2-.5-2-.5-1.5-.5-1.5h-.5-.5l-1.5.5-1.5.5h-2-2l-1 1.5-1 1.5-.5 1.5-.5 1.5-1.5.5-1.5.5-2 .5-2 .5h-1.5-1.5-.5-.5l-1.5.5-1.5.5-1.5.5-1.5.5-1.5 1-1.5 1-1.5.5-1.5.5-2 .5-2 .5 19.5-1.5 19.5-1.5" style="fill:#c1554d;stroke:#c1554d" />
        <path d="m695 447h1l-.5-1-.5-1-1.5-.5-1.5-.5h-2.5-2.5l-1.5.5-1.5.5-1.5 1-1.5 1-.5 1.5-.5 1.5-1.5 1-1.5 1-1 1-1 1-1 .5-1 .5 1 .5 1 .5h1.5 1.5l2-.5 2-.5 1.5-.5 1.5-.5.5-1.5.5-1.5 1-1.5 1-1.5h2 2l1.5-.5 1.5-.5" style="fill:#b63a2d;stroke:#b63a2d" />
        <path d="m694 470l1-2-2 .5-2 .5h-1.5-1.5l-1.5.5-1.5.5-2.5-.5-2.5-.5-.5 1.5-.5 1.5-1.5-.5-1.5-.5 1 1.5 1 1.5h2 2l2-.5 2-.5h2 2l1.5-.5 1.5-.5.5-1 .5-1" style="fill:#8b786c;stroke:#8b786c" />
        <path d="m680 367h1l-1-.5-1-.5-1.5-.5-1.5-.5-1.5-1-1.5-1-1.5-.5-1.5-.5h-2.5-2.5-2-2-2-2-1.5-1.5l2 1 2 1h1.5 1.5 1 1 2 2l1 .5 1 .5h1 1l1.5.5 1.5.5h1.5 1.5l1.5.5 1.5.5" style="fill:#9f9489;stroke:#9f9489" />
        <path d="m674 456h1l-1-.5-1-.5h-2-2-1-1l-1.5.5-1.5.5h-1.5-1.5l-.5.5-.5.5-1.5-.5-1.5-.5-1-.5-1-.5h-2-2l-2 1-2 1-1 .5-1 .5-.5.5-.5.5-1.5.5-1.5.5-.5 1-.5 1h-1-1l-1.5.5-1.5.5-.5 1-.5 1-.5.5-.5.5-1.5.5-1.5.5-1.5.5-1.5.5-2 .5-2 .5-1 1-1 1-.5 1-.5 1-1 1-1 1-1 1.5-1 1.5-1.5.5-1.5.5-2 1.5-2 1.5h1.5 1.5l1.5-.5 1.5-.5h1 1l.5-.5.5-.5 1-.5 1-.5 19-8.5 19-8.5 2-.5 2-.5 1.5-.5 1.5-.5 1.5-1 1.5-1 1.5-.5 1.5-.5 1.5-.5 1.5-.5" style="fill:#9a524b;stroke:#9a524b" />
        <path d="m673 145l1-1-14.5 4-14.5 4-5 13.5-5 13.5h-.5-.5l-1 2-1 2-.5 1.5-.5 1.5v2.5 2.5 2.5 2.5 1.5 1.5 1 1 1.5 1.5l-.5 1.5-.5 1.5.5 2 .5 2 .5 1.5.5 1.5 1 1.5 1 1.5.5 1.5.5 1.5-.5 1.5-.5 1.5-.5 2-.5 2-1 1.5-1 1.5-2 1-2 1-.5 22.5-.5 22.5.5 12.5.5 12.5 2 13 2 13 5.5 13.5 5.5 13.5-6.5-21.5-6.5-21.5-3-12-3-12-2.5-11.5-2.5-11.5 4.5-14 4.5-14 3.5-12.5 3.5-12.5 1-15 1-15 5-13.5 5-13.5 13.5-5 13.5-5" style="fill:#cdc8b5;stroke:#cdc8b5" />
        <path d="m649 365h1l-8-10.5-8-10.5-6-11.5-6-11.5-2-12-2-12-.5-12.5-.5-12.5-.5-14-.5-14 7-11 7-11-.5-14-.5-14 .5-1 .5-1v-1.5-1.5-2.5-2.5l.5-2 .5-2 7-18.5 7-18.5-9 20-9 20-1 16-1 16-5 12.5-5 12.5-2 13-2 13 2.5 11.5 2.5 11.5 2 15.5 2 15.5 5.5 12.5 5.5 12.5 9 10 9 10" style="fill:#5a5567;stroke:#5a5567" />
        <path d="m642 524l-20 5 4.5 5.5 4.5 5.5 5.5-8 5.5-8" style="fill:#b6b2a6;stroke:#b6b2a6" />
        <path d="m637 596l-12-26-13-5.5-13-5.5-12.5 2.5-12.5 2.5-6.5 11.5-6.5 11.5-4.5 14.5-4.5 14.5h3 3 2 2 1 1l5.5-13.5 5.5-13.5 6 1 6 1 5.5-4 5.5-4 9.5-6.5 9.5-6.5 8.5 23 8.5 23h1 1l-.5-2-.5-2v-2.5-2.5l.5-1.5.5-1.5.5-2 .5-2v-2-2" style="fill:#c1554d;stroke:#c1554d" />
        <path d="m634 223l1-3-.5-1.5-.5-1.5-1-1.5-1-1.5-.5-1.5-.5-1.5-.5-2-.5-2 .5-1.5.5-1.5v-1.5-1.5-1-1-1.5-1.5l-.5 1-.5 1v1 1l-.5 1-.5 1v1 1 1 1 1 1 1.5 1.5l.5 1.5.5 1.5 1 1.5 1 1.5v1 1l.5.5.5.5-.5.5-.5.5v1.5 1.5l-.5.5-.5.5v1 1l-.5.5-.5.5-1 1-1 1-.5 1-.5 1 2-1 2-1 1-1.5 1-1.5.5-2 .5-2" style="fill:#b6b2a6;stroke:#b6b2a6" />
        <path d="m634 179h1v-1.5-1.5l-1 1-1 1-1 1-1 1-.5 2-.5 2v2.5 2.5 1.5 1.5l-.5 1-.5 1v1.5 1.5l-.5 2-.5 2-.5 1.5-.5 1.5v2.5 2.5l.5 1.5.5 1.5 1 1 1 1-.5-1.5-.5-1.5v-1.5-1.5-1-1-1-1-1-1l.5-1 .5-1v-1-1l.5-1 .5-1v-2.5-2.5-2.5-2.5l.5-1.5.5-1.5 1-2 1-2" style="fill:#9f9489;stroke:#9f9489" />
        <path d="m633 616h1l-8.5-23-8.5-23-9.5 6.5-9.5 6.5-5.5 4-5.5 4-6-1-6-1-5.5 13.5-5.5 13.5h3.5 3.5 2 2 2 2 2.5 2.5 2 2 2.5 2.5 2 2 1.5 1.5l3-14.5 3-14.5 7.5 14.5 7.5 14.5h2 2 2 2 2 2" style="fill:#d44030;stroke:#d44030" />
        <path d="m620 616h1l-7.5-14.5-7.5-14.5-3 14.5-3 14.5h2.5 2.5 2 2 2.5 2.5 2 2 1 1" style="fill:#bc3200;stroke:#bc3200" />
        <path d="m620 473l1-2-23.5 12-23.5 12h1.5 1.5l2.5.5 2.5.5 1-.5 1-.5 1.5-1 1.5-1 1.5-.5 1.5-.5h2.5 2.5l1.5-.5 1.5-.5 1.5-1 1.5-1 .5-1.5.5-1.5 1-1 1-1 2.5-1 2.5-1 2-1.5 2-1.5 1.5-.5 1.5-.5 1-1.5 1-1.5 1-1 1-1" style="fill:#96352d;stroke:#96352d" />
        <path d="m619 481l1-2-1 .5-1 .5-.5.5-.5.5h-1-1l-1.5.5-1.5.5h-1.5-1.5l-.5.5-.5.5-.5 1-.5 1-.5.5-.5.5-.5.5-.5.5-.5.5-.5.5-.5 1-.5 1-1 1-1 1-.5.5-.5.5-.5.5-.5.5-.5.5-.5.5-1 .5-1 .5h-1-1-1-1-1-1l-1 .5-1 .5h-1-1-1.5-1.5-.5-.5l-1 .5-1 .5-1 .5-1 .5-2 .5-2 .5 13.5.5 13.5.5 9-10 9-10" style="fill:#c1554d;stroke:#c1554d" />
        <path d="m608 483l1-1-2.5 1-2.5 1-1 1-1 1-.5 1.5-.5 1.5-1.5 1-1.5 1-1.5.5-1.5.5h-2.5-2.5l-1.5.5-1.5.5-1.5 1-1.5 1-1 .5-1 .5.5.5.5.5h1.5 1.5 1 1l1-.5 1-.5h1 1 1 1 1 1l1-.5 1-.5.5-.5.5-.5.5-.5.5-.5.5-.5.5-.5 1-1 1-1 .5-1 .5-1 .5-.5.5-.5.5-.5.5-.5.5-.5.5-.5.5-1 .5-1" style="fill:#b63a2d;stroke:#b63a2d" />
        <path d="m607 546h1l-.5-1-.5-1-.5-.5-.5-.5-.5-.5-.5-.5h-1-1l-.5-1.5-.5-1.5h-1.5-1.5-2-2l1 1.5 1 1.5 1.5 1 1.5 1 1.5.5 1.5.5 2 .5 2 .5" style="fill:#8b786c;stroke:#8b786c" />
        <path d="m582 497h1l-.5-.5-.5-.5-2.5-.5-2.5-.5h-1.5-1.5l-22.5 7-22.5 7-14.5 3.5-14.5 3.5-.5.5-.5.5-3 .5-3 .5h-2-2-2.5-2.5l-1.5.5-1.5.5h-1.5-1.5l2.5.5 2.5.5h2.5 2.5l1.5.5 1.5.5h2 2 1.5 1.5 2 2 2 2l1-.5 1-.5h1 1l.5-.5.5-.5h1.5 1.5l.5-.5.5-.5h1 1l.5-.5.5-.5h1 1l.5-.5.5-.5 1-.5 1-.5h1 1l.5-.5.5-.5h1 1l1-.5 1-.5h1 1l1.5-.5 1.5-.5 19.5-6 19.5-6 2-.5 2-.5 1-.5 1-.5 1-.5 1-.5" style="fill:#9a524b;stroke:#9a524b" />
        <path d="m576 543l1-4-.5-1.5-.5-1.5v-2.5-2.5l.5-1.5.5-1.5-2-.5-2-.5-.5-1.5-.5-1.5v-2-2l-1 2-1 2-.5 1-.5 1-4.5 15-4.5 15-4.5 18-4.5 18 7-15 7-15 5.5-9.5 5.5-9.5" style="fill:#8b786c;stroke:#8b786c" />
        <path d="m569 526l1-2-4-8.5-4-8.5-12 5-12 5-1.5.5-1.5.5h-2-2l-1.5 1-1.5 1-1.5.5-1.5.5-1.5 1-1.5 1-1.5-.5-1.5-.5-1.5 1-1.5 1-1.5.5-1.5.5h-2-2l-7 13-7 13v14 14l3 18.5 3 18.5h2 2 2.5 2.5 2 2 2.5 2.5 2 2 2 2 2.5 2.5 2 2 2.5 2.5 2 2 .5.5v-1.5-1.5l-.5-1.5-.5-1.5-1 1.5-1 1.5v-2-2-2-2l.5-2 .5-2 .5-1.5.5-1.5.5 1 .5 1 .5.5.5.5.5-1.5.5-1.5.5-2.5.5-2.5 1-.5 1-.5 4.5-18 4.5-18 4.5-15 4.5-15" style="fill:#9f9489;stroke:#9f9489" />
        <g style="fill:#8b786c;stroke:#8b786c">
            <path d="m547 606l1-4v-2-2l-.5 1.5-.5 1.5-.5-.5-.5-.5-.5-1-.5-1-.5 1.5-.5 1.5-.5 2-.5 2v2 2 2 2l1-1.5 1-1.5.5 1.5.5 1.5v1.5 1.5h.5.5v-3-3-2-2" />
            <path d="m538 516l-2-1h-1.5-1.5l.5-.5.5-.5.5-1 .5-1-1.5.5-1.5.5h-1-1l-1 .5-1 .5h-1-1l-.5.5-.5.5h-1-1l-1 .5-1 .5-.5.5-.5.5h-1-1l-.5.5-.5.5h-1-1l-.5.5-.5.5h-1.5-1.5l-.5.5-.5.5h-1-1l-1 .5-1 .5 2 .5 2 .5 1.5-.5 1.5-.5.5.5.5.5-1 .5-1 .5-1.5.5-1.5.5v.5.5h2 2l1.5-.5 1.5-.5 1.5-1 1.5-1 1.5.5 1.5.5 1.5-1 1.5-1 1.5-.5 1.5-.5 1.5-1 1.5-1h2 2l1.5-.5 1.5-.5v-.5-.5" />
        </g>
        <path d="m514 522l-1-1-1.5.5-1.5.5-2-.5-2-.5h-2-2-2-2l-.5.5-.5.5-9.5 9-9.5 9 4.5 14 4.5 14 1.5 24 1.5 24h1.5 1.5 2 2 2 2l-3-18.5-3-18.5v-14-14l7-13 7-13v-.5-.5l1.5-.5 1.5-.5 1-.5 1-.5" style="fill:#ba716b;stroke:#ba716b" />
        <path d="m499 517l1-1-28.5-.5-28.5-.5-13.5 4-13.5 4h1.5 1.5 13.5 13.5l16-2 16-2h1.5 1.5l1.5-.5 1.5-.5h2.5 2.5 2 2l3-.5 3-.5" style="fill:#96352d;stroke:#96352d" />
        <path d="m497 522l1-1h-1.5-1.5-2-2l-1.5-.5-1.5-.5h-2.5-2.5l-.5.5-.5.5-1 .5-1 .5-1 .5-1 .5-1 1-1 1-.5.5-.5.5-9 8-9 8-16-7.5-16-7.5-1.5-.5-1.5-.5-1.5-.5-1.5-.5 5.5 18 5.5 18 6-7.5 6-7.5 15 10 15 10-2 25-2 25h2.5 2.5l1.5-16 1.5-16 5.5 16 5.5 16h1.5 1.5l-1.5-24-1.5-24-4.5-14-4.5-14 9.5-9 9.5-9" style="fill:#c1554d;stroke:#c1554d" />
        <g style="fill:#b63a2d;stroke:#b63a2d">
            <path d="m486 616h1l-5.5-16-5.5-16-1.5 16-1.5 16h1.5 1.5 2 2 2.5 2.5.5.5" />
            <path d="m482 521l1-1-2.5-.5-2.5-.5-16 2-16 2h-13.5-13.5v1 1l1.5.5 1.5.5 1.5.5 1.5.5 25.5-1 25.5-1 1-1 1-1 1-.5 1-.5 1-.5 1-.5" />
        </g>
        <path d="m475 526l1-1-25.5 1-25.5 1 16 7.5 16 7.5 9-8 9-8" style="fill:#d44030;stroke:#d44030" />
        <path d="m472 566l-30-20-6 7.5-6 7.5v2 2l.5.5.5.5v1 1 1.5 1.5 1 1 1.5 1.5l.5 1.5.5 1.5.5.5.5.5.5.5.5.5h.5.5l.5-2.5.5-2.5v-2-2l.5-2 .5-2 .5-1.5.5-1.5 1.5-1 1.5-1 1.5-.5 1.5-.5 1 .5 1 .5.5-.5.5-.5 1.5 1 1.5 1 .5-1.5.5-1.5h1 1l.5.5.5.5h1 1l1 .5 1 .5.5-.5.5-.5.5.5.5.5v1 1l1 .5 1 .5 1 1 1 1v1.5 1.5l1 2 1 2v2 2 2.5 2.5 2 2l-.5 2-.5 2v2 2l-.5 2-.5 2-.5 1.5-.5 1.5-.5 2.5-.5 2.5v1.5 1.5 2.5 2.5h2 2 1 1l2-25 2-25" style="fill:#ba716b;stroke:#ba716b" />
        <path d="m465 592l1-4v-2-2-2.5-2.5-2-2l-1-2-1-2h-.5-.5v3 3l-.5 1.5-.5 1.5v2 2l-.5.5-.5.5v1.5 1.5 2 2l-.5.5-.5.5v1.5 1.5h1 1v2.5 2.5 2 2 1.5 1.5l.5-2.5.5-2.5.5-1.5.5-1.5.5-2 .5-2v-2-2" style="fill:#8b786c;stroke:#8b786c" />
        <path d="m463 571h1v-1.5-1.5l-1-1-1-1h-.5-.5v1 1l-1.5.5-1.5.5-2-.5-2-.5-1.5-.5-1.5-.5-.5-1.5-.5-1.5-1.5-1-1.5-1-.5.5-.5.5-1-.5-1-.5-1.5.5-1.5.5-1.5 1-1.5 1-.5 1.5-.5 1.5-.5 2-.5 2v2 2 1.5 1.5 1 1 1 1 1 1 1 1 1 1 1.5 1.5 1 1 1 1 1 1 1.5 1.5 1 1 1 1 1 1 1.5 1.5 1 1l.5.5.5.5v1.5 1.5h2 2 2 2 2 2 2.5 2.5 2 2 2 2v-2.5-2.5-1.5-1.5-1.5-1.5-2-2-2.5-2.5h-1-1v-1.5-1.5l.5-.5.5-.5v-2-2-1.5-1.5l.5-.5.5-.5v-2-2l.5-1.5.5-1.5v-3-3" style="fill:#9f9489;stroke:#9f9489" />
        <g style="fill:#8b786c;stroke:#8b786c">
            <path d="m461 566h1l-1-.5-1-.5v-1-1l-.5-.5-.5-.5-.5.5-.5.5-1-.5-1-.5h-1-1l-.5-.5-.5-.5h-1-1l-.5 1.5-.5 1.5.5 1.5.5 1.5 1.5.5 1.5.5 2 .5 2 .5 1.5-.5 1.5-.5v-1-1" />
            <path d="m436 616h1v-1.5-1.5l-.5-.5-.5-.5v-1-1-1.5-1.5-1-1-1-1-1-1-1.5-1.5-1-1-1-1-1-1-1.5-1.5-1-1-1-1-1-1-1-1-1-1-1.5-1.5l-.5 2.5-.5 2.5h-.5-.5l-.5-.5-.5-.5-.5-.5-.5-.5-.5-1.5-.5-1.5v1.5 1.5 1.5 1.5 2 2l-.5 1.5-.5 1.5-1 1-1 1h-.5-.5l-4.5-9-4.5-9-2.5-20-2.5-20-.5-2-.5-2-11-7.5-11-7.5-17-2-17-2-31.5-5-31.5-5 2 1 2 1 1.5.5 1.5.5 2 .5 2 .5 1.5.5 1.5.5h2.5 2.5l1.5.5 1.5.5 2 .5 2 .5 1.5.5 1.5.5 1 .5 1 .5 1.5.5 1.5.5h1.5 1.5 2 2l18.5 1.5 18.5 1.5 14 4 14 4 5.5 12.5 5.5 12.5 2.5 17 2.5 17 1.5 18 1.5 18h3 3 2 2 2 2l.5-1.5.5-1.5-.5-2-.5-2v-2-2-2-2l.5-2 .5-2 1-1 1-1v2.5 2.5 2 2 2.5 2.5 2 2 1.5 1.5h.5.5" />
        </g>
        <path d="m434 616h1v-1.5-1.5-2-2-2.5-2.5-2-2-2.5-2.5l-1 1-1 1-.5 2-.5 2v2 2 2 2l.5 2 .5 2-.5 1.5-.5 1.5h1 1" style="fill:#ba716b;stroke:#ba716b" />
        <path d="m430 589l1-3v-2-2-1.5-1.5-1.5-1.5-1.5-1.5-1-1-1.5-1.5-1-1l-.5-.5-.5-.5v-2-2l-5.5-18-5.5-18v-1-1h-1.5-1.5-1.5-1.5l-.5 2-.5 2v1 1l.5 2 .5 2 5.5 13 5.5 13 2 16 2 16 1-1 1-1" style="fill:#9a524b;stroke:#9a524b" />
        <path d="m427 591h1l-2-16-2-16-5.5-13-5.5-13 2.5 20 2.5 20 4.5 9 4.5 9" style="fill:#765f50;stroke:#765f50" />
        <path d="m417 616h1l-1.5-18-1.5-18-2.5-17-2.5-17-5.5-12.5-5.5-12.5-14-4-14-4-18.5-1.5-18.5-1.5 16.5 2 16.5 2 14.5 3.5 14.5 3.5 6 13 6 13 2 31 2 31-15-1-15-1-20-6.5-20-6.5 1.5 1 1.5 1 1.5.5 1.5.5.5.5.5.5h1.5 1.5l1.5.5 1.5.5.5.5.5.5 1 .5 1 .5 1 .5 1 .5-13-5-13-5-1-1-1-1-1.5-.5-1.5-.5-2-.5-2-.5-1.5-.5-1.5-.5-1.5-.5-1.5-.5-.5-.5-.5-.5-1.5-1-1.5-1-19-9.5-19-9.5-1-.5-1-.5-1-1-1-1-2-.5-2-.5h-.5-.5l-1-.5-1-.5-1.5-.5-1.5-.5-1-1-1-1-1.5-.5-1.5-.5h-1-1l-.5-1-.5-1-1.5-.5-1.5-.5-.5-.5-.5-.5-1-.5-1-.5-1-1-1-1-2-.5-2-.5-1-1-1-1h-.5-.5l-14-2.5-14-2.5-17 .5-17 .5h-1.5-1.5-.5-.5-1.5-1.5-1-1-1.5-1.5-2-2l-.5-.5-.5-.5-1-.5-1-.5-1.5-.5-1.5-.5-.5-.5-.5-.5h-1.5-1.5-2-2-2-2-.5-.5-2.5-2.5l-2-.5-2-.5h-2-2-2.5-2.5-2-2-2-2l-2.5.5-2.5.5h-7-7v-1.5-1.5h-.5-.5-.5-.5v1.5 1.5l-1.5.5-1.5.5v1 1l-.5 1.5-.5 1.5v2.5 2.5l.5 1.5.5 1.5.5 2.5.5 2.5 1 .5 1 .5.5 1 .5 1 1 .5 1 .5-.5-1-.5-1 2-.5 2-.5h2 2l.5-1.5.5-1.5 1-1.5 1-1.5.5-1.5.5-1.5.5-2 .5-2 .5-1 .5-1 26.5 1.5 26.5 1.5 16.5 1.5 16.5 1.5 15-2 15-2 13 6.5 13 6.5 11.5 6.5 11.5 6.5 11.5 6.5 11.5 6.5 13 5 13 5 13.5 4.5 13.5 4.5 9.5 7 9.5 7h2.5 2.5 1.5 1.5l.5-2 .5-2 10 2 10 2h3.5 3.5 2 2 2.5 2.5" style="fill:#9f9489;stroke:#9f9489" />
        <path d="m412 609l-4-62-6-13-6-13-14.5-3.5-14.5-3.5-16.5-2-16.5-2h-2-2-1.5-1.5l-1.5-.5-1.5-.5h-.5-.5-2-2l-1.5-.5-1.5-.5-2-.5-2-.5-1.5-.5-1.5-.5-2-.5-2-.5h-2-2l-2-.5-2-.5-1.5-.5-1.5-.5-1-1-1-1h-2-2l14 4.5 14 4.5 17.5 2 17.5 2 15.5 2.5 15.5 2.5 10 8 10 8 2.5 17 2.5 17v18 18h-13.5-13.5l-13.5-4.5-13.5-4.5-19-6.5-19-6.5 1.5 1 1.5 1 .5.5.5.5 1.5.5 1.5.5 1.5.5 1.5.5 2 .5 2 .5 1.5.5 1.5.5 1 1 1 1h1.5 1.5l1.5.5 1.5.5 1 .5 1 .5 20 6.5 20 6.5 15 1 15 1" style="fill:#b6b2a6;stroke:#b6b2a6" />
        <path d="m412 527l1-4-1-1-1-1-1.5-.5-1.5-.5-2-.5-2-.5-.5-1-.5-1-26.5-4.5-26.5-4.5-15.5-2.5-15.5-2.5-16-3.5-16-3.5.5 1 .5 1 .5 1 .5 1h2 2l31.5 5 31.5 5 17 2 17 2 11 7.5 11 7.5v-1-1" style="fill:#765f50;stroke:#765f50" />
        <path d="m407 605v-36l-2.5-17-2.5-17-10-8-10-8-15.5-2.5-15.5-2.5-17.5-2-17.5-2-14-4.5-14-4.5-14-4.5-14-4.5-19-4.5-19-4.5h-.5-.5-1.5-1.5l-1.5-.5-1.5-.5h-1-1-1.5-1.5l-1.5-.5-1.5-.5h-1-1l-1-.5-1-.5-1.5-.5-1.5-.5-.5-.5-.5-.5h-1-1l-1-.5-1-.5-27.5-6.5-27.5-6.5 16.5 3 16.5 3 12.5 6 12.5 6 15 3 15 3 15.5 3.5 15.5 3.5 13.5 5 13.5 5 14.5 3.5 14.5 3.5 15.5 2.5 15.5 2.5 15.5 3 15.5 3 9 7 9 7 2 13 2 13 1 17.5 1 17.5-11.5.5-11.5.5-14.5-3.5-14.5-3.5-15-5-15-5-21-9-21-9 19 9.5 19 9.5 19 6.5 19 6.5 13.5 4.5 13.5 4.5h13.5 13.5" style="fill:#cdc8b5;stroke:#cdc8b5" />
        <path d="m401 598l-2-35-2-13-2-13-9-7-9-7-15.5-3-15.5-3-15.5-2.5-15.5-2.5-14.5-3.5-14.5-3.5-13.5-5-13.5-5-15.5-3.5-15.5-3.5-15-3-15-3-12.5-6-12.5-6-16.5-3-16.5-3-1 1-1 1h-1-1-1-1l-.5.5-.5.5h-1-1-1-1l-1 .5-1 .5h-1-1-1-1-2-2l-.5.5-.5.5-21.5 4.5-21.5 4.5-.5.5-.5.5-13 16-13 16 9 2.5 9 2.5 5 5 5 5-.5 9-.5 9 7-12 7-12 9-4 9-4 2.5 9 2.5 9 15.5 2.5 15.5 2.5 16 3 16 3h1.5 1.5l16.5-2 16.5-2 15 4 15 4 1.5.5 1.5.5 2 .5 2 .5 1 1 1 1 1.5.5 1.5.5 1.5 1 1.5 1 1 1 1 1 2 .5 2 .5 1.5.5 1.5.5 1 1.5 1 1.5 1 .5 1 .5 2 .5 2 .5 1 1 1 1 1 .5 1 .5 21 9 21 9 15 5 15 5 14.5 3.5 14.5 3.5 11.5-.5 11.5-.5" style="fill:#eeeadd;stroke:#eeeadd" />
        <path d="m400 616h1l-10-2-10-2h2 2l2 .5 2 .5 1.5.5 1.5.5 1 1 1 1h2.5 2.5.5.5" style="fill:#8b786c;stroke:#8b786c" />
        <path d="m393 616h1l-1-1-1-1-1.5-.5-1.5-.5-2-.5-2-.5h-2-2l-.5 2-.5 2h1.5 1.5 2.5 2.5 2 2 .5.5" style="fill:#9a524b;stroke:#9a524b" />
        <path d="m360 602l-2-1-1-.5-1-.5-.5-.5-.5-.5-1.5-.5-1.5-.5h-1.5-1.5l-.5-.5-.5-.5-1.5-.5-1.5-.5-1.5-1-1.5-1-1-.5-1-.5-1.5-.5-1.5-.5h-1.5-1.5l13 5 13 5" style="fill:#8b786c;stroke:#8b786c" />
        <path d="m323 509h1l-1-.5-1-.5-1.5-.5-1.5-.5-2-.5-2-.5-1.5-.5-1.5-.5h-2.5-2.5l-1.5-.5-1.5-.5-2-.5-2-.5-1.5-.5-1.5-.5-2-1-2-1h-2-2l-.5-1-.5-1-.5-1-.5-1-23-6-23-6-.5.5-.5.5-14.5-4-14.5-4-15-5-15-5-16.5-5-16.5-5-17 2.5-17 2.5-14.5 3.5-14.5 3.5-14 4.5-14 4.5-.5 1-.5 1-1.5.5-1.5.5-1 1.5-1 1.5-1 1-1 1-1 1-1 1 .5 2 .5 2 1 1 1 1 .5 2 .5 2 .5 1.5.5 1.5-1 2-1 2 8 13 8 13 2.5 10.5 2.5 10.5 9.5-9.5 9.5-9.5 1.5-.5 1.5-.5.5-.5.5-.5 1-.5 1-.5.5.5.5.5 5-4.5 5-4.5-.5 1-.5 1-.5 1-.5 1-.5.5-.5.5-1 .5-1 .5-.5 1.5-.5 1.5-.5.5-.5.5-1 1-1 1-5-3-5-3-9 9.5-9 9.5 2-12.5 2-12.5-13-5.5-13-5.5 13.5-16.5 13.5-16.5 22-5 22-5h2 2 1 1 1 1l1-.5 1-.5h1 1 1 1l.5-.5.5-.5h1 1 1 1l1-1 1-1 27.5 6.5 27.5 6.5h1.5 1.5l2 .5 2 .5h2 2l1.5 1 1.5 1h2 2l2 .5 2 .5 1.5.5 1.5.5 1 .5 1 .5 19 4.5 19 4.5 14 4.5 14 4.5h2 2l1 1 1 1 1.5.5 1.5.5 2 .5 2 .5h2 2l2 .5 2 .5 1.5.5 1.5.5 2 .5 2 .5 1.5.5 1.5.5h2 2" style="fill:#9f9489;stroke:#9f9489" />
        <path d="m308 518l-28-7-13-5-13-5-13.5-2.5-13.5-2.5-7 10-7 10 13.5 3 13.5 3 7.5-3.5 7.5-3.5 14.5 1.5 14.5 1.5h12 12" style="fill:#cdc8b5;stroke:#cdc8b5" />
        <g style="fill:#261a0e;stroke:#261a0e">
            <path d="m306 494l-7-30-11-7-11-7-12 5-12 5-17.5 2.5-17.5 2.5-16.5-3-16.5-3 8 6 8 6 14.5 3.5 14.5 3.5 17 3 17 3 14 5.5 14 5.5 7-.5 7-.5" />
            <path d="m294 588l-29-22-12.5-5.5-12.5-5.5-8.5-1-8.5-1 10 8 10 8-2 8-2 8-3.5 15.5-3.5 15.5h19.5 19.5 10.5 10.5l-.5-1.5-.5-1.5v-1-1-1-1-1-1l.5-.5.5-.5v-1.5-1.5-1-1-1-1l-.5-.5-.5-.5v-1.5-1.5-1-1l.5-.5.5-.5v-1-1l1-1 1-1" />
        </g>
        <g style="fill:#cdc8b5;stroke:#cdc8b5">
            <path d="m268 560h1l-1-.5-1-.5-1-1.5-1-1.5-1.5-.5-1.5-.5-2-.5-2-.5-1-1-1-1-1.5-1-1.5-1-1.5-.5-1.5-.5-1-1-1-1-2-.5-2-.5-1.5-.5-1.5-.5 1 1 1 1 2 .5 2 .5 1 1 1 1 1 .5 1 .5.5.5.5.5 1.5.5 1.5.5.5 1 .5 1h1 1l1.5.5 1.5.5 1 1 1 1 1.5.5 1.5.5 1 .5 1 .5" />
            <path d="m240 545h1l-15-4-15-4-16.5 2-16.5 2 17-.5 17-.5 14 2.5 14 2.5" />
        </g>
        <path d="m240 485l1-1-15.5-4.5-15.5-4.5-14.5-4-14.5-4 15 5 15 5 14.5 4 14.5 4" style="fill:#765f50;stroke:#765f50" />
        <path d="m221 483h1l-1-.5-1-.5-1.5-.5-1.5-.5-2-.5-2-.5h-2-2l-1.5-1-1.5-1h-2-2l-2-.5-2-.5h-1.5-1.5l1 .5 1 .5h1 1l.5.5.5.5 1.5.5 1.5.5 1 .5 1 .5h1 1l1.5.5 1.5.5h1.5 1.5 1 1l1.5.5 1.5.5h1.5 1.5" style="fill:#b6b2a6;stroke:#b6b2a6" />
        <path d="m209 544l-30-1 9 2 9 2 6-1.5 6-1.5" style="fill:#8b786c;stroke:#8b786c" />
        <path d="m207 554l-29-6-16-2-16-2h-15-15l13.5 3.5 13.5 3.5 15.5 3 15.5 3 16-1 16-1 .5-.5.5-.5" style="fill:#261a0e;stroke:#261a0e" />
        <path d="m174 541h1l-16-3-16-3-15.5-2.5-15.5-2.5-2.5-9-2.5-9-9 4-9 4-7 12-7 12 .5-9 .5-9-5-5-5-5-9-2.5-9-2.5 13 5.5 13 5.5-2 12.5-2 12.5 9-9.5 9-9.5 12.5-2.5 12.5-2.5-.5 1.5-.5 1.5-1 1.5-1 1.5-1.5.5-1.5.5-1.5 1-1.5 1-1 1-1 1-2 1.5-2 1.5h7 7l1.5-.5 1.5-.5.5-.5.5-.5.5-.5.5-.5h1.5 1.5 1 1 1 1 1 1 1.5 1.5l.5.5.5.5h1 1 1 1 1.5 1.5l.5.5.5.5h1 1 1 1l1 .5 1 .5h2 2 2 2 1.5 1.5l.5.5.5.5 1.5.5 1.5.5 1 .5 1 .5.5.5.5.5h2 2 1.5 1.5 1 1 1.5 1.5" style="fill:#cdc8b5;stroke:#cdc8b5" />
        <path d="m143 537h1l-1-.5-1-.5h-1-1-1-1l-.5-.5-.5-.5h-1.5-1.5-1-1-1-1l-.5-.5-.5-.5h-1.5-1.5-1-1-1-1-1-1-1.5-1.5l-.5.5-.5.5-.5.5-.5.5-1.5.5-1.5.5 2.5-.5 2.5-.5h2 2 2 2 2.5 2.5 2 2l2 .5 2 .5h2.5 2.5" style="fill:#b6b2a6;stroke:#b6b2a6" />
        <path d="m118 469l1-1-22 5-22 5 21.5-4.5 21.5-4.5" style="fill:#cdc8b5;stroke:#cdc8b5" />
        <path d="m113 523l-25 5 5 3 5 3v1.5 1.5l2-1.5 2-1.5 1-1 1-1 1.5-1 1.5-1 1.5-.5 1.5-.5 1-1.5 1-1.5.5-1.5.5-1.5" style="fill:#b6b2a6;stroke:#b6b2a6" />
        <path d="m111 547l1-5-.5 1-.5 1-.5 2-.5 2-.5 1.5-.5 1.5-1 1.5-1 1.5-.5 1.5-.5 1.5h-2-2l-2 .5-2 .5.5 1 .5 1 2.5.5 2.5.5 1-.5 1-.5.5-.5.5-.5 1-1 1-1 .5-1 .5-1v-1-1l.5-1.5.5-1.5v-1.5-1.5" style="fill:#765f50;stroke:#765f50" />
        <path d="m107 522l-10 9v1.5 1.5h.5.5l1-1 1-1 .5-.5.5-.5.5-1.5.5-1.5 1-.5 1-.5.5-.5.5-.5.5-1 .5-1 .5-1 .5-1" style="fill:#8b786c;stroke:#8b786c" />
        <path d="m96 534h1v-1.5-1.5l-.5-.5-.5-.5-1 .5-1 .5-.5.5-.5.5-1.5.5-1.5.5 1.5 1.5 1.5 1.5-.5 1-.5 1v1 1l-.5 1.5-.5 1.5v1.5 1.5 1 1 1 1 1 1l.5 1 .5 1 1 1 1 1-.5-2.5-.5-2.5-.5-1.5-.5-1.5v-2.5-2.5l.5-1.5.5-1.5v-1-1l1.5-.5 1.5-.5v-1.5-1.5" style="fill:#5a5567;stroke:#5a5567" />
        <g style="fill:#261a0e;stroke:#261a0e">
            <path d="m94 461l-28 5 7.5.5 7.5.5 6.5-3 6.5-3" />
            <path d="m90 564l-29-9 1.5-13.5 1.5-13.5-12.5-2-12.5-2 4-12 4-12-8-4-8-4-15.5 1.5-15.5 1.5v19 19 20 20 2 2l15.5-6.5 15.5-6.5 14.5.5 14.5.5 15-.5 15-.5" />
        </g>
        <path d="m74 479l1-1-13.5 16.5-13.5 16.5 13-16 13-16" style="fill:#cdc8b5;stroke:#cdc8b5" />
        <path d="m56 480l1-2-1 .5-1 .5-.5.5-.5.5-1 .5-1 .5h-1-1v1 1l-.5.5-.5.5-1 .5-1 .5-.5.5-.5.5v1 1 1 1l.5 1 .5 1v1 1l.5.5.5.5.5.5.5.5.5 1.5.5 1.5.5 1 .5 1v1 1l-.5 1-.5 1 1-2 1-2-.5-1.5-.5-1.5-.5-2-.5-2-1-1-1-1-.5-2-.5-2 1-1 1-1 1-1 1-1 1-1.5 1-1.5 1.5-.5 1.5-.5" style="fill:#5a5567;stroke:#5a5567" />
    </g>
</svg>
