<svg xmlns="http://www.w3.org/2000/svg" viewBox="0 0 960 672">
    <path d="m0 0h960v672h-960z" style="fill:#3c3529" />
    <g style="stroke-linejoin:round;stroke-width:.7">
        <path d="m959 672h1v-1.5-1.5-2-2-2.5-2.5-2-2-2.5-2.5h-.5-.5v-1.5-1.5l-.5.5-.5.5-1 1.5-1 1.5-1 1-1 1-1 1.5-1 1.5-.5 1.5-.5 1.5-.5 1.5-.5 1.5-1 1.5-1 1.5v1 1l2 .5 2 .5.5 1.5.5 1.5h2.5 2.5.5.5" style="fill:#959183;stroke:#959183" />
        <path d="m959 651h1v-1.5-1.5-2-2-2.5-2.5-2-2-2.5-2.5-2-2-2.5-2.5-2-2h-.5-.5v-21.5-21.5l-.5 1.5-.5 1.5-.5 19.5-.5 19.5-6.5 12.5-6.5 12.5-7-2-7-2 7.5-12.5 7.5-12.5 1-13 1-13 4-14 4-14-4-13-4-13-1-18-1-18 1.5-17.5 1.5-17.5-11-7-11-7 7.5-11.5 7.5-11.5 4-6 4-6-3.5-15.5-3.5-15.5.5-16.5.5-16.5-2.5-17.5-2.5-17.5-4-16-4-16-8-11-8-11-14-6-14-6-15.5-4.5-15.5-4.5-16.5-3-16.5-3-15.5-2.5-15.5-2.5-16-4-16-4-18.5 1.5-18.5 1.5 17.5-1 17.5-1 7.5 4.5 7.5 4.5 10.5 3.5 10.5 3.5h17 17l16 2 16 2 15 5 15 5 1.5 7.5 1.5 7.5 14.5-.5 14.5-.5 4 14 4 14 4.5 15.5 4.5 15.5 2 18 2 18-8 3-8 3 6 14 6 14-8.5 5.5-8.5 5.5 2.5 13.5 2.5 13.5-4.5 14.5-4.5 14.5-1.5 17.5-1.5 17.5 2 18 2 18 8.5-4.5 8.5-4.5-3.5 14.5-3.5 14.5 7.5 10.5 7.5 10.5-1 18-1 18-6 14-6 14-11 9-11 9-16-8.5-16-8.5-.5 1-.5 1v1 1 1.5 1.5 1 1 1 1 1 1l.5 1 .5 1v1 1l.5.5.5.5.5.5.5.5.5 1 .5 1 .5.5.5.5.5.5.5.5v1 1l-.5 1.5-.5 1.5-.5-1-.5-1-1 .5-1 .5-.5 2-.5 2v2 2h3 3 2 2 2.5 2.5 2 2 4.5 4.5 2.5 2.5 1.5 1.5l.5-2 .5-2 .5-2 .5-2v-2-2l2-.5 2-.5.5 1.5.5 1.5.5 2 .5 2v2 2l.5 1 .5 1h3 3 2.5 2.5 2 2 2 2 2.5 2.5 2 2 2.5 2.5l-.5-1.5-.5-1.5-2-.5-2-.5v-1-1l1-1.5 1-1.5.5-1.5.5-1.5.5-1.5.5-1.5 1-1.5 1-1.5 1-1 1-1 1-1.5 1-1.5.5-.5.5-.5v1.5 1.5" style="fill:#85786c;stroke:#85786c" />
        <path d="m959 617h1v-21.5-21.5-20-20-20-20-19.5-19.5h-.5-.5l-.5 2.5-.5 2.5-3-19.5-3-19.5v-2-2-1-1-1.5-1.5-1-1l.5-1 .5-1v-2-2l-.5-1.5-.5-1.5v-2.5-2.5l-.5-2-.5-2-2.5-19-2.5-19-1.5-18.5-1.5-18.5-5-15-5-15-5.5-13.5-5.5-13.5-13.5-6.5-13.5-6.5-15-5-15-5-14.5-5.5-14.5-5.5-14.5-3.5-14.5-3.5-18-1-18-1-25 .5-25 .5-.5.5-.5.5-.5.5-.5.5.5 1 .5 1v.5.5l1-.5 1-.5 18.5-1.5 18.5-1.5 16 4 16 4 15.5 2.5 15.5 2.5 16.5 3 16.5 3 15.5 4.5 15.5 4.5 14 6 14 6 8 11 8 11 4 16 4 16 2.5 17.5 2.5 17.5-.5 16.5-.5 16.5 3.5 15.5 3.5 15.5-4 6-4 6-7.5 11.5-7.5 11.5 11 7 11 7-1.5 17.5-1.5 17.5 1 18 1 18 4 13 4 13-4 14-4 14-1 13-1 13-7.5 12.5-7.5 12.5 7 2 7 2 6.5-12.5 6.5-12.5.5-19.5.5-19.5.5-1.5.5-1.5v21.5 21.5" style="fill:#765f4f;stroke:#765f4f" />
        <path d="m959 455h1v-1.5-1.5-2-2-.5-.5h-.5-.5v1.5 1.5l-.5-1.5-.5-1.5-1-1.5-1-1.5-.5-1.5-.5-1.5-.5-2-.5-2 .5-1.5.5-1.5.5-1.5.5-1.5 1-1.5 1-1.5.5-.5.5-.5.5 2 .5 2v-2-2-2-2h-.5-.5-1-1l-.5-.5-.5-.5-.5-1-.5-1-1.5.5-1.5.5 3 19.5 3 19.5.5-2.5.5-2.5" style="fill:#85786c;stroke:#85786c" />
        <path d="m959 447h1v-1.5-1.5-2-2-2.5-2.5-2-2l-.5-2-.5-2-.5.5-.5.5-1 1.5-1 1.5-.5 1.5-.5 1.5-.5 1.5-.5 1.5.5 2 .5 2 .5 1.5.5 1.5 1 1.5 1 1.5.5 1.5.5 1.5v-1.5-1.5" style="fill:#959183;stroke:#959183" />
        <path d="m959 423h1v-1.5-1.5-1.5-1.5h-.5-.5l-1.5-1-1.5-1-.5-1.5-.5-1.5-1-2-1-2-.5 1-.5 1v1 1 1.5 1.5 1 1 2 2l1.5-.5 1.5-.5.5 1 .5 1 .5.5.5.5h1 1" style="fill:#a8514b;stroke:#a8514b" />
        <path d="m959 417h1v-1.5-1.5-1-1h-.5-.5v-2-2l-.5-.5-.5-.5v1 1 1 1l-.5-1-.5-1-.5-.5-.5-.5-.5-.5-.5-.5v-1-1l-.5-1-.5-1v-1-1-1-1l-.5-.5-.5-.5v-1.5-1.5l-.5-1.5-.5-1.5h-.5-.5l.5 2 .5 2v2.5 2.5l.5 1.5.5 1.5v2 2l1 2 1 2 .5 1.5.5 1.5 1.5 1 1.5 1" style="fill:#8a352c;stroke:#8a352c" />
        <path d="m959 412h1v-1.5-1.5-2-2-2.5-2.5h-.5-.5l-4-10.5-4-10.5-1-18-1-18 1.5 24.5 1.5 24.5.5 1.5.5 1.5v1.5 1.5l.5.5.5.5v1 1 1 1l.5 1 .5 1v1 1l.5.5.5.5.5.5.5.5.5 1 .5 1v-1-1-1-1l.5.5.5.5v2 2" style="fill:#76200b;stroke:#76200b" />
        <path d="m959 400h1v-21.5-21.5-17-17h-.5-.5v20 20l-.5-22.5-.5-22.5h-.5-.5l-.5 1.5-.5 1.5-1-.5-1-.5h-2-2l-.5 1.5-.5 1.5v2.5 2.5 2 2 2.5 2.5 2 2 1 1l1 18 1 18 4 10.5 4 10.5" style="fill:#391b0f;stroke:#391b0f" />
        <path d="m959 323h1v-1.5-1.5-2-2-2.5-2.5-2-2-2.5-2.5-2-2-2.5-2.5-2-2-2-2h-.5-.5v-20-20-19.5-19.5-20-20-20-20-20-20-20-20l-4.5-23-4.5-23h-21.5-21.5-20-20-6-6l-1 16.5-1 16.5-7 9-7 9 12 7 12 7-4.5 13.5-4.5 13.5-3.5 16.5-3.5 16.5-1 18-1 18v18 18l11 19 11 19 .5-1 .5-1-6.5-8-6.5-8 3-15 3-15-.5-14.5-.5-14.5 1.5-18.5 1.5-18.5 4.5-1.5 4.5-1.5 9.5-2.5 9.5-2.5-.5-12.5-.5-12.5-7-2.5-7-2.5-4-10-4-10 7-8 7-8 11.5-5.5 11.5-5.5 11-8 11-8 11-9 11-9 4 16 4 16v19 19 19 19l-.5 18.5-.5 18.5.5 34 .5 34v35 35l.5 1.5.5 1.5v2 2 2.5 2.5 2 2 2 2 2.5 2.5 2 2 2 2l.5 22.5.5 22.5v-20-20" style="fill:#3c3529;stroke:#3c3529" />
        <path d="m959 285h1v-21.5-21.5-20-20-20-20-20-20-20-20-20-20-20-20-1-1h-5-5l4.5 23 4.5 23v20 20 20 20 20 20 20 20 19.5 19.5 20 20" style="fill:#391b0f;stroke:#391b0f" />
        <path d="m957 318h1v-2-2-2-2-2.5-2.5-2-2-2-2-2.5-2.5-2-2l-.5-1.5-.5-1.5-9-4-9-4-11-11.5-11-11.5 9.5 8.5 9.5 8.5 2.5 13 2.5 13 4 22 4 22v-2-2-2.5-2.5-2-2-2.5-2.5l.5-1.5.5-1.5h2 2l1 .5 1 .5.5-1.5.5-1.5" style="fill:#76200b;stroke:#76200b" />
        <path d="m957 215l-1-68 .5-18.5.5-18.5v-19-19-19-19l-4-16-4-16-11 9-11 9-11 8-11 8-11.5 5.5-11.5 5.5-7 8-7 8 4 10 4 10 7 2.5 7 2.5.5 12.5.5 12.5-9.5 2.5-9.5 2.5-4.5 1.5-4.5 1.5-1.5 18.5-1.5 18.5.5 14.5.5 14.5-3 15-3 15 6.5 8 6.5 8 12.5-1 12.5-1v1.5 1.5l-1 1-1 1-.5.5-.5.5-1 .5-1 .5.5 1 .5 1 1 .5 1 .5 1 1 1 1 3 .5 3 .5 2-1 2-1 1-1 1-1h2.5 2.5l1 1 1 1v1 1l-1 2.5-1 2.5v.5.5l1 1.5 1 1.5 2.5.5 2.5.5 11 11.5 11 11.5 9 4 9 4v-35-35" style="fill:#391b0f;stroke:#391b0f" />
        <path d="m951 392h1l-1.5-24.5-1.5-24.5v-1-1l-4-22-4-22-2.5-13-2.5-13-9.5-8.5-9.5-8.5-2.5-.5-2.5-.5-1-1.5-1-1.5v-.5-.5l-1.5-.5-1.5-.5h-1-1-1-1l-.5-.5-.5-.5h-1.5-1.5v-1.5-1.5l-3-.5-3-.5-1-1-1-1-1-.5-1-.5-2.5.5-2.5.5-1.5-.5-1.5-.5-1-.5-1-.5h-1-1l-1-.5-1-.5-1.5-.5-1.5-.5-.5-.5-.5-.5-2-.5-2-.5-11-19-11-19v-18-18l1-18 1-18 3.5-16.5 3.5-16.5 4.5-13.5 4.5-13.5-12-7-12-7 7-9 7-9 1-16.5 1-16.5h-20.5-20.5-20-20-18-18l7 12 7 12 7.5 12.5 7.5 12.5 14 4.5 14 4.5-14.5 5.5-14.5 5.5-14.5 4.5-14.5 4.5-2.5 16.5-2.5 16.5-.5 6.5-.5 6.5v12 12l11 8 11 8 5 12 5 12-12 5-12 5 15 1 15 1 11.5 2.5 11.5 2.5-14 5-14 5-19.5-.5-19.5-.5-.5.5-.5.5-1.5.5-1.5.5-.5 1-.5 1h.5.5l25-.5 25-.5 18 1 18 1 14.5 3.5 14.5 3.5 14.5 5.5 14.5 5.5 15 5 15 5 13.5 6.5 13.5 6.5 5.5 13.5 5.5 13.5 5 15 5 15 1.5 18.5 1.5 18.5 2.5 19 2.5 19" style="fill:#524d41;stroke:#524d41" />
        <path d="m943 572l-15-21 3.5-14.5 3.5-14.5-8.5 4.5-8.5 4.5-2-18-2-18 1.5-17.5 1.5-17.5 4.5-14.5 4.5-14.5-2.5-13.5-2.5-13.5 8.5-5.5 8.5-5.5-6-14-6-14 8-3 8-3-2-18-2-18-4.5-15.5-4.5-15.5-4-14-4-14-14.5.5-14.5.5-1.5-7.5-1.5-7.5-15-5-15-5-16-2-16-2h-17-17l-10.5-3.5-10.5-3.5-7.5-4.5-7.5-4.5-17.5 1-17.5 1-1 .5-1 .5-.5 1-.5 1-11 15-11 15-.5 1-.5 1-.5 2-.5 2-.5.5-.5.5-.5 1-.5 1v2 2l-.5 2.5-.5 2.5v2 2 2.5 2.5 1 1l-.5 2-.5 2v2 2l-.5 2-.5 2v2 2l-1 2-1 2 .5 1 .5 1-.5 1.5-.5 1.5-.5 2-.5 2-.5 1.5-.5 1.5-1 1.5-1 1.5-1 1-1 1-1.5 1-1.5 1-2.5.5-2.5.5v19 19 2 2 1 1l-.5.5-.5.5v1.5 1.5l-.5.5-.5.5-.5-.5-.5-.5v1 1 2 2l-.5 1.5-.5 1.5-1.5 19-1.5 19-3.5 29.5-3.5 29.5 8-10 8-10 1.5-18 1.5-18 2-16.5 2-16.5-2-16-2-16 7-8 7-8 6 11 6 11 1.5 16.5 1.5 16.5 7.5 9.5 7.5 9.5 2.5-17.5 2.5-17.5v-18-18l3-16 3-16 3-12 3-12 1.5 16.5 1.5 16.5-1 19-1 19-2 18-2 18-4 15-4 15 2 11 2 11 8 12 8 12 2 15 2 15-13.5-2.5-13.5-2.5-8.5-10.5-8.5-10.5-1 14-1 14 4 12 4 12 2 12 2 12 10-9 10-9 12.5-4.5 12.5-4.5 8.5-10.5 8.5-10.5 3-14 3-14 2.5-13 2.5-13 8 12 8 12 3.5-13.5 3.5-13.5-3-17-3-17 4.5-14.5 4.5-14.5 1-10 1-10-2-17-2-17-1-15-1-15 7.5 12.5 7.5 12.5 4.5 15.5 4.5 15.5-.5 15.5-.5 15.5.5 12.5.5 12.5 1.5 13.5 1.5 13.5 3.5-14.5 3.5-14.5 4 12 4 12-5.5 7.5-5.5 7.5.5 17.5.5 17.5 6 14 6 14-4.5 12.5-4.5 12.5 11 4.5 11 4.5-10 10-10 10 3.5 11.5 3.5 11.5-3.5 18.5-3.5 18.5.5 2 .5 2 1.5 1 1.5 1h1 1l.5-1.5.5-1.5 7.5-2.5 7.5-2.5.5 2 .5 2 .5 1 .5 1v1.5 1.5 1 1 1.5 1.5l16 8.5 16 8.5 11-9 11-9 6-14 6-14 1-18 1-18" style="fill:#959183;stroke:#959183" />
        <path d="m940 578l-24-18-15 4-15 4-7.5 12.5-7.5 12.5 2.5 16.5 2.5 16.5 4.5 14.5 4.5 14.5 14-6 14-6 10-10 10-10 3-17 3-17 .5-5.5.5-5.5" style="fill:#b9b4a6;stroke:#b9b4a6" />
        <path d="m939 574l-27-9-14 6-14 6-4 15-4 15 1 16 1 16 7.5 1.5 7.5 1.5 12-2 12-2 7.5-12.5 7.5-12.5 2.5-16.5 2.5-16.5 1-3 1-3" style="fill:#cecbb3;stroke:#cecbb3" />
        <g style="fill:#e1ddd1;stroke:#e1ddd1">
            <path d="m936 574l-30-8-11 9-11 9-3.5 16.5-3.5 16.5 3 16 3 16 6-12 6-12 9.5-4.5 9.5-4.5 6.5-13.5 6.5-13.5 1-.5 1-.5v-3-3l1.5-.5 1.5-.5 1-1 1-1 1-1.5 1-1.5v-1-1" />
            <path d="m933 597l1-3v-2-2l-1.5-1-1.5-1h-1-1v3.5 3.5l-.5 1.5-.5 1.5-.5 2-.5 2-1 1-1 1-.5 1.5-.5 1.5 1.5 1 1.5 1 1-1 1-1 1-1.5 1-1.5.5-1.5.5-1.5.5-2 .5-2" />
        </g>
        <path d="m922 272v-2l-1-1-1-1-1-1.5-1-1.5-1.5-.5-1.5-.5-1.5-1-1.5-1-1 1-1 1 .5 2 .5 2 1.5.5 1.5.5 1.5.5 1.5.5 1.5 1 1.5 1h1 1" style="fill:#b9b4a6;stroke:#b9b4a6" />
        <path d="m920 633l1-3v-2-2l-1-1.5-1-1.5-1.5.5-1.5.5-1 1.5-1 1.5-.5 1.5-.5 1.5v1.5 1.5l1.5.5 1.5.5h2 2v-.5-.5" style="fill:#e1ddd1;stroke:#e1ddd1" />
        <path d="m919 672h1l-.5-1-.5-1v-2-2l-.5-2-.5-2-.5-1.5-.5-1.5-2 .5-2 .5v2 2l-.5 2-.5 2-.5 2-.5 2h1.5 1.5 2.5 2.5" style="fill:#959183;stroke:#959183" />
        <path d="m912 244v-2l-1-1-1-1h-2.5-2.5l-1 1-1 1-2 1-2 1v1.5 1.5h1.5 1.5l.5.5.5.5h1 1 1 1l1.5.5 1.5.5 1-2.5 1-2.5" style="fill:#76200b;stroke:#76200b" />
        <path d="m902 672h1-4.5-4.5 1.5 1.5 2.5 2.5" style="fill:#765f4f;stroke:#765f4f" />
        <path d="m893 231l-25 2-.5 1-.5 1 2 .5 2 .5.5.5.5.5 1.5.5 1.5.5 1 .5 1 .5h1 1l1 .5 1 .5 1.5.5 1.5.5 2.5-.5 2.5-.5-.5-1-.5-1 1-.5 1-.5.5-.5.5-.5 1-1 1-1v-1.5-1.5" style="fill:#76200b;stroke:#76200b" />
        <path d="m881 570l-23 5 8.5 3.5 8.5 3.5 3-6 3-6" style="fill:#85786c;stroke:#85786c" />
        <path d="m879 665l1-3v-1-1l-.5-.5-.5-.5-.5-.5-.5-.5-.5-1-.5-1-.5-.5-.5-.5-.5-.5-.5-.5v-1-1l-.5-1-.5-1v-1-1-1-1-1-1-1.5-1.5-1-1l.5-1 .5-1v-1.5-1.5-1-1-1.5-1.5l-.5-1-.5-1v2 2l-.5 1.5-.5 1.5v1.5 1.5l-.5 1.5-.5 1.5-.5 1.5-.5 1.5-1-.5-1-.5-.5 1.5-.5 1.5.5 1.5.5 1.5.5 1.5.5 1.5 1 1.5 1 1.5.5 1.5.5 1.5v1.5 1.5l1 1 1 1-.5 1.5-.5 1.5-.5 1-.5 1v2.5 2.5h1 1v-2-2l.5-2 .5-2 1-.5 1-.5.5 1 .5 1" style="fill:#765f4f;stroke:#765f4f" />
        <path d="m874 665l1-3-1-1-1-1v-1.5-1.5l-.5-1.5-.5-1.5-1-1.5-1-1.5-.5-1.5-.5-1.5-.5-1.5-.5-1.5-1.5-.5-1.5-.5-.5-2-.5-2v-2-2l-.5-1.5-.5-1.5.5-2 .5-2-.5-1-.5-1h-1-1l-.5 2-.5 2-.5 1.5-.5 1.5-7 5-7 5-2-13-2-13-4.5-13.5-4.5-13.5-4.5-24.5-4.5-24.5-9.5 7-9.5 7-11.5 26-11.5 26v1.5 1.5l-.5 1.5-.5 1.5-1 1.5-1 1.5-.5 2-.5 2-.5 1.5-.5 1.5-1 1.5-1 1.5-.5 1-.5 1-11.5 21.5-11.5 21.5h21.5 21.5 10.5 10.5l2-16 2-16 4.5-10.5 4.5-10.5 7 12 7 12 6.5 11.5 6.5 11.5v3 3h2 2 1 1v-1.5-1.5l.5-1.5.5-1.5v-2-2l1-1.5 1-1.5 1-1 1-1h1.5 1.5l1 1 1 1 1 1.5 1 1.5.5.5.5.5-1 .5-1 .5-.5 1.5-.5 1.5-.5.5-.5.5v2 2h2 2v-2.5-2.5l.5-1 .5-1" style="fill:#a8514b;stroke:#a8514b" />
        <path d="m873 663l-1-1-1-1.5-1-1.5-1-1-1-1h-1.5-1.5l-1 1-1 1-1 1.5-1 1.5v2 2l-.5 1.5-.5 1.5v1.5 1.5h3 3 1.5 1.5v-2-2l.5-.5.5-.5.5-1.5.5-1.5 1-.5 1-.5" style="fill:#b26763;stroke:#b26763" />
        <path d="m873 634l1-3v-2-2h-.5-.5l-1-1-1-1v-1-1l-.5-.5-.5-.5-1-.5-1-.5-.5-.5-.5-.5-.5.5-.5.5v1 1l-.5 1-.5 1 1 1 1 1v1 1l.5.5.5.5v-1-1l1-.5 1-.5.5.5.5.5v1 1l-.5 1.5-.5 1.5-1-.5-1-.5v1.5 1.5l.5 2 .5 2v1.5 1.5l1 .5 1 .5.5-1.5.5-1.5.5-1.5.5-1.5v-1.5-1.5" style="fill:#524d41;stroke:#524d41" />
        <path d="m873 627h1l-.5-2-.5-2h-.5-.5l-5.5 2-5.5 2h1 1l.5 1 .5 1 .5-2 .5-2 .5-1 .5-1v-1-1l.5-.5.5-.5.5.5.5.5 1 .5 1 .5.5.5.5.5v1 1l1 1 1 1" style="fill:#765f4f;stroke:#765f4f" />
        <g style="fill:#85786c;stroke:#85786c">
            <path d="m872 623h1l-7.5 2.5-7.5 2.5 1 1.5 1 1.5.5-2 .5-2 5.5-2 5.5-2" />
            <path d="m871 545l-22-9 4.5-12.5 4.5-12.5-6-14-6-14-.5-17.5-.5-17.5 5.5-7.5 5.5-7.5-4-12-4-12-3.5 14.5-3.5 14.5-1.5-13.5-1.5-13.5-.5-12.5-.5-12.5.5-15.5.5-15.5-4.5-15.5-4.5-15.5-7.5-12.5-7.5-12.5 1 15 1 15 2 17 2 17-1 10-1 10-4.5 14.5-4.5 14.5 3 17 3 17-3.5 13.5-3.5 13.5-8-12-8-12-2.5 13-2.5 13-3 14-3 14-8.5 10.5-8.5 10.5-12.5 4.5-12.5 4.5-10 9-10 9-2-12-2-12-4-12-4-12 1-14 1-14 8.5 10.5 8.5 10.5 13.5 2.5 13.5 2.5-2-15-2-15-8-12-8-12-2-11-2-11 4-15 4-15 2-18 2-18 1-19 1-19-1.5-16.5-1.5-16.5-3 12-3 12-3 16-3 16v18 18l-2.5 17.5-2.5 17.5-7.5-9.5-7.5-9.5-1.5-16.5-1.5-16.5-6-11-6-11-7 8-7 8 2 16 2 16-2 16.5-2 16.5-1.5 18-1.5 18-8 10-8 10-9 26-9 26 .5 2.5.5 2.5v2 2l-.5 1.5-.5 1.5.5 1 .5 1 .5.5.5.5v1 1 1.5 1.5l.5.5.5.5v1 1 1 1 1.5 1.5 1 1 1 1 1 1l-.5 1.5-.5 1.5-.5 1.5-.5 1.5v2.5 2.5 1.5 1.5 1 1l-.5 1.5-.5 1.5v1.5 1.5l-.5 1.5-.5 1.5v2 2l-.5.5-.5.5v1.5 1.5l.5 1.5.5 1.5v2 2l1 1.5 1 1.5v1 1 1.5 1.5l.5 1.5.5 1.5v1 1l.5 1 .5 1v2 2 2 2l.5.5.5.5.5 1 .5 1 .5 2.5.5 2.5 1 .5 1 .5 1.5.5 1.5.5 1 1.5 1 1.5 1.5.5 1.5.5 1 1 1 1 2-.5 2-.5 1.5-.5 1.5-.5 2-.5 2-.5h1 1l1 1.5 1 1.5.5 1.5.5 1.5.5 2 .5 2 .5 1.5.5 1.5 1.5-.5 1.5-.5 1.5-.5 1.5-.5 1.5 1 1.5 1 1 1 1 1 .5 2 .5 2 1 2 1 2 .5-1 .5-1v-2-2l4-12 4-12v19.5 19.5h21 21 3.5 3.5l11.5-21.5 11.5-21.5v-2.5-2.5-1-1l.5-1 .5-1 .5-1.5.5-1.5.5-.5.5-.5.5-1 .5-1 .5-1.5.5-1.5.5-.5.5-.5 1-1 1-1 11.5-26 11.5-26 9.5-7 9.5-7 7 12 7 12 7 29.5 7 29.5 3.5-18.5 3.5-18.5-3.5-11.5-3.5-11.5 10-10 10-10" />
        </g>
        <path d="m870 633l1-3v-1-1l-.5-.5-.5-.5-1 .5-1 .5v1 1l-.5-.5-.5-.5v-1-1l-1-1-1-1-.5 2-.5 2-.5 2-.5 2 .5 1.5.5 1.5v2 2l.5 2 .5 2 1.5.5 1.5.5.5-1.5.5-1.5v-1.5-1.5l-.5-2-.5-2v-1.5-1.5l1 .5 1 .5" style="fill:#8a352c;stroke:#8a352c" />
        <path d="m859 634l1-3-1-1.5-1-1.5-.5 1.5-.5 1.5h-1-1l-1.5-1-1.5-1-.5-2-.5-2-7-29.5-7-29.5-7-12-7-12 4.5 24.5 4.5 24.5 4.5 13.5 4.5 13.5 2 13 2 13 7-5 7-5" style="fill:#b26763;stroke:#b26763" />
        <path d="m854 666l-13-23-7-12-7-12-4.5 10.5-4.5 10.5-2 16-2 16h2 2 2.5 2.5 2 2 2.5 2.5 2 2 2 2 2.5 2.5 2 2 2.5 2.5v-3-3" style="fill:#bd3b2c;stroke:#bd3b2c" />
        <g style="fill:#765f4f;stroke:#765f4f">
            <path d="m841 67v-2l-1-1-1-1-2-.5-2-.5h-2-2l-2 .5-2 .5-1 1-1 1 1.5 1 1.5 1h2 2 2 2 1.5 1.5 1 1" />
            <path d="m832 354l-8-34-3.5 3.5-3.5 3.5 4.5 15.5 4.5 15.5 3-2 3-2" />
            <path d="m829 450l-10-30 3 15 3 15h2 2" />
        </g>
        <path d="m824 579l-12-12-3 17-3 17-4.5 14.5-4.5 14.5-1 5-1 5 6-9 6-9 5-5 5-5 3.5-12.5 3.5-12.5v-4-4" style="fill:#bd3b2c;stroke:#bd3b2c" />
        <path d="m813 520l1-3-.5-1.5-.5-1.5h-2.5-2.5l-.5 1.5-.5 1.5.5 2 .5 2 .5 1.5.5 1.5h1.5 1.5l.5-1.5.5-1.5v-.5-.5" style="fill:#959183;stroke:#959183" />
        <path d="m795 58l-28-9-7.5-12.5-7.5-12.5-7-12-7-12h-3.5-3.5-2-2-2-2-1.5-1.5l-2 19-2 19-.5 18.5-.5 18.5-1.5 17.5-1.5 17.5-5 15-5 15-3 9-3 9 15.5 3.5 15.5 3.5 6.5 22 6.5 22-1 .5-1 .5-2 .5-2 .5h-2-2l-2 .5-2 .5-1 1-1 1h.5.5l19.5.5 19.5.5 14-5 14-5-11.5-2.5-11.5-2.5-15-1-15-1 12-5 12-5-5-12-5-12-11-8-11-8v-12-12l.5-6.5.5-6.5 2.5-16.5 2.5-16.5 14.5-4.5 14.5-4.5 14.5-5.5 14.5-5.5" style="fill:#3c3529;stroke:#3c3529" />
        <path d="m780 614l1-3v-1.5-1.5l-1 1-1 1-.5.5-.5.5-.5 1.5-.5 1.5-.5 1-.5 1-.5.5-.5.5-.5 1.5-.5 1.5-.5 1-.5 1v1 1 2.5 2.5l.5-1 .5-1 1-1.5 1-1.5.5-1.5.5-1.5.5-2 .5-2 1-1.5 1-1.5" style="fill:#765f4f;stroke:#765f4f" />
        <path d="m740 209l-13-44-15.5-3.5-15.5-3.5 3-9 3-9 5-15 5-15 1.5-17.5 1.5-17.5.5-18.5.5-18.5 2-19 2-19h-2-2l-.5.5-.5.5-1.5 20-1.5 20v18 18l-5.5 10.5-5.5 10.5-1-19-1-19 2-30 2-30h-1.5-1.5l-.5.5-.5.5-1.5 20-1.5 20-1 17.5-1 17.5-8.5 10.5-8.5 10.5-11-9-11-9-15-4-15-4-15-5-15-5-17 3-17 3-12.5 7.5-12.5 7.5-11 9-11 9 3.5 3.5 3.5 3.5 13-7 13-7 14.5-5.5 14.5-5.5 16-3 16-3 14 6 14 6 9.5 10.5 9.5 10.5 2 16 2 16-8 12-8 12-13 7-13 7-9.5 10.5-9.5 10.5-10.5 1.5-10.5 1.5 14.5 5.5 14.5 5.5 11.5 8.5 11.5 8.5v16 16l12 5.5 12 5.5-3 13-3 13-20 10.5-20 10.5 1.5-.5 1.5-.5 1-1 1-1 .5-.5.5-.5 1-.5 1-.5 1.5-.5 1.5-.5h1 1l1 .5 1 .5-.5 2-.5 2-1 1.5-1 1.5 1-.5 1-.5 1.5-.5 1.5-.5 17.5-9.5 17.5-9.5 6-13 6-13 8.5-7.5 8.5-7.5 4-15 4-15 14-8.5 14-8.5 1-1 1-1 2-.5 2-.5h2 2l2-.5 2-.5 1-.5 1-.5" style="fill:#391b0f;stroke:#391b0f" />
        <g style="fill:#959183;stroke:#959183">
            <path d="m735 623l-22-8v11 11l6-1 6-1 5-6 5-6" />
            <path d="m731 603l-9-29-4 4-4 4 6.5 13.5 6.5 13.5 2-3 2-3" />
        </g>
        <path d="m724 215l1-1h-.5-.5l-14 8.5-14 8.5-4 15-4 15-8.5 7.5-8.5 7.5-6 13-6 13 .5 1.5.5 1.5h.5.5l.5-1.5.5-1.5.5-.5.5-.5.5-1 .5-1h1 1l.5.5.5.5v1 1l.5.5.5.5-.5 1.5-.5 1.5v1.5 1.5l-.5 1-.5 1v1 1 1.5 1.5l1.5 1 1.5 1 10-26.5 10-26.5.5-2 .5-2 .5-2 .5-2 1-2 1-2 13.5-17.5 13.5-17.5.5-1 .5-1 1.5-.5 1.5-.5" style="fill:#76200b;stroke:#76200b" />
        <path d="m720 219l1-1h-.5-.5l-13.5 17.5-13.5 17.5.5.5.5.5 12.5-17 12.5-17 .5-.5.5-.5" style="fill:#8a352c;stroke:#8a352c" />
        <path d="m719 225l1-2v-.5-.5h-.5-.5l-11.5 16.5-11.5 16.5h.5.5l11-15 11-15" style="fill:#b26763;stroke:#b26763" />
        <path d="m719 222h1l-.5-1-.5-1-12.5 17-12.5 17 1 .5 1 .5 11.5-16.5 11.5-16.5" style="fill:#a8514b;stroke:#a8514b" />
        <g style="fill:#1a1105;stroke:#1a1105">
            <path d="m715 1l1-1h-3-3-2.5-2.5-1-1l-2 30-2 30 1 19 1 19 5.5-10.5 5.5-10.5v-18-18l1.5-20 1.5-20" />
            <path d="m710 195l-15-27-8.5-11.5-8.5-11.5-11 8-11 8-10 10-10 10-7 12-7 12 10 8 10 8 8 2 8 2 6-14 6-14 14.5-2.5 14.5-2.5 5.5 1.5 5.5 1.5" />
        </g>
        <path d="m705 257l-11 13 .5 16.5.5 16.5 2-16 2-16 3-7 3-7" style="fill:#b9b4a6;stroke:#b9b4a6" />
        <path d="m703 424v-2h-2-2l-1.5 1-1.5 1v2 2l1 1.5 1 1.5 1.5.5 1.5.5.5-2 .5-2 .5-1.5.5-1.5v-.5-.5" style="fill:#959183;stroke:#959183" />
        <path d="m700 672h1v-19.5-19.5l-4 12-4 12 .5 1.5.5 1.5 1 1 1 1 .5 2 .5 2 .5 1.5.5 1.5v1.5 1.5h1 1" style="fill:#765f4f;stroke:#765f4f" />
        <path d="m699 1l1-1h-21-21-20-20-20-20-20-20-20-20-20-20-10.5-10.5l2.5 15 2.5 15-1 16-1 16-1.5 14.5-1.5 14.5 4 13 4 13 7 19.5 7 19.5-15 5.5-15 5.5-15.5 3.5-15.5 3.5-12-3.5-12-3.5-2.5-9.5-2.5-9.5 8-10 8-10-4.5-11.5-4.5-11.5-5-14-5-14 .5-16.5.5-16.5-.5-22-.5-22h-21.5-21.5-20-20-20-20-20-20-20-20-20-20-20-20-20-20-20-20-1.5-1.5v18.5 18.5 20 20 20 20 20 20 12 12l19-.5 19-.5 17-3 17-3 18-2 18-2 17.5-2.5 17.5-2.5 16.5-3.5 16.5-3.5 15-5 15-5 16 21.5 16 21.5-3 16.5-3 16.5-1.5 17.5-1.5 17.5-.5 19.5-.5 19.5-1.5 18.5-1.5 18.5v22.5 22.5l-1 1.5-1 1.5h-1-1l-1 .5-1 .5h-2-2l-1.5.5-1.5.5h-1-1-2-2l-.5.5-.5.5-19-.5-19-.5-18 1-18 1 14-3 14-3 6-12 6-12v-19-19l.5-19.5.5-19.5 1.5-18.5 1.5-18.5-8.5-11.5-8.5-11.5-16 2-16 2-16 4-16 4-16 4-16 4-31 7.5-31 7.5v20.5 20.5 20 20 20 20 10 10l18.5.5 18.5.5 17.5 1.5 17.5 1.5 17 1 17 1-.5 1.5-.5 1.5-1 1.5-1 1.5-.5 1.5-.5 1.5-1 1.5-1 1.5-1 .5-1 .5-1 1.5-1 1.5-1 1-1 1-1 1.5-1 1.5-1 1-1 1-.5 1.5-.5 1.5-.5.5-.5.5-.5 2-.5 2 1-.5 1-.5 1-1.5 1-1.5.5-1.5.5-1.5.5-1.5.5-1.5 1-.5 1-.5 9-12 9-12 15.5-4.5 15.5-4.5h18 18l18.5-1.5 18.5-1.5 17.5-2.5 17.5-2.5 23-1 23-1v-1.5-1.5l-.5-4-.5-4 20-2.5 20-2.5-1 .5-1 .5-1.5.5-1.5.5-1.5.5-1.5.5-2 .5-2 .5 1.5.5 1.5.5h1 1l18-2.5 18-2.5 18-1 18-1 14.5-5.5 14.5-5.5 12-8 12-8 13-7 13-7 18-7.5 18-7.5-10-10.5-10-10.5-11-7-11-7 8-11.5 8-11.5 1 2 1 2 .5-23 .5-23-5.5-15-5.5-15 1.5-15.5 1.5-15.5 9.5-10.5 9.5-10.5-.5 12.5-.5 12.5-5.5 14.5-5.5 14.5 11 9 11 9 11-3 11-3 14-5 14-5 14.5-5 14.5-5-8 12-8 12-15.5 3.5-15.5 3.5-3 5.5-3 5.5 2.5.5 2.5.5h2 2l3-.5 3-.5 15-2 15-2 12.5 7.5 12.5 7.5 7.5 12.5 7.5 12.5 2 17 2 17 8.5 5.5 8.5 5.5-11 4-11 4-9.5 11-9.5 11 .5-.5.5-.5 20-10.5 20-10.5 3-13 3-13-12-5.5-12-5.5v-16-16l-11.5-8.5-11.5-8.5-14.5-5.5-14.5-5.5 10.5-1.5 10.5-1.5 9.5-10.5 9.5-10.5 13-7 13-7 8-12 8-12-2-16-2-16-9.5-10.5-9.5-10.5-14-6-14-6-16 3-16 3-14.5 5.5-14.5 5.5-13 7-13 7-3.5-3.5-3.5-3.5 11-9 11-9 12.5-7.5 12.5-7.5 17-3 17-3 15 5 15 5 15 4 15 4 11 9 11 9 8.5-10.5 8.5-10.5 1-17.5 1-17.5 1.5-20 1.5-20" style="fill:#3c3529;stroke:#3c3529" />
        <path d="m697 672h1v-1.5-1.5l-.5-1.5-.5-1.5-.5-2-.5-2-1-1-1-1-.5-1.5-.5-1.5v2 2l-.5 1-.5 1-.5.5-.5.5-.5 1.5-.5 1.5-.5 2.5-.5 2.5h2 2 2 2" style="fill:#a8514b;stroke:#a8514b" />
        <path d="m696 257l1-2h-.5-.5l-1-.5-1-.5-.5-.5-.5-.5-1 2-1 2-.5 2-.5 2-.5 2-.5 2v1.5 1.5 2 2h.5.5l1.5-2 1.5-2v-2-2l.5-1 .5-1 .5-.5.5-.5.5-2 .5-2" style="fill:#765f4f;stroke:#765f4f" />
        <g style="fill:#b26763;stroke:#b26763">
            <path d="m692 273l1-5-1.5 2-1.5 2v1.5 1.5 2 2l-.5 1.5-.5 1.5v1.5 1.5 2 2 2 2 2 2l-.5 2-.5 2v1.5 1.5l1-2 1-2v-2-2l.5-2 .5-2v-2-2l.5-2 .5-2v-1-1-2.5-2.5-2-2" />
            <path d="m691 664l1-1-1-2-1-2-.5-2-.5-2-1-1-1-1-1.5-1-1.5-1-1.5.5-1.5.5-1.5.5-1.5.5v2.5 2.5 2 2l1 1.5 1 1.5v2 2 1.5 1.5h3 3 1.5 1.5l.5-2.5.5-2.5.5-1.5.5-1.5" />
        </g>
        <path d="m689 282l1-3v-2-2-1.5-1.5h-.5-.5l-9 24.5-9 24.5.5 1 .5 1h.5.5l2-.5 2-.5 1.5-1 1.5-1 .5-1.5.5-1.5 1-1.5 1-1.5.5-1.5.5-1.5 1-1 1-1 1-2.5 1-2.5v-1.5-1.5l.5-2 .5-2v-2-2-2-2-2-2-1.5-1.5" style="fill:#a8514b;stroke:#a8514b" />
        <path d="m689 268v-3l-10 26.5-10 26.5v1 1l1 .5 1 .5 9-24.5 9-24.5v-2-2" style="fill:#8a352c;stroke:#8a352c" />
        <path d="m688 309l1-3-.5-1-.5-1-1 2.5-1 2.5-1 1-1 1-.5 1.5-.5 1.5-1 1.5-1 1.5-.5 1.5-.5 1.5-1.5 1-1.5 1-2 .5-2 .5.5.5.5.5 2.5-.5 2.5-.5 1.5-1 1.5-1 1-1 1-1 1-1.5 1-1.5.5-1.5.5-1.5.5-2 .5-2" style="fill:#b26763;stroke:#b26763" />
        <path d="m679 672h1v-1.5-1.5-2-2l-1-1.5-1-1.5v-2-2-2.5-2.5l-.5-1.5-.5-1.5-.5-2-.5-2-.5-1.5-.5-1.5-1-1.5-1-1.5h-1-1l-2 .5-2 .5-1.5.5-1.5.5-2 .5-2 .5-1.5.5-1.5.5h-1-1l-.5.5-.5.5.5.5.5.5.5 1 .5 1h1 1l.5.5.5.5.5.5.5.5-.5 1.5-.5 1.5-.5 1-.5 1-1 .5-1 .5-1-1.5-1-1.5-.5-1.5-.5-1.5-1-1-1-1-.5-.5-.5-.5-1-.5-1-.5-1-1-1-1-.5-2-.5-2-.5-1.5-.5-1.5 1 .5 1 .5 1-1.5 1-1.5-.5-2.5-.5-2.5-.5-1-.5-1-.5-.5-.5-.5v-2-2-2-2l-.5-1-.5-1v-1-1l-.5-1.5-.5-1.5v-1.5-1.5-1-1l-1-1.5-1-1.5-3.5-.5-3.5-.5 4.5-14 4.5-14v-2.5-2.5l-.5-14-.5-14 .5-1.5.5-1.5v-2-2l-.5-2.5-.5-2.5 1.5-16.5 1.5-16.5 5.5-24 5.5-24-11.5 25-11.5 25-1 .5-1 .5-1 .5-1 .5-1-1-1-1-5.5 28-5.5 28-.5 1-.5 1-.5 1-.5 1-.5.5-.5.5-1 .5-1 .5-.5 1.5-.5 1.5-1 1-1 1-.5.5-.5.5-.5 1-.5 1-1.5 1-1.5 1-.5 1-.5 1 .5.5.5.5.5.5.5.5-.5 1.5-.5 1.5-8.5-8-8.5-8-1-1.5-1-1.5-1-1-1-1-1-1-1-1h-.5-.5l-6.5-.5-6.5-.5 1-19 1-19 1-19 1-19-1-18-1-18-1.5-29-1.5-29v-1.5-1.5l.5-.5.5-.5v-1-1-1-1-1-1-1.5-1.5-1-1-1-1-1-1l.5-.5.5-.5v-1.5-1.5-1-1l-.5-.5-.5-.5v-1-1-2-2l-1-1.5-1-1.5-.5-2-.5-2h-2-2l-1.5 1-1.5 1-1 .5-1 .5v1.5 1.5 3 3l-.5 1.5-.5 1.5-.5 1-.5 1v1.5 1.5.5.5h1.5 1.5l4 4.5 4 4.5 1.5 17.5 1.5 17.5v26 26l.5 18 .5 18-1.5 16.5-1.5 16.5 1 16 1 16 11 9 11 9 9 9 9 9 5.5 12.5 5.5 12.5 13.5 24 13.5 24h2.5 2.5 2.5 2.5 2 2 2 2 2.5 2.5 2 2 2.5 2.5 1.5 1.5" style="fill:#a8514b;stroke:#a8514b" />
        <path d="m674 362v-38l-.5-.5-.5-.5h-.5-.5-.5-.5l-1 1.5-1 1.5v1 1l.5 1.5.5 1.5v1 1 1.5 1.5l-.5 1.5-.5 1.5v1.5 1.5 2 2l-.5 1-.5 1v1 1h1 1v2 2 1 1l-.5 1-.5 1v2 2 1 1 1.5 1.5 2 2l.5 2 .5 2 .5 1.5.5 1.5v-2-2-1-1l.5.5.5.5.5-.5.5-.5v-1.5-1.5l.5-.5.5-.5v-1-1-2-2" style="fill:#85786c;stroke:#85786c" />
        <path d="m671 323h1l-.5-1-.5-1-1-.5-1-.5-.5.5-.5.5-2-3-2-3v-2.5-2.5l-1-1-1-1-.5-1-.5-1h-.5-.5l-2 .5-2 .5-2 .5-2 .5-.5 1-.5 1 1.5-.5 1.5-.5h1 1 1 1l.5.5.5.5 1 .5 1 .5.5 1.5.5 1.5-.5 1.5-.5 1.5-4 15-4 15-.5 16.5-.5 16.5-3.5 16.5-3.5 16.5-5 15-5 15-5 15-5 15-4 16-4 16-.5 25-.5 25 5.5-28 5.5-28 2.5-17 2.5-17 6-19.5 6-19.5v-.5-.5l4.5-13 4.5-13 5-14 5-14 .5-1.5.5-1.5v-1-1-1-1-1.5-1.5l.5-1.5.5-1.5v-1-1l.5-.5.5-.5v-1-1-1.5-1.5-1-1h1 1l.5-1 .5-1v-2-2-1.5-1.5l.5-1.5.5-1.5v-1.5-1.5-1-1l-.5-1.5-.5-1.5v-1-1l1-1.5 1-1.5" style="fill:#765f4f;stroke:#765f4f" />
        <path d="m670 381l1-3-.5-1.5-.5-1.5-.5-2-.5-2v-2-2-1.5-1.5-1-1-2-2l.5-1 .5-1v-1-1-2-2h-1-1v1.5 1.5 1 1 1 1l-.5 1.5-.5 1.5-1 20-1 20-4.5 24.5-4.5 24.5-5.5 24-5.5 24-1.5 16.5-1.5 16.5 9-26 9-26 3.5-29.5 3.5-29.5 1.5-19 1.5-19" style="fill:#b26763;stroke:#b26763" />
        <path d="m669 190l1-3-.5-1.5-.5-1.5-1.5-1-1.5-1-1 1-1 1-.5 2-.5 2 .5 1.5.5 1.5 1.5 1 1.5 1 1-1 1-1v-.5-.5" style="fill:#391b0f;stroke:#391b0f" />
        <path d="m668 321l1-1v-1-1l-1.5-1-1.5-1-1-.5-1-.5 2 3 2 3" style="fill:#524d41;stroke:#524d41" />
        <path d="m667 360l1-3v-1-1-1-1-1.5-1.5-1-1h-1-1v1 1 1.5 1.5 1 1l-.5.5-.5.5v1 1l-.5 1.5-.5 1.5v1.5 1.5 1 1 1 1l-.5 1.5-.5 1.5v2 2 2.5 2.5 2 2 2.5 2.5 2 2l-.5 1.5-.5 1.5v1.5 1.5 1.5 1.5 2 2l-.5.5-.5.5v1.5 1.5l-.5 1.5-.5 1.5-.5 2-.5 2-.5 1.5-.5 1.5v2.5 2.5 1 1l-.5 1.5-.5 1.5-.5 2-.5 2 .5 1.5.5 1.5v2.5 2.5l-.5 1.5-.5 1.5v2 2l4.5-24.5 4.5-24.5 1-20 1-20" style="fill:#a8514b;stroke:#a8514b" />
        <g style="fill:#8a352c;stroke:#8a352c">
            <path d="m667 306l1-3-.5-.5-.5-.5v-1-1l-.5-.5-.5-.5h-1-1l-.5 1-.5 1-.5.5-.5.5-.5 1.5-.5 1.5v.5.5l.5 1 .5 1 1 1 1 1v2.5 2.5l1 .5 1 .5v-1.5-1.5-1-1l.5-1 .5-1v-1.5-1.5" />
            <path d="m662 396l1-3v-2-2-2.5-2.5-2-2-2.5-2.5-2-2l-5 14-5 14-4.5 13-4.5 13 .5-1 .5-1 .5-.5.5-.5.5-.5.5-.5v-1.5-1.5l.5-.5.5-.5.5-.5.5-.5v-1-1l1-.5 1-.5v-1-1l.5-.5.5-.5v-1-1l.5-1 .5-1 .5-.5.5-.5h1 1v1 1l-.5 1.5-.5 1.5v1.5 1.5 1 1 1 1 1 1l-.5 1-.5 1v2 2 2.5 2.5l-.5 1.5-.5 1.5v1 1l.5 1.5.5 1.5.5-1 .5-1v-2-2-1-1l.5-1 .5-1v-2-2-1-1l1-1 1-1 .5-1.5.5-1.5.5-2 .5-2 .5-1.5.5-1.5v-1.5-1.5l.5-.5.5-.5v-2-2-1.5-1.5-1.5-1.5" />
        </g>
        <path d="m661 317l1-3-.5-1.5-.5-1.5-1-.5-1-.5-.5-.5-.5-.5h-1-1-1-1l-1.5.5-1.5.5-1.5 2-1.5 2 1-.5 1-.5 1-1 1-1 1.5-.5 1.5-.5 2 .5 2 .5.5 1.5.5 1.5-.5 1.5-.5 1.5-5.5 15-5.5 15v15 15l-2.5 17.5-2.5 17.5-5.5 14.5-5.5 14.5-5 15-5 15-6.5 13.5-6.5 13.5-5.5 14.5-5.5 14.5-3.5 12.5-3.5 12.5-2.5-15.5-2.5-15.5 6.5-12.5 6.5-12.5 7-11.5 7-11.5 4-16 4-16 2-16 2-16 8-12 8-12-3-3-3-3-11.5 4.5-11.5 4.5-8-12-8-12 7-15.5 7-15.5-1.5 1-1.5 1-1.5.5-1.5.5-2-.5-2-.5-1-1-1-1v-2-2l-.5-1.5-.5-1.5-14 6.5-14 6.5-20-16-20-16 1 .5 1 .5 1 1.5 1 1.5 1 1 1 1 1 1.5 1 1.5 1.5.5 1.5.5 1 1.5 1 1.5 1 1 1 1-.5 1.5-.5 1.5-1 1.5-1 1.5-1 1.5-1 1.5-1-1-1-1-2-.5-2-.5-.5-1-.5-1-1-1-1-1-.5 1-.5 1v1.5 1.5h-2-2l-1.5 1-1.5 1-1.5.5-1.5.5-1.5 1-1.5 1h-2-2l-1 1-1 1-.5 1.5-.5 1.5-.5 2-.5 2-.5 2.5-.5 2.5.5 1 .5 1 .5 2 .5 2-.5 1.5-.5 1.5.5 2 .5 2 1.5.5 1.5.5 1 1.5 1 1.5v2 2l.5 1.5.5 1.5.5 1.5.5 1.5 6 17 6 17h-8.5-8.5l-.5 1-.5 1-.5 1.5-.5 1.5v2 2 1.5 1.5l.5 1 .5 1 .5 1 .5 1 1 1 1 1v2 2 1 1l.5 1 .5 1v2 2l.5.5.5.5v1.5 1.5l.5 1 .5 1v1.5 1.5l.5 1 .5 1 .5.5.5.5.5.5.5.5v1.5 1.5l.5.5.5.5.5.5.5.5v1 1l.5.5.5.5v1 1l.5 1 .5 1 .5 1 .5 1 1 .5 1 .5.5 1 .5 1h1 1l.5.5.5.5.5.5.5.5.5 1 .5 1 .5 1.5.5 1.5.5.5.5.5v1.5 1.5l.5 1.5.5 1.5.5.5.5.5.5 1 .5 1 1-1 1-1h1 1l.5-.5.5-.5h1 1l.5-1 .5-1v-1-1l.5-.5.5-.5v-1-1l1-.5 1-.5v-2-2l-4-14-4-14v-17.5-17.5l5-9 5-9v29 29 3 3 2 2 2 2l1-1 1-1v-20.5-20.5-26.5-26.5-.5-.5l-1-1.5-1-1.5-.5-2-.5-2-.5-1.5-.5-1.5 1-1.5 1-1.5 1-1 1-1 1 .5 1 .5v-1.5-1.5l-3.5-7.5-3.5-7.5 21.5 5 21.5 5-.5 1-.5 1-1 1-1 1-1.5.5-1.5.5-2-.5-2-.5h-2-2l-1.5 1-1.5 1-1.5-.5-1.5-.5-1.5-1-1.5-1v2 2l-.5 1-.5 1v2 2 1 1l.5.5.5.5v1 1 1.5 1.5l-.5.5-.5.5v1 1 1 1 1 1 1.5 1.5 1 1 1 1 1 1l-.5.5-.5.5v1.5 1.5l.5 1.5.5 1.5 1-1 1-1 2-15 2-15 5.5 13.5 5.5 13.5 4.5 29 4.5 29-.5 1.5-.5 1.5-.5 1.5-.5 1.5v1 1l-.5 1-.5 1-.5 1.5-.5 1.5v1 1l-.5.5-.5.5v1 1l-.5 1-.5 1v1 1l-.5.5-.5.5v1 1h-1.5-1.5-1-1v1 1l-.5 1-.5 1-.5-1.5-.5-1.5.5 17.5.5 17.5.5 27 .5 27 1 1 1 1 1 1 1 1 1 1.5 1 1.5 1.5.5 1.5.5.5.5.5.5.5.5.5.5.5.5.5.5 1 .5 1 .5h1 1l.5.5.5.5.5-.5.5-.5 1-.5 1-.5.5.5.5.5.5.5.5.5.5 1.5.5 1.5 1.5-1 1.5-1 .5-1 .5-1 .5-.5.5-.5 1-1 1-1 .5-1.5.5-1.5 1-.5 1-.5.5-.5.5-.5.5-1 .5-1 .5-1 .5-1 .5-25 .5-25 4-16 4-16 5-15 5-15 5-15 5-15 3.5-16.5 3.5-16.5.5-16.5.5-16.5 4-15 4-15" style="fill:#85786c;stroke:#85786c" />
        <path d="m660 306h1v-.5-.5h-.5-.5-.5-.5l-17.5 8-17.5 8-1.5.5-1.5.5-1 .5-1 .5-1.5.5-1.5.5-.5.5-.5.5-1 .5-1 .5-.5.5-.5.5-.5.5-.5.5h-1-1l-.5.5-.5.5-1-.5-1-.5-.5-.5-.5-.5-.5-.5-.5-.5.5-.5.5-.5.5-1.5.5-1.5 9.5-11 9.5-11 11-4 11-4-8.5-5.5-8.5-5.5-2-17-2-17-7.5-12.5-7.5-12.5-12.5-7.5-12.5-7.5-15 2-15 2 20 1.5 20 1.5 11 9 11 9 3.5 21.5 3.5 21.5-8 18.5-8 18.5-2 .5-2 .5-1 1-1 1-.5 1-.5 1-.5.5-.5.5-.5.5-.5.5-.5.5-.5.5-.5 1-.5 1-.5 1-.5 1v1 1l.5 1.5.5 1.5v2 2l1 1 1 1 2 .5 2 .5 1.5-.5 1.5-.5 1.5-1 1.5-1h1 1 1 1 1 1l1-.5 1-.5 1.5-.5 1.5-.5 1-1 1-1 2-.5 2-.5 1-1 1-1 2-.5 2-.5 1.5-.5 1.5-.5h2.5 2.5l1.5-.5 1.5-.5 1.5-1 1.5-1-1-.5-1-.5 1-1 1-1 .5-1 .5-1v-1-1l1.5-2 1.5-2 .5-1 .5-1 2-.5 2-.5 2-.5 2-.5" style="fill:#524d41;stroke:#524d41" />
        <path d="m659 653l1-3-.5-.5-.5-.5-.5-.5-.5-.5h-1-1l-.5-1-.5-1-.5-.5-.5-.5.5-.5.5-.5h1 1l1.5-.5 1.5-.5-1-1-1-1-1.5-.5-1.5-.5-1-1.5-1-1.5-1.5-.5-1.5-.5-1-.5-1-.5-1 1.5-1 1.5-1-.5-1-.5.5 1.5.5 1.5.5 2 .5 2 1 1 1 1 1 .5 1 .5.5.5.5.5 1 1 1 1 .5 1.5.5 1.5 1 1.5 1 1.5 1-.5 1-.5.5-1 .5-1" style="fill:#b26763;stroke:#b26763" />
        <path d="m659 317l1-3-.5-1.5-.5-1.5-2-.5-2-.5-1.5.5-1.5.5-1 1-1 1-1 .5-1 .5v1 1l1.5-1 1.5-1 1.5-.5 1.5-.5h1 1 1 1v1 1l-.5 1.5-.5 1.5-6 14-6 14-11.5 8-11.5 8-5-14.5-5-14.5h-1-1l-7 15.5-7 15.5 8 12 8 12 11.5-4.5 11.5-4.5 3 3 3 3-8 12-8 12-2 16-2 16-4 16-4 16-7 11.5-7 11.5-6.5 12.5-6.5 12.5 2.5 15.5 2.5 15.5 3.5-12.5 3.5-12.5 5.5-14.5 5.5-14.5 6.5-13.5 6.5-13.5 5-15 5-15 5.5-14.5 5.5-14.5 2.5-17.5 2.5-17.5v-15-15l5.5-15 5.5-15" style="fill:#959183;stroke:#959183" />
        <path d="m659 305h1l-.5-1.5-.5-1.5-17.5 9.5-17.5 9.5 17.5-8 17.5-8" style="fill:#3c3529;stroke:#3c3529" />
        <path d="m657 430l1-3v-1-1-2.5-2.5l-1 1-1 1v1 1 2 2l-.5 1-.5 1v1 1 2 2l-.5 1-.5 1-.5 1.5-.5 1.5-6.5 21.5-6.5 21.5-.5 1-.5 1-1 1-1 1-1 1.5-1 1.5-.5 1.5-.5 1.5-.5 2.5-.5 2.5 11.5-25 11.5-25v-2-2l.5-1.5.5-1.5v-2.5-2.5l-.5-1.5-.5-1.5.5-2 .5-2" style="fill:#bd3b2c;stroke:#bd3b2c" />
        <path d="m657 318l1-3v-1-1h-1-1-1-1l-1.5.5-1.5.5-1.5 1-1.5 1-.5 1-.5 1-1 1-1 1 1 .5 1 .5.5-.5.5-.5.5-1 .5-1 1.5-1 1.5-1 1.5-.5 1.5-.5v1 1l-6.5 14-6.5 14-14-6-14-6h-1-1l5 14.5 5 14.5 11.5-8 11.5-8 6-14 6-14" style="fill:#b9b4a6;stroke:#b9b4a6" />
        <path d="m655 410l1-3v-1-1h-1-1l-.5.5-.5.5-.5 1-.5 1v1 1l-.5.5-.5.5v1 1l-1 .5-1 .5v1 1l-.5.5-.5.5-.5.5-.5.5v1.5 1.5l-.5.5-.5.5-.5.5-.5.5-.5 1-.5 1v.5.5 1 1 2.5 2.5l-.5 2-.5 2-.5 1.5-.5 1.5-1 1.5-1 1.5v2 2l-.5 2-.5 2v2 2l7.5-15 7.5-15v-2-2l.5-1 .5-1v-1-1-1-1-1-1-1.5-1.5" style="fill:#76200b;stroke:#76200b" />
        <path d="m655 317v-2l-1.5.5-1.5.5-1.5 1-1.5 1-.5 1-.5 1 2-1 2-1v2 2l-.5 2-.5 2-8.5 11.5-8.5 11.5-9-8-9-8h-1-1l14 6 14 6 6.5-14 6.5-14" style="fill:#cecbb3;stroke:#cecbb3" />
        <path d="m653 441l1-3-.5-1.5-.5-1.5v-1-1l.5-1.5.5-1.5v-2.5-2.5l-7.5 15-7.5 15-.5 2-.5 2-.5.5-.5.5-.5 2-.5 2-.5 1.5-.5 1.5v1.5 1.5 2 2l-.5 2-.5 2 .5 1.5.5 1.5.5 1 .5 1 2 .5 2 .5 6.5-21.5 6.5-21.5" style="fill:#9c2b02;stroke:#9c2b02" />
        <path d="m651 326l1-4v-2-2l-2 1-2 1-.5.5-.5.5-1.5 1-1.5 1-1.5.5-1.5.5h-2.5-2.5l-1.5.5-1.5.5-2 .5-2 .5-1 1-1 1-2 .5-2 .5-1 1-1 1-1.5.5-1.5.5-1 .5-1 .5 9 8 9 8 8.5-11.5 8.5-11.5" style="fill:#e1ddd1;stroke:#e1ddd1" />
        <path d="m646 135l-30-12-10.5 8.5-10.5 8.5 9 10 9 10 9.5-8.5 9.5-8.5 7-4 7-4" style="fill:#524d41;stroke:#524d41" />
        <path d="m644 567l1-3v-1-1-1-1-1-1-1.5-1.5-1-1-1-1l-.5-.5-.5-.5v-1.5-1.5-1-1l-.5-.5-.5-.5-.5-1-.5-1 .5 14 .5 14 .5-1.5.5-1.5" style="fill:#b26763;stroke:#b26763" />
        <path d="m644 428v-2l-6 19.5-6 19.5-2.5 17-2.5 17 1 1 1 1 1-.5 1-.5 1-.5 1-.5.5-2.5.5-2.5.5-1.5.5-1.5 1-1.5 1-1.5 1-1 1-1 .5-1 .5-1-2-.5-2-.5-.5-1-.5-1-.5-1.5-.5-1.5.5-2 .5-2v-2-2-1.5-1.5l.5-1.5.5-1.5.5-2 .5-2 .5-.5.5-.5.5-2 .5-2v-2-2l.5-2 .5-2v-2-2l1-1.5 1-1.5.5-1.5.5-1.5.5-2 .5-2v-2.5-2.5" style="fill:#8a352c;stroke:#8a352c" />
        <path d="m643 672h1l-13.5-24-13.5-24-5.5-12.5-5.5-12.5-9-9-9-9-11-9-11-9-1-16-1-16 1.5-16.5 1.5-16.5-.5-18-.5-18-.5 1-.5 1v2 2 1 1l-1 1.5-1 1.5-.5 27-.5 27v2.5 2.5l-.5 2-.5 2-.5 1.5-.5 1.5v2 2 2 2l-.5 1.5-.5 1.5-5 2-5 2 3-34.5 3-34.5-1-1-1-1-2 18.5-2 18.5-1 19-1 19-.5 18.5-.5 18.5-3.5 15.5-3.5 15.5-5.5-9.5-5.5-9.5-2-14-2-14-1.5-17.5-1.5-17.5-4-16-4-16-4-24-4-24-.5 1.5-.5 1.5-1 2.5-1 2.5-.5 1.5-.5 1.5-1-.5-1-.5.5 19 .5 19-.5 17.5-.5 17.5-.5 18.5-.5 18.5-1.5 18-1.5 18v26 26h2 2 2.5 2.5 2 2 2.5 2.5 2 2 2 2 2.5 2.5 2 2 2.5 2.5 2 2 .5.5l4-16.5 4-16.5 1.5-18.5 1.5-18.5 5.5-10.5 5.5-10.5 12 6 12 6 4.5 14.5 4.5 14.5 4.5 25 4.5 25h3 3 2.5 2.5 2 2 2 2 2.5 2.5 2 2 2.5 2.5 2 2 1 1" style="fill:#bd3b2c;stroke:#bd3b2c" />
        <path d="m642 583l1-3v-1-1-1.5-1.5l-4.5 14-4.5 14 3.5.5 3.5.5v-2-2l-.5-1.5-.5-1.5v-1.5-1.5l.5-.5.5-.5v-2-2l.5-1.5.5-1.5v-1.5-1.5" style="fill:#b26763;stroke:#b26763" />
        <path d="m642 78l-1-1-1.5-.5-1.5-.5-2-.5-2-.5-1.5.5-1.5.5-2 .5-2 .5-.5.5-.5.5 2 .5 2 .5 1 1 1 1h2 2l2-.5 2-.5 1-1 1-1" style="fill:#1a1105;stroke:#1a1105" />
        <path d="m625 275l-7-43-11-9-11-9 .5 1 .5 1 .5.5.5.5.5.5.5.5 1 .5 1 .5.5.5.5.5 1 1 1 1 10 25.5 10 25.5-7 18-7 18-.5 1.5-.5 1.5 8-18.5 8-18.5" style="fill:#765f4f;stroke:#765f4f" />
        <path d="m624 273l-20-51 .5 1 .5 1 9 23.5 9 23.5-6.5 19-6.5 19 7-18 7-18" style="fill:#85786c;stroke:#85786c" />
        <path d="m623 271l-18-47 .5 1.5.5 1.5.5.5.5.5.5.5.5.5.5.5.5.5v1 1 1 1l.5 1 .5 1 .5.5.5.5.5.5.5.5.5.5.5.5 1 .5 1 .5.5.5.5.5.5.5.5.5v1 1l.5 1 .5 1 .5.5.5.5.5.5.5.5v1 1 1.5 1.5l.5 1 .5 1v2.5 2.5 2 2 2.5 2.5 2 2l-.5 1.5-.5 1.5-7.5 18.5-7.5 18.5 2-.5 2-.5.5-1.5.5-1.5 6.5-19 6.5-19" style="fill:#959183;stroke:#959183" />
        <path d="m621 320l1-4-1-.5-1-.5h-1-1l-1.5.5-1.5.5-1 .5-1 .5-.5.5-.5.5-1 1-1 1-1.5.5-1.5.5-.5.5-.5.5-.5 1.5-.5 1.5-.5.5-.5.5.5.5.5.5.5.5.5.5 1 .5 1 .5.5-.5.5-.5h1 1l.5-.5.5-.5.5-.5.5-.5 1-.5 1-.5.5-.5.5-.5 1.5-.5 1.5-.5 1-1.5 1-1.5" style="fill:#1a1105;stroke:#1a1105" />
        <path d="m620 276l1-3v-2-2-2.5-2.5-2-2-2.5-2.5l-.5-1-.5-1v2 2 1 1 1 1 1 1 1.5 1.5 2 2l-.5 1.5-.5 1.5-7 20-7 20 7.5-18.5 7.5-18.5" style="fill:#b9b4a6;stroke:#b9b4a6" />
        <path d="m619 273l1-3v-2-2-1.5-1.5-1-1-1-1-1-1-2-2h-.5-.5l-17.5-20.5-17.5-20.5h-3-3l12 8 12 8-1.5 8.5-1.5 8.5 9.5 7.5 9.5 7.5-5.5 14.5-5.5 14.5-4.5 14.5-4.5 14.5-12.5 6.5-12.5 6.5-3.5-3.5-3.5-3.5-11-5.5-11-5.5 11.5 9 11.5 9 15-3.5 15-3.5.5-1 .5-1 .5-1 .5-1 .5-.5.5-.5.5-.5.5-.5.5-.5.5-.5.5-1 .5-1 1-1 1-1 7-20 7-20" style="fill:#cecbb3;stroke:#cecbb3" />
        <path d="m619 253h1v-1.5-1.5-1-1l-.5-.5-.5-.5-.5-.5-.5-.5-.5-1-.5-1v-1-1l-.5-.5-.5-.5-.5-.5-.5-.5-1-.5-1-.5-.5-.5-.5-.5-.5-.5-.5-.5-.5-.5-.5-.5-.5-1-.5-1v-1-1-1-1l-.5-.5-.5-.5-.5-.5-.5-.5-.5-.5-.5-.5-.5-1.5-.5-1.5h-.5-.5l-1.5-1-1.5-1-.5-.5-.5-.5-.5-.5-.5-.5-.5-.5-.5-.5-1-.5-1-.5-.5-.5-.5-.5-.5-.5-.5-.5-.5-.5-.5-.5h-1-1l-.5-1-.5-1h-1-1l-.5-.5-.5-.5h-1.5-1.5l17.5 20.5 17.5 20.5" style="fill:#b9b4a6;stroke:#b9b4a6" />
        <path d="m618 260l-19-15 1.5-8.5 1.5-8.5-12-8-12-8h-24.5-24.5-.5-.5l-14.5 6-14.5 6v1 1l2 17.5 2 17.5 15.5 22 15.5 22 1.5 1 1.5 1 1.5 1 1.5 1 1 1 1 1 1 1 1 1 11 5.5 11 5.5 3.5 3.5 3.5 3.5 12.5-6.5 12.5-6.5 4.5-14.5 4.5-14.5 5.5-14.5 5.5-14.5" style="fill:#e1ddd1;stroke:#e1ddd1" />
        <path d="m604 224h1l-.5-1-.5-1-1-1-1-1-.5-.5-.5-.5-1-.5-1-.5-.5-.5-.5-.5-.5-.5-.5-.5-.5-1-.5-1-20-1.5-20-1.5-3 .5-3 .5h-2-2l-2.5-.5-2.5-.5-13.5-6.5-13.5-6.5-10 3.5-10 3.5-.5 23-.5 23 .5 1 .5 1v1 1 1.5 1.5 1 1l.5.5.5.5v1 1l.5 1 .5 1 1 1 1 1v1 1l.5 1 .5 1 1 1 1 1 .5.5.5.5v1 1l.5.5.5.5.5 1 .5 1 1 .5 1 .5.5-1 .5-1 .5 1 .5 1 1 1 1 1 1.5 1 1.5 1 .5 1.5.5 1.5 1 1.5 1 1.5 1 1 1 1 .5 1.5.5 1.5 1.5 1 1.5 1 1 1 1 1 .5 2 .5 2 1 1 1 1 1 1 1 1 20 16 20 16 14-6.5 14-6.5h-.5-.5l-13.5 4.5-13.5 4.5-17.5-15-17.5-15-15.5-22-15.5-22-2-17.5-2-17.5-1.5 4.5-1.5 4.5 5-19.5 5-19.5.5 1 .5 1 .5.5.5.5.5.5.5.5.5.5.5.5v1 1l1 .5 1 .5.5.5.5.5.5.5.5.5.5.5.5.5h1.5 1.5l.5.5.5.5h1 1l.5.5.5.5 1 .5 1 .5.5.5.5.5h1 1l1 .5 1 .5h24.5 24.5 3 3 1.5 1.5l.5.5.5.5h1 1l.5 1 .5 1h1 1l.5.5.5.5.5.5.5.5.5.5.5.5 1 .5 1 .5.5.5.5.5.5.5.5.5.5.5.5.5 1.5 1 1.5 1" style="fill:#959183;stroke:#959183" />
        <path d="m603 672h1l-4.5-25-4.5-25-4.5-14.5-4.5-14.5-12-6-12-6-5.5 10.5-5.5 10.5-1.5 18.5-1.5 18.5-4 16.5-4 16.5h2.5 2.5 2.5 2.5 2 2 2.5 2.5.5.5l1.5-18 1.5-18-4.5-15.5-4.5-15.5 6.5-4.5 6.5-4.5.5 14.5.5 14.5 8 20 8 20v1.5 1.5 2 2h3.5 3.5 2 2 2 2 2 2" style="fill:#c13306;stroke:#c13306" />
        <path d="m603 578l1-3-.5-.5-.5-.5-.5-.5-.5-.5.5-1 .5-1-.5-1.5-.5-1.5-.5-.5-.5-.5-.5-.5-.5-.5-1 .5-1 .5-.5.5-.5.5-.5-.5-.5-.5h-1-1l-1-.5-1-.5-.5-.5-.5-.5-.5-.5-.5-.5-.5-.5-.5-.5-1.5-.5-1.5-.5 8.5 8 8.5 8" style="fill:#b26763;stroke:#b26763" />
        <path d="m602 70l-31-3-12.5 7.5-12.5 7.5 16-3 16-3 12-3 12-3" style="fill:#1a1105;stroke:#1a1105" />
        <path d="m596 326h1v-1-1l-15 3.5-15 3.5-11.5-9-11.5-9-1-1-1-1-1-1-1-1-1.5-1-1.5-1-1.5-1-1.5-1 17.5 15 17.5 15 13.5-4.5 13.5-4.5" style="fill:#b9b4a6;stroke:#b9b4a6" />
        <path d="m594 169l-29 10-14 5-14 5-11 3-11 3-11-9-11-9 5.5-14.5 5.5-14.5.5-12.5.5-12.5-9.5 10.5-9.5 10.5-1.5 15.5-1.5 15.5 5.5 15 5.5 15 10-3.5 10-3.5 13.5 6.5 13.5 6.5 3-5.5 3-5.5 15.5-3.5 15.5-3.5 8-12 8-12" style="fill:#524d41;stroke:#524d41" />
        <path d="m592 440l-9-58-5.5-13.5-5.5-13.5-2 15-2 15 1.5 18.5 1.5 18.5 3.5 22 3.5 22 .5 1.5.5 1.5.5-1 .5-1v-1-1h1 1 1.5 1.5v-1-1l.5-.5.5-.5v-1-1l.5-1 .5-1v-1-1l.5-.5.5-.5v-1-1l.5-1.5.5-1.5.5-1 .5-1v-1-1l.5-1.5.5-1.5.5-1.5.5-1.5" style="fill:#959183;stroke:#959183" />
        <path d="m590 343l-43-10 3.5 7.5 3.5 7.5 1-.5 1-.5 1.5-1 1.5-1h2 2l.5 2 .5 2 1 1.5 1 1.5.5-1 .5-1v-2-2l1.5 1 1.5 1 1.5.5 1.5.5 1.5-1 1.5-1h2 2l2 .5 2 .5 1.5-.5 1.5-.5 1-1 1-1 .5-1 .5-1" style="fill:#765f4f;stroke:#765f4f" />
        <path d="m589 114l-23-11-8.5 11.5-8.5 11.5-13.5 1.5-13.5 1.5-8 12-8 12-.5 13.5-.5 13.5 10-3 10-3 13.5 2.5 13.5 2.5 8.5-11.5 8.5-11.5 2.5-12.5 2.5-12.5 7.5-8.5 7.5-8.5" style="fill:#391b0f;stroke:#391b0f" />
        <path d="m584 665l-16-40-.5-14.5-.5-14.5-6.5 4.5-6.5 4.5 4.5 15.5 4.5 15.5-1.5 18-1.5 18h2.5 2.5 2.5 2.5 2 2 2.5 2.5 2 2 .5.5v-2-2-1.5-1.5" style="fill:#9c2b02;stroke:#9c2b02" />
        <path d="m579 555h1l-.5-27-.5-27-.5-17.5-.5-17.5-3.5-22-3.5-22-1.5-18.5-1.5-18.5-1 1-1 1-.5-1.5-.5-1.5 1.5 29 1.5 29 1 18 1 18-1 19-1 19-1 19-1 19 6.5.5 6.5.5" style="fill:#b26763;stroke:#b26763" />
        <path d="m565 464l1-2v-26-26l-1.5-17.5-1.5-17.5-4-4.5-4-4.5-.5 1.5-.5 1.5v1 1 1 1 1.5 1.5 1 1 1 1l.5.5.5.5v1.5 1.5l.5 1.5.5 1.5-.5 1.5-.5 1.5-.5 35.5-.5 35.5-.5 2-.5 2 .5 1.5.5 1.5v1 1l-.5 1-.5 1 .5 1.5.5 1.5-.5 1.5-.5 1.5v2.5 2.5l1 1 1 1 .5-2.5.5-2.5 1-1 1-1-1-1-1-1 .5-2 .5-2-.5-2-.5-2v-19-19l1.5-16.5 1.5-16.5 1.5 24 1.5 24v2.5 2.5 2 2 1.5 1.5l.5 1 .5 1v1.5 1.5 2.5 2.5 2 2 1 1l1-1.5 1-1.5v-1-1-2-2" style="fill:#8a352c;stroke:#8a352c" />
        <path d="m562 527l1-54v-1-1-2-2-2.5-2.5-1.5-1.5l-.5-1-.5-1-.5 2.5-.5 2.5-.5 1.5-.5 1.5-1 1.5-1 1.5h-1-1l.5 2 .5 2-.5 2-.5 2 1 1 1 1-1 1-1 1-.5 2.5-.5 2.5-3 34.5-3 34.5.5-1.5.5-1.5.5 1 .5 1 .5 1.5.5 1.5h1.5 1.5v-2-2l1-1 1-1 .5-2 .5-2 1-1.5 1-1.5v-2-2l.5-1.5.5-1.5.5-2 .5-2v-2.5-2.5" style="fill:#9c2b02;stroke:#9c2b02" />
        <path d="m562 445l-3-48-1.5 16.5-1.5 16.5v19 19h1 1l1-1.5 1-1.5.5-1.5.5-1.5.5-2.5.5-2.5v-1.5-1.5-2-2-2.5-2.5" style="fill:#76200b;stroke:#76200b" />
        <path d="m559 550l1-3v-2-2l-1 1.5-1 1.5-.5 2-.5 2-1 1-1 1v2 2h-1.5-1.5l-.5-1.5-.5-1.5-.5-1-.5-1-.5 1.5-.5 1.5 5-2 5-2" style="fill:#8a352c;stroke:#8a352c" />
        <path d="m556 158l-13-29-11 8-11 8-7.5 10.5-7.5 10.5 14 3 14 3 9.5-4.5 9.5-4.5 1.5-2.5 1.5-2.5" style="fill:#1a1105;stroke:#1a1105" />
        <path d="m555 390l1-3-.5-1.5-.5-1.5v-1.5-1.5l-.5-.5-.5-.5v-1-1-1-1-1.5-1.5-1-1-1-1l.5-1.5.5-1.5h-1.5-1.5v26.5 26.5 20.5 20.5l1 .5 1 .5.5-35.5.5-35.5" style="fill:#765f4f;stroke:#765f4f" />
        <path d="m553 478l1-3-.5-1.5-.5-1.5.5-1 .5-1v-1-1l-.5-1.5-.5-1.5.5-2 .5-2-1-.5-1-.5v2.5 2.5 2 2l-.5 1.5-.5 1.5v3 3l-1 1-1 1-1 1.5-1 1.5-1.5.5-1.5.5-.5 1.5-.5 1.5-.5 2-.5 2v1.5 1.5 1 1 1 1l.5.5.5.5v1 1l-.5 1-.5 1v1 1l.5.5.5.5-.5 1.5-.5 1.5-.5 1-.5 1-1.5-.5-1.5-.5v-2.5-2.5-1-1l-.5-2-.5-2 .5-1.5.5-1.5 1-1 1-1 1-1.5 1-1.5-.5-1.5-.5-1.5h-1.5-1.5l-.5-1-.5-1-.5-1-.5-1-.5-.5-.5-.5-.5-1.5-.5-1.5v-1.5-1.5l-.5-.5-.5-.5-.5-1.5-.5-1.5-.5-1-.5-1-.5-.5-.5-.5-.5-.5-.5-.5h-1-1l-.5-1-.5-1-1-.5-1-.5-1 .5-1 .5.5 1 .5 1v1 1l.5.5.5.5.5.5.5.5.5 1 .5 1v1 1l.5.5.5.5v1 1 1 1l-5.5 3.5-5.5 3.5v-20.5-20.5l-.5-1-.5-1-1-1.5-1-1.5-.5-1.5-.5-1.5-.5-2-.5-2v-2-2l-.5-1.5-.5-1.5v-3-3l-.5-1-.5-1v-1.5-1.5-2-2l-1-33-1-33 .5-2.5.5-2.5.5-2 .5-2 .5-1.5.5-1.5 1-1 1-1 1-1.5 1-1.5-.5-1.5-.5-1.5v-1.5-1.5l1.5-.5 1.5-.5 1-1.5 1-1.5 1.5-.5 1.5-.5 1-1.5 1-1.5 1.5.5 1.5.5 1.5.5 1.5.5.5 2.5.5 2.5 1 1 1 1 .5-1.5.5-1.5-.5-.5-.5-.5v-1-1l-.5-.5-.5-.5-.5-1-.5-1-.5-.5-.5-.5-.5-.5-.5-.5h-1-1l-1-.5-1-.5-19.5 8.5-19.5 8.5v1 1 1 1 .5.5 2 2 1 1l-10.5 10.5-10.5 10.5-11 5-11 5-13.5-1-13.5-1-28.5 6-28.5 6h-.5-.5l-1-.5-1-.5-.5-.5-.5-.5-.5-.5-.5-.5-.5 1-.5 1-1.5.5-1.5.5h-1-1l-1 .5-1 .5h-1-1l-.5-.5-.5-.5-1 .5-1 .5-1.5-.5-1.5-.5h-1-1-2-2-1.5-1.5-1.5-1.5-2.5-2.5-2-2-2.5-2.5-2-2l-1.5.5-1.5.5v2 2l.5 1.5.5 1.5 1 2.5 1 2.5 12 3.5 12 3.5 1.5 17 1.5 17 4 .5 4 .5-.5 1-.5 1-.5.5-.5.5-.5 1-.5 1h-1-1l-1-1-1-1v1.5 1.5l.5 1.5.5 1.5v2 2l-.5 2-.5 2-1 .5-1 .5h-.5-.5l-1.5-.5-1.5-.5v-1.5-1.5-1-1l-.5-.5-.5-.5-.5-.5-.5-.5-.5-1-.5-1v-1-1-1-1l.5-.5.5-.5-.5-1-.5-1v-1-1-1-1h-1-1l-.5.5-.5.5v1.5 1.5h-2-2l-12.5 10-12.5 10h-.5-.5l-1 3-1 3 2 19.5 2 19.5 1 19 1 19 2.5 25.5 2.5 25.5 4-12 4-12 4 5.5 4 5.5 7-7 7-7 2-17 2-17 4.5-15.5 4.5-15.5 5.5 11.5 5.5 11.5 3.5 11.5 3.5 11.5 3.5 14.5 3.5 14.5 7.5 11.5 7.5 11.5 4.5 11.5 4.5 11.5 10-4 10-4 8 12 8 12 9 16.5 9 16.5-.5.5-.5.5h2.5 2.5 2 2 2.5 2.5 2 2 2.5 2.5 2 2 2.5 2.5 2 2 2 2 2.5 2.5 1.5 1.5v-26-26l1.5-18 1.5-18 .5-18.5.5-18.5.5-17.5.5-17.5-.5-19-.5-19v-2-2-1-1l.5-.5.5-.5v-1-1-1.5-1.5-1-1-1-1h1 1l1 .5 1 .5v1 1l.5 1.5.5 1.5 4 24 4 24 4 16 4 16 1.5 17.5 1.5 17.5 2 14 2 14 5.5 9.5 5.5 9.5 3.5-15.5 3.5-15.5.5-18.5.5-18.5 1-19 1-19 2-18.5 2-18.5v-2.5-2.5" style="fill:#a8514b;stroke:#a8514b" />
        <path d="m553 360l1-3v-3-3l-1-.5-1-.5-1 1-1 1-1 1.5-1 1.5.5 1.5.5 1.5.5 2 .5 2 1 1.5 1 1.5v-1.5-1.5l.5-1 .5-1" style="fill:#b26763;stroke:#b26763" />
        <path d="m553 209l1-3-1.5-.5-1.5-.5-2-.5-2-.5-1.5-.5-1.5-.5-2 .5-2 .5-1 1-1 1 1.5 1 1.5 1 1 1 1 1h2 2 2.5 2.5l.5-.5.5-.5" style="fill:#1a1105;stroke:#1a1105" />
        <path d="m551 472l1-3v-2-2-2.5-2.5l-1 1-1 1-.5 2-.5 2-.5 2.5-.5 2.5v2 2l-1 .5-1 .5v1 1l-.5.5-.5.5v1 1l-.5 1-.5 1h-1-1l-.5.5-.5.5h-1-1l-1 1-1 1 .5 1 .5 1h1.5 1.5l.5 1.5.5 1.5.5-2 .5-2 .5-1.5.5-1.5 1.5-.5 1.5-.5 1-1.5 1-1.5 1-1 1-1v-3-3" style="fill:#b26763;stroke:#b26763" />
        <path d="m550 448v-58l-5 9-5 9v17.5 17.5l4 14 4 14 .5-2.5.5-2.5.5-2 .5-2v-2-2-2-2-3-3" style="fill:#959183;stroke:#959183" />
        <path d="m543 325l1-3-1-1-1-1-1-1.5-1-1.5-1.5-.5-1.5-.5-1-1.5-1-1.5-1-1-1-1-1-1.5-1-1.5-1-.5-1-.5.5 2 .5 2v1 1h-2.5-2.5l-.5.5-.5.5 1 .5 1 .5h1 1l.5.5.5.5.5.5.5.5.5 1 .5 1 .5.5.5.5v1 1l.5.5.5.5-.5 1.5-.5 1.5.5 1 .5 1 2 .5 2 .5 1 1 1 1 1-1.5 1-1.5 1-1.5 1-1.5" style="fill:#765f4f;stroke:#765f4f" />
        <path d="m542 509l1-3-.5-.5-.5-.5v-1-1l.5-1 .5-1v-1-1l-.5-.5-.5-.5v-1-1-1-1-1.5-1.5l-1 1.5-1 1.5-1 1-1 1-.5 1.5-.5 1.5.5 2 .5 2v1 1 2.5 2.5l1.5.5 1.5.5.5-1 .5-1" style="fill:#b26763;stroke:#b26763" />
        <path d="m530 313v-2l-.5-2-.5-2-1-1-1-1-1-1-1-1-.5-2-.5-2-1-1-1-1-1.5-1-1.5-1-.5-1.5-.5-1.5-1-1-1-1-1-1.5-1-1.5-.5-1.5-.5-1.5-1.5-1-1.5-1 .5 1.5.5 1.5.5.5.5.5.5 1 .5 1 .5 1.5.5 1.5.5.5.5.5 1 .5 1 .5.5 1.5.5 1.5.5.5.5.5.5.5.5.5.5.5.5.5.5 1 .5 1 .5.5.5.5.5.5.5.5.5.5.5.5-.5 1.5-.5 1.5-.5.5-.5.5v.5.5l.5 1 .5 1 .5.5.5.5v.5.5h2.5 2.5" style="fill:#524d41;stroke:#524d41" />
        <path d="m529 326l1-2-.5-2.5-.5-2.5-1.5-.5-1.5-.5-1.5-.5-1.5-.5-1 1.5-1 1.5-1.5.5-1.5.5-1 1.5-1 1.5-1.5.5-1.5.5v1.5 1.5l.5 1.5.5 1.5-1 1.5-1 1.5h2 2l1.5-1 1.5-1 1.5-.5 1.5-.5 1.5-1 1.5-1h2 2v-1.5-1.5" style="fill:#b26763;stroke:#b26763" />
        <path d="m528 409l-12-34h-.5-.5v1.5 1.5l-.5.5-.5.5v1 1 1 1 1.5 1.5 1 1 1 1 1 1l-.5.5-.5.5-.5 1-.5 1v1 1l-.5.5-.5.5v1 1 1.5 1.5 1 1 2 2h8.5 8.5" style="fill:#959183;stroke:#959183" />
        <path d="m528 212h1l-1-.5-1-.5h-1-1l-.5-.5-.5-.5-1-.5-1-.5-.5-.5-.5-.5h-1-1l-.5-.5-.5-.5h-1.5-1.5l-.5-.5-.5-.5-.5-.5-.5-.5-.5-.5-.5-.5-1-.5-1-.5v-1-1l-.5-.5-.5-.5-.5-.5-.5-.5-.5-.5-.5-.5-.5-1-.5-1h-.5-.5l-.5-1-.5-1-1-1-1-1-1.5 1-1.5 1-.5 1.5-.5 1.5v2.5 2.5 2 2 2.5 2.5 2 2 2 2l.5 2.5.5 2.5 14.5-6 14.5-6" style="fill:#cecbb3;stroke:#cecbb3" />
        <path d="m527 482v-2-1-1l-.5-.5-.5-.5v-1-1l-.5-1-.5-1-.5-.5-.5-.5-.5-.5-.5-.5v-1-1l-.5-1-.5-1 1-.5 1-.5-.5-1-.5-1-.5-1-.5-1v-1-1l-.5-.5-.5-.5v-1-1l-.5-.5-.5-.5-.5-.5-.5-.5v-1.5-1.5l-.5-.5-.5-.5-.5-.5-.5-.5-.5-1-.5-1v20.5 20.5l5.5-3.5 5.5-3.5" style="fill:#b26763;stroke:#b26763" />
        <path d="m525 312l-1-1-.5-1-.5-1h-.5-.5l-13 5.5-13 5.5-13.5 6.5-13.5 6.5-11.5 8.5-11.5 8.5-14 6-14 6-16 4-16 4h-16-16l-27 4.5-27 4.5-.5 1-.5 1v.5.5l1.5.5 1.5.5 1 .5 1 .5 1.5-.5 1.5-.5h2 2 2.5 2.5 2 2 2.5 2.5 1.5 1.5 1.5 1.5l1-.5 1-.5h1 1l.5-.5.5-.5h1 1 1.5 1.5l1-1 1-1v-1-1l.5-.5.5-.5h1 1l1-.5 1-.5h1 1 1 1 1 1l.5 1 .5 1 .5.5.5.5.5.5.5.5v1 1l.5 1 .5 1 28.5-6 28.5-6 13.5-6 13.5-6 21.5-14 21.5-14 19.5-8.5 19.5-8.5.5-.5.5-.5v-.5-.5" style="fill:#8a352c;stroke:#8a352c" />
        <path d="m524 307l1-3-.5-.5-.5-.5-.5-.5-.5-.5-.5-.5-.5-.5-.5-1-.5-1-.5-.5-.5-.5-.5-.5-.5-.5-.5-.5-.5-.5-.5-1.5-.5-1.5-1-.5-1-.5-.5-.5-.5-.5-.5-1.5-.5-1.5-.5-1-.5-1-.5-.5-.5-.5-.5-1.5-.5-1.5-1-1-1-1-.5-1-.5-1-.5 1-.5 1 1.5 1.5 1.5 1.5.5 1.5.5 1.5 1 1.5 1 1.5.5 1.5.5 1.5 1 1.5 1 1.5 1 1 1 1 1 1.5 1 1.5.5 1.5.5 1.5v1 1h-1.5-1.5l1 .5 1 .5 2 1 2 1 .5-.5.5-.5" style="fill:#3c3529;stroke:#3c3529" />
        <path d="m522 309h1v-.5-.5l-2-1-2-1-1-.5-1-.5-18 7.5-18 7.5-13 7-13 7-12 8-12 8-14.5 5.5-14.5 5.5-18 1-18 1-18 2.5-18 2.5-1.5 1-1.5 1h-1-1l-1 .5-1 .5h-2-2-1-1l-1 .5-1 .5-1.5.5-1.5.5h-1-1l-.5.5-.5.5h-1-1-1.5-1.5l-1.5.5-1.5.5-1.5.5-1.5.5v1.5 1.5h1 1l27-4.5 27-4.5h16 16l16-4 16-4 14-6 14-6 11.5-8.5 11.5-8.5 13.5-6.5 13.5-6.5 13-5.5 13-5.5" style="fill:#76200b;stroke:#76200b" />
        <path d="m520 305v-2l-.5-1.5-.5-1.5-1-1.5-1-1.5-1-1-1-1-1-1.5-1-1.5-.5-1.5-.5-1.5-1-1.5-1-1.5-.5-1.5-.5-1.5-1.5-1.5-1.5-1.5.5 1 .5 1-.5 1.5-.5 1.5-7.5-19-7.5-19-8 11.5-8 11.5 11 7 11 7 10 10.5 10 10.5h1.5 1.5" style="fill:#391b0f;stroke:#391b0f" />
        <g style="fill:#b26763;stroke:#b26763">
            <path d="m516 445l-1-2v-1.5-1.5l-.5-.5-.5-.5v-2-2l-.5-1-.5-1v-1-1-2-2l-1-1-1-1-.5-1-.5-1v3 3l.5 1.5.5 1.5v2 2l.5 2 .5 2 .5 1.5.5 1.5 1 1.5 1 1.5.5 1 .5 1v-1.5-1.5" />
            <path d="m515 375h1l-.5-1.5-.5-1.5-.5-1.5-.5-1.5v-2-2l-1-1.5-1-1.5-1.5-.5-1.5-.5-.5-2-.5-2 .5-1.5.5-1.5-.5-2-.5-2-.5-1-.5-1 1 33 1 33 .5-1.5.5-1.5.5-1 .5-1v-2-2-1-1-1.5-1.5-1-1l.5-.5.5-.5v-1-1l.5-1 .5-1 .5-.5.5-.5v-1-1-1-1-1-1-1.5-1.5-1-1-1-1l.5-.5.5-.5v-1.5-1.5" />
        </g>
        <path d="m506 285l1-3-.5-1-.5-1-1-.5-1-.5-.5-1-.5-1-.5-.5-.5-.5v-1-1l-.5-.5-.5-.5-1-1-1-1-.5-1-.5-1v-1-1l-1-1-1-1-.5-1-.5-1v-1-1l-.5-.5-.5-.5v-1-1-1.5-1.5-1-1l-.5-1-.5-1-1-2-1-2 7.5 19 7.5 19" style="fill:#1a1105;stroke:#1a1105" />
        <path d="m505 385l-10-14-.5 18.5-.5 18.5 5 10 5 10 .5-19.5.5-19.5v-2-2" style="fill:#8a352c;stroke:#8a352c" />
        <path d="m505 196h1l-5 19.5-5 19.5 1.5-4.5 1.5-4.5v-1-1l-.5-2.5-.5-2.5v-2-2-2-2-2.5-2.5-2-2-2.5-2.5l.5-1.5.5-1.5 1.5-1 1.5-1 1 1 1 1 .5 1 .5 1" style="fill:#b9b4a6;stroke:#b9b4a6" />
        <path d="m504 467l1-3-.5-1.5-.5-1.5v-1-1l-1-.5-1-.5h-1-1v1 1 1 1 1.5 1.5 1 1l-.5.5-.5.5v1 1 2 2l1 .5 1 .5.5-1.5.5-1.5 1-2.5 1-2.5" style="fill:#8a352c;stroke:#8a352c" />
        <path d="m498 146l-14 16 6.5-5.5 6.5-5.5.5-2.5.5-2.5" style="fill:#765f4f;stroke:#765f4f" />
        <path d="m496 340l-14 14-5 13-5 13 1 5.5 1 5.5 1.5.5 1.5.5.5-.5.5-.5h1 1l.5-.5.5-.5h1.5 1.5 1 1v1 1l.5.5.5.5v1.5 1.5l.5.5.5.5v1 1h2 2l-1.5-18-1.5-18 3-10 3-10 .5-1.5.5-1.5" style="fill:#b26763;stroke:#b26763" />
        <path d="m491 400l1-1h-2-2v-1-1l-.5-.5-.5-.5v-1.5-1.5l-.5-.5-.5-.5v-1-1h-1-1-1.5-1.5l-.5.5-.5.5h-1-1l-.5.5-.5.5-1.5-.5-1.5-.5-.5 1-.5 1-1 1-1 1h-.5-.5-.5-.5l-.5 1-.5 1-1.5.5-1.5.5-.5 1-.5 1v1 1h-1.5-1.5-2-2l-1.5-1-1.5-1v-1-1l1.5-.5 1.5-.5-.5-2-.5-2v-1.5-1.5l-.5-1.5-.5-1.5-1 .5-1 .5h-1.5-1.5-1-1l-1-.5-1-.5-1.5-.5-1.5-.5h-.5-.5l-.5 1-.5 1-1 1.5-1 1.5 1 1 1 1-1.5 1-1.5 1h-2-2l-1-1.5-1-1.5-1.5-.5-1.5-.5-.5-1-.5-1 .5-.5.5-.5-1-2-1-2-17.5-3-17.5-3-14.5 5.5-14.5 5.5-3.5 16.5-3.5 16.5-1.5 12.5-1.5 12.5 9.5-.5 9.5-.5 13.5 5 13.5 5h1.5 1.5 2 2l1.5 1 1.5 1 1 1 1 1 .5 2 .5 2 1 1 1 1 1.5.5 1.5.5v1 1l1.5 1 1.5 1 1-2.5 1-2.5v-2-2h2.5 2.5l.5-1.5.5-1.5.5 1 .5 1 1.5.5 1.5.5h2 2l.5-1.5.5-1.5h2 2v-2-2l.5-.5.5-.5.5-1 .5-1h2 2l.5.5.5.5.5 1 .5 1 .5 1.5.5 1.5 1.5 1 1.5 1 1 1 1 1-.5 1.5-.5 1.5 4 13 4 13 10-3 10-3 2-8 2-8 1.5-22.5 1.5-22.5-1-1.5-1-1.5-.5-2-.5-2 .5-1.5.5-1.5.5-2 .5-2 .5-1.5.5-1.5.5-1.5.5-1.5.5-2 .5-2" style="fill:#85786c;stroke:#85786c" />
        <path d="m491 224l1-3v-2-2-2.5-2.5-2-2l-.5-1-.5-1v2 2 1 1 1.5 1.5 1 1 1 1l-.5 1.5-.5 1.5-1.5-.5-1.5-.5-.5-1.5-.5-1.5-1-1.5-1-1.5v-2-2-2.5-2.5-2-2-2.5-2.5l1-1 1-1 .5.5.5.5 1.5 2 1.5 2-7.5-14-7.5-14-1.5 6.5-1.5 6.5 5 15 5 15 4.5 4.5 4.5 4.5" style="fill:#391b0f;stroke:#391b0f" />
        <path d="m490 447l1-3v-2-2l-.5-2-.5-2v-2-2l.5-2 .5-2-.5-1.5-.5-1.5-.5-.5-.5-.5-1.5 22.5-1.5 22.5 1-2 1-2 .5-1.5.5-1.5v-2.5-2.5l.5-1.5.5-1.5v-2.5-2.5-1-1" style="fill:#b26763;stroke:#b26763" />
        <path d="m490 222l1-3v-1-1-1-1-1.5-1.5-1-1-2-2-2.5-2.5l-.5-.5-.5-.5-1.5-2-1.5-2-.5-.5-.5-.5-1 1-1 1v2.5 2.5 2 2 2.5 2.5 2 2l1 1.5 1 1.5.5 1.5.5 1.5 1.5.5 1.5.5" style="fill:#1a1105;stroke:#1a1105" />
        <path d="m485 342v-2-2-2-.5-.5-1-1-1-1l-21.5 14-21.5 14-13.5 6-13.5 6 13.5 1 13.5 1 11-5 11-5 10.5-10.5 10.5-10.5" style="fill:#bd3b2c;stroke:#bd3b2c" />
        <g style="fill:#524d41;stroke:#524d41">
            <path d="m479 229l-7 1-3.5 13.5-3.5 13.5 7-10 7-10v-4-4" />
            <path d="m479 106l-19-17-2 9-2 9 11.5-.5 11.5-.5" />
            <path d="m478 124h-12l5 3 5 3 1-3 1-3" />
            <path d="m475 59l1-3-.5-1.5-.5-1.5-2-.5-2-.5-1.5.5-1.5.5-.5 2-.5 2 1 1 1 1 2 .5 2 .5 1-.5 1-.5" />
        </g>
        <path d="m469 395h1l-.5-1-.5-1-1.5-.5-1.5-.5-2 .5-2 .5-.5-1.5-.5-1.5h-1.5-1.5-1-1v1.5 1.5l.5 2 .5 2-1.5.5-1.5.5v1 1l1.5 1 1.5 1h2 2 1.5 1.5v-1-1l.5-1 .5-1 1.5-.5 1.5-.5.5-1 .5-1" style="fill:#765f4f;stroke:#765f4f" />
        <path d="m460 377l-18 4 .5 2.5.5 2.5 1.5.5 1.5.5 1 .5 1 .5h1 1 1.5 1.5l1-.5 1-.5 1-2 1-2 .5-1.5.5-1.5 1-1 1-1v-.5-.5" style="fill:#b26763;stroke:#b26763" />
        <path d="m459 156l-14-39-4-13-4-13 1.5-14.5 1.5-14.5 1-16 1-16-2.5-15-2.5-15h-22-22-13.5-13.5l.5 22 .5 22-.5 16.5-.5 16.5 5 14 5 14 4.5 11.5 4.5 11.5-8 10-8 10 2.5 9.5 2.5 9.5 12 3.5 12 3.5 15.5-3.5 15.5-3.5 15-5.5 15-5.5" style="fill:#524d41;stroke:#524d41" />
        <path d="m454 465l1-3-1-1-1-1-1.5-1-1.5-1-.5-1.5-.5-1.5-.5-1-.5-1-.5-.5-.5-.5h-2-2l-.5 1-.5 1-.5.5-.5.5v2 2h-2-2l-.5 1.5-.5 1.5 1.5 1 1.5 1 2-.5 2-.5 1.5-.5 1.5-.5 2 .5 2 .5 1 1 1 1h1 1" style="fill:#b26763;stroke:#b26763" />
        <path d="m448 671l-18-33-8-12-8-12-10 4-10 4-4.5-11.5-4.5-11.5-7.5-11.5-7.5-11.5-3.5-14.5-3.5-14.5-3.5-11.5-3.5-11.5-5.5-11.5-5.5-11.5-4.5 15.5-4.5 15.5-2 17-2 17-7 7-7 7-4-5.5-4-5.5-4 12-4 12v2.5 2.5l.5.5.5.5v1 1 1 1 1.5 1.5 1 1 1 1 1 1 1.5 1.5l.5.5.5.5v1 1 1 1l-.5 1.5-.5 1.5v1.5 1.5 2 2 2.5 2.5 2.5 2.5 2 2 1 1 1 1 1 1 2.5 2.5l1 1 1 1h1.5 1.5l.5-.5.5-.5.5.5.5.5.5.5.5.5v1 1l.5 1 .5 1 .5.5.5.5.5.5.5.5.5.5.5.5.5 1 .5 1v1 1h1 1v1 1 .5.5h3 3 .5.5l8.5-7.5 8.5-7.5 1.5-18 1.5-18v-36.5-36.5l.5-2 .5-2 1.5.5 1.5.5 4 17 4 17 2.5 17.5 2.5 17.5 3.5 29 3.5 29h21.5 21.5 17.5 17.5l.5-.5.5-.5" style="fill:#bd3b2c;stroke:#bd3b2c" />
        <path d="m441 388l1-2-2-.5-2-.5-.5-2-.5-2-.5-1.5-.5-1.5-1 1.5-1 1.5v1 1l-1.5 1-1.5 1-1-1-1-1-1 .5-1 .5 1 2 1 2-.5.5-.5.5.5 1 .5 1 1.5.5 1.5.5 1 1.5 1 1.5h2 2l1.5-1 1.5-1-1-1-1-1 1-1.5 1-1.5" style="fill:#765f4f;stroke:#765f4f" />
        <path d="m441 242l-9-31-11.5-5.5-11.5-5.5-11 1-11 1 10.5 4.5 10.5 4.5-9.5 8.5-9.5 8.5-11.5-6.5-11.5-6.5-.5 18.5-.5 18.5 8-6 8-6 12 3 12 3 3-3 3-3 11.5-4.5 11.5-4.5 3.5 5.5 3.5 5.5" style="fill:#524d41;stroke:#524d41" />
        <path d="m419 473l1-2-1.5-1-1.5-1v-1-1l-1.5-.5-1.5-.5-1-1-1-1-.5-2-.5-2-1-1-1-1-1.5-1-1.5-1h-2-2-1.5-1.5v2.5 2.5l-1 1-1 1-.5 2-.5 2 1 1 1 1 1.5 1 1.5 1 1 1 1 1h2.5 2.5 2 2l1.5.5 1.5.5 2-.5 2-.5" style="fill:#b26763;stroke:#b26763" />
        <path d="m381 407v-2l-1-1-1-1h-2.5-2.5l-1 1-1 1-1.5 1-1.5 1 .5 1.5.5 1.5 1.5 1 1.5 1 1.5-.5 1.5-.5 1-1 1-1 1.5-1 1.5-1" style="fill:#959183;stroke:#959183" />
        <path d="m368 672h1l-3.5-29-3.5-29-2.5-17.5-2.5-17.5-4-17-4-17 2.5 22 2.5 22-4.5-20.5-4.5-20.5v36.5 36.5l-1.5 18-1.5 18-8.5 7.5-8.5 7.5h2.5 2.5 2 2 2.5 2.5 2 2 2.5 2.5 2 2 2.5 2.5 2 2 2 2 1.5 1.5" style="fill:#c13306;stroke:#c13306" />
        <path d="m357 383h1l-.5-1-.5-1v-1-1l-.5-.5-.5-.5-.5-.5-.5-.5-.5-1-.5-1h-1-1-1-1-1-1l-1 .5-1 .5h-1-1l-.5.5-.5.5v1 1l-1 1-1 1h-1.5-1.5-1-1l-.5.5-.5.5h-1-1l-1 .5-1 .5h2 2 1 1l1.5.5 1.5.5 1-.5 1-.5.5.5.5.5h1 1l1-.5 1-.5h1 1l1.5-.5 1.5-.5.5-1 .5-1 .5.5.5.5.5.5.5.5 1 .5 1 .5" style="fill:#bd3b2c;stroke:#bd3b2c" />
        <path d="m354 589l-5-44-1.5-.5-1.5-.5-.5 2-.5 2 4.5 20.5 4.5 20.5" style="fill:#9c2b02;stroke:#9c2b02" />
        <path d="m342 438l-8-1 .5 2 .5 2 1 1 1 1h1 1l.5-1 .5-1 .5-.5.5-.5.5-1 .5-1" style="fill:#765f4f;stroke:#765f4f" />
        <path d="m337 363l-40 5 .5 4 .5 4 1.5-.5 1.5-.5 1.5-.5 1.5-.5h1.5 1.5 1 1l.5-.5.5-.5h1 1l1.5-.5 1.5-.5 1-.5 1-.5h1 1 2 2l1-.5 1-.5h1 1l1.5-1 1.5-1h-1-1l-1.5-.5-1.5-.5 2-.5 2-.5 1.5-.5 1.5-.5 1.5-.5 1.5-.5 1-.5 1-.5" style="fill:#391b0f;stroke:#391b0f" />
        <path d="m335 455l1-4v-2-2l-.5-1.5-.5-1.5v-1.5-1.5l-.5-2-.5-2-1.5-17-1.5-17-12-3.5-12-3.5 2 15.5 2 15.5-8.5 4.5-8.5 4.5-5.5-26.5-5.5-26.5 4.5 33.5 4.5 33.5-.5 1-.5 1h-1.5-1.5l-.5.5-.5.5h-1-1-1-1-1.5-1.5-1-1l-1 .5-1 .5h3 3 2 2l1.5 1 1.5 1 1.5.5 1.5.5 1 1 1 1 12.5-10 12.5-10 7 8.5 7 8.5 1-.5 1-.5" style="fill:#85786c;stroke:#85786c" />
        <path d="m332 456h1l-7-8.5-7-8.5h2 2v-1.5-1.5l.5-.5.5-.5h1 1v1 1 1 1l.5 1 .5 1-.5.5-.5.5v1 1 1 1l.5 1 .5 1 .5.5.5.5.5.5.5.5v1 1 1.5 1.5l1.5.5 1.5.5" style="fill:#b26763;stroke:#b26763" />
        <path d="m318 671v-2h-1-1v-1-1l-.5-1-.5-1-.5-.5-.5-.5-.5-.5-.5-.5-.5-.5-.5-.5-.5-1-.5-1v-1-1l-.5-.5-.5-.5-.5-.5-.5-.5-.5.5-.5.5h-1.5-1.5l-1-1-1-1v2 2 2.5 2.5 2 2l-.5 1.5-.5 1.5v.5.5h2 2 2.5 2.5 2 2 1.5 1.5v-.5-.5" style="fill:#c13306;stroke:#c13306" />
        <path d="m311 427l-4-31-1-2.5-1-2.5-.5-1.5-.5-1.5v-2-2l-1-.5-1-.5-1.5-.5-1.5-.5-1 1-1 1-2 1-2 1 3.5 21.5 3.5 21.5-3.5-21.5-3.5-21.5-1-1-1-1-1.5-.5-1.5-.5-2-.5-2-.5-1.5-.5-1.5-.5h-2.5-2.5-2-2-2.5-2.5l-2.5.5-2.5.5h1.5 1.5 2.5 2.5 2 2 2 2l2.5.5 2.5.5 5.5 26.5 5.5 26.5 8.5-4.5 8.5-4.5" style="fill:#765f4f;stroke:#765f4f" />
        <path d="m303 623l1-3v-1-1-1-1l-.5-.5-.5-.5v-1.5-1.5-1-1-1-1-1-1-1.5-1.5-1-1-1-1l-.5-.5-.5-.5v-2.5-2.5l-2.5-25.5-2.5-25.5-1-19-1-19-2-19.5-2-19.5-.5-1.5-.5-1.5-.5 1-.5 1-.5.5-.5.5 1 19 1 19 3 29 3 29-.5-1-.5-1v1.5 1.5l.5 1.5.5 1.5v2.5 2.5 2 2l.5 2.5.5 2.5 1.5 7 1.5 7 .5 27.5.5 27.5.5-1 .5-1v-1.5-1.5l.5-1.5.5-1.5v-2.5-2.5-2.5-2.5-2-2-1.5-1.5" style="fill:#8a352c;stroke:#8a352c" />
        <path d="m302 671l1-3v-2-2-2.5-2.5-2-2-2.5-2.5-1-1-1-1-1-1-2-2l-.5 1.5-.5 1.5v1.5 1.5l-.5 1-.5 1-.5 2.5-.5 2.5v2 2 2.5 2.5 2 2 3 3h1 1v-.5-.5" style="fill:#9c2b02;stroke:#9c2b02" />
        <path d="m300 653l1-5-.5-27.5-.5-27.5-1.5-7-1.5-7v1.5 1.5 1.5 1.5 1 1 1 1 1 1 1 1l.5 1 .5 1v1 1 1 1l-.5 1.5-.5 1.5-1 35-1 35h2.5 2.5v-3-3-2-2-2.5-2.5-2-2" style="fill:#76200b;stroke:#76200b" />
        <path d="m299 381l1-2h-1-1l-23 1-23 1-17.5 2.5-17.5 2.5-18.5 1.5-18.5 1.5h-18-18l-15.5 4.5-15.5 4.5-9 12-9 12 10-11 10-11 16-4.5 16-4.5h2 2l1.5-.5 1.5-.5.5.5.5.5h1.5 1.5 2 2l2.5-.5 2.5-.5 23.5-1 23.5-1 24-3 24-3 2.5-.5 2.5-.5h2.5 2.5 2 2 2.5 2.5l1.5.5 1.5.5 2 .5 2 .5 1.5.5 1.5.5 1 1 1 1 2-1 2-1 1-1 1-1v-.5-.5" style="fill:#524d41;stroke:#524d41" />
        <path d="m297 602l1-3v-1-1-1-1l-.5-1-.5-1v-1-1-1-1-1-1-1-1-1.5-1.5-1.5-1.5l-.5-2.5-.5-2.5v-2-2-2.5-2.5l-.5-1.5-.5-1.5v-1.5-1.5l-.5-2-.5-2-1-2-1-2h-.5-.5l-1-.5-1-.5-.5-.5-.5-.5v-1-1l-.5-.5-.5-.5v-1.5-1.5l-.5-1.5-.5-1.5-.5-.5-.5-.5v-1-1-1-1-1.5-1.5-1-1-1-1-1-1-1.5-1.5-1-1-1-1l.5-1.5.5-1.5v-25.5-25.5-2-2l-1.5-1-1.5-1-1.5-.5-1.5-.5h-2.5-2.5-2-2-2.5-2.5-2-2-2.5-2.5-2-2l-1.5-.5-1.5-.5h-2-2l16.5 3.5 16.5 3.5-14.5 1.5-14.5 1.5v4.5 4.5l8.5 11.5 8.5 11.5 1.5 17.5 1.5 17.5 6.5 13.5 6.5 13.5 4.5 23 4.5 23-9.5 5.5-9.5 5.5 6 13 6 13-.5 14-.5 14h2.5 2.5 2.5 2.5.5.5l1-35 1-35" style="fill:#391b0f;stroke:#391b0f" />
        <path d="m296 561l-6-58-1-19-1-19h-.5-.5-.5-.5v25.5 25.5 1.5 1.5 2 2l.5 1.5.5 1.5v2.5 2.5l.5 1.5.5 1.5v2.5 2.5l.5 1.5.5 1.5v2.5 2.5l1 1 1 1 .5 1 .5 1 1 2 1 2 .5 2 .5 2 .5 1 .5 1" style="fill:#76200b;stroke:#76200b" />
        <path d="m293 459h1l-1-1-1-1-1.5-.5-1.5-.5-1.5-1-1.5-1h-2-2-3-3l-1 .5-1 .5h-2-2l-2.5-.5-2.5-.5h-.5-.5-3-3-2-2l1 .5 1 .5h1 1 1.5 1.5l1.5.5 1.5.5h1 1 1 1 1 1 1.5 1.5 1 1 1 1 1 1 1.5 1.5 2 2l.5.5.5.5 1 .5 1 .5.5 2 .5 2 .5 1.5.5 1.5 1-3 1-3" style="fill:#765f4f;stroke:#765f4f" />
        <path d="m292 607l-9-46-6.5-13.5-6.5-13.5-1.5-17.5-1.5-17.5-8.5-11.5-8.5-11.5v-4.5-4.5l14.5-1.5 14.5-1.5-16.5-3.5-16.5-3.5-17-3.5-17-3.5-21.5-4.5-21.5-4.5h-.5-.5l-4.5 11.5-4.5 11.5-4-8.5-4-8.5-9.5 13-9.5 13-.5 2-.5 2v2 2 2 2l-.5.5-.5.5v1.5 1.5 2 2l-.5.5-.5.5-.5 1-.5 1-.5 1.5-.5 1.5v1 1 2 2l8.5 10.5 8.5 10.5 9 11.5 9 11.5-13 7.5-13 7.5-16 2-16 2-17 3-17 3-16.5 3.5-16.5 3.5-18.5 5.5-18.5 5.5v20.5 20.5 10 10l16-2.5 16-2.5 14.5-2.5 14.5-2.5h15 15l17.5-.5 17.5-.5 14.5 13 14.5 13-2-.5-2-.5-1-1-1-1-1 1.5-1 1.5-1.5.5-1.5.5-1 1-1 1h1 1l1.5.5 1.5.5h20 20 20 20 20 20 8.5 8.5l.5-14 .5-14-6-13-6-13 9.5-5.5 9.5-5.5" style="fill:#1a1105;stroke:#1a1105" />
        <path d="m292 450l-9-67-2.5-.5-2.5-.5h-2-2-2-2l-.5.5-.5.5-27.5 3-27.5 3h-.5-.5l-1 .5-1 .5h-2-2l-2 .5-2 .5h-2-2-2.5-2.5-2-2v.5.5l19.5-2 19.5-2 28 5 28 5 1.5 24.5 1.5 24.5-21 1-21 1h-2.5-2.5l-1 .5-1 .5h2 2l2 .5 2 .5 1.5.5 1.5.5 1.5.5 1.5.5h2.5 2.5 2 2l1.5.5 1.5.5 2.5.5 2.5.5h2 2l1-.5 1-.5 1-.5 1-.5h1 1 1.5 1.5 1 1 1 1l.5-.5.5-.5h1.5 1.5l.5-1 .5-1" style="fill:#959183;stroke:#959183" />
        <path d="m291 551h1l-.5-1-.5-1-1-1-1-1v-2.5-2.5l-.5-1.5-.5-1.5v-2.5-2.5l-.5-1.5-.5-1.5v-2.5-2.5l-.5-1.5-.5-1.5v-2-2-1.5-1.5l-.5 1.5-.5 1.5v1 1 1 1 1.5 1.5 1 1 1 1 1 1 1.5 1.5 1 1 1 1l.5.5.5.5.5 1.5.5 1.5v1.5 1.5l.5.5.5.5v1 1l.5.5.5.5 1 .5 1 .5" style="fill:#3c3529;stroke:#3c3529" />
        <path d="m289 464l1-2-.5-2-.5-2-1-.5-1-.5-.5-.5-.5-.5h-2-2-1.5-1.5-1-1-1-1-1-1-1.5-1.5-1-1-1-1-1-1l-1.5-.5-1.5-.5h-1.5-1.5-1-1l-1-.5-1-.5h-2.5-2.5l-2-.5-2-.5-1.5-.5-1.5-.5-2-.5-2-.5-1.5-.5-1.5-.5h-3-3l29.5 7.5 29.5 7.5.5-.5.5-.5" style="fill:#524d41;stroke:#524d41" />
        <path d="m288 447l-3-49v2.5 2.5l.5 2 .5 2v2 2l.5 2 .5 2v2 2l.5 2 .5 2v2 2l-.5 1.5-.5 1.5-17.5 9.5-17.5 9.5h-1.5-1.5-1.5-1.5l21-1 21-1" style="fill:#b9b4a6;stroke:#b9b4a6" />
        <path d="m287 465h1l-29.5-7.5-29.5-7.5-32-7.5-32-7.5h-.5-.5-1.5-1.5l-1.5-.5-1.5-.5-.5-.5-.5-.5h-1.5-1.5l-1.5-.5-1.5-.5h-1-1l-1 .5-1 .5-1 1-1 1v1.5 1.5l.5-1 .5-1 .5-.5.5-.5.5-.5.5-.5h1.5 1.5l.5.5.5.5h1 1 1 1l1 .5 1 .5h1 1l.5.5.5.5h1 1l1 .5 1 .5.5.5.5.5.5.5.5.5 1 .5 1 .5 21.5 4.5 21.5 4.5 17 3.5 17 3.5h2 2l1.5.5 1.5.5h2 2 2.5 2.5 2 2 2.5 2.5 2 2 2.5 2.5l1.5.5 1.5.5 1.5 1 1.5 1v2 2h.5.5" style="fill:#3c3529;stroke:#3c3529" />
        <path d="m287 430l1-3v-2-2l-.5-2-.5-2v-2-2l-.5-2-.5-2v-2-2l-.5-2-.5-2v-2.5-2.5h-.5-.5l-14-6-14-6-24.5 3.5-24.5 3.5 18.5-1.5 18.5-1.5 18-1 18-1 2.5 19 2.5 19-16.5 11.5-16.5 11.5 17.5-9.5 17.5-9.5" style="fill:#cecbb3;stroke:#cecbb3" />
        <path d="m285 426l-5-38-18 1-18 1-18.5 1.5-18.5 1.5h-1.5-1.5-2.5-2.5l-.5.5-.5.5h-2-2-2-2-2.5-2.5-2-2-1.5-1.5-.5-.5-1-1l-.5.5-.5.5h-2.5-2.5-2.5-2.5-2-2-2.5-2.5l-1.5.5-1.5.5-1.5.5-1.5.5h-2.5-2.5-2-2l-2 .5-2 .5h-3-3l-11.5 9-11.5 9-8 12-8 12-7.5 12-7.5 12-1 17.5-1 17.5 12.5 16.5 12.5 16.5h2 2l1-1 1-1-.5-2-.5-2-1-1-1-1-1.5-1-1.5-1-1.5-.5-1.5-.5-.5-1.5-.5-1.5-4-15.5-4-15.5 8-11.5 8-11.5 2.5 13 2.5 13 6.5 15 6.5 15-1.5-10-1.5-10 9-27.5 9-27.5-5.5-14-5.5-14 12.5-5.5 12.5-5.5 10 13 10 13 1.5.5 1.5.5 16 4 16 4 23.5 4 23.5 4 16.5-11.5 16.5-11.5" style="fill:#e1ddd1;stroke:#e1ddd1" />
        <path d="m284 398h1l-28-5-28-5-19.5 2-19.5 2 1.5.5 1.5.5h1 1 2 2 2.5 2.5 1.5 1.5l24.5-3.5 24.5-3.5 14 6 14 6" style="fill:#b9b4a6;stroke:#b9b4a6" />
        <g style="fill:#85786c;stroke:#85786c">
            <path d="m269 383l1-1h-2.5-2.5-1.5-1.5l-24 3-24 3v.5.5l27.5-3 27.5-3" />
            <path d="m264 454h1l-1.5-.5-1.5-.5h-2-2-2.5-2.5l-1.5-.5-1.5-.5-1.5-.5-1.5-.5-2-.5-2-.5h-2-2l1-.5 1-.5h2.5 2.5 1.5 1.5 1.5 1.5l-23.5-4-23.5-4-16-4-16-4-.5.5-.5.5-2.5-.5-2.5-.5-1.5-1-1.5-1-1.5-.5-1.5-.5-2-.5-2-.5-1.5-.5-1.5-.5-2-.5-2-.5h-2-2l-1.5.5-1.5.5-1 1.5-1 1.5v2 2l.5 2 .5 2v-2-2l.5-2 .5-2 1-1 1-1h2.5 2.5 2 2l1.5.5 1.5.5 1.5 1 1.5 1 1.5.5 1.5.5 1 1 1 1 32 7.5 32 7.5h3 3l1.5.5 1.5.5 2 .5 2 .5 1.5.5 1.5.5 2 .5 2 .5h2.5 2.5 2 2 3 3" />
        </g>
        <path d="m238 191l-32-43-15 5-15 5-16.5 3.5-16.5 3.5-17.5 2.5-17.5 2.5-18 2-18 2-17 3-17 3-19 .5-19 .5v1.5 1.5.5.5l16.5-1.5 16.5-1.5 17.5-2 17.5-2 17.5-2.5 17.5-2.5 18-2 18-2 17.5-2.5 17.5-2.5 14-6 14-6 16.5 19.5 16.5 19.5-3.5 16.5-3.5 16.5-1 17-1 17-.5 18.5-.5 18.5-1 18.5-1 18.5 1 24 1 24v-22.5-22.5l1.5-18.5 1.5-18.5.5-19.5.5-19.5 1.5-17.5 1.5-17.5 3-16.5 3-16.5" style="fill:#391b0f;stroke:#391b0f" />
        <path d="m235 191l-33-39-14 6-14 6-17.5 2.5-17.5 2.5-18 2-18 2-17.5 2.5-17.5 2.5-17.5 2-17.5 2-16.5 1.5-16.5 1.5v20 20 4.5 4.5l18.5 1.5 18.5 1.5 15.5-3.5 15.5-3.5 16.5-2.5 16.5-2.5 15-5 15-5 15.5-.5 15.5-.5 8.5 9.5 8.5 9.5v19 19l-.5 16.5-.5 16.5 3.5 14.5 3.5 14.5v18 18l10.5 8 10.5 8h2 2 1 1l1.5-.5 1.5-.5h2 2l1-.5 1-.5h1 1l1-1.5 1-1.5-1-24-1-24 1-18.5 1-18.5.5-18.5.5-18.5 1-17 1-17 3.5-16.5 3.5-16.5" style="fill:#1a1105;stroke:#1a1105" />
        <path d="m213 389h1v-.5-.5l-23.5 1-23.5 1 1.5.5 1.5.5h1 1 1.5 1.5 1 1 1 1 1 1 1.5 1.5 1 1 2 2 2 2 2.5 2.5 2 2l2-.5 2-.5h2 2l1-.5 1-.5" style="fill:#765f4f;stroke:#765f4f" />
        <path d="m205 386l1-1-10.5-8-10.5-8v-18-18l-3.5-14.5-3.5-14.5.5-16.5.5-16.5v-19-19l-8.5-9.5-8.5-9.5-15.5.5-15.5.5-15 5-15 5-16.5 2.5-16.5 2.5-15.5 3.5-15.5 3.5-18.5-1.5-18.5-1.5v3.5 3.5 2 2 2.5 2.5 2 2 .5.5l31-7.5 31-7.5 16-4 16-4 16-4 16-4 16-2 16-2 8.5 11.5 8.5 11.5-1.5 18.5-1.5 18.5-.5 19.5-.5 19.5v19 19l-6 12-6 12-14 3-14 3 18-1 18-1 19 .5 19 .5" style="fill:#391b0f;stroke:#391b0f" />
        <path d="m198 394l1-1h-2-2-1-1l-1.5-.5-1.5-.5h-.5-.5-2-2-2-2-2.5-2.5-2-2-2-2-2.5-2.5-2-2-2.5-2.5-2-2l-1.5-.5-1.5-.5-16 4.5-16 4.5-10 11-10 11-1 .5-1 .5-.5 1.5-.5 1.5-.5 1.5-.5 1.5-1 1.5-1 1.5-1 .5-1 .5-.5 1-.5 1-.5 1-.5 1-.5 1.5-.5 1.5-.5 2-.5 2-1 1-1 1-1 1-1 1-1 1.5-1 1.5-1 1-1 1-1 1.5-1 1.5-.5 1.5-.5 1.5-.5 2-.5 2-.5 1.5-.5 1.5v1 1 1.5 1.5l.5 1.5.5 1.5v1 1 1 1 1 1 1 1 1.5 1.5 1 1 1.5 1.5 2 2 1 1 1.5 1.5 3 3 1.5 1.5l1 1 1 1 .5 1.5.5 1.5.5 1 .5 1 10.5 10.5 10.5 10.5 13-5 13-5h1.5 1.5l.5.5.5.5 1 .5 1 .5 1.5-.5 1.5-.5h1 1l.5-.5.5-.5.5-.5.5-.5.5-1 .5-1v-1-1-1-1l-.5-.5-.5-.5v-2-2l-.5-1-.5-1v-1-1l-.5-.5-.5-.5h-1-1l-.5-1-.5-1-.5-.5-.5-.5-1-.5-1-.5v-2-2-1-1l.5-1.5.5-1.5.5-1 .5-1 .5-.5.5-.5v-2-2-1.5-1.5l.5-.5.5-.5v-2-2-2-2l.5-2 .5-2 .5-1.5.5-1.5.5-1 .5-1 .5-2.5.5-2.5 1-1.5 1-1.5.5-1.5.5-1.5 1-1 1-1 .5-2 .5-2v-2-2l.5-2.5.5-2.5v-1.5-1.5l-.5-2-.5-2v-2-2l1-1.5 1-1.5 1.5-.5 1.5-.5h2 2l2 .5 2 .5 1.5.5 1.5.5 2 .5 2 .5 1.5.5 1.5.5 1.5 1 1.5 1-15 5.5-15 5.5-.5.5-.5.5-9 27.5-9 27.5 1.5 10 1.5 10h-.5-.5-1.5-1.5-.5-.5-2-2l-.5.5-.5.5h-1.5-1.5l-1 1-1 1v1 1l.5 1 .5 1 .5 1.5.5 1.5-.5 2-.5 2-1.5.5-1.5.5-1.5-.5-1.5-.5h-1-1v-1-1l-12.5-16.5-12.5-16.5 1-17.5 1-17.5 7.5-12 7.5-12 8-12 8-12 11.5-9 11.5-9v-.5-.5l24-1.5 24-1.5h1.5 1.5 2 2 2.5 2.5 2 2 2 2" style="fill:#959183;stroke:#959183" />
        <path d="m189 392h1v-.5-.5h-2-2-1-1-1.5-1.5-1-1-1-1-1-1-1.5-1.5-1-1l-1.5-.5-1.5-.5-2.5.5-2.5.5h-2-2-1.5-1.5l-.5-.5-.5-.5-1.5.5-1.5.5h-2-2l1.5.5 1.5.5h2 2 2.5 2.5 2 2 2.5 2.5 2 2 2 2 2.5 2.5 2 2 2 2" style="fill:#85786c;stroke:#85786c" />
        <path d="m177 394h1l-24 1.5-24 1.5h1.5 1.5 1.5 1.5 1 1l1-.5 1-.5h2 2 1 1 1 1l.5-.5.5-.5 1-.5 1-.5h2 2 1 1 1.5 1.5 2 2 1 1 1.5 1.5 3 3 1 1" style="fill:#b9b4a6;stroke:#b9b4a6" />
        <path d="m174 395l1-1h-3-3-1.5-1.5-1-1-2-2-1.5-1.5-1-1-2-2l-1 .5-1 .5-.5.5-.5.5h-1-1-1-1-2-2l-1 .5-1 .5h-1-1-1.5-1.5-1.5-1.5v.5.5h3 3l2-.5 2-.5h2 2 2.5 2.5l1.5-.5 1.5-.5 1.5-.5 1.5-.5h2.5 2.5 2 2 2.5 2.5 2.5 2.5" style="fill:#cecbb3;stroke:#cecbb3" />
        <path d="m172 434l1-1-1.5-.5-1.5-.5h-.5-.5l-11-9-11-9-5 15-5 15 15-5.5 15-5.5 2.5.5 2.5.5" style="fill:#b9b4a6;stroke:#b9b4a6" />
        <path d="m169 432h1l-10-13-10-13-12.5 5.5-12.5 5.5 5.5 14 5.5 14 .5-.5.5-.5 5-15 5-15 11 9 11 9" style="fill:#cecbb3;stroke:#cecbb3" />
        <path d="m168 441h1l-1-.5-1-.5-.5-.5-.5-.5-.5-.5-.5-.5-1-.5-1-.5h-1-1l-.5-.5-.5-.5h-1-1l-1-.5-1-.5h-1-1-1-1l-.5-.5-.5-.5h-1.5-1.5l-.5.5-.5.5-.5.5-.5.5-.5 1-.5 1-.5 2-.5 2v1.5 1.5l-.5 1.5-.5 1.5-.5 1.5-.5 1.5v2.5 2.5l-1 1-1 1-1 1.5-1 1.5-.5 1.5-.5 1.5-1.5 2-1.5 2-.5 1-.5 1-.5 1.5-.5 1.5 9.5-13 9.5-13 4 8.5 4 8.5 4.5-11.5 4.5-11.5" style="fill:#391b0f;stroke:#391b0f" />
        <path d="m164 435h1l-1-1-1-1-1.5-.5-1.5-.5-1.5-1-1.5-1-1.5-.5-1.5-.5h-2-2-2.5-2.5l-1 1-1 1-.5 2-.5 2v2 2 1.5 1.5l1-1 1-1 .5-1 .5-1v-1.5-1.5l1-1 1-1 1-.5 1-.5h1 1l1.5.5 1.5.5h1.5 1.5l.5.5.5.5 1.5.5 1.5.5h1.5 1.5" style="fill:#524d41;stroke:#524d41" />
        <g style="fill:#391b0f;stroke:#391b0f">
            <path d="m162 549l-18-23-8.5-10.5-8.5-10.5 1 .5 1 .5.5.5.5.5.5 1 .5 1h1 1l.5.5.5.5v1 1l.5 1 .5 1 .5 1 .5 1 .5 1 .5 1 .5.5.5.5v1 1 1 1l-.5 1.5-.5 1.5-.5 1-.5 1-1 .5-1 .5h-1-1-1.5-1.5-2-2l2 .5 2 .5v1 1l-1 2-1 2h-2-2l-2 .5-2 .5-1.5-.5-1.5-.5-.5-1.5-.5-1.5-.5-2-.5-2-.5 2-.5 2v2 2l-.5 1.5-.5 1.5-.5.5-.5.5-.5 1-.5 1-1.5.5-1.5.5h-1-1l-1-.5-1-.5-1-1-1-1-1.5-1-1.5-1-2-1-2-1-12-1-12-1-13 2-13 2-22 2-22 2v2.5 2.5 2 2 2 2 2.5 2.5 2 2l16-2 16-2 26.5.5 26.5.5-16.5 4-16.5 4-26 7.5-26 7.5v2 2 1.5 1.5l18.5-5.5 18.5-5.5 16.5-3.5 16.5-3.5 17-3 17-3 16-2 16-2 13-7.5 13-7.5" />
            <path d="m155 668l-29-26-17.5.5-17.5.5h-15-15l-14.5 2.5-14.5 2.5-16 2.5-16 2.5v1.5 1.5 2 2l15.5-4 15.5-4 22 7 22 7-.5 1-.5 1-.5.5-.5.5h-1-1l-.5.5-.5.5.5 1 .5 1h21 21 17 17l-1.5-.5-1.5-.5h-1-1l1-1 1-1 1.5-.5 1.5-.5 1-1.5 1-1.5 1 1 1 1 2 .5 2 .5" />
        </g>
        <g style="fill:#3c3529;stroke:#3c3529">
            <path d="m144 442l1-4-.5 1-.5 1-1 1-1 1-.5 2.5-.5 2.5v2 2l-.5 2-.5 2-1 1-1 1-.5 1.5-.5 1.5-1 1.5-1 1.5-.5 2.5-.5 2.5 1.5-2 1.5-2 .5-1.5.5-1.5 1-1.5 1-1.5 1-1 1-1v-2.5-2.5l.5-1.5.5-1.5.5-1.5.5-1.5v-1.5-1.5" />
            <path d="m137 526l1-3v-1-1-1-1l-.5-.5-.5-.5-.5-1-.5-1-.5-1-.5-1v2 2l.5.5.5.5v1 1 1 1l-.5 1-.5 1-.5.5-.5.5-.5.5-.5.5h-1-1l-1.5.5-1.5.5-1-.5-1-.5-.5-.5-.5-.5h-1.5-1.5l1.5 1.5 1.5 1.5h2 2 1.5 1.5 1 1l1-.5 1-.5.5-1 .5-1" />
        </g>
        <path d="m129 532v-2l-2-.5-2-.5-1.5-1.5-1.5-1.5h-.5-.5-1.5-1.5l-1 .5-1 .5-1 1-1 1 .5 2 .5 2 .5 1.5.5 1.5 1.5.5 1.5.5 2-.5 2-.5h2 2l1-2 1-2" style="fill:#1a1105;stroke:#1a1105" />
        <path d="m121 526h1l-13 5-13 5-10.5-10.5-10.5-10.5v1.5 1.5l1 .5 1 .5.5.5.5.5.5 1 .5 1 .5 1.5.5 1.5.5.5.5.5.5.5.5.5.5.5.5.5 1 .5 1 .5 1 1 1 1 .5.5.5.5 1 .5 1 .5 1 1 1 1 1 1 1 1 2 1 2 1 1.5 1 1.5 1 1 1 1 1 1 .5 1 .5h1 1l1.5-.5 1.5-.5.5-1 .5-1 .5-.5.5-.5.5-1.5.5-1.5v-2-2l.5-2 .5-2 1-1 1-1 1-.5 1-.5h1.5 1.5" style="fill:#3c3529;stroke:#3c3529" />
        <path d="m120 520h1l-6.5-15-6.5-15-2.5-13-2.5-13-8 11.5-8 11.5 4 15.5 4 15.5v-1-1l-.5-1.5-.5-1.5-.5-.5-.5-.5v-1-1l-1-1-1-1 1-16 1-16 8.5 2.5 8.5 2.5 3.5 19.5 3.5 19.5h1.5 1.5" style="fill:#cecbb3;stroke:#cecbb3" />
        <path d="m116 520h1l-3.5-19.5-3.5-19.5-8.5-2.5-8.5-2.5-1 16-1 16 8-14.5 8-14.5-6 18.5-6 18.5v1 1l.5 1.5.5 1.5 1.5.5 1.5.5 1.5 1 1.5 1 1 1 1 1 .5 2 .5 2-1 1-1 1h-2-2v1 1h1 1l1.5.5 1.5.5 1.5-.5 1.5-.5.5-2 .5-2-.5-1.5-.5-1.5-.5-1-.5-1v-1-1l1-1 1-1h1.5 1.5l.5-.5.5-.5h2 2" style="fill:#b9b4a6;stroke:#b9b4a6" />
        <path d="m107 479l-16 29 1 1 1 1v1 1l.5.5.5.5.5 1.5.5 1.5 6-18.5 6-18.5" style="fill:#959183;stroke:#959183" />
        <path d="m106 402l-34-2-17.5-1.5-17.5-1.5-18.5-.5-18.5-.5v.5.5l19.5 1 19.5 1 30 6 30 6-.5 2-.5 2 1-.5 1-.5 1-1.5 1-1.5.5-1.5.5-1.5 1-1.5 1-1.5.5-1.5.5-1.5" style="fill:#391b0f;stroke:#391b0f" />
        <path d="m105 479l-13 17 5 7 5 7 1.5-15.5 1.5-15.5" style="fill:#85786c;stroke:#85786c" />
        <path d="m102 481l-8 22 3.5-8.5 3.5-8.5.5-2.5.5-2.5" style="fill:#765f4f;stroke:#765f4f" />
        <path d="m99 411l-60-12-19.5-1-19.5-1v3.5 3.5 2 2 2.5 2.5 2 2 2.5 2.5 2 2 .5.5l18.5 20.5 18.5 20.5-18.5 6.5-18.5 6.5v20 20 11 11l22-2 22-2 13-2 13-2 12 1 12 1-1-1-1-1-1-1-1-1-1-.5-1-.5-.5-.5-.5-.5-1-1-1-1-1-.5-1-.5-.5-.5-.5-.5-.5-.5-.5-.5-.5-.5-.5-.5-.5-1.5-.5-1.5-.5-1-.5-1-.5-.5-.5-.5-1-.5-1-.5v-1.5-1.5l-3.5-17-3.5-17 9.5-24 9.5-24 .5-2 .5-2 .5-.5.5-.5.5-1.5.5-1.5 1-1 1-1 1-1.5 1-1.5 1-1 1-1 1-1.5 1-1.5.5-2 .5-2" style="fill:#1a1105;stroke:#1a1105" />
        <g style="fill:#3c3529;stroke:#3c3529">
            <path d="m86 435l1-2-9.5 24-9.5 24 3.5 17 3.5 17-.5-1-.5-1-.5-1.5-.5-1.5-1-1-1-1v-1.5-1.5l.5-23 .5-23 .5-1.5.5-1.5 1-1.5 1-1.5 1-1 1-1 1-1.5 1-1.5 1-1 1-1 1-1 1-1 .5-2 .5-2 .5-1.5.5-1.5.5-1 .5-1" />
            <path d="m85 562l-53-1-16 2-16 2v3 3 2.5 2.5 2 2 2.5 2.5l26-7.5 26-7.5 16.5-4 16.5-4" />
            <path d="m75 666l-44-14-15.5 4-15.5 4v6 6h15.5 15.5 20 20l-.5-1-.5-1 .5-.5.5-.5h1 1l.5-.5.5-.5.5-1 .5-1" />
        </g>
        <path d="m71 482v-2-1-1-1-1-1-1l-.5-1.5-.5-1.5v-1.5-1.5-1-1l.5-1.5.5-1.5.5-2 .5-2-.5 23-.5 23v-3-3-1.5-1.5-1-1-2-2-1.5-1.5-1-1-1.5-1.5" style="fill:#524d41;stroke:#524d41" />
        <path d="m37 468l-37-41v2 2 2 2 2.5 2.5 2 2 2.5 2.5 2 2 2 2l14.5 7 14.5 7-1.5 1-1.5 1h-2-2l-2 .5-2 .5h-2-2l-1.5.5-1.5.5-2 .5-2 .5h-2-2-1.5-1.5v2.5 2.5l18.5-6.5 18.5-6.5" style="fill:#391b0f;stroke:#391b0f" />
        <path d="m29 471l-29-14v2 2 2 2 2.5 2.5 2 2 1 1h1.5 1.5 2 2l2-.5 2-.5 1.5-.5 1.5-.5h2 2l2-.5 2-.5h2 2l1.5-1 1.5-1" style="fill:#3c3529;stroke:#3c3529" />
    </g>
</svg>
